<svg xmlns="http://www.w3.org/2000/svg" viewBox="0 0 85.039 85.042"><defs><style>.a{fill:none;}.b{fill:#959290;}</style></defs><title>discourse-volume-s-final-color</title><path class="a" d="M53.816,27.1C42.847,31.09,42.509,45.1,53.4,37.93a18.966,18.966,0,0,0,7.636-10.216A8,8,0,0,0,53.816,27.1Z"/><path class="a" d="M32.612,35.881c0.7-8.347,7.87-17.549,17.381-20.776C27.3,10.076,13.4,34.525,18.142,52.831c4.691,18.117,31.974,27.925,45.444,3.712a31.9,31.9,0,0,0,4.081-14.989C52.985,60.36,31.273,51.908,32.612,35.881Z"/><path class="b" d="M73.935,27c-12.52-20.7-37.429-7.022-38.78,9.1-1.189,14.184,19.589,21.09,32.174,1.593a15.33,15.33,0,0,0-4.183-8.3c-2.872,8.2-12.078,15.352-17.975,12.082l-0.014,0c-11.106-6.512,15.948-31.4,23.978-7.013,4.939,15-7.677,42.383-32.664,38.418l0.025-.027C-3.248,63.457,16.2-.512,55.27,14a20.7,20.7,0,0,1,15.5,5.3c-1.687-5.488-6.1-9.786-12.729-12.277-49.133-18.455-73.361,61.633-23,73.2C66.263,86.475,86.608,47.946,73.935,27Z"/></svg>