<?xml version="1.0" encoding="UTF-8"?>
<svg xmlns="http://www.w3.org/2000/svg" viewBox="0 0 85.039 85.042">
  <defs>
    <style>.a{fill:none;}.b{fill:#a78f71;}</style>
  </defs>
  <title>discourse-volume-s-final-color</title>
  <path class="a" d="M32.176,53.344c1.251-5.306-.706-14.017-3.7-21.229C23.735,48.884,30.75,59.4,32.176,53.344Z"></path>
  <path class="a" d="M44.445,56.234C38.9,79.722.891,66.309,18.452,22.8c-15.7,22.9.142,67.388,41.922,45.38,8.934-4.707,14.043-19.528,11.632-33.741C68.1,11.382,46.262,6.171,35.521,18.417,42.384,28.794,47.162,44.7,44.445,56.234Z"></path>
  <path class="b" d="M53.259,2.218C14.98-3.511,5.672,65.064,31.156,65.064c16.355,0,13.329-27.355,2.655-44.462a36.167,36.167,0,0,0-4.169,7.948c11.672,24.3,2.086,35.864-3.225,25.51C20.037,41.619,28.483,6.071,52.146,9.636c29.477,4.423,28.333,50.836,9.417,60.8-18.078,9.52-33.987,8.14-43.649-3.8-17.054-21.062-2.02-50.547,2.955-49A40.41,40.41,0,0,1,25.041,11.3C8.519,2.64-8.593,45.823,12.085,71.359A34.548,34.548,0,0,0,39.321,84.327C94.936,84.327,94.608,8.424,53.259,2.218Z"></path>
</svg>
