<svg xmlns="http://www.w3.org/2000/svg" viewBox="0 0 551.74 394.883"><defs><style>.a{fill:#e52620;}.b{fill:#f07e1b;}.c{fill:#f3e600;}.d{fill:#8ebf22;}.e{fill:#67b32e;}.f{fill:#6fb966;}.g{fill:#6dc6d9;}.h{fill:#3b72b8;}.i{fill:#2b4b9b;}.j{fill:#564696;}.k{fill:#a6539b;}.l{fill:#e72580;}.m{opacity:0.98;}.n{fill:#fff;}</style></defs><title>cal</title><rect class="a" width="127.325" height="122.55" rx="40.751" ry="40.751"/><rect class="b" x="141.472" width="127.325" height="122.55" rx="40.751" ry="40.751"/><rect class="c" x="282.944" width="127.325" height="122.55" rx="40.751" ry="40.751"/><rect class="d" x="424.415" width="127.325" height="122.55" rx="40.751" ry="40.751"/><rect class="e" y="136.167" width="127.325" height="122.55" rx="40.751" ry="40.751"/><rect class="f" x="141.472" y="136.167" width="127.325" height="122.55" rx="40.751" ry="40.751"/><rect class="g" x="282.944" y="136.167" width="127.325" height="122.55" rx="40.751" ry="40.751"/><rect class="h" x="424.415" y="136.167" width="127.325" height="122.55" rx="40.751" ry="40.751"/><rect class="i" y="272.333" width="127.325" height="122.55" rx="40.751" ry="40.751"/><rect class="j" x="141.472" y="272.333" width="127.325" height="122.55" rx="40.751" ry="40.751"/><rect class="k" x="282.944" y="272.333" width="127.325" height="122.55" rx="40.751" ry="40.751"/><rect class="l" x="424.415" y="272.333" width="127.325" height="122.55" rx="40.751" ry="40.751"/><g class="m"><path class="n" d="M315.928,177.009V154.586c0-1.164.043-2.285,0.129-3.449h-0.129a30.72,30.72,0,0,1-1.25,3.191l-10.263,22.682h-3.493V147.255h2.76v22.251c0,1.207-.086,2.372-0.173,3.579h0.173c0.388-1.078.862-2.286,1.293-3.321l10.22-22.509h3.536v29.754h-2.8Z" transform="translate(-144.652 -100.367)"/><path class="n" d="M351.591,162.132c0,11.514-2.415,15.395-9.4,15.395-6.468,0-8.84-3.751-8.926-14.834h-5.52v14.316H324.9V147.255h2.846v13.109h5.52c0.259-10.133,2.674-13.626,8.926-13.626C349.176,146.738,351.591,150.619,351.591,162.132Zm-2.976,0c0-9.659-1.6-12.893-6.425-12.893-4.614,0-6.124,3.234-6.124,12.893s1.509,12.894,6.124,12.894C347.021,175.026,348.616,171.792,348.616,162.132Z" transform="translate(-144.652 -100.367)"/><path class="n" d="M373.887,177.009h-2.846V162.3h-11.3v14.7H356.9V147.255h2.846V159.89h11.3V147.255h2.846v29.754Z" transform="translate(-144.652 -100.367)"/><path class="n" d="M388.119,159.674c5.907,0,7.848,2.372,7.848,8.883,0,6.942-2.113,8.8-7.417,8.8a65.782,65.782,0,0,1-8.409-.345H380.1V147.255h2.846v12.419h5.175Zm4.959,8.883c0-4.744-.906-6.468-4.959-6.468h-5.175V174.81c1.337,0.043,3.148.043,5.175,0.043C392,174.853,393.078,173.646,393.078,168.558Z" transform="translate(-144.652 -100.367)"/></g><g class="m"><path class="n" d="M194.583,147.255a1.144,1.144,0,0,1,1.208,1.25l0.992,28.5h-2.846l-0.906-27.382H192.3l-5.52,23.329a1.2,1.2,0,0,1-1.25.948h-2.674a1.22,1.22,0,0,1-1.293-.948L176,149.627h-0.69l-0.863,27.382H171.6l0.949-28.5a1.144,1.144,0,0,1,1.207-1.25h3.32a1.166,1.166,0,0,1,1.208.992l4.614,19.4c0.345,1.38.646,2.674,0.948,4.054h0.647c0.3-1.38.6-2.717,0.949-4.1l4.614-19.361a1.21,1.21,0,0,1,1.25-.992h3.277Z" transform="translate(-144.652 -100.367)"/><path class="n" d="M205.15,167.178l-2.5,9.832h-2.932l7.762-28.935a1.067,1.067,0,0,1,1.078-.819h3.062a1.02,1.02,0,0,1,1.035.819l7.8,28.935h-2.932l-2.5-9.832H205.15Zm5.994-15.265c-0.216-.819-0.431-1.639-0.6-2.415h-0.905c-0.173.776-.388,1.6-0.6,2.415l-3.277,12.807h8.624Z" transform="translate(-144.652 -100.367)"/><path class="n" d="M238.958,177.009V154.586c0-1.164.043-2.285,0.129-3.449h-0.129a30.72,30.72,0,0,1-1.25,3.191l-10.263,22.682h-3.493V147.255h2.76v22.251c0,1.207-.086,2.372-0.173,3.579h0.173c0.388-1.078.862-2.286,1.293-3.321l10.22-22.509h3.536v29.754h-2.8Zm-0.733-37.99c0.129,3.234-1.811,5.692-5.131,5.692s-5.347-2.458-5.175-5.692h2.113c0,2.63,1.121,4.1,3.062,4.1,1.9,0,3.019-1.466,3.019-4.1h2.113Z" transform="translate(-144.652 -100.367)"/></g><g class="m"><path class="n" d="M462.653,177.009V154.586c0-1.164.043-2.285,0.129-3.449h-0.129a30.83,30.83,0,0,1-1.251,3.191L451.14,177.009h-3.493V147.255h2.76v22.251c0,1.207-.086,2.372-0.172,3.579h0.172c0.389-1.078.862-2.286,1.294-3.321l10.22-22.509h3.536v29.754h-2.8Z" transform="translate(-144.652 -100.367)"/><path class="n" d="M498.316,162.132c0,11.514-2.415,15.395-9.4,15.395-6.469,0-8.84-3.751-8.926-14.834h-5.52v14.316h-2.847V147.255h2.847v13.109h5.52c0.258-10.133,2.673-13.626,8.926-13.626C495.9,146.738,498.316,150.619,498.316,162.132Zm-2.976,0c0-9.659-1.6-12.893-6.425-12.893-4.614,0-6.123,3.234-6.123,12.893s1.509,12.894,6.123,12.894C493.745,175.026,495.341,171.792,495.341,162.132Z" transform="translate(-144.652 -100.367)"/><path class="n" d="M519.965,177.009h-2.846V149.584h-5c-1.6,0-2.415,1.078-2.544,3.234-0.733,11-.949,14.877-2.588,18.844-1.207,3.062-3.19,5.088-5.821,5.39l-0.259-2.2c1.424-.6,2.545-1.6,3.407-4.01,1.423-3.838,1.725-6.856,2.458-18.5,0.215-3.363,1.811-5.088,4.657-5.088h8.537v29.754Z" transform="translate(-144.652 -100.367)"/><path class="n" d="M534.2,159.674c5.908,0,7.849,2.372,7.849,8.883,0,6.942-2.113,8.8-7.417,8.8a65.8,65.8,0,0,1-8.409-.345h-0.043V147.255h2.847v12.419H534.2Zm4.959,8.883c0-4.744-.905-6.468-4.959-6.468h-5.174V174.81c1.336,0.043,3.147.043,5.174,0.043C538.077,174.853,539.155,173.646,539.155,168.558Z" transform="translate(-144.652 -100.367)"/></g><g class="m"><path class="n" d="M609.26,167.178l-2.5,9.832h-2.933l7.763-28.935a1.066,1.066,0,0,1,1.077-.819h3.063a1.019,1.019,0,0,1,1.034.819l7.806,28.935h-2.933l-2.5-9.832H609.26Zm5.994-15.265c-0.216-.819-0.432-1.639-0.6-2.415h-0.906c-0.172.776-.388,1.6-0.6,2.415l-3.277,12.807h8.625Z" transform="translate(-144.652 -100.367)"/><path class="n" d="M639.618,161.658c3.579,0.388,4.743,3.191,4.743,7.934,0,6.124-2.069,7.762-7.589,7.762a70.611,70.611,0,0,1-8.711-.345V147.255a54.693,54.693,0,0,1,7.633-.345c5.907,0,7.978,1.639,7.978,7.762,0,4.269-1.208,6.468-4.054,6.813v0.173Zm-4.01-12.333c-1.9,0-3.493,0-4.744.043v11.125h5.218c3.579-.043,4.83-1.121,4.83-5.52C640.912,150.4,639.532,149.325,635.608,149.325Zm5.907,19.879c0-5.088-1.38-6.425-5.391-6.511h-5.261v12.2c1.424,0.043,3.32.043,5.477,0.043C640.222,174.939,641.516,173.861,641.516,169.2Z" transform="translate(-144.652 -100.367)"/><path class="n" d="M663.682,147.471l-0.129,2.156H654.67c-1.639,0-2.372,1.078-2.372,3.234v24.148h-2.846V152.387c0-3.019,1.811-5.175,4.312-5.175C657.084,147.212,660.534,147.212,663.682,147.471Z" transform="translate(-144.652 -100.367)"/></g><g class="m"><path class="n" d="M194.766,282.788l-0.3,2.113a36.76,36.76,0,0,0-6.167-.388c-4.743,0-6.339,3.191-6.339,12.85s1.6,12.851,6.339,12.851a35.005,35.005,0,0,0,6.641-.475l0.345,2.113a20.963,20.963,0,0,1-6.986.905c-6.9,0-9.314-4.054-9.314-15.395s2.415-15.394,9.314-15.394A19.176,19.176,0,0,1,194.766,282.788Z" transform="translate(-144.652 -100.367)"/><path class="n" d="M214.172,312.023c-3.234.259-6.856,0.259-10.263,0.259-2.76,0-4.484-1.94-4.484-4.916V287.358c0-2.976,1.725-4.916,4.484-4.916,3.407,0,7.029,0,10.263.259L214,284.857h-9.616c-1.466,0-2.113,1.078-2.113,3.147v7.288h10.392v2.286H202.271v9.185c0,2.026.646,3.1,2.113,3.1H214Z" transform="translate(-144.652 -100.367)"/><path class="n" d="M236.036,312.239H233.19v-14.7h-11.3v14.7h-2.846V282.485h2.846V295.12h11.3V282.485h2.846v29.754Z" transform="translate(-144.652 -100.367)"/></g><g class="m"><path class="n" d="M337.579,297.362c0,11.514-2.5,15.395-9.4,15.395-6.986,0-9.4-3.881-9.4-15.395s2.415-15.394,9.4-15.394C335.078,281.968,337.579,285.849,337.579,297.362Zm-15.826,0c0,9.659,1.6,12.894,6.425,12.894,4.787,0,6.382-3.234,6.382-12.894s-1.6-12.893-6.382-12.893C323.349,284.469,321.753,287.7,321.753,297.362Z" transform="translate(-144.652 -100.367)"/><path class="n" d="M350.862,296.759c4.527,0.474,5.735,6.77,8.495,15.48h-3.019c-2.587-8.581-3.708-14.316-8.15-14.359h-2.76a30.635,30.635,0,0,1,.216,3.363v11h-2.8V282.485h2.8V292.1a29.027,29.027,0,0,1-.216,3.45h2.717c4.14,0,5.649-6.123,7.719-13.066h2.889c-2.2,7.2-3.666,13.669-7.891,14.187v0.086Z" transform="translate(-144.652 -100.367)"/><path class="n" d="M371.949,284.986v27.253H369.06V284.986h-7.719v-2.5h18.37v2.5h-7.762Z" transform="translate(-144.652 -100.367)"/></g><g class="m"><path class="n" d="M477.142,312.239h-2.847v-14.7H463v14.7h-2.847V282.485H463V295.12h11.3V282.485h2.847v29.754Z" transform="translate(-144.652 -100.367)"/><path class="n" d="M501.248,297.362c0,11.514-2.5,15.395-9.4,15.395-6.985,0-9.4-3.881-9.4-15.395s2.415-15.394,9.4-15.394C498.747,281.968,501.248,285.849,501.248,297.362Zm-15.825,0c0,9.659,1.6,12.894,6.425,12.894,4.786,0,6.382-3.234,6.382-12.894s-1.6-12.893-6.382-12.893C487.019,284.469,485.423,287.7,485.423,297.362Z" transform="translate(-144.652 -100.367)"/><path class="n" d="M521.56,282.485v29.754h-2.847V299.82c-1.336,0-3.1.043-5.39,0.043-1.6,0-2.631.949-3.234,3.406l-2.112,8.97h-3.062l2.243-9.1c0.646-2.458,1.94-3.752,3.233-4.14l-0.043-.259c-3.147-.561-4.4-3.708-4.4-7.891,0-6.425,2.242-8.71,7.547-8.71A60.815,60.815,0,0,1,521.56,282.485Zm-2.847,2.113c-1.336-.043-3.1-0.043-5.174-0.043-3.407,0-4.7,1.466-4.7,6.425,0,3.924,1.121,6.425,4.484,6.425h5.39V284.6Z" transform="translate(-144.652 -100.367)"/></g><g class="m"><path class="n" d="M626.25,318.751h-1.984l-0.3-6.512H606.5l-0.3,6.512h-1.983v-8.84h2.069c2.717-6.685,3.493-14.532,3.752-22.251,0.129-3.277,1.854-5.175,4.786-5.175h8.452v27.426h2.976v8.84Zm-5.778-33.937H615.3c-1.725,0-2.415.949-2.544,3.191-0.345,8.409-1.121,15.61-3.709,21.906h11.428v-25.1Z" transform="translate(-144.652 -100.367)"/><path class="n" d="M645.009,312.023c-3.234.259-6.856,0.259-10.263,0.259-2.76,0-4.485-1.94-4.485-4.916V287.358c0-2.976,1.726-4.916,4.485-4.916,3.406,0,7.028,0,10.263.259l-0.173,2.156H635.22c-1.466,0-2.112,1.078-2.112,3.147v7.288H643.5v2.286H633.107v9.185c0,2.026.646,3.1,2.112,3.1h9.616Z" transform="translate(-144.652 -100.367)"/><path class="n" d="M657.9,296.759c4.528,0.474,5.735,6.77,8.5,15.48H663.38c-2.587-8.581-3.708-14.316-8.149-14.359h-2.76a30.748,30.748,0,0,1,.215,3.363v11h-2.8V282.485h2.8V292.1a29.137,29.137,0,0,1-.215,3.45h2.716c4.14,0,5.649-6.123,7.719-13.066h2.89c-2.2,7.2-3.665,13.669-7.892,14.187v0.086Z" transform="translate(-144.652 -100.367)"/></g><g class="m"><path class="n" d="M192.065,420.423v29.754h-2.846V437.758c-1.337,0-3.1.043-5.39,0.043-1.6,0-2.63.949-3.234,3.406l-2.113,8.97H175.42l2.242-9.1c0.647-2.458,1.94-3.752,3.234-4.14l-0.043-.259c-3.148-.561-4.4-3.708-4.4-7.891,0-6.426,2.243-8.711,7.546-8.711A60.823,60.823,0,0,1,192.065,420.423Zm-2.846,2.113c-1.337-.043-3.1-0.043-5.175-0.043-3.406,0-4.7,1.466-4.7,6.425,0,3.924,1.121,6.425,4.485,6.425h5.39V422.536Z" transform="translate(-144.652 -100.367)"/><path class="n" d="M215.266,450.177h-2.846v-14.7h-11.3v14.7h-2.846V420.423h2.846v12.635h11.3V420.423h2.846v29.754Z" transform="translate(-144.652 -100.367)"/><path class="n" d="M233.033,434.825c3.579,0.389,4.744,3.191,4.744,7.935,0,6.123-2.07,7.762-7.589,7.762a70.63,70.63,0,0,1-8.711-.345V420.423a54.693,54.693,0,0,1,7.633-.345c5.908,0,7.978,1.639,7.978,7.762,0,4.27-1.208,6.469-4.054,6.813v0.172Zm-4.01-12.332c-1.9,0-3.493,0-4.743.043v11.125H229.5c3.579-.043,4.83-1.121,4.83-5.52C234.327,423.571,232.947,422.493,229.023,422.493Zm5.908,19.879c0-5.089-1.38-6.426-5.39-6.512H224.28v12.2c1.423,0.044,3.32.044,5.476,0.044C233.637,448.107,234.931,447.029,234.931,442.372Z" transform="translate(-144.652 -100.367)"/></g><g class="m"><path class="n" d="M329.57,447.59v4.354h-2.889V447.59c-8.064-.3-11-3.666-11-12.635,0-9.142,2.932-12.5,11-12.808v-4.312h2.846l0.043,4.312c8.021,0.346,10.953,3.666,10.953,12.808C340.522,443.924,337.59,447.244,329.57,447.59Zm-2.8-2.372V424.563c-6.166.259-8.15,2.717-8.15,10.393C318.617,442.458,320.6,444.959,326.767,445.218Zm2.674,0c6.166-.259,8.15-2.76,8.15-10.263,0-7.676-1.984-10.134-8.15-10.393v20.655Z" transform="translate(-144.652 -100.367)"/><path class="n" d="M359.972,449.961c-3.234.259-6.856,0.259-10.263,0.259-2.76,0-4.484-1.94-4.484-4.916V425.3c0-2.976,1.725-4.916,4.484-4.916,3.407,0,7.029,0,10.263.259l-0.172,2.156h-9.616c-1.466,0-2.113,1.078-2.113,3.147v7.288h10.392v2.285H348.071V444.7c0,2.026.646,3.1,2.113,3.1H359.8Z" transform="translate(-144.652 -100.367)"/><path class="n" d="M376.4,434.825c3.579,0.389,4.744,3.191,4.744,7.935,0,6.123-2.07,7.762-7.589,7.762a70.63,70.63,0,0,1-8.711-.345V420.423a54.693,54.693,0,0,1,7.633-.345c5.908,0,7.978,1.639,7.978,7.762,0,4.27-1.208,6.469-4.054,6.813v0.172Zm-4.01-12.332c-1.9,0-3.493,0-4.743.043v11.125h5.218c3.579-.043,4.83-1.121,4.83-5.52C377.7,423.571,376.316,422.493,372.392,422.493Zm5.908,19.879c0-5.089-1.38-6.426-5.39-6.512h-5.261v12.2c1.423,0.044,3.32.044,5.476,0.044C377.006,448.107,378.3,447.029,378.3,442.372Z" transform="translate(-144.652 -100.367)"/></g><g class="m"><path class="n" d="M471.551,420.423a1.144,1.144,0,0,1,1.207,1.251l0.992,28.5H470.9L470,422.795h-0.733l-5.52,23.328a1.2,1.2,0,0,1-1.25.949h-2.674a1.221,1.221,0,0,1-1.294-.949l-5.562-23.328h-0.689l-0.862,27.382h-2.847l0.949-28.5a1.144,1.144,0,0,1,1.207-1.251h3.32a1.166,1.166,0,0,1,1.208.992l4.613,19.4c0.346,1.38.647,2.674,0.949,4.054h0.646c0.3-1.38.6-2.717,0.949-4.1l4.613-19.361a1.21,1.21,0,0,1,1.251-.992h3.277Z" transform="translate(-144.652 -100.367)"/><path class="n" d="M482.117,440.345l-2.5,9.832h-2.933l7.763-28.935a1.065,1.065,0,0,1,1.077-.819h3.063a1.019,1.019,0,0,1,1.034.819l7.806,28.935h-2.933l-2.5-9.832h-9.875Zm5.994-15.265c-0.216-.819-0.432-1.639-0.6-2.415H486.6c-0.172.776-.388,1.6-0.6,2.415l-3.277,12.807h8.625Z" transform="translate(-144.652 -100.367)"/><path class="n" d="M516.658,429.177c0,7.158-1.9,9.1-7.244,9.1a51.4,51.4,0,0,1-5.648-.3v12.2h-2.847V420.423a62.2,62.2,0,0,1,8.193-.345C514.761,420.078,516.658,422.062,516.658,429.177Zm-7.632,6.641c3.579,0,4.786-1.38,4.786-6.641,0-5.3-1.207-6.684-4.786-6.684-2.07,0-3.881,0-5.261.043v13.281h5.261Z" transform="translate(-144.652 -100.367)"/><path class="n" d="M529.727,422.924v27.253h-2.89V422.924h-7.719v-2.5h18.37v2.5h-7.762Z" transform="translate(-144.652 -100.367)"/></g><g class="m"><path class="n" d="M606.055,440.345l-2.5,9.832h-2.933l7.763-28.935a1.065,1.065,0,0,1,1.077-.819h3.063a1.019,1.019,0,0,1,1.034.819l7.806,28.935h-2.933l-2.5-9.832h-9.875Zm5.994-15.265c-0.216-.819-0.432-1.639-0.6-2.415h-0.906c-0.172.776-.388,1.6-0.6,2.415l-3.277,12.807h8.625Z" transform="translate(-144.652 -100.367)"/><path class="n" d="M641.89,450.177h-2.846V422.752H627.7v27.425h-2.847V420.423H641.89v29.754Z" transform="translate(-144.652 -100.367)"/><path class="n" d="M663.8,429.177c0,7.158-1.9,9.1-7.244,9.1a51.4,51.4,0,0,1-5.648-.3v12.2h-2.847V420.423a62.2,62.2,0,0,1,8.193-.345C661.9,420.078,663.8,422.062,663.8,429.177Zm-7.632,6.641c3.579,0,4.786-1.38,4.786-6.641,0-5.3-1.207-6.684-4.786-6.684-2.07,0-3.881,0-5.261.043v13.281h5.261Z" transform="translate(-144.652 -100.367)"/></g></svg>