<svg id="Layer_1" data-name="Layer 1" xmlns="http://www.w3.org/2000/svg" viewBox="0 0 283.46 283.46">
  <defs>
    <style>
      .cls-1 {
        fill: #4a017d;
      }

      .cls-2 {
        fill: #6b1687;
      }

      .cls-3 {
        fill: #fe330a;
      }

      .cls-4 {
        fill: #ff8000;
      }

      .cls-5 {
        fill: #40a629;
      }
    </style>
  </defs>
  <title>PDM</title>
  <g>
    <g id="_Group_" data-name="&lt;Group&gt;">
      <g id="_Group_2" data-name="&lt;Group&gt;">
        <path class="cls-1" d="M129.73,200.69c.09-.35,1.12-4.25,1.18-4.45s1.31-5.11,1.34-5.27.25-.6.51-.52.48.26.6.8,1.11,7.89,1.24,8.62a84.52,84.52,0,0,1,.66,10c-.16,2.27-5.71,1.72-6.43,1.72s-5.21.74-5.81,1.46l-.08.1s0,3-.08,3.08-.26.37-.39.39-.35-.33-.43-1-.26-.88-.44-.94a.77.77,0,0,0-.76.14,2.43,2.43,0,0,0-.67,1.09c-.08.39-.76,3.14-.69,3.28s2.1,2.15,2.87,2.27,36.95.09,36.95.09a6.79,6.79,0,0,0,2.4-.55c.87-.48,1-.64,1.08-.84a9.72,9.72,0,0,0,.73-2.17,7.16,7.16,0,0,0,0-1.54c-.08-.41,0-.79-.27-1a.79.79,0,0,0-.66-.24c-.28,0-.62,0-.73.31a3.27,3.27,0,0,1-.4.7,1.1,1.1,0,0,1-.36.35c-.19.13-.15.22-.35.17s-.16-.33-.16-.59a7.4,7.4,0,0,1,.31-1.64,5.12,5.12,0,0,0,.36-.87c0-.13.19-.25.14-.4s0-.12-.21-.1-2.35-.64-2.58-.68a34.47,34.47,0,0,0-4.52-.75,20.53,20.53,0,0,1-5-.94c-.5-.28-.53-.35-.56-1s-.08-4,0-4.45.31-4,.43-4.48.45-2.42.55-2.88.61-3.08.63-3.26.59-3.44.68-3.64.17-.36.38-.35.22.11.35.33a15.32,15.32,0,0,1,.72,1.67c.11.35,1.76,4.66,1.9,5s1,2.52,1.13,2.84a63.75,63.75,0,0,0,4,7.8c1.57,2.24,2.5,3.26,2.36,3.84s-.66,2.4-.66,2.4a8.2,8.2,0,0,0-.31,1.1,5.13,5.13,0,0,0-.07.72c0,.09,0,.23.19.22s.36-.22.41-.29a4.52,4.52,0,0,0,.36-.61c0-.13.28-.59.57-.62s.76-.09,1,.1a1.12,1.12,0,0,1,.42.76,8.49,8.49,0,0,1,.06,1.88,13.26,13.26,0,0,1-.55,1.87c-.21.23-.29.45-.14.48a3,3,0,0,0,1.1-.5,5.16,5.16,0,0,0,.81-1.63,10.5,10.5,0,0,0,.08-2.51,10.11,10.11,0,0,0-1-3.26,22.29,22.29,0,0,1-1.08-3.09c-.08-.31-1-3.65-1.19-3.88s-1.87-3.5-1.92-3.7a23.57,23.57,0,0,1-1.26-3.36c-.2-1.08-1.22-4.53-1.38-4.9a19,19,0,0,0-1.32-2.78,4.15,4.15,0,0,1-.67-1.8,9.12,9.12,0,0,0-1.66-4,5.65,5.65,0,0,0-3.38-1.75,26.3,26.3,0,0,1-3.41-.09c-.55-.19-1.72-.69-2-1.33a5.86,5.86,0,0,1-.15-2.13,11.81,11.81,0,0,0-1.16.61,5.08,5.08,0,0,1-1.26.28,14.45,14.45,0,0,1-2.56-1.35l-.13.06s.15,2,.1,2.16a4,4,0,0,1-.84.93,3.44,3.44,0,0,1-1.18.6c-.38,0-3.64.53-4,.55a7.16,7.16,0,0,0-2.15.41,5.71,5.71,0,0,0-2.08,3.22c-.43,1.7-3,8.7-2.93,11,0,0-1.44,3-2.18,4.94s-2.45,7.95-2.88,8.6-.49.9-.82,1-1.22.67-1.4,1.27a8.45,8.45,0,0,0-.49,2.87,7.12,7.12,0,0,0,.44,2.36c.2.12.44.07.44-.06a23.72,23.72,0,0,1,.93-4c.28-.29.54-.61,1-.58s.67.64.68.89.07,1,.28,1.06.41-.33.47-.51a18.13,18.13,0,0,0,.07-2,7.75,7.75,0,0,1,0-.84,2.76,2.76,0,0,1,0-.35,7.59,7.59,0,0,1,.68-1.63c.19-.2,2.11-3.29,2.21-3.52s3.4-5.43,3.55-6C129.46,201.47,129.66,200.94,129.73,200.69Z"/>
        <path class="cls-2" d="M148.37,221.89c-10.81,0-25.57,0-26.09-.1-.79-.12-2.5-1.76-3-2.28a.76.76,0,0,1-.5-.1c-.27-.15-.37-.62-.57-2.51v-.07a8.14,8.14,0,0,1,.46-2.83l0-.15c.25-.85,1.54-1.44,1.56-1.45s.2-.16.39-.47c.08-.13.18-.29.3-.48a44.81,44.81,0,0,0,1.5-4.43c.5-1.6,1-3.26,1.35-4.11.68-1.76,2-4.45,2.16-4.89,0-1.77,1.26-5.74,2.2-8.65.33-1,.62-1.91.74-2.37a5.93,5.93,0,0,1,2.22-3.4,7.36,7.36,0,0,1,2.27-.45c.16,0,1.13-.15,2-.28s1.8-.26,2-.28a2.8,2.8,0,0,0,.9-.46l.14-.09a4.29,4.29,0,0,0,.71-.77c0-.22,0-1.19-.11-2l.16-.28.13-.06h.28A13.69,13.69,0,0,0,142,180.2a4.77,4.77,0,0,0,1.13-.26c1.23-.7,1.26-.69,1.42-.59l.15.25v.08a4.34,4.34,0,0,0,.13,1.94,3.5,3.5,0,0,0,1.84,1.17,10.2,10.2,0,0,0,2.05.08c.49,0,1,0,1.28,0a6,6,0,0,1,3.57,1.84,8.82,8.82,0,0,1,1.67,3.85l.08.34a3.8,3.8,0,0,0,.57,1.56c.09.09.35.36,1.37,2.84.18.43,1.2,3.88,1.41,5a16.74,16.74,0,0,0,1,2.84c.13.31.19.43.21.5.09.24,1.72,3.39,1.88,3.61s1.23,3.94,1.24,4a23.07,23.07,0,0,0,1,3,10.33,10.33,0,0,1,1.08,3.4,8.19,8.19,0,0,1,0,2.21,3,3,0,0,0,0,.33,5,5,0,0,1-.9,1.85,3.17,3.17,0,0,1-1.32.58,3.83,3.83,0,0,1-1.06.73,7,7,0,0,1-2.53.58Zm-28.62-2.75a10,10,0,0,0,2.63,2.08c.72.09,24.46.1,36.9.08a6.54,6.54,0,0,0,2.26-.51c.81-.45.91-.58.95-.68l.12-.29a7.43,7.43,0,0,0,.6-1.81l0-.29a5.25,5.25,0,0,0,0-1.18c0-.13,0-.25,0-.36s0-.39-.13-.46a.52.52,0,0,0-.46-.17c-.21,0-.43,0-.47.12a3.58,3.58,0,0,1-.44.76,1.36,1.36,0,0,1-.42.41l-.09.08a.46.46,0,0,1-.49.14c-.4-.09-.4-.52-.39-.78v-.09a7,7,0,0,1,.35-1.8,5,5,0,0,0,.32-.78.66.66,0,0,1,.06-.16c-.22,0-.66-.16-1.6-.43l-.87-.24-.47-.1a26.58,26.58,0,0,0-4-.65H154a20.64,20.64,0,0,1-5.06-1c-.59-.33-.68-.49-.7-1.21s-.08-4,0-4.49c0-.11,0-.39.06-.77.13-1.61.28-3.36.37-3.74s.2-1,.32-1.7.18-1,.22-1.18c.1-.48.61-3.07.63-3.24s.58-3.45.7-3.72a.71.71,0,0,1,.66-.52.58.58,0,0,1,.53.37l.06.1a15.44,15.44,0,0,1,.75,1.73c.1.32,1.74,4.61,1.89,5l.3.77c.29.74.72,1.85.82,2.06l.1.22a49.84,49.84,0,0,0,3.89,7.54c.39.56.74,1,1,1.45,1,1.37,1.5,2.06,1.36,2.63-.05.21-.15.58-.26,1a.59.59,0,0,1-.09.33l-.31,1.12a8.12,8.12,0,0,0-.29,1,2.73,2.73,0,0,1,0,.37l0,.18.08-.08a4.8,4.8,0,0,0,.32-.53c.05-.16.35-.77.81-.82a1.62,1.62,0,0,1,1.2.17,1.42,1.42,0,0,1,.52,1v.06c.14,1.42.11,1.8,0,2s-.09.34-.14.57a6.67,6.67,0,0,1-.33,1.18,2.47,2.47,0,0,0,.43-.25,5.66,5.66,0,0,0,.72-1.41,2.85,2.85,0,0,1,0-.42,7.66,7.66,0,0,0,0-2.06,10,10,0,0,0-1-3.13,21.82,21.82,0,0,1-1.13-3.19c-.12-.47-1-3.51-1.15-3.79s-1.88-3.51-2-3.78c0-.05-.09-.21-.18-.42a17,17,0,0,1-1.08-3c-.19-1.06-1.21-4.47-1.36-4.84a13.29,13.29,0,0,0-1.26-2.69,4,4,0,0,1-.71-1.83l-.08-.34a8.36,8.36,0,0,0-1.53-3.59,5.41,5.41,0,0,0-3.18-1.65c-.3,0-.75,0-1.24,0a8.79,8.79,0,0,1-2.25-.11c-.42-.14-1.81-.67-2.18-1.48a4.23,4.23,0,0,1-.2-1.78l-.7.39,0,0a5.19,5.19,0,0,1-1.36.3,9.31,9.31,0,0,1-2.36-1.18,7.76,7.76,0,0,1,.06,1.85,4,4,0,0,1-1,1.08l-.13.09a2.86,2.86,0,0,1-1.18.56c-.18,0-1.12.15-2,.27-1.15.17-1.85.27-2,.28a6.76,6.76,0,0,0-2,.38,5.48,5.48,0,0,0-1.94,3c-.12.47-.4,1.33-.75,2.41-.89,2.75-2.23,6.9-2.17,8.52l0,.14s-1.44,3-2.17,4.91c-.32.83-.84,2.48-1.34,4.08a35.86,35.86,0,0,1-1.57,4.58l-.29.46a1.46,1.46,0,0,1-.65.69c-.33.15-1.11.63-1.24,1.08l0,.16a7.7,7.7,0,0,0-.44,2.6v.07a12.83,12.83,0,0,0,.32,2.07,18.36,18.36,0,0,1,1-4l.06-.06a1.46,1.46,0,0,1,1.2-.61c.65,0,.93.73,1,1.16a3.78,3.78,0,0,0,.09.68,1.24,1.24,0,0,0,.09-.2c0-.18.07-1.69.06-1.84a7.82,7.82,0,0,1,0-.9,3,3,0,0,1,.05-.39,7.42,7.42,0,0,1,.75-1.76c.21-.24,2.06-3.22,2.16-3.44s.26-.44.92-1.51c.88-1.43,2.52-4.08,2.62-4.42,0-.12.1-.3.16-.49s.14-.41.17-.54h0l.35-1.33c.35-1.33.79-3,.83-3.13s1.3-5.08,1.33-5.24a1.15,1.15,0,0,1,.44-.68.53.53,0,0,1,.43-.07,1.17,1.17,0,0,1,.8,1c.07.3.38,2.56.69,4.75.25,1.82.49,3.55.55,3.88a83.34,83.34,0,0,1,.66,10.07c-.16,2.3-4.64,2.08-6.33,2l-.39,0c-.91,0-5.12.79-5.59,1.35l0,0c0,3-.07,3.07-.15,3.17l0,.06c-.17.22-.32.4-.52.43a.39.39,0,0,1-.31-.08,1.72,1.72,0,0,1-.46-1.13c-.07-.6-.23-.69-.24-.7a.5.5,0,0,0-.48.07,2.15,2.15,0,0,0-.58.94c0,.11-.09.4-.18.77C120.1,217.44,119.78,218.79,119.75,219.13Zm-.62-.08a.19.19,0,0,0,0,.05Zm35-7.59a27.91,27.91,0,0,1,4.08.67l.44.09c.1,0,.35.09.95.26s1.42.41,1.58.42h0l.18-.68c.08-.31-.49-1.08-1.27-2.15-.31-.42-.66-.9-1-1.46A50.34,50.34,0,0,1,155.1,201l-.09-.21c-.11-.23-.53-1.31-.84-2.1l-.3-.76c-.1-.25-1.79-4.65-1.91-5a15.13,15.13,0,0,0-.69-1.61l-.07-.11-.05-.09a1.63,1.63,0,0,0-.1.19c-.09.25-.63,3.38-.65,3.55s-.55,2.89-.64,3.29c0,.2-.13.66-.22,1.16-.12.66-.26,1.42-.33,1.72s-.27,2.59-.35,3.66c0,.39-.06.68-.07.78,0,.41,0,3.73,0,4.42,0,.51,0,.51.41.73a21.32,21.32,0,0,0,4.82.9ZM130,200.76c0,.14-.11.36-.19.58s-.12.35-.15.46a50.41,50.41,0,0,1-2.68,4.56c-.43.7-.84,1.36-.88,1.45s-2,3.36-2.26,3.6a6.16,6.16,0,0,0-.47,1.05,22.21,22.21,0,0,1,5.44-1.18l.42,0c3.72.18,5.64-.31,5.73-1.46a84.52,84.52,0,0,0-.65-9.93c-.06-.34-.3-2.07-.56-3.9-.29-2.08-.62-4.43-.68-4.71-.11-.5-.29-.55-.39-.58a1.16,1.16,0,0,0-.15.3c0,.21-1.33,5.26-1.35,5.3s-.49,1.86-.83,3.12l-.35,1.33Z"/>
      </g>
      <g id="_Group_3" data-name="&lt;Group&gt;">
        <path class="cls-1" d="M142.28,168.15a5.81,5.81,0,0,0-4,1.92c-1.38,1.81-.76,2.82-.76,4.24a.75.75,0,0,0-.37.31,1.24,1.24,0,0,0,.13,1,5.93,5.93,0,0,1,.41,1c.07.17.41.35.41.35a3.6,3.6,0,0,0,.33,1.33c.24.26,2.27,2.2,3.62,2.2a5,5,0,0,0,3.73-2.64l.2-1.09a2.34,2.34,0,0,0,.37-.46,6.74,6.74,0,0,1,.31-.94c.09-.11.31-.59.2-.76a.37.37,0,0,0-.33-.15,12.86,12.86,0,0,0,.17-2.64,8.3,8.3,0,0,0-1.24-2.23A4.91,4.91,0,0,0,142.28,168.15Z"/>
        <path class="cls-2" d="M142.07,180.84h0c-1.61,0-3.82-2.27-3.84-2.3a3,3,0,0,1-.39-1.35,1,1,0,0,1-.41-.43l-.06-.19a4.27,4.27,0,0,0-.33-.82,1.53,1.53,0,0,1-.15-1.27.86.86,0,0,1,.34-.36c0-.26,0-.51-.06-.76a4.13,4.13,0,0,1,.89-3.48,6,6,0,0,1,4.21-2h0a4.86,4.86,0,0,1,3.19,1.39l.18.16a8.36,8.36,0,0,1,1.34,2.36,9.32,9.32,0,0,1-.12,2.52.59.59,0,0,1,.25.22c.23.37-.15,1-.22,1.1s-.15.48-.2.64l-.06.21a1.76,1.76,0,0,1-.38.51l-.21,1.09C145.31,179.42,143.61,180.84,142.07,180.84Zm.21-12.4a5.54,5.54,0,0,0-3.76,1.81,3.56,3.56,0,0,0-.78,3.06,8.73,8.73,0,0,1,.07,1l-.19.27a.47.47,0,0,0-.21.15,1,1,0,0,0,.12.74,4.73,4.73,0,0,1,.38.93l.05.16a1,1,0,0,0,.27.19l.16.24a3.25,3.25,0,0,0,.25,1.16c.25.28,2.21,2.11,3.41,2.11h0a4.71,4.71,0,0,0,3.45-2.45l.19-1,.08-.15a2.38,2.38,0,0,0,.31-.36l0-.17a2.76,2.76,0,0,1,.3-.85,1.12,1.12,0,0,0,.16-.46s0,0,0,0h0l-.31-.33a11.8,11.8,0,0,0,.19-2.5,8.39,8.39,0,0,0-1.15-2.1l-.21-.18A4.28,4.28,0,0,0,142.29,168.44Zm-4.76,5.87h0Z"/>
      </g>
    </g>
    <g id="_Group_4" data-name="&lt;Group&gt;">
      <path class="cls-3" d="M178.9,223.92H168.45V165H115v58.94H104.56V159.75a5.22,5.22,0,0,1,5.22-5.22h63.89a5.22,5.22,0,0,1,5.22,5.22Z"/>
    </g>
    <g id="_Group_5" data-name="&lt;Group&gt;">
      <g id="_Group_6" data-name="&lt;Group&gt;">
        <rect class="cls-4" x="42.13" y="221.69" width="199.2" height="10.45"/>
      </g>
      <g id="_Group_7" data-name="&lt;Group&gt;">
        <path class="cls-4" d="M216.6,232.14a5.22,5.22,0,0,1-4.44-2.46L142,116.92,71.29,229.69a5.22,5.22,0,0,1-8.85-5.55l75.14-119.86a5.22,5.22,0,0,1,4.43-2.45h0a5.22,5.22,0,0,1,4.43,2.46L221,224.16a5.23,5.23,0,0,1-4.43,8Z"/>
      </g>
    </g>
    <g id="_Group_8" data-name="&lt;Group&gt;">
      <polygon class="cls-5" points="234.1 221.59 223.66 221.59 223.66 68.93 141.73 113.67 59.8 68.93 59.8 221.59 49.36 221.59 49.36 51.32 141.73 101.77 234.1 51.32 234.1 221.59"/>
    </g>
  </g>
</svg>
