<?xml version="1.0" encoding="utf-8"?>
<!-- Generator: Adobe Illustrator 24.0.1, SVG Export Plug-In . SVG Version: 6.00 Build 0)  -->
<svg version="1.1" id="Layer_1" xmlns="http://www.w3.org/2000/svg" xmlns:xlink="http://www.w3.org/1999/xlink" x="0px" y="0px"
	 viewBox="0 0 141.7 141.7" style="enable-background:new 0 0 141.7 141.7;" xml:space="preserve">
<style type="text/css">
	.st0{fill:#673090;}
	.st1{fill:#FFFFFF;}
	.st2{fill:#08A650;}
	.st3{fill:#6E6F72;}
	.st4{fill:#EC2227;}
	.st5{fill:#F26724;}
</style>
<title>square</title>
<g>
	<rect x="38.3" y="2.8" class="st0" width="29.8" height="136.1"/>
	<path class="st1" d="M65.2,5.7v130.4H41.1V5.7H65.2 M70.9,0H35.4v141.7h35.4V0L70.9,0z"/>
</g>
<g>
	<rect x="109.1" y="2.8" class="st2" width="29.8" height="136.1"/>
	<path class="st1" d="M136.1,5.7v130.4H112V5.7H136.1 M141.7,0h-35.4v141.7h35.4V0L141.7,0z"/>
</g>
<g>
	<rect x="2.8" y="2.8" class="st3" width="29.8" height="136.1"/>
	<path class="st1" d="M29.8,5.7v130.4H5.7V5.7H29.8 M35.4,0H0v141.7h35.4V0L35.4,0z"/>
</g>
<g>
	<rect x="73.7" y="2.8" class="st4" width="29.8" height="136.1"/>
	<path class="st1" d="M100.6,5.7v130.4H76.5V5.7H100.6 M106.3,0H70.9v141.7h35.4V0L106.3,0z"/>
</g>
<g>
	
		<rect x="1" y="55.9" transform="matrix(0.7071 -0.7071 0.7071 0.7071 -29.8051 69.7685)" class="st5" width="136.7" height="29.9"/>
	<path class="st1" d="M107.1,16l17.1,17.1l-92.6,92.6l-17.1-17.1L107.1,16 M107.1,8L6.4,108.6l25.1,25.1L132.2,33.1L107.1,8L107.1,8
		z"/>
</g>
</svg>
