<svg id="Layer_1" data-name="Layer 1" xmlns="http://www.w3.org/2000/svg" viewBox="0 0 283.46 283.46"><defs><style>.cls-1{fill:none;}.cls-2{fill:#6e6f72;}.cls-3{fill:#673090;}.cls-4{fill:#ec2227;}.cls-5{fill:#08a650;}.cls-6{fill:#f26724;}</style></defs><title>sq-round</title><path class="cls-1" d="M224.93,83.89V39.65a18.41,18.41,0,0,1,18.3-18.42h-.12a18.38,18.38,0,0,0-13,5.4l-34.5,34.5v52.11Z"/><path class="cls-1" d="M57.7,199v43.72a18.43,18.43,0,1,1-36.85,0v-2.39A18.43,18.43,0,0,0,52,256.85l37.65-37.66V167.08Z"/><polygon class="cls-1" points="126.47 130.23 126.47 182.34 158.73 150.08 158.73 97.97 126.47 130.23"/><path class="cls-2" d="M57.7,39.65a18.43,18.43,0,1,0-36.85,0V219.82L57.7,183Z"/><path class="cls-3" d="M126.47,39.65a18.42,18.42,0,0,0-19-18.42c-10,.34-17.8,8.89-17.8,18.9V150.94a0,0,0,0,0,.08,0l36.76-36.76a0,0,0,0,0,0,0Z"/><path class="cls-3" d="M89.62,242.72a18.43,18.43,0,1,0,36.85,0V198.38L89.62,235.23Z"/><path class="cls-4" d="M195.58,39.65a18.43,18.43,0,1,0-36.85,0V81.93l36.85-36.84Z"/><path class="cls-4" d="M158.73,242.72a18.43,18.43,0,1,0,36.85,0V129.27l-36.85,36.85Z"/><path class="cls-5" d="M224.93,242.72a18.43,18.43,0,1,0,36.85,0V63.08L224.93,99.93Z"/><path class="cls-6" d="M243.11,21.22a18.43,18.43,0,0,1,13,31.45L52,256.85a18.43,18.43,0,0,1-26.06-26.06L230.08,26.62a18.38,18.38,0,0,1,13-5.4"/></svg>