<svg xmlns="http://www.w3.org/2000/svg" viewBox="0 0 85.039 85.042"><defs><style>.a{fill:none;}.b{fill:#e30613;}</style></defs><title>discourse-volume-s-final-color</title><path class="a" d="M41.337,40.059c-5.449-.721-14.761-0.922-19.361,1.935,4.542,2.7,13.517,2.616,19.414,1.817A31.118,31.118,0,0,0,41.337,40.059Z"/><path class="a" d="M28.935,68.1c22.489,3.939,50.446-1.951,34.752-18.423a53.61,53.61,0,0,1-11.4,4.714C48.648,64.89,39.949,68.474,28.935,68.1Z"/><path class="a" d="M51.779,29.352a54.558,54.558,0,0,1,11.98,4.78,15.1,15.1,0,0,0,4.255-10.511C68.041,15.894,45.8,14.9,32.969,16.269,41.789,17.187,48.444,21.211,51.779,29.352Z"/><path class="b" d="M61.8,35.978a51.142,51.142,0,0,0-9.024-3.688,36.385,36.385,0,0,1,1.187,8.239A30.53,30.53,0,0,0,61.8,35.978Z"/><path class="b" d="M71.851,43.677a38.175,38.175,0,0,1-5.9,4.646,17.41,17.41,0,0,1,4.033,7.285c6.066,22.942-52.822,16.818-55,9.812a2.3,2.3,0,0,1,.026-0.379c4.538-2.2,26.767,6.862,34.2-9.839a65.547,65.547,0,0,1-11.278,1.609C28.3,61.268,7.484,50.956,7.484,65.421c0,17.538,77.3,23.19,70.016-10.667A24.524,24.524,0,0,0,71.851,43.677Z"/><path class="b" d="M43.95,43.405a52.508,52.508,0,0,0,7.494-1.929C51.031,21.2,39.528,18.278,20.872,18.768h0a19.722,19.722,0,0,1-5.6-.352c8.021-6.032,54.608-9.4,55.284,4.713C72.013,53.5,5.214,48.7,20.861,39.682c4.146-2.395,11.943-3.239,20.175-2.241-0.881-5.153-2.948-6.9-5.706-7.855C-4.776,29.089,8,65.85,53.1,51.5c25.008-7.961,32.737-31.531,16.865-40.723C55.379,2.326,7.484,4.711,7.484,18,7.484,37.74,44.673,11.261,43.95,43.405Z"/></svg>