<svg xmlns="http://www.w3.org/2000/svg" xmlns:xlink="http://www.w3.org/1999/xlink" viewBox="0 0 395.93 258.67">
  <defs>
    <style>
      .cls-1 {
        isolation: isolate;
      }

      .cls-2 {
        fill: url(#linear-gradient);
      }

      .cls-3 {
        fill: #fe130c;
      }

      .cls-4 {
        fill: #e6f315;
      }

      .cls-5 {
        opacity: 0.75;
        mix-blend-mode: multiply;
      }

      .cls-6 {
        fill: #b2480a;
      }

      .cls-7 {
        fill: #fe670e;
      }

      .cls-8 {
        fill: #7ac11d;
      }

      .cls-9 {
        fill: #64ba52;
      }

      .cls-10 {
        fill: #3a59a6;
      }

      .cls-11 {
        fill: #202c90;
      }

      .cls-12 {
        fill: #963396;
      }

      .cls-13 {
        fill: #407d19;
      }

      .cls-14 {
        fill: #5bb224;
      }

      .cls-15 {
        fill: #4d8b87;
      }

      .cls-16 {
        fill: #6ec7c1;
      }

      .cls-17 {
        fill: #2c1a63;
      }

      .cls-18 {
        fill: #3f268e;
      }

      .cls-19 {
        fill: #aa1158;
      }

      .cls-20 {
        fill: #f2187e;
      }

      .cls-21, .cls-22 {
        font-size: 18px;
        fill: #fff;
        font-family: DejaVuSans-Bold, DejaVu Sans;
        font-weight: 700;
      }

      .cls-22 {
        opacity: 0.98;
      }
    </style>
    <linearGradient id="linear-gradient" x1="-334.63" y1="-1864.14" x2="52.2" y2="-1864.14" gradientTransform="translate(56.36 -1838.79) rotate(180)" gradientUnits="userSpaceOnUse">
      <stop offset="0" stop-color="#f6024d"/>
      <stop offset="0" stop-color="#f8013c"/>
      <stop offset="0.08" stop-color="#f0047f"/>
      <stop offset="0.09" stop-color="#e50780"/>
      <stop offset="0.11" stop-color="#b61487"/>
      <stop offset="0.13" stop-color="#8f1f8c"/>
      <stop offset="0.16" stop-color="#712890"/>
      <stop offset="0.18" stop-color="#5b2e93"/>
      <stop offset="0.2" stop-color="#4e3294"/>
      <stop offset="0.22" stop-color="#4a3395"/>
      <stop offset="0.31" stop-color="#0e2d8f"/>
      <stop offset="0.42" stop-color="#1078b1"/>
      <stop offset="0.49" stop-color="#019fc5"/>
      <stop offset="0.63" stop-color="#4aab32"/>
      <stop offset="0.81" stop-color="#eeef59"/>
      <stop offset="0.89" stop-color="#fc620a"/>
      <stop offset="1" stop-color="#fa1500"/>
    </linearGradient>
  </defs>
  <title>a-scale</title>
  <g class="cls-1">
    <g id="Layer_1" data-name="Layer 1">
      <path class="cls-2" d="M391,39.23c0,3.23-3.23,5.85-7.22,5.85H11.38c-4,0-7.22-2.62-7.22-5.85V11.47c0-3.23,3.23-5.85,7.22-5.85H383.77c4,0,7.22,2.62,7.22,5.85Z"/>
      <g>
        <g>
          <rect class="cls-3" x="5.12" y="50.35" width="42.95" height="204.18" rx="8.85" ry="8.85"/>
          <rect class="cls-4" x="54.07" y="50.35" width="42.95" height="204.18" rx="8.85" ry="8.85"/>
          <g>
            <g class="cls-5">
              <rect class="cls-6" x="38.47" y="53.19" width="24.64" height="117.13" rx="5.08" ry="5.08"/>
            </g>
            <rect class="cls-7" x="38.47" y="50.35" width="24.64" height="117.13" rx="5.08" ry="5.08"/>
          </g>
        </g>
        <rect class="cls-8" x="103.04" y="50.35" width="42.95" height="204.18" rx="8.85" ry="8.85"/>
        <rect class="cls-9" x="151.99" y="50.35" width="42.95" height="204.18" rx="8.85" ry="8.85"/>
        <rect class="cls-10" x="200.94" y="50.35" width="42.95" height="204.18" rx="8.85" ry="8.85"/>
        <rect class="cls-11" x="249.89" y="50.35" width="42.95" height="204.18" rx="8.85" ry="8.85"/>
        <rect class="cls-12" x="298.84" y="50.35" width="42.95" height="204.18" rx="8.85" ry="8.85"/>
        <rect class="cls-3" x="348.04" y="50.35" width="42.95" height="204.18" rx="8.85" ry="8.85"/>
        <g>
          <g class="cls-5">
            <rect class="cls-13" x="136.96" y="53.19" width="24.63" height="117.13" rx="5.08" ry="5.08"/>
          </g>
          <rect class="cls-14" x="136.96" y="50.35" width="24.63" height="117.13" rx="5.08" ry="5.08"/>
        </g>
        <g>
          <g class="cls-5">
            <rect class="cls-15" x="185.9" y="53.19" width="24.64" height="117.13" rx="5.08" ry="5.08"/>
          </g>
          <rect class="cls-16" x="185.9" y="50.35" width="24.64" height="117.13" rx="5.08" ry="5.08"/>
        </g>
        <g>
          <g class="cls-5">
            <rect class="cls-17" x="283.76" y="53.19" width="24.64" height="117.13" rx="5.08" ry="5.08"/>
          </g>
          <rect class="cls-18" x="283.76" y="50.35" width="24.64" height="117.13" rx="5.08" ry="5.08"/>
        </g>
        <g>
          <g class="cls-5">
            <rect class="cls-19" x="332.71" y="53.19" width="24.64" height="117.13" rx="5.08" ry="5.08"/>
          </g>
          <rect class="cls-20" x="332.71" y="50.35" width="24.64" height="117.13" rx="5.08" ry="5.08"/>
        </g>
        <g>
          <text class="cls-21" transform="translate(39.92 138.63)">A♯<tspan x="0.72" y="21.6">B♭</tspan></text>
          <text class="cls-22" transform="translate(67.4 233.87)">B</text>
          <text class="cls-22" transform="translate(18.54 233.87)">A</text>
          <text class="cls-22" transform="translate(362.05 233.87)">A</text>
          <text class="cls-22" transform="translate(116.56 233.87)">C</text>
          <text class="cls-22" transform="translate(138.57 138.22)">C♯<tspan x="-0.25" y="21.6">D♭</tspan></text>
          <text class="cls-22" transform="translate(165.53 233.87)">D</text>
          <text class="cls-22" transform="translate(186.84 138.63)">D♯<tspan x="1.94" y="21.6">F♭</tspan></text>
          <text class="cls-22" transform="translate(215.24 233.87)">E</text>
          <text class="cls-22" transform="translate(264.14 233.87)">F</text>
          <text class="cls-22" transform="translate(284.99 138.63)">F♯<tspan x="-0.63" y="21.6">G♭</tspan></text>
          <text class="cls-22" transform="translate(312.36 233.87)">G</text>
          <text class="cls-22" transform="translate(333.54 138.63)">G♯<tspan x="1.04" y="21.6">A♭</tspan></text>
        </g>
      </g>
    </g>
  </g>
</svg>
