<svg id="Keys" xmlns="http://www.w3.org/2000/svg" viewBox="0 0 1140 282">
  <defs>
    <style>
      .cls-1 {
        fill: #ed167f;
      }

      .cls-2 {
        fill: #963291;
      }

      .cls-3 {
        fill: #3c2589;
      }

      .cls-4 {
        fill: #212c89;
      }

      .cls-5 {
        fill: #36599f;
      }

      .cls-6 {
        fill: #6cc0be;
      }

      .cls-7 {
        fill: #63b550;
      }

      .cls-8 {
        fill: #5ab12c;
      }

      .cls-9 {
        fill: #7abc21;
      }

      .cls-10 {
        fill: #f8150e;
      }

      .cls-11 {
        fill: #e6ed1a;
      }

      .cls-12 {
        fill: #f86714;
      }

      .cls-13 {
        fill: #fff;
      }
    </style>
  </defs>
  <title>circles</title>
  <g id="circles">
    <g id="Notes">
      <circle id="key12" class="cls-1" cx="985.99" cy="80.95" r="65.18"/>
      <circle id="key11" class="cls-2" cx="917.39" cy="201.05" r="65.18"/>
      <circle id="key10" class="cls-3" cx="846.22" cy="80.95" r="65.18"/>
      <circle id="key9" class="cls-4" cx="777.78" cy="201.05" r="65.18"/>
      <circle id="key8" class="cls-5" cx="638.18" cy="201.05" r="65.18"/>
      <circle id="key7" class="cls-6" cx="568.93" cy="80.95" r="65.18"/>
      <circle id="key6" class="cls-7" cx="498.57" cy="201.05" r="65.18"/>
      <circle id="key5" class="cls-8" cx="429.32" cy="80.95" r="65.18"/>
      <circle id="key4" class="cls-9" cx="358.96" cy="201.05" r="65.18"/>
      <circle id="key1" class="cls-10" cx="1057" cy="201.05" r="65.18"/>
      <circle id="key3" class="cls-11" cx="221.61" cy="201.05" r="65.18"/>
      <circle id="key2" class="cls-12" cx="151.07" cy="80.95" r="65.18"/>
      <circle id="key1-2" data-name="key1" class="cls-10" cx="82" cy="201.05" r="65.18"/>
    </g>
    <g id="letters">
      <path class="cls-13" d="M347.27,200.47c0,8.59,4,15.91,12.92,15.91,6.62,0,10-4.54,10.79-10.65H381.1c-2.26,25-35.22,25.43-42.68,4.43-3.73-10.49-1.47-26.92,12-32.86,8.21-3.64,22.08-2.78,28.07,7.86a19.16,19.16,0,0,1,2.26,7.32H370.58C368.92,181.28,347.27,179,347.27,200.47Z"/>
      <g>
        <path class="cls-13" d="M400.72,80.37c0,17.59,15.37,18.46,20.41,13a13.55,13.55,0,0,0,3.3-7.72h10.12c-2.51,27.83-44.28,25.7-44.28-5.26,0-31.83,41.11-32.44,43.88-8H424C422.36,61.14,400.72,58.92,400.72,80.37Z"/>
        <path class="cls-13" d="M448.86,103.94V93l-6.59,1.33V88.16l6.59-1.33V76.44l-6.59,1.33V71.58l6.59-1.46V59.73l2.73-.47V69.58l7.32-1.66V56.27l2.8-.47V67.32l6.66-1.4v6.33l-6.66,1.33V83.9l6.66-1.27v6.19l-6.66,1.4V100l-2.8.53V90.83l-7.32,1.73v11Zm2.73-17.78,7.32-1.66V74.11l-7.32,1.8Z"/>
      </g>
      <path class="cls-13" d="M520.8,190.46c3.94,10.61,2.32,34.36-19.94,34.36H480.35V177.28C499,177.28,514.77,174.23,520.8,190.46Zm-9.82,18c1.38-3.76,1.2-9.43.3-13.15-2.52-10.46-11.58-9.22-20.47-9.22v30C500.42,216,507.68,217.48,511,208.44Z"/>
      <g>
        <path class="cls-13" d="M571.46,62.26C581.8,72.71,581,103.94,556,103.94H535.53V56.4C555.21,56.4,564.14,54.86,571.46,62.26ZM563.5,92c5.12-5.22,4.53-17.54.67-22.54-4-5.23-11.1-4.26-18.18-4.26v30C554.62,95.15,559.53,96,563.5,92Z"/>
        <path class="cls-13" d="M592.06,103.94V93l-6.59,1.33V88.16l6.59-1.33V76.44l-6.59,1.33V71.58l6.59-1.46V59.73l2.73-.47V69.58l7.32-1.66V56.27l2.8-.47V67.32l6.66-1.4v6.33l-6.66,1.33V83.9l6.66-1.27v6.19l-6.66,1.4V100l-2.8.53V90.83l-7.32,1.73v11Zm2.73-17.78,7.32-1.66V74.11l-7.32,1.8Z"/>
      </g>
      <path class="cls-13" d="M654.58,176.2V185h-25.1v10.19h23v8.12h-23V215h25.64v8.79H619V176.2Z"/>
      <path class="cls-13" d="M794.5,176.2V185h-23v11h19.91v8.12H771.52v19.64H761.07V176.2Z"/>
      <g>
        <path class="cls-13" d="M846.55,56.4v8.79h-23v11h19.91V84.3H823.58v19.64H813.12V56.4Z"/>
        <path class="cls-13" d="M859.8,103.94V93l-6.59,1.33V88.16l6.59-1.33V76.44l-6.59,1.33V71.58l6.59-1.46V59.73l2.73-.47V69.58l7.32-1.66V56.27l2.8-.47V67.32l6.66-1.4v6.33l-6.66,1.33V83.9l6.66-1.27v6.19l-6.66,1.4V100l-2.8.53V90.83l-7.32,1.73v11Zm2.73-17.78,7.32-1.66V74.11l-7.32,1.8Z"/>
      </g>
      <path class="cls-13" d="M893.1,200.2c0-32,41.09-31.94,43.41-8.32h-10a10,10,0,0,0-3.6-6c-4.67-3.5-15.88-3.47-18.68,8.25-2.12,8.86.18,22,12.22,22q5.2,0,8-2.63t3.3-7.62H917.27v-7.79h20v25.7h-6.66l-1.07-5.39C919.25,231.6,893.1,224.31,893.1,200.2Z"/>
      <path class="cls-13" d="M1063.57,177.28l17.78,47.54H1070.5l-3.6-10.59h-17.78l-3.73,10.59h-10.52l18-47.54Zm.6,29.16-6-17.45H1058l-6.19,17.45Z"/>
      <path class="cls-13" d="M86.57,177.28l17.78,47.54H93.5l-3.6-10.59H72.12l-3.73,10.59H57.87l18-47.54Zm.6,29.16-6-17.45H81l-6.19,17.45Z"/>
      <g>
        <path class="cls-13" d="M138.56,57.48,156.34,105H145.49l-3.6-10.59H124.11L120.38,105H109.86l18-47.54Zm.6,29.16-6-17.45H133l-6.19,17.45Z"/>
        <path class="cls-13" d="M167.66,105V94.1l-6.59,1.33V89.24l6.59-1.33V77.52l-6.59,1.33V72.66l6.59-1.46V60.81l2.73-.47V70.66L177.71,69V57.35l2.8-.47V68.4l6.66-1.4v6.33l-6.66,1.33V85l6.66-1.27V89.9l-6.66,1.4v9.79l-2.8.53V91.9l-7.32,1.73v11Zm2.73-17.78,7.32-1.66V75.19L170.39,77Z"/>
      </g>
      <path class="cls-13" d="M238.69,189.06c0,4.42-1.84,7.71-6.46,9.92,13.16,3.78,12.54,25.83-8.06,25.83h-23V177.28C222.84,177.28,238.69,174.29,238.69,189.06Zm-11.92,6.12c2.21-1.64,2.11-5.43,1.2-7.06-1.95-3.45-6.29-2.73-16.38-2.73v11.12C222.72,196.52,224.46,196.91,226.77,195.19Zm3.1,18.31c1.1-2.09,2-9.86-6.89-9.86H211.59V216.7C222.76,216.7,227.73,217.55,229.86,213.5Z"/>
      <g>
        <path class="cls-13" d="M976.57,103.31c-5.54,2.34-12.13,1.51-16.68-.47-18.37-8-17.93-38,0-45.91,11.89-5.27,28.41.05,29.86,14.85h-10c-1.27-5.42-5.09-8-10.06-8-6.65,0-10.75,4.09-12.22,10.25-1.65,6.93-.72,16.76,6.23,20.61,4.08,2.26,16.17,3.29,17.31-8.89H970.51V78h20v25.7h-6.66l-1.07-5.39A15.62,15.62,0,0,1,976.57,103.31Z"/>
        <path class="cls-13" d="M1006.13,103.67V92.75l-6.59,1.33V87.89l6.59-1.33V76.17l-6.59,1.33V71.32l6.59-1.46V59.46l2.73-.47V69.31l7.32-1.66V56l2.8-.47V67.05l6.66-1.4V72L1019,73.31V83.63l6.66-1.27v6.19L1019,90v9.79l-2.8.53V90.56l-7.32,1.73v11Zm2.73-17.78,7.32-1.66V73.84l-7.32,1.8Z"/>
      </g>
    </g>
  </g>
</svg>
