<?xml version="1.0" encoding="utf-8"?>
<!-- Generator: Adobe Illustrator 19.2.0, SVG Export Plug-In . SVG Version: 6.00 Build 0)  -->
<svg version="1.1" id="Layer_1" xmlns="http://www.w3.org/2000/svg" xmlns:xlink="http://www.w3.org/1999/xlink" x="0px" y="0px"
	 viewBox="0 0 139.491 139.493" enable-background="new 0 0 139.491 139.493" xml:space="preserve">
<g>
	<g>
		<path fill="#08A650" d="M85.925,105.568c0,1.324-1.073,2.396-2.396,2.396H55.963c-1.324,0-2.396-1.073-2.396-2.396V34.984
			c0-1.324,1.073-2.396,2.396-2.396h27.565c1.324,0,2.396,1.073,2.396,2.396V105.568z"/>
	</g>
	<path fill="#595A5C" d="M50.732,35.012c0-1.324-1.073-2.396-2.396-2.396H32.271c-1.339,0-2.421,1.083-2.421,2.421
		c0,1.337,1.082,2.422,2.421,2.422h16.065c1.324,0,2.396-1.073,2.396-2.396V35.012z"/>
	<path fill="#595A5C" d="M107.219,32.616H91.156c-1.324,0-2.396,1.073-2.396,2.396v0.051c0,1.324,1.073,2.396,2.396,2.396h16.063
		c1.337,0,2.422-1.085,2.422-2.422C109.641,33.698,108.556,32.616,107.219,32.616z"/>
</g>
</svg>
