<svg xmlns="http://www.w3.org/2000/svg" viewBox="0 0 85.039 85.042"><defs><style>.a{fill:none;}.b{fill:#732a86;}</style></defs><title>discourse-volume-s-final-color</title><path class="a" d="M34.394,51.47a40.2,40.2,0,0,1-4.51,1.251C29.85,58.644,29.8,62.5,29.67,66.646a30.124,30.124,0,0,1,16.821-1.1C44.034,62.01,40.9,56.384,34.394,51.47Z"/><path class="a" d="M47.333,22.508c-5.8,2.469-11.933,2.9-17.745.243,0.124,2.564.248,6.219,0.3,12.273a38.724,38.724,0,0,1,5.393,2.232C41.86,33.434,44.137,28.9,47.333,22.508Z"/><path class="b" d="M48.686,68.627c-8.638-2.247-14.813-1.062-19.089.8-0.027,1.337-.048,2.974-0.059,5.43a6.313,6.313,0,0,1,.491,2.854c4.115-2.646,11.91-5.464,26.84,2.124-0.027-.108-0.066-0.213-0.087-0.323C55.349,77.353,51.994,73.162,48.686,68.627Z"/><path class="b" d="M49.138,18.8A99.766,99.766,0,0,0,54.08,6.858a6.268,6.268,0,0,1-.126-1.074c-12.142,11.484-18.948,9.9-24.126,5.062a6.279,6.279,0,0,1-.429,2.006,53.655,53.655,0,0,0,.029,6.953C35.808,23.3,42.631,22.391,49.138,18.8Z"/><path class="b" d="M32.4,38.715q-1.262-.56-2.491-1c0,0.624.005,1.278,0.007,1.948C30.688,39.41,31.522,39.1,32.4,38.715Z"/><path class="b" d="M60.958,68.243c-9.6-12.608-10.1-15.445-16.827-21.667a39.979,39.979,0,0,1-6.982,3.838c7.086,5.8,7.931,9.345,17.84,22.372,1.6,2.1,3.54,4.652,4.244,5.826a3.754,3.754,0,0,0,6.357,2.411C68.506,78.181,66.459,75.474,60.958,68.243Z"/><path class="b" d="M19.866,40.665a17.158,17.158,0,0,0,7.5-.285c-0.032-22.711-.931-19.405-0.49-28.149A3.748,3.748,0,0,0,22.761,6.8a4.016,4.016,0,0,0-.8.269C17.679,9.211,19.837,13.935,19.866,40.665Z"/><path class="b" d="M27.33,53.185a29.9,29.9,0,0,1-7.5.225c-0.134,20.981-1.956,27.682,3.921,27.682a3.755,3.755,0,0,0,3.239-5.637C26.923,70.975,27.256,65.133,27.33,53.185Z"/><path class="b" d="M53.288,32.8C55.648,28.521,65.928,9.03,63.939,4.306c-1.961-4.651-8.971-2.232-7.218,2.518-0.71,3.247-5.329,13.888-10,22.349-7.746,14.033-26.252,16.464-29.408,12.9q0-3.114-.016-5.645c-8.515,2.067-8.8,11.66.037,13.963C26.21,52.719,44.567,48.6,53.288,32.8Z"/></svg>