<svg xmlns="http://www.w3.org/2000/svg" viewBox="0 0 85.039 85.042"><defs><style>.a{fill:none;}.b{fill:#4c8fcc;}</style></defs><title>discourse-volume-s-final-color</title><path class="a" d="M35.074,43.125c-2.771-.411-4.365-0.646-5.958-0.853,0,0.612.009,1.218,0.025,1.81C31.925,43.656,31.127,43.734,35.074,43.125Z"/><path class="a" d="M60.57,64.508c0-15.174-14.372-8.435-29.842-7.351C37.159,83.691,60.57,75.9,60.57,64.508Z"/><path class="a" d="M60.56,21.81C60.554,11.052,36.178,4.094,30.352,29.729,52.04,32.526,60.566,34.965,60.56,21.81Z"/><path class="b" d="M19.129,44.422c1.872,0.653,5.492.259,7.469,0.013C25.271-1.148,62.31,5.836,63.075,21.315c0.886,17.849-15.5,13.176-33.22,10.913a56.01,56.01,0,0,0-.706,7.473c12.482,1.6,42.4,9.452,41.442-18.486C69.718-4.12,17.616-11.412,19.129,44.422Z"/><path class="b" d="M45.7,44.389c-26.688,1.466-31.62,10.759-28.578-12.161C6.364,34.889.083,60.205,35.776,54.018c15.743-2.725,27.346-4.26,27.346,10.49,0,14.475-27.99,22.846-34.974-7.2-1.777.063-5.858,0.131-7.642,0.034,6.613,32.547,33.288,27.75,27.4,27.753C76.184,85.076,81.5,42.422,45.7,44.389Z"/></svg>