<svg xmlns="http://www.w3.org/2000/svg" viewBox="0 0 85.039 85.042"><defs><style>.a{fill:none;}.b{fill:#b0c21d;}</style></defs><title>discourse-volume-s-final-color</title><path class="a" d="M60.869,22.385c0-11.572-27.509-21.5-34.619,7.487A83.672,83.672,0,0,1,49.018,34.7C55.978,30.928,60.869,26.359,60.869,22.385Z"/><path class="a" d="M62.684,63.045c0.093-4.738-4.127-10.383-13.368-14.72A83.187,83.187,0,0,1,25.58,54.733C31.445,79.456,62.39,78.024,62.684,63.045Z"/><path class="b" d="M32.978,43.344a61.812,61.812,0,0,1-8.415,1.415,42.049,42.049,0,0,0,.5,7.47A80.46,80.46,0,0,0,46.212,47,70.374,70.374,0,0,0,32.978,43.344Z"/><path class="b" d="M23.657,29.763C31.318-2.854,63.2,7.884,63.41,22.242,63.5,28.06,57.1,32.971,52.081,35.9a56.916,56.916,0,0,1,7.747,3.875c38.043-27.321-32.741-66.841-43.956-9.616A46.367,46.367,0,0,1,23.657,29.763Z"/><path class="b" d="M4.529,42.28l-0.008,0C4.634,46.894,7.8,49.925,12.24,51.34a70.056,70.056,0,0,1-.235-9.329c2.646-6.566,53.633.459,53.228,21.087a3.722,3.722,0,0,0,.109.924c-0.065.05-.132,0.1-0.195,0.153C63.382,82.288,20.494,84.413,22.067,42.317a26,26,0,0,0-7.536,1C13.385,93.757,70.993,93.045,72.674,64.049l-0.04-.031C78.947,36.645,3.152,20.759,4.529,42.28Z"/></svg>