<?xml version="1.0" encoding="UTF-8"?>
<svg xmlns="http://www.w3.org/2000/svg" id="Layer_1" data-name="Layer 1" viewBox="0 0 488.71 168.27">
  <g>
    <path d="M49.28,78.89c0,.58,0,1.19,0,1.8s-.05,1.4-.05,2.34a56.25,56.25,0,0,0,.35,6.08,18.17,18.17,0,0,0,1.55,5.73,10.61,10.61,0,0,0,3.52,4.23,10.44,10.44,0,0,0,6.22,1.68,15.38,15.38,0,0,0,6.39-1.15,11.86,11.86,0,0,0,4-2.77,12,12,0,0,0,2.16-3.31q.7-1.68,1.05-2.73l1.33.26a26.5,26.5,0,0,1-1,2.78,12.7,12.7,0,0,1-2.38,3.61,14.35,14.35,0,0,1-4.4,3.18A16.37,16.37,0,0,1,60.74,102a22.91,22.91,0,0,1-8.15-1.41,18.63,18.63,0,0,1-6.48-4,18.33,18.33,0,0,1-4.24-6.31,21.24,21.24,0,0,1-1.49-8.15,19.19,19.19,0,0,1,1.54-7.54,21.18,21.18,0,0,1,10.53-11,17.5,17.5,0,0,1,13-.84,15.39,15.39,0,0,1,9.3,8.11,18,18,0,0,1,1.63,8.12Zm18.16-1.24a16,16,0,0,0,.18-2.29v-2.2A17.46,17.46,0,0,0,67,68.22a8.16,8.16,0,0,0-1.58-3.09A5.73,5.73,0,0,0,63,63.5,10,10,0,0,0,59.86,63a9.25,9.25,0,0,0-4.94,1.19,8.66,8.66,0,0,0-3.08,3.22,16.22,16.22,0,0,0-1.72,4.67,34.71,34.71,0,0,0-.75,5.55Z" fill="#231f20"></path>
    <path d="M78.72,62.93h21.6v1.23h-7.4l11.37,27.68,11.9-27.68h-7.32V62.93h13.49v1.23H117.6l-14.54,34q-1.68,3.8-3.18,7.63t-3,7.71a59.71,59.71,0,0,1-2.47,5.56,18.57,18.57,0,0,1-2.6,3.87,9.62,9.62,0,0,1-3,2.25,8.54,8.54,0,0,1-3.7.75,9,9,0,0,1-4.1-.79,7.62,7.62,0,0,1-2.42-1.85,5.35,5.35,0,0,1-1.15-2.21,8.59,8.59,0,0,1-.26-1.94,4.19,4.19,0,0,1,1.23-3.3,4.31,4.31,0,0,1,3-1.1,7,7,0,0,1,1.32.13,4.35,4.35,0,0,1,1.32.48,3.37,3.37,0,0,1,1.06,1,2.53,2.53,0,0,1,.44,1.5,4.11,4.11,0,0,1-.75,2.34,4.2,4.2,0,0,0-.75,2.42,1.6,1.6,0,0,0,.62,1.5,3.43,3.43,0,0,0,1.67.35,5.26,5.26,0,0,0,2.6-.66,7.74,7.74,0,0,0,2.34-2.16,22.22,22.22,0,0,0,2.29-3.92q1.16-2.43,2.56-6l3.88-9.88L84.81,64.16H78.72Z" fill="#231f20"></path>
    <path d="M133.56,78.89c0,.58,0,1.19-.05,1.8s0,1.4,0,2.34a56.25,56.25,0,0,0,.35,6.08,18.17,18.17,0,0,0,1.55,5.73,9.9,9.9,0,0,0,9.74,5.91,15.38,15.38,0,0,0,6.39-1.15,11.86,11.86,0,0,0,4-2.77,12.21,12.21,0,0,0,2.15-3.31c.47-1.12.83-2,1.06-2.73l1.33.26a26.5,26.5,0,0,1-1,2.78,12.7,12.7,0,0,1-2.38,3.61,14.4,14.4,0,0,1-4.41,3.18A16.3,16.3,0,0,1,145,102a23,23,0,0,1-8.16-1.41,18.82,18.82,0,0,1-6.48-4,18.44,18.44,0,0,1-4.23-6.31,21.24,21.24,0,0,1-1.5-8.15,19.2,19.2,0,0,1,1.55-7.54A21,21,0,0,1,130.43,68a21.23,21.23,0,0,1,6.3-4.54,17.5,17.5,0,0,1,13.05-.84,15.46,15.46,0,0,1,9.3,8.11,18,18,0,0,1,1.63,8.12Zm18.16-1.24a15.86,15.86,0,0,0,.17-2.29v-2.2a17.87,17.87,0,0,0-.57-4.94,8,8,0,0,0-1.59-3.09,5.64,5.64,0,0,0-2.46-1.63,10,10,0,0,0-3.13-.48,9.25,9.25,0,0,0-4.94,1.19,8.77,8.77,0,0,0-3.09,3.22,16.52,16.52,0,0,0-1.71,4.67,34.71,34.71,0,0,0-.75,5.55Z" fill="#231f20"></path>
    <path d="M196.86,80.59a4.64,4.64,0,1,1,1.36,3.31A4.49,4.49,0,0,1,196.86,80.59Z" fill="#231f20"></path>
    <path d="M240.76,124.2h6.79v-60h-6.79V62.93H255v7.4h.18a13.43,13.43,0,0,1,4.36-6.12,12.26,12.26,0,0,1,7.89-2.43,16.18,16.18,0,0,1,7.14,1.63,20.2,20.2,0,0,1,10,10.63,20,20,0,0,1,0,15.29,21.62,21.62,0,0,1-4.19,6.48,20.55,20.55,0,0,1-6.12,4.5,16.91,16.91,0,0,1-7.37,1.67,11.52,11.52,0,0,1-5.06-1,12,12,0,0,1-3.4-2.38,11,11,0,0,1-2-2.82,17.17,17.17,0,0,1-1-2.34h-.17V124.2h6.79v1.23H240.76Zm36.41-43.64a54.58,54.58,0,0,0-.44-7.27,18.5,18.5,0,0,0-1.55-5.51,8.19,8.19,0,0,0-3.08-3.53A9.47,9.47,0,0,0,267,63a11.26,11.26,0,0,0-5.38,1.14,10.67,10.67,0,0,0-3.44,2.91,11.23,11.23,0,0,0-1.54,2.65,17.39,17.39,0,0,0-.93,3.35,36.78,36.78,0,0,0-.48,4.45c-.09,1.67-.13,3.66-.13,6a41.35,41.35,0,0,0,.44,6,18.48,18.48,0,0,0,1.67,5.6,10.77,10.77,0,0,0,3.49,4.1,10.08,10.08,0,0,0,5.95,1.59,10.21,10.21,0,0,0,5.73-1.41,8.46,8.46,0,0,0,3.17-4.06,20.94,20.94,0,0,0,1.32-6.39C277.08,86.39,277.17,83.62,277.17,80.56Z" fill="#231f20"></path>
    <path d="M294.53,81.88a17.27,17.27,0,0,1,1.9-8,22.14,22.14,0,0,1,4.85-6.39,22.39,22.39,0,0,1,6.61-4.19,18,18,0,0,1,14.37,0,22.34,22.34,0,0,1,11.46,10.58,17.38,17.38,0,0,1,1.89,8,17.61,17.61,0,0,1-1.76,7.8,21.78,21.78,0,0,1-4.63,6.4,22.12,22.12,0,0,1-6.56,4.32,19,19,0,0,1-15.17,0,22,22,0,0,1-6.57-4.32,21.75,21.75,0,0,1-4.62-6.4A17.62,17.62,0,0,1,294.53,81.88Zm8.82,0a40.56,40.56,0,0,0,1,10,15.18,15.18,0,0,0,2.56,5.69,7.33,7.33,0,0,0,3.7,2.6,16.6,16.6,0,0,0,9,0,7.37,7.37,0,0,0,3.7-2.6,15.33,15.33,0,0,0,2.56-5.69,41.05,41.05,0,0,0,1-10,46.77,46.77,0,0,0-.71-8.86,16.62,16.62,0,0,0-2.16-5.82A8.33,8.33,0,0,0,320.27,64a14.42,14.42,0,0,0-10.4,0,8.33,8.33,0,0,0-3.66,3.21A16.62,16.62,0,0,0,304.05,73,46.86,46.86,0,0,0,303.35,81.88Z" fill="#231f20"></path>
    <path d="M342.05,99.51h6.79V64.16h-6.79V62.93h14.37V99.51h6.79v1.24H342.05Zm5.73-57.12a4.68,4.68,0,1,1,1.37,3.3A4.48,4.48,0,0,1,347.78,42.39Z" fill="#231f20"></path>
    <path d="M367.88,99.51h6.79V64.16h-6.79V62.93h14.19v9.43h.18c.35-.76.87-1.73,1.54-2.91A15.2,15.2,0,0,1,397.41,62a15.1,15.1,0,0,1,9.48,2.82q3.66,2.82,3.66,9V99.51h6.79v1.24H396.18V99.51H403V71a9.28,9.28,0,0,0-1.63-5.64,5.9,5.9,0,0,0-5.07-2.21,12.09,12.09,0,0,0-5.38,1.24,14,14,0,0,0-4.5,3.44,16.42,16.42,0,0,0-3,5.2,18.86,18.86,0,0,0-1.1,6.52V99.51H389v1.24H367.88Z" fill="#231f20"></path>
    <path d="M421,62.93h6.79V51.56c.47.17.91.32,1.32.44a8.6,8.6,0,0,0,2.11.17,7.49,7.49,0,0,0,2.3-.31,5.72,5.72,0,0,0,1.85-1V62.93h12.52v1.23H435.41V93a13.81,13.81,0,0,0,.48,4,6.13,6.13,0,0,0,1.28,2.38,3.75,3.75,0,0,0,1.72,1.1,6.46,6.46,0,0,0,1.81.27,6.21,6.21,0,0,0,5-2.25,10.9,10.9,0,0,0,2.42-5.16l1.24.44a19.75,19.75,0,0,1-.8,2.56A8.74,8.74,0,0,1,446.91,99a8.46,8.46,0,0,1-2.86,2.11,10.26,10.26,0,0,1-4.41.84q-6.61,0-9.21-2.55c-1.74-1.71-2.6-4.12-2.6-7.23v-28H421Z" fill="#231f20"></path>
  </g>
  <path d="M484.94,164.5H3.77V3.48H484.94ZM9.44,158.83H479.27V9.15H9.44Z"></path>
</svg>
