<svg xmlns="http://www.w3.org/2000/svg" xmlns:xlink="http://www.w3.org/1999/xlink" viewBox="0 0 368.826 291"><defs><style>.a{fill:none;stroke:#1d1d1b;stroke-miterlimit:10;stroke-width:3px;}.b{fill:url(#a);}.c{fill:url(#b);}.d{fill:url(#c);}.e{fill:url(#d);}.f{fill:url(#e);}.g{fill:url(#f);}.h{fill:url(#g);}.i{fill:url(#h);}.j{fill:url(#i);}.k{fill:url(#j);}.l{fill:url(#k);}.m{fill:url(#l);}.n{fill:url(#m);}.o{fill:url(#n);}.p{fill:url(#o);}.q{fill:url(#p);}.r{fill:url(#q);}.s{fill:url(#r);}.t{fill:url(#s);}.u{fill:url(#t);}.v{fill:url(#u);}.w{fill:url(#v);}.x{fill:url(#w);}.y{fill:url(#x);}.z{fill:url(#y);}</style><linearGradient id="a" x1="0.133" y1="266.053" x2="219.527" y2="46.659" gradientUnits="userSpaceOnUse"><stop offset="0" stop-color="#ffef26"/><stop offset="0.018" stop-color="#ffea21"/><stop offset="0.102" stop-color="#fed70f"/><stop offset="0.189" stop-color="#fdcc04"/><stop offset="0.281" stop-color="#fdc800"/><stop offset="0.669" stop-color="#f18f34"/><stop offset="0.888" stop-color="#e95f32"/><stop offset="1" stop-color="#e3312d"/></linearGradient><linearGradient id="b" x1="-19.833" y1="138.537" x2="199.561" y2="-80.858" xlink:href="#a"/><linearGradient id="c" x1="80.497" y1="346.417" x2="299.891" y2="127.022" xlink:href="#a"/><linearGradient id="d" x1="14.84" y1="279.986" x2="234.234" y2="60.592" xlink:href="#a"/><linearGradient id="e" x1="146.24" y1="412.16" x2="365.634" y2="192.766" xlink:href="#a"/><linearGradient id="f" x1="31.474" y1="297.394" x2="250.868" y2="78" xlink:href="#a"/><linearGradient id="g" x1="151.015" y1="217.136" x2="370.409" y2="-2.258" xlink:href="#a"/><linearGradient id="h" x1="-13.611" y1="276.882" x2="205.783" y2="57.487" xlink:href="#a"/><linearGradient id="i" x1="194.577" y1="179.547" x2="413.971" y2="-39.847" xlink:href="#a"/><linearGradient id="j" x1="210.956" y1="40.976" x2="430.35" y2="-178.418" xlink:href="#a"/><linearGradient id="k" x1="-34.02" y1="231.9" x2="185.375" y2="12.506" xlink:href="#a"/><linearGradient id="l" x1="32.656" y1="298.576" x2="252.05" y2="79.182" xlink:href="#a"/><linearGradient id="m" x1="45.98" y1="311.9" x2="265.374" y2="92.505" xlink:href="#a"/><linearGradient id="n" x1="-51.306" y1="214.614" x2="168.088" y2="-4.78" xlink:href="#a"/><linearGradient id="o" x1="160.682" y1="60.529" x2="380.076" y2="-158.866" xlink:href="#a"/><linearGradient id="p" x1="154.517" y1="152.893" x2="373.911" y2="-66.501" xlink:href="#a"/><linearGradient id="q" x1="24.996" y1="473.55" x2="244.39" y2="254.156" xlink:href="#a"/><linearGradient id="r" x1="145.057" y1="274.119" x2="364.451" y2="54.725" xlink:href="#a"/><linearGradient id="s" x1="178.977" y1="237.364" x2="398.372" y2="17.97" xlink:href="#a"/><linearGradient id="t" x1="60.249" y1="201.083" x2="279.643" y2="-18.311" xlink:href="#a"/><linearGradient id="u" x1="183.235" y1="290.424" x2="402.63" y2="71.03" xlink:href="#a"/><linearGradient id="v" x1="90.145" y1="93.14" x2="309.539" y2="-126.254" xlink:href="#a"/><linearGradient id="w" x1="111.278" y1="228.528" x2="330.672" y2="9.134" xlink:href="#a"/><linearGradient id="x" x1="196.451" y1="66.819" x2="415.845" y2="-152.575" xlink:href="#a"/><linearGradient id="y" x1="77.27" y1="244.007" x2="296.664" y2="24.613" xlink:href="#a"/></defs><title>graph</title><line class="a" x1="217.116" y1="209.798" x2="281.061" y2="217.485"/><line class="a" x1="61.283" y1="204.903" x2="99.644" y2="163.626"/><line class="a" x1="158.948" y1="169.921" x2="99.644" y2="163.626"/><line class="a" x1="207.361" y1="132.445" x2="158.948" y2="169.921"/><line class="a" x1="61.283" y1="122.003" x2="100.247" y2="97.634"/><line class="a" x1="125.156" y1="136.176" x2="100.247" y2="97.634"/><line class="a" x1="99.644" y1="163.626" x2="125.156" y2="136.176"/><line class="a" x1="158.948" y1="169.921" x2="125.156" y2="136.176"/><line class="a" x1="167.79" y1="127.037" x2="125.156" y2="136.176"/><line class="a" x1="139.789" y1="81.422" x2="167.79" y2="127.037"/><line class="a" x1="100.247" y1="97.634" x2="139.789" y2="81.422"/><line class="a" x1="65.628" y1="53.075" x2="100.247" y2="97.634"/><line class="a" x1="128.823" y1="34.485" x2="139.789" y2="81.422"/><line class="a" x1="187.518" y1="64.414" x2="213.95" y2="93.461"/><line class="a" x1="224.369" y1="38.902" x2="213.95" y2="93.461"/><line class="a" x1="251.945" y1="79.288" x2="213.95" y2="93.461"/><line class="a" x1="300.196" y1="57.683" x2="251.945" y2="79.288"/><line class="a" x1="289.565" y1="126.776" x2="300.196" y2="57.683"/><line class="a" x1="245.58" y1="128.544" x2="251.945" y2="79.288"/><line class="a" x1="207.361" y1="132.445" x2="213.95" y2="93.461"/><line class="a" x1="139.789" y1="81.422" x2="187.518" y2="64.414"/><line class="a" x1="224.369" y1="38.902" x2="251.945" y2="79.288"/><line class="a" x1="289.565" y1="126.776" x2="303.739" y2="169.921"/><line class="a" x1="336.422" y1="221.978" x2="303.739" y2="169.921"/><line class="a" x1="245.58" y1="128.544" x2="303.739" y2="169.921"/><line class="a" x1="281.061" y1="217.485" x2="241.376" y2="177.799"/><line class="a" x1="158.948" y1="169.921" x2="165.896" y2="202.256"/><line class="a" x1="217.116" y1="209.798" x2="165.896" y2="202.256"/><line class="a" x1="241.376" y1="177.799" x2="207.361" y2="132.445"/><line class="a" x1="99.644" y1="163.626" x2="122.815" y2="198.462"/><circle class="b" cx="61.283" cy="204.903" r="14.173"/><circle class="c" cx="65.628" cy="53.075" r="14.173"/><circle class="d" cx="217.116" cy="209.798" r="14.173"/><circle class="e" cx="167.79" cy="127.037" r="14.173"/><circle class="f" cx="336.422" cy="221.978" r="14.173"/><circle class="g" cx="158.948" cy="169.921" r="14.173"/><circle class="h" cx="165.896" cy="202.256" r="14.173"/><circle class="i" cx="99.644" cy="163.626" r="14.173"/><circle class="j" cx="245.58" cy="128.544" r="14.173"/><circle class="k" cx="187.518" cy="64.414" r="14.173"/><circle class="l" cx="100.247" cy="97.634" r="14.173"/><circle class="m" cx="251.945" cy="79.288" r="14.173"/><circle class="n" cx="300.196" cy="57.683" r="14.173"/><circle class="o" cx="128.823" cy="34.485" r="14.173"/><circle class="p" cx="139.789" cy="81.422" r="14.173"/><circle class="q" cx="213.95" cy="93.461" r="14.173"/><circle class="r" cx="281.061" cy="217.485" r="14.173"/><circle class="s" cx="241.376" cy="177.799" r="14.173"/><circle class="t" cx="289.565" cy="126.776" r="14.173"/><circle class="u" cx="125.156" cy="136.176" r="14.173"/><circle class="v" cx="303.739" cy="169.921" r="14.173"/><circle class="w" cx="61.283" cy="122.003" r="14.173"/><circle class="x" cx="207.361" cy="132.445" r="14.173"/><circle class="y" cx="224.369" cy="38.902" r="14.173"/><circle class="z" cx="122.815" cy="198.462" r="14.173"/></svg>