<svg xmlns="http://www.w3.org/2000/svg" viewBox="0 0 377.282 466.302"><defs><style>.a{fill:#e52620;}.b{fill:#fff;}.c{fill:#f07e1b;}.d{fill:#f3e600;}.e{fill:#8ebf22;}.f{fill:#67b32e;}.g{fill:#6fb966;}.h{fill:#6dc6d9;}.i{fill:#3b72b8;}.j{fill:#2b4b9b;}.k{fill:#564696;}.l{fill:#a6539b;}.m{fill:#e72580;}</style></defs><title>hand</title><path d="M282.132,270.17l8.745-7.359c-3.1-6.817-5.674-13.852-9.347-20.253-9.459-16.483-13.566-34.564-17.235-52.9a133.434,133.434,0,0,0-6.072-20.293c-2.144-5.747-7.467-6.687-12.118-2.419a22.888,22.888,0,0,0-7.728,16.26c-0.665,15.64,1.154,30.93,7.586,45.361,7.988,17.922,11.028,37.1,14.649,56.137,0.731,3.846,1.325,7.729,2.284,11.518,3.225,12.746,3.509,25.8,4.707,38.8,1.865,20.229,4.836,40.353,7.134,60.545,2.633,23.133,9.347,45.147,16.963,67.051,5.745,16.522,10.033,33.551,14.962,50.357,0.469,1.6.881,3.216,1.377,5.033,20.569,3.488,41.285-2.435,61.74.552l0.027,1.607c-10.063.623-20.118,1.489-30.191,1.8-10.038.311-20.094,0.068-31.085,0.068l1.6,6.4,27.153-3,0.194,1.411c-4.477.6-8.972,1.1-13.427,1.845-3.594.6-7.122,1.593-10.716,2.193a5.648,5.648,0,0,1-3.548-.595,30.368,30.368,0,0,1-4.043-3.339c-4.208-19.328-8.465-38.389-15.558-56.744-12.791-33.1-19.32-67.563-22.861-102.831-3.72-37.051-6.56-74.319-16.58-110.433A272.508,272.508,0,0,0,241.4,229.45a97.473,97.473,0,0,1-6.531-47.68c0.85-7.448,3.768-14.033,10.3-18.433,7.248-4.883,13.568-3.4,16.631,4.725a180.372,180.372,0,0,1,7.3,24.612c3.874,17.53,8.574,34.645,17.155,50.628,7.308,13.612,13.661,27.734,20.529,41.585,0.954,1.923,2.439,3.582,4.163,6.059,2.588-4.765,2.373-9.02,1.789-13.076-1.406-9.773-2.9-19.556-4.922-29.215-5.046-24.073-5.956-48.468-6.4-72.931-0.288-15.856-1.039-31.707-1.124-47.563-0.048-8.907,3.069-17.063,10.021-22.855,8.063-6.718,16.741-7.819,23.11-1.073,3.245,3.437,5.241,8.514,6.584,13.2,4.1,14.3,3.412,29.169,4.668,43.826,1.477,17.247,4.074,34.408,6.519,51.559,2.105,14.765,4.66,29.467,7.065,44.189,0.4,2.451,1.054,4.86,1.591,7.289l1.6-.01c0.778-4.071,2.265-8.153,2.2-12.212-0.19-12.486-1.168-24.959-1.473-37.446-0.337-13.8-1.118-27.663-.185-41.4,1.5-22.026,1.363-44,.8-66.026-0.224-8.734.4-17.507,0.983-26.24,0.893-13.385,11.81-18.923,24.828-14,9.893,3.74,15.169,11.147,16.514,21.406,1.164,8.876,2.262,17.774,2.952,26.7,1.539,19.895,3.393,39.793,4,59.724,0.518,16.958-.578,33.962-0.858,50.948-0.117,7.092-.029,14.188.087,21.281a61.358,61.358,0,0,0,.688,8.36c0.509,3.285.831,6.956,4.932,7.914,2.4,0.56,6.484-3.56,7.271-7.509,1.312-6.582,2.388-13.216,3.413-19.851q6.492-42.01,12.88-84.037c1.817-11.983,3.255-24.029,5.3-35.971a104.864,104.864,0,0,1,4.718-17.77c2.089-5.791,7.874-8.744,13.872-8.064,11.616,1.316,19.711,7.958,22.911,19.238a96.966,96.966,0,0,1,3.66,35.962c-1.741,18.2-2.943,36.456-5.1,54.6-1.868,15.728-4.926,31.311-7.126,47-2.978,21.239-6.473,42.442-6.1,64.008,0.263,15.092,5.49,28.448,14.448,40.371,2.171,2.89,5.286,5.07,8.113,7.712,8.158-7.765,13.759-16.554,18.943-25.609,3.52-6.15,6.537-12.586,10-18.768,8.811-15.709,19.36-30.185,32.54-42.479a82.926,82.926,0,0,1,17.306-12.177,29.914,29.914,0,0,1,23.794-2.3c10.9,3.386,15.992,21.567,7.916,29.32-0.4.386-.7,0.887-1.1,1.265-17.371,16.1-26.133,37.24-34.953,58.531-9.244,22.316-14.98,45.674-21.831,68.7a73.574,73.574,0,0,1-19.256,32.219q-24.3,23.988-47.87,48.709c-9.771,10.221-19.967,20.253-24.566,33.153-6.945,3.723-13.056,1.136-19.155.15-10.574-1.709-21.1-2.6-31.626.221a4.886,4.886,0,0,1-1.62-.14l-0.2-1.128c3.343-.673,6.672-1.833,10.031-1.928,10.632-.3,21.265-0.226,31.619,2.907,3.43,1.038,6.6.888,8.517-3.032,8.1-16.559,21-29.373,33.543-42.412,14.749-15.332,29.957-30.229,44.463-45.783a44.656,44.656,0,0,0,9.28-15.683c6.413-18.879,11.707-38.137,18.068-57.035,6.417-19.064,12.831-38.16,23.715-55.395a149.578,149.578,0,0,1,18.858-23.5c5.526-5.772,6.123-13.37,2.061-20.012-2.5-4.088-6.05-7.025-10.813-6.978-5.143.051-10.691,0.172-15.322,2.071a62.392,62.392,0,0,0-22.178,15.777,227.006,227.006,0,0,0-35,51.043c-4.643,9.085-10.776,17.4-16.162,26.114a30.653,30.653,0,0,1-12.819,11.3c-3.832,1.919-7.592,3.988-11.477,5.79-1.225.568-2.75,0.49-4.138,0.708l-0.482-1.578,17.517-9.41c-8.8-6.461-14.2-15.008-19.016-25.015-5.58.923-11.445,1.638-17.194,2.884-59.5,12.9-113.8,37.532-163.467,72.59a33.811,33.811,0,0,1-3.283,2.11,2.036,2.036,0,0,1-1.769-.247c26.642-21.114,56.019-37.526,87.1-51.108,31.2-13.637,63.449-23.745,96.973-29-1.046-7.632-2.309-14.927-3-22.276-1.316-14.048.739-27.942,2.753-41.781,3.732-25.649,8.091-51.211,11.477-76.9,2.582-19.6,4.686-39.305,3.994-59.156-0.346-9.922-1.215-19.757-5.971-28.771-3.5-6.631-9.215-10.091-16.434-11.217-6.339-.989-10.287,1.16-11.885,7.4-2.072,8.1-3.634,16.343-5,24.594-4.085,24.649-8.123,49.307-11.875,74.008-2.38,15.67-4.14,31.433-6.35,47.129a58.025,58.025,0,0,1-2.853,12.487c-2.7,7.11-10.275,9.628-15.292,5.379-3.013-2.552-4.131-6.108-4.113-10.018q0.085-18.756.171-37.512c0.009-2,0-3.992,0-6.731l-10.875,1-0.138-.808,11.637-2.525c0-3.622-.137-7.489.023-11.345a358.307,358.307,0,0,0-2.71-62.556c-1.8-13.484-2.471-27.117-3.818-40.666-0.367-3.692-1.418-7.311-2.042-10.982-1.8-10.576-16.639-16.459-27.216-11.146-2.06,1.035-3.948,4.234-4.243,6.64-1.107,9.04-2.564,18.231-2,27.246,1.554,24.675.58,49.236-1.091,73.838-0.922,13.582-.141,27.126,1.017,40.734,1.069,12.575,0,25.336-.229,38.014a44.879,44.879,0,0,1-.877,6.087c-0.345,2.188-1.159,4.056-3.749,4.1-2.708.047-4.776-1.154-5.366-3.918-0.739-3.461-1.212-6.978-1.8-10.472q-4.9-29.229-9.8-58.456c-2.594-15.3-4.261-30.7-3.845-46.22,0.288-10.753-1.441-21.191-3.78-31.569a26.083,26.083,0,0,0-3.263-7.67c-4.186-6.853-12.458-8.134-18.8-3.07-8.011,6.4-11.643,14.852-11.313,25,0.249,7.647.717,15.286,1.1,22.929q1.554,31.032,3.123,62.063c0.94,18.312,4.49,36.2,8.266,54.1,1.275,6.045.736,12.649,0.027,18.884-0.644,5.662-4.18,6.726-8.512,2.9a27.018,27.018,0,0,1-5.3-7.111c-3.717-6.633-7.173-13.412-10.72-20.106l-9.454,4.68Z" transform="translate(-232.368 -65.192)"/><path d="M444.468,495.793c-4.531-2.7-9.291-5.089-13.554-8.163-17.371-12.526-29.172-29.1-31.979-50.472-2.618-19.928,2.956-38.485,14.361-55.064,14.488-21.061,34.511-34.087,59.27-40.008a10.257,10.257,0,0,1,2.191.313c-3.2,1.127-5.475,1.918-7.744,2.729-24.56,8.784-43.57,24.182-55.346,47.649-19.846,39.546-5.933,77,28.533,98.824,1.635,1.035,3.311,2,4.968,3Z" transform="translate(-232.368 -65.192)"/><path d="M437.314,276.048c-1.043,1.794-1.711,4.007-3.183,5.321-35.565,31.753-73.776,59.467-118.982,76.073-9.045,3.323-18.641,5.154-28,7.6-1.024.267-2.179,0.036-4.2,0.036,1.519-.825,2.221-1.45,3.014-1.6,25.079-4.769,47.843-15.356,69.688-28.064a432.333,432.333,0,0,0,77.427-57.785c0.942-.878,1.927-1.71,2.891-2.564Z" transform="translate(-232.368 -65.192)"/><path d="M282.017,270.06l-0.17,1.9,7.957-1.993,0.221,0.89L262.68,280.15l1.427-2.357-2.848-2.285a2.394,2.394,0,0,1,.876-0.517c5.791,2.413,10.342-.816,15.119-3.2a34.505,34.505,0,0,1,4.877-1.618Z" transform="translate(-232.368 -65.192)"/><path d="M315.42,220.55h7.616l0.3,0.934c-1.759.253-3.52,0.5-5.277,0.762-1.836.277-3.668,0.573-5.526,0.864,0.156-3.5,2.316-4.587,5.195-5.2a60.573,60.573,0,0,1,24.834.047C333.928,218.986,325.026,216.831,315.42,220.55Z" transform="translate(-232.368 -65.192)"/><path d="M445.043,159.966c11.449-4.422,30.989-1.315,34.594,6.53-5.221-5.719-11.122-6.132-16.9-6.46C457.061,159.715,451.356,159.966,445.043,159.966Z" transform="translate(-232.368 -65.192)"/><path d="M372.95,135.377l30.315,2.058,0.56,2.4-30.913-3.709Z" transform="translate(-232.368 -65.192)"/><path d="M370.838,145.094c10.4-2.665,21.158-1.048,31.916,0H370.838Z" transform="translate(-232.368 -65.192)"/><path d="M367.975,203.362c12.395-5.163,24.941-5.135,37.586-.581-6.173-.721-12.358-2.089-18.517-1.983C380.675,200.907,374.331,202.447,367.975,203.362Z" transform="translate(-232.368 -65.192)"/><path d="M308.306,161.52l29.826-2.031C327.85,163.29,318.008,161.648,308.306,161.52Z" transform="translate(-232.368 -65.192)"/><path d="M369.312,525.82l-26.32,2.112c8.487-3.406,17.333-3.422,26.192-3.321Z" transform="translate(-232.368 -65.192)"/><path d="M478.575,155.668a38.678,38.678,0,0,0-30.468-2.06C456.108,147.93,471.036,148.928,478.575,155.668Z" transform="translate(-232.368 -65.192)"/><path d="M462.993,276.612l-24.679-7.622,0.359-1.17C447.047,269.888,455.586,271.407,462.993,276.612Z" transform="translate(-232.368 -65.192)"/><path d="M315,228.534l27.622-6.069C337.222,226.416,322.058,229.6,315,228.534Z" transform="translate(-232.368 -65.192)"/><path d="M345.228,272.145l-21.619,11.378C327.5,278.287,335.746,273.768,345.228,272.145Z" transform="translate(-232.368 -65.192)"/><path d="M309.261,158.467l27.556-2.753C331.8,158.522,318.741,159.97,309.261,158.467Z" transform="translate(-232.368 -65.192)"/><path d="M374.8,529.251c7.95-4.208,15.964-2.877,23.779-3.24l0.164,1.3Z" transform="translate(-232.368 -65.192)"/><path d="M438.329,212.4c7.45-3.468,15.276-2.894,23.167-1.69Z" transform="translate(-232.368 -65.192)"/><path d="M393.747,214.151H367.273c9.238-4.527,18.2.654,26.918-1.557Z" transform="translate(-232.368 -65.192)"/><path d="M337.216,222.47l-25.928,4.313-0.233-1.293,25.66-4.192Z" transform="translate(-232.368 -65.192)"/><path d="M440.06,199.861c7.27-2.9,10.709-2.954,18.309,0H440.06Z" transform="translate(-232.368 -65.192)"/><path d="M453.817,201.729l16.916,3.737-0.3,1.524-16.878-3.573Z" transform="translate(-232.368 -65.192)"/><path d="M446.225,214.866c5.782-2.48,11.6-2.175,17.435,0H446.225Z" transform="translate(-232.368 -65.192)"/><rect class="a" x="217.051" y="32.857" width="42.628" height="40.354" rx="20.177" ry="20.177"/><path class="b" d="M472.917,125.489l-0.98-3.219h-4.931l-0.98,3.219h-3.09l4.773-13.58h3.506l4.792,13.58h-3.09Zm-1.665-5.625q-1.359-4.375-1.531-4.949c-0.114-.382-0.2-0.685-0.245-0.907q-0.3,1.184-1.748,5.856h3.524Z" transform="translate(-232.368 -65.192)"/><rect class="c" x="207.814" y="92.577" width="42.628" height="40.354" rx="20.177" ry="20.177"/><path class="b" d="M455.572,171.683h4.209a8.109,8.109,0,0,1,4.177.819,2.851,2.851,0,0,1,1.3,2.6,3.278,3.278,0,0,1-.569,1.989,2.269,2.269,0,0,1-1.512.934v0.093a2.98,2.98,0,0,1,1.854,1.073,3.5,3.5,0,0,1,.569,2.091,3.446,3.446,0,0,1-1.337,2.886,5.781,5.781,0,0,1-3.631,1.036h-5.061V171.683Zm2.868,5.356h1.665a3.039,3.039,0,0,0,1.688-.361,1.345,1.345,0,0,0,.523-1.193,1.2,1.2,0,0,0-.569-1.115,3.657,3.657,0,0,0-1.8-.337H458.44v3.006Zm0,2.276v3.524h1.868a2.771,2.771,0,0,0,1.748-.453,1.671,1.671,0,0,0,.564-1.388q0-1.684-2.405-1.684H458.44Z" transform="translate(-232.368 -65.192)"/><rect class="d" x="197.061" y="157.164" width="42.628" height="40.354" rx="20.177" ry="20.177"/><path class="b" d="M450.891,238.465a2.923,2.923,0,0,0-2.508,1.216,5.662,5.662,0,0,0-.888,3.391q0,4.523,3.4,4.523a10.727,10.727,0,0,0,3.45-.712v2.405a9.585,9.585,0,0,1-3.719.694,5.671,5.671,0,0,1-4.515-1.79,7.581,7.581,0,0,1-1.563-5.139,8.38,8.38,0,0,1,.769-3.7,5.55,5.55,0,0,1,2.206-2.433,6.526,6.526,0,0,1,3.372-.846,9.1,9.1,0,0,1,3.959.953l-0.925,2.331a15.377,15.377,0,0,0-1.526-.629A4.561,4.561,0,0,0,450.891,238.465Z" transform="translate(-232.368 -65.192)"/><rect class="e" x="127.05" y="10.438" width="42.628" height="40.354" rx="20.177" ry="20.177"/><path class="b" d="M383.65,103.068h-7.789V89.543h7.789v2.35h-4.921v2.969h4.579v2.35h-4.579V100.7h4.921v2.368Z" transform="translate(-232.368 -65.192)"/><rect class="f" x="133.087" y="89.012" width="42.628" height="40.354" rx="20.177" ry="20.177"/><path class="b" d="M391.039,181.646H388.18v-5.837h-5.356v5.837h-2.868V168.122h2.868v5.3h5.356v-5.3h2.858v13.525Z" transform="translate(-232.368 -65.192)"/><rect class="g" x="133.087" y="155.039" width="42.628" height="40.354" rx="20.177" ry="20.177"/><path class="b" d="M391.791,247.67h-3.256l-3.543-5.7-1.212.87v4.829h-2.868V234.145h2.868v6.189l1.129-1.591,3.663-4.6h3.182l-4.718,5.985Z" transform="translate(-232.368 -65.192)"/><rect class="h" x="70.454" y="40.12" width="42.628" height="40.354" rx="20.177" ry="20.177"/><path class="b" d="M321.374,132.752l-3.256-10.611h-0.083q0.176,3.238.176,4.32v6.291h-2.562V119.227h3.9l3.2,10.343h0.056l3.4-10.343h3.9v13.525h-2.673v-6.4q0-.453.014-1.045t0.125-3.146h-0.083L324,132.752h-2.627Z" transform="translate(-232.368 -65.192)"/><rect class="i" x="69.357" y="105.656" width="42.628" height="40.354" rx="20.177" ry="20.177"/><path class="b" d="M328.214,191.506a7.34,7.34,0,0,1-1.665,5.162,7.218,7.218,0,0,1-9.547,0,7.367,7.367,0,0,1-1.665-5.181,7.266,7.266,0,0,1,1.669-5.157,6.245,6.245,0,0,1,4.788-1.781,6.157,6.157,0,0,1,4.769,1.794A7.358,7.358,0,0,1,328.214,191.506Zm-9.871,0a5.649,5.649,0,0,0,.86,3.414,3.01,3.01,0,0,0,2.572,1.147q3.431,0,3.432-4.561t-3.414-4.57a3.031,3.031,0,0,0-2.581,1.151A5.624,5.624,0,0,0,318.344,191.506Z" transform="translate(-232.368 -65.192)"/><rect class="j" x="76.663" y="164.427" width="42.628" height="40.354" rx="20.177" ry="20.177"/><path class="b" d="M334.178,247.753a4.133,4.133,0,0,1-1.364,3.339,5.837,5.837,0,0,1-3.881,1.156H327.7v4.811h-2.868V243.535h4.32a5.746,5.746,0,0,1,3.742,1.06A3.863,3.863,0,0,1,334.178,247.753ZM327.7,249.9h0.944a3.144,3.144,0,0,0,1.979-.522,1.83,1.83,0,0,0,.657-1.522,1.877,1.877,0,0,0-.55-1.489,2.58,2.58,0,0,0-1.726-.481h-1.3V249.9Z" transform="translate(-232.368 -65.192)"/><rect class="k" y="103.537" width="42.628" height="40.354" rx="20.177" ry="20.177"/><path class="b" d="M253.853,196.167h-2.868V185.029h-3.672v-2.387h10.213v2.387h-3.673v11.138Z" transform="translate(-232.368 -65.192)"/><rect class="l" x="7.578" y="157.164" width="42.628" height="40.354" rx="20.177" ry="20.177"/><path class="b" d="M266.319,249.8h-3.275l-3.146-5.116-3.145,5.116h-3.071l4.487-6.975-4.2-6.55h3.164l2.914,4.866,2.858-4.866H266l-4.246,6.707Z" transform="translate(-232.368 -65.192)"/><rect class="m" x="31.26" y="212.974" width="42.628" height="40.354" rx="20.177" ry="20.177"/><path class="b" d="M283.681,297.65l2.822-5.569h3.09l-4.487,8.261v5.264h-2.849v-5.171l-4.487-8.354h3.108Z" transform="translate(-232.368 -65.192)"/></svg>