<svg xmlns="http://www.w3.org/2000/svg" viewBox="0 0 708.711 429.845"><defs><style>.a{isolation:isolate;}.b{fill:#8ebf22;}.c{fill:#6fb966;}.d{fill:#3b72b8;}.e{fill:#2b4b9b;}.f{fill:#a6539b;}.g{fill:#e52620;}.h{fill:#f3e600;}.i{opacity:0.75;mix-blend-mode:multiply;}.j{fill:#518d24;}.k{fill:#67b32e;}.l{fill:#579ba9;}.m{fill:#6dc6d9;}.n{fill:#453675;}.o{fill:#564696;}.p{fill:#b21f63;}.q{fill:#e72580;}.r{fill:#b86313;}.s{fill:#f07e1b;}.t{opacity:0.98;}.u{fill:#fff;}</style></defs><title>notes</title><g class="a"><path class="b" d="M18.64,0H71.775A18.642,18.642,0,0,1,90.417,18.642V411.2a18.642,18.642,0,0,1-18.642,18.642H18.642A18.642,18.642,0,0,1,0,411.2V18.64A18.64,18.64,0,0,1,18.64,0Z"/><path class="c" d="M121.69,0h53.136a18.64,18.64,0,0,1,18.64,18.64V411.2a18.642,18.642,0,0,1-18.642,18.642H121.691A18.642,18.642,0,0,1,103.05,411.2V18.64A18.64,18.64,0,0,1,121.69,0Z"/><path class="d" d="M224.738,0h53.135a18.642,18.642,0,0,1,18.642,18.642V411.2a18.642,18.642,0,0,1-18.642,18.642H224.74A18.642,18.642,0,0,1,206.1,411.2V18.64A18.64,18.64,0,0,1,224.738,0Z"/><path class="e" d="M465.852,493.465a18.639,18.639,0,0,1-18.641,18.64H394.077a18.636,18.636,0,0,1-18.641-18.64V100.9a18.642,18.642,0,0,1,18.641-18.642h53.134A18.644,18.644,0,0,1,465.852,100.9V493.465Z" transform="translate(-66.289 -82.261)"/><path class="f" d="M568.9,493.465a18.637,18.637,0,0,1-18.638,18.64H497.127a18.639,18.639,0,0,1-18.64-18.64V100.9a18.644,18.644,0,0,1,18.64-18.642h53.139A18.642,18.642,0,0,1,568.9,100.9V493.465Z" transform="translate(-66.289 -82.261)"/><path class="g" d="M671.946,493.465a18.633,18.633,0,0,1-18.635,18.64H600.175a18.635,18.635,0,0,1-18.64-18.64V100.9a18.641,18.641,0,0,1,18.64-18.642h53.136A18.638,18.638,0,0,1,671.946,100.9V493.465Z" transform="translate(-66.289 -82.261)"/><path class="h" d="M775,493.465a18.635,18.635,0,0,1-18.64,18.64H703.224a18.633,18.633,0,0,1-18.635-18.64V100.9a18.638,18.638,0,0,1,18.635-18.642H756.36A18.641,18.641,0,0,1,775,100.9V493.465Z" transform="translate(-66.289 -82.261)"/><g class="i"><rect class="j" x="71.405" y="2.835" width="51.861" height="246.593" rx="10.693" ry="10.693"/></g><rect class="k" x="71.405" width="51.861" height="246.593" rx="10.693" ry="10.693"/><g class="i"><path class="l" d="M185.133,2.835h30.48A10.689,10.689,0,0,1,226.3,13.524V238.735a10.693,10.693,0,0,1-10.693,10.693H185.133a10.693,10.693,0,0,1-10.693-10.693V13.528A10.693,10.693,0,0,1,185.133,2.835Z"/></g><path class="m" d="M185.133,0h30.48A10.689,10.689,0,0,1,226.3,10.689V235.9a10.693,10.693,0,0,1-10.693,10.693H185.133A10.693,10.693,0,0,1,174.44,235.9V10.693A10.693,10.693,0,0,1,185.133,0Z"/><g class="i"><path class="n" d="M498.61,321a10.7,10.7,0,0,1-10.694,10.693H457.442A10.7,10.7,0,0,1,446.742,321V95.789a10.7,10.7,0,0,1,10.7-10.693h30.473A10.7,10.7,0,0,1,498.61,95.789V321Z" transform="translate(-66.289 -82.261)"/></g><path class="o" d="M498.61,318.161a10.7,10.7,0,0,1-10.694,10.693H457.442a10.7,10.7,0,0,1-10.7-10.693V92.954a10.7,10.7,0,0,1,10.7-10.693h30.473A10.7,10.7,0,0,1,498.61,92.954V318.161Z" transform="translate(-66.289 -82.261)"/><g class="i"><path class="p" d="M494.187,2.835H524.67a10.692,10.692,0,0,1,10.692,10.692V238.735a10.693,10.693,0,0,1-10.693,10.693H494.187a10.693,10.693,0,0,1-10.693-10.693V13.528A10.693,10.693,0,0,1,494.187,2.835Z"/></g><path class="q" d="M494.187,0H524.67a10.692,10.692,0,0,1,10.692,10.692V235.9a10.693,10.693,0,0,1-10.693,10.693h-30.48A10.694,10.694,0,0,1,483.494,235.9V10.693A10.693,10.693,0,0,1,494.187,0Z"/><g class="i"><path class="r" d="M596.136,2.835h30.48a10.695,10.695,0,0,1,10.695,10.695v225.2a10.695,10.695,0,0,1-10.695,10.695H596.135a10.692,10.692,0,0,1-10.692-10.692V13.528A10.693,10.693,0,0,1,596.136,2.835Z"/></g><path class="s" d="M596.136,0h30.48a10.695,10.695,0,0,1,10.695,10.695V235.9a10.693,10.693,0,0,1-10.693,10.693H596.136A10.693,10.693,0,0,1,585.443,235.9V10.693A10.693,10.693,0,0,1,596.136,0Z"/><g class="t"><path class="u" d="M673.117,207.62l5.3,13.566h-2l-1.481-4.085H669.2l-1.521,4.085H665.84l5.282-13.566h2Zm1.254,7.961-2.261-6.327h-0.038l-2.3,6.327h4.6Z" transform="translate(-66.289 -82.261)"/><path class="u" d="M681.629,220.109v-3.116l-1.881.38v-1.767l1.881-.38v-2.964l-1.881.38v-1.767l1.881-.418v-2.964l0.778-.133v2.945l2.091-.475v-3.325l0.8-.133v3.287l1.881-.4v1.805l-1.881.38v2.945l1.881-.361V215.8l-1.881.4v2.793l-0.8.152v-2.774l-2.091.494V220Zm0.778-5.073,2.091-.475V211.6l-2.091.513v2.926Z" transform="translate(-66.289 -82.261)"/></g><g class="t"><path class="u" d="M727.52,362.681c0.291,0,.6,0,0.94.01s0.668,0.025,1,.058a7.72,7.72,0,0,1,.922.142,2.344,2.344,0,0,1,.731.285,3.532,3.532,0,0,1,1.13,1.1,3.061,3.061,0,0,1,.466,1.729,3.307,3.307,0,0,1-.522,1.872,3.081,3.081,0,0,1-1.491,1.168v0.038a3.127,3.127,0,0,1,1.919,1.14,3.413,3.413,0,0,1,.665,2.129,4.041,4.041,0,0,1-.267,1.443,3.609,3.609,0,0,1-.788,1.245,3.958,3.958,0,0,1-1.292.874,4.444,4.444,0,0,1-1.776.332H722.6V362.681h4.921Zm0.494,5.833a3.556,3.556,0,0,0,2.213-.541,1.961,1.961,0,0,0,.675-1.625,2.392,2.392,0,0,0-.229-1.14,1.609,1.609,0,0,0-.627-0.646,2.469,2.469,0,0,0-.921-0.295,8.9,8.9,0,0,0-1.111-.066H724.4v4.313h3.61Zm0.911,6.214a2.6,2.6,0,0,0,1.872-.646,2.358,2.358,0,0,0,.675-1.786,2.221,2.221,0,0,0-.247-1.1,1.914,1.914,0,0,0-.656-0.693,2.725,2.725,0,0,0-.94-0.361,5.727,5.727,0,0,0-1.1-.1H724.4v4.693h4.521Z" transform="translate(-66.289 -82.261)"/></g><g class="t"><path class="u" d="M112,364.6a4.2,4.2,0,0,0-2.46-.722,4.41,4.41,0,0,0-2.081.456,4.1,4.1,0,0,0-1.425,1.226,5.284,5.284,0,0,0-.826,1.758,7.839,7.839,0,0,0-.266,2.052,8.773,8.773,0,0,0,.266,2.194,5.244,5.244,0,0,0,.826,1.8,4.073,4.073,0,0,0,1.435,1.226,4.456,4.456,0,0,0,2.09.456,4.031,4.031,0,0,0,1.587-.294,3.593,3.593,0,0,0,1.2-.817,3.753,3.753,0,0,0,.789-1.244,5.169,5.169,0,0,0,.342-1.559h1.805a6.166,6.166,0,0,1-1.767,3.99,5.716,5.716,0,0,1-4.1,1.425,6.549,6.549,0,0,1-2.755-.541,5.415,5.415,0,0,1-1.957-1.491,6.4,6.4,0,0,1-1.168-2.242,9.564,9.564,0,0,1-.39-2.774,9.041,9.041,0,0,1,.418-2.783,6.706,6.706,0,0,1,1.226-2.271,5.7,5.7,0,0,1,2.014-1.529,6.485,6.485,0,0,1,2.764-.561,6.959,6.959,0,0,1,2.014.285,5.4,5.4,0,0,1,1.691.836,4.7,4.7,0,0,1,1.235,1.377,5.055,5.055,0,0,1,.646,1.909H113.34A3.362,3.362,0,0,0,112,364.6Z" transform="translate(-66.289 -82.261)"/></g><g class="t"><path class="u" d="M625.991,362.682l5.3,13.566h-2l-1.481-4.085h-5.738l-1.521,4.085h-1.843L624,362.682h2Zm1.254,7.961-2.261-6.326h-0.038l-2.3,6.326h4.6Z" transform="translate(-66.289 -82.261)"/></g><g class="t"><path class="u" d="M159.571,209.539a4.194,4.194,0,0,0-2.46-.722,4.41,4.41,0,0,0-2.081.456A4.1,4.1,0,0,0,153.6,210.5a5.3,5.3,0,0,0-.826,1.757,7.846,7.846,0,0,0-.266,2.052,8.77,8.77,0,0,0,.266,2.194,5.251,5.251,0,0,0,.826,1.805,4.087,4.087,0,0,0,1.435,1.226,4.468,4.468,0,0,0,2.09.456,4.022,4.022,0,0,0,1.587-.295,3.585,3.585,0,0,0,1.2-.817,3.756,3.756,0,0,0,.789-1.245,5.162,5.162,0,0,0,.342-1.558h1.805a6.164,6.164,0,0,1-1.767,3.99,5.716,5.716,0,0,1-4.1,1.425,6.541,6.541,0,0,1-2.755-.542,5.411,5.411,0,0,1-1.957-1.492,6.394,6.394,0,0,1-1.168-2.242,9.558,9.558,0,0,1-.39-2.774,9.045,9.045,0,0,1,.418-2.783,6.706,6.706,0,0,1,1.226-2.271,5.713,5.713,0,0,1,2.014-1.53,6.492,6.492,0,0,1,2.764-.561,6.976,6.976,0,0,1,2.014.285,5.411,5.411,0,0,1,1.691.836,4.708,4.708,0,0,1,1.235,1.377,5.057,5.057,0,0,1,.646,1.91h-1.805A3.358,3.358,0,0,0,159.571,209.539Z" transform="translate(-66.289 -82.261)"/><path class="u" d="M166.971,220.109v-3.116l-1.881.38v-1.767l1.881-.38v-2.964l-1.881.38v-1.767l1.881-.418v-2.964l0.779-.133v2.945l2.09-.475v-3.325l0.8-.133v3.287l1.881-.4v1.805l-1.881.38v2.945l1.881-.361V215.8l-1.881.4v2.793l-0.8.152v-2.774l-2.09.494V220Zm0.779-5.073,2.09-.475V211.6l-2.09.513v2.926Z" transform="translate(-66.289 -82.261)"/></g><g class="t"><path class="u" d="M213.558,362.682a6.761,6.761,0,0,1,4.826,1.6,6.388,6.388,0,0,1,1.691,4.863,10.983,10.983,0,0,1-.38,3.031,5.67,5.67,0,0,1-1.178,2.223,5.108,5.108,0,0,1-2.033,1.378,8.151,8.151,0,0,1-2.926.475H208.9V362.682h4.655Zm0.152,12.047c0.2,0,.456-0.017.76-0.048a4.207,4.207,0,0,0,.969-0.229,4.41,4.41,0,0,0,1.017-.522,3.427,3.427,0,0,0,.9-0.931,5.2,5.2,0,0,0,.655-1.473,7.731,7.731,0,0,0,.257-2.138,9.081,9.081,0,0,0-.238-2.175,4.178,4.178,0,0,0-.779-1.635,3.425,3.425,0,0,0-1.4-1.025,5.56,5.56,0,0,0-2.109-.352h-3.04v10.526h3Z" transform="translate(-66.289 -82.261)"/></g><g class="t"><path class="u" d="M259.934,207.62a6.763,6.763,0,0,1,4.826,1.6,6.391,6.391,0,0,1,1.691,4.864,10.973,10.973,0,0,1-.38,3.03,5.665,5.665,0,0,1-1.178,2.223,5.107,5.107,0,0,1-2.033,1.377,8.14,8.14,0,0,1-2.926.475h-4.655V207.62h4.655Zm0.152,12.046a7.535,7.535,0,0,0,.76-0.047,4.255,4.255,0,0,0,.969-0.228,4.429,4.429,0,0,0,1.017-.522,3.436,3.436,0,0,0,.9-0.931,5.2,5.2,0,0,0,.655-1.473,7.727,7.727,0,0,0,.257-2.137,9.093,9.093,0,0,0-.238-2.176,4.174,4.174,0,0,0-.779-1.634,3.422,3.422,0,0,0-1.4-1.026,5.56,5.56,0,0,0-2.109-.352h-3.04v10.526h3Z" transform="translate(-66.289 -82.261)"/><path class="u" d="M270.535,220.109v-3.116l-1.881.38v-1.767l1.881-.38v-2.964l-1.881.38v-1.767l1.881-.418v-2.964l0.779-.133V210.3l2.09-.475V206.5l0.8-.133v3.287l1.881-.4v1.805l-1.881.38v2.945l1.881-.361V215.8l-1.881.4v2.793l-0.8.152v-2.774l-2.09.494V220Zm0.779-5.073,2.09-.475V211.6l-2.09.513v2.926Z" transform="translate(-66.289 -82.261)"/></g><g class="t"><path class="u" d="M321,362.681V364.2h-7.562v4.313h7.049v1.521h-7.049v4.693h7.619v1.52h-9.424V362.681H321Z" transform="translate(-66.289 -82.261)"/></g><g class="t"><path class="u" d="M423.857,362.682V364.2h-7.105v4.313h6.231v1.521h-6.231v6.213h-1.805V362.682h8.911Z" transform="translate(-66.289 -82.261)"/></g><g class="t"><path class="u" d="M471.7,207.62v1.52H464.6v4.313h6.231v1.52H464.6v6.213h-1.8V207.62h8.91Z" transform="translate(-66.289 -82.261)"/><path class="u" d="M475.578,220.109v-3.116l-1.881.38v-1.767l1.881-.38v-2.964l-1.881.38v-1.767l1.881-.418v-2.964l0.778-.133V210.3l2.091-.475V206.5l0.8-.133v3.287l1.881-.4v1.805l-1.881.38v2.945l1.881-.361V215.8l-1.881.4v2.793l-0.8.152v-2.774l-2.091.494V220Zm0.778-5.073,2.091-.475V211.6l-2.091.513v2.926Z" transform="translate(-66.289 -82.261)"/></g><g class="t"><path class="u" d="M525.474,376.087a6.435,6.435,0,0,1-2.375.465,6.334,6.334,0,0,1-2.718-.561,6.128,6.128,0,0,1-2.032-1.51,6.608,6.608,0,0,1-1.273-2.186,7.637,7.637,0,0,1-.437-2.564,9.622,9.622,0,0,1,.408-2.822,6.948,6.948,0,0,1,1.216-2.346,5.9,5.9,0,0,1,2.014-1.605,6.274,6.274,0,0,1,2.822-.6,8.18,8.18,0,0,1,2.08.256,5.263,5.263,0,0,1,1.748.808,4.814,4.814,0,0,1,1.292,1.4,5.493,5.493,0,0,1,.713,2.043h-1.806a3.547,3.547,0,0,0-.494-1.34,3.19,3.19,0,0,0-.893-0.922,3.952,3.952,0,0,0-1.206-.541,5.546,5.546,0,0,0-1.435-.181,4.125,4.125,0,0,0-3.562,1.8,5.675,5.675,0,0,0-.827,1.843,8.507,8.507,0,0,0-.266,2.118,6.861,6.861,0,0,0,.3,2.043,5.321,5.321,0,0,0,.894,1.729,4.372,4.372,0,0,0,1.453,1.2,4.305,4.305,0,0,0,2,.446,4.83,4.83,0,0,0,1.881-.342,3.876,3.876,0,0,0,2.223-2.347,4.6,4.6,0,0,0,.247-1.738h-4.332V369.1h5.947v7.144h-1.141l-0.475-1.691A4.51,4.51,0,0,1,525.474,376.087Z" transform="translate(-66.289 -82.261)"/></g><g class="t"><path class="u" d="M572.17,221.024a6.416,6.416,0,0,1-2.375.466,6.341,6.341,0,0,1-2.718-.561,6.124,6.124,0,0,1-2.032-1.511,6.6,6.6,0,0,1-1.273-2.185,7.639,7.639,0,0,1-.437-2.565,9.615,9.615,0,0,1,.408-2.821,6.952,6.952,0,0,1,1.216-2.347,5.909,5.909,0,0,1,2.014-1.605,6.28,6.28,0,0,1,2.822-.6,8.158,8.158,0,0,1,2.08.257,5.262,5.262,0,0,1,1.748.807,4.808,4.808,0,0,1,1.292,1.4,5.487,5.487,0,0,1,.713,2.042h-1.806a3.547,3.547,0,0,0-.494-1.339,3.176,3.176,0,0,0-.893-0.921,3.953,3.953,0,0,0-1.206-.542,5.546,5.546,0,0,0-1.435-.181,4.126,4.126,0,0,0-3.562,1.8,5.682,5.682,0,0,0-.827,1.843,8.508,8.508,0,0,0-.266,2.119,6.86,6.86,0,0,0,.3,2.042,5.328,5.328,0,0,0,.894,1.729,4.37,4.37,0,0,0,1.453,1.2,4.305,4.305,0,0,0,2,.447,4.839,4.839,0,0,0,1.881-.342A3.876,3.876,0,0,0,573.9,217.3a4.6,4.6,0,0,0,.247-1.738h-4.332v-1.52h5.947v7.144H574.62l-0.475-1.691A4.508,4.508,0,0,1,572.17,221.024Z" transform="translate(-66.289 -82.261)"/><path class="u" d="M580.3,220.109v-3.116l-1.881.38v-1.767l1.881-.38v-2.964l-1.881.38v-1.767l1.881-.418v-2.964l0.778-.133V210.3l2.091-.475V206.5l0.8-.133v3.287l1.881-.4v1.805l-1.881.38v2.945l1.881-.361V215.8l-1.881.4v2.793l-0.8.152v-2.774l-2.091.494V220Zm0.778-5.073,2.091-.475V211.6l-2.091.513v2.926Z" transform="translate(-66.289 -82.261)"/></g><g class="t"><path class="u" d="M678.547,296.243a12.245,12.245,0,0,1,2.566.249,5.541,5.541,0,0,1,1.986.814,3.789,3.789,0,0,1,1.283,1.5,5.281,5.281,0,0,1,.455,2.317,4.317,4.317,0,0,1-.676,2.483,4.915,4.915,0,0,1-2,1.628,4.739,4.739,0,0,1,2.718,1.835,6.017,6.017,0,0,1,.317,5.739,5.031,5.031,0,0,1-1.559,1.78,6.9,6.9,0,0,1-2.235,1.021,10.07,10.07,0,0,1-2.579.331h-9.547v-19.7h9.271ZM678,304.217a3.11,3.11,0,0,0,1.9-.552,2.084,2.084,0,0,0,.745-1.794,2.285,2.285,0,0,0-.248-1.131,1.842,1.842,0,0,0-.662-0.689,2.791,2.791,0,0,0-.952-0.346,6.308,6.308,0,0,0-1.117-.1h-4.057v4.607H678Zm0.248,8.36a5.762,5.762,0,0,0,1.214-.124,2.984,2.984,0,0,0,1.021-.414,2.086,2.086,0,0,0,.7-0.786,2.707,2.707,0,0,0,.263-1.27,2.55,2.55,0,0,0-.855-2.166,3.654,3.654,0,0,0-2.263-.648h-4.719v5.408h4.636Z" transform="translate(-66.289 -82.261)"/></g><g class="t"><path class="u" d="M731.7,456.561a4.345,4.345,0,0,0-.966-1.09,4.455,4.455,0,0,0-1.311-.731,4.5,4.5,0,0,0-1.531-.262,5.057,5.057,0,0,0-2.483.565,4.683,4.683,0,0,0-1.655,1.518,6.639,6.639,0,0,0-.925,2.166,10.771,10.771,0,0,0-.289,2.511,10.01,10.01,0,0,0,.289,2.414,6.509,6.509,0,0,0,.925,2.111,4.737,4.737,0,0,0,1.655,1.5,5.057,5.057,0,0,0,2.483.565,4.005,4.005,0,0,0,3.1-1.214,5.613,5.613,0,0,0,1.366-3.2h4.194a10.037,10.037,0,0,1-.855,3.339,7.994,7.994,0,0,1-1.821,2.538,7.756,7.756,0,0,1-2.648,1.6,9.7,9.7,0,0,1-3.339.552,10.1,10.1,0,0,1-4.07-.786,8.721,8.721,0,0,1-3.049-2.166,9.6,9.6,0,0,1-1.9-3.242,11.9,11.9,0,0,1-.662-4.015,12.315,12.315,0,0,1,.662-4.1,9.855,9.855,0,0,1,1.9-3.3,8.7,8.7,0,0,1,3.049-2.207,10.563,10.563,0,0,1,7.146-.332,8.352,8.352,0,0,1,2.594,1.366,7.374,7.374,0,0,1,1.891,2.222,7.951,7.951,0,0,1,.938,3.034H732.2A3.545,3.545,0,0,0,731.7,456.561Z" transform="translate(-66.289 -82.261)"/></g><g class="t"><path class="u" d="M116.637,451.3v3.643h-10.4v4.222h9.547v3.366h-9.547v4.828h10.623V471H101.9V451.3h14.734Z" transform="translate(-66.289 -82.261)"/></g><g class="t"><path class="u" d="M627.02,451.3l7.367,19.7h-4.5l-1.489-4.387h-7.367L619.487,471h-4.36l7.45-19.7h4.442Zm0.248,12.086-2.483-7.229h-0.055l-2.566,7.229h5.1Z" transform="translate(-66.289 -82.261)"/></g><g class="t"><path class="u" d="M157.737,296.243v7.56h7.974v-7.56h4.332v19.7h-4.332v-8.5h-7.974v8.5h-4.332v-19.7h4.332Z" transform="translate(-66.289 -82.261)"/></g><g class="t"><path class="u" d="M210.144,451.3v8.168l7.7-8.168h5.408l-7.7,7.781L223.995,471h-5.436l-5.932-8.857-2.483,2.512V471h-4.332V451.3h4.332Z" transform="translate(-66.289 -82.261)"/></g><g class="t"><path class="u" d="M260.948,296.242l4.608,13.547h0.055l4.36-13.547h6.1v19.7h-4.056V301.98h-0.055l-4.829,13.962H263.79l-4.829-13.823h-0.055v13.823H254.85v-19.7h6.1Z" transform="translate(-66.289 -82.261)"/></g><g class="t"><path class="u" d="M306.691,457.138a9.839,9.839,0,0,1,1.9-3.3,8.693,8.693,0,0,1,3.049-2.207,10.777,10.777,0,0,1,8.153,0,8.73,8.73,0,0,1,3.035,2.207,9.848,9.848,0,0,1,1.9,3.3,12.315,12.315,0,0,1,.662,4.1,11.9,11.9,0,0,1-.662,4.015,9.6,9.6,0,0,1-1.9,3.242,8.753,8.753,0,0,1-3.035,2.166,10.963,10.963,0,0,1-8.153,0,8.717,8.717,0,0,1-3.049-2.166,9.588,9.588,0,0,1-1.9-3.242,11.887,11.887,0,0,1-.663-4.015A12.3,12.3,0,0,1,306.691,457.138Zm3.959,6.512a6.509,6.509,0,0,0,.925,2.111,4.737,4.737,0,0,0,1.655,1.5,5.736,5.736,0,0,0,4.967,0,4.746,4.746,0,0,0,1.655-1.5,6.518,6.518,0,0,0,.924-2.111,10.01,10.01,0,0,0,.29-2.414,10.771,10.771,0,0,0-.29-2.511,6.648,6.648,0,0,0-.924-2.166,4.691,4.691,0,0,0-1.655-1.518,5.736,5.736,0,0,0-4.967,0,4.683,4.683,0,0,0-1.655,1.518,6.639,6.639,0,0,0-.925,2.166,10.8,10.8,0,0,0-.29,2.511A10.035,10.035,0,0,0,310.65,463.649Z" transform="translate(-66.289 -82.261)"/></g><g class="t"><path class="u" d="M420.264,451.3a8.2,8.2,0,0,1,3.145.538,5.891,5.891,0,0,1,2.111,1.422,5.482,5.482,0,0,1,1.188,2.014,7.553,7.553,0,0,1,0,4.677,5.462,5.462,0,0,1-1.187,2.028,5.877,5.877,0,0,1-2.111,1.421,8.2,8.2,0,0,1-3.145.538h-4.553V471h-4.332V451.3h8.885Zm-1.187,9.271a9.111,9.111,0,0,0,1.435-.11,3.327,3.327,0,0,0,1.214-.428,2.343,2.343,0,0,0,.842-0.9,3.8,3.8,0,0,0,0-3.035,2.346,2.346,0,0,0-.842-0.9,3.344,3.344,0,0,0-1.214-.427,9,9,0,0,0-1.435-.11h-3.366v5.9h3.366Z" transform="translate(-66.289 -82.261)"/></g><g class="t"><path class="u" d="M463.665,299.884v-3.642h16.142v3.642h-5.9v16.059H469.57V299.884h-5.905Z" transform="translate(-66.289 -82.261)"/></g><g class="t"><path class="u" d="M513.976,451.3H519l3.862,6.291,4-6.291h4.746l-6.318,9.409L532.158,471H527l-4.3-6.815L518.307,471h-4.855l6.87-10.319Z" transform="translate(-66.289 -82.261)"/></g><g class="t"><path class="u" d="M565.28,296.242h4.856l4.607,7.781,4.58-7.781h4.829l-7.312,12.14v7.561H572.51v-7.671Z" transform="translate(-66.289 -82.261)"/></g></g></svg>