<svg xmlns="http://www.w3.org/2000/svg" viewBox="0 0 445.225 440.98"><defs><style>.a{fill:#e52620;}.b{fill:#fff;}.c{fill:#f07e1b;}.d{fill:#f3e600;}.e{fill:#8ebf22;}.f{fill:#67b32e;}.g{fill:#6fb966;}.h{fill:#6dc6d9;}.i{fill:#3b72b8;}.j{fill:#2b4b9b;}.k{fill:#564696;}.l{fill:#a6539b;}.m{fill:#e72580;}.n{fill:#000100;}</style></defs><title>time</title><rect class="a" x="186.123" width="77.829" height="73.678" rx="36.839" ry="36.839"/><path class="b" d="M426.94,127.605l-1.791-5.878h-9l-1.791,5.878h-5.641l8.715-24.794h6.4l8.749,24.794H426.94Zm-3.04-10.269q-2.484-7.989-2.8-9.036t-0.447-1.655q-0.557,2.162-3.192,10.691H423.9Z" transform="translate(-197.909 -77.504)"/><rect class="c" x="285.507" y="37.021" width="77.829" height="73.678" rx="36.839" ry="36.839"/><path class="b" d="M511.515,139.932H519.2q5.253,0,7.626,1.495a5.206,5.206,0,0,1,2.373,4.755,5.992,5.992,0,0,1-1.039,3.631,4.148,4.148,0,0,1-2.762,1.706v0.169a5.441,5.441,0,0,1,3.387,1.959,6.374,6.374,0,0,1,1.039,3.817,6.291,6.291,0,0,1-2.441,5.27,10.554,10.554,0,0,1-6.629,1.892h-9.239V139.932Zm5.236,9.779h3.04a5.559,5.559,0,0,0,3.083-.659,2.458,2.458,0,0,0,.954-2.179,2.181,2.181,0,0,0-1.039-2.035,6.676,6.676,0,0,0-3.285-.617h-2.753v5.489Zm0,4.155V160.3h3.412a5.059,5.059,0,0,0,3.191-.828,3.053,3.053,0,0,0,1.03-2.534q0-3.074-4.391-3.074h-3.243Z" transform="translate(-197.909 -77.504)"/><rect class="d" x="345.747" y="103.246" width="77.829" height="73.678" rx="36.839" ry="36.839"/><path class="b" d="M582.838,210.159a5.336,5.336,0,0,0-4.577,2.221,10.333,10.333,0,0,0-1.622,6.19q0,8.26,6.2,8.259a19.591,19.591,0,0,0,6.3-1.3v4.392a17.5,17.5,0,0,1-6.79,1.267q-5.388,0-8.242-3.269t-2.854-9.382a15.307,15.307,0,0,1,1.4-6.748,10.134,10.134,0,0,1,4.028-4.442,11.913,11.913,0,0,1,6.156-1.545,16.616,16.616,0,0,1,7.229,1.74l-1.688,4.256a27.971,27.971,0,0,0-2.787-1.149A8.324,8.324,0,0,0,582.838,210.159Z" transform="translate(-197.909 -77.504)"/><rect class="e" x="367.396" y="186.78" width="77.829" height="73.678" rx="36.839" ry="36.839"/><path class="b" d="M609.551,314.385H595.329V289.691h14.222v4.29h-8.985V299.4h8.36v4.29h-8.36v6.367h8.985v4.324Z" transform="translate(-197.909 -77.504)"/><rect class="f" x="343.006" y="271.94" width="77.829" height="73.678" rx="36.839" ry="36.839"/><path class="b" d="M587.624,399.545h-5.219V388.888h-9.779v10.657H567.39V374.852h5.236v9.678h9.779v-9.678h5.219v24.693Z" transform="translate(-197.909 -77.504)"/><rect class="g" x="280.919" y="340.638" width="77.829" height="73.678" rx="36.839" ry="36.839"/><path class="b" d="M526.915,468.242H520.97l-6.469-10.4-2.213,1.588v8.816h-5.236V443.549h5.236v11.3l2.061-2.905,6.688-8.395h5.811l-8.614,10.928Z" transform="translate(-197.909 -77.504)"/><rect class="h" x="186.123" y="367.302" width="77.829" height="73.678" rx="36.839" ry="36.839"/><path class="b" d="M417.9,494.906l-5.945-19.373H411.8q0.321,5.912.321,7.888v11.485h-4.678V470.213h7.127l5.844,18.883h0.1l6.2-18.883h7.128v24.693h-4.881V483.219q0-.828.025-1.909t0.228-5.742h-0.151L422.7,494.906h-4.8Z" transform="translate(-197.909 -77.504)"/><rect class="i" x="97.869" y="346.999" width="77.829" height="73.678" rx="36.839" ry="36.839"/><path class="b" d="M344.143,462.223q0,6.132-3.041,9.425t-8.715,3.294q-5.676,0-8.715-3.294t-3.041-9.458q0-6.166,3.049-9.416t8.741-3.252q5.692,0,8.707,3.277T344.143,462.223Zm-18.022,0q0,4.14,1.571,6.232a5.5,5.5,0,0,0,4.7,2.095q6.266,0,6.266-8.327,0-8.342-6.232-8.343a5.531,5.531,0,0,0-4.712,2.1Q326.121,458.084,326.121,462.223Z" transform="translate(-197.909 -77.504)"/><rect class="j" x="28.162" y="277.342" width="77.829" height="73.678" rx="36.839" ry="36.839"/><path class="b" d="M271.984,387.956a7.545,7.545,0,0,1-2.491,6.1q-2.491,2.112-7.085,2.111h-2.246v8.783h-5.236V380.254h7.888q4.493,0,6.832,1.934A7.055,7.055,0,0,1,271.984,387.956Zm-11.823,3.918h1.723a5.735,5.735,0,0,0,3.615-.954,3.34,3.34,0,0,0,1.2-2.778,3.426,3.426,0,0,0-1.005-2.72,4.711,4.711,0,0,0-3.15-.878h-2.381v7.33Z" transform="translate(-197.909 -77.504)"/><rect class="k" y="186.78" width="77.829" height="73.678" rx="36.839" ry="36.839"/><path class="b" d="M237.135,314.385H231.9V294.049h-6.706v-4.358H243.84v4.358h-6.706v20.335Z" transform="translate(-197.909 -77.504)"/><rect class="l" x="18.425" y="96.218" width="77.829" height="73.678" rx="36.839" ry="36.839"/><path class="b" d="M264.485,223.822h-5.979l-5.743-9.34-5.743,9.34h-5.607l8.192-12.735-7.668-11.958h5.776l5.321,8.884,5.219-8.884h5.641l-7.752,12.246Z" transform="translate(-197.909 -77.504)"/><rect class="m" x="86.477" y="27.672" width="77.829" height="73.678" rx="36.839" ry="36.839"/><path class="b" d="M321,140.752l5.151-10.168h5.641L323.6,145.667v9.61h-5.2v-9.441l-8.192-15.252h5.675Z" transform="translate(-197.909 -77.504)"/><path class="n" d="M422.949,169.629c-72.506,0-131.495,58.986-131.495,131.492a130.551,130.551,0,0,0,17.436,65.163,3.3,3.3,0,0,0,.213.634,3.161,3.161,0,0,0,.432.43,132.286,132.286,0,0,0,46.993,47.069,3.361,3.361,0,0,0,.619.546,3.229,3.229,0,0,0,.5.134,130.541,130.541,0,0,0,65.3,17.521c72.506,0,131.495-58.991,131.495-131.5S495.452,169.629,422.949,169.629Zm64.99,237.637-9.549-16.545a3.431,3.431,0,0,0-5.944,3.431l9.614,16.656a123.778,123.778,0,0,1-55.684,14.771V389.71a3.431,3.431,0,1,0-6.861,0v35.872a123.833,123.833,0,0,1-55.935-14.894l9.544-16.536a3.431,3.431,0,0,0-5.944-3.431l-9.465,16.4a125.378,125.378,0,0,1-40.772-40.772l16.4-9.468a3.429,3.429,0,1,0-3.431-5.938l-16.524,9.546a123.813,123.813,0,0,1-14.9-55.941h35.869a3.431,3.431,0,0,0,0-6.861H298.488A123.838,123.838,0,0,1,313.262,242l16.653,9.614a3.375,3.375,0,0,0,1.712.462,3.429,3.429,0,0,0,1.718-6.4L316.8,236.13A125.369,125.369,0,0,1,357.584,195.2l9.6,16.63a3.434,3.434,0,0,0,2.975,1.715,3.383,3.383,0,0,0,1.712-.462,3.426,3.426,0,0,0,1.257-4.684l-9.681-16.767a123.827,123.827,0,0,1,56.072-14.979v35.866a3.431,3.431,0,0,0,6.861,0v-35.86A123.837,123.837,0,0,1,482.209,191.5l-9.76,16.9a3.427,3.427,0,0,0,1.257,4.684,3.375,3.375,0,0,0,1.712.462,3.434,3.434,0,0,0,2.975-1.715l9.687-16.776A125.38,125.38,0,0,1,529.012,236l-16.776,9.687a3.429,3.429,0,0,0,1.718,6.4,3.383,3.383,0,0,0,1.712-.462l16.9-9.76a123.8,123.8,0,0,1,14.844,55.827H511.538a3.431,3.431,0,1,0,0,6.861h35.869a123.851,123.851,0,0,1-14.979,56.078l-16.764-9.681a3.429,3.429,0,1,0-3.431,5.938l16.633,9.6A125.417,125.417,0,0,1,487.939,407.266ZM432.758,301.118a9.816,9.816,0,1,1-19.467-1.6L382.7,281.928a3.431,3.431,0,0,1,3.419-5.949l30.618,17.609a9.83,9.83,0,0,1,2.782-1.628V229.585a3.431,3.431,0,1,1,6.861,0v62.378A9.8,9.8,0,0,1,432.758,301.118Z" transform="translate(-197.909 -77.504)"/></svg>