<svg id="Layer_2" data-name="Layer 2" xmlns="http://www.w3.org/2000/svg" viewBox="0 0 416.87 344.22">
  <defs>
    <style>
      .cls-1 {
        fill: none;
      }

      .cls-2 {
        fill: #fff;
      }

      .cls-3 {
        fill: #80cbd5;
      }

      .cls-4 {
        fill: #4c8fcc;
      }

      .cls-5 {
        fill: #d6c7a2;
      }

      .cls-6 {
        fill: #ec7fb1;
      }

      .cls-7 {
        fill: #e30613;
      }

      .cls-8 {
        fill: #4f8531;
      }

      .cls-9 {
        fill: #959290;
      }

      .cls-10 {
        fill: #ffe000;
      }

      .cls-11 {
        fill: #c2bfbe;
      }

      .cls-12 {
        fill: #3daa35;
      }

      .cls-13 {
        fill: #37a37f;
      }

      .cls-14 {
        fill: #dd7c0e;
      }

      .cls-15 {
        fill: #ec8600;
      }

      .cls-16 {
        fill: #cd62a2;
      }

      .cls-17 {
        fill: #db3b8d;
      }

      .cls-18 {
        fill: #af6718;
      }

      .cls-19 {
        fill: #a78f71;
      }

      .cls-20 {
        fill: #eee300;
      }

      .cls-21 {
        fill: #abbfc3;
      }

      .cls-22 {
        fill: #732a86;
      }

      .cls-23 {
        fill: #8180bb;
      }

      .cls-24 {
        fill: #b0c21d;
      }

      .cls-25 {
        fill: #fabb00;
      }

      .cls-26 {
        fill: #6fb62c;
      }

      .cls-27 {
        fill: #9f4895;
      }

      .cls-28 {
        fill: #7d4e24;
      }

      .cls-29 {
        fill: #e9510e;
      }

      .cls-30 {
        fill: #39aa35;
      }
    </style>
  </defs>
  <title>all-concepts</title>
  <g>
    <g>
      <path class="cls-1" d="M52.19,324.66c-1.52-1.6-4.94-2.54-7.11-3C47.3,324.05,52.19,327.93,52.19,324.66Z"/>
      <path class="cls-1" d="M20.78,326.67c2-.53,4.9-3.55,6.27-5.17-3.24.6-5.74,1.54-6.94,2.69C19.75,324.54,19.4,324.91,20.78,326.67Z"/>
      <path class="cls-1" d="M35.86,289.05c-7.65,0-3.28,12.16-.11,18.64C38.9,301.08,43.22,289.05,35.86,289.05Z"/>
      <path class="cls-2" d="M57.37,318c-2.95-2.58-8.29-4.43-14.69-5.22,7.71-15.51,8.82-32.16-6.82-32.16-10.73,0-18.39,9.74-6.9,32.14-29.49,3.52-16,27.12-3.81,21.16,3.46-1.68,7.28-5.42,10.81-10.14C53.88,346.72,66.52,326,57.37,318Zm-41.67,13c-5.95-7.35-2.23-14.95,14.11-16.65.35.64.71,1.28,1.08,1.91-.74,1.13-1.5,2.21-2.26,3.22-6.83,1-13.69,3.49-9,8.37a1.51,1.51,0,0,0,1.1.44c2.56.1,6.8-3.89,11.22-10.36,1.16,1.86,2.11,3.23,3,4.49C29.76,329.48,21,337.57,15.7,331.05Zm5.08-4.38c-1.38-1.76-1-2.13-.67-2.48,1.2-1.15,3.7-2.09,6.94-2.69C25.68,323.12,22.83,326.14,20.78,326.67Zm15.08-44.32c14.86,0,12.28,17.44,4,32.5-1.09-1.67-2.14-3.45-3.06-5.18,4.38-8.79,8.73-22.44-1-22.31-15.09.19,2.81,34.92,13.57,39.75,4.19,1.89,9.94-5.11-6-7.48-.83-1-1.66-2.13-2.48-3.3.36-.63.7-1.26,1-1.91C59.1,316.3,61.18,324,57.07,329.54,43.77,347.42,6.86,282.35,35.86,282.35Zm-.11,25.34c-3.19-6.54-7.54-18.64.11-18.64C43.21,289.05,38.9,301.08,35.75,307.69Zm9.33,14c2.17.44,5.59,1.38,7.11,3C52.19,327.92,47.33,324.08,45.08,321.68Z"/>
      <g>
        <path class="cls-3" d="M41.85,314.42c-.34.65-.68,1.28-1,1.91.82,1.17,1.65,2.28,2.48,3.3,15.77,2.35,10.34,9.44,6,7.48-10.88-4.88-28.7-39.76-13.42-39.76,9.64,0,5.18,13.73.9,22.32.91,1.71,2,3.49,3.06,5.18,8.26-14.94,11-32.66-4.15-32.49-28.7.32,8.25,65.07,21.43,47.14C61.16,324,59.09,316.3,41.85,314.42Z"/>
        <path class="cls-3" d="M31.9,318C26.21,326.31,22,329,20,328.22c-1.14-.46-6.45-6.66,8.59-8.69.76-1,1.52-2.09,2.26-3.22-.37-.63-.73-1.27-1.08-1.91-16.15,1.68-20.13,9.21-14.11,16.65,5.26,6.51,14-1.54,19.24-8.58C34,321.2,33,319.81,31.9,318Z"/>
      </g>
    </g>
    <g>
      <path class="cls-1" d="M236.34,307.48c-1.85-.28-2.91-.43-4-.57,0,.41,0,.81,0,1.21C234.24,307.83,233.71,307.88,236.34,307.48Z"/>
      <path class="cls-1" d="M253.33,321.73c0-10.11-9.58-5.62-19.89-4.9C237.73,334.52,253.33,329.33,253.33,321.73Z"/>
      <path class="cls-1" d="M253.33,293.27c0-7.17-16.26-11.81-20.14,5.28C247.65,300.41,253.33,302,253.33,293.27Z"/>
      <path class="cls-2" d="M252.3,307.61c14.78-4.36,12.26-29.21-7.38-29.21-10.72,0-18.19,8.34-20.28,20-10.26,1.93-10,16.57.2,18.34,2.13,11.25,9,20.41,20,20.41C264.21,337.15,267.29,312,252.3,307.61Zm-19.94-.7c1.07.14,2.11.29,4,.57-2.61.4-2.13.36-4,.64C232.37,307.72,232.37,307.32,232.36,306.91ZM260,293.27c0,17.81-18.06,13.15-27.64,11.93a36.46,36.46,0,0,1,.47-5c11.87,1.52,22.73,4.59,22.14-7.27-.51-10.32-25.2-15-24.31,15.41-1.32.17-3.73.43-5,0C224.69,270.79,260,276.1,260,293.27Zm-26.84,5.28c1.46-6.44,5.25-11.72,11.73-11.72,9.29,0,8.41,8.39,8.41,6.44C253.33,302.06,247.62,300.41,233.19,298.55Zm11.7,36.91c-9.93,0-16.17-8.2-18.27-18.51,1.19.07,3.92,0,5.1,0,4.4,18.93,23.32,15.55,23.32,4.8,0-10-8.11-8.74-18.24-7-23.18,4-20.23-12.6-12.43-14.53-2.4,18.05,4.55,6.53,23.36,8.15C266.2,310,263,335.45,244.89,335.46Zm-11.45-18.63c10.31-.72,19.89-5.21,19.89,4.9C253.33,329.32,237.73,334.53,233.44,316.83Z"/>
      <g>
        <path class="cls-4" d="M225.71,308.34c1.25.44,3.66.18,5,0-.89-30.39,23.8-25.73,24.31-15.41.6,11.9-10.33,8.78-22.14,7.27a36.46,36.46,0,0,0-.47,5c8.32,1.06,28.26,6.3,27.62-12.33C259.43,276,224.7,271.12,225.71,308.34Z"/>
        <path class="cls-4" d="M243.42,308.32c-17.79,1-21.08,7.17-19-8.11C217.2,302,213,318.86,236.8,314.74c10.5-1.82,18.24-2.84,18.24,7,0,9.65-18.66,15.23-23.32-4.8-1.19,0-3.91.09-5.1,0,4.41,21.7,22.2,18.5,18.27,18.51C263.74,335.45,267.28,307,243.42,308.32Z"/>
      </g>
    </g>
    <g>
      <path class="cls-1" d="M393,323.11c1.77-1.91,3-7.26,1.32-12.39a60.89,60.89,0,0,1-2.79,9.89A11.51,11.51,0,0,0,393,323.11Z"/>
      <path class="cls-1" d="M363.79,319.67a14,14,0,0,0,1.77,3.34,22.54,22.54,0,0,0,3.4-6.25,70.78,70.78,0,0,1-2-8.65A58.61,58.61,0,0,1,363.79,319.67Z"/>
      <path class="cls-1" d="M377.82,316.75a19.61,19.61,0,0,0,3.1,6.22,12.74,12.74,0,0,0,1.57-2.51A61.44,61.44,0,0,1,379.93,309,77.08,77.08,0,0,1,377.82,316.75Z"/>
      <path class="cls-2" d="M395.75,298.21c.21-18.1-11.91-16.68-15-8.72-2.36-7.33-11-7.65-13.64.12-2.56-8.16-14.89-9.94-15.25,9-10.11,10-3.58,28.71,5.67,27.42,2.12,3.71,4.51,5.74,8.55,5.74v-.06c2.76-.27,5.13-2.24,7.13-5.16,2.17,3.28,4.54,5.22,8.22,5.22l0,0a8.46,8.46,0,0,0,5.4-3,8,8,0,0,0,6.76,3v-.06C404,330.78,408.54,309.3,395.75,298.21ZM380.92,323a19.61,19.61,0,0,1-3.1-6.22,77.08,77.08,0,0,0,2.11-7.8,61.44,61.44,0,0,0,2.56,11.51A12.74,12.74,0,0,1,380.92,323Zm-1.61-24.47a43.49,43.49,0,0,0-4.81-.27,30.53,30.53,0,0,1,.27-5,46.46,46.46,0,0,1,5,.29A36.55,36.55,0,0,0,379.31,298.5Zm-4.6,1.43a39,39,0,0,1,4.58.28A47,47,0,0,1,376.94,314C376,310.58,374.39,303.42,374.71,299.93ZM365.56,323a14,14,0,0,1-1.77-3.34,58.61,58.61,0,0,0,3.2-11.56,70.78,70.78,0,0,0,2,8.65A22.54,22.54,0,0,1,365.56,323Zm-5-17.06c.19-1.21.35-2.41.48-3.59a22,22,0,0,1,5.1-1.68,65.47,65.47,0,0,1-3.25,16.5A66.15,66.15,0,0,1,360.58,306Zm5.51-7a23.42,23.42,0,0,0-5.9,1.92,41.34,41.34,0,0,1,.15-5.51,32,32,0,0,1,5.92-1.54A38,38,0,0,0,366.09,299Zm-14.18,2.19c.19,7.12,1.75,16.81,4.8,23.24C349.64,324.4,344.93,309.8,351.91,301.17Zm13.59,28.92h0c-11.75.23-17.28-45.63-5-44.47v0c3.4.16,4.9,3.22,5.46,6.58a35.89,35.89,0,0,0-4.77,1.11,4.55,4.55,0,0,0-1-2.68c-4.52,2.65.43,34.48,5.18,34.48.62,0,2.34-1.57,4.3-5.87a38.13,38.13,0,0,0,2.53,5.75C370.33,328.06,368.05,330.07,365.5,330.09Zm8.17-44.48c3.56-.26,5.31,2.7,5.92,6.19a50.63,50.63,0,0,0-5.11-.28l0,0a2,2,0,0,0-.44-.84c-3.92,3,1.77,34.46,6.92,34.46.27,0,1.17-.57,2.35-2.51a23.87,23.87,0,0,0,2.57,4.88C372.4,342.66,360.08,286.62,373.67,285.61Zm18.7,44.44c-11.08-1.2-16.79-45.12-4.45-44.44h0c4.95.15,6,6.34,6.11,11.28a25.68,25.68,0,0,0-5.19-2.85,14.93,14.93,0,0,0-.3-1.71h0a3.14,3.14,0,0,0-.8-1.71c-4.37,2.38-.08,34.48,5.18,34.48,3.65,0,8.52-17.4-5.27-24.23a43,43,0,0,1,.23-5.38C408.58,303.6,403,331.2,392.37,330.05Zm.67-6.94a11.51,11.51,0,0,1-1.47-2.5,60.89,60.89,0,0,0,2.79-9.89C396.11,315.92,394.77,321.25,393,323.11Zm-2.43-4.91a57.87,57.87,0,0,1-2.45-10.88c.23-1.35.41-2.65.55-3.9A14,14,0,0,1,393.1,308,67.71,67.71,0,0,1,390.61,318.2Z"/>
      <g>
        <path class="cls-5" d="M374.71,299.93c-.32,3.47,1.25,10.62,2.23,14.05a47,47,0,0,0,2.35-13.77A39,39,0,0,0,374.71,299.93Z"/>
        <path class="cls-5" d="M365.12,325c-5.39-3.46-8.89-32-4.85-34.35a4.55,4.55,0,0,1,1,2.68,35.89,35.89,0,0,1,4.77-1.11c-.56-3.36-2.06-6.42-5.46-6.58v0c-12.33-1.16-6.76,44.7,5,44.47h0c2.55,0,4.83-2,6.78-5.12a38.13,38.13,0,0,1-2.53-5.75C369.07,320.72,366.45,325.82,365.12,325Z"/>
        <path class="cls-5" d="M393.1,308a14,14,0,0,0-4.39-4.54c-.14,1.25-.32,2.55-.55,3.9a57.87,57.87,0,0,0,2.45,10.88A67.71,67.71,0,0,0,393.1,308Z"/>
        <path class="cls-5" d="M374,290.63a2,2,0,0,1,.44.84l0,0a50.63,50.63,0,0,1,5.11.28c-.62-3.53-2.38-6.45-5.92-6.19-13.52,1-1.36,57.16,12.17,41.85a23.87,23.87,0,0,1-2.57-4.88C376.68,333.53,369.87,293.79,374,290.63Z"/>
        <path class="cls-5" d="M351.91,301.17c-7,8.59-2.33,23.23,4.8,23.24C353.65,318,352.1,308.25,351.91,301.17Z"/>
        <path class="cls-5" d="M360.58,306a65.19,65.19,0,0,0,2.33,11.23,65.72,65.72,0,0,0,3.25-16.5,22,22,0,0,0-5.1,1.68C360.93,303.54,360.77,304.74,360.58,306Z"/>
        <path class="cls-5" d="M387.9,295.48a43,43,0,0,0-.23,5.38c14.34,7.1,8.39,25.42,5.07,24.19-5.82-2.14-8.94-32.28-5-34.44a3.14,3.14,0,0,1,.8,1.71h0a14.93,14.93,0,0,1,.3,1.71,25.68,25.68,0,0,1,5.19,2.85c-.09-4.95-1.16-11.13-6.11-11.28h0c-12.5-.68-6.55,44.48,5,44.48C403.24,330.09,408.14,303.43,387.9,295.48Z"/>
        <path class="cls-5" d="M374.77,293.23a30.53,30.53,0,0,0-.27,5,43.49,43.49,0,0,1,4.81.27,36.55,36.55,0,0,1,.43-5A46.16,46.16,0,0,0,374.77,293.23Z"/>
        <path class="cls-5" d="M360.34,295.39a41.34,41.34,0,0,0-.15,5.51,23.42,23.42,0,0,1,5.9-1.92,38.14,38.14,0,0,1,.17-5.13A32,32,0,0,0,360.34,295.39Z"/>
      </g>
    </g>
    <g>
      <path class="cls-1" d="M116.12,311.08c10.39-6.29-1.14-30.06-18.68-7.79C102.32,308.77,109.88,314.87,116.12,311.08Z"/>
      <path class="cls-2" d="M96,292.2c-4.09-13.41-16.58-10.61-17-1.67-.29,6,4.47,9.76,7.65,13.24-11.83,16.66-6.84,26.94-1.46,28.49h0c8,2.41,11-9.22,11.78-17.61,15,12.28,31.45,4,31.45-11.35C128.42,287.38,109.62,278.75,96,292.2Zm-9,38.63c-4.9,0-10.91-9.13.84-25.77,1.51,1.69,2.08,2.36,3.41,3.85-3,4.39-6.06,9.47-4.92,14.92a5,5,0,0,0,.73,1.86c.85-.78,2.62-4.09,3.34-12.45.53-.89,1.15-1.77,2-3,1,1.06,2,2.08,3,3C94.86,319.4,93.15,330.83,86.94,330.83Zm32.65-14c-14.93,9-29.34-12-34.86-17.5-11.84-11.84,5.42-23.05,9.9-5.7-.86.93-1.82,2.05-2.87,3.34-.63-.67-1.29-1.35-2-2.06-1.3-5-3.42-5.81-3.92-4.81-1.27,2.47,2,5.41,11.5,15.66,5.69,6.15,13.49,10.52,19.64,6.79,12.41-7.52-1.5-34.72-20.7-10.54-1.4-1.59-2.35-2.66-3.37-3.78,17.64-21.84,36.61-6.85,33.42,8.68A14.92,14.92,0,0,1,119.59,316.82ZM97.44,303.29C115,281,126.5,304.8,116.12,311.08,109.88,314.87,102.32,308.77,97.44,303.29Z"/>
      <g>
        <path class="cls-6" d="M92.36,310.21c-.87,1.26-1.49,2.14-2,3-.72,8.36-2.49,11.67-3.34,12.45a5.24,5.24,0,0,1-.74-1.9c-1.18-5.85,2.55-11.45,4.93-14.88l-3.41-3.85c-11.54,16.35-6,25.77-.84,25.77,6.21,0,7.92-11.43,8.42-17.59C94.33,312.29,93.34,311.27,92.36,310.21Z"/>
        <path class="cls-6" d="M92.93,298.22c1,1.12,2,2.18,3.37,3.78,19.21-24.19,33.06,3.05,20.7,10.54-6.45,3.91-14.34-1.05-19.64-6.79-7.59-8.23-13.72-13.94-11.29-16,1-.83,2.91,2,3.71,5.11.69.71,1.35,1.39,2,2.06,1-1.29,2-2.41,2.87-3.34-4.48-17.35-21.74-6.13-9.9,5.7,5.38,5.38,19.89,26.57,34.86,17.5a14.92,14.92,0,0,0,6.76-9.92C129.55,291.33,110.55,276.4,92.93,298.22Z"/>
      </g>
    </g>
    <g>
      <path class="cls-1" d="M170.64,306.17c-3.63-.48-9.84-.62-12.9,1.29,3,1.79,9,1.74,12.94,1.21A19.71,19.71,0,0,0,170.64,306.17Z"/>
      <path class="cls-1" d="M162.37,324.86c15,2.63,33.64-1.3,23.17-12.28a35.83,35.83,0,0,1-7.6,3.14C175.52,322.72,169.72,325.11,162.37,324.86Z"/>
      <path class="cls-1" d="M177.6,299a36.42,36.42,0,0,1,8,3.19,10.08,10.08,0,0,0,2.84-7c0-5.15-14.82-5.81-23.37-4.9C170.94,290.92,175.38,293.6,177.6,299Z"/>
      <path class="cls-2" d="M172.72,281.53c-8.59,0-27.32,1.92-26.32,10.42.33,5.66,5.25,6.87,10.69,6.72-10.75,3.26-10.81,13.83-.76,17.32-14.4-.84-16.72,18,15,18,28.84,0,29.31-17.21,20.86-26.7C199.58,298.93,201.55,281.53,172.72,281.53Zm22,34.43c4.72,22-46.68,19.32-46.68,7.11,0-9.64,13.89-2.76,20.3-5.73a44.25,44.25,0,0,0,7.52-1.08c-4.94,11.1-19.78,5.1-22.8,6.56a1.38,1.38,0,0,0,0,.25c1.5,4.82,40.67,8.6,36.67-6.54a11.64,11.64,0,0,0-2.69-4.85,26.27,26.27,0,0,0,3.94-3.1A16.3,16.3,0,0,1,194.75,316Zm-16.81-.24a35.83,35.83,0,0,0,7.6-3.14c10.48,11-8.22,14.9-23.17,12.28C169.72,325.11,175.52,322.72,177.94,315.72Zm-1.37-1.37c-29.14,7.64-35.65-15.48-9.93-15.17,1.79.63,3.21,1.76,3.8,5.24-9.77-1.18-18.11,1.95-13.4,4.6,7.89,4.45,33.78.44,33.08-14.14-.44-9.18-31.21-7.38-36.85-3.14A13,13,0,0,0,157,292h0c12.6-.33,20.11,1.71,20.38,15.14a36,36,0,0,1-5,1.29c.49-21.46-24.31-3.72-24.31-16.94,0-8.89,32-10.39,41.66-4.82C200,292.57,195.85,309.29,176.57,314.35Zm-5.89-5.68c-4,.54-10,.57-12.94-1.21,3.08-1.92,9.28-1.77,12.9-1.29A19.71,19.71,0,0,1,170.68,308.67Zm14.91-6.45a36.42,36.42,0,0,0-8-3.19c-2.22-5.43-6.66-8.11-12.54-8.72,10.68-1.14,23.38.32,23.37,4.9A10.08,10.08,0,0,1,185.59,302.22Zm-1.31,1.23a20.25,20.25,0,0,1-5.22,3,24.43,24.43,0,0,0-.79-5.49A33.69,33.69,0,0,1,184.28,303.45Z"/>
      <g>
        <path class="cls-7" d="M184.28,303.45a33.69,33.69,0,0,0-6-2.46,24.43,24.43,0,0,1,.79,5.49A20.25,20.25,0,0,0,184.28,303.45Z"/>
        <path class="cls-7" d="M191,308.58a26.27,26.27,0,0,1-3.94,3.1,11.64,11.64,0,0,1,2.69,4.85c4,15.3-35.22,11.22-36.67,6.54a1.38,1.38,0,0,1,0-.25c3-1.46,17.85,4.58,22.8-6.56a44.25,44.25,0,0,1-7.52,1.08c-6.42,3-20.3-3.91-20.3,5.73,0,11.7,51.53,15.46,46.68-7.11A16.3,16.3,0,0,0,191,308.58Z"/>
        <path class="cls-7" d="M172.38,308.4a36,36,0,0,0,5-1.29c-.27-13.52-7.94-15.46-20.38-15.14h0a13,13,0,0,1-3.73-.23c5.34-4,36.4-6.27,36.85,3.14,1,20.25-43.56,17.05-33.13,11,2.77-1.6,8-2.16,13.45-1.5-.59-3.43-2-4.6-3.8-5.24-26.74-.33-18.22,24.18,11.85,14.61,16.67-5.31,21.82-21,11.24-27.15-9.73-5.63-41.66-4-41.66,4.82C148.07,304.62,172.87,287,172.38,308.4Z"/>
      </g>
    </g>
    <g>
      <path class="cls-1" d="M299.17,293.76c-.08,1.23-.08,2.4,0,3.64l.11,0C299.27,296.07,299.25,294.85,299.17,293.76Z"/>
      <path class="cls-1" d="M307.07,304.64a82.18,82.18,0,0,1-3.27,15.09c1.39,3.46,2.71,5.72,3.4,6.16.59-.41,2-2.28,3.65-5.87A76.08,76.08,0,0,1,308,304.64,7.91,7.91,0,0,0,307.07,304.64Z"/>
      <path class="cls-1" d="M291.79,325.5a20,20,0,0,0,3.06-5.61,71.16,71.16,0,0,1-2-6.95C290.53,317.68,290.6,323,291.79,325.5Z"/>
      <path class="cls-1" d="M322.54,325.73c1.17-1.92,1.89-7.49-.52-12.66a74.9,74.9,0,0,1-2.27,7.27C320.78,323.15,321.81,325.08,322.54,325.73Z"/>
      <path class="cls-1" d="M316.4,293.65a35.54,35.54,0,0,0-.27,3.91l.19.06C316.42,296.08,316.44,294.76,316.4,293.65Z"/>
      <path class="cls-2" d="M324.21,302.13c.68-4.8,1.21-11.09-.55-15.65-2.85-7.36-15.1-9.38-15.89,9.76h-.18c-.06-6.92-1.59-15-8.51-15-8.54,0-8.9,12.1-8,20.57a25.26,25.26,0,0,0-8.46,18.44c-.37,12.5,9.71,19.41,16.81,9.12,4.87,6.83,11,6.45,15.73.06,1.87,2.7,4.42,4.94,7.74,4.94C333.5,334.36,336,312.68,324.21,302.13Zm-17,23.76c-.69-.44-2-2.7-3.4-6.16a82.18,82.18,0,0,0,3.27-15.09,7.91,7.91,0,0,1,.92,0A76.08,76.08,0,0,0,310.85,320C309.23,323.61,307.79,325.48,307.2,325.89Zm-8-32.13c.08,1.09.1,2.31.07,3.61l-.11,0C299.09,296.16,299.09,295,299.17,293.76Zm1,12.22a17.11,17.11,0,0,1,5.19-1.26,83.9,83.9,0,0,1-2.52,12.39,70,70,0,0,1-2.75-10.62C300.11,306.32,300.13,306.15,300.16,306Zm7.57-8c0,1.57,0,3.25.14,5a20.68,20.68,0,0,0-8.15,1.35c-.23-1.67-.41-3.38-.51-5.12A26.21,26.21,0,0,1,307.73,297.94Zm-16.44,5.95c.26,2.07.62,4.27,1.06,6.52-5.36,8.32-3.14,26.1,3.36,11.85a36.81,36.81,0,0,0,2.67,5.56C288.28,343.65,276.23,318.27,291.29,303.89Zm.5,21.61c-1.19-2.49-1.26-7.83,1.11-12.56a71.16,71.16,0,0,0,2,6.95A19.85,19.85,0,0,1,291.79,325.5Zm7.29-42.57c5.74,0,6.76,7.64,6.8,13.33a28.19,28.19,0,0,0-4.94.66c.23-21.8-9.66-.57,2,25.21,3.51,7.74,5.34,6.74,8.66.22a35.07,35.07,0,0,0,2.5,5.51C298.17,351,283.38,282.93,299.08,282.93Zm17.06,45c-6.54-10.26-11.4-45,.63-45,7,0,6.8,11,5.94,18a22.33,22.33,0,0,0-4.72-2.68c.51-6.54-.43-10-1.17-10.31-5.43,0-1.05,38.88,6.09,39.74l0,0c3-.29,5.41-16.82-6.49-22.76-.18-1.88-.28-3.83-.29-5.53C340.86,308.06,328.16,346.79,316.14,327.92Zm.26-34.27c0,1.11,0,2.43-.08,4l-.19-.06A36.89,36.89,0,0,1,316.4,293.65Zm6.14,32.08c-.73-.65-1.76-2.58-2.79-5.39a74.9,74.9,0,0,0,2.27-7.27C324.43,318.24,323.71,323.81,322.54,325.73Zm-3.65-8a67.69,67.69,0,0,1-2.24-10.58.75.75,0,0,1,0-.16,13.44,13.44,0,0,1,4.15,4C320.28,313.26,319.63,315.55,318.89,317.74Z"/>
      <g>
        <path class="cls-8" d="M300.08,306.49a70,70,0,0,0,2.75,10.62,83.9,83.9,0,0,0,2.52-12.39,17.11,17.11,0,0,0-5.19,1.26C300.13,306.15,300.11,306.32,300.08,306.49Z"/>
        <path class="cls-8" d="M292.35,310.41c-.44-2.25-.8-4.45-1.06-6.52-15.06,14.38-3,39.76,7.09,23.93a36.81,36.81,0,0,1-2.67-5.56C289.27,336.38,286.85,319,292.35,310.41Z"/>
        <path class="cls-8" d="M303,322.13c-11.7-25.8-1.8-46.95-2-25.21a28.19,28.19,0,0,1,4.94-.66c0-5.69-1.06-13.33-6.8-13.33-15.6,0-.93,68.11,15.05,44.93a35.07,35.07,0,0,1-2.5-5.51C308.13,329.23,306.31,329.48,303,322.13Z"/>
        <path class="cls-8" d="M320.84,311a13.44,13.44,0,0,0-4.15-4,.75.75,0,0,0,0,.16,67.69,67.69,0,0,0,2.24,10.58C319.63,315.55,320.28,313.26,320.84,311Z"/>
        <path class="cls-8" d="M316.11,299.35c0,1.7.11,3.64.29,5.53,11.78,5.88,9.53,22.46,6.49,22.76l0,0c-7.17-.86-11.5-39.74-6.09-39.74.74.33,1.68,3.77,1.17,10.31a22.33,22.33,0,0,1,4.72,2.68c.93-7.54.91-18.79-6.59-17.95-11.3,1.27-6.27,35.08,0,44.95C328.24,346.92,340.74,308,316.11,299.35Z"/>
        <path class="cls-8" d="M299.21,299.17c.1,1.74.28,3.45.51,5.12a20.65,20.65,0,0,1,8.15-1.35c-.11-1.75-.16-3.43-.14-5A26.17,26.17,0,0,0,299.21,299.17Z"/>
      </g>
    </g>
  </g>
  <g>
    <g>
      <path class="cls-1" d="M385.81,233.29c-7.31,2.66-7.53,12-.28,7.22a12.69,12.69,0,0,0,5.1-6.81A5.33,5.33,0,0,0,385.81,233.29Z"/>
      <path class="cls-1" d="M371.68,239.14c.46-5.56,5.24-11.7,11.58-13.85-15.12-3.35-24.39,13-21.23,25.15s21.32,18.62,30.3,2.48a21.38,21.38,0,0,0,2.72-10C385.26,255.46,370.78,249.83,371.68,239.14Z"/>
      <path class="cls-2" d="M373.24,270.47c23.19,3.76,38.1-25.25,26-40.15-.52-5.92-4.52-9.94-10-12C352.9,204.66,337.9,264.72,373.24,270.47Zm.06-1.77c-33.55-7.7-17.43-61.11,15.33-48.8,4.42,1.66,7.36,4.53,8.49,8.19a13.82,13.82,0,0,0-10.34-3.54c-26-9.67-39,33-12.51,39.24l0,0c16.42,2.6,25.15-15.39,21.78-25.62-5.29-16.06-23.66.18-16,4.68h0c3.93,2.18,10.07-2.59,12-8.06a10.17,10.17,0,0,1,2.79,5.54c-8.27,12.81-22.26,8.6-21.45-1.07.9-10.73,17.49-19.89,25.86-6.06C407.89,247.54,393.36,273.3,373.3,268.7Zm21.75-25.78a21.38,21.38,0,0,1-2.72,10c-8.91,16-27.13,9.76-30.3-2.48s6.07-28.51,21.23-25.15c-6.34,2.15-11.12,8.29-11.58,13.85C370.79,249.81,385.24,255.48,395.05,242.92Zm-9.24-9.63a5.33,5.33,0,0,1,4.82.41,12.69,12.69,0,0,1-5.1,6.81C378.31,245.27,378.46,236,385.81,233.29Z"/>
      <path class="cls-9" d="M399.23,233.22c-8.35-13.8-25-4.68-25.86,6.06-.79,9.46,13.06,14.06,21.45,1.07a10.17,10.17,0,0,0-2.79-5.54c-1.91,5.47-8,10.24-12,8.06h0c-7.4-4.34,10.63-20.93,16-4.68,3.29,10-5.12,28.26-21.78,25.62l0,0c-26.5-6.26-13.53-48.91,12.51-39.24a13.82,13.82,0,0,1,10.34,3.54c-1.13-3.66-4.07-6.53-8.49-8.19-32.75-12.3-48.91,41.09-15.33,48.8C394.11,272.87,407.67,247.18,399.23,233.22Z"/>
    </g>
    <g>
      <path class="cls-1" d="M180.05,228.29c4,2,8.93,4.35,11.23,4.46C191.34,231,186.35,228.42,180.05,228.29Z"/>
      <path class="cls-1" d="M156.88,231.86c-6.06,6.14-4.49,19.17-.17,23.36A26.72,26.72,0,0,1,156.88,231.86Z"/>
      <path class="cls-1" d="M177,258.72c7.65.65,14.52-2.52,14.32-4.76C188.27,253.44,179.7,257.42,177,258.72Z"/>
      <path class="cls-2" d="M196,246.89c-7.12-4.38-21.34,3.52-29.43,7.6-2.65-2.55-4-6.16-4-10.77,0-4.94,1.53-9.28,5.58-12.18,7.45,3.75,17,9.56,23.45,9.56,4.6,0,8.13-2.94,8.13-8.53,0-10.55-18.46-16.13-31.94-10.38-29.75-10.41-31.13,52.37-2,41.93a28.76,28.76,0,0,0,13.33,3.1C201.82,267.22,202.81,251.11,196,246.89Zm-30.46-23.6a20.75,20.75,0,0,0-6.21,5c-11.37,3.92-9.86,27.57-.67,29.89a20,20,0,0,0,5.11,4.74C140.13,269.16,140.34,217.22,165.49,223.29Zm-8.61,8.57a26.72,26.72,0,0,0-.17,23.36C152.39,251,150.82,238,156.88,231.86ZM179,265.52c-24.12.14-27.79-24.37-18.77-35.72,10.76-13.54,37.65-8.71,37.72,2.73.11,14.12-18.9,2.74-28.18-2a19.64,19.64,0,0,1,6.86-2c6.48,3.41,11.23,5.75,14.14,6,1.93.14,2.29-.16,2.16-2-.5-7.15-32.14-11.75-32.14,11.32S192.29,262,193,254.25c.52-5.71-13.83,1.65-19,4a16.41,16.41,0,0,1-6-2.59c9.83-5,30.07-15.34,30-1.38C198,261.24,188.37,265.46,179,265.52Zm1-37.23c6.26.13,11.29,2.73,11.23,4.46C189,232.64,184.05,230.33,180.05,228.29ZM177,258.72c2.75-1.3,11.32-5.28,14.32-4.76C191.46,256.12,184.82,259.39,177,258.72Z"/>
      <g>
        <path class="cls-10" d="M158.61,258.22c-9.15-2.31-10.76-26,.67-29.89a20.72,20.72,0,0,1,6.21-5c-25.1-6.06-25.39,45.88-1.77,39.67A20.25,20.25,0,0,1,158.61,258.22Z"/>
        <path class="cls-10" d="M168,255.67a16.41,16.41,0,0,0,6,2.59c6.4-3.13,15.78-7.33,18.49-5.67.62.38.88,2.08-.16,3.42-5,6.46-31.46,8.71-31.46-12.29,0-23.27,32.16-18.38,32.16-11.15,0,.87-.16,1.48-.42,1.64-2.18,1.31-10.56-3-15.9-5.76a19.64,19.64,0,0,0-6.86,2c8.61,4.44,28.29,16.36,28.18,2a7.19,7.19,0,0,0-.29-1.92c-2.8-10-27.29-13.57-37.43-.81C151.2,241.2,155,265.52,179,265.52c8.11,0,18.95-3.65,18.95-11.27C198,240.6,178.29,250.44,168,255.67Z"/>
      </g>
    </g>
    <g>
      <path class="cls-1" d="M98.68,252.66c-4.11-3.93-4.38-12.31-.26-16.4,7-6.92,21.43,0,21.43-6.31C119.85,219.22,87,218,87,244.33c0,26,32.84,22.32,32.84,12.9C119.85,253,105.51,259.2,98.68,252.66Z"/>
      <path class="cls-2" d="M109.23,247.47c-5.14,0-5.34-1-5.34-3.31,0-7.31,24.37,4,24.36-14.22,0-21.95-49.6-23.58-49.64,14.38,0,36.63,49.65,34.24,49.65,12.91C128.26,245,114.28,247.47,109.23,247.47Zm-28.92-3.15c0-35.7,46.23-34,46.24-14.38,0,14.72-19.31,7-23.41,11.08-1.36,1.35-1.27,5.41.17,6.8,4.38,4.19,23.24-4.13,23.24,9.41C126.55,276.21,80.27,278.76,80.31,244.32Z"/>
      <path class="cls-2" d="M99.85,251.43c-3.41-3.27-3.66-10.56-.23-14,6.62-6.58,21.94,1.46,21.93-7.52,0-12.66-36.21-14.79-36.24,14.38,0,28.11,36.24,24.78,36.24,12.9C121.55,250.19,106.41,257.71,99.85,251.43ZM87,244.33C87,218,119.85,219.22,119.85,230c0,6.35-14.46-.61-21.43,6.31-4.12,4.09-3.85,12.47.26,16.4,6.83,6.54,21.17.37,21.17,4.57C119.85,266.65,87,270.33,87,244.33Z"/>
      <path class="cls-11" d="M103.31,247.82c-1.44-1.39-1.53-5.45-.17-6.8,4.1-4.07,23.41,3.64,23.41-11.08,0-19.64-46.2-21.32-46.24,14.38,0,34.44,46.24,31.89,46.24,12.91C126.55,243.69,107.69,252,103.31,247.82Zm-18-3.49c0-29.17,36.24-27,36.24-14.38,0,9-15.31.94-21.93,7.52-3.43,3.4-3.18,10.69.23,14,6.56,6.28,21.7-1.24,21.7,5.8C121.55,269.11,85.28,272.44,85.31,244.33Z"/>
    </g>
    <g>
      <path class="cls-1" d="M241.27,246.91c1,0,.95-5.13-.27-9.17C239.77,240.72,238,246.91,241.27,246.91Z"/>
      <path class="cls-1" d="M236.2,228.87c-2.73-3.08-7.5-5.34-8.85-3-4.63,7.92,5.27,36.34,13.54,36.34,9,0,20.34-37.75,12-37.25-2.07.13-4.38,1.76-6.48,4.12C265.7,264.84,215,263.31,236.2,228.87Z"/>
      <path class="cls-2" d="M252.35,216.54c-3.92.25-7.7,2.47-11,5.69-6.43-6.43-16.7-8.47-21.29-.63-7.2,12.32,4.26,49,20.79,49C259.86,270.58,275.38,215.11,252.35,216.54Zm-15.27,51.6c-12.54-4.91-21.8-34.92-15.51-45.68,5.2-8.9,18.31-2.62,23.68,7.95,16,31.58-26.13,30.53-8-.22a24.17,24.17,0,0,1,2.89,5.21c-8.88,18.43,10.27,17.8,1-1.93-4.44-9.47-12.89-12.59-15.29-8.49-4.63,7.93,3.05,33.36,12.35,38.18,12.39,6.41,26.68-40.67,14.54-39.93-2.39.15-5,1.83-7.27,4.28a29.22,29.22,0,0,0-3-4.1c3-2.94,6.41-4.95,10-5.17C273.76,216.89,256.3,275.67,237.08,268.14Zm3.81-6c-10.09,0-19.64-37.25-12-37.25,3.1,0,5.6,2,7.36,3.94-21.21,34.47,29.5,36,10.19.18,3.2-3.59,7-5.24,8.13-3.39C259.33,233.25,248.37,262.18,240.89,262.18Zm.38-15.27c-3.29,0-1.5-6.19-.27-9.17C242.22,241.77,242.27,246.91,241.27,246.91Z"/>
      <path class="cls-12" d="M252.46,218.24c-3.56.22-7,2.23-10,5.17a29.22,29.22,0,0,1,3,4.1c2.32-2.45,4.88-4.13,7.27-4.28,12.1-.74-2.12,46.36-14.54,39.93-9.31-4.82-17-30.26-12.35-38.18,2.39-4.09,10.84-1,15.29,8.49,9.21,19.63-9.93,20.45-1,1.93a24.17,24.17,0,0,0-2.89-5.21c-18.15,30.77,24.08,31.94,8,.22-5.66-11.14-18.67-16.53-23.68-7.95-6.3,10.77,3,40.78,15.51,45.68C256.29,275.67,273.77,216.89,252.46,218.24Z"/>
    </g>
    <g>
      <path class="cls-1" d="M324,259.92c4.24-6.38.79-40.64-16.95-31a42.8,42.8,0,0,1,1.71,5C323.46,236.06,321.51,255.56,324,259.92Z"/>
      <path class="cls-1" d="M297.89,242.53c-2.45,9.89.43,17.59,2,17.6,1-.38,3.42-6.22,1.94-17.6A22.84,22.84,0,0,1,297.89,242.53Z"/>
      <path class="cls-1" d="M293.58,230.83a27.75,27.75,0,0,1,2.53-3.58C295.4,226.85,293.12,228.22,293.58,230.83Z"/>
      <path class="cls-2" d="M302.62,221.75a9.24,9.24,0,0,0-11.09-2h0a11.75,11.75,0,0,0-1.61,19.91c-9,33.77,24.37,41.31,20.69,4.09,5.45,5.58,1.36,24.75,13.46,24.75C343.26,268.47,334.38,203.68,302.62,221.75ZM291.4,240.66a15.35,15.35,0,0,0,4.79,1.65c-2.45,10.16.22,19.52,3.73,19.52,2.89,0,5.15-8.2,3.68-19.5a10.58,10.58,0,0,1,5.16.25C313.13,278.16,283.52,272.08,291.4,240.66Zm10.46,1.87c1.48,11.38-.94,17.22-1.94,17.6-1.5,0-4.53-7.5-2-17.6A22.85,22.85,0,0,0,301.86,242.53ZM324,266.83c-6.08,0-7.22-6.43-8.19-12.42-4-24.65-14.39-7.13-25.44-16.5-9.64-8.17,1.95-23.26,10.72-15.24a23.39,23.39,0,0,0-3.87,3.29c-2.87-2-7.12,2.71-4.75,6.81,5.81,10,23.35-9.66,28.28,20.84.75,4.63,1.41,8.23,3.23,8.22,6.27,0,4-36.32-9.94-36.32-6.38,0-11.35,3.19-14.65,8.69a7.23,7.23,0,0,1-4.9-1.59c4.1-7.42,10.81-12.1,19.55-12.1C333.82,220.51,338.34,266.79,324,266.83Zm-30.46-36c-.45-2.55,1.79-4,2.53-3.58A27.75,27.75,0,0,0,293.58,230.83ZM324,259.92c-2.49-4.35-.54-23.86-15.24-26a42.8,42.8,0,0,0-1.71-5C324.64,219.36,328.31,253.44,324,259.92Zm-17.06-26.17a26.7,26.7,0,0,0-5.1.33,2.81,2.81,0,0,0-.1-.31,16.44,16.44,0,0,1,3.85-3.91C306.08,231.08,306.53,232.38,306.94,233.75Z"/>
      <g>
        <path class="cls-13" d="M306.94,233.75c-.41-1.37-.86-2.67-1.35-3.89a16.44,16.44,0,0,0-3.85,3.91,2.81,2.81,0,0,1,.1.31A27.2,27.2,0,0,1,306.94,233.75Z"/>
        <path class="cls-13" d="M303.6,242.33c1.41,10.84-.63,19.84-3.9,19.48s-5.91-9.56-3.51-19.5a15.35,15.35,0,0,1-4.79-1.65c-7.78,31,21.77,37.88,17.36,1.92A10.58,10.58,0,0,0,303.6,242.33Z"/>
        <path class="cls-13" d="M314.08,220.51c-8.58,0-15.36,4.51-19.55,12.1a7.23,7.23,0,0,0,4.9,1.59c3.26-5.43,8.18-8.69,14.65-8.69,14.12,0,16.12,37,9.94,36.32-1.83,0-2.49-3.6-3.23-8.22-5-30.69-22.4-10.66-28.28-20.84-2.37-4.1,1.87-8.83,4.75-6.81a23.39,23.39,0,0,1,3.87-3.29c-8.76-8-20.37,7.06-10.72,15.24,11,9.3,21.47-8.08,25.44,16.5.93,5.76,2,12.44,8.19,12.42C338.35,266.79,333.79,220.51,314.08,220.51Z"/>
      </g>
    </g>
    <g>
      <path class="cls-1" d="M21.7,226.14c-1.6,0-2.08,3.49-2.07,5.06S21.47,234.49,24,236C24,224.86,24.5,226.14,21.7,226.14Z"/>
      <path class="cls-1" d="M49.7,231.24c0-5.26-.91-5.05-2-5.05-2.74,0-2.29.41-2.3,10.51C48.22,234.88,49.61,232.24,49.7,231.24Z"/>
      <path class="cls-1" d="M49.7,256.9c0-2.64-2.06-4.65-4.29-6,0,1.46,0,2.89,0,4.51C45.42,261.11,49.7,263.63,49.7,256.9Z"/>
      <path class="cls-1" d="M21.85,260.78c2.69,0,2.15-1.08,2.15-11.23C18,252.57,19,260.78,21.85,260.78Z"/>
      <path class="cls-2" d="M49.9,243.78c12.42-7.94,10.28-26-2.3-26h0C35.52,217.91,37,229.22,37,239.57a19.66,19.66,0,0,1-4.57-.47c0-12.18,1.7-21.37-10.71-21.37-10.11,0-16.17,16.38-2.74,25-12.14,7.34-9.15,26.46,2.89,26.46,7,0,10.94-5.38,10.56-11.47v-10a23.46,23.46,0,0,1,4.59.1c0,3.91,0,5.42,0,7.51,0,8,4.75,14,11,14C58.53,269.37,63.46,252.25,49.9,243.78Zm-2.29-24.29h0c10.49,0,12.89,16.21.59,23.31a30.42,30.42,0,0,0-2.85-1.3v-2.83c8.46-4.59,5.93-12.26,4.72-13.46a3.17,3.17,0,0,0-2.43-.72,6.26,6.26,0,0,0-.78,0c-3.88.4-3.22,2.91-3.21,16.33a32,32,0,0,0-5-1.25C38.68,229.43,37.1,219.6,47.61,219.49Zm.07,6.7c1.14,0,2-.19,2,5.05-.09,1-1.48,3.64-4.32,5.46C45.39,226.67,44.92,226.22,47.68,226.19ZM21.61,267.46h0c-10.28-.25-12.61-17.55-1-23.73A32.63,32.63,0,0,0,24,245.32v2.37c-8.5,3.62-7.2,14.8-2.15,14.8,4.81,0,3.85-3.64,3.85-16.52a31.75,31.75,0,0,0,5,1.33C30.7,254.84,32.53,268.48,21.61,267.46Zm.24-6.68c-2.9,0-3.86-8.22,2.15-11.23v8.25C24,258.87,24.4,260.78,21.85,260.78Zm26.22,6.88c-5.33,0-9.35-5.29-9.35-12.3,0-2.23,0-4.11,0-7.19a23.12,23.12,0,0,1,5,1.73c0,3.75-.59,12.6,4.28,12.76h0c3.34-.14,5.35-6.86.91-11.26-6-6-15.87-5.42-14.12-5.42-7.94,0-21.72-5.83-21.83-14.7-.07-6,2.78-11.86,8.77-11.86,10.7,0,9,7.42,9,19.33a25.61,25.61,0,0,1-5-1.83c0-10.51,1.07-13.32-4.52-12.45-2.46.38-3.28,4.28-3.25,6.75S20.6,236.17,24,238c8.91,4.77,10.88,1.53,19.68,4.67C62.55,249.39,57.45,267.66,48.07,267.66Zm-2.65-12.3c0-1.62,0-3.05,0-4.51,2.23,1.4,4.29,3.41,4.29,6C49.7,263.66,45.42,261.07,45.42,255.36ZM21.7,226.14c2.81,0,2.3-1.18,2.3,9.87-2.53-1.52-4.35-3.31-4.37-4.81S20.1,226.14,21.7,226.14Z"/>
      <g>
        <path class="cls-14" d="M30.7,247.3a31.75,31.75,0,0,1-5-1.33c0,.16,0,11.89,0,12,.45,5.29-5.16,4.48-3.86,4.48-5.09,0-6.29-11.21,2.15-14.8v-2.37a32.63,32.63,0,0,1-3.33-1.58c-11.66,6.18-9.33,23.48,1,23.73h0C32.31,268.46,30.7,255.32,30.7,247.3Z"/>
        <path class="cls-14" d="M38.68,239.62a32,32,0,0,1,5,1.25c0-13.88-.81-16.33,4-16.38a3.17,3.17,0,0,1,2.43.72c1.07,1.07,4,8.75-4.72,13.46v2.83a30.42,30.42,0,0,1,2.85,1.3c10.9-6.29,9-17.6,5.39-21.14a8.53,8.53,0,0,0-6-2.17C37,219.49,38.68,229.68,38.68,239.62Z"/>
        <path class="cls-14" d="M24,238c-3.4-1.81-6-4.26-6.07-6.75s.79-6.8,3.77-6.8c4.75,0,4,.34,4,12.5a25.61,25.61,0,0,0,5,1.83c0-12.13,1.6-19.33-9-19.33-6,0-8.84,5.87-8.77,11.86C13,240.18,26.86,246,34.76,246c18.42,0,19.45,16.42,13.21,16.68h0c-4.83-.16-4.27-8.93-4.28-12.76a23.12,23.12,0,0,0-5-1.73c0,3,0,4.94,0,7.19,0,6.42,3.62,12.53,9.71,12.28,7.84-.32,11.25-12.57,4-19.78C43.33,238.87,33.52,243.08,24,238Z"/>
      </g>
    </g>
  </g>
  <g>
    <g>
      <path class="cls-1" d="M188.65,56.35a10.79,10.79,0,0,0,.79-2.45,14.92,14.92,0,0,0-2.57,1A10.75,10.75,0,0,0,188.65,56.35Z"/>
      <path class="cls-1" d="M223.3,55.21a17.31,17.31,0,0,0-2.49-1,7.57,7.57,0,0,0,.88,2.2A8.47,8.47,0,0,0,223.3,55.21Z"/>
      <path class="cls-1" d="M205.11,20.34c-3.35,0-5.15,19.92-5.57,23.56a95.54,95.54,0,0,1,10.84.09C210.05,41.46,207.64,20.34,205.11,20.34Z"/>
      <path class="cls-2" d="M219.05,45.09c-2.29-15.27-2.73-33.15-13.94-33.15-10.46,0-12.06,14.39-13.61,28.31-.19,1.71-.37,3.22-.55,4.6-6,1.13-11.11,3.35-12.54,7.5-2.85,8.26,15.63,23.22,19.94.06a80.33,80.33,0,0,1,13.41.13C214,63.23,220,68.68,227.93,62.31,234.94,56.67,234.32,48.19,219.05,45.09Zm-20.4,5.59c.25-1.59.48-3.28.69-5a86.94,86.94,0,0,1,11.28.1c.25,1.77.51,3.48.8,5.07A83.51,83.51,0,0,0,198.65,50.68Zm.89-6.78c.56-4.84,2.3-23.56,5.57-23.56,2.53,0,4.94,21.12,5.27,23.65A95.54,95.54,0,0,0,199.54,43.9Zm27.15,17.22c-6.91,5.42-11.19.46-13.14-8.37-.13-.57-.25-1.16-.37-1.77-2-10.44-3.06-32.34-8.07-32.34-5.19,0-6.46,18.18-7.29,25.36-.26,2.23-.56,4.66-.92,6.83-2.25,13.66-8.23,14.62-13.19,10.19h0c-7.76-6.23-3.67-12.19,7-14.35-.31,2.23-.59,4-.86,5.33-6.47,1.7-5.76,3-2.92,5.2,2.07,1.65,3.72,3.07,5.57-10.85.08-.61.15-1.21.23-1.8.18-1.46.33-2.87.47-4.11,1.47-13.18,3-26.8,11.92-26.8,15.67,0,8.53,51.58,18.61,43.46,2.11-1.7,3.36-2.9-3.39-4.78-.31-1.37-.64-3.13-1-5.41C230.84,49.38,233.81,55.54,226.69,61.12Zm-39.82-6.24a14.92,14.92,0,0,1,2.57-1,10.79,10.79,0,0,1-.79,2.45A10.38,10.38,0,0,1,186.87,54.88Zm34.82,1.56a7.57,7.57,0,0,1-.88-2.2,17.31,17.31,0,0,1,2.49,1A8.8,8.8,0,0,1,221.69,56.44Z"/>
      <g>
        <path class="cls-15" d="M199.34,45.63c-.21,1.77-.44,3.46-.69,5a82.39,82.39,0,0,1,12.77.12c-.29-1.59-.55-3.3-.8-5.07A86.93,86.93,0,0,0,199.34,45.63Z"/>
        <path class="cls-15" d="M219.33,46.91c.36,2.28.69,4,1,5.41,6.75,1.88,5.47,3.1,3.39,4.78-10.33,8.32-2.76-43.46-18.61-43.46-8.93,0-10.45,13.62-11.92,26.8-.14,1.24-.29,2.65-.47,4.11-.08.59-.15,1.19-.23,1.8-.3,2.27-1.34,10.23-3.09,11.7-.92.77-3.33-1.52-2.49-.85-2.86-2.27-3.56-3.5,2.93-5.2.27-1.35.55-3.1.86-5.33-10.94,2.21-14.59,8.26-7,14.35h0c9.21,8.21,12.69-4.71,14.11-17,1.13-9.78,2.39-25.36,7.29-25.36s6.1,21.91,8.07,32.34c.12.61.24,1.2.37,1.77,1.95,8.85,6.31,13.89,13.31,8.24C233.28,55.81,231.52,49.53,219.33,46.91Z"/>
      </g>
    </g>
    <g>
      <path class="cls-1" d="M124.82,33.2c-.47,3.53.4,7.82,1.82,11.68C129.67,35.44,125.62,27.14,124.82,33.2Z"/>
      <path class="cls-1" d="M114.35,55.77a11.57,11.57,0,0,0,6.83-2.5c-6-11.24-8.44-30.18,4.56-30.48v0c11.6.22,13.48,18.82,6,31,8.41,8.6,15.81-32.58-12.1-32.58C95.9,21.2,95.7,56.5,114.35,55.77Z"/>
      <path class="cls-2" d="M134.92,16.62h0c-12.41-6.76-28.28-4.25-35.69,4.89-11.6,14.31-7.82,43.57,15.47,42.65a19.85,19.85,0,0,0,11.45-4.09c6.3,6,15.06,4.69,19.11-4.89C149.93,44.13,147.74,23.61,134.92,16.62Zm8.77,37.9c-4.4,10.38-15.66,11.13-22.51-5.24-10.07-24,5.47-29.71,11.06-20.88,3.58,5.66,2.94,16.19-1.66,24a28,28,0,0,1-3-5.22c3.17-7.6,2.13-16.13-1.1-17.52a1.92,1.92,0,0,0-.83-.17,2.28,2.28,0,0,0-1.36.36c-4.09,3,1,20.6,7,25.85,2.85,2.53,5.6,2.07,7.81-3.15,3.55-8.37,1.91-25-7.37-30.06s-21.77-3.58-27.28,3.22c-8.09,10-7,32.41,10,31.74a13.18,13.18,0,0,0,7.61-2.7,26.75,26.75,0,0,0,2.92,4,18.32,18.32,0,0,1-11.3,3.66c-20.82,0-23.68-26.86-13.11-39.9,7-8.7,22.11-10.7,33.56-4.47.29.16.57.33.85.5C146.14,25.58,148,44.42,143.69,54.52Zm-12-.74c7.54-12.21,5.56-30.75-6-31v0c-13,.3-10.54,19.19-4.56,30.48a11.63,11.63,0,0,1-7.52,2.51c-17.86,0-17.55-34.58,6-34.58C147.49,21.2,140.18,62.42,131.73,53.78ZM124.82,33.2c.8-6.07,4.82,2.32,1.82,11.68C125.22,41,124.35,36.73,124.82,33.2Z"/>
      <path class="cls-16" d="M135,18.61c-.28-.17-.56-.34-.85-.5-11.45-6.23-26.51-4.23-33.56,4.47-10.74,13.26-7.6,40.73,14.08,39.88A18.19,18.19,0,0,0,125,58.82a26.75,26.75,0,0,1-2.92-4,13.18,13.18,0,0,1-7.61,2.7c-17,.67-18.08-21.76-10-31.74,6.09-7.51,19.9-7.95,28-2.79,8.68,5.52,10.08,21.52,6.65,29.63-7.66,18.09-22.26-22.89-13.56-23.07a2.74,2.74,0,0,1,1,.18c3.17,1.29,4.28,9.92,1.1,17.52a28,28,0,0,0,3,5.22c4.59-7.82,5.24-18.36,1.66-24-5.66-8.95-21.06-3-11.06,20.88,6.88,16.44,18.13,15.57,22.51,5.24C148,44.43,146.15,25.58,135,18.61Z"/>
    </g>
    <g>
      <path class="cls-1" d="M285.6,23.54c2.45-5.25,10.52-7.58,14.65-2,3.53,4.8,3.45,15.41.12,24.06.56,1,1.07,1.87,1.61,2.78,15.13-9.22,5.16-32.33-11.2-31.74-23.26.72-26.82,34.74-7.61,34.74,3.65,0,6.17-2.75,7.77-5.46C285.75,36.29,283.18,28.72,285.6,23.54Z"/>
      <path class="cls-1" d="M293.65,26.85c-1.64.54.19,5.47.81,7C294.68,30.7,294.31,28.08,293.65,26.85Z"/>
      <path class="cls-1" d="M298.11,60.3v-.08l-.08.06Z"/>
      <path class="cls-2" d="M290.51,8.27c-34.31,1.06-37.62,51.54-7.34,51.54a15.45,15.45,0,0,0,6.46-1.41c-3.34,13.58,22.1,14.76,16.25-2.53C329.13,42.15,315.56,7.51,290.51,8.27ZM309.68,51c-5.17,4.74-13.56,7.08-13.57,9.21,0,1,.95,1.53,1.67,1.72a1.73,1.73,0,0,0,.35.08c.33,0,1.13.06,1.36-.31a.31.31,0,0,0,.05-.1,6.22,6.22,0,0,0,.27-2.48c1.56-.88,2.82-1.47,4.56-2.43a10.54,10.54,0,0,1,0,6.25h0c-1.89,6.77-13.3,4.66-13.25-2.76S303.19,52.41,308.33,45c7.93-11.39-1.67-30.59-17.61-30.06-25.36.78-29.09,38.14-7.55,38.14,11.72,0,15.41-22.49,11.68-27.57-.74-1-6.89-1.69-.81,11.69a28.26,28.26,0,0,1-2.15,6.89c-4.58-8.69-6.81-15.44-4.75-19.86,1.89-4.05,8.39-6.23,11.74-1.68,5.89,8,.72,35.53-15.71,35.53-28.08,0-24.64-47.15,7.4-48.14C312.63,9.28,324.32,37.63,309.68,51ZM298.11,60.3l-.07,0,.08-.06ZM285.6,23.54c-2.42,5.18.15,12.75,5.34,22.41-1.6,2.71-4.12,5.46-7.77,5.46-19.43,0-15.49-34.75,8.18-34.75,16.11,0,25.52,22.68,10.63,31.75-.54-.91-1.05-1.8-1.61-2.78,3.33-8.65,3.41-19.26-.12-24.06C296.13,16,288,18.32,285.6,23.54Zm13.93,24.05,1,1.67c-.88.49-1.71.92-2.6,1.39A24.45,24.45,0,0,0,299.53,47.59Zm-5.88-20.74c.66,1.23,1,3.85.81,7C293.83,32.3,292,27.39,293.65,26.85Z"/>
      <g>
        <path class="cls-17" d="M299.53,47.59a24.45,24.45,0,0,1-1.62,3.06c.89-.47,1.72-.9,2.6-1.39Z"/>
        <path class="cls-17" d="M290.57,10c-31.94,1-35.52,48.14-7.4,48.14,17.34,0,22.42-30.9,14.28-37-3.29-2.46-8.59-.57-10.31,3.11-2.06,4.42.17,11.17,4.75,19.86A28.26,28.26,0,0,0,294,37.23c-2-4.41-3.37-8.7-2.37-10.85a2.7,2.7,0,0,1,2.73-1.27c4.25,2.4,1.45,28-11.23,28-21.47,0-17.9-37.36,7.55-38.14,17.45-.58,26.79,22.12,15.59,32.38-5.67,5.19-15.16,6.33-15.2,12.87-.05,7.44,11.37,9.52,13.25,2.76h0a10.54,10.54,0,0,0,0-6.25c-1.75,1-3,1.55-4.56,2.43a6.22,6.22,0,0,1-.27,2.48.31.31,0,0,1-.05.1c-.23.37-1,.35-1.36.31a1.73,1.73,0,0,1-.35-.08c-.72-.19-1.68-.7-1.67-1.72,0-2.13,8.4-4.48,13.57-9.21C324.35,37.61,312.6,9.28,290.57,10Z"/>
      </g>
    </g>
    <g>
      <path class="cls-1" d="M29.89,20c-3,.59-6.66,4.8-8.6,10.07C12,55.38,46.05,65.68,46,48.79A11.88,11.88,0,0,1,39.37,51C23.32,51,30.72,26.89,29.89,20Z"/>
      <path class="cls-1" d="M50.74,20c-1.36.38-.76,4.81-.56,6.21A15.75,15.75,0,0,0,50.74,20Z"/>
      <path class="cls-2" d="M51.14,11.49v0c-13.05,1-9.82,14.78-6.85,27.43-1.37,1.72-4,4.47-5.87,3.37-4.74-2.72,6.6-30.48-7.57-30.78h-.09c-8.15,0-14.5,7.91-17.34,15.65C-1.21,66.83,62.17,82.69,53.27,40.58,60.28,29,62.78,11.22,51.14,11.49ZM50.86,30c1.89-5.42,2.57-11.8.33-11.8C39.52,19,64.13,53,44.84,62.16,30.18,69.12,5.76,52.84,15,27.73c2.51-6.83,8.21-14.54,15.75-14.54,12.21,0,.43,26.88,6.81,30.56,2.58,1.49,5.21-.59,7.19-2.8a58.52,58.52,0,0,1,1.06,5.86,10.63,10.63,0,0,1-6.44,2.46c-15.46,0-5.13-27.38-8.32-31-.89-1-7.72,1.3-11.36,11.17C9.11,58.19,51,70.08,47.34,45.45,45.93,36,37.19,13.2,50.83,13.2c9.33-.67,7.88,13.83,1.88,24.9C52,35,51.42,32.72,50.86,30Zm-.12-10a15.75,15.75,0,0,1-.56,6.21C50,24.79,49.38,20.36,50.74,20ZM21.29,30c1.94-5.27,5.59-9.48,8.6-10.07.83,6.89-6.57,31,9.48,31A11.88,11.88,0,0,0,46,48.79C46.05,65.68,12,55.36,21.29,30Z"/>
      <path class="cls-18" d="M52.71,38.1c4-7.34,6-16.48,4.06-21.22s-6.94-3.68-5.94-3.68c-14.31,0-4,24.86-3.24,34.34C49.25,69,9.24,57.84,19.69,29.45c3.54-9.61,10.4-12.25,11.36-11.17,3.13,3.54-7.07,31,8.32,31a10.63,10.63,0,0,0,6.44-2.46A58.52,58.52,0,0,0,44.75,41c-2,2.21-4.62,4.29-7.19,2.8-6.38-3.68,5.37-30.32-6.76-30.56h-.05C23.46,13,17.58,20.72,15,27.73,5.75,52.85,30.19,69.11,44.84,62.16,64.11,53,39.53,19,51.19,18.18c2.82,0,.79,8.58-.33,11.8C51.42,32.72,52,35,52.71,38.1Z"/>
    </g>
    <g>
      <path class="cls-1" d="M368.13,45.3c.84-3.54-.47-9.34-2.46-14.15C362.51,42.33,367.18,49.34,368.13,45.3Z"/>
      <path class="cls-1" d="M376.31,47.23c-3.69,15.66-29,6.72-17.32-22.29-10.47,15.27.09,44.92,27.94,30.25,6-3.14,9.37-13,7.76-22.49-2.6-15.37-17.17-18.85-24.33-10.68C374.94,28.93,378.12,39.54,376.31,47.23Z"/>
      <path class="cls-2" d="M403,31.29C399.32,9.77,376.64,2.79,364.51,16c-13.22-7.68-26,24-11.09,42.42C369.12,77.77,408.84,65.9,403,31.29Zm-48.23,26c-13.78-17-2.38-45.81,8.64-40a26.73,26.73,0,0,0-2.78,4.23c-3.29-1-13.41,18.54-2,32.67,6.44,7.95,17,8.87,29.1,2.53,12.62-6.65,13.35-37.59-6.28-40.54-19.16-2.88-22.74,32-14,32,4.1,0,3.2-10.58-1-19.35a24.55,24.55,0,0,1,2.78-5.3c7.17,11.49,9.09,29.65-1.77,29.65-17,0-10.78-45.72,14.74-41.9,10.06,1.51,17.2,9.12,19.11,20.36C406.82,64.17,369.57,75.64,354.74,57.31Zm21.57-10.08c1.81-7.69-1.37-18.3-5.95-25.21,7.22-8.23,21.74-4.58,24.33,10.68,1.61,9.47-1.8,19.35-7.76,22.49-27.83,14.66-38.42-15-27.94-30.25C347.28,54,372.62,62.88,376.31,47.23ZM365.81,45c-1.56-3-1.65-8.52-.14-13.85C370.14,41.92,368.31,49.87,365.81,45Z"/>
      <path class="cls-19" d="M382.19,11.22c-25.52-3.82-31.73,41.9-14.74,41.9,10.91,0,8.89-18.24,1.77-29.65a24.55,24.55,0,0,0-2.78,5.3c7.79,16.2,1.4,23.91-2.14,17-4.26-8.29,1.37-32,17.15-29.62,19.65,2.95,18.89,33.89,6.28,40.54-12.06,6.34-22.66,5.42-29.1-2.53-11.37-14.05-1.35-33.7,2-32.67a26.5,26.5,0,0,1,2.78-4.23c-11-5.77-22.43,23-8.64,40A23.06,23.06,0,0,0,372.9,66C410,66,409.76,15.36,382.19,11.22Z"/>
    </g>
  </g>
  <g>
    <g>
      <path class="cls-1" d="M309.46,183.9c-.89,4.47-3.1,8.18-7,10.36,2.73,4.69,10,6.2,14.14-.62A14.29,14.29,0,0,1,309.46,183.9Z"/>
      <path class="cls-2" d="M327.54,180.19c-3.54.28-5.61,3-7.21,6-2.06-1.4-3.06-4-3.06-8.66a54,54,0,0,1,1.4-10.14c1-5,4.77-19.54-9-19.54-4,0-6.95,1.2-8.85,3.55-3.4,4.2-2.11,10.23-.74,16.63a52,52,0,0,1,1.49,9.92c0,2.79-.3,6.55-2.39,8.38-4.58-10.57-17-6.95-17,.85,0,3.87,3.42,9.54,11.91,9.17,6,12.92,22.75,15,30.8-.37C342.16,197.54,338.91,178.43,327.54,180.19Zm-31.64,16a18.06,18.06,0,0,0,5-1.2c3.34,5.91,12.26,7.59,17.2-.61a21.59,21.59,0,0,0,5,1.37C315.85,208.87,301.25,207.17,295.9,196.19Zm13.56-12.29a14.29,14.29,0,0,0,7.11,9.74c-4.09,6.73-11.38,5.35-14.14.62C306.37,192.08,308.57,188.37,309.46,183.9Zm0-27.66c4,0,1.67,3.22-.13,15.33C307.19,158.73,305.23,156.24,309.49,156.24ZM328,194.42c-16,0-17.33-9.85-17.33-17.13s3.45-17.49,2.3-21.17c-.39-1.24-1.72-1.61-3.33-1.59-5,.09-5.15,2.18-3,12.07,2,9.4,3.57,21.35-5,26.14-6.44,3.6-17.77,2.27-17.77-5.58,0-5.79,9.83-9.54,13.84.05a14.15,14.15,0,0,1-5.15.75c-.79-1.51-1.28-1.53-2.26-1.44-1.63.15-1.54.61-1.29,1.18,1.35,3.15,9,2.2,11.61-.4,1.78-1.79,2.67-5,2.64-9.38a53.08,53.08,0,0,0-1.53-10.27c-1.28-6-2.48-11.63.4-15.2,3-3.73,11.2-4.06,14.34-.23,2.79,3.4,1.73,8.69.51,14.82a55.73,55.73,0,0,0-1.43,10.47c0,7.25,2.48,9.78,5.52,10.94,1.79.69,8.05,1.83,9,.08.79-1.41-1.81-2.36-2.81-1-.13,0-.22.08-.2.18a16.84,16.84,0,0,1-5.28-.77c1.36-2.58,3.15-5.08,6.19-5.08h0C337.77,181.6,337.55,194.39,328,194.42Z"/>
      <g>
        <path class="cls-20" d="M300.89,195a18.06,18.06,0,0,1-5,1.2c5.33,10.92,19.91,12.75,27.18-.44a21.59,21.59,0,0,1-5-1.37C313.2,202.49,304.26,201,300.89,195Z"/>
        <path class="cls-20" d="M328,181.86h0c-3,0-4.8,2.45-6.19,5.08a16.84,16.84,0,0,0,5.28.77c0-.1.07-.15.2-.18,1-1.37,3.6-.39,2.81,1-1,1.69-8.05.76-10.57-.83s-4-4.68-4-10.19A55.73,55.73,0,0,1,317,167c1.22-6.13,2.28-11.42-.51-14.82-3.13-3.83-11.32-3.5-14.34.23-2.88,3.57-1.68,9.22-.4,15.2a53.08,53.08,0,0,1,1.53,10.27c0,4.43-.86,7.59-2.64,9.38-2.52,2.54-10.23,3.62-11.61.4-.25-.57-.34-1,1.29-1.18,1-.09,1.47-.07,2.26,1.44a14.15,14.15,0,0,0,5.15-.75c-3.84-9.19-13.84-6-13.84-.05,0,8.79,14.37,9.63,20.3,3.66s4.12-16.43,2.45-24.22c-1-4.57-2-9.29-.6-11,1.09-1.35,5.57-1.45,6.58-.21,1.29,1.57.33,6.41-.53,10.67-3.4,17-1.41,28.36,16,28.36C337.54,194.42,337.77,181.6,328,181.86Z"/>
      </g>
    </g>
    <g>
      <path class="cls-1" d="M390.79,178.32c2.47-10-.49-17.59-2-17.6-1,.38-3.42,6.22-1.94,17.61A22.87,22.87,0,0,1,390.79,178.32Z"/>
      <path class="cls-1" d="M395.1,190a28.64,28.64,0,0,1-2.54,3.59C393.52,194.14,395.51,192.27,395.1,190Z"/>
      <path class="cls-1" d="M364.68,160.94c-4.28,6.43-.72,40.59,16.95,31a44.73,44.73,0,0,1-1.72-5C365.21,184.79,367.16,165.29,364.68,160.94Z"/>
      <path class="cls-2" d="M398.79,181.16c8.95-33.65-24.39-41.4-20.7-4.08-5.46-5.59-1.36-24.76-13.45-24.76-19.32.06-10.17,64.75,21.42,46.79a9.25,9.25,0,0,0,11.09,2h0A11.77,11.77,0,0,0,398.79,181.16ZM364.64,154c11.12,0,5.49,20.77,13.73,25.41a50.6,50.6,0,0,0,1.07,5.69c-8.94-1.8-10.48-11.24-11.55-17.88-1.55-9.61-3.23-8.22-3.23-8.22-6.76,0-4.33,46.17,17.66,34.48a23.74,23.74,0,0,0,2.59,4.3C355.62,213.82,348.68,154.07,364.64,154Zm17,37.9c-17.61,9.58-21.24-24.54-16.95-31,2.49,4.36.53,23.85,15.23,26A44.73,44.73,0,0,0,381.63,191.92Zm1.46-.92c-5.36-13.23-5.44-37,5.67-37,11.42,0,13.36,25.33,2.56,38.4a17.53,17.53,0,0,1-2.5-5.08c7.79-12,4.38-29.51-.46-28.26-5.89,1.53-4.29,27.26,1.82,34.62,3.76,4.54,8.43-1.45,6-5.63a34.17,34.17,0,0,0,2.1-5.14C409.5,192.41,391.7,212.26,383.09,191Zm9.47,2.61A28.64,28.64,0,0,0,395.1,190C395.51,192.27,393.52,194.14,392.56,193.61ZM387.06,180a21.15,21.15,0,0,1,3.27,0,26.74,26.74,0,0,1-2.07,5h-.16C387.68,183.4,387.34,181.73,387.06,180Zm1.7-19.3c1.55,0,4.5,7.6,2,17.6a22.87,22.87,0,0,0-4,0C385.41,167.5,387.59,161.16,388.76,160.72Z"/>
      <g>
        <path class="cls-21" d="M387.06,180c.28,1.71.62,3.38,1,4.94h.16a26.74,26.74,0,0,0,2.07-5A21.15,21.15,0,0,0,387.06,180Z"/>
        <path class="cls-21" d="M398.27,182.93a34.17,34.17,0,0,1-2.1,5.14c2.42,4.15-2.2,10.2-6,5.63-6.83-8.22-7.32-34.68-1.43-34.68,4.81,0,7.51,16.86.07,28.32a17.53,17.53,0,0,0,2.5,5.08C402.42,179,400,153,388.18,154.05,377.44,155,378,178.44,383.09,191,391.66,212.17,409.54,192.44,398.27,182.93Z"/>
        <path class="cls-21" d="M364.66,159c1.77,0,2.43,3.25,3.23,8.22,1.07,6.64,2.61,16.08,11.55,17.88a50.47,50.47,0,0,1-1.07-5.69c-8.23-4.63-2.62-25.41-13.7-25.41-16.07,0-9,59.77,20.24,43.78a23.74,23.74,0,0,1-2.59-4.3C360.32,205.19,357.93,159,364.66,159Z"/>
      </g>
    </g>
    <g>
      <path class="cls-1" d="M28.65,183.7a26.93,26.93,0,0,1-3,.84c0,4-.06,6.52-.14,9.28a20,20,0,0,1,11.21-.73C35.07,190.73,33,187,28.65,183.7Z"/>
      <path class="cls-1" d="M37.27,164.39a14.29,14.29,0,0,1-11.83.17c.09,1.71.17,4.14.2,8.18a25.47,25.47,0,0,1,3.6,1.49C33.62,171.68,35.14,168.66,37.27,164.39Z"/>
      <path class="cls-2" d="M47.7,193.85c-6.48-8.52-6.68-10.22-11.16-14.44,4-3.15,6.57-6.84,11.24-17.67,2-4.57,4.43-10.09,0-12.38A4.1,4.1,0,0,0,47,149c-2.11-.58-3.84.37-5.39,1.93-15.18,15.34-14.47-2-22,1.6h0c-4,2-2.53,6.8-2.39,19.38-7.73,1.57-8.33,10.87,0,12.77-.09,14-1.58,19.77,3.82,20.4,1.76.23,3-.56,4.34-1.59,10.51-8.11,20.08,6.11,25.23,1.09C53.66,201.67,51.54,198.89,47.7,193.85Zm.59,3.61c2.14,3,2.71,4.43,1.16,5.94a2.5,2.5,0,0,1-4.24-1.6c-.62-1-2.5-3.43-4.28-5.8-4.78-6.35-5.82-9.22-10.45-13a26.13,26.13,0,0,0,4.66-2.56C38,183.12,37.67,182.79,48.29,197.46ZM25.64,184.54a26.93,26.93,0,0,0,3-.84c4.3,3.25,6.37,7,8.06,9.39a20,20,0,0,0-11.21.73C25.59,190.71,25.62,187.87,25.64,184.54Zm16-31.29a4.17,4.17,0,0,0,.08.71,67.07,67.07,0,0,1-3.29,8c-4.34,2.4-8.89,3-13.14.67a34.64,34.64,0,0,1,0-4.63,4.45,4.45,0,0,0,.28-1.34C29.06,159.85,33.59,160.9,41.69,153.25Zm-16,21.28c.54.2,1.1.42,1.66.67-.59.25-1.14.46-1.66.63Zm0-1.79c0-4-.11-6.47-.2-8.18a14.29,14.29,0,0,0,11.83-.17c-2.13,4.27-3.65,7.29-8,9.84A25.47,25.47,0,0,0,25.64,172.74Zm-4.75-18.82a2.5,2.5,0,0,1,2.74,3.62c-.29,5.84.31,3.56.33,18.77a11.8,11.8,0,0,1-5,.19C18.94,158.66,17.35,154.72,20.89,153.92Zm-3.64,19.76c0,1.12,0,2.38,0,3.76,2.09,2.35,14.42.8,19.61-8.6,3.1-5.63,6.19-12.73,6.66-14.9-1.16-3.15,3.5-4.79,4.81-1.68s-5.81,16.66-7.1,19c-5.8,10.52-18,13.32-24,11.73S11.7,175,17.25,173.68Zm6.69,11.17c-.05,7.57-.27,11.93-.23,14.84A2.5,2.5,0,0,1,21,203.38c-3.23-.78-2.11-4.18-2-18.38A20.46,20.46,0,0,0,23.94,184.85Zm1.8,16.35a4.31,4.31,0,0,0-.33-1.91c0-1.63,0-2.72,0-3.62,2.85-1.24,7-2,12.72-.53,2.21,3,4.45,5.82,5.4,7.26l.06.21C33.68,197.55,28.48,199.43,25.74,201.2Z"/>
      <g>
        <path class="cls-22" d="M38.17,195.14c-5.75-1.5-9.87-.71-12.72.53,0,.9,0,2,0,3.62a4.31,4.31,0,0,1,.33,1.91c2.74-1.77,7.94-3.65,17.89,1.41l-.06-.21C42.62,201,40.38,198.16,38.17,195.14Z"/>
        <path class="cls-22" d="M38.48,161.92a67.07,67.07,0,0,0,3.29-8,4.17,4.17,0,0,1-.08-.71c-8.1,7.65-12.64,6.6-16.09,3.37a4.45,4.45,0,0,1-.28,1.34,34.64,34.64,0,0,0,0,4.63C29.59,164.92,34.14,164.32,38.48,161.92Z"/>
        <path class="cls-22" d="M27.32,175.2c-.56-.25-1.12-.47-1.66-.67v1.3C26.18,175.66,26.73,175.45,27.32,175.2Z"/>
        <path class="cls-22" d="M46.36,194.88c-6.4-8.4-6.74-10.29-11.22-14.44A26.13,26.13,0,0,1,30.48,183c4.73,3.87,5.29,6.23,11.9,14.91,1.06,1.4,2.36,3.1,2.83,3.89a2.49,2.49,0,0,0,4.23,1.6C51.39,201.51,50,199.71,46.36,194.88Z"/>
        <path class="cls-22" d="M19,176.5a11.43,11.43,0,0,0,5-.19c0-15.14-.62-12.94-.33-18.77a2.5,2.5,0,0,0-2.74-3.62,2.76,2.76,0,0,0-.53.18C17.5,155.53,18.94,158.68,19,176.5Z"/>
        <path class="cls-22" d="M23.94,184.85a20.46,20.46,0,0,1-5,.15c-.09,14-1.31,18.45,2.61,18.45a2.5,2.5,0,0,0,2.16-3.76C23.67,196.71,23.89,192.81,23.94,184.85Z"/>
        <path class="cls-22" d="M41.24,171.25c1.58-2.85,8.43-15.84,7.1-19s-6-1.49-4.81,1.68c-.47,2.16-3.55,9.26-6.66,14.9-5.17,9.35-17.51,11-19.61,8.6,0-1.38,0-2.64,0-3.76-5.68,1.37-5.87,7.77,0,9.31S35.43,181.79,41.24,171.25Z"/>
      </g>
    </g>
    <g>
      <path class="cls-1" d="M96.71,182c-.73.47-1.46.9-2.2,1.28,0,.49-.07,1-.11,1.43,1.47-.19,3-.35,4.62-.47A28.66,28.66,0,0,0,96.71,182Z"/>
      <path class="cls-1" d="M98.05,169.86c-1.2-.1-2.4-.22-3.59-.37,0,.43.06.88.08,1.32.58.25,1.16.53,1.74.83C96.87,171.09,97.46,170.49,98.05,169.86Z"/>
      <path class="cls-1" d="M116.52,194.18a10.16,10.16,0,0,0-2.71-.91C115.14,195.72,116.84,196.25,116.52,194.18Z"/>
      <path class="cls-1" d="M113.55,160.93a14.32,14.32,0,0,0,2.13-.65C114.68,160.44,114.2,159.56,113.55,160.93Z"/>
      <path class="cls-2" d="M109.48,184.18a37.19,37.19,0,0,0-6.28-7.59,51.1,51.1,0,0,0,5.4-6.62c25-1.54,16.62-18.23,5.88-18.23-7.16,0-8.63,6.33-10.61,10a66.52,66.52,0,0,1-10.73-.91c-5.93-23.34-28.17-.18-7.32,6.79.07.57.13,1.17.19,1.81-8.8,1.69-8.37,14.49-.08,15.77-.06.55-.11,1.08-.18,1.58-18.74,7,1.63,30.7,7.37,6.63a58.24,58.24,0,0,1,11.23-1c.81,1.82,3.46,11.49,11.69,11.49C125.92,203.91,132.67,185.67,109.48,184.18ZM117,153.82c6.91,2,12.08,12.74-7.27,14.36a48.23,48.23,0,0,0,2.93-5.33c3.59-.61,5-1.54,5.49-2.1,0-.82-1.68-1.87-2.56-2.13-5-1.46-2.77,5.85-13.66,16.88a32.1,32.1,0,0,0-4.13-3C108.94,161.86,106.71,150.79,117,153.82Zm-3.49,7.11c.65-1.37,1.13-.49,2.13-.65A14.32,14.32,0,0,1,113.55,160.93Zm-19.09,8.56c1.19.15,2.39.27,3.59.37-.59.63-1.18,1.23-1.77,1.78-.58-.3-1.16-.58-1.74-.83C94.52,170.37,94.49,169.92,94.46,169.49Zm8.44-6.07a39.17,39.17,0,0,1-3.45,4.84c-1.74-.11-3.47-.27-5.15-.49-.19-1.86-.43-3.59-.75-5.15A69.52,69.52,0,0,0,102.9,163.42Zm-18.58-6c-1.52,1.8.19,2,1.23,8.35-17.47-6.47,4.85-29.06,7.24,4.37a15.58,15.58,0,0,0-5.09-.89C87.45,166.46,86.47,159.2,84.32,157.41Zm1.16,31.29c-1.34,8.14-2.32,7.33-.52,7.74,2.47-4.37,3-13.75,3.05-18.81a12.06,12.06,0,0,1,5,1.72C92,220.17,69.85,195.28,85.48,188.7ZM99,184.28c-1.6.12-3.15.28-4.62.47,0-.47.08-.94.11-1.43.74-.38,1.47-.81,2.2-1.28A28.66,28.66,0,0,1,99,184.28Zm-4.41-3c0-.29,0-.57,0-.85.21.14.42.31.63.46C95.06,181,94.84,181.14,94.61,181.27Zm-1.1,10.31c.3-1.56.55-3.26.74-5.1,1.87-.26,4-.47,6.14-.6a30.69,30.69,0,0,1,3.15,4.84A56,56,0,0,0,93.51,191.58ZM116,202.21c-6,0-8.33-6.14-9.83-9.76-4.49-10.82-13.75-16.51-18.21-16.51-2.41,0-1.41.6-1.92,7.55-3.17-.54-4.78-3-4.77-6.16h0c-.29-11,20.4-8.85,30.43,15.56,2.71,6.58,7.51,4.7,6.31.41-.53-.73-2.4-1.39-5-1.85a37.83,37.83,0,0,0-2.46-5.43C130.22,188,123.36,202.21,116,202.21Zm.48-8c.32,2.08-1.38,1.53-2.71-.91A10.16,10.16,0,0,1,116.52,194.18Z"/>
      <g>
        <path class="cls-23" d="M94.25,186.48c-.19,1.84-.44,3.54-.74,5.1a56,56,0,0,1,10-.86,30.69,30.69,0,0,0-3.15-4.84C98.21,186,96.12,186.22,94.25,186.48Z"/>
        <path class="cls-23" d="M85.55,165.76c-1.07-6.53-2.73-6.57-1.23-8.35,2.14,1.78,3.12,9,3.38,11.83a15.58,15.58,0,0,1,5.09.89C90.39,136.66,68.1,159.3,85.55,165.76Z"/>
        <path class="cls-23" d="M99.45,168.26a39.17,39.17,0,0,0,3.45-4.84,69.52,69.52,0,0,1-9.35-.8c.32,1.56.56,3.29.75,5.15C96,168,97.71,168.15,99.45,168.26Z"/>
        <path class="cls-23" d="M94.61,181.27c.23-.13.45-.25.67-.39-.21-.15-.42-.32-.63-.46C94.64,180.7,94.63,181,94.61,181.27Z"/>
        <path class="cls-23" d="M97.84,172.53a31.83,31.83,0,0,1,4.13,3c11.25-11.4,9-20.34,15-16.23.43.29,1.21,1,1.22,1.48-.44.56-1.9,1.49-5.49,2.1a48.23,48.23,0,0,1-2.93,5.33c19.29-1.62,14.18-12.32,7.27-14.36C106.73,150.79,108.91,161.88,97.84,172.53Z"/>
        <path class="cls-23" d="M88,177.63c0,5.05-.58,14.44-3.05,18.81-1.83-.41-.8.29.52-7.74-15.6,6.57,6.5,31.47,7.49-9.35A12,12,0,0,0,88,177.63Z"/>
        <path class="cls-23" d="M110.56,186a37.83,37.83,0,0,1,2.46,5.43c2.64.46,4.51,1.12,5,1.85,1.24,4.41-3.91,6.35-6.57-1.07-7.6-21.27-30.5-27.16-30.17-14.9h0c0,3.16,1.6,5.62,4.77,6.16.51-6.92-.49-7.55,1.92-7.55,4.85,0,14.69,6.51,18.79,18,2.11,5.9,5.85,8.3,9.25,8.3C123.36,202.21,130.24,188,110.56,186Z"/>
      </g>
    </g>
    <g>
      <path class="cls-1" d="M185.45,164c0-7.71-18.34-14.33-23.08,5a55.62,55.62,0,0,1,15.18,3.22C182.19,169.65,185.45,166.6,185.45,164Z"/>
      <path class="cls-1" d="M186.66,191.06c.07-3.16-2.75-6.92-8.91-9.82a55.51,55.51,0,0,1-15.82,4.28C165.84,202,186.47,201,186.66,191.06Z"/>
      <path class="cls-2" d="M195.06,190.73h0c-.07-5.47-3.12-10.36-8.87-14.26,27.2-20.33-25-48.93-32.51-7-10.43,2.41-9.49,13.26-.4,15.62,4.22,27.42,38.8,27.15,41.62,8.11l0,0A16.92,16.92,0,0,0,195.06,190.73Zm-10.3-15.18A37.13,37.13,0,0,0,179.6,173c3.34-2,7.61-5.23,7.55-9.1-.14-9.56-21.39-16.76-26.5,5a30.42,30.42,0,0,0-5.19.27C162.93,131,210.11,157.34,184.76,175.55Zm-7.21-3.39a55.62,55.62,0,0,0-15.18-3.22c4.74-19.3,23.08-12.71,23.08-5C185.45,166.6,182.19,169.65,177.55,172.16Zm-23,5.75a17.21,17.21,0,0,1,5-.67c-1.05,28,27.54,26.68,28.72,14.57l.13-.1a2.51,2.51,0,0,1-.08-.62c.27-13.72-33.71-18.45-35.48-14.06a45.44,45.44,0,0,0,.16,6.22c-3-.94-5.08-3-5.15-6h0c-.91-14.32,49.62-3.79,45.41,14.5l0,0C192.21,211,153.8,211.62,154.56,177.91Zm21.12,2.45a53.68,53.68,0,0,1-14.09,3.49,27.69,27.69,0,0,1-.34-5,41.39,41.39,0,0,0,5.61-1A47.77,47.77,0,0,1,175.68,180.36Zm2.07.88c9.55,4.48,8.91,9.82,8.91,9.82-.19,9.79-20.77,11.16-24.73-5.54A55.51,55.51,0,0,0,177.75,181.24Z"/>
      <g>
        <path class="cls-24" d="M166.86,177.92a41.39,41.39,0,0,1-5.61,1,27,27,0,0,0,.34,5,53.68,53.68,0,0,0,14.09-3.49A47.77,47.77,0,0,0,166.86,177.92Z"/>
        <path class="cls-24" d="M160.65,168.87c5.1-21.75,26.36-14.59,26.5-5,.06,3.87-4.21,7.15-7.55,9.1a37.13,37.13,0,0,1,5.16,2.59c25.36-18.22-21.83-44.57-29.3-6.41A30.47,30.47,0,0,1,160.65,168.87Z"/>
        <path class="cls-24" d="M147.89,177.21h0c.07,3.07,2.18,5.09,5.15,6a45.44,45.44,0,0,1-.16-6.22c1.76-4.37,35.75.31,35.48,14.06a2.51,2.51,0,0,0,.08.62l-.13.1c-1.18,12.08-29.77,13.49-28.72-14.57a17.16,17.16,0,0,0-5,.67c-.76,33.62,37.64,33.15,38.76,13.82l0,0C197.51,173.46,147,162.87,147.89,177.21Z"/>
      </g>
    </g>
    <g>
      <path class="cls-1" d="M259.32,176.81a6.3,6.3,0,0,0-2.1.41C260.88,178.91,262.17,176.81,259.32,176.81Z"/>
      <path class="cls-1" d="M227.36,184.57c5.49,0,11.63-3.5,16.46-7.5C220.7,157.58,211.06,184.57,227.36,184.57Z"/>
      <path class="cls-2" d="M250.21,171.5c-21.18-18.76-39.32-7.31-39.32,6.27,0,14.75,19,22.76,39.26,5,4,3,9,4.67,13.61,2.78C276.09,180.4,266.16,160.53,250.21,171.5Zm1.25,10.06a24.63,24.63,0,0,1,3.89-3.41c6.58,3.95,8.93-1.25,5.93-2.65l-.15-.06c-8.22-3.42-15.14,15.77-33.84,15.77-7.52,0-12.69-4.08-14.22-9.78-3.71-13.83,14.25-27.76,35.76-8.89-1.7,1.39-1.72,1.64-3.71,3.41-23.17-19.71-35,4.25-22.5,9.42,7,2.89,15.85-1.59,22.49-7.16,2.58-2.16,9.66-10.82,17.94-7.39C273.13,175,265.22,191.36,251.46,181.56Zm5.76-4.34a6.3,6.3,0,0,1,2.1-.41C262.17,176.81,260.89,178.91,257.22,177.22Zm-13.4-.15c-4.83,4-11,7.5-16.46,7.5C211.06,184.57,220.71,157.58,243.82,177.07Z"/>
      <path class="cls-25" d="M263.05,170.82c-8.24-3.41-15.35,5.22-17.94,7.39-6.64,5.57-15.52,10-22.49,7.16a7.81,7.81,0,0,1-4.53-4.67c-3.16-9,9.06-20,27-4.75,2-1.75,2-2,3.71-3.41-21.5-18.86-39.48-4.95-35.76,8.89,1.53,5.69,6.69,9.78,14.22,9.78,18.8,0,25.6-19.2,33.84-15.77l.15.06c3,1.4.67,6.61-5.93,2.65a24.63,24.63,0,0,0-3.89,3.41C265.21,191.35,273.15,175,263.05,170.82Z"/>
    </g>
  </g>
  <g>
    <g>
      <path class="cls-1" d="M20.17,114.29c-.23-.42-.41-.73-.55-1-.7,14.3,42.77,12.89,39.68-.59-.94,1-1.63,7.92-9.32,7.92-3.35,0-6.93-2.11-10.3-6C33,122.3,25.12,123.27,20.17,114.29Z"/>
      <path class="cls-1" d="M39.64,84.48c-4.52,0-1.45,10.18.1,14C41.39,94.41,44.08,84.48,39.64,84.48Z"/>
      <path class="cls-2" d="M50.84,111a13.27,13.27,0,0,1-.52,1.23c-1.78.11-4.6-3.33-5.66-4.77,23.31-42.21-33.13-42.3-9.9,0-9,12.34-4.62-3.05-15.3-3.05a7.82,7.82,0,0,0-6.57,3.38c-2.23,3.17-2.24,7.76-.05,12C21.25,136,57.7,135.94,66.05,120,73.42,106,56.29,97.28,50.84,111Zm13.71,8.19C56.81,134,22.11,134,14.35,119c-3.66-7.05.05-13.62,6.11-12.81,7.19,1,5.76,15.13,15.2,2.85a42.6,42.6,0,0,0,2.94,4.31c-12.08,14-17.16-2-18.81-2.2-2.39-.33-2.22,3.21-1,5.54,5.07,9.77,23.7,8.53,20.7,8.53,23.33,0,23.28-14.78,20.06-14.39C56,111.3,57.77,119,50,119c-9.39,0-19.37-20-19.37-30.76,0-18,29.9-14.2,13,17.73a40,40,0,0,1-2.94-5.36c2.92-6.54,5.8-18.16-1.37-17.77-12.05.66,8.33,41,13.15,28.86C57,100.14,70.81,107.28,64.55,119.22Zm-44.93-5.89c.14.23.32.54.55,1,4.95,9,12.82,8,19.51.42,3.37,3.84,7,6,10.3,6,7.69,0,8.38-6.92,9.32-7.92C62.39,126.22,18.93,127.62,19.62,113.33Zm20-28.85c4.44,0,1.75,9.93.1,14C38.08,94.38,35.18,84.48,39.64,84.48Z"/>
      <path class="cls-26" d="M52.42,111.66c-4.86,12.26-25.57-28.88-12.78-28.88,6.76,0,3.76,11.6,1,17.79a40.22,40.22,0,0,0,2.94,5.36c16.88-31.83-13-35.8-13-17.73C30.61,99,40.59,119,50,119c7.79,0,6-7.65,9.57-8.09,3.18-.38,3.34,14.37-20.06,14.39-22.54,0-24-14.66-19.7-14.07,1.64.22,6.76,16.2,18.81,2.2a42.6,42.6,0,0,1-2.94-4.31c-9.44,12.27-8.07-1.89-15.2-2.85-6.05-.81-9.77,5.76-6.11,12.81,7.75,14.91,42.45,15,50.2.18C70.8,107.32,57,100.12,52.42,111.66Z"/>
    </g>
    <g>
      <path class="cls-1" d="M295.88,117.8a24.06,24.06,0,0,1-6.94,5.9c3.37,1.27,10.43,1.27,14,.07A23.47,23.47,0,0,1,295.88,117.8Z"/>
      <path class="cls-1" d="M314.14,108.12c-.11,0-.55,0-.81,0a25.39,25.39,0,0,0,.36,3.07A6.37,6.37,0,0,0,314.14,108.12Z"/>
      <path class="cls-1" d="M279.08,108.11a6.05,6.05,0,0,0-1-.06,6.88,6.88,0,0,0,.64,3.74A19.75,19.75,0,0,0,279.08,108.11Z"/>
      <path class="cls-1" d="M295.9,83.16c-6.22,0-2.48,12.73,0,18.47C298.43,95.87,302.2,83.16,295.9,83.16Z"/>
      <path class="cls-2" d="M313.91,99.7c-9.8-.19-9.25,7.24-8,16.31a19.85,19.85,0,0,1-5.11-5.42c4.3-7.53,6.91-16.1,6.86-22.6-.19-22.78-39-17.6-16.76,22.51a24,24,0,0,1-4.35,4.79c1.5-8.78,1-15.4-8-15.64h-.09c-13,0-10.51,18.39-.21,24,3.71,13,32.16,12.77,35.8-.34C324.8,116.88,326,99.78,313.91,99.7Zm-35.36,1.65c9.5.29,7,9,6.14,15.12-1.79.72-3.56-.79-4.69-2.33,1.18-7,1.3-7.71-1.6-7.8h0c-5.53,0,.75,15.4,7.87,11.23a20.88,20.88,0,0,0,5.61-5.47,45.49,45.49,0,0,0,2.92,4.34C276.62,138.29,262.06,100.91,278.55,101.35Zm-.51,6.7a5.16,5.16,0,0,1,1,.06,19.75,19.75,0,0,1-.4,3.68A6.88,6.88,0,0,1,278,108.05Zm17.84,9.75a23.47,23.47,0,0,0,7,6c-3.53,1.2-10.59,1.2-14-.07A24.06,24.06,0,0,0,295.88,117.8Zm-15.45,6.75a10.1,10.1,0,0,0,6.45,0c3.86,2.42,14.28,2.35,18.21.08a10.31,10.31,0,0,0,6.8-.32C307.67,133.74,284.65,134,280.43,124.55ZM314.52,121C296.23,134.82,272,75.91,296,76.47h0c13.91.05,11.56,18.48,3.85,32.53a53.2,53.2,0,0,1-2.94-5.31c3.7-7.89,7.63-22.24-1-22.22-12.38,0,1,32.73,10.35,36.55,3.17,1.3,6.19-1.13,8-4s3.05-7.53-.35-7.6c-2.6-.08-2.55.38-1.43,7.25-1.06,1.52-2.77,3.12-4.61,3-.57-4.87-4.06-15.2,5.83-15.26h0C322.65,100.53,323.51,114.18,314.52,121ZM295.9,83.16c6.3,0,2.53,12.71,0,18.47C293.42,95.89,289.67,83.16,295.9,83.16Zm17.43,24.94a6.57,6.57,0,0,1,.81,0,6.37,6.37,0,0,1-.45,3A25.39,25.39,0,0,1,313.33,108.1Z"/>
      <g>
        <path class="cls-27" d="M305.09,124.66c-3.94,2.27-14.35,2.34-18.21-.08a10.17,10.17,0,0,1-6.45,0c4.22,9.4,27.24,9.19,31.46-.21A10.31,10.31,0,0,1,305.09,124.66Z"/>
        <path class="cls-27" d="M294.8,116.44a45.49,45.49,0,0,1-2.92-4.34,20.88,20.88,0,0,1-5.61,5.47c-7.13,4.18-13.39-11.23-7.87-11.23h0c2.91.09,2.78.87,1.6,7.8,1.13,1.54,2.9,3,4.69,2.33.86-6,3.47-15-6.24-15.12C262.12,101.06,276.67,138.23,294.8,116.44Z"/>
        <path class="cls-27" d="M313.58,101.42h0c-9.76.06-6.44,10.12-5.83,15.26,1.84.1,3.55-1.5,4.61-3-1.13-6.9-1.15-7.33,1.43-7.25,3.38.07,2.08,4.82.35,7.6s-4.78,5.32-8,4c-9.31-3.82-22.77-36.55-10.27-36.55,8.58,0,4.61,14.44,1,22.22A53.2,53.2,0,0,0,299.8,109c7.83-14.27,9.91-32.48-3.85-32.53h0c-23.93-.56.26,58.35,18.56,44.51C323.5,114.18,322.67,100.53,313.58,101.42Z"/>
      </g>
    </g>
    <g>
      <path class="cls-1" d="M119.34,123.57c-6.74-3.61-7-12.25,1-17-11.89.63-14.35-8.29-10.9-14.37-7.32,10.75-2.33,31.3,14.87,33.1,15.3,1.6,23.64-9.89,17.91-12.94C138.63,125,126.33,127.3,119.34,123.57Z"/>
      <path class="cls-1" d="M136.45,89c2.23-6.63-12.72-10.42-23.77-.54C118.82,83.69,129.47,83.47,136.45,89Z"/>
      <path class="cls-1" d="M116.37,97.69a5.65,5.65,0,0,0,2.75.5A24.91,24.91,0,0,0,130.3,95C124.55,91.36,116,94.06,116.37,97.69Z"/>
      <path class="cls-1" d="M134.57,102.67c0-.17,0-.34,0-.52-.34.2-.7.39-1.06.57Z"/>
      <path class="cls-1" d="M122.75,115.48c2.56,2.71,8.8,1.1,10.95-4.36C127.47,111.61,123.16,114.15,122.75,115.48Z"/>
      <path class="cls-2" d="M143.06,103.68a22.17,22.17,0,0,0-1.3-7.36c7.13-8.74.51-16.62,1.42-15.1-10-16.56-51-3.7-44.86,28.15,3.06,15.75,14.11,24.42,28.42,24.42C152.45,133.79,160.64,109,143.06,103.68Zm-2.48,8c-3.21,11.93-14.47,13.58-20.44,10.39-8.81-4.72-3.27-17.15,14.55-17.7a19.06,19.06,0,0,1-.45,5c-12.15.64-13.22,6.18-13.22,6.18,0,3.71,11.51,5.53,14.59-4.53,7-23-21-22.94-21-13.52,0,3.92,10,2.73,17.08-1.45a8.82,8.82,0,0,1,2.49,4.3c-10.44,6.15-24.57,6.67-24.57-2.85C109.66,80.75,148.65,81.69,140.58,111.68ZM136.45,89c-7-5.5-17.63-5.28-23.77-.54C124.09,78.23,138.63,82.48,136.45,89Zm-16.16,17.56c-7.93,4.79-7.69,13.43-1,17,7,3.73,19.29,1.48,22.83-11.25,5.7,3-2.58,14.55-17.91,12.94-17.14-1.79-22.21-22.31-14.87-33.1C106,98.22,108.37,107.17,120.29,106.53Zm14.24-4.38c0,.18,0,.35,0,.52l-1.1,0C133.83,102.54,134.19,102.35,134.53,102.15Zm-.83,9c-2.23,5.65-8.51,6.94-10.95,4.36C123.16,114.16,127.44,111.61,133.7,111.12ZM130.3,95a24.91,24.91,0,0,1-11.18,3.24,5.65,5.65,0,0,1-2.75-.5C116,94.06,124.55,91.36,130.3,95Zm-3.56,37.14c-13.3,0-23.82-8-26.75-23-6.27-32.28,38.79-43.3,43.15-23.45a10.93,10.93,0,0,1-2.15,9,16.31,16.31,0,0,0-3.19-4.37c7.4-15.93-38.83-12.63-32.9,17.92,2.91,15,13.27,18.24,19.18,18.86,17.52,1.83,26.92-12.38,18.5-16.33a27.7,27.7,0,0,0,.52-5.16C158.05,110.52,150.14,132.09,126.74,132.09Z"/>
      <g>
        <path class="cls-28" d="M134.24,109.38a19.06,19.06,0,0,0,.45-5c-18,.56-23.26,13-14.55,17.7,6,3.18,17.22,1.56,20.44-10.39,8-29.86-30.92-31-30.92-14.17,0,9.53,14.13,9,24.57,2.85a8.82,8.82,0,0,0-2.49-4.3c-7.06,4.19-17.08,5.36-17.08,1.45,0-9.43,28-9.43,21,13.52-3.06,10-14.62,8.31-14.59,4.53C121,112.89,127.14,109.75,134.24,109.38Z"/>
        <path class="cls-28" d="M143.1,105.46a27.7,27.7,0,0,1-.52,5.16c8.47,4-1,18.16-18.5,16.33-5.91-.62-16.27-3.89-19.18-18.86C99,77.51,145.19,74.26,137.8,90.17A16.31,16.31,0,0,1,141,94.54a10.93,10.93,0,0,0,2.15-9C138.8,65.8,93.71,76.69,100,109c2.92,15,13.44,23,26.75,23C150.14,132.09,158.05,110.51,143.1,105.46Z"/>
      </g>
    </g>
    <g>
      <path class="cls-1" d="M227.88,109.56c2.75-2.59,3.3-8.3-.27-12.07a13.62,13.62,0,0,1-3.44,5.93A10.63,10.63,0,0,1,227.88,109.56Z"/>
      <path class="cls-1" d="M216.79,108.44a43.39,43.39,0,0,1-10.9,3.22,82.62,82.62,0,0,0,13.42.88C219.81,111.33,220.06,110.31,216.79,108.44Z"/>
      <path class="cls-1" d="M216.46,99.07c1.95-1.39,3.72-3.63,3-5.44-4.29-.43-11,1.16-16.52,2.32A57.47,57.47,0,0,1,216.46,99.07Z"/>
      <path class="cls-2" d="M224.12,86.07c-9.32-8.19-41.4-8.76-41.51,3.11h0a7.58,7.58,0,0,0,5.21,7.6c-7.5,2.72-7,11.29,1.23,14.19-7.4,1.55-6.35,8.16-6.35,7,0,13,31.19,12.12,41.27,2.37C243.61,116.23,243.32,91.87,224.12,86.07Zm-39.83,16.65,0,0c1-8.39,22.33-5.22,30.33-2.49a32.41,32.41,0,0,1-8.68,2.93c-7.73-1.37-15-.92-16.62.29,2.61,4.87,33,1.48,32-9.45-.76-8.6-29-8.54-32-4.6.13,2.82,8.94.73,14.09-.37l2.07-.44c3.79.24,9.27,1.14,12.4,3.28-7,0-13.49,2.71-25.19,3.91-10.28.18-10.06-8.37-5.21-11.19,8.78-5.09,41.48-4.26,38.67,11.66C223.21,112.86,181.71,115,184.29,102.72Zm35.19-9.09c.73,1.89-1.19,4.13-3,5.44A57.59,57.59,0,0,0,203,96C208.51,94.78,215.19,93.2,219.48,93.63Zm8.4,15.93a10.63,10.63,0,0,0-3.71-6.14,13.62,13.62,0,0,0,3.44-5.93C231.16,101.25,230.64,107,227.88,109.56Zm-8.57,3a84.5,84.5,0,0,1-13.42-.88,43.39,43.39,0,0,0,10.9-3.22C220.06,110.31,219.81,111.33,219.31,112.54ZM200.73,126c-6.48,0-16.37-1.62-16.33-8.08h0c-.06-10.15,20.57-3.38,33.71-3.63-2,2-5.86,3.54-10.23,4.35-5.75-.63-16.77-2.22-18.48-.76,0,.56.95,1.13,1.45,1.39,12,6.16,39.5-3.82,27.72-11.71a24,24,0,0,0,4.36-3C231.35,111.89,224.12,126,200.73,126Zm25.14-7.88a12.06,12.06,0,0,0,2.13-6.47c4.86-3.39,5.34-11.57,0-16.17a10.55,10.55,0,0,0-1.57-6.77C240.44,94.89,240.48,113.58,225.87,118.11Z"/>
      <g>
        <path class="cls-29" d="M226.4,88.7A10.55,10.55,0,0,1,228,95.47c5.36,4.59,4.89,12.78,0,16.17a12.06,12.06,0,0,1-2.13,6.47C240.5,113.57,240.43,94.88,226.4,88.7Z"/>
        <path class="cls-29" d="M222.93,104.59a24,24,0,0,1-4.36,3c11.81,7.91-15.75,17.84-27.72,11.71-.5-.26-1.46-.83-1.45-1.39,1.72-1.47,13,.16,18.48.76,4.37-.81,8.21-2.33,10.23-4.35-13.09.25-33.77-6.5-33.71,3.63h0c0,6.56,10,8.14,16.67,8.08C224.22,125.83,231.31,111.85,222.93,104.59Z"/>
        <path class="cls-29" d="M226.15,96.23C229,79.94,194.7,79.36,186.74,85.06c-4,2.85-3.9,10.87,5.95,10.7,11.65-1.19,18.22-3.89,25.19-3.91-3.13-2.14-8.61-3-12.4-3.28l-2.07.44c-7.57,1.61-14,2.85-14.09.37,3.05-4,32-3.92,32,4.92,0,11-29.51,13.8-32,9.13,1.58-1.21,8.89-1.66,16.62-.29a32.41,32.41,0,0,0,8.68-2.93c-8.68-3-29.34-5.68-30.33,2.49l0,0C181.71,115,223.21,112.87,226.15,96.23Z"/>
      </g>
    </g>
    <g>
      <path class="cls-30" d="M397.6,87.31l-1.05.7h0l1-.7c1.41,2.11.71,3-.14,3.77a12.1,12.1,0,0,1-4.41,2.2c-1.29,1.81-2.67,3.93-4,6,4.95-.71,9.31-2.18,11.82-4.41,3.19-2.83,3.56-6.64,1-10.46l-3,2Z"/>
      <path class="cls-30" d="M382.85,94.69c-.64,0-1.29,0-1.94,0l.95,1.6Z"/>
      <path class="cls-30" d="M361.51,84.49h0c-2.47,3.84-2,7.66,1.28,10.47,2.59,2.22,7,3.67,11.91,4.37-1.22-2.07-2.5-4.15-3.71-6a13.13,13.13,0,0,1-4.85-2.31c-1.09-.94-1.53-1.9-.31-3.78"/>
      <path class="cls-30" d="M365.83,87.27a2.28,2.28,0,0,1,.55-.64c.05,0,1.49.08,5,5l.43.62c.34.49.68,1,1,1.54,1.13,1.74,2.3,3.68,3.48,5.7l.8,1.39.93,1.63c.15-.25.3-.51.45-.74s.3-.5.45-.75l.77-1.28,1.37-2.25c-.58-1-1.15-2-1.7-2.89l-.79-1.3c-4.54-7.41-8.16-11.73-12.07-11.84-1.36,0-3.38.44-5,3"/>
      <path class="cls-30" d="M388.61,108.08c1.22,2.08,2.5,4.18,3.72,6a12.17,12.17,0,0,1,5.29,2.7c.7.72,1.33,1.66,0,3.74l4.3,2.82c2.37-3.62,2.16-7.32-.58-10.14S394,108.86,388.61,108.08Z"/>
      <path class="cls-30" d="M380.86,112.71l1.54,0-.75-1.28Z"/>
      <path class="cls-30" d="M366.75,115.6a16.05,16.05,0,0,1,4.06-1.67c1.28-1.81,2.62-3.88,3.91-5.94a28,28,0,0,0-10.65,3.23c-3.78,2.31-5.23,5.74-4,9.39l2.43-.82L365,119C364.73,118.3,364.32,117.09,366.75,115.6Z"/>
      <path class="cls-30" d="M397.59,120.55h0a2.57,2.57,0,0,1-.49.58c-.09,0-1.53-.16-5-5-.21-.29-.42-.6-.63-.91-.33-.49-.66-1-1-1.53-1.14-1.77-2.31-3.72-3.49-5.76l-.78-1.36c-.26-.44-.51-.88-.76-1.33l-.36.6c-.13.21-.25.4-.37.61-.26.42-.51.83-.75,1.24l-1.57,2.57,1.52,2.58c.27.44.53.89.79,1.31,4.62,7.6,8.27,12,12.21,12.17h.17a5.63,5.63,0,0,0,4.79-2.9L399.74,122Z"/>
      <path class="cls-30" d="M362.52,119.79l-2.43.82h0a11.4,11.4,0,0,0,1.47,2.82,5.33,5.33,0,0,0,4.41,2.48h.17c3.83-.14,7.55-4.46,12.34-11.87.28-.42.56-.86.84-1.31l1.6-2.55.76-1.25.83-1.35.76-1.26.73-1.21.73-1.21.76-1.26,1.06-1.72.86-1.4c1.21-2,2.49-3.94,3.73-5.75.37-.54.74-1.07,1.1-1.57,2.09-2.91,4-5,5.12-5.2a1.58,1.58,0,0,1,.24.3l2.14-1.43,2.14-1.42h0a5.25,5.25,0,0,0-4.45-2.6h-.1c-3.75.08-7.4,4.27-12.08,11.47l-.84,1.3c-.59.93-1.19,1.9-1.82,2.91l-.77,1.25c-.2.34-.41.67-.62,1s-.52.86-.78,1.29-.54.9-.82,1.36l-.82,1.36c-.25.41-.5.83-.77,1.26l-.81,1.34-.86,1.38c-1.18,1.9-2.44,3.87-3.67,5.69-.37.53-.73,1-1.09,1.55-2.27,3.2-4.35,5.62-5.56,5.73a1.6,1.6,0,0,1-.25-.3A6.38,6.38,0,0,1,365,119"/>
    </g>
  </g>
</svg>
