<svg id="Layer_1" data-name="Layer 1" xmlns="http://www.w3.org/2000/svg" viewBox="0 0 48.19 48.19">
  <defs>
    <style>
      .cls-1 {
        fill: #cb599d;
      }

      .cls-2 {
        fill: #1d1d1b;
      }
    </style>
  </defs>
  <title>finish</title>
  <g>
    <rect class="cls-1" x="1.63" y="1.57" width="45.04" height="45.04" rx="22.52"/>
    <g>
      <path class="cls-2" d="M24.31,8.77A15.06,15.06,0,1,0,39.37,23.83,15.07,15.07,0,0,0,24.31,8.77Zm0,29.22A14.16,14.16,0,1,1,38.47,23.83,14.17,14.17,0,0,1,24.31,38Z"/>
      <path class="cls-2" d="M23,28.85l-5.75-5.6a.56.56,0,0,1,.78-.81l5.35,5.23,7.16-7.13a.56.56,0,0,1,.79.8l-7.55,7.51A.54.54,0,0,1,23,28.85Z"/>
    </g>
  </g>
</svg>
