<svg id="Layer_1" data-name="Layer 1" xmlns="http://www.w3.org/2000/svg" viewBox="0 0 48.19 48.19">
  <defs>
    <style>
      .cls-1 {
        fill: #e45354;
      }

      .cls-2 {
        fill: #1d1d1b;
      }
    </style>
  </defs>
  <title>joy</title>
  <g>
    <rect class="cls-1" x="1.63" y="1.57" width="45.04" height="45.04" rx="22.13"/>
    <g>
      <path class="cls-2" d="M37.94,16.61H36.32a2.68,2.68,0,0,0-3.19-1.56,2.64,2.64,0,0,0,1.5,5.06c1.55-.47,2.06-2.09,1.56-2.17a.28.28,0,0,0-.39.23,2,2,0,0,1-3.8,0c0-.07,0-.17-.07-.23.86,0,2,.2,2-.65h4.06C38.4,17.29,38.35,16.61,37.94,16.61Zm-2.34,0H32.16A2,2,0,0,1,35.6,16.57Z"/>
      <path class="cls-2" d="M30.31,26.19l1-1.72a.33.33,0,1,0-.58-.33l-1,1.72a.33.33,0,0,0,.13.46A.38.38,0,0,0,30.31,26.19Z"/>
      <path class="cls-2" d="M30.31,20.86c-2.89-1.68-3.23-2.11-4.06-1.95a1.25,1.25,0,0,0-.3,2.28c4.32,2.52,3,2.14,7,2.14a.33.33,0,0,0,0-.65c-3.84,0-2.53.34-6.66-2.05-.73-.36,0-1.5.58-1,3.93,2.28,2.38,1.88,7,1.88a1.51,1.51,0,0,1,1.46,1.1c.24,1-.22,1.24-2.92,5.91-.67,1.17-2.08.75-7.25.75a.36.36,0,0,0-.29.16c-2.75,4.78-3,5.94-3.8,5.49l-2.79-1.62h0c-.13-.13-.05-.26.06-.26h.88a.33.33,0,1,0,0-.65c-.72,0-1.34-.13-1.62.52C15.73,31.81,9,27.65,8.42,29.44a7.62,7.62,0,0,0,4.64,7.4s8.24,0,8.32,0A2.53,2.53,0,0,0,23,36.26a1.54,1.54,0,0,1,2,0,2.18,2.18,0,0,0,2.92,0,1.53,1.53,0,0,1,2,0c.51.46,1.79.92,1.79.26a.31.31,0,0,0-.32-.33,1.53,1.53,0,0,1-1-.39,2.21,2.21,0,0,0-2.93,0,1.53,1.53,0,0,1-2,0,2.19,2.19,0,0,0-2.89-.06c-.87.71-1.2.45-9.32.45A7,7,0,0,1,9,29.66c0-.07.14-.09.17-.06,3.35,1,4.45,1.79,11.53,5.91,1.44.72,1.7-.48,4.58-5.49,5.94,0,6.86.32,7.69-1.07,2.89-5,3.27-5.19,3-6.43C35.51,20.37,33.22,20.86,30.31,20.86Z"/>
      <path class="cls-2" d="M25.47,16.93l-7.8,13.48V22.88a.33.33,0,1,0-.65,0v8.76a.36.36,0,0,0,.23.33c.46,0,8.54-14.28,8.77-14.68S25.7,16.54,25.47,16.93Z"/>
      <path class="cls-2" d="M25,21.67a8.33,8.33,0,0,1-1.43,1.21.31.31,0,0,0,.16.58c.31,0,1.51-1.14,1.73-1.36A.31.31,0,1,0,25,21.67Z"/>
      <path class="cls-2" d="M17.58,18,28,7.68h2.37c-.06,1.24-.32,1.41-3.54,7a.33.33,0,1,0,.58.32C28.44,13.16,32.36,7,30.7,7a20.58,20.58,0,0,0-3.06.09L17.12,17.58a.33.33,0,0,0,.46.46Z"/>
      <path class="cls-2" d="M20.11,33.11c-.22.37.34.69.58.32,4.08-7.06,1.92-5.75,10-5.75a.33.33,0,1,0,0-.65H24.88C23.29,27,23.06,28,20.11,33.11Z"/>
      <path class="cls-2" d="M15.85,25.9c0-9.39,12.34-12.14,11.27-7.86a.32.32,0,0,0,.62.16c1.31-5.57-12.54-2.55-12.54,7.7A.33.33,0,0,0,15.85,25.9Z"/>
    </g>
  </g>
</svg>
