<?xml version="1.0" encoding="UTF-8"?>
<svg xmlns="http://www.w3.org/2000/svg" id="Layer_1" data-name="Layer 1" viewBox="0 0 525.17 303.37">
  <defs>
    <style>
      .cls-1, .cls-10, .cls-11, .cls-12, .cls-2, .cls-7, .cls-9 {
        fill: none;
        stroke-miterlimit: 10;
      }

      .cls-1 {
        stroke: #93d4ec;
        stroke-linecap: round;
      }

      .cls-1, .cls-11, .cls-12, .cls-2, .cls-7, .cls-9 {
        stroke-width: 5.67px;
      }

      .cls-2 {
        stroke: #fdce7b;
      }

      .cls-3 {
        fill: #fdce7b;
      }

      .cls-4 {
        fill: #98d5ed;
      }

      .cls-5 {
        fill: #ffe8a1;
      }

      .cls-6 {
        fill: #e6e5e5;
      }

      .cls-7 {
        stroke: #ffe8a1;
      }

      .cls-8 {
        fill: #4a4a49;
      }

      .cls-9 {
        stroke: #e6e5e5;
      }

      .cls-10 {
        stroke: #4a4a49;
        stroke-width: 2.83px;
      }

      .cls-11 {
        stroke: #fef2b7;
      }

      .cls-12 {
        stroke: #fcc668;
      }

      .cls-13 {
        fill: #53c2ee;
      }
    </style>
  </defs>
  <title>memo</title>
  <line class="cls-1" x1="213.81" y1="212.23" x2="387.42" y2="212.23"></line>
  <line class="cls-2" x1="221" y1="151.3" x2="387.42" y2="151.3"></line>
  <rect class="cls-3" x="71.83" y="192.83" width="146.97" height="38.51" rx="19.26"></rect>
  <rect class="cls-4" x="240.15" y="192.83" width="102.09" height="38.51" rx="19.26"></rect>
  <rect class="cls-4" x="369.1" y="192.83" width="142.67" height="38.51" rx="19.26"></rect>
  <rect class="cls-4" x="71.83" y="132.55" width="153.11" height="38.51" rx="19.26"></rect>
  <rect class="cls-5" x="71.83" y="72.27" width="110.31" height="38.51" rx="19.26"></rect>
  <rect class="cls-5" x="193.51" y="72.27" width="140.03" height="38.51" rx="19.26"></rect>
  <rect class="cls-5" x="348.56" y="72.27" width="163.21" height="38.51" rx="19.26"></rect>
  <rect class="cls-6" x="71.83" y="13.59" width="440.37" height="38.51"></rect>
  <line class="cls-7" x1="172.8" y1="91.52" x2="360.86" y2="91.52"></line>
  <rect class="cls-3" x="381.09" y="132.55" width="131.12" height="38.51" rx="19.26"></rect>
  <rect class="cls-3" x="254.93" y="132.55" width="89.57" height="38.51" rx="19.26"></rect>
  <rect class="cls-6" x="71.83" y="252.65" width="440.37" height="38.51"></rect>
  <g>
    <path class="cls-8" d="M207.09,100.58h-2.88V83.78h9.6v16.8h-2.88V86.66h-3.84Z"></path>
    <path class="cls-8" d="M216,92.18a8.77,8.77,0,1,1,2.57,6.19A8.42,8.42,0,0,1,216,92.18Zm2.88,0A5.91,5.91,0,1,0,220.58,88,5.63,5.63,0,0,0,218.85,92.18Z"></path>
    <path class="cls-8" d="M238.53,89.78H239a5.6,5.6,0,0,1,4,1.54,5.07,5.07,0,0,1,1.63,3.86A5.16,5.16,0,0,1,243,99.07a5.67,5.67,0,0,1-4,1.51h-3.36V83.78h8.28v2.88h-5.4Zm0,2.88v5H239a2.53,2.53,0,1,0,0-5Z"></path>
    <path class="cls-8" d="M254.73,83.78v2.88h-5v4.08h4.8v2.88h-4.8V97.7h5v2.88h-7.92V83.78Z"></path>
    <path class="cls-8" d="M259.05,104.66h-2.88v-7h.36c1.65,0,2.16-1.27,2.16-4.8V83.78h8.16V97.7h2v7H266v-4.08h-7Zm2.52-11.76c0,.89,0,1.54-.05,2a5.51,5.51,0,0,1-.84,2.83H264v-11h-2.4Z"></path>
    <path class="cls-8" d="M280.05,100.58h-2.88V91l-3.72,9.6h-2.88V83.78h2.88v9.6l3.72-9.6h2.88Z"></path>
    <path class="cls-8" d="M282,86.66V83.78h9.6v2.88h-3.36v13.92h-2.88V86.66Z"></path>
    <path class="cls-8" d="M301.41,83.78v2.88h-5v4.08h4.8v2.88h-4.8V97.7h5v2.88h-7.92V83.78Z"></path>
    <path class="cls-8" d="M303.09,97.82a1.59,1.59,0,0,0,.48.07c.77,0,1.27-.52,1.49-1.56a26.44,26.44,0,0,0,.36-5.23V83.78h8.16v16.8H310.7v-14h-2.52v4.68a21.06,21.06,0,0,1-.89,7.2,3.15,3.15,0,0,1-3.15,2.26,5.13,5.13,0,0,1-1.05-.1Z"></path>
    <path class="cls-8" d="M318.86,89.78h.48a5.58,5.58,0,0,1,4,1.54A5.07,5.07,0,0,1,325,95.18a5.17,5.17,0,0,1-1.64,3.89,5.64,5.64,0,0,1-4,1.51H316V83.78h2.88Zm0,2.88v5h.48a2.53,2.53,0,1,0,0-5Z"></path>
  </g>
  <g>
    <path class="cls-8" d="M272.62,160.58h-2.88v-16.8h7.92v2.88h-5Z"></path>
    <path class="cls-8" d="M287.5,143.78v2.88h-5v4.08h4.8v2.88h-4.8v4.08h5v2.88h-7.92v-16.8Z"></path>
    <path class="cls-8" d="M292.78,154.58v6H289.9v-16.8h3.36a5.55,5.55,0,0,1,4,1.54,5.05,5.05,0,0,1,1.63,3.86,5.16,5.16,0,0,1-1.63,3.89,5.65,5.65,0,0,1-4,1.51Zm0-7.92v5h.48a2.53,2.53,0,1,0,0-5Z"></path>
    <path class="cls-8" d="M300.58,152.18a8.77,8.77,0,1,1,2.57,6.19A8.46,8.46,0,0,1,300.58,152.18Zm2.88,0a5.91,5.91,0,1,0,1.73-4.15A5.67,5.67,0,0,0,303.46,152.18Z"></path>
    <path class="cls-8" d="M326.86,151l-3.72,9.6h-2.88v-16.8h2.88v9.6l3.72-9.6h2.88v16.8h-2.88Zm-3.17-12a1.21,1.21,0,1,0,2.4,0H329a3.47,3.47,0,0,1-1.17,2.67,4.19,4.19,0,0,1-2.91,1,4.27,4.27,0,0,1-2.92-1,3.53,3.53,0,0,1-1.16-2.67Z"></path>
  </g>
  <g>
    <path class="cls-8" d="M254,220.58h-3.17l4.49-8.37-4.51-8.43H254l3.89,7.11v-7.11h2.88v7.11l3.89-7.11h3.17l-4.51,8.43,4.51,8.37h-3.19l-3.87-7.08v7.08h-2.88V213.5Z"></path>
    <path class="cls-8" d="M277.64,203.78v2.88h-5v4.08h4.8v2.88h-4.8v4.08h5v2.88h-7.92v-16.8Z"></path>
    <path class="cls-8" d="M282.92,214.58v6H280v-16.8h3.36a5.56,5.56,0,0,1,4,1.54,5.05,5.05,0,0,1,1.63,3.86,5.16,5.16,0,0,1-1.63,3.89,5.67,5.67,0,0,1-4,1.51Zm0-7.92v5h.48a2.53,2.53,0,1,0,0-5Z"></path>
    <path class="cls-8" d="M290,206.66v-2.88h9.6v2.88h-3.36v13.92h-2.88V206.66Z"></path>
    <path class="cls-8" d="M308.36,211.94a4.59,4.59,0,0,1,2,3.94,4.33,4.33,0,0,1-1.47,3.38,5.09,5.09,0,0,1-3.57,1.32h-3.84v-16.8h3.84a4.85,4.85,0,0,1,3.41,1.27,4.16,4.16,0,0,1,1.39,3.24A4.35,4.35,0,0,1,308.36,211.94Zm-4-1.41h1a1.92,1.92,0,0,0,1.92-1.95,1.9,1.9,0,0,0-1.92-1.92h-1Zm0,2.88v4.29h1a2.13,2.13,0,0,0,2.16-2.13,2.2,2.2,0,0,0-2.09-2.16Z"></path>
    <path class="cls-8" d="M314.12,220.58h-3.24l8.37-16.8h3.24l8.41,16.8h-3.22l-1.82-3.6h-9.94Zm6.77-13.53-3.53,7h7.06Z"></path>
  </g>
  <g>
    <g>
      <path class="cls-8" d="M99.9,86.57l-2,2a6.16,6.16,0,0,0-4.75-2.23,5.88,5.88,0,1,0,0,11.76,6.12,6.12,0,0,0,4.75-2.23l2,2a8.5,8.5,0,0,1-6.72,3.14,8.35,8.35,0,0,1-6.26-2.54,9,9,0,0,1,0-12.43,8.32,8.32,0,0,1,6.26-2.55A8.48,8.48,0,0,1,99.9,86.57Z"></path>
      <path class="cls-8" d="M101.58,86.66V83.78h9.6v2.88h-3.36v13.92h-2.88V86.66Z"></path>
      <path class="cls-8" d="M116,94.58v6H113.1V83.78h3.36a5.55,5.55,0,0,1,4,1.54,5.05,5.05,0,0,1,1.63,3.86,5.16,5.16,0,0,1-1.63,3.89,5.65,5.65,0,0,1-4,1.51Zm0-7.92v5h.48a2.53,2.53,0,1,0,0-5Z"></path>
      <path class="cls-8" d="M123.18,100.58h-3.24l8.38-16.8h3.24l8.4,16.8h-3.22L134.92,97H125ZM130,87.05l-3.53,7h7.06Z"></path>
      <path class="cls-8" d="M138.76,86.66V83.78h9.6v2.88H145v13.92h-2.88V86.66Z"></path>
      <path class="cls-8" d="M158.2,83.78v2.88h-5v4.08H158v2.88h-4.8V97.7h5v2.88h-7.92V83.78Z"></path>
      <path class="cls-8" d="M163.48,100.58H160.6V83.78h7.92v2.88h-5Z"></path>
    </g>
    <path class="cls-8" d="M99.49,206.57l-2,2a6.18,6.18,0,0,0-4.76-2.23A5.67,5.67,0,0,0,88.54,208a6.08,6.08,0,0,0,0,8.35,5.66,5.66,0,0,0,4.22,1.7,6.14,6.14,0,0,0,4.76-2.23l2,2a8.54,8.54,0,0,1-6.73,3.14,8.37,8.37,0,0,1-6.26-2.54,9,9,0,0,1,0-12.43,8.34,8.34,0,0,1,6.26-2.55A8.52,8.52,0,0,1,99.49,206.57Z"></path>
    <path class="cls-8" d="M104.52,220.58h-2.88v-16.8h9.6v16.8h-2.88V206.66h-3.84Z"></path>
    <path class="cls-8" d="M115.92,220.58h-3.24l8.38-16.8h3.24l8.4,16.8h-3.21l-1.83-3.6h-9.94Zm6.77-13.53-3.53,7h7.06Z"></path>
    <path class="cls-8" d="M147.94,206.57l-2,2a6.16,6.16,0,0,0-4.75-2.23,5.88,5.88,0,1,0,0,11.76,6.12,6.12,0,0,0,4.75-2.23l2,2a8.5,8.5,0,0,1-6.72,3.14A8.35,8.35,0,0,1,135,218.4,9,9,0,0,1,135,206a8.32,8.32,0,0,1,6.26-2.55A8.48,8.48,0,0,1,147.94,206.57Z"></path>
    <path class="cls-8" d="M162.18,206.66v-2.88h9.6v2.88h-3.36v13.92h-2.88V206.66Z"></path>
    <path class="cls-8" d="M181.62,203.78v2.88h-5v4.08h4.8v2.88h-4.8v4.08h5v2.88H173.7v-16.8Z"></path>
    <path class="cls-8" d="M183.3,217.82a1.55,1.55,0,0,0,.48.07c.76,0,1.27-.52,1.48-1.56a26.44,26.44,0,0,0,.36-5.23v-7.32h8.16v16.8H190.9v-14h-2.52v4.68a21.11,21.11,0,0,1-.88,7.2,3.16,3.16,0,0,1-3.15,2.26,5.13,5.13,0,0,1-1-.1Z"></path>
    <path class="cls-8" d="M199.06,209.78h.48a5.59,5.59,0,0,1,4,1.54,5.07,5.07,0,0,1,1.63,3.86,5.16,5.16,0,0,1-1.63,3.89,5.65,5.65,0,0,1-4,1.51h-3.36v-16.8h2.88Zm0,2.88v5h.48a2.53,2.53,0,1,0,0-5Z"></path>
    <g>
      <path class="cls-8" d="M87.13,161.08h-2.8V144.74h2.78l6.56,6.79,6.56-6.79H103v16.34h-2.8V148.69l-6.54,6.77-6.54-6.77Z"></path>
      <path class="cls-8" d="M105.11,152.91a8.54,8.54,0,1,1,2.5,6A8.18,8.18,0,0,1,105.11,152.91Zm2.8,0a5.74,5.74,0,1,0,1.68-4A5.51,5.51,0,0,0,107.91,152.91Z"></path>
      <path class="cls-8" d="M122.62,147.54v-2.8H132v2.8h-3.27v13.54h-2.8V147.54Z"></path>
      <path class="cls-8" d="M143.05,161.08h-2.8v-9.34l-3.62,9.34h-2.8V144.74h2.8v9.34l3.62-9.34h2.8Z"></path>
      <path class="cls-8" d="M152,152.68a4.46,4.46,0,0,1,2,3.83,4.23,4.23,0,0,1-1.43,3.29,5,5,0,0,1-3.48,1.28h-3.73V144.74h3.73a4.69,4.69,0,0,1,3.32,1.24,4,4,0,0,1,1.35,3.15A4.24,4.24,0,0,1,152,152.68Zm-3.85-1.38h.93a1.88,1.88,0,0,0,0-3.76h-.93Zm0,2.8v4.18h.93a2.07,2.07,0,0,0,2.11-2.08,2.14,2.14,0,0,0-2-2.1Z"></path>
      <path class="cls-8" d="M157.65,161.08H154.5l8.14-16.34h3.16L174,161.08h-3.13l-1.78-3.5H159.4Zm6.58-13.17-3.43,6.87h6.86Z"></path>
      <path class="cls-8" d="M172.8,147.54v-2.8h9.34v2.8h-3.27v13.54h-2.8V147.54Z"></path>
      <path class="cls-8" d="M182.84,152.91a8.54,8.54,0,1,1,2.5,6A8.18,8.18,0,0,1,182.84,152.91Zm2.8,0a5.74,5.74,0,1,0,1.68-4A5.51,5.51,0,0,0,185.64,152.91Z"></path>
      <path class="cls-8" d="M204.79,155.24v5.84H202V144.74h3.27a5.45,5.45,0,0,1,3.9,1.49,4.94,4.94,0,0,1,1.58,3.76,5,5,0,0,1-1.58,3.78,5.52,5.52,0,0,1-3.9,1.47Zm0-7.7v4.9h.47a2.46,2.46,0,1,0,0-4.9Z"></path>
    </g>
    <path class="cls-8" d="M159.67,220.08h-2.8v-9.34l-3.62,9.34h-2.8V203.74h2.8v9.34l3.62-9.34h2.8Z"></path>
  </g>
  <g>
    <path class="cls-8" d="M373.46,86.57l-2,2a6.16,6.16,0,0,0-4.75-2.23,5.74,5.74,0,0,0-5.88,5.88,5.76,5.76,0,0,0,1.65,4.18,5.68,5.68,0,0,0,4.23,1.7,6.12,6.12,0,0,0,4.75-2.23l2,2a8.5,8.5,0,0,1-6.72,3.14,8.39,8.39,0,0,1-6.27-2.54,9,9,0,0,1,0-12.43,8.36,8.36,0,0,1,6.27-2.55A8.48,8.48,0,0,1,373.46,86.57Z"></path>
    <path class="cls-8" d="M374.66,92.18a8.77,8.77,0,1,1,2.57,6.19A8.42,8.42,0,0,1,374.66,92.18Zm2.88,0A5.91,5.91,0,1,0,379.27,88,5.63,5.63,0,0,0,377.54,92.18Z"></path>
    <path class="cls-8" d="M396.74,95v.72a2.34,2.34,0,1,0,2.09-2.35h-1.2V90.5h1.2c1.56,0,2.35-.84,2.35-2.09a2,2,0,0,0-2.11-2.11A2.05,2.05,0,0,0,397,88.41v.48H394.1v-.48a4.69,4.69,0,0,1,5-5,4.9,4.9,0,0,1,3.6,1.37,4.62,4.62,0,0,1,1.39,3.5,4.24,4.24,0,0,1-1.92,3.6,4.43,4.43,0,0,1,2.16,4,4.82,4.82,0,0,1-1.47,3.68,5.21,5.21,0,0,1-9-3.8V95Z"></path>
    <path class="cls-8" d="M414.38,83.78v2.88h-5v4.08h4.8v2.88h-4.8V97.7h5v2.88h-7.92V83.78Z"></path>
    <path class="cls-8" d="M419.66,94.58v6h-2.88V83.78h3.36a5.56,5.56,0,0,1,4,1.54,5.05,5.05,0,0,1,1.63,3.86,5.16,5.16,0,0,1-1.63,3.89,5.67,5.67,0,0,1-4,1.51Zm0-7.92v5h.48a2.53,2.53,0,1,0,0-5Z"></path>
    <path class="cls-8" d="M436.46,100.58h-8.52V83.78h2.88V97.7h3.6V83.78h2.88V97.7h2v7h-2.88Z"></path>
    <path class="cls-8" d="M443.3,100.58h-3.24l8.37-16.8h3.24l8.41,16.8h-3.22L455,97H445.1Zm6.77-13.53-3.53,7h7Z"></path>
    <path class="cls-8" d="M458.87,86.66V83.78h9.6v2.88h-3.36v13.92h-2.88V86.66Z"></path>
    <path class="cls-8" d="M478.31,83.78v2.88h-5v4.08h4.8v2.88h-4.8V97.7h5v2.88h-7.92V83.78Z"></path>
    <path class="cls-8" d="M480,97.82a1.59,1.59,0,0,0,.48.07c.77,0,1.28-.52,1.49-1.56a26.44,26.44,0,0,0,.36-5.23V83.78h8.16v16.8H487.6v-14h-2.52v4.68a21.06,21.06,0,0,1-.89,7.2,3.14,3.14,0,0,1-3.14,2.26,5.29,5.29,0,0,1-1.06-.1Z"></path>
    <path class="cls-8" d="M495.76,89.78h.48a5.59,5.59,0,0,1,4,1.54,5.07,5.07,0,0,1,1.63,3.86,5.16,5.16,0,0,1-1.63,3.89,5.65,5.65,0,0,1-4,1.51h-3.36V83.78h2.88Zm0,2.88v5h.48a2.53,2.53,0,1,0,0-5Z"></path>
    <path class="cls-8" d="M398.39,143.78h2.88v2a6.61,6.61,0,0,1,4.06,2.09,6.7,6.7,0,0,1,0,8.67,6.48,6.48,0,0,1-4,2.06v2h-2.88v-2a6.58,6.58,0,0,1-4.05-2.06,6.26,6.26,0,0,1-1.59-4.35,6.13,6.13,0,0,1,1.59-4.32,6.59,6.59,0,0,1,4.05-2.09Zm0,11.91v-7a3.59,3.59,0,0,0,0,7Zm2.88-7v7a3.59,3.59,0,0,0,0-7Z"></path>
    <path class="cls-8" d="M418.31,160.58h-2.88V151l-3.72,9.6h-2.88v-16.8h2.88v9.6l3.72-9.6h2.88Z"></path>
    <path class="cls-8" d="M420,157.82a1.59,1.59,0,0,0,.48.07c.77,0,1.28-.52,1.49-1.56a26.44,26.44,0,0,0,.36-5.23v-7.32h8.16v16.8H427.6v-14h-2.52v4.68a21.06,21.06,0,0,1-.89,7.2,3.14,3.14,0,0,1-3.14,2.26,5.29,5.29,0,0,1-1.06-.1Z"></path>
    <path class="cls-8" d="M432.64,152.18a8.77,8.77,0,1,1,2.57,6.19A8.46,8.46,0,0,1,432.64,152.18Zm2.88,0a5.91,5.91,0,1,0,1.73-4.15A5.67,5.67,0,0,0,435.52,152.18Z"></path>
    <path class="cls-8" d="M467.56,146.57l-2,2a6.16,6.16,0,0,0-4.75-2.23,5.88,5.88,0,1,0,0,11.76,6.12,6.12,0,0,0,4.75-2.23l2,2a8.5,8.5,0,0,1-6.72,3.14,8.35,8.35,0,0,1-6.26-2.54,9,9,0,0,1,0-12.43,8.32,8.32,0,0,1,6.26-2.55A8.48,8.48,0,0,1,467.56,146.57Z"></path>
    <path class="cls-8" d="M468.76,152.18a8.77,8.77,0,1,1,2.57,6.19A8.42,8.42,0,0,1,468.76,152.18Zm2.88,0a5.91,5.91,0,1,0,1.73-4.15A5.67,5.67,0,0,0,471.64,152.18Z"></path>
    <path class="cls-8" d="M493.6,143.78h2.88v2a6.61,6.61,0,0,1,4.06,2.09,6.69,6.69,0,0,1,0,8.67,6.46,6.46,0,0,1-4,2.06v2H493.6v-2a6.61,6.61,0,0,1-4.06-2.06,6.29,6.29,0,0,1-1.58-4.35,6.17,6.17,0,0,1,1.58-4.32,6.61,6.61,0,0,1,4.06-2.09Zm0,11.91v-7a3.59,3.59,0,0,0,0,7Zm2.88-7v7a3.59,3.59,0,0,0,0-7Z"></path>
    <path class="cls-8" d="M381.09,203.78H384V211l4.06-7.18h3.28l-4.72,8.4,4.72,8.4H388L384,213.43v7.15h-2.88Z"></path>
    <path class="cls-8" d="M391.31,212.18a8.77,8.77,0,1,1,2.57,6.19A8.46,8.46,0,0,1,391.31,212.18Zm2.88,0a5.91,5.91,0,1,0,1.73-4.15A5.67,5.67,0,0,0,394.19,212.18Z"></path>
    <path class="cls-8" d="M427.55,220.58h-2.88v-7h-10.8v7H411v-16.8h2.88v7h10.8v-7h2.88Z"></path>
    <path class="cls-8" d="M429.47,206.66v-2.88h9.6v2.88h-3.36v13.92h-2.88V206.66Z"></path>
    <path class="cls-8" d="M443.87,214.58v6H441v-16.8h3.36a5.55,5.55,0,0,1,4,1.54,5.05,5.05,0,0,1,1.63,3.86,5.16,5.16,0,0,1-1.63,3.89,5.65,5.65,0,0,1-4,1.51Zm0-7.92v5h.48a2.53,2.53,0,1,0,0-5Z"></path>
    <path class="cls-8" d="M451.67,212.18a8.77,8.77,0,1,1,2.57,6.19A8.46,8.46,0,0,1,451.67,212.18Zm2.88,0a5.91,5.91,0,1,0,1.73-4.15A5.67,5.67,0,0,0,454.55,212.18Z"></path>
    <path class="cls-8" d="M469.67,217.82a1.59,1.59,0,0,0,.48.07c.77,0,1.27-.52,1.49-1.56a26.44,26.44,0,0,0,.36-5.23v-7.32h8.16v16.8h-2.88v-14h-2.52v4.68a21.06,21.06,0,0,1-.89,7.2,3.14,3.14,0,0,1-3.14,2.26,5.29,5.29,0,0,1-1.06-.1Z"></path>
    <path class="cls-8" d="M490.48,203.78v2.88h-5v4.08h4.8v2.88h-4.8v4.08h5v2.88h-7.92v-16.8Zm-4.68-1.68h-2.88v-3h2.88Zm4.32,0h-2.88v-3h2.88Z"></path>
    <path class="cls-8" d="M495.76,214.58v6h-2.88v-16.8h3.36a5.55,5.55,0,0,1,4,1.54,5.05,5.05,0,0,1,1.63,3.86,5.16,5.16,0,0,1-1.63,3.89,5.65,5.65,0,0,1-4,1.51Zm0-7.92v5h.48a2.53,2.53,0,1,0,0-5Z"></path>
  </g>
  <g>
    <g>
      <path class="cls-8" d="M244.08,284.39H241.2v-7h.36c1.66,0,2.16-1.27,2.16-4.8V263.5h8.16v13.92h2v7H251v-4.08h-7Zm2.52-11.77c0,.89,0,1.54,0,2a5.42,5.42,0,0,1-.84,2.83H249v-11h-2.4Z"></path>
      <path class="cls-8" d="M263.52,263.5v2.88h-5v4.08h4.8v2.88h-4.8v4.08h5v2.89H255.6V263.5Z"></path>
      <path class="cls-8" d="M268.61,280.31H265l5.09-6.53a5.25,5.25,0,0,1-3.12-4.88,5.07,5.07,0,0,1,1.63-3.86,5.6,5.6,0,0,1,4-1.54h3.36v16.81h-2.88v-5.72Zm4.44-8.89v-5h-.48a2.53,2.53,0,1,0,0,5Z"></path>
      <path class="cls-8" d="M277.85,266.38V263.5h9.6v2.88h-3.36v13.93h-2.88V266.38Z"></path>
      <path class="cls-8" d="M297.29,263.5v2.88h-5v4.08h4.8v2.88h-4.8v4.08h5v2.89h-7.92V263.5Z"></path>
      <path class="cls-8" d="M299,277.54a1.61,1.61,0,0,0,.48.08c.77,0,1.27-.53,1.49-1.56a26.63,26.63,0,0,0,.36-5.24V263.5h8.16v16.81h-2.88V266.26h-2.52v4.68a21.16,21.16,0,0,1-.89,7.21A3.15,3.15,0,0,1,300,280.4a5.13,5.13,0,0,1-1-.09Z"></path>
      <path class="cls-8" d="M314.74,269.5h.48a5.58,5.58,0,0,1,4,1.54,5.08,5.08,0,0,1,1.64,3.87,5.16,5.16,0,0,1-1.64,3.88,5.65,5.65,0,0,1-4,1.52h-3.36V263.5h2.88Zm0,2.88v5h.48a2.53,2.53,0,1,0,0-5Z"></path>
    </g>
    <g>
      <path class="cls-8" d="M93.9,280.31H91V270.7l-3.72,9.61H84.42V263.5H87.3v9.6L91,263.5H93.9Z"></path>
      <path class="cls-8" d="M99.18,280.31H96.3V263.5h2.86l6.74,7,6.75-7h2.85v16.81h-2.88V267.56l-6.72,7-6.72-7Z"></path>
      <path class="cls-8" d="M120.78,280.31H117.9V263.5h9.6v16.81h-2.88V266.38h-3.84Z"></path>
      <path class="cls-8" d="M132.11,275.38H135v.84a1.55,1.55,0,0,0,1.56,1.57,1.4,1.4,0,0,0,1.18-.77l.67-1.11-9.22-12.41h3.58l7.25,9.77,5.9-9.77h3.34l-9.1,15.05a4,4,0,0,1-3.6,2.11,4.25,4.25,0,0,1-3.17-1.29,4.38,4.38,0,0,1-1.27-3.15Z"></path>
      <path class="cls-8" d="M148.76,277.54a1.67,1.67,0,0,0,.49.08c.76,0,1.27-.53,1.48-1.56a26.63,26.63,0,0,0,.36-5.24V263.5h8.16v16.81h-2.88V266.26h-2.52v4.68a20.91,20.91,0,0,1-.89,7.21,3.13,3.13,0,0,1-3.14,2.25,5.29,5.29,0,0,1-1.06-.09Z"></path>
      <path class="cls-8" d="M164.53,269.5H165a5.59,5.59,0,0,1,4,1.54,5.07,5.07,0,0,1,1.63,3.87,5.16,5.16,0,0,1-1.63,3.88,5.66,5.66,0,0,1-4,1.52h-3.36V263.5h2.88Zm0,2.88v5H165a2.53,2.53,0,1,0,0-5Z"></path>
      <path class="cls-8" d="M188.05,266.29l-2,2a6.15,6.15,0,0,0-4.76-2.24,5.67,5.67,0,0,0-4.22,1.71,6.08,6.08,0,0,0,0,8.35,5.67,5.67,0,0,0,4.22,1.71,6.15,6.15,0,0,0,4.76-2.24l2,2a8.47,8.47,0,0,1-6.72,3.14,8.31,8.31,0,0,1-6.26-2.54,9,9,0,0,1,0-12.43,8.32,8.32,0,0,1,6.26-2.55A8.48,8.48,0,0,1,188.05,266.29Z"></path>
    </g>
    <path class="cls-8" d="M409.36,271.9a8.76,8.76,0,1,1,2.57,6.2A8.47,8.47,0,0,1,409.36,271.9Zm2.88,0a5.91,5.91,0,1,0,1.73-4.15A5.7,5.7,0,0,0,412.24,271.9Z"></path>
    <path class="cls-8" d="M437.56,280.31H429V263.5h2.88v13.92h3.6V263.5h2.88v13.92h2v7h-2.88Z"></path>
    <path class="cls-8" d="M450,263.5v2.88h-5v4.08h4.8v2.88H445v4.08h5v2.89h-7.92V263.5Z"></path>
    <path class="cls-8" d="M469,280.31h-2.88v-7h-10.8v7h-2.88V263.5h2.88v7h10.8v-7H469Z"></path>
    <path class="cls-8" d="M471.4,263.5h2.88v7.18l4.06-7.18h3.29l-4.73,8.4,4.73,8.41h-3.29l-4.06-7.16v7.16H471.4Z"></path>
    <path class="cls-8" d="M485.83,280.31h-3.24L491,263.5h3.24l8.4,16.81h-3.21l-1.83-3.6h-9.93Zm6.76-13.54-3.52,7.06h7.05Z"></path>
  </g>
  <g>
    <path class="cls-8" d="M221.35,38a2.06,2.06,0,0,0,.48.07c.77,0,1.28-.52,1.49-1.53a25.47,25.47,0,0,0,.36-5.13V24.25h8.16V40.71H229V27h-2.52v4.58a20.33,20.33,0,0,1-.89,7.06,3.13,3.13,0,0,1-3.14,2.21,5.29,5.29,0,0,1-1.06-.1Z"></path>
    <path class="cls-8" d="M243.72,40.71h-2.88v-9.4l-3.72,9.4h-2.88V24.25h2.88v9.41l3.72-9.41h2.88Z"></path>
    <path class="cls-8" d="M255,40.71h-2.88v-6a3.7,3.7,0,0,1-2.4.78c-2.52,0-3.84-1.84-3.84-4.47V24.25h2.88v6.59a1.69,1.69,0,1,0,3.36.07V24.25H255Z"></path>
    <path class="cls-8" d="M274,40.71h-2.88V33.89h-10.8v6.82H257.4V24.25h2.88v6.82h10.8V24.25H274Z"></path>
    <path class="cls-8" d="M276.12,32.48a8.2,8.2,0,0,1,2.57-6.06,8.87,8.87,0,0,1,12.39,0,8.46,8.46,0,0,1,0,12.13,8.9,8.9,0,0,1-12.39,0A8.21,8.21,0,0,1,276.12,32.48Zm2.88,0a5.51,5.51,0,0,0,1.73,4.07,5.94,5.94,0,0,0,8.3,0,5.64,5.64,0,0,0,0-8.13,5.92,5.92,0,0,0-8.3,0A5.49,5.49,0,0,0,279,32.48Z"></path>
    <path class="cls-8" d="M311,27l-2,1.93a6.18,6.18,0,0,0-4.75-2.19,5.75,5.75,0,0,0-4.22,1.67,5.87,5.87,0,0,0,0,8.18,5.71,5.71,0,0,0,4.22,1.67,6.2,6.2,0,0,0,4.75-2.18L311,38a8.54,8.54,0,0,1-6.72,3.08,8.42,8.42,0,0,1-6.26-2.49,8.67,8.67,0,0,1,0-12.18,8.42,8.42,0,0,1,6.26-2.49A8.58,8.58,0,0,1,311,27Z"></path>
    <path class="cls-8" d="M312.72,27.07V24.25h9.6v2.82H319V40.71h-2.88V27.07Z"></path>
    <path class="cls-8" d="M327.12,30.13h.48a5.65,5.65,0,0,1,4,1.51,4.9,4.9,0,0,1,1.63,3.78,5,5,0,0,1-1.63,3.81,5.71,5.71,0,0,1-4,1.48h-3.36V24.25h2.88Zm0,2.82v4.94h.48a2.49,2.49,0,1,0,0-4.94Z"></path>
  </g>
  <g>
    <path class="cls-8" d="M84.65,36.14h2.88V37a1.54,1.54,0,0,0,1.56,1.56,1.38,1.38,0,0,0,1.18-.76l.67-1.11L81.72,24.26H85.3L92.55,34l5.9-9.77h3.34l-9.1,15.05a4,4,0,0,1-3.6,2.11,4.25,4.25,0,0,1-3.17-1.29A4.38,4.38,0,0,1,84.65,37Z"></path>
    <path class="cls-8" d="M106.35,41.06h-2.88V24.26h2.85l6.75,7,6.74-7h2.86v16.8h-2.88V28.32l-6.72,7-6.72-7Z"></path>
  </g>
  <g>
    <path class="cls-8" d="M425.08,35.06v6H422.2V24.26h3.36a5.59,5.59,0,0,1,4,1.54,5.07,5.07,0,0,1,1.63,3.86,5.16,5.16,0,0,1-1.63,3.89,5.65,5.65,0,0,1-4,1.51Zm0-7.92v5h.48a2.53,2.53,0,1,0,0-5Z"></path>
    <path class="cls-8" d="M432.28,41.06H429l8.38-16.8h3.24l8.4,16.8h-3.22L444,37.46h-9.94Zm6.77-13.53-3.53,7h7.06Z"></path>
    <path class="cls-8" d="M452.42,35.49v.72a2.34,2.34,0,1,0,2.09-2.35H453.3V31h1.21c1.56,0,2.35-.84,2.35-2.09a2,2,0,0,0-2.11-2.11,2.05,2.05,0,0,0-2.09,2.11v.48h-2.88v-.48a4.69,4.69,0,0,1,5-5,4.9,4.9,0,0,1,3.6,1.37,4.62,4.62,0,0,1,1.39,3.5,4.24,4.24,0,0,1-1.92,3.6,4.43,4.43,0,0,1,2.16,4A4.82,4.82,0,0,1,458.51,40a5.21,5.21,0,0,1-9-3.8v-.72Z"></path>
    <path class="cls-8" d="M463.63,36.14h2.88V37a1.54,1.54,0,0,0,1.56,1.56,1.36,1.36,0,0,0,1.17-.76l.67-1.11L460.7,24.26h3.57L471.52,34l5.91-9.77h3.33l-9.09,15.05a4,4,0,0,1-3.6,2.11,4.24,4.24,0,0,1-3.17-1.29A4.38,4.38,0,0,1,463.63,37Z"></path>
    <path class="cls-8" d="M485.32,41.06h-2.88V24.26h2.86l6.74,7,6.75-7h2.85v16.8h-2.88V28.32l-6.72,7-6.72-7Z"></path>
  </g>
  <line class="cls-9" x1="21.22" y1="271.06" x2="49.3" y2="271.06"></line>
  <circle class="cls-6" cx="35.34" cy="271.17" r="6.44"></circle>
  <circle class="cls-10" cx="35.34" cy="271.06" r="3.6"></circle>
  <circle class="cls-6" cx="49.3" cy="271.17" r="6.44"></circle>
  <circle class="cls-10" cx="49.3" cy="271.06" r="3.6"></circle>
  <circle class="cls-6" cx="21.22" cy="271.17" r="6.44"></circle>
  <circle class="cls-10" cx="21.22" cy="271.06" r="3.6"></circle>
  <g>
    <polygon class="cls-11" points="19.57 106.72 51.96 106.72 35.77 78.51 19.57 106.72"></polygon>
    <g>
      <circle class="cls-5" cx="19.57" cy="106.82" r="5.67"></circle>
      <g>
        <line class="cls-10" x1="23.09" y1="106.82" x2="16.06" y2="106.82"></line>
        <line class="cls-10" x1="19.57" y1="110.33" x2="19.57" y2="103.3"></line>
      </g>
    </g>
    <g>
      <circle class="cls-5" cx="35.77" cy="78.51" r="5.67"></circle>
      <g>
        <line class="cls-10" x1="39.28" y1="78.51" x2="32.25" y2="78.51"></line>
        <line class="cls-10" x1="35.77" y1="82.02" x2="35.77" y2="74.99"></line>
      </g>
    </g>
    <g>
      <circle class="cls-5" cx="51.96" cy="106.82" r="5.67"></circle>
      <g>
        <line class="cls-10" x1="55.47" y1="106.82" x2="48.44" y2="106.82"></line>
        <line class="cls-10" x1="51.96" y1="110.33" x2="51.96" y2="103.3"></line>
      </g>
    </g>
  </g>
  <g>
    <polygon class="cls-12" points="23.29 165.18 35.81 138.22 48.33 165.18 23.29 165.18"></polygon>
    <g>
      <circle class="cls-5" cx="35.81" cy="138.22" r="5.67"></circle>
      <g>
        <line class="cls-10" x1="39.32" y1="138.22" x2="32.29" y2="138.22"></line>
        <line class="cls-10" x1="35.81" y1="141.74" x2="35.81" y2="134.71"></line>
      </g>
    </g>
    <g>
      <circle class="cls-4" cx="23.29" cy="165.18" r="5.67"></circle>
      <line class="cls-10" x1="26.8" y1="165.18" x2="19.77" y2="165.18"></line>
    </g>
    <g>
      <circle class="cls-3" cx="48.33" cy="165.18" r="5.67"></circle>
      <g>
        <line class="cls-10" x1="51.84" y1="165.18" x2="44.81" y2="165.18"></line>
        <line class="cls-10" x1="48.33" y1="168.7" x2="48.33" y2="161.67"></line>
      </g>
    </g>
  </g>
  <g>
    <polygon class="cls-1" points="20.84 201.65 35.81 221.76 50.78 201.65 20.84 201.65"></polygon>
    <g>
      <circle class="cls-3" cx="20.84" cy="201.65" r="5.67"></circle>
      <g>
        <line class="cls-10" x1="24.35" y1="201.65" x2="17.32" y2="201.65"></line>
        <line class="cls-10" x1="20.84" y1="205.16" x2="20.84" y2="198.13"></line>
      </g>
    </g>
    <g>
      <circle class="cls-4" cx="50.78" cy="201.65" r="5.67"></circle>
      <line class="cls-10" x1="54.29" y1="201.65" x2="47.26" y2="201.65"></line>
    </g>
    <g>
      <circle class="cls-13" cx="35.81" cy="221.76" r="5.67"></circle>
      <line class="cls-10" x1="39.32" y1="221.76" x2="32.29" y2="221.76"></line>
    </g>
  </g>
  <polygon class="cls-6" points="23.42 43.23 47.26 43.23 35.34 22.46 23.42 43.23"></polygon>
</svg>
