<?xml version="1.0" encoding="UTF-8"?>
<svg xmlns="http://www.w3.org/2000/svg" id="Layer_1" data-name="Layer 1" viewBox="0 0 139.27 144.97">
  <defs>
    <style>
      .cls-1 {
        fill: #fdce7b;
      }

      .cls-2 {
        fill: #4a4a49;
      }

      .cls-3 {
        fill: #98d5ed;
      }

      .cls-4 {
        fill: #95d3e0;
      }

      .cls-5 {
        fill: #53c2ee;
      }

      .cls-6 {
        fill: #ffe8a1;
      }
    </style>
  </defs>
  <title>transactions</title>
  <g>
    <g>
      <g>
        <rect class="cls-1" x="42.36" y="73.51" width="51.47" height="2.83"></rect>
        <polygon class="cls-1" points="84.44 63.34 82.51 65.41 92.74 74.93 82.51 84.44 84.44 86.52 96.91 74.93 84.44 63.34"></polygon>
      </g>
      <g>
        <circle class="cls-1" cx="25.72" cy="74.93" r="16.65"></circle>
        <g>
          <rect class="cls-2" x="15.41" y="73.51" width="20.62" height="2.83"></rect>
          <rect class="cls-2" x="24.3" y="64.62" width="2.83" height="20.62"></rect>
        </g>
      </g>
      <g>
        <circle class="cls-3" cx="113.55" cy="74.93" r="16.65"></circle>
        <rect class="cls-2" x="103.24" y="73.51" width="20.62" height="2.83"></rect>
      </g>
    </g>
    <g>
      <g>
        <path class="cls-4" d="M96.9,121.78a2.85,2.85,0,0,1-2-.83,2.44,2.44,0,0,1-.35-.43,2.3,2.3,0,0,1-.26-.49,3.27,3.27,0,0,1-.17-.53,3.41,3.41,0,0,1-.05-.55,2.83,2.83,0,0,1,3.39-2.78,2.49,2.49,0,0,1,.53.16,3.29,3.29,0,0,1,.49.26A2.81,2.81,0,0,1,99.74,119a2.57,2.57,0,0,1-.06.55,2.49,2.49,0,0,1-.16.53,2.87,2.87,0,0,1-.26.49,2.44,2.44,0,0,1-.35.43A2.85,2.85,0,0,1,96.9,121.78Z"></path>
        <path class="cls-4" d="M65.4,127.86a2.85,2.85,0,0,1-2.61-3h0a2.84,2.84,0,0,1,3.05-2.61h0a2.83,2.83,0,0,1,2.6,3h0a2.82,2.82,0,0,1-2.82,2.61H65.4Zm5.43-2.61a2.85,2.85,0,0,1,2.6-3h0a2.84,2.84,0,0,1,3,2.61h0a2.84,2.84,0,0,1-2.6,3h-.23A2.84,2.84,0,0,1,70.83,125.25Zm-13.75,1.4a2.85,2.85,0,0,1-2.2-3.36h0a2.84,2.84,0,0,1,3.36-2.19h0a2.83,2.83,0,0,1,2.19,3.35h0a2.84,2.84,0,0,1-2.77,2.26h0A2.86,2.86,0,0,1,57.08,126.65Zm21.76-2.2A2.85,2.85,0,0,1,81,121.09h0a2.84,2.84,0,0,1,3.36,2.2h0a2.83,2.83,0,0,1-2.2,3.35h0a2.29,2.29,0,0,1-.58.06h0A2.83,2.83,0,0,1,78.84,124.45Zm7.85-1.78a2.83,2.83,0,0,1,1.83-3.56h0a2.84,2.84,0,0,1,3.57,1.83h0a2.84,2.84,0,0,1-1.84,3.57h0a2.93,2.93,0,0,1-.87.14h0A2.83,2.83,0,0,1,86.69,122.67ZM49,124.51a2.84,2.84,0,0,1-1.84-3.57h0a2.84,2.84,0,0,1,3.57-1.83h0a2.83,2.83,0,0,1,1.83,3.56h0a2.83,2.83,0,0,1-2.7,2h0A2.87,2.87,0,0,1,49,124.51Z"></path>
        <path class="cls-4" d="M42.36,121.78a2.81,2.81,0,0,1-2-.83,2.49,2.49,0,0,1-.36-.43,2.87,2.87,0,0,1-.26-.49,3.24,3.24,0,0,1-.16-.53,2.57,2.57,0,0,1-.06-.55,2.86,2.86,0,0,1,.84-2,2.44,2.44,0,0,1,.43-.35,2.54,2.54,0,0,1,.49-.26,2.49,2.49,0,0,1,.53-.16,2.91,2.91,0,0,1,1.1,0,2.49,2.49,0,0,1,.53.16,2.54,2.54,0,0,1,.49.26,2.44,2.44,0,0,1,.43.35,2.85,2.85,0,0,1,.83,2,2.56,2.56,0,0,1,0,.55A3.24,3.24,0,0,1,45,120a2.87,2.87,0,0,1-.26.49,2.49,2.49,0,0,1-.36.43A2.81,2.81,0,0,1,42.36,121.78Z"></path>
      </g>
      <g>
        <circle class="cls-3" cx="113.55" cy="118.95" r="16.65"></circle>
        <rect class="cls-2" x="103.24" y="117.54" width="20.62" height="2.83"></rect>
      </g>
      <g>
        <circle class="cls-5" cx="25.72" cy="118.95" r="16.65"></circle>
        <rect class="cls-2" x="15.41" y="117.54" width="20.62" height="2.83"></rect>
      </g>
    </g>
    <g>
      <g>
        <path class="cls-6" d="M69.07,48.5c-13.79,0-22-4.43-25.74-7.07a1.41,1.41,0,0,1-.33-2,1.43,1.43,0,0,1,2-.33c3.42,2.45,11.09,6.55,24.09,6.55,18.3,0,26.15-8.24,26.23-8.32a1.41,1.41,0,0,1,2-.09,1.43,1.43,0,0,1,.09,2C97,39.64,88.72,48.5,69.07,48.5Z"></path>
        <polygon class="cls-6" points="46.35 54.71 49.09 53.95 45.34 40.49 59.05 37.74 58.49 34.96 41.8 38.31 46.35 54.71"></polygon>
      </g>
      <g>
        <path class="cls-6" d="M42.93,28.26a1.43,1.43,0,0,1-1.12-.56,1.41,1.41,0,0,1,.25-2c.43-.33,10.68-8.07,29.14-8.07,12.9,0,20.93,3.86,24.56,6.16a1.42,1.42,0,1,1-1.52,2.4c-3.37-2.14-10.85-5.73-23-5.73-17.43,0-27.31,7.41-27.41,7.48A1.39,1.39,0,0,1,42.93,28.26Z"></path>
        <polygon class="cls-6" points="92.1 10.69 89.41 11.58 93.82 24.84 80.27 28.27 80.97 31.02 97.47 26.84 92.1 10.69"></polygon>
      </g>
      <g>
        <circle class="cls-1" cx="25.72" cy="31.76" r="16.65"></circle>
        <g>
          <rect class="cls-2" x="15.41" y="30.34" width="20.62" height="2.83"></rect>
          <rect class="cls-2" x="24.3" y="21.45" width="2.83" height="20.62"></rect>
        </g>
      </g>
      <g>
        <circle class="cls-6" cx="113.55" cy="31.76" r="16.65"></circle>
        <g>
          <rect class="cls-2" x="103.24" y="30.34" width="20.62" height="2.83"></rect>
          <rect class="cls-2" x="112.14" y="21.45" width="2.83" height="20.62"></rect>
        </g>
      </g>
    </g>
  </g>
</svg>
