<?xml version="1.0" encoding="UTF-8"?>
<svg xmlns="http://www.w3.org/2000/svg" id="Layer_1" data-name="Layer 1" viewBox="0 0 129.62 122.18">
  <defs>
    <style>
      .cls-1 {
        fill: #e6e5e5;
      }

      .cls-2 {
        fill: #98d5ed;
      }

      .cls-3 {
        fill: #4a4a49;
      }

      .cls-4 {
        fill: #c3db97;
      }

      .cls-5 {
        fill: #fff;
      }

      .cls-6 {
        fill: #fee776;
      }

      .cls-7 {
        fill: #ffe8a1;
      }
    </style>
  </defs>
  <title>triage</title>
  <path class="cls-1" d="M101.8,97.28H28.42a5.67,5.67,0,0,1-4.92-8.49L60.2,24.86A5.66,5.66,0,0,1,65.11,22h0A5.68,5.68,0,0,1,70,24.86l36.69,63.93a5.67,5.67,0,0,1-4.92,8.49ZM38.21,85.94H92L65.11,39.07Z"></path>
  <g>
    <circle class="cls-2" cx="28.42" cy="91.35" r="23.15"></circle>
    <g>
      <circle class="cls-3" cx="27.88" cy="82.48" r="4.34"></circle>
      <path class="cls-3" d="M34.29,86.87c-1.15,0-3.27,2.51-6.31,2.51s-5.26-2.51-6.37-2.51-3,.58-3,2.36a3.48,3.48,0,0,0,1.26,2.7l2.51,1.25v1.11s-2.51,4-2.51,5.16,1.25,3.76,3.13,3.76A2.8,2.8,0,0,0,25.47,102l1.88-3.76h1.21l2,3.76a2.53,2.53,0,0,0,2.37,1.25c1.78,0,3.18-2.5,3.18-3.76s-2.51-5-2.51-5V93.18l2.51-1.25a3.21,3.21,0,0,0,1.25-2.65C37.24,87.45,35.4,86.87,34.29,86.87Z"></path>
    </g>
  </g>
  <g>
    <g>
      <g>
        <path class="cls-4" d="M101.41,107.92a.79.79,0,0,0-.81.8v5.72c.4,0,.8.06,1.2.06l.41,0v-5.76A.78.78,0,0,0,101.41,107.92Z"></path>
        <path class="cls-4" d="M125,91.35a23.15,23.15,0,1,0-29.82,22.16V96.46l-2.59,7.08a2.33,2.33,0,0,1-4.38-1.61l3.92-10.71A6.5,6.5,0,0,1,98.18,87h6.45a6.54,6.54,0,0,1,6.11,4.27l3.91,10.65a2.43,2.43,0,0,1-.92,2.88,2.61,2.61,0,0,1-1.26.35,2.41,2.41,0,0,1-2.19-1.56l-2.6-7.08v17.26A23.14,23.14,0,0,0,125,91.35Zm-23.29-5.73a5.7,5.7,0,1,1,5.39-6A5.67,5.67,0,0,1,101.66,85.62Z"></path>
      </g>
      <path class="cls-3" d="M101.15,74.23a5.7,5.7,0,1,0,5.9,5.44A5.67,5.67,0,0,0,101.15,74.23Z"></path>
      <path class="cls-3" d="M110.28,103.54a2.41,2.41,0,0,0,2.19,1.56,2.61,2.61,0,0,0,1.26-.35,2.43,2.43,0,0,0,.92-2.88l-3.91-10.65A6.54,6.54,0,0,0,104.63,87H98.18a6.5,6.5,0,0,0-6.1,4.27l-3.92,10.71a2.33,2.33,0,0,0,4.38,1.61l2.59-7.08v17.05a22.93,22.93,0,0,0,5.47.93v-5.72a.79.79,0,0,1,.81-.8.78.78,0,0,1,.8.8v5.76a22.92,22.92,0,0,0,5.47-.76V96.46Z"></path>
    </g>
    <g>
      <circle class="cls-5" cx="101.34" cy="82.05" r="3.91"></circle>
      <path class="cls-5" d="M107.12,86c-1,0-3,2.26-5.69,2.26S96.7,86,95.7,86,93,86.52,93,88.13a3.14,3.14,0,0,0,1.13,2.43l2.26,1.13v1s-2.26,3.56-2.26,4.65,1.13,3.39,2.83,3.39a2.5,2.5,0,0,0,2.25-1.13l1.7-3.39H102l1.78,3.39a2.27,2.27,0,0,0,2.13,1.13c1.61,0,2.87-2.26,2.87-3.39s-2.26-4.52-2.26-4.52V91.69l2.26-1.13a2.9,2.9,0,0,0,1.12-2.39C109.77,86.52,108.12,86,107.12,86Z"></path>
    </g>
  </g>
  <g>
    <g>
      <path class="cls-6" d="M64.71,44.51a.79.79,0,0,0-.8.81V51c.4,0,.8.06,1.2.06l.41,0V45.32A.79.79,0,0,0,64.71,44.51Z"></path>
      <path class="cls-7" d="M88.26,28A23.15,23.15,0,1,0,58.44,50.11V33.05l-2.59,7.09a2.33,2.33,0,0,1-4.38-1.62l3.91-10.71a6.52,6.52,0,0,1,6.11-4.26h6.45A6.54,6.54,0,0,1,74,27.81L78,38.47A2.45,2.45,0,0,1,77,41.35a2.6,2.6,0,0,1-1.27.34,2.42,2.42,0,0,1-2.19-1.55L71,33.05V50.31A23.13,23.13,0,0,0,88.26,28ZM65,22.22a5.7,5.7,0,1,1,5.38-5.95A5.67,5.67,0,0,1,65,22.22Z"></path>
    </g>
    <path class="cls-3" d="M64.46,10.83a5.7,5.7,0,1,0,5.89,5.44A5.66,5.66,0,0,0,64.46,10.83Z"></path>
    <path class="cls-3" d="M73.58,40.14a2.42,2.42,0,0,0,2.19,1.55A2.6,2.6,0,0,0,77,41.35,2.45,2.45,0,0,0,78,38.47L74,27.81a6.54,6.54,0,0,0-6.1-4.26H61.49a6.52,6.52,0,0,0-6.11,4.26L51.47,38.52a2.33,2.33,0,0,0,4.38,1.62l2.59-7.09V50.11a23.44,23.44,0,0,0,5.47.93V45.32a.81.81,0,1,1,1.61,0v5.76A23.44,23.44,0,0,0,71,50.31V33.05Z"></path>
  </g>
</svg>
