<svg xmlns="http://www.w3.org/2000/svg" viewBox="0 0 85.039 85.042"><defs><style>.a{fill:none;}.b{fill:#af6718;}</style></defs><title>discourse-volume-s-final-color</title><path class="a" d="M30.985,16.5c-4.506.886-9.985,7.2-12.9,15.106C4.1,69.608,55.233,85.058,55.074,59.736A17.851,17.851,0,0,1,45.2,63C21.132,63,32.235,26.878,30.985,16.5Z"/><path class="a" d="M62.259,16.51c-2.033.567-1.139,7.224-.835,9.316C62.382,21.883,62.7,18.478,62.259,16.51Z"/><path class="b" d="M65.225,43.693c5.959-11.005,9.069-24.725,6.081-31.826-2.912-6.917-10.411-5.525-8.911-5.525-21.467,0-5.95,37.3-4.852,51.516C60.028,90.028.017,73.305,15.694,30.722,21,16.305,31.293,12.349,32.736,13.967,37.43,19.281,22.13,60.447,45.2,60.447a15.926,15.926,0,0,0,9.666-3.688,87.039,87.039,0,0,0-1.6-8.787c-2.966,3.32-6.917,6.428-10.778,4.193C32.92,46.654,50.556,6.7,32.355,6.334c-0.04,0-.082,0-0.08,0C21.343,6.095,12.524,17.62,8.655,28.132c-13.874,37.69,22.79,62.077,44.76,51.647,28.9-13.7-7.971-64.672,9.529-65.959,4.232,0,1.185,12.866-.5,17.689C63.285,35.619,64.163,39.089,65.225,43.693Z"/></svg>