<svg xmlns="http://www.w3.org/2000/svg" viewBox="0 0 85.039 85.042"><defs><style>.a{fill:none;}.b{fill:#4f8531;}</style></defs><title>discourse-volume-s-final-color</title><path class="a" d="M30.058,18.922c-0.112,1.848-.109,3.6-0.057,5.458,0.053-.016.109-0.03,0.163-0.047A53.721,53.721,0,0,0,30.058,18.922Z"/><path class="a" d="M41.915,35.236a123.491,123.491,0,0,1-4.9,22.645c2.074,5.181,4.061,8.572,5.1,9.227,0.886-.61,3.043-3.407,5.478-8.8A113.8,113.8,0,0,1,43.3,35.246C41.986,35.21,42.488,35.23,41.915,35.236Z"/><path class="a" d="M18.991,66.536c1.906-2.089,3.571-5.806,4.59-8.425-1.136-3.359-2.113-6.884-2.928-10.415C17.1,54.794,17.206,62.793,18.991,66.536Z"/><path class="a" d="M65.125,66.87c1.744-2.871,2.821-11.23-.781-18.982a113.277,113.277,0,0,1-3.4,10.9C62.477,63.012,64.027,65.908,65.125,66.87Z"/><path class="a" d="M55.912,18.76a53.392,53.392,0,0,0-.405,5.86c0.093,0.03.19,0.055,0.283,0.086C55.943,22.4,55.968,20.419,55.912,18.76Z"/><path class="b" d="M31.427,38.02a105.307,105.307,0,0,0,4.12,15.927,124.453,124.453,0,0,0,3.78-18.584,25.411,25.411,0,0,0-7.782,1.888Q31.488,37.636,31.427,38.02Z"/><path class="b" d="M19.839,43.891c-0.673-3.365-1.2-6.671-1.6-9.776-22.587,21.57-4.512,59.645,10.645,35.9a55.3,55.3,0,0,1-4.017-8.337C15.216,82.849,11.577,56.707,19.839,43.891Z"/><path class="b" d="M35.768,61.469c-17.552-38.689-2.707-70.423-3.045-37.8a42.041,42.041,0,0,1,7.412-.987c-0.061-8.546-1.591-20-10.2-20-23.4,0-1.4,102.172,22.576,67.4A51.836,51.836,0,0,1,48.757,61.8C43.5,72.119,40.771,72.5,35.768,61.469Z"/><path class="b" d="M62.571,44.732a20.317,20.317,0,0,0-6.234-5.957c-0.017.083-.031,0.161-0.049,0.245a99.515,99.515,0,0,0,3.357,15.87C60.758,51.6,61.734,48.166,62.571,44.732Z"/><path class="b" d="M55.479,27.312c0.017,2.541.156,5.458,0.423,8.281,17.682,8.826,14.3,33.7,9.735,34.153l0.03,0.039C54.923,68.5,48.418,10.177,56.54,10.177c1.1,0.495,2.522,5.653,1.752,15.46a33.431,33.431,0,0,1,7.075,4.02c1.4-11.307,1.372-28.187-9.878-26.925-16.952,1.9-9.408,52.618.025,67.425C73.674,98.661,92.416,40.309,55.479,27.312Z"/><path class="b" d="M30.121,27.038c0.154,2.607.418,5.176,0.774,7.675a30.873,30.873,0,0,1,12.215-2.025c-0.167-2.631-.236-5.15-0.213-7.5A39.182,39.182,0,0,0,30.121,27.038Z"/></svg>