<svg xmlns="http://www.w3.org/2000/svg" viewBox="0 0 85.039 85.042"><defs><style>.a{fill:none;}.b{fill:#80cbd5;}</style></defs><title>discourse-volume-s-final-color</title><path class="a" d="M67.11,64.26c-2.276-2.408-7.411-3.812-10.67-4.481C59.779,63.333,67.11,69.159,67.11,64.26Z"/><path class="a" d="M20,67.269c3.074-.8,7.346-5.327,9.4-7.75-4.853.9-8.61,2.3-10.407,4.032C18.453,64.069,17.922,64.622,20,67.269Z"/><path class="a" d="M42.614,10.844c-11.48,0-4.914,18.232-.16,27.956C47.183,28.879,53.654,10.844,42.614,10.844Z"/><path class="b" d="M51.606,48.9q-0.761,1.441-1.559,2.859c1.22,1.759,2.466,3.42,3.716,4.952,23.66,3.518,15.5,14.152,8.985,11.224C46.423,60.6,19.7,8.292,42.614,8.292c14.464,0,7.771,20.591,1.353,33.479,1.361,2.56,2.931,5.233,4.586,7.771C60.94,27.129,65.1.542,42.329,0.8-0.722,1.29,54.712,98.413,74.48,71.514,80.563,63.229,77.463,51.716,51.606,48.9Z"/><path class="b" d="M36.676,54.232c-8.535,12.5-14.861,16.54-17.789,15.358C17.174,68.9,9.212,59.61,31.766,56.56c1.145-1.511,2.283-3.134,3.4-4.828q-0.832-1.422-1.621-2.874C9.317,51.383,3.346,62.672,12.372,73.834c7.9,9.773,21.052-2.3,28.872-12.863C39.834,59.063,38.389,56.985,36.676,54.232Z"/></svg>