<svg xmlns="http://www.w3.org/2000/svg" viewBox="0 0 85.039 85.042"><defs><style>.a{fill:none;}.b{fill:#3daa35;}</style></defs><title>discourse-volume-s-final-color</title><path class="a" d="M43.065,49.6c1.5,0,1.433-7.687-.4-13.746C40.815,40.326,38.133,49.6,43.065,49.6Z"/><path class="a" d="M35.466,22.545c-4.095-4.611-11.244-8.009-13.272-4.54-6.95,11.881,7.9,54.513,20.3,54.513,13.569,0,30.513-56.622,17.984-55.885-3.119.2-6.574,2.646-9.732,6.181C79.72,76.506,3.674,74.216,35.466,22.545Z"/><path class="b" d="M59.856,6.6c-5.343.335-10.49,3.356-14.954,7.752a44.085,44.085,0,0,1,4.515,6.155c3.481-3.68,7.323-6.2,10.909-6.422,18.143-1.1-3.181,69.544-21.82,59.9C24.546,66.756,13.045,28.593,19.99,16.718c3.587-6.134,16.253-1.514,22.932,12.724,13.819,29.458-14.9,30.687-1.521,2.9a35.759,35.759,0,0,0-4.329-7.813C9.839,70.677,73.2,72.437,49.038,24.866,40.549,8.154,21.043.06,13.516,12.932,4.064,29.1,18.005,74.1,36.79,81.458,65.6,92.743,91.82,4.578,59.856,6.6Z"/></svg>