<svg xmlns="http://www.w3.org/2000/svg" viewBox="0 0 85.039 85.042"><defs><style>.a{fill:none;}.b{fill:#fabb00;}</style></defs><title>discourse-volume-s-final-color</title><path class="a" d="M71.375,42.2a9.26,9.26,0,0,0-3.142.618C73.723,45.36,75.655,42.2,71.375,42.2Z"/><path class="a" d="M23.437,53.852c8.235,0,17.447-5.25,24.684-11.252C13.454,13.36-1.009,53.852,23.437,53.852Z"/><path class="b" d="M76.969,33.217c-12.35-5.11-23.022,7.83-26.9,11.086C40.1,52.667,26.777,59.379,16.326,55.047a11.719,11.719,0,0,1-6.791-7.006C4.789,34.594,23.121,17.978,50.079,40.918c2.951-2.631,3.025-3.048,5.569-5.119C23.4,7.513-3.573,28.381,2,49.137c2.293,8.54,10.04,14.675,21.329,14.673,28.2,0,38.405-28.8,50.769-23.663,0.071,0.029.144,0.066,0.217,0.1,4.491,2.1,1.008,9.918-8.892,3.977-2.37,1.512-3.328,2.757-5.843,5.1C80.208,64.016,92.128,39.5,76.969,33.217Z"/></svg>