<svg xmlns="http://www.w3.org/2000/svg" viewBox="0 0 85.039 85.042"><defs><style>.a{fill:none;}.b{fill:#db3b8d;}</style></defs><title>discourse-volume-s-final-color</title><path class="a" d="M35.015,20.542c3.634-7.78,15.573-11.227,21.679-2.917,5.222,7.107,5.1,22.809.177,35.6,0.829,1.455,1.6,2.772,2.394,4.125C81.655,43.7,66.9,9.5,42.679,10.363,8.261,11.428,2.988,61.784,31.42,61.784c5.4,0,9.128-4.067,11.5-8.078C35.243,39.412,31.438,28.2,35.015,20.542Z"/><path class="a" d="M46.934,25.441c-2.433.8,0.274,8.1,1.2,10.414C48.449,31.134,47.913,27.252,46.934,25.441Z"/><path class="a" d="M53.534,74.942q0.009-.056.017-0.113c-0.035.027-.084,0.058-0.117,0.084C53.466,74.926,53.5,74.931,53.534,74.942Z"/><path class="b" d="M55.636,56.14a34.952,34.952,0,0,1-2.406,4.516c1.317-.685,2.552-1.324,3.856-2.045C56.593,57.775,56.151,57.023,55.636,56.14Z"/><path class="b" d="M42.366,0.45C-4.908,1.914-10.2,71.7,31.42,71.7c25.667,0,33.186-45.739,21.142-54.708C47.68,13.36,39.84,16.159,37.3,21.607c-3.054,6.54.25,16.533,7.026,29.389a41.575,41.575,0,0,0,3.19-10.2c-2.967-6.523-5-12.878-3.511-16.06,0.74-1.582,3.357-2.275,4.045-1.884C54.325,26.418,50.185,64.3,31.42,64.3-0.356,64.3,4.927,9.012,42.595,7.847,68.419,7,82.238,40.6,65.662,55.776c-8.384,7.68-22.435,9.366-22.493,19.056-0.065,11,16.825,14.084,19.609,4.086h0a15.475,15.475,0,0,0,.017-9.25c-2.582,1.409-4.434,2.29-6.74,3.594a9.218,9.218,0,0,1-.4,3.668,0.561,0.561,0,0,1-.078.146c-0.336.545-1.532,0.524-2.008,0.46a4.531,4.531,0,0,1-.533-0.113c-1.065-.283-2.476-1.037-2.466-2.547C50.589,71.722,63,68.245,70.66,61.234,92.365,41.359,74.976-.566,42.366.45Z"/></svg>