<svg xmlns="http://www.w3.org/2000/svg" viewBox="0 0 85.039 85.042"><defs><style>.a{fill:#9159a0;}</style></defs><title>discourse-volume-s-final-color</title><path class="a" d="M43.3,1.472c-19.681,0-25.137,9.342-26.042,25.828-0.271,4.48,7.159,6.471,7.559-.864C25.241,18.25,25.725,8.972,43.3,8.972c13.895,0,15.768,9.379,15.768,18.555,0,11.429-19.518,14.686-19.518,30.671V69.344c0,4.954,7.5,4.962,7.5,0V58.2c0-11.425,19.519-14.687,19.519-30.671C66.566,15.641,62.529,1.472,43.3,1.472Z"/><path class="a" d="M40.643,83.159c3.573,3.495,8.784-1.837,5.311-5.31C42.558,74.457,37.1,79.537,40.643,83.159Z"/></svg>