<svg xmlns="http://www.w3.org/2000/svg" viewBox="0 0 85.039 85.042"><defs><style>.a{fill:none;}.b{fill:#ec7fb1;}</style></defs><title>discourse-volume-s-final-color</title><path class="a" d="M63.6,47.735c15.58-9.439-1.718-45.092-28.03-11.688C42.9,44.27,54.233,53.416,63.6,47.735Z"/><path class="b" d="M27.955,46.421c-1.3,1.885-2.23,3.22-3.023,4.549-1.091,12.543-3.74,17.5-5.012,18.672a7.626,7.626,0,0,1-1.108-2.854C17.03,58.015,22.632,49.614,26.2,44.477c-1.818-2.038-3.026-3.442-5.111-5.778C3.778,63.223,12.155,77.357,19.825,77.357c9.322,0,11.881-17.145,12.629-26.383C30.908,49.54,29.427,48.021,27.955,46.421Z"/><path class="b" d="M28.806,28.433c1.538,1.686,2.94,3.278,5.053,5.68,28.815-36.293,49.6,4.575,31.063,15.8-9.674,5.862-21.509-1.576-29.46-10.191C24.068,27.384,14.87,18.829,18.517,15.8c1.514-1.257,4.373,3.069,5.569,7.667,1.042,1.052,2.027,2.079,2.971,3.086,1.575-1.937,3.017-3.612,4.3-5.008-6.716-26.037-32.6-9.207-14.844,8.548,8.063,8.063,29.839,39.849,52.3,26.24A22.349,22.349,0,0,0,78.935,41.465C83.735,18.1,55.247-4.284,28.806,28.433Z"/></svg>