<svg xmlns="http://www.w3.org/2000/svg" viewBox="0 0 85.039 85.042"><defs><style>.a{fill:none;}.b{fill:#dd7c0e;}</style></defs><title>discourse-volume-s-final-color</title><path class="a" d="M23,16.4c-2.4,0-3.124,5.244-3.1,7.6,0.027,2.249,2.746,4.933,6.553,7.206C26.458,14.487,27.2,16.4,23,16.4Z"/><path class="a" d="M65,24.057c0.012-7.888-1.372-7.571-3.029-7.572-4.113.043-3.438,0.609-3.446,15.76C62.788,29.523,64.866,25.557,65,24.057Z"/><path class="a" d="M65,62.546c0-3.962-3.093-6.976-6.431-9.077,0.008,2.2.015,4.338,0.015,6.773C58.586,68.868,65,72.646,65,62.546Z"/><path class="a" d="M23.222,68.378c4.042,0,3.237-1.623,3.237-16.854C17.418,56.056,18.885,68.378,23.222,68.378Z"/><path class="b" d="M36.51,48.154a49.177,49.177,0,0,1-7.5-2c0,0.234-.007,17.829.013,18.062,0.666,7.926-7.746,6.709-5.8,6.709-7.622,0-9.429-16.8,3.237-22.195V45.186a49.242,49.242,0,0,1-5-2.379C3.975,52.075,7.47,78.032,22.892,78.408l-0.016-.014C38.924,79.89,36.51,60.176,36.51,48.154Z"/><path class="b" d="M48.476,36.632a47.753,47.753,0,0,1,7.5,1.875c-0.02-20.827-1.221-24.5,5.974-24.573,2.51,0,3.373.813,3.651,1.087,1.61,1.6,5.936,13.121-7.076,20.184,0,1.522,0,2.932,0,4.242a44.989,44.989,0,0,1,4.265,1.959C79.154,31.958,76.234,15,70.883,9.695a12.786,12.786,0,0,0-8.969-3.261C46,6.434,48.471,21.72,48.476,36.632Z"/><path class="b" d="M26.458,34.176c-5.1-2.727-9.059-6.392-9.1-10.137C17.308,20.146,18.539,13.852,23,13.852c7.13,0,6.009.5,6.009,18.742a37.891,37.891,0,0,0,7.5,2.746C36.51,17.145,38.9,6.352,23,6.352c-9.007,0-13.254,8.8-13.146,17.777C10.015,37.472,30.75,46.182,42.6,46.182c27.621,0,29.175,24.631,19.808,25.03l0.029-.027c-7.241-.24-6.4-13.391-6.419-19.131a34.91,34.91,0,0,0-7.51-2.6c0.018,4.548.03,7.411,0.03,10.788,0,9.625,5.433,18.791,14.561,18.422,11.759-.477,16.878-18.858,5.962-29.672C55.442,35.51,40.74,41.813,26.458,34.176Z"/></svg>