<svg xmlns="http://www.w3.org/2000/svg" viewBox="0 0 85.039 85.042"><defs><style>.a{fill:none;}.b{fill:#d6c7a2;}</style></defs><title>discourse-volume-s-final-color</title><path class="a" d="M68.273,64.637c2.651-2.864,4.573-10.89,1.983-18.592a91.324,91.324,0,0,1-4.2,14.843A17.573,17.573,0,0,0,68.273,64.637Z"/><path class="a" d="M24.391,59.48a21.617,21.617,0,0,0,2.655,5c0.949-1.11,2.875-3.8,5.1-9.376A105.228,105.228,0,0,1,29.2,42.141,88.253,88.253,0,0,1,24.391,59.48Z"/><path class="a" d="M45.436,55.1c1.929,5.54,3.659,8.157,4.65,9.319a18.768,18.768,0,0,0,2.35-3.755A93.706,93.706,0,0,1,48.6,43.393,117.142,117.142,0,0,1,45.436,55.1Z"/><path class="b" d="M40.777,29.864c-0.485,5.205,1.865,15.924,3.346,21.069,2.021-6.828,3.568-13.526,3.522-20.641A56.538,56.538,0,0,0,40.777,29.864Z"/><path class="b" d="M26.384,67.414c-8.074-5.195-13.325-47.973-7.265-51.522,0.686,0.58,1.15,2.008,1.415,4.017A53.363,53.363,0,0,1,27.7,18.235c-0.845-5.041-3.087-9.628-8.19-9.857L19.512,8.4C1.018,6.659,9.374,75.454,26.959,75.1h0c3.825-.035,7.244-3.049,10.176-7.675a56.521,56.521,0,0,1-3.8-8.633C32.308,61.056,28.389,68.7,26.384,67.414Z"/><path class="b" d="M68.363,41.91a20.983,20.983,0,0,0-6.587-6.8c-0.205,1.868-.478,3.821-0.826,5.841a87.661,87.661,0,0,0,3.672,16.33A102.847,102.847,0,0,0,68.363,41.91Z"/><path class="b" d="M39.715,15.914a3.269,3.269,0,0,1,.654,1.257l0.063,0.086a71.712,71.712,0,0,1,7.67.409c-0.935-5.284-3.576-9.672-8.882-9.281-20.28,1.5-2.042,85.738,18.246,62.768a36.462,36.462,0,0,1-3.859-7.321C43.723,80.258,33.521,20.661,39.715,15.914Z"/><path class="b" d="M6.567,31.731C-3.848,44.608,3.084,66.566,13.772,66.59,9.191,56.912,6.853,42.352,6.567,31.731Z"/><path class="b" d="M19.578,38.894a98.306,98.306,0,0,0,3.493,16.847C26.7,45.308,28.059,32.828,27.955,31a32.288,32.288,0,0,0-7.663,2.517C20.1,35.279,19.864,37.085,19.578,38.894Z"/><path class="b" d="M60.556,23.193a63.047,63.047,0,0,0-.335,8.072c21.5,10.649,12.582,38.124,7.6,36.283-8.731-3.22-13.41-48.421-7.464-51.66a4.8,4.8,0,0,1,1.2,2.559l0,0.006,0,0a22.188,22.188,0,0,1,.44,2.564,37.946,37.946,0,0,1,7.788,4.263c-0.14-7.412-1.733-16.692-9.168-16.916l-0.026.014C41.839,7.36,50.757,75.112,68.113,75.112,83.574,75.112,90.923,35.119,60.556,23.193Z"/><path class="b" d="M40.863,19.821a46.49,46.49,0,0,0-.405,7.493,62.132,62.132,0,0,1,7.211.414,56.9,56.9,0,0,1,.648-7.474A68.874,68.874,0,0,0,40.863,19.821Z"/><path class="b" d="M19.214,23.051a62.306,62.306,0,0,0-.22,8.274,35.523,35.523,0,0,1,8.849-2.891,56.7,56.7,0,0,1,.255-7.682A47.808,47.808,0,0,0,19.214,23.051Z"/></svg>