<svg xmlns="http://www.w3.org/2000/svg" viewBox="0 0 85.039 85.042"><defs><style>.a{fill:none;}.b{fill:#abbfc3;}</style></defs><title>discourse-volume-s-final-color</title><path class="a" d="M59.663,44.025c3.7-15-.741-26.378-3.052-26.391-1.5.562-5.124,9.327-2.911,26.41A34.612,34.612,0,0,1,59.663,44.025Z"/><path class="a" d="M66.131,61.577a42.572,42.572,0,0,1-3.811,5.381C63.758,67.759,66.738,64.954,66.131,61.577Z"/><path class="a" d="M20.5,17.95c-6.424,9.651-1.077,60.9,25.414,46.48a66.265,66.265,0,0,1-2.568-7.488C21.289,53.735,24.22,24.481,20.5,17.95Z"/><path class="b" d="M54.067,46.57a75.628,75.628,0,0,0,1.555,7.418c0.084,0,.164,0,0.247-0.006a40.048,40.048,0,0,0,3.1-7.443A32.921,32.921,0,0,0,54.067,46.57Z"/><path class="b" d="M70.873,50.946a52.245,52.245,0,0,1-3.137,7.7c3.628,6.232-3.309,15.307-8.992,8.459C48.506,54.766,47.759,15.082,56.607,15.082c7.207,0,11.252,25.287.091,42.478a26.423,26.423,0,0,0,3.754,7.619c16.65-20.134,12.98-59.074-4.7-57.555C39.637,9.009,40.481,44.209,48.11,63.047,60.964,94.8,87.782,65.205,70.873,50.946Z"/><path class="b" d="M20.46,15.082c2.654-.008,3.643,4.877,4.846,12.327,1.609,9.959,3.914,24.125,17.326,26.814a77.955,77.955,0,0,1-1.608-8.537c-12.346-6.947-3.92-38.1-20.548-38.1C-3.622,7.582,7,97.226,50.834,73.241a34.984,34.984,0,0,1-3.876-6.449C13.957,84.339,10.363,15.113,20.46,15.082Z"/></svg>