<svg xmlns="http://www.w3.org/2000/svg" viewBox="0 0 85.039 85.042"><defs><style>.a{fill:none;}.b{fill:#6fb62c;}</style></defs><title>discourse-volume-s-final-color</title><path class="a" d="M13.481,55.868c-0.345-.626-0.614-1.092-0.823-1.437-1.043,21.447,64.158,19.328,59.513-.885-1.4,1.5-2.432,11.885-13.979,11.885-5.018,0-10.389-3.167-15.441-8.939C32.711,67.89,20.905,69.337,13.481,55.868Z"/><path class="a" d="M42.688,11.16c-6.784,0-2.172,15.271.15,21.02C45.317,26.051,49.348,11.16,42.688,11.16Z"/><path class="b" d="M61.863,51.921C54.575,70.321,23.5,8.608,42.688,8.608c10.145,0,5.638,17.4,1.5,26.683a61.22,61.22,0,0,0,4.41,8.033C73.918-4.421,29.149-10.369,29.149,16.739c0,16.156,14.963,46.14,29.044,46.14,11.687,0,8.982-11.487,14.354-12.133,4.78-.579,5.013,21.546-30.083,21.579C8.651,72.358,6.518,50.34,12.917,51.213c2.452,0.332,10.14,24.3,28.2,3.3a61.547,61.547,0,0,1-4.4-6.465c-14.15,18.413-12.11-2.821-22.794-4.267C4.839,42.56-.742,52.42,4.753,62.991c11.625,22.373,63.678,22.426,75.3.281C89.421,45.411,68.723,34.615,61.863,51.921Z"/></svg>