<svg xmlns="http://www.w3.org/2000/svg" viewBox="0 0 85.039 85.042"><defs><style>.a{fill:none;}.b{fill:#37a37f;}</style></defs><title>discourse-volume-s-final-color</title><path class="a" d="M64.134,67.3c6.365-9.563,1.191-60.96-25.417-46.475a66.257,66.257,0,0,1,2.568,7.487C63.338,31.518,60.409,60.769,64.134,67.3Z"/><path class="a" d="M24.97,41.218c-3.663,14.838.655,26.386,3.05,26.4,1.5-.564,5.124-9.324,2.911-26.407A33.151,33.151,0,0,1,24.97,41.218Z"/><path class="a" d="M18.5,23.666a42.558,42.558,0,0,1,3.806-5.373C21.247,17.7,17.818,19.758,18.5,23.666Z"/><path class="b" d="M38.552,28.053c-0.61-2.06-1.291-4.019-2.032-5.849a24.879,24.879,0,0,0-5.765,5.871c0.049,0.154.1,0.306,0.148,0.462A40.168,40.168,0,0,1,38.552,28.053Z"/><path class="b" d="M33.537,40.914c2.121,16.26-.942,29.758-5.842,29.215-5.119-.566-8.864-14.334-5.261-29.247a22.991,22.991,0,0,1-7.2-2.474C3.577,84.9,47.9,95.225,41.274,41.292A15.852,15.852,0,0,0,33.537,40.914Z"/><path class="b" d="M49.265,8.182c-12.869,0-23.038,6.774-29.331,18.154,1.487,1.458,4.016,2.294,7.349,2.383,4.888-8.138,12.277-13.037,21.981-13.037,21.17,0,24.18,55.454,14.9,54.488-2.736,0-3.722-5.407-4.841-12.327-7.441-46.041-33.59-16-42.418-31.26-3.56-6.153,2.813-13.255,7.126-10.218a35.6,35.6,0,0,1,5.8-4.934C16.7-.573-0.723,22.012,13.761,34.29,30.209,48.232,45.963,22.17,51.92,59.04c1.394,8.63,3.03,18.658,12.274,18.63C85.665,77.605,78.82,8.182,49.265,8.182Z"/></svg>