<svg id="Layer_1" data-name="Layer 1" xmlns="http://www.w3.org/2000/svg" viewBox="0 0 48.19 48.19">
  <defs>
    <style>
      .cls-1 {
        fill: #6974b6;
      }

      .cls-2 {
        fill: #1d1d1b;
      }
    </style>
  </defs>
  <title>analysis</title>
  <g>
    <rect class="cls-1" x="1.63" y="1.57" width="45.04" height="45.04" rx="22.52"/>
    <path class="cls-2" d="M37.84,24C37.84,11,22,5,13.46,15.7l.79.63c7.89-9.9,22.57-4.36,22.57,7.61l-4-3.37-.65.78L37.65,26l4.24-5.85-.82-.59Zm-.37.5-.32-.27h.52ZM35.1,30.07l.85.55C27.69,43.38,9.19,36,11,22l-3.44,4.2-.79-.64L11.3,20l5.17,4.93-.69.73L12,22C10.21,35,27.35,42,35.1,30.07Z"/>
  </g>
</svg>
