<svg id="Layer_1" data-name="Layer 1" xmlns="http://www.w3.org/2000/svg" viewBox="0 0 48.19 48.19">
  <defs>
    <style>
      .cls-1 {
        fill: #ea5599;
      }

      .cls-2 {
        fill: #1d1d1b;
      }
    </style>
  </defs>
  <title>presentation</title>
  <g>
    <rect class="cls-1" x="1.63" y="1.57" width="45.04" height="45.04" rx="22.52"/>
    <g>
      <path class="cls-2" d="M21,13.72c0-3.55-5.37-3.55-5.37,0S21,17.27,21,13.72Zm-.67,0a2,2,0,0,1-4,0A2,2,0,0,1,20.33,13.72Z"/>
      <path class="cls-2" d="M24.76,17.7l4.35-4.35-.47-.48-4.36,4.36h0c-.86.77-1.28.51-9.42.51h0c-1.83.09-2.57,2.33-1.2,3.82h0l5.78,5.78.48-.47L14.14,21.1h0c-1-1.11-.46-2.68.82-2.68,7.8,0,8.65.34,9.8-.72Z"/>
      <path class="cls-2" d="M23.68,15.68a1.86,1.86,0,0,0,.6-.38h0l.08-.07V11.71H36.43v8.05H23.69v.67H37.1V11H23.68Z"/>
      <polygon class="cls-2" points="21.67 36.53 22.34 36.53 22.34 25.12 21.67 25.8 21.67 36.53"/>
      <polygon class="cls-2" points="18.65 36.53 19.32 36.53 19.32 28.48 18.65 27.81 18.65 36.53"/>
      <polygon class="cls-2" points="15.63 36.53 16.3 36.53 16.3 25.8 15.63 25.12 15.63 36.53"/>
    </g>
  </g>
</svg>
