<?xml version="1.0" encoding="UTF-8"?>
<svg xmlns="http://www.w3.org/2000/svg" id="Layer_1" data-name="Layer 1" viewBox="0 0 217.73 217.73">
  <defs>
    <style>.cls-1,.cls-2,.cls-3,.cls-4,.cls-5,.cls-6{fill:none;}.cls-1{stroke:#98509f;}.cls-1,.cls-2,.cls-3,.cls-4,.cls-5{stroke-linecap:round;stroke-linejoin:round;stroke-width:7.09px;}.cls-2{stroke:#ee8922;}.cls-3{stroke:#e9e611;}.cls-4{stroke:#6bbd45;}.cls-5{stroke:#71cbd3;}.cls-6{stroke:#37b44a;stroke-miterlimit:10;stroke-width:5.67px;}</style>
  </defs>
  <title>roles</title>
  <g id="Layer_4" data-name="Layer 4">
    <path class="cls-1" d="M178.17,109.23c35.88.75,11.87,66.3-23.29,66.3-46.77,0-116.42-163.62-46.74-163.62,70.13,0,0,162.87-46.75,163.62-34.78.56-57.31-67.61-21.28-66.51,54.72,1.67-39.07,97.6,68.33,97.6C217.54,206.62,124.37,108.12,178.17,109.23Z"></path>
  </g>
  <path class="cls-2" d="M192.75,189.45C130.6,239.59,161.88,11.11,108.86,11.11c-57.65,0-21.12,227-82.07,178.81C-53.42,126.46,266.72,129.77,192.75,189.45Z"></path>
  <path class="cls-3" d="M170.93,146.53c-26.41,0-50.34-6.41-50.34-48.46,0-38.67,26.51-85.67-11.4-85.67-42,0-13.4,48.33-13.12,87,.31,42.79-23,48-45.07,48-20.67,0-30.36-27.51-4.75-27.51,24.79,0,11,61.89,62.94,61.89,43,0,42.3-60,61.71-60.63C192.72,120.47,191.64,146.53,170.93,146.53Z"></path>
  <path class="cls-4" d="M158.35,82.78C143.09,84.62,151,103,135.14,103c-25.41,0-64.72-90.59-25.88-90.59S109.52,103,83.38,103C69,103,71,85,60.4,83.57c-21-2.84-19.16,47.76,48.47,47.71C178.12,131.22,176.8,80.57,158.35,82.78Z"></path>
  <g id="Layer_2" data-name="Layer 2">
    <path class="cls-5" d="M151.67,111.29c-22.27,30.32-96.29-96.67-43.06-96.67,52.16,0-20.92,124.51-40.8,99.92C36.22,75.47,176.27,77.78,151.67,111.29Z"></path>
  </g>
  <path class="cls-6" d="M93.41,166.23c-8.41,13.06,39.85,13.11,31.09,0"></path>
  <path class="cls-6" d="M92.42,195.45c-4-11.79,40.47-10.92,32.08,1.88"></path>
  <path class="cls-6" d="M124.5,197.33c-7.2,11-23.85-42.36-31.09-31.1"></path>
  <path class="cls-6" d="M124.5,166.23c-6.48-9.71-24.44,40.59-31.09,31.1a7.15,7.15,0,0,1-1-1.88"></path>
</svg>
