<?xml version="1.0" encoding="UTF-8"?>
<svg xmlns="http://www.w3.org/2000/svg" id="Layer_1" data-name="Layer 1" viewBox="0 0 59.6 58.18">
  <defs>
    <style>
      .cls-1 {
        fill: #98d5ed;
      }

      .cls-2 {
        fill: #4a4a49;
      }
    </style>
  </defs>
  <title>child</title>
  <g>
    <circle class="cls-1" cx="29.14" cy="29.23" r="23.15"></circle>
    <g>
      <circle class="cls-2" cx="28.6" cy="20.36" r="4.34"></circle>
      <path class="cls-2" d="M35,24.75c-1.15,0-3.27,2.5-6.31,2.5s-5.26-2.5-6.37-2.5-3,.58-3,2.36a3.48,3.48,0,0,0,1.26,2.7l2.51,1.25v1.11s-2.51,4-2.51,5.16,1.25,3.76,3.13,3.76a2.8,2.8,0,0,0,2.51-1.25l1.88-3.76h1.21l2,3.76a2.53,2.53,0,0,0,2.37,1.25c1.78,0,3.18-2.5,3.18-3.76s-2.51-5-2.51-5V31.06l2.51-1.25a3.21,3.21,0,0,0,1.25-2.65C38,25.33,36.12,24.75,35,24.75Z"></path>
    </g>
  </g>
</svg>
