<?xml version="1.0" encoding="UTF-8"?>
<svg xmlns="http://www.w3.org/2000/svg" id="Layer_1" data-name="Layer 1" viewBox="0 0 511.46 420.58">
  <path d="M477.75,210.65v0h-2C476.4,210.65,477.08,210.65,477.75,210.65Z" fill="#969ecf"></path>
  <path d="M477.75,210.4v.25c-2.16,0-1.84.06-5.34,0Q475,210.4,477.75,210.4Z" fill="#969ecf"></path>
  <path d="M470.81,192.28a27.25,27.25,0,0,1,6.94,18.12c-110.47,0-112.8-95.54-219.32-97-111.24-1.56-112.18,97-224.12,97,.86-9.53,11.54-21.15,20.29-30.53C187.48,37.39,329.28,30.7,470.81,192.28Z" fill="#aeaeae"></path>
  <path d="M475.74,210.67c-1.8,0-3.57.05-5.31.13A27.58,27.58,0,0,1,475.74,210.67Z" fill="#578fbd"></path>
  <path d="M472.41,210.61c-36.59,2.73-59,9.19-93,37.48-10.13-8.67-16.85-21.57-27.5-29.59,3.15-40-17.73-77.28-49.89-93.85-.53-.53-19.13-10.65-42.92-11.28C365.06,115.19,367.81,207.47,472.41,210.61Z" fill="#ededed"></path>
  <path d="M470.43,210.8c-31.64,3.42-43.58,29-63,46.21-1.29-.21-14.48,2.7-28-8.92C402.25,229.12,427.76,212.5,470.43,210.8Z" fill="#b3b2b2"></path>
  <path d="M407.45,257c-16.54,14.69-36.16,18.58-55,14.14,9.19-7.53,17.89-15.49,27-23.07C387.19,254.75,396.07,258,407.45,257Z" fill="#929191"></path>
  <path d="M351.93,218.5c10.65,8,17.37,20.92,27.5,29.59-9.13,7.58-17.83,15.54-27,23.07a54.3,54.3,0,0,1-16.15-6.67A96,96,0,0,0,351.93,218.5Z" fill="#b0b0af"></path>
  <path d="M351.93,218.5c-13.75-10.37-35-11.48-52.1,7.4,10-28.32-9.38-62.39-44.1-62.39-32,0-54.49,31.5-44.35,61.67-16.54-17.85-37.83-17.32-52-6.23a105.57,105.57,0,0,1,3.94-37.5c0-1.87,5.67-18.35,16.94-32.63.27-.81,9.34-12.34,25.68-22.21h0c1.76-1,4.45-2.48,6.06-3.25,0,0,0,0,0,0,37.9-19.26,83.75-4.94,90,1.31C335.77,142.54,355,179.75,351.93,218.5Z" fill="#dedede"></path>
  <path d="M352.16,207l-.06-1.41Z" fill="#f9f7c4"></path>
  <path d="M336.26,264.49a54.3,54.3,0,0,0,16.15,6.67C329.13,290.22,302.68,306.51,258,307A95.19,95.19,0,0,0,336.26,264.49Z" fill="#929191"></path>
  <path d="M349.33,186.34c-.18-.77-.38-1.54-.59-2.3C349,184.8,349.15,185.57,349.33,186.34Z" fill="#f9f7c4"></path>
  <path d="M348.74,184c-.19-.73-.39-1.45-.61-2.17C348.35,182.59,348.55,183.31,348.74,184Z" fill="#f9f7c4"></path>
  <path d="M348.09,181.74c-.17-.6-.35-1.19-.54-1.78C347.74,180.55,347.92,181.14,348.09,181.74Z" fill="#f9f7c4"></path>
  <path d="M351.93,218.5a96,96,0,0,1-15.67,46c-15-9.19-24.76-24.3-37.34-36.22.33-.78.63-1.57.91-2.37C317.17,206.73,338.5,208.37,351.93,218.5Z" fill="#d2d2d2"></path>
  <path d="M342.21,166.54c-.3-.62-.6-1.23-.92-1.84C341.61,165.31,341.91,165.92,342.21,166.54Z" fill="#f9f7c4"></path>
  <path d="M341.11,164.35c-.2-.4-.41-.79-.63-1.18C340.7,163.56,340.91,164,341.11,164.35Z" fill="#f9f7c4"></path>
  <path d="M337.64,158.22c-.33-.54-.66-1.07-1-1.59C337,157.15,337.31,157.68,337.64,158.22Z" fill="#f9f7c4"></path>
  <path d="M336.57,156.52c-.37-.57-.74-1.14-1.14-1.7C335.82,155.38,336.2,156,336.57,156.52Z" fill="#f9f7c4"></path>
  <path d="M335.25,154.54c-.33-.49-.66-1-1-1.45C334.59,153.57,334.92,154.05,335.25,154.54Z" fill="#f9f7c4"></path>
  <path d="M333.9,152.61c-.31-.44-.63-.88-1-1.31C333.27,151.73,333.59,152.17,333.9,152.61Z" fill="#f9f7c4"></path>
  <path d="M332.45,150.65c-.26-.35-.53-.7-.81-1C331.93,150,332.19,150.3,332.45,150.65Z" fill="#f9f7c4"></path>
  <path d="M329.5,147q-.5-.61-1-1.2Q329,146.35,329.5,147Z" fill="#f9f7c4"></path>
  <path d="M328.36,145.63l-1.15-1.31C327.6,144.75,328,145.19,328.36,145.63Z" fill="#f9f7c4"></path>
  <path d="M325.1,142.07c-.38-.39-.75-.77-1.14-1.15C324.34,141.29,324.72,141.67,325.1,142.07Z" fill="#f9f7c4"></path>
  <path d="M323.63,140.59c-.49-.49-1-1-1.48-1.43C322.65,139.62,323.14,140.1,323.63,140.59Z" fill="#f9f7c4"></path>
  <path d="M322.15,139.16l-1.3-1.21C321.29,138.34,321.72,138.74,322.15,139.16Z" fill="#f9f7c4"></path>
  <path d="M320,137.2l-1-.88Z" fill="#f9f7c4"></path>
  <path d="M298.92,228.27c12.58,11.92,22.32,27,37.34,36.22-37.82,57.09-123.48,56.14-161,.33,15.16-9,24.94-24.15,37.48-36.16C227.41,264.39,282.37,268.27,298.92,228.27Z" fill="#b3b3b3"></path>
  <path d="M316.69,134.38c-.44-.37-.89-.72-1.35-1.08Q316,133.82,316.69,134.38Z" fill="#f9f7c4"></path>
  <path d="M315.25,133.23c-.57-.45-1.16-.89-1.75-1.32C314.09,132.33,314.67,132.78,315.25,133.23Z" fill="#f9f7c4"></path>
  <path d="M313.5,131.91c-.52-.39-1.05-.77-1.58-1.15C312.45,131.13,313,131.51,313.5,131.91Z" fill="#f9f7c4"></path>
  <path d="M311.17,130.24l-1.17-.81C310.4,129.69,310.78,130,311.17,130.24Z" fill="#f9f7c4"></path>
  <path d="M305.28,126.47l-1.28-.74C304.43,126,304.86,126.21,305.28,126.47Z" fill="#f9f7c4"></path>
  <path d="M304,125.73c-.65-.37-1.3-.73-2-1.08C302.7,125,303.35,125.35,304,125.73Z" fill="#f9f7c4"></path>
  <path d="M301.91,124.58c-.6-.33-1.21-.64-1.82-1C300.7,123.93,301.31,124.25,301.91,124.58Z" fill="#f9f7c4"></path>
  <path d="M297.55,122.39l-1.66-.76C296.45,121.87,297,122.13,297.55,122.39Z" fill="#f9f7c4"></path>
  <path d="M289.15,118.93l-1.91-.65Z" fill="#f9f7c4"></path>
  <path d="M277.54,115.62c-.54-.13-1.08-.24-1.63-.35C276.46,115.38,277,115.49,277.54,115.62Z" fill="#f9f7c4"></path>
  <path d="M275.91,115.27c-1.55-.31-3.12-.59-4.7-.83C272.79,114.68,274.36,115,275.91,115.27Z" fill="#f9f7c4"></path>
  <path d="M266.44,113.84c-.81-.08-1.61-.15-2.42-.21C264.83,113.69,265.63,113.76,266.44,113.84Z" fill="#f9f7c4"></path>
  <path d="M264,113.63c-.5,0-1-.08-1.49-.1C263,113.55,263.52,113.59,264,113.63Z" fill="#f9f7c4"></path>
  <path d="M259,113.37h0Z" fill="#f9f7c4"></path>
  <path d="M258.43,113.36q-1.06,0-2.13,0Q257.37,113.33,258.43,113.36Z" fill="#b2bec7"></path>
  <path d="M255.29,113.34h0Z" fill="#b2bec7"></path>
  <path d="M253.67,113.36c-15.26.36-30.24,4.2-41.63,10,0,0,0,0,0,0-1.53.71-4.62,2.39-6.06,3.25h0c-15.11,9-25.34,21.21-25.68,22.21-9.16,11.16-16.94,29.82-16.94,32.63a105.68,105.68,0,0,0-3.94,37.5c-10.28,8-16.93,20.55-26.82,29.06-33.63-27.93-56.21-34.78-92.95-37.41C144.37,207.39,146.89,114.67,253.67,113.36Z" fill="#ededed"></path>
  <path d="M251.11,113.45q-2,.09-3.87.27Q249.16,113.54,251.11,113.45Z" fill="#f9f7c4"></path>
  <path d="M241.32,114.38c-.58.08-1.16.17-1.73.27C240.17,114.55,240.74,114.46,241.32,114.38Z" fill="#f9f7c4"></path>
  <path d="M227.18,117.44c-.74.23-1.48.45-2.21.69C225.7,117.89,226.44,117.66,227.18,117.44Z" fill="#f9f7c4"></path>
  <path d="M225,118.13c-.74.24-1.48.48-2.22.74C223.48,118.61,224.22,118.36,225,118.13Z" fill="#f9f7c4"></path>
  <path d="M222.75,118.87c-.74.26-1.48.52-2.21.8C221.27,119.39,222,119.13,222.75,118.87Z" fill="#f9f7c4"></path>
  <path d="M220.54,119.67q-.75.27-1.47.57Z" fill="#f9f7c4"></path>
  <path d="M216.15,121.44l-1.73.77C215,121.94,215.57,121.68,216.15,121.44Z" fill="#f9f7c4"></path>
  <path d="M213.9,122.44c-.63.3-1.25.59-1.86.9Q213,122.88,213.9,122.44Z" fill="#f9f7c4"></path>
  <path d="M212.69,228.66c-12.54,12-22.32,27.11-37.48,36.16A95,95,0,0,1,159.36,219c14.15-11.06,35.44-11.65,52,6.23C211.59,225.81,212.57,228.46,212.69,228.66Z" fill="#d2d2d2"></path>
  <path d="M212,123.36c-.55.26-1.1.54-1.65.83C210.9,123.89,211.44,123.62,212,123.36Z" fill="#f9f7c4"></path>
  <path d="M175.21,264.82C192.14,290,220.94,306.39,254.38,307c-44.88-.39-71.41-16.72-94.75-35.83A54,54,0,0,0,175.21,264.82Z" fill="#929191"></path>
  <path d="M209.67,124.54c-.58.3-1.17.62-1.74.94C208.5,125.15,209.09,124.84,209.67,124.54Z" fill="#f9f7c4"></path>
  <path d="M207.93,125.48c-.67.36-1.33.74-2,1.13C206.59,126.22,207.26,125.84,207.93,125.48Z" fill="#f9f7c4"></path>
  <path d="M205.92,126.61l-1.75,1.06Z" fill="#f9f7c4"></path>
  <path d="M203.79,127.91c-.56.34-1.12.7-1.67,1.05C202.67,128.6,203.23,128.25,203.79,127.91Z" fill="#f9f7c4"></path>
  <path d="M202,129l-1.62,1.08Q201.2,129.56,202,129Z" fill="#f9f7c4"></path>
  <path d="M199.85,130.5l-1.31.92C199,131.1,199.41,130.79,199.85,130.5Z" fill="#f9f7c4"></path>
  <path d="M198.1,131.74c-.46.33-.91.67-1.36,1C197.19,132.4,197.64,132.06,198.1,131.74Z" fill="#f9f7c4"></path>
  <path d="M196.22,133.14c-.47.36-.93.72-1.38,1.09C195.29,133.85,195.75,133.49,196.22,133.14Z" fill="#f9f7c4"></path>
  <path d="M194.54,134.46c-.51.41-1,.83-1.5,1.24C193.53,135.27,194,134.86,194.54,134.46Z" fill="#f9f7c4"></path>
  <path d="M192.79,135.91l-1.58,1.37C191.73,136.81,192.26,136.35,192.79,135.91Z" fill="#f9f7c4"></path>
  <path d="M191.21,137.28l-1.62,1.46C190.12,138.24,190.66,137.75,191.21,137.28Z" fill="#f9f7c4"></path>
  <path d="M189.45,138.88c-.52.49-1,1-1.56,1.49C188.4,139.86,188.92,139.36,189.45,138.88Z" fill="#f9f7c4"></path>
  <path d="M187.89,140.37c-.54.52-1.07,1.06-1.6,1.6C186.81,141.43,187.35,140.89,187.89,140.37Z" fill="#f9f7c4"></path>
  <path d="M186.29,142c-.53.54-1,1.09-1.56,1.64C185.23,143.06,185.75,142.51,186.29,142Z" fill="#f9f7c4"></path>
  <path d="M184.73,143.61c-.46.49-.91,1-1.35,1.49C183.81,144.6,184.27,144.1,184.73,143.61Z" fill="#f9f7c4"></path>
  <path d="M182.92,145.61c-.37.43-.74.87-1.12,1.3C182.17,146.47,182.54,146,182.92,145.61Z" fill="#f9f7c4"></path>
  <path d="M181.55,147.22c-.42.5-.84,1-1.25,1.52C180.71,148.23,181.12,147.72,181.55,147.22Z" fill="#f9f7c4"></path>
  <path d="M180.24,148.82c-.45.57-.9,1.14-1.33,1.71C179.34,150,179.78,149.38,180.24,148.82Z" fill="#f9f7c4"></path>
  <path d="M178.8,150.66l-1.21,1.64C178,151.75,178.39,151.2,178.8,150.66Z" fill="#f9f7c4"></path>
  <path d="M177.43,152.52c-.41.58-.82,1.15-1.22,1.74C176.6,153.68,177,153.09,177.43,152.52Z" fill="#f9f7c4"></path>
  <path d="M176.21,154.26c-.43.63-.86,1.26-1.27,1.9C175.35,155.52,175.77,154.89,176.21,154.26Z" fill="#f9f7c4"></path>
  <path d="M174.94,156.16c-.42.64-.83,1.28-1.23,1.93C174.11,157.44,174.51,156.8,174.94,156.16Z" fill="#f9f7c4"></path>
  <path d="M173.71,158.09c-.4.65-.79,1.31-1.18,2C172.91,159.4,173.3,158.74,173.71,158.09Z" fill="#f9f7c4"></path>
  <path d="M172.53,160.06c-.39.66-.77,1.33-1.14,2C171.76,161.39,172.14,160.72,172.53,160.06Z" fill="#f9f7c4"></path>
  <path d="M171.39,162.06q-.55,1-1.08,2Q170.83,163,171.39,162.06Z" fill="#f9f7c4"></path>
  <path d="M170.27,164.15q-1.05,2-2,4.1C168.89,166.86,169.56,165.5,170.27,164.15Z" fill="#f9f7c4"></path>
  <path d="M168.26,168.25c-.32.71-.64,1.42-.95,2.13C167.61,169.66,167.93,169,168.26,168.25Z" fill="#f9f7c4"></path>
  <path d="M159.36,219a95,95,0,0,0,15.85,45.87,54,54,0,0,1-15.58,6.33c-9.21-7.56-17.93-15.54-27.09-23.14C142.43,239.5,149.08,227,159.36,219Z" fill="#b0b0af"></path>
  <path d="M163.32,181.37a93.21,93.21,0,0,1,3.09-8.84Q164.67,176.84,163.32,181.37Z" fill="#f9f7c4"></path>
  <path d="M163.3,181.45a101.61,101.61,0,0,0-2.72,11.73A99.57,99.57,0,0,1,163.3,181.45Z" fill="#f9f7c4"></path>
  <path d="M160.58,193.18c-.14.81-.27,1.61-.39,2.43C160.31,194.8,160.43,194,160.58,193.18Z" fill="#f9f7c4"></path>
  <path d="M160.16,195.8c-.21,1.49-.39,3-.55,4.51C159.76,198.8,159.94,197.29,160.16,195.8Z" fill="#f9f7c4"></path>
  <path d="M159.59,200.57q-.36,3.69-.48,7.48Q159.22,204.26,159.59,200.57Z" fill="#f9f7c4"></path>
  <path d="M159.11,208.05c0,.85,0,1.7,0,2.55C159.07,209.74,159.08,208.89,159.11,208.05Z" fill="#f9f7c4"></path>
  <path d="M159.63,271.15c-18.38,4.36-38.24.8-55-14.12a36,36,0,0,0,28-9C141.7,255.61,150.42,263.59,159.63,271.15Z" fill="#929191"></path>
  <path d="M132.54,248a36,36,0,0,1-28,9c-19.39-17.19-31.32-42.78-62.91-46.23C84.26,212.51,109.75,229.08,132.54,248Z" fill="#b3b2b2"></path>
  <path d="M477.65,210.68c-37.61,0-48.8,27.36-70.19,46.33h0c-16.69,14.83-36.35,18.54-55,14.14C329.13,290.22,302.68,306.06,258,307c-40.1.83-69.56-12.23-98.37-35.82-18.82,4.46-38.5.57-55-14.12C83.07,238,72.05,210.68,34.28,210.68c0,.18,0,.35,0,.52a19.64,19.64,0,0,0,4.67,13.4c79.2,99.4,198.45,161,319.45,96.83,44.12-23.37,80.14-56.6,112.76-93.79a26.17,26.17,0,0,0,6.6-16.44c0-.18,0-.35,0-.52Z" fill="#787878"></path>
  <path d="M41.67,210.8c-1.77-.08-3.57-.12-5.4-.13A26.68,26.68,0,0,1,41.67,210.8Z" fill="#578fbd"></path>
  <path d="M34.28,210.68a2.66,2.66,0,0,1,0-.28c1.82,0,3.58.07,5.28.2C36.54,210.69,35.23,210.68,34.28,210.68Z" fill="#969ecf"></path>
  <circle cx="255.73" cy="210.29" r="46.49" fill="#434343"></circle>
</svg>
