<svg xmlns="http://www.w3.org/2000/svg" viewBox="0 0 85.039 85.042"><defs><style>.a{fill:none;}.b{fill:#e9510e;}</style></defs><title>discourse-volume-s-final-color</title><path class="a" d="M70.682,51.432c4.125-3.879,4.949-12.444-.4-18.094a20.307,20.307,0,0,1-5.159,8.883A15.92,15.92,0,0,1,70.682,51.432Z"/><path class="a" d="M54.047,49.754A65.078,65.078,0,0,1,37.7,54.589c7.407,0.873,14.587,1.656,20.136,1.313C58.577,54.089,58.952,52.566,54.047,49.754Z"/><path class="a" d="M53.552,35.7c2.929-2.086,5.582-5.447,4.54-8.163-6.444-.637-16.472,1.74-24.79,3.492A85.61,85.61,0,0,1,53.552,35.7Z"/><path class="b" d="M68.471,20.15A15.766,15.766,0,0,1,70.817,30.3c8.051,6.888,7.334,19.172.051,24.247a18.141,18.141,0,0,1-3.192,9.705C89.617,57.453,89.505,29.421,68.471,20.15Z"/><path class="b" d="M63.26,43.989a36.167,36.167,0,0,1-6.536,4.43C74.437,60.291,33.095,75.182,15.14,65.984c-0.752-.385-2.182-1.242-2.175-2.087,2.585-2.2,19.495.238,27.725,1.148,6.548-1.217,12.314-3.5,15.344-6.527-19.642.372-50.65-9.759-50.567,5.438h0C5.4,73.8,20.537,76.171,30.466,76.086,65.2,75.847,75.828,54.878,63.26,43.989Z"/><path class="b" d="M68.089,31.437C72.408,7.007,20.91,6.138,8.978,14.683,3,18.964,3.123,30.995,17.9,30.733c17.476-1.787,27.334-5.825,37.791-5.855-4.692-3.221-12.916-4.561-18.6-4.93q-1.555.327-3.106,0.659c-11.353,2.425-20.955,4.285-21.134.564,4.576-6.087,48-5.892,48,7.38,0,16.48-44.27,20.694-48.034,13.7,2.368-1.829,13.333-2.5,24.938-.449a48.137,48.137,0,0,0,13.017-4.392c-13.017-4.444-44.01-8.513-45.5,3.742L5.3,41.173C1.425,59.6,63.677,56.394,68.089,31.437Z"/></svg>