<?xml version="1.0" encoding="utf-8"?>
<!-- Generator: Adobe Illustrator 19.2.0, SVG Export Plug-In . SVG Version: 6.00 Build 0)  -->
<svg version="1.1" id="Layer_1" xmlns="http://www.w3.org/2000/svg" xmlns:xlink="http://www.w3.org/1999/xlink" x="0px" y="0px"
	 viewBox="0 0 139.491 139.493" enable-background="new 0 0 139.491 139.493" xml:space="preserve">
<g>
	<g>
		<path fill="#673090" d="M71.27,105.08c0,1.324-1.073,2.396-2.396,2.396H41.309c-1.324,0-2.396-1.073-2.396-2.396V34.496
			c0-1.324,1.073-2.396,2.396-2.396h27.565c1.324,0,2.396,1.073,2.396,2.396V105.08z"/>
	</g>
	<path fill="#595A5C" d="M76.751,32.029c-0.675-0.07-1.348,0.15-1.852,0.604c-0.504,0.454-0.794,1.101-0.794,1.78v0.051
		c0,1.227,0.928,2.258,2.148,2.385c10.93,1.14,19.482,10.405,19.482,21.635c0,11.23-8.552,20.497-19.482,21.638
		c-1.221,0.127-2.148,1.157-2.148,2.385v0.049c0,0.679,0.288,1.326,0.793,1.781c0.505,0.454,1.178,0.673,1.853,0.603
		c13.388-1.386,23.828-12.7,23.828-26.455C100.58,44.726,90.139,33.415,76.751,32.029z"/>
</g>
</svg>
