<?xml version="1.0" encoding="utf-8"?>
<!-- Generator: Adobe Illustrator 19.2.0, SVG Export Plug-In . SVG Version: 6.00 Build 0)  -->
<svg version="1.1" id="Layer_1" xmlns="http://www.w3.org/2000/svg" xmlns:xlink="http://www.w3.org/1999/xlink" x="0px" y="0px"
	 viewBox="0 0 139.491 139.493" enable-background="new 0 0 139.491 139.493" xml:space="preserve">
<g>
	<g>
		<path fill="#F26724" d="M56.463,106.629c-0.936,0.936-2.453,0.936-3.389,0L33.58,87.137c-0.449-0.449-0.702-1.059-0.702-1.695
			c0-0.636,0.252-1.245,0.702-1.695l49.912-49.913c0.449-0.449,1.059-0.702,1.695-0.702c0.636,0,1.245,0.253,1.695,0.702
			l19.492,19.494c0.936,0.936,0.936,2.453,0,3.389L56.463,106.629z"/>
	</g>
	<path fill="#595A5C" d="M57.27,56.027c0.458-0.458,0.711-1.081,0.702-1.728s-0.28-1.263-0.75-1.708L36.459,32.968
		c-0.001-0.001-0.001-0.001-0.002-0.002c-0.96-0.909-2.479-0.864-3.386,0.097c-0.909,0.96-0.866,2.478,0.095,3.387L53.93,56.074
		C54.872,56.965,56.353,56.944,57.27,56.027z"/>
</g>
</svg>
