<svg xmlns="http://www.w3.org/2000/svg" viewBox="0 0 85.039 85.042"><defs><style>.a{fill:none;}.b{fill:#eee300;}</style></defs><title>discourse-volume-s-final-color</title><path class="a" d="M42.248,52.233C40.9,58.946,37.6,64.5,31.7,67.777c4.1,7.027,15,9.3,21.213-.927A21.436,21.436,0,0,1,42.248,52.233Z"/><path class="b" d="M29.391,68.875a27.742,27.742,0,0,1-7.487,1.8C29.894,87.052,51.766,89.8,62.674,70a31.924,31.924,0,0,1-7.485-2.045C47.849,80.121,34.451,77.824,29.391,68.875Z"/><path class="b" d="M70.1,49.181v0c-4.518,0-7.2,3.668-9.278,7.616a24.889,24.889,0,0,0,7.914,1.152c-0.026-.148.1-0.222,0.3-0.267,1.515-2.045,5.394-.583,4.216,1.5-1.434,2.541-12.082,1.137-15.849-1.24-3.882-2.449-5.99-7.026-5.99-15.294,0-4.994,1.087-10.434,2.139-15.7,1.837-9.2,3.425-17.139-.759-22.24-4.7-5.738-16.977-5.25-21.508.352-4.327,5.35-2.517,13.822-.6,22.792,1.11,5.192,2.257,10.562,2.292,15.413,0.048,6.642-1.284,11.376-3.959,14.071-3.773,3.8-15.346,5.429-17.416.595-0.367-.857-0.508-1.537,1.944-1.77,1.459-.139,2.193-0.1,3.375,2.165a21.091,21.091,0,0,0,7.726-1.134C18.888,43.421,3.889,48.2,3.889,57.129c0,13.177,21.561,14.443,30.447,5.492,8.79-8.853,6.177-24.646,3.68-36.334-1.464-6.854-2.979-13.942-.9-16.508,1.636-2.023,8.352-2.175,9.877-.313,1.932,2.356.482,9.613-.8,16.015C41.087,51.026,44.073,68.01,70.11,68.01,84.362,68.01,84.716,48.784,70.1,49.181Z"/></svg>