<?xml version="1.0" encoding="utf-8"?>
<!-- Generator: Adobe Illustrator 19.2.0, SVG Export Plug-In . SVG Version: 6.00 Build 0)  -->
<svg version="1.1" id="Layer_1" xmlns="http://www.w3.org/2000/svg" xmlns:xlink="http://www.w3.org/1999/xlink" x="0px" y="0px"
	 viewBox="0 0 139.491 139.493" enable-background="new 0 0 139.491 139.493" xml:space="preserve">
<g>
	<g>
		<path fill="#6E6F72" d="M85.692,105.114c0,1.324-1.073,2.396-2.396,2.396H55.728c-1.324,0-2.396-1.073-2.396-2.396V34.529
			c0-1.324,1.073-2.396,2.396-2.396h27.568c1.324,0,2.396,1.073,2.396,2.396V105.114z"/>
	</g>
	<path fill="#595A5C" d="M50.563,82.788c0-1.236-0.94-2.269-2.171-2.385c-11.074-1.049-19.79-10.411-19.79-21.776
		c0-11.367,8.715-20.732,19.79-21.78c1.23-0.117,2.171-1.149,2.171-2.385v-0.044c0-0.675-0.285-1.318-0.783-1.772
		c-0.499-0.455-1.167-0.682-1.838-0.618c-13.658,1.288-24.183,12.781-24.183,26.601c0,13.833,10.541,25.305,24.18,26.595
		c0.672,0.064,1.339-0.159,1.838-0.613c0.499-0.454,0.786-1.098,0.786-1.772V82.788z"/>
	<path fill="#595A5C" d="M91.066,31.989c-0.655-0.049-1.3,0.176-1.782,0.623c-0.482,0.446-0.757,1.073-0.757,1.73v0.088
		c0,1.251,0.963,2.293,2.21,2.39c11.323,0.881,20.152,10.383,20.152,21.806c0,11.414-8.823,20.921-20.152,21.802
		c-1.247,0.097-2.211,1.136-2.211,2.387v0.444c0,0.559,0.231,1.093,0.638,1.477s0.955,0.583,1.513,0.549
		c14.037-0.859,25.055-12.511,25.055-26.658C115.733,44.646,104.954,33.038,91.066,31.989z"/>
</g>
</svg>
