<?xml version="1.0" encoding="UTF-8"?>
<svg xmlns="http://www.w3.org/2000/svg" id="Layer_1" data-name="Layer 1" viewBox="0 0 59.6 58.18">
  <defs>
    <style>
      .cls-1 {
        fill: #c3db97;
      }

      .cls-2 {
        fill: #4a4a49;
      }

      .cls-3 {
        fill: #fff;
      }
    </style>
  </defs>
  <title>parent</title>
  <g>
    <g>
      <g>
        <path class="cls-1" d="M29.92,45.8a.79.79,0,0,0-.81.8v5.72c.4,0,.8.06,1.21.06l.4,0V46.6A.78.78,0,0,0,29.92,45.8Z"></path>
        <path class="cls-1" d="M53.46,29.23A23.15,23.15,0,1,0,23.64,51.39v-17l-2.59,7.08a2.33,2.33,0,0,1-4.38-1.61l3.92-10.72a6.52,6.52,0,0,1,6.1-4.26h6.45a6.55,6.55,0,0,1,6.11,4.26l3.91,10.66a2.43,2.43,0,0,1-.92,2.88A2.6,2.6,0,0,1,41,43a2.4,2.4,0,0,1-2.19-1.55L36.2,34.34V51.6A23.14,23.14,0,0,0,53.46,29.23ZM30.18,23.5a5.7,5.7,0,1,1,5.38-5.95A5.67,5.67,0,0,1,30.18,23.5Z"></path>
      </g>
      <path class="cls-2" d="M29.66,12.11a5.7,5.7,0,1,0,5.9,5.44A5.67,5.67,0,0,0,29.66,12.11Z"></path>
      <path class="cls-2" d="M38.79,41.42A2.4,2.4,0,0,0,41,43a2.6,2.6,0,0,0,1.26-.34,2.43,2.43,0,0,0,.92-2.88L39.25,29.09a6.55,6.55,0,0,0-6.11-4.26H26.69a6.52,6.52,0,0,0-6.1,4.26L16.67,39.81a2.33,2.33,0,0,0,4.38,1.61l2.59-7.08v17a23,23,0,0,0,5.47.93V46.6a.79.79,0,0,1,.81-.8.78.78,0,0,1,.8.8v5.76a23.07,23.07,0,0,0,5.48-.76V34.34Z"></path>
    </g>
    <g>
      <circle class="cls-3" cx="29.86" cy="19.93" r="3.91"></circle>
      <path class="cls-3" d="M35.63,23.88c-1,0-3,2.26-5.69,2.26s-4.73-2.26-5.73-2.26-2.73.52-2.73,2.13a3.15,3.15,0,0,0,1.12,2.43l2.26,1.13v1s-2.26,3.56-2.26,4.65,1.13,3.39,2.83,3.39a2.5,2.5,0,0,0,2.25-1.13l1.7-3.39h1.08l1.78,3.39a2.27,2.27,0,0,0,2.13,1.13c1.61,0,2.87-2.26,2.87-3.39S35,30.69,35,30.69V29.57l2.26-1.13a2.9,2.9,0,0,0,1.13-2.39C38.28,24.4,36.63,23.88,35.63,23.88Z"></path>
    </g>
  </g>
</svg>
