<svg id="Layer_1" data-name="Layer 1" xmlns="http://www.w3.org/2000/svg" viewBox="0 0 283.46 283.46"><defs><style>.cls-1{fill:#f9a02c;}.cls-2{fill:#333;}</style></defs><title>circle</title><circle class="cls-1" cx="142.23" cy="141.23" r="130"/><path class="cls-2" d="M205.69,121.61c3.59-2.62,7.09-1.57,9.93,1.86l6.63,8.24c6.93-8.51,8.6-11.57,12.64-11.57,5.45,0,8.78,7.09,5.4,10.88L229.07,143.3c0,14.78.53,15.91-1.95,18.5-4,4.36-11.62,1.57-11.62-4.87V143.3c-8.4-9.2-17.46-16-9.81-21.69Z"/><path class="cls-2" d="M170.49,158.91a6.33,6.33,0,0,1-.55-2.58c0-26.55-2.29-35.73,6.84-35.73h16.15a6,6,0,0,1,4.92,9c-2.25,3.91-5.76,3-14.34,3v3.59c4.4,0,14-1.39,14,5.83,0,7-8.67,5.79-13.94,5.79v3.7c5,0,15.23-1.42,15.23,6a6.05,6.05,0,0,1-6.23,5.88c-16,0-19.52,1.21-22-4.42Z"/><path class="cls-2" d="M143.48,163.33a7,7,0,0,1-7.12-7.4c0-27-1.9-35.79,6.83-35.79a6.84,6.84,0,0,1,6.83,6.92V151.5c7.52,0,15.67-1.54,15.67,6a5.78,5.78,0,0,1-5.74,5.82Z"/><path class="cls-2" d="M100.63,142c0,13.32,18.16,13.33,18.16.07s-18.16-13.42-18.16-.07ZM91.1,154.17c-14.69-20.81,13.76-45.94,33.61-28.49a21.53,21.53,0,0,1,6.47,22.63c-5.77,17.9-29.87,21-40.08,5.86Z"/><path class="cls-2" d="M51.74,142c0,14.49,20.5,12.59,18-1.82-2-11.88-18-10.41-18,1.82Zm-9.52,12.22c-14.77-20.92,13.86-45.85,33.61-28.49,25.56,22.45-15.69,55.11-33.61,28.49Z"/></svg>