<svg id="Layer_1" data-name="Layer 1" xmlns="http://www.w3.org/2000/svg" viewBox="0 0 192.57 12.58">
  <g>
    <g>
      <line x1="59.31" y1="7.55" x2="1.2" y2="7.55" fill="none" stroke="#231f20" stroke-miterlimit="10"
        stroke-width="1" />
      <path
        d="M25.31,13.05a.51.51,0,0,1-.15.7L18.7,17.86,25.16,22a.5.5,0,1,1-.54.84L17.5,18.28a.5.5,0,0,1,0-.84l7.12-4.54a.56.56,0,0,1,.27-.08A.5.5,0,0,1,25.31,13.05Z"
        transform="translate(-17.27 -10.31)" fill="#231f20" />
    </g>
    <g>
      <line x1="133.27" y1="7.55" x2="191.37" y2="7.55" fill="none" stroke="#231f20" stroke-miterlimit="10"
        stroke-width="1" />
      <path
        d="M201.8,22.66A.5.5,0,0,1,202,22l6.46-4.11L202,13.75a.51.51,0,0,1-.15-.7.5.5,0,0,1,.69-.15l7.12,4.54a.5.5,0,0,1,0,.84l-7.12,4.53a.43.43,0,0,1-.27.08A.51.51,0,0,1,201.8,22.66Z"
        transform="translate(-17.27 -10.31)" fill="#231f20" />
    </g>
    <text transform="translate(71.54 10.16)" font-size="12" fill="#6d6e71" font-family="Ubuntu">листайте</text>
  </g>
</svg>