<?xml version="1.0" encoding="UTF-8"?>
<svg xmlns="http://www.w3.org/2000/svg" id="Layer_1" data-name="Layer 1" viewBox="0 0 42.12 122.18">
  <defs>
    <style>
      .cls-1 {
        fill: #e0e0e0;
      }

      .cls-2 {
        fill: #98d5ed;
      }

      .cls-3 {
        fill: #4a4a49;
      }

      .cls-4 {
        fill: #ffe8a1;
      }

      .cls-5 {
        fill: #c3db97;
      }

      .cls-6 {
        fill: #fff;
      }
    </style>
  </defs>
  <title>tri</title>
  <rect class="cls-1" x="2.1" y="3.14" width="37.92" height="115.9" rx="18.96"></rect>
  <g>
    <g>
      <circle class="cls-2" cx="21.06" cy="99.51" r="16.65"></circle>
      <g>
        <circle class="cls-3" cx="20.67" cy="93.13" r="3.12"></circle>
        <path class="cls-3" d="M25.28,96.28c-.83,0-2.35,1.81-4.54,1.81S17,96.28,16.16,96.28,14,96.7,14,98a2.5,2.5,0,0,0,.9,1.94l1.8.91v.79s-1.8,2.85-1.8,3.71.9,2.71,2.26,2.71a2,2,0,0,0,1.8-.9l1.35-2.71h.87l1.42,2.71a1.82,1.82,0,0,0,1.7.9c1.28,0,2.29-1.81,2.29-2.71s-1.81-3.6-1.81-3.6v-.9l1.81-.91a2.31,2.31,0,0,0,.9-1.9A2,2,0,0,0,25.28,96.28Z"></path>
      </g>
    </g>
    <g>
      <g>
        <path class="cls-4" d="M20.77,34.58a.57.57,0,0,0-.58.58v4.11c.29,0,.58,0,.87,0l.29,0V35.16A.57.57,0,0,0,20.77,34.58Z"></path>
        <path class="cls-4" d="M37.7,22.67A16.65,16.65,0,1,0,16.26,38.61V26.34L14.4,31.43a1.68,1.68,0,1,1-3.15-1.16l2.81-7.7a4.7,4.7,0,0,1,4.39-3.06h4.64a4.7,4.7,0,0,1,4.39,3.06l2.82,7.66a1.75,1.75,0,0,1-.66,2.07,1.87,1.87,0,0,1-.91.25,1.73,1.73,0,0,1-1.58-1.12l-1.86-5.09V38.75A16.63,16.63,0,0,0,37.7,22.67ZM21,18.55a4.1,4.1,0,1,1,3.87-4.28A4.08,4.08,0,0,1,21,18.55Z"></path>
      </g>
      <path class="cls-3" d="M20.59,10.36a4.1,4.1,0,1,0,4.24,3.91A4.08,4.08,0,0,0,20.59,10.36Z"></path>
      <path class="cls-3" d="M27.15,31.43a1.73,1.73,0,0,0,1.58,1.12,1.87,1.87,0,0,0,.91-.25,1.75,1.75,0,0,0,.66-2.07l-2.82-7.66a4.7,4.7,0,0,0-4.39-3.06H18.45a4.7,4.7,0,0,0-4.39,3.06l-2.81,7.7a1.68,1.68,0,1,0,3.15,1.16l1.86-5.09V38.61a16.91,16.91,0,0,0,3.93.66V35.16a.58.58,0,1,1,1.16,0V39.3a16.5,16.5,0,0,0,3.94-.55V26.34Z"></path>
    </g>
    <g>
      <g>
        <g>
          <path class="cls-5" d="M20.77,73a.57.57,0,0,0-.58.58v4.11c.29,0,.58,0,.87,0l.29,0V73.58A.57.57,0,0,0,20.77,73Z"></path>
          <path class="cls-5" d="M37.7,61.09A16.65,16.65,0,1,0,16.26,77V64.76L14.4,69.85a1.68,1.68,0,1,1-3.15-1.16L14.06,61a4.7,4.7,0,0,1,4.39-3.06h4.64A4.7,4.7,0,0,1,27.48,61l2.82,7.66a1.75,1.75,0,0,1-.66,2.07,1.87,1.87,0,0,1-.91.25,1.73,1.73,0,0,1-1.58-1.12l-1.86-5.09V77.17A16.63,16.63,0,0,0,37.7,61.09ZM21,57a4.1,4.1,0,1,1,3.87-4.28A4.08,4.08,0,0,1,21,57Z"></path>
        </g>
        <path class="cls-3" d="M20.59,48.78a4.1,4.1,0,1,0,4.24,3.91A4.08,4.08,0,0,0,20.59,48.78Z"></path>
        <path class="cls-3" d="M27.15,69.85A1.73,1.73,0,0,0,28.73,71a1.87,1.87,0,0,0,.91-.25,1.75,1.75,0,0,0,.66-2.07L27.48,61a4.7,4.7,0,0,0-4.39-3.06H18.45A4.7,4.7,0,0,0,14.06,61l-2.81,7.7a1.68,1.68,0,1,0,3.15,1.16l1.86-5.09V77a16.91,16.91,0,0,0,3.93.66V73.58a.58.58,0,0,1,1.16,0v4.14a16.5,16.5,0,0,0,3.94-.55V64.76Z"></path>
      </g>
      <g>
        <circle class="cls-6" cx="20.73" cy="54.4" r="2.81"></circle>
        <path class="cls-6" d="M24.88,57.24c-.75,0-2.12,1.62-4.09,1.62s-3.4-1.62-4.12-1.62-2,.37-2,1.53a2.27,2.27,0,0,0,.81,1.75l1.63.81v.72s-1.63,2.56-1.63,3.34.82,2.43,2,2.43A1.83,1.83,0,0,0,19.17,67l1.22-2.43h.78L22.45,67a1.63,1.63,0,0,0,1.53.81c1.15,0,2.06-1.62,2.06-2.43s-1.63-3.25-1.63-3.25v-.81L26,60.52a2.08,2.08,0,0,0,.81-1.72A1.81,1.81,0,0,0,24.88,57.24Z"></path>
      </g>
    </g>
  </g>
</svg>
