<svg xmlns="http://www.w3.org/2000/svg" viewBox="0 0 85.039 85.042"><defs><style>.a{fill:none;}.b{fill:#ffe000;}</style></defs><title>discourse-volume-s-final-color</title><path class="a" d="M53.814,20.3c6.009,3.062,13.4,6.531,16.849,6.688C70.756,24.412,63.264,20.5,53.814,20.3Z"/><path class="a" d="M19.062,25.651c-9.089,9.207-6.73,28.762-.254,35.04C13.533,50.482,13.587,35.876,19.062,25.651Z"/><path class="a" d="M49.162,65.938c11.489,0.98,21.783-3.778,21.489-7.138C66.149,58.022,53.293,63.989,49.162,65.938Z"/><path class="b" d="M21.664,65.2c-13.735-3.472-16.139-38.932,1-44.847a31.3,31.3,0,0,1,9.313-7.556C-5.664,3.705-6.114,81.614,29.33,72.3A30.111,30.111,0,0,1,21.664,65.2Z"/><path class="b" d="M35.673,61.37a24.912,24.912,0,0,0,9,3.887c9.591-4.7,23.668-11,27.729-8.5,0.929,0.569,1.315,3.114-.239,5.128-7.476,9.693-47.192,13.056-47.192-18.437,0-34.906,48.248-27.568,48.248-16.725,0,1.3-.239,2.216-0.64,2.457-3.265,1.965-15.842-4.421-23.84-8.636a29.345,29.345,0,0,0-10.3,3.061c12.921,6.65,42.441,24.535,42.27,3.05a10.824,10.824,0,0,0-.433-2.871C76.072,8.754,39.35,3.417,24.14,22.56c-13.6,17.109-7.971,53.576,28.144,53.576,12.163,0,28.436-5.468,28.436-16.894C80.719,38.755,51.177,53.528,35.673,61.37Z"/></svg>