<svg id="Layer_1" data-name="Layer 1" xmlns="http://www.w3.org/2000/svg" viewBox="0 0 283.46 283.46">
  <defs>
    <style>
      .cls-1 {
        fill: #fffb00;
      }

      .cls-2 {
        fill: #1e631f;
      }
    </style>
  </defs>
  <title>EFC</title>
  <g>
    <circle class="cls-1" cx="141.73" cy="141.73" r="82.73"/>
    <path class="cls-2" d="M181.28,97.84c-2.13.56-6.62,1.57-10,2.23-8.54,1.68-9.9,2.18-13.7,5-5.4,4-9.18,11.79-9.15,18.84,0,2.69.42,4.6.87,4.1a11.49,11.49,0,0,0,.8-1.7c1.62-3.91,6.34-9.87,10.35-13.09,2.05-1.65,6.17-3.27,6.17-2.42a18.89,18.89,0,0,1-3.08,3.8c-1.57,1.68-2.1,2.37-5.06,6.65a106.2,106.2,0,0,0-9.74,19.69c-2.61,6.94-4.52,12.48-5.8,16.63-2.15,7.1-4.1,12.72-4.44,12.82s-1.6-3.65-4-13.09c-3.8-14.79-5.43-19.87-9.31-29.13-2.66-6.31-6.17-11.36-13.31-19.1-3.91-4.28-9.47-8.38-12.82-9.5-2.18-.74-2.37-.37-.72,1.46a108.5,108.5,0,0,1,17,24.48c4,7.85,6.79,15.65,11.82,33.52,1.27,4.58,4.1,16.23,5,20.75,1,5,2.13,10,2.42,10.72a1.56,1.56,0,0,0,.91.67,26.92,26.92,0,0,0,6.2,0c1.38-.4,1.65-1.49,3.56-14.05A145.25,145.25,0,0,1,149.81,156c3.7-12.93,7.64-22.4,10-23.95a18.4,18.4,0,0,1,3.83-.93c6.92-1.14,12.48-4.2,16.42-9.07,2.63-3.25,3.32-5.64,4-13.62a29,29,0,0,1,1.36-8,17.43,17.43,0,0,0,.8-3.33C186,96.64,185.62,96.69,181.28,97.84Z"/>
  </g>
</svg>
