<svg id="Layer_1" data-name="Layer 1" xmlns="http://www.w3.org/2000/svg" viewBox="0 0 283.46 283.46">
  <defs>
    <style>
      .cls-1 {
        fill: #00b0a5;
      }

      .cls-2 {
        fill: #2f2229;
      }

      .cls-3 {
        fill: #e5e5e5;
      }

      .cls-4 {
        fill: #fff;
      }
    </style>
  </defs>
  <title>SKILLPAD</title>
  <g>
    <path class="cls-1" d="M176.09,57.28H117a50,50,0,0,0-50,50v68.85a50,50,0,0,0,50,50h59.08a50,50,0,0,0,50-50V107.31a50,50,0,0,0-50-50"/>
    <path class="cls-2" d="M80.41,91.09a18.13,18.13,0,1,1,18.13,18.13A18.13,18.13,0,0,1,80.41,91.09"/>
    <path class="cls-2" d="M81,140.55a18.13,18.13,0,1,1,18.13,18.13A18.13,18.13,0,0,1,81,140.55"/>
    <path class="cls-2" d="M80.41,189a18.13,18.13,0,1,1,18.13,18.13A18.13,18.13,0,0,1,80.41,189"/>
    <path class="cls-3" d="M99.14,149.64H66c-20.59,0-31.36-16.86-31.36-33.52A37.12,37.12,0,0,1,42.1,93.35,29,29,0,0,1,65.52,82H98.63a9.08,9.08,0,0,1,0,18.16H65.52a10.83,10.83,0,0,0-9.09,4.33,19.2,19.2,0,0,0-3.6,11.61c0,2.56.64,15.36,13.2,15.36H99.14a9.08,9.08,0,1,1,0,18.16"/>
    <path class="cls-3" d="M99.14,197.51H54.88a9.08,9.08,0,0,1,0-18.16H99.14a9.08,9.08,0,1,1,0,18.16"/>
    <path class="cls-4" d="M143.66,198.1h0a9.08,9.08,0,0,1-9-9.13l.5-99a9.08,9.08,0,0,1,9.08-9h33.11A28.4,28.4,0,0,1,200.95,93.4a42,42,0,0,1,7.19,24.13c0,17.86-10.77,35.94-31.36,35.94H152.92l-.18,35.6a9.08,9.08,0,0,1-9.08,9M153,135.3h23.76a11,11,0,0,0,9.46-4.66c2.38-3.24,3.74-8,3.74-13.11,0-13.51-7.59-18.41-12.7-18.41H153.2Z"/>
  </g>
</svg>
