<svg id="Layer_1" data-name="Layer 1" xmlns="http://www.w3.org/2000/svg" viewBox="0 0 283.46 283.46">
  <defs>
    <style>
      .cls-1, .cls-2 {
        fill: #4d4d4d;
      }

      .cls-1 {
        fill-rule: evenodd;
      }
    </style>
  </defs>
  <title>Observers-tower</title>
  <g>
    <g>
      <path class="cls-1" d="M82.68,254.95c.69,0,1.37,0,2.06,0h27.49a1.27,1.27,0,0,0,1.17-1.51,9.13,9.13,0,0,1,0-1.82c0-.51.1-1,.15-1.52a1.47,1.47,0,0,0-.47-1.22,2.69,2.69,0,0,1-.54-2.43,24.91,24.91,0,0,1,.83-2.92,2.5,2.5,0,0,1,.77-1,1,1,0,0,0,.39-.9.78.78,0,0,1,.58-.91c.38-.09.75-.07.91.4-.87-.43-1.05-.32-1.06.6a1.11,1.11,0,0,1-.34.7,4,4,0,0,0-1.36,3.43c.05.56.14,1.3,1,1.47a.58.58,0,0,1,.48.75,15.9,15.9,0,0,1-.53,2.76,6,6,0,0,0-.18,3c.16-.83.28-1.62.48-2.39s.45-1.3.68-1.94c-.14,1.64-.29,3.29-.42,4.93a.87.87,0,0,0,.12.42s.25,0,.25,0a1.94,1.94,0,0,0,0-.43c0-.27-.05-.54,0-.8,0-1.37.05-2.73.08-4.1l.18-.24c.06.07.16.12.17.2a3.64,3.64,0,0,1,.09.82c-.07,1.19-.18,2.37-.25,3.56a1.55,1.55,0,0,0,.15.8c.07.13.36.16.55.18,0,0,.1-.22.15-.34a1.6,1.6,0,0,0,1.41.44q8.59,0,17.18,0c.27,0,.75.09.77.2a4.24,4.24,0,0,1,0,1.45c0,.1-.49.16-.75.16H83.57l-.89,0Z"/>
      <path class="cls-1" d="M200.78,256.7H86.06c-3,0-3.7-.37-2.93-1.62a1.67,1.67,0,0,1,.89-.32,12.37,12.37,0,0,1,1.46,0H199c.59,0,1.17,0,1.76,0Z"/>
      <path class="cls-1" d="M139.68,255.2c.08-.06,0-.32.07-.36l-.08-.22a5.37,5.37,0,0,0-.68-.08h-9.45a1.92,1.92,0,0,1-.53,0c-.16,0-.38-.16-.41-.28a.56.56,0,0,1,.23-.44c.44-.3.45-.57,0-.85a.56.56,0,0,1-.25-.39c0-.12.17-.25.26-.37s.3-.31.3-.47c0-2.1,0-4.21,0-6.31a.51.51,0,0,0,0-.23c-.76-1.33,0-2.42.62-3.47a15.93,15.93,0,0,1,4.59-4.44,4.67,4.67,0,0,0,.61-.78.73.73,0,0,1,.35-.23c.21-.05.46,0,.63-.09s.27-.33.41-.5c-.17-.09-.34-.24-.51-.25-.88,0-1.77,0-2.66,0-.19,0-.37-.23-.56-.35a4.69,4.69,0,0,1,.53-.41c.09-.05.26,0,.34,0a2.63,2.63,0,0,0,.39-.39c-.14-.13-.26-.36-.41-.37-.68-.06-1.37-.05-2.06-.08-.24,0-.59.14-.61-.32s.31-.33.57-.4a.74.74,0,0,0,.48-.34c.1-.27,0-.5-.38-.49a13.47,13.47,0,0,1-1.47,0c-.19,0-.36-.19-.54-.3.15-.16.29-.43.46-.45.39-.05.49-.28.39-.56s-.32-.25-.5-.29-.55,0-.82,0a.41.41,0,0,1-.28-.29c0-.14.13-.28.21-.41s.31-.32.32-.5-.23-.31-.39-.35c-.45-.1-.51-.37-.28-.68s.39-.69,0-1.06c-.09-.08,0-.36,0-.54a4.22,4.22,0,0,0,.24-.79c0-2.32.06-4.65,0-7a6.87,6.87,0,0,1,2.12-5,26.23,26.23,0,0,1,4.78-3.83l.51-.34H134c-.28,0-.58,0-.59-.4s.3-.39.58-.4h.59c.31,0,.6,0,.59-.44s-.33-.41-.62-.41H132c-.25,0-.55,0-.55-.35s.3-.34.55-.35a1.8,1.8,0,0,0,.64,0A.74.74,0,0,0,133,207c0-.09-.23-.33-.37-.34-.71,0-1.42,0-2.12,0-.28,0-.59,0-.59-.4s.3-.39.58-.4h.35c.32,0,.53-.12.44-.44a.63.63,0,0,0-.42-.39c-.47-.05-.95,0-1.41,0-.17,0-.33-.21-.49-.32.16-.12.3-.31.47-.34s.6,0,.6-.44-.36-.41-.66-.43a1.45,1.45,0,0,1-.52,0,.63.63,0,0,1-.32-.39c0-.1.18-.32.3-.34.31,0,.52-.1.51-.48s-.25-.36-.51-.41a.49.49,0,0,1-.29-.34c0-.09.15-.23.25-.32s.4-.25.4-.36a.91.91,0,0,0-.3-.53c-.29-.29-.3-.5,0-.76a.74.74,0,0,0,.28-.49c0-1.52,0-3,0-4.55a6.3,6.3,0,0,0-.23-1.08,5.75,5.75,0,0,1,1.92-5.37c1.16-1.16,2.5-2.15,3.76-3.21.15-.12.31-.23.46-.34-.05-.05-.07-.1-.1-.1-.28-.07-.71.09-.71-.41s.45-.35.75-.4.47,0,.58-.16a.42.42,0,0,0-.38-.67c-.87,0-1.73,0-2.6,0-.17,0-.33-.21-.5-.33a5.62,5.62,0,0,1,.5-.42c.07,0,.22,0,.28,0a3.54,3.54,0,0,0,.4-.39c-.14-.13-.26-.35-.41-.36-.61,0-1.22,0-1.83,0-.24,0-.63-.19-.66-.36-.1-.43.31-.35.59-.43s.28-.27.42-.41c-.14-.14-.27-.37-.43-.39-.45-.06-.91,0-1.35,0-.15,0-.29-.19-.43-.29.11-.15.2-.39.35-.44s.55-.16.43-.48c-.06-.16-.34-.26-.55-.34s-.33,0-.46,0-.33-.18-.35-.31a.55.55,0,0,1,.2-.42c.4-.34.38-.58,0-.89a.65.65,0,0,1-.17-.6.83.83,0,0,0,0-1.07.72.72,0,0,1,0-.49,7,7,0,0,0,.23-1c0-2,.07-4.1,0-6.14a6.66,6.66,0,0,1,2.14-5.18,41.53,41.53,0,0,1,3.41-2.9c.74-.59,1.56-1.08,2.45-1.68h-3a2.4,2.4,0,0,1-.65,0c-.13,0-.32-.22-.31-.32a.54.54,0,0,1,.29-.41c.3-.07.63,0,.94-.05s.44-.19.46-.33c.06-.29-.09-.52-.47-.51-.79,0-1.57,0-2.36,0a1.38,1.38,0,0,1-.47,0c-.12,0-.29-.2-.27-.29a.49.49,0,0,1,.27-.36,2.81,2.81,0,0,1,.76,0c.31,0,.48-.09.47-.43s-.21-.41-.5-.41h-1.83c-.27,0-.59,0-.59-.38s.29-.41.58-.41c.12,0,.27,0,.35,0s.34-.28.34-.42a.54.54,0,0,0-.35-.39c-.41-.05-.83,0-1.24,0-.18,0-.34-.21-.52-.32a4.45,4.45,0,0,1,.49-.36c.16-.09.41-.07.5-.19a.42.42,0,0,0-.37-.65,1.72,1.72,0,0,1-.47,0c-.16-.06-.4-.22-.39-.31a.59.59,0,0,1,.32-.44c.29-.06.47-.11.47-.46s-.2-.4-.49-.43c-.12,0-.33-.24-.3-.31a1,1,0,0,1,.34-.37c.14-.11.41-.19.41-.28a.87.87,0,0,0-.24-.58.47.47,0,0,1,0-.75,1.18,1.18,0,0,0,.29-.62c0-1.24,0-2.48,0-3.72a9.91,9.91,0,0,0-.35-1.65,5,5,0,0,1,1-4,18.52,18.52,0,0,1,5-4.59l.91-.62c-.67,0-1.19,0-1.71,0a.64.64,0,0,1-.46-.36c-.09-.35.19-.41.48-.41s.3,0,.41,0,.38-.27.37-.38-.23-.42-.37-.43c-.81,0-1.61,0-2.42,0-.19,0-.51-.19-.54-.34-.07-.37.27-.33.52-.35s.52,0,.63-.16,0-.67-.4-.68c-.61,0-1.22,0-1.83,0-.19,0-.35-.25-.53-.38.16-.13.31-.35.48-.37.34,0,.57-.16.46-.49a.76.76,0,0,0-.53-.35c-.32-.06-.67,0-1,0-.17,0-.31-.21-.46-.32l.36-.37.43-.5a5.44,5.44,0,0,0-.56-.34,7.15,7.15,0,0,0-.68-.24,2.31,2.31,0,0,0,.29-.61c0-.25.07-.64-.07-.76-.31-.26-.3-.45-.1-.74a.76.76,0,0,0,.16-.48c-.21-1.43.1-2.85,0-4.28s0-2.87,0-4.31a6.35,6.35,0,0,1,2.13-4.4c1.19-1.17,2.49-2.21,3.75-3.31,0-.13-.23-.41-.15-.57s.41-.19.64-.23a2.73,2.73,0,0,1,.59,0c.3,0,.49-.08.49-.43s-.2-.42-.49-.41h-2.83c-.28,0-.66.1-.67-.36s.39-.39.69-.42c.14,0,.28,0,.41,0s.53,0,.54-.38-.24-.4-.52-.4h-2.13a1,1,0,0,1-.46,0c-.13-.07-.3-.27-.27-.37a.59.59,0,0,1,.36-.35,1.94,1.94,0,0,1,.64,0c.32,0,.53-.12.44-.44a.63.63,0,0,0-.43-.38c-.59,0-1.18,0-1.77,0-.17,0-.33-.22-.49-.34a4.3,4.3,0,0,1,.51-.41c.09-.05.25,0,.35,0a2.36,2.36,0,0,0,.4-.3c-.13-.16-.24-.42-.4-.46-.34-.07-.71,0-1.05-.05-.18,0-.33-.24-.5-.36.16-.13.3-.33.47-.36s.49-.09.49-.44-.2-.4-.49-.43a1.88,1.88,0,0,1-.56-.28,2.68,2.68,0,0,1,.44-.5.46.46,0,0,0,.09-.73c-.72-.58-.72-.58.25-1a2.84,2.84,0,0,0-.54-.14c-1,0-2,0-3,0-.41,0-.56-.16-.56-.55,0-.65,0-1.3,0-1.95,0-1.72,0-3.45,0-5.17s0-3.25,0-4.87a.61.61,0,0,1,.33-.42,1.51,1.51,0,0,1,.58,0h27.87c-.29-.9-.08-1.53.79-1.85a1.17,1.17,0,0,1,.39-1.82c-.46.84-.41,1.19.24,1.44-.21.22-.41.43-.61.65s-.39.38-.36.49c.13.38.33,1,.56,1a26.83,26.83,0,0,0,3.12,0l-.81-1.68A5.65,5.65,0,0,1,158,82a.52.52,0,0,0,.61.44c1.61,0,3.23,0,4.84,0,.51,0,.71.07.65.7-.08.9.09,1.83.09,2.74s-.11,2.11-.12,3.17q0,2.87,0,5.74c0,.48-.13.67-.63.64-.68,0-1.37,0-2.06,0-.27,0-.53,0-.79.06l.16.13a6.92,6.92,0,0,0-.27,1,1.37,1.37,0,0,0,.13.75c.19.37.23.61-.25.74a.47.47,0,0,0-.28.35,1,1,0,0,0,.22.47c.1.16.22.3.33.45a2,2,0,0,1-.49.31c-.2.06-.44,0-.64,0s-.34.21-.36.34a.5.5,0,0,0,.28.4c.28.08.62.11.49.48-.06.16-.39.29-.62.32-.39.05-.79,0-1.18,0-.16,0-.29.26-.44.39.14.14.27.29.42.42s.13,0,.17,0,.31.22.46.34c-.15.14-.29.39-.45.41-.67,0-1.34,0-2,0-.27,0-.58,0-.58.39s.3.39.57.39c.08,0,.18,0,.23,0s.32.27.47.41c-.16.12-.32.34-.49.35-.8,0-1.61,0-2.42,0-.29,0-.72-.17-.73.4s.4.39.7.44.56.06.66.21-.05.44-.11.74l2.35,1.94c.51.56,1,1.13,1.54,1.68,0,.05.17,0,.26,0a2,2,0,0,1,1,1.26c.07.28.37.51.57.77,0,.06.13.11.15.17a10.77,10.77,0,0,1,.41,2.06c0,2.83,0,5.66,0,8.5a21.75,21.75,0,0,1-.14,2.19c0,.13-.22.3-.37.35-.46.16-.56.47-.29.86.1.14.21.38.16.49s-.3.19-.48.21-.48,0-.7,0-.38.19-.38.3.13.35.22.52.21.35.32.52a1.65,1.65,0,0,1-.52.26c-.43,0-.86,0-1.3,0-.27,0-.52,0-.52.39s.1.46.43.49c.13,0,.24.22.36.34-.13.11-.26.31-.4.32-.69,0-1.38,0-2.06,0-.27,0-.57-.05-.58.38s.18.44.5.48c.16,0,.3.25.45.38-.16.13-.31.35-.48.37a13,13,0,0,0-1.52.13l3.36,2.68,1.83,1.94s.14,0,.21,0a5.29,5.29,0,0,1,1.48,4.06c-.06,1,0,2.08,0,3.12,0,1.43-.06,2.87,0,4.3,0,.57.44,1.12,0,1.7-.05.07.12.33.22.49.23.37.11.61-.31.71-.19,0-.44.17-.5.32s0,.51.41.55c.1,0,.25.26.23.37a.48.48,0,0,1-.35.28c-.31,0-.64,0-.94,0s-.4.25-.41.39.22.31.37.44.47.26.5.42c.06.4-.3.38-.57.38h-1.3c-.31,0-.61,0-.6.43s.27.42.56.41c.06,0,.14,0,.17,0s.24.24.36.36c-.13.11-.25.31-.39.31-.75,0-1.49,0-2.24,0-.29,0-.55,0-.55.41s.21.46.53.44h.06c.29,0,.7-.11.7.39s-.45.39-.74.4c-.75,0-1.49,0-2.24,0l-.68,0a2.86,2.86,0,0,0,.33.34c1,.69,2,1.41,3,2a3.57,3.57,0,0,1,.87.86,9.49,9.49,0,0,0,1.42,1.2h0a1.91,1.91,0,0,0,1.21,1.34c.14,0,.2.31.29.48l.62,1.13c.05.1.17.18.18.28a19.61,19.61,0,0,1,.24,2.25c0,2.69,0,5.39,0,8.08a7.92,7.92,0,0,1-.21,1,3.21,3.21,0,0,0,0,1c.07.45,0,.71-.5.75s-.57.36-.29.78c.11.16.24.42.18.55s-.34.19-.54.22-.52,0-.76,0a.75.75,0,0,0-.5.31c-.1.24,0,.49.34.54a.49.49,0,0,1,.29.39.53.53,0,0,1-.37.34c-.57,0-1.14,0-1.71.05-.16,0-.31.2-.47.3.13.15.23.39.39.45s.53.18.41.49a.67.67,0,0,1-.51.29c-.71,0-1.42,0-2.12,0a.57.57,0,0,0-.39.35.5.5,0,0,0,.23.44c.29.1.78,0,.66.48,0,.2-.44.31-.74.51l1.31,1.09a1.43,1.43,0,0,0,.22.27,18.58,18.58,0,0,1,3.5,3.44s.14,0,.21,0a4.92,4.92,0,0,1,1,3.34c0,.94,0,1.89,0,2.83,0,1.1,0,2.2,0,3.31,0,.27.1.53.13.8a1.39,1.39,0,0,1,0,.56c-.13.39-.25.73.14,1.07.07.07,0,.46-.13.56-.36.31-.32.56,0,.88.12.14.27.39.22.51s-.32.24-.51.26-.69,0-.6.47a.53.53,0,0,0,.32.37c.29,0,.49.15.39.43s-.3.25-.48.28c-.33,0-.68,0-1,0-.16,0-.4.26-.4.39s.22.37.38.41.61.08.5.46c0,.16-.35.32-.55.34a16.09,16.09,0,0,1-1.65,0c-.31,0-.48.08-.48.43s.18.44.49.42a.59.59,0,0,1,.29,0,3,3,0,0,1,.4.31c-.13.12-.26.35-.4.36-.79,0-1.57,0-2.36,0-.3,0-.55,0-.55.42s.23.44.54.43c.08,0,.18,0,.23,0s.36.26.54.39c-.17.13-.34.37-.52.39-.66,0-1.33,0-2.15,0l3.06,2.41,0,0c.82,0,1.11.74,1.61,1.19.24.22.54.37.79.58a2.36,2.36,0,0,1,.27.4c.31.41.64.8.94,1.22a1.5,1.5,0,0,1,.27.59c.07.41,0,.87.51,1.08.08,0,.12.27.12.42,0,1.65.09,3.3.1,5s0,3.43,0,5.14a6.94,6.94,0,0,1-.37,1.22,1.78,1.78,0,0,0,0,.79c.11.45.09.72-.49.69a1.75,1.75,0,0,0-.62.22c.09.23.18.46.26.69a1,1,0,0,1,.11.48c0,.1-.23.21-.36.22-.41,0-.83,0-1.24,0-.16,0-.42.22-.41.32s.19.34.31.5.24.27.36.41c-.15.11-.3.31-.46.32-.59,0-1.18,0-1.76.06-.17,0-.32.23-.48.35l.42.42.49.46c-.2.11-.39.31-.59.32-.73,0-1.46,0-2.18,0-.28,0-.51,0-.51.39s.15.47.47.44.45.14.59.43a3,3,0,0,0,.75.95c1,.89,2.08,1.73,3.1,2.62a4.66,4.66,0,0,1,.68.89c.4.58,1.07,1,1.23,1.74a10.51,10.51,0,0,1,.36,1.9c0,2.12,0,4.25,0,6.38a11.8,11.8,0,0,0,.17,1.26,2.57,2.57,0,0,1,0,.46,4.06,4.06,0,0,0,0,1c.12.64.08.72-.59.73h-9.8a2.57,2.57,0,0,0-.63.17c.14.17-.2.37,0,.5Zm10.43-52.91.33-.42c-.81,0-.81,0-.82.47l.49-.06-.83.47c0-1,0-1.94,0-2.9,0-.57-.12-.77-.7-.76-1.81.06-3.61.1-5.42.09-.65,0-.73.3-.74.82,0,.88-.09,1.75-.11,2.63,0,.6,0,1.2,0,2l2-.82-.34,1.65,1.42-.58-1.8,1,.16-1.32c-1.23.16-1.54.61-1.34,1.77l1.19-.46-.41.43,1.13-.43a3.49,3.49,0,0,0-.18,1c0,.09.48.16.75.2a7.53,7.53,0,0,0,.88,0c0-.58,0-1.1,0-1.62,0-.06-.14-.12-.22-.18l0-.41.52-.26h.6c-.94.68-.36,1.61-.51,2.45h1.34c-.18-.95.39-1.09,1.24-1a5.84,5.84,0,0,0-.3-.84c-.17-.3-.27-.49.1-.76a.39.39,0,0,0-.14-.73l.22-.46.64-.42-.22.38,2.37-1.23-1,.77c1,.1,1,.08,1-.77l.13-.48h-2.16v.18a3.37,3.37,0,0,0,2.16-.18Zm3.76-54.21-.25.5a6.62,6.62,0,0,0,.93-.3,2.92,2.92,0,0,0-.15-.54l.53-.58-.39.16a1.66,1.66,0,0,0-.53-.22c-.71,0-1.41,0-2.12,0h-2.3c0,.08,0,.16,0,.24a32.4,32.4,0,0,0,4.82,0l-1.09.72.29-.43h-3.51c-.32,0-.52.07-.51.45s.23.4.51.4a6.22,6.22,0,0,0,3.24-.43l-.8.68.31,0-.07.16h1.72v-.27l-1.66.12Zm2.87,50.17a.84.84,0,0,0,1.16,0s0-.09-.06-.09l-1-.06a4.72,4.72,0,0,0,.5-.47c.28-.35.53-.72.79-1.08.21-.14.49-.23.63-.43.46-.67.87-1.38,1.29-2.07v8.42c.08-2.67.08-5.34.07-8a2.08,2.08,0,0,0-.08-.4c.31-1.68.29-2.58-.09-3.21a4.72,4.72,0,0,1-.42,3.75,22.21,22.21,0,0,1-1.4,2l-.19.12c-.09-.05-.17-.14-.26-.15-.55,0-1.09,0-1.64,0l-6.11,0a1.62,1.62,0,0,0-.42.11l0,.19h8.25l-.5.54a2,2,0,0,0-.64-.24c-2.14,0-4.29,0-6.43,0-.29,0-.66-.11-.67.41s.33.44.64.44h5.6a6.53,6.53,0,0,0,.86-.12Zm-5.43-48.54-.13.29c1,.07,1.06,0,.92-.56l-.81.27,1.08-.72v8.88c.08-2.84.08-5.69.08-8.53a1.33,1.33,0,0,0-.09-.34l-.15-.19a10.63,10.63,0,0,0-2.78-.11q0,.16,0,.31l2.6-.13-1.44.83.53-.53h-.93c-.65,0-.71.11-.5.82l.91-.3-1,.72-.72.24c0-.15,0-.4.07-.45.49-.28.33-.69.29-1.09a3.41,3.41,0,0,1,0-.46q.05-2.44.12-4.88c0-.41-.2-.56-.58-.54l-1.42,0c-1.44,0-2.87,0-4.31.09-.66,0-.9.47-.63,1.07a1.17,1.17,0,0,1,.08.51c-.06,1.83-.12,3.65-.2,5.48,0,.51.17.69.68.68,1.73,0,3.46,0,5.19,0l-.94.54.25-.37h-4.41c-.79,0-.85.09-.71,1l1.15-.43,1.06-.45a8.93,8.93,0,0,1-1.6,1c-.82.43-.9.66-.52,1.55l1.08-.42-2.45,1.5a2.19,2.19,0,0,0,.58-.22l1.83-.89a4.28,4.28,0,0,0-.73.54,1.63,1.63,0,0,0-.5.84c-.06,1.2,0,2.41,0,3.63l.6.05c.74,0,.74,0,.74-.71,0-1,0-2,0-2.94,0-.46-.06-.93-.09-1.39l0-.4,1.55-.82-1,.71,0,.07,1.07-.51a3,3,0,0,1-.59.45.86.86,0,0,0-.58.95c0,1.18,0,2.36,0,3.53v1.09c1.53-.25,1.09-1.45,1.34-2.31l.07,1,.24.08a5.88,5.88,0,0,0,.9-1.73,20.32,20.32,0,0,0,0-3.23c0-.13-.18-.25-.28-.38l.25-.51.51-.28c-.14.27,0,.27.22.26-.09.14-.26.28-.26.43,0,1.29,0,2.57,0,3.86h.16v-1.3l1-.08A5.36,5.36,0,0,0,148,154c-.22-.56-.14-.71.45-.71l.66,0c-.18-.33-.28-.58-.43-.8-.33-.5-.28-.65.28-.75.12,0,.22-.14.34-.22a.63.63,0,0,0-.75-.16l.46-.39.64-.52.61-.12c0,.08.05.24.08.24.44,0,.89,0,1.33,0q0-.12,0-.24h-1.42Zm2.62,50.65-.84.75c.9.12.94.08.84-.74.26-.35.26-.35,0-.39s-.29-.23-.43-.23c-1.05,0-2.1,0-3.16,0a4.3,4.3,0,0,0-.73.14l0,.15h4.13l-1.41.94.57-.65H150c-.3,0-.48.08-.48.43s.18.44.48.42l2.17-.11c0,.2-.56.17-.21.51a5,5,0,0,0,1.8.06q0-.14,0-.29h-1.47Zm.81-.57V200h1.48v-.21h-1.49a3.37,3.37,0,0,1,.74-.49c.54-.18.69-.61.82-1.08a1.18,1.18,0,0,0-.28-.07h-6.13a1.3,1.3,0,0,0-.34.1c0,.06,0,.11,0,.17a5.56,5.56,0,0,0,.57.06c1.67,0,3.34,0,5,0a6.32,6.32,0,0,0,1.18-.24l-1.34,1,.43-.53c-1.85,0-3.65,0-5.44,0-.13,0-.36.27-.34.38a.62.62,0,0,0,.38.42,3.16,3.16,0,0,0,.94,0c1.35-.11,2.74.3,4-.31l-.63.53.08.11Zm-10.3,31.87h.42a2.63,2.63,0,0,0-.15.61c0,1.43,0,2.87,0,4.3a2.9,2.9,0,0,0,.08.44,2.32,2.32,0,0,0,1.12-2.27l.17.33a3.3,3.3,0,0,1,.79-.35c.35,0,.41-.22.4-.51,0-.72,0-1.45,0-2.17,0-.31,0-.61,0-.89a2.35,2.35,0,0,0-1.84.28l1-.69.87-.59h.39s0,.08,0,.12c0,.29-.17.66.36.68s.5-.26.45-.62.09-.43.4-.42c.48,0,.55-.2.28-.56l1.08-.84a3.7,3.7,0,0,0,.65-.23c1-.58,2-1.17,3-1.76a4.38,4.38,0,0,0,.92.15.62.62,0,0,0,.46-.34c.09-.26,0-.5-.37-.49l1.56-1.13-.09.33a2,2,0,0,0,.68,0,.58.58,0,0,0,.23-.45c0-.08-.22-.17-.34-.25l.64-.64a.94.94,0,0,0,1.43,0h-1.44l1.65-1.74.34,3h.06v-3.34l-.27.09.52-.92v4h0v-4c.07-.22.13-.44.2-.66a4.55,4.55,0,0,0-.13-3.37.84.84,0,0,0,.06.32,4.43,4.43,0,0,1-.63,4,7.49,7.49,0,0,0,.3-1.29,16.94,16.94,0,0,0,0-2.53,6.35,6.35,0,0,0-.47-1.41l-.19.07v5.39l.38-.24-.61.86v-6.53c-.06,1.8-.07,3.61-.06,5.41,0,.37,0,.74.07,1.11l-.48.65a7.1,7.1,0,0,0,.2-1.15c0-1.85-.05-3.7,0-5.55a2.44,2.44,0,0,0-1.22-2.12c0,2.63,0,5.16,0,7.7,0,.14.25.32.42.41s.44.53.19.69a1.1,1.1,0,0,1-.56.1h-7.14c-.29,0-.61-.06-.61.41s.29.43.59.43h5.49c.8,0,1.63.13,2.19-.66,0,0,.11,0,.17-.05l-1.05,1c-.07,0-.13-.09-.2-.09h-6.89a1.33,1.33,0,0,0-.34.1c0,.05,0,.1,0,.16a3,3,0,0,0,.46.07c1.37,0,2.75,0,4.12,0,.92,0,1.83-.08,2.75-.12l-.7.6c.1-.41-.22-.29-.39-.29h-5.65c-.3,0-.54,0-.55.42s.22.44.53.44c1.24,0,2.47,0,3.71,0,.65,0,1.3-.15,2-.23l-1.05.76c.07-.43-.27-.25-.42-.25-1.49,0-3,0-4.46,0a.91.91,0,0,0-.3.12,1.78,1.78,0,0,0,.81.17l4.38-.05-.79.58c-.12-.1-.23-.27-.35-.28-1.18,0-2.36,0-3.54,0-.32,0-.53.11-.44.44,0,.16.28.39.42.39,1.13,0,2.26-.13,3.39-.21l-.82.55-3.11-.07a2,2,0,0,0-.08.28l3-.14-1.23.73.26-.43c-.46,0-.87,0-1.28,0a.79.79,0,0,0-.54.2c-.08.12,0,.48.06.53a1,1,0,0,0,.66,0,6.36,6.36,0,0,0,.85-.34l-.94.71-1.31.59c0-.23,0-.58.09-.66.43-.3.28-.69.27-1.06s0-.86,0-1.29c0-1,0-2,0-3l-.64,0-5.31,0c-.81,0-.83.06-.84.88,0,1.92-.05,3.83-.11,5.75,0,.93,0,1,.89.63.68-.31,1.36-.64,2-1l.06.11-2.23,1.29a6,6,0,0,0,3-.19l-1.17.68a1.75,1.75,0,0,0-.5-.18c-.43,0-.86,0-1.29,0-.83,0-1.06.48-.62,1.23l.83-.25-1.85,1.15,0,0,1.94-.88a9.35,9.35,0,0,0-.79.56.86.86,0,0,0-.33.49c0,.64,0,1.29,0,1.93,0,1,0,1.94,0,3.12.69-.41,1.26-.73,1.81-1.07a.42.42,0,0,0,.12-.31c0-1.64,0-3.29,0-5l-.81.27,1-.61v9.11c.09-2.94.09-5.89.08-8.83a.89.89,0,0,0-.09-.27Zm.49-131.08,0,.36c0,.54-.12,1.08-.12,1.62,0,.23.13.65.23.66.42,0,.92.27,1.13-.07l1.11.14v-3.4l-1,.29,1.12-.74a1.94,1.94,0,0,0-.65.23l-1.87.92c-.79-.22-2.32.44-2.32,1.07l.7-.31Zm14.65,42.26v8.65c.07-2.79.07-5.58.07-8.36a1.12,1.12,0,0,0-.08-.28l.6-1.31v8.31c.07-2.42.07-4.84.06-7.25,0-.35,0-.7-.07-1.05a6,6,0,0,0-.18-3,7.32,7.32,0,0,0,.1.84,5.2,5.2,0,0,1-1.61,4.44v-7.13c-.07,2.3-.07,4.6-.07,6.9a.73.73,0,0,0,.07.22L157,145.35l.7-.9h-7.57c-.32,0-.53.06-.52.45s.22.41.51.4H151l6,0-.25.25a1.3,1.3,0,0,0-.32-.09l-6.48,0a2.07,2.07,0,0,0-.4.08v.18a4.5,4.5,0,0,0,.51.06h1.59l5-.1-.57.46a1.76,1.76,0,0,0-.41-.16,5,5,0,0,0-.65,0c-1.65,0-3.3,0-5,0a.58.58,0,0,0-.44.36c0,.14.21.45.33.45,1.78,0,3.57-.06,5.35-.1l-.29.37h.34l-.15.21h1.51v-.2h-1.36c.44-.38.87-.76,1.31-1.12.18-.15.38-.28.57-.41.19.3.57.32,1.19,0l-1.08-.08,1.2-1.21v8.8c.08-2.53.08-5.06.08-7.58,0-.4-.05-.81-.08-1.21l.22-.22a7.28,7.28,0,0,0,.07.82,1.54,1.54,0,0,0,.22.41c.09-.13.24-.25.25-.38,0-.4,0-.81,0-1.22l-.56.39Zm-16.21-41.05,1-.71,0-.07-2.45,1.33,0,.06,1.48-.63a3.81,3.81,0,0,0-.68.52,1.18,1.18,0,0,0-.2.62c0,.07.16.24.25.24.54,0,1.08,0,1.63,0V101.4Zm-.55,26.41a1.54,1.54,0,0,0-.57,1.49,10.84,10.84,0,0,1,0,1.16c0,.92,0,1.84.05,2.75,0,.12.15.23.22.35.11-.12.31-.23.31-.35,0-1.8,0-3.6,0-5.4l1.62-.87a2.43,2.43,0,0,0-.33.78c0,1.16,0,2.32,0,3.47,0,.39.06.78.11,1.34.4-.36.65-.6.92-.81a2,2,0,0,0,.83-1.94,12.6,12.6,0,0,1,0-1.53c0-1.45,0-1.45-1.5-1.28.27-.18.53-.38.81-.54s.37-.08.53-.17c.47-.26.92-.54,1.37-.81a1.49,1.49,0,0,1-.35.28c-.48.18-.59.51-.41,1h2.06c-.35-.83-.35-.83.53-1l-.36-1,1.35-.78a6.84,6.84,0,0,0,1,.18c.63,0,.72-.15.45-.81l-1.47.64,2-1.18a2,2,0,0,0,.65.32,13.88,13.88,0,0,0,1.47,0v-.28H152l3.54-2.37-.34.51c1.22.07,1.27,0,1.08-.74l-.45,0,1.47-1.14c.1.51.5.26.71.21s.16-.39.24-.61L158,119l-.36.24-.4.24,1.32-1.36c0,.26.07.51.1.77s0,.57.05.86H159v-1.78l-.38.17c.25-.39.5-.79.77-1.18a5,5,0,0,0,.09-5.68,12.65,12.65,0,0,1,.66,2.24A4.19,4.19,0,0,1,159,117c0-.41.07-.82.07-1.23,0-1.28-.05-2.56,0-3.83,0-.84-.45-1.3-.94-1.92v7.73l.12.09L159,117l-1.2,1.47a3.47,3.47,0,0,0-.66-.14c-.94,0-1.88,0-2.82,0h-4.35a1.65,1.65,0,0,0-.42.12l0,.2h8l-1.2,1.08.58-.77c-.2,0-.37,0-.53,0h-4.18c-.75,0-1.49,0-2.24,0-.14,0-.27.23-.41.36a1.8,1.8,0,0,0,.39.39,1.09,1.09,0,0,0,.46,0h5.95l-.38.39c-.1,0-.2-.14-.3-.14h-5.88c-.1,0-.2.09-.3.13l0,.2h6.12l-.43.35c-.08-.05-.15-.15-.23-.15-1.71,0-3.41,0-5.12,0-.11,0-.31.26-.3.38s.21.42.31.42c1.56-.07,3.13.27,4.67-.21l-.93.66c-.08-.08-.17-.21-.25-.22q-1.73,0-3.46,0a1.44,1.44,0,0,0-.43.15l0,.15h3.9l-2.29,1.47a2.81,2.81,0,0,0-1.76-.05v.24l1.57-.12-2.12,1.28c.49-.37.32-.87.32-1.38,0-1,.12-1.94.17-2.91a8.89,8.89,0,0,0,0-.91,1,1,0,0,0-.22-.07c-2.06,0-4.12,0-6.18,0-.14,0-.37.26-.39.41a18.63,18.63,0,0,0-.09,1.87c0,1.46,0,2.92,0,4.46l2.1-.86a1.2,1.2,0,0,0-.16,1.71l-3.14,1.79-1,.56,0,.06Zm13.95,43.86c.06.59.5.29.75.26s.16-.39.29-.74l-1.06.5,2.83-3.13v3.23h0v-3.22c.15-.38.33-.76.45-1.15a4.51,4.51,0,0,0-.39-3.82,4.16,4.16,0,0,0,.19.54,3.9,3.9,0,0,1-.18,3.54v-3.34h0v3.33a6.46,6.46,0,0,1-2.24,3.05c-.34,0-.68-.09-1-.09H150a2.15,2.15,0,0,0-.47.11l0,.22h7.65L156,172.38l.49-.75c-.17,0-.32,0-.47,0h-5.78c-.28,0-.63-.08-.64.39s.35.39.63.39H156l-.56.4a1.27,1.27,0,0,0-.37-.12h-5.19a1.3,1.3,0,0,0-.35.1c0,.09.06.16.07.16l5.53.08-2,1.36c-.08,0-.16-.13-.24-.13h-3.17a1.09,1.09,0,0,0-.32.11l0,.2h3.4l-1.2.73.33-.47h-1.87c-.26,0-.52,0-.53.38s.29.44.56.4c.51-.08,1-.21,1.52-.32l-1.16.69-1.27-.09v.22c.45.25.86,0,1.28-.14l-1.71,1,.54-.45c-.66-.4,0-.77,0-1.13-.07,0-.1-.08-.13-.08-2.14,0-4.28,0-6.41,0-.13,0-.37.29-.38.45,0,.72,0,1.45,0,2.17,0,.42.17.53.55.36l2-.89a.83.83,0,0,1-.33.31,13.32,13.32,0,0,0-1.87,1.1c-.26.21-.27.74-.39,1.12l.73.09a7.36,7.36,0,0,1-.62.43L139.51,182a23.61,23.61,0,0,0,2.24-1.09c.39-.2.81-.36,1.21-.54-.12.19-.33.37-.35.57a12.17,12.17,0,0,0,0,1.64c0,.12.15.33.23.33.75,0,1.51,0,2.29,0,0-1.12,0-2.18,0-3.24,0-.1-.18-.2-.27-.3l.45-.34v9.13c.08-2.91.08-5.82.08-8.72a2,2,0,0,0-.08-.4l.71-.36a1.23,1.23,0,0,0-.49,1.26c0,.33,0,.67,0,1v2c.5.06.94.15,1-.42s.3-.58.72-.51a1.34,1.34,0,0,0,.38-.06,2.83,2.83,0,0,0-.1-.71c-.24-.56-.18-.92.57-.89,0-.65,0-1.26,0-1.87a5.27,5.27,0,0,0-.13-.76l2.17-1.24-.64.7a6.81,6.81,0,0,0,1.29-.14c.09,0,.08-.43.12-.71l-.78.16,1.18-.71c.13.11.25.31.38.32.56,0,1.11,0,1.67,0v-.28h-2.06l1.44-.84-.5.53c1.08.14,1.51,0,1.13-.68l-.65.16,1.32-.84c.09.12.17.33.27.35a5.11,5.11,0,0,0,1.58-.09l0-.25H154l.43-.35a5,5,0,0,0,.86.17c.59,0,.69-.21.4-.78l-.6.18Zm-25.45,50.54a2.09,2.09,0,0,0,2.2.89,6.43,6.43,0,0,1,.83,0c1.59,0,3.19,0,4.78,0,.44,0,.67-.17.52-.58-.05-.14-.39-.26-.61-.26-2.58,0-5.15,0-7.73,0-.27-1.08.7-.61,1.06-.82v-8.29c-1,.75-1.11.9-1.11,2,0,1.86,0,3.73,0,5.59C131.27,221.58,131.3,222.09,131.32,222.59ZM156,92.13c-.2.52.11,1.08-.22,1.5l-.21,0V92.14h-1c-.28.47.14,1.09-.46,1.46V92.15H153l-.07,1.46-.25,0-.14-1.47h-1.05c-.17.51.11,1.06-.19,1.48l-.23,0V92.14h-1.24l-.09,1.48h-.24l-.13-1.49h-1.17l-.1,1.48h-.24l-.12-1.49h-1.2l-.1,1.49h-.25l-.14-1.5h-1.23c0,.42,0,.81,0,1.2,0,.1-.13.18-.21.28-.05-.09-.15-.18-.16-.27,0-.4,0-.81,0-1.2h-1.18c-.24.49.16,1.1-.29,1.49l-.2,0V92.16h-1.25c0,.41,0,.79,0,1.16,0,.12-.14.23-.22.34-.07-.12-.2-.23-.21-.35,0-.38,0-.77,0-1.15h-1.19c0,.39,0,.74,0,1.09a1.35,1.35,0,0,1-.2.42,1.67,1.67,0,0,1-.24-.44,2.53,2.53,0,0,1,0-.65c0-.48-.29-.45-.63-.46s-.58,0-.55.47a4.24,4.24,0,0,1,0,.82c0,.1-.14.19-.22.28-.08-.09-.21-.18-.23-.28a3,3,0,0,1,0-.71c0-.42-.12-.59-.57-.59s-.49.27-.47.61a1.91,1.91,0,0,1,0,.59,1.45,1.45,0,0,1-.29.4c-.1-.14-.27-.26-.3-.42s0-.52,0-.76-.24-.36-.38-.37-.34.2-.38.35,0,.52,0,.76a.69.69,0,0,1-.34.46c-.64.19-.5.69-.48,1.11s.48.36.78.37l27.86,0h.79c0-.55.17-1.13,0-1.45a2.07,2.07,0,0,1-.25-1.13c0-.13,0-.27,0-.4h-.08l-.08,1.31h-.17l-.08-1.45h-.19l-.1,1.47h-.16l-.11-1.48-.24,0-.1,1.47H162V92.19c-.44-.17-.6-.06-.58.32s0,.72,0,1.07h-.25V92.18c-.47-.16-.63,0-.61.38s0,.7,0,1.05h-.27l-.1-1.46h-.73v1.43h-.16l-.08-1.45h-.83l-.09,1.47h-.21V92.15h-1v1.45l-.23,0-.12-1.49Zm-13.2,75.16a2.76,2.76,0,0,0,.2.29c.14.13.39.26.4.39s-.23.28-.36.43-.29.28-.32.45a10.12,10.12,0,0,0-.12,1.34c0,1.41,0,2.82-.14,4.23,0,.46.09.56.48.57,1.63,0,3.26.08,4.89.1.5,0,1-.06,1.52-.09v-7.79C147.12,167.23,145,167.16,142.75,167.29Zm6.43,87.44c-.05-.26-.19-.52-.11-.63.39-.54.2-1.13.21-1.7,0-1.59,0-3.18.08-4.77,0-.48-.19-.63-.67-.62q-2.68.06-5.37,0c-.53,0-.73.19-.73.72,0,2.14-.08,4.27-.14,6.41,0,.37.16.48.49.49l2.77,0ZM142.89,193c.08.07.11.11.14.12.23.08.59-.09.63.36s-.27.4-.52.51a.6.6,0,0,0-.38.81,1.07,1.07,0,0,1,.07.4c-.09,1-.16,2.1-.31,3.14-.07.52.13.6.56.61,1.65,0,3.3,0,5,0h1.24a4.68,4.68,0,0,0,.08-.6c0-2.24,0-4.48,0-6.72,0-.41-.18-.49-.54-.48-1.57,0-3.15,0-4.72,0a4.41,4.41,0,0,0-.87.19l0,.17,1.28.07c.16.43,0,.55-.35.68S143.15,192.48,142.89,193Zm.07-78.23.66.53a4.15,4.15,0,0,0-.55.5,1.61,1.61,0,0,0-.36.68c-.08.52-.05,1.05-.12,1.57-.13,1,0,1.14.93,1.15,1.75,0,3.5,0,5.25.05.5,0,.6-.23.6-.64,0-2.24,0-4.48,0-6.72,0-.4-.13-.56-.55-.55-1.24,0-2.48,0-3.72,0a4.82,4.82,0,0,0-1,.26l0,.15a5,5,0,0,1,.87,0c.17,0,.31.2.46.3-.13.13-.24.33-.4.39-.6.25-1.21.46-1.74.66.23.58,1.28-.22,1.18.83C143.87,114.24,143.21,114.22,143,114.77Zm1.69,100.56v.18a2.07,2.07,0,0,1,.58,0,3,3,0,0,1,.58.32,2.09,2.09,0,0,1-.47.4c-.65.28-1.31.52-2,.77a6.13,6.13,0,0,0,1,.12,1.6,1.6,0,0,1,.5.27,1.92,1.92,0,0,1-.39.39,7.5,7.5,0,0,1-.72.27c-.28.12-.55.26-.83.39a.67.67,0,0,0,.34.2c.22.1.57.16.63.33.16.43-.28.4-.52.51s-.75.39-.35.92a.58.58,0,0,1,0,.49c-.15.31-.36.6-.53.9-.35.63-.1,1.08.62,1.09,1.87,0,3.74,0,5.61,0,.5,0,.61-.21.6-.62,0-2.22,0-4.44,0-6.67,0-.4-.14-.56-.55-.56-1.08,0-2.16,0-3.24,0A4.67,4.67,0,0,0,144.65,215.33ZM142.79,143l0,.17c2.06,0,4.12,0,6.17,0,.12,0,.32-.27.33-.42,0-.47,0-.94,0-1.41,0-1.79,0-3.58,0-5.36,0-.26.07-.58-.37-.58-.77,0-1.53,0-2.3,0-.1,0-.2.12-.29.19a1.73,1.73,0,0,0,.32.23c.08,0,.21,0,.29,0a3.66,3.66,0,0,1,.44.31c-.15.1-.3.3-.45.29a5.16,5.16,0,0,0-2.43.88c.25.06.49,0,.7.08a2,2,0,0,1,.52.32c-.14.13-.25.32-.41.38-.68.28-1.38.53-2.07.79l0,.13h1.49v.57c-1.25.34-1.52.48-1.67.79.28.17.73.28.78.5.13.53-.46.37-.72.55,0,0-.14,0-.15.08-.06.21-.21.52-.13.61C143.22,142.42,143.06,142.67,142.79,143Zm.08,103.79c.26,0,.39.05.53.06,1.75,0,3.5,0,5.24.12.6,0,.73-.23.73-.76,0-2.1,0-4.21,0-6.31,0-.83,0-.84-.84-.82a3.74,3.74,0,0,0-.82.21,5.59,5.59,0,0,1,.73.24,1.72,1.72,0,0,1,.37.34c-.12.09-.23.25-.37.27a4.35,4.35,0,0,1-.94,0,3.76,3.76,0,0,0-2.35.94l.94.11c0,.51,0,.5-.32.63l-1.91.76a4.28,4.28,0,0,0,.8.12,2.82,2.82,0,0,1,.61.28,2.26,2.26,0,0,1-.5.44c-.55.25-1.12.45-1.68.66a3.41,3.41,0,0,0,.8.2,1.76,1.76,0,0,1,.47.31,1.85,1.85,0,0,1-.38.4c-.26.14-.57.19-.81.35a.49.49,0,0,0,0,.47C143.57,246.2,143.56,246.34,142.87,246.74Zm.84-82.4c1.46.16,1.46.16,1.4.68l-2.14.84a4.65,4.65,0,0,0,1,.21.41.41,0,0,1,.26.29.55.55,0,0,1-.23.38,2.73,2.73,0,0,1-.61.2c1.84.13,3.65.13,5.46.14.39,0,.51-.14.51-.52,0-1.57,0-3.15,0-4.72s0-1.63-1.65-1.49c-.57,0-.7.25-.56.93a9.05,9.05,0,0,1,1,0c.12,0,.23.19.34.29-.11.11-.2.27-.32.3a2.12,2.12,0,0,1-.7,0,4.16,4.16,0,0,0-2.48.88c.22.07.44.05.64.11a2,2,0,0,1,.45.27c-.13.14-.23.33-.39.4C145,163.84,144.37,164.08,143.71,164.33Zm8.71-32.63c0,.47-.15.84.45.86a.44.44,0,0,1,.3.32c0,.12-.19.33-.29.33-.47,0-.47.28-.47.63,0,1.93,0,3.86,0,5.78,0,.82,0,.82.83.84.29,0,.65,0,.65.4s-.36.39-.65.4h-3.13c-.3,0-.55,0-.55.42s.23.43.54.43c1.26,0,2.52,0,3.78,0,.4,0,.56-.12.56-.54,0-2.69,0-5.39,0-8.08a.74.74,0,0,0-.16-.53C153.7,132.54,153.11,132.17,152.42,131.71Zm.7,52.71v.82q0,3.54,0,7.08c0,.79,0,.79.8.82.26,0,.59-.07.6.36s-.32.42-.61.43h-3.66c-.72,0-.78.09-.58.79h4.88c.41,0,.47-.24.47-.58,0-2.66,0-5.31,0-8a.81.81,0,0,0-.22-.57C154.31,185.22,153.78,184.88,153.12,184.42Zm-18.53,27.23c-.56.43-1,.73-1.38,1.09a1,1,0,0,0-.27.66c0,2.63,0,5.27,0,7.9,0,.41.14.55.55.55,1.89,0,3.77,0,5.66,0,.29,0,.55,0,.56-.41s-.27-.45-.58-.45H134a1.32,1.32,0,0,1-.47,0c-.12,0-.28-.21-.27-.3a.59.59,0,0,1,.28-.36.7.7,0,0,1,.41,0c.51.07.68-.13.68-.66,0-2.08,0-4.17,0-6.25ZM153.82,106.5c0,2.8,0,5.42,0,8,0,.41.24.41.54.44s.56.38.34.59a.91.91,0,0,1-.58.18c-1.34,0-2.68,0-4,0-.26,0-.53,0-.53.37s.22.41.51.41h5c.37,0,.53-.14.52-.52,0-2.62,0-5.23,0-7.85a.75.75,0,0,0-.18-.53C155,107.26,154.45,106.93,153.82,106.5ZM135.66,211.13l-.11-.26c-.17.29-.48.58-.48.88,0,2.69,0,5.39,0,8.08,0,.32.11.47.45.46h3.72c.31,0,.47-.09.47-.44s-.21-.41-.5-.41c-.88,0-1.77,0-2.65,0-.34,0-.91.24-.91-.4s.55-.38.88-.38.58-.15.58-.59q0-3,0-6.08c0-.43-.13-.59-.57-.59A3,3,0,0,1,135.66,211.13Zm18.16,26v7.47c0,1,0,1,1,1.17.15,0,.27.21.41.32a1.87,1.87,0,0,1-.39.42c-.12.07-.31,0-.46,0h-4.25c-.29,0-.57,0-.55.42s.29.36.55.36h5c.36,0,.54-.11.54-.51,0-2.68,0-5.35,0-8a.81.81,0,0,0-.23-.56C154.92,237.91,154.42,237.59,153.83,237.17ZM135.89,106.23c-.58.4-1.06.69-1.5,1.05a1,1,0,0,0-.31.64c0,2.67,0,5.35,0,8,0,.43.17.59.6.58,1.49,0,3,0,4.48,0,.26,0,.53,0,.54-.38s-.27-.41-.56-.41h-3.89a1,1,0,0,1-.46,0,.53.53,0,0,1-.26-.38.48.48,0,0,1,.29-.34,1.93,1.93,0,0,1,.64,0c.33,0,.46-.13.46-.45C135.89,111.79,135.89,109.08,135.89,106.23Zm1.17,25.43c-.49.31-1,.57-1.43.91a.9.9,0,0,0-.33.62c0,2.81,0,5.63,0,8.44,0,.35.13.49.49.49,1.14,0,2.28,0,3.42,0,.29,0,.5-.05.5-.41s-.16-.44-.47-.44H136c-.3,0-.64,0-.64-.42s.33-.36.61-.37a4.52,4.52,0,0,1,.59,0c.45,0,.63-.11.63-.59q0-3,0-6c0-.45-.11-.67-.6-.62-.26,0-.58,0-.51-.36,0-.14.31-.3.49-.32C137.24,132.49,137.3,132.43,137.06,131.66ZM154,163.23c0-1,0-2.08,0-3.12,0-1.57.22-1.32-1.4-1.35-.49,0-.65.2-.64.67,0,2,0,4,0,6,0,.4.08.62.54.64.17,0,.33.27.5.42-.17.11-.34.32-.52.33-.78,0-1.57,0-2.36,0-.32,0-.53.06-.52.45s.23.4.51.4c1.1,0,2.2,0,3.3,0,.49,0,.59-.19.59-.63C153.95,165.74,154,164.48,154,163.23ZM153.69,211a6.32,6.32,0,0,0-.73.47c-.14.12-.31.3-.31.46,0,2.08,0,4.17,0,6.25,0,.34.09.52.46.51s.58,0,.56.43-.34.36-.62.37h-2.77c-.31,0-.71-.14-.7.43s.38.4.67.4c1.22,0,2.44,0,3.66,0,.57,0,.7-.19.69-.72,0-2.38-.05-4.76,0-7.14A1.39,1.39,0,0,0,153.69,211Zm1.2-77.63c0,2.77,0,5.35,0,7.92,0,.82,0,.82.82.85.44,0,.69.29.47.54a.77.77,0,0,1-.52.15H150.1c-.31,0-.54,0-.54.43s.25.42.55.42c1.93,0,3.86,0,5.78,0,.44,0,.59-.15.59-.58,0-2.68,0-5.35,0-8a.81.81,0,0,0-.15-.54C155.91,134.12,155.46,133.79,154.89,133.33Zm-18.45,51c-.45.29-.78.52-1.13.72a1.19,1.19,0,0,0-.65,1.2c0,2.62,0,5.23,0,7.85,0,.21,0,.42,0,.65,1.55,0,3,0,4.52,0,.15,0,.29-.26.44-.4-.16-.12-.31-.35-.47-.35-.94,0-1.89,0-2.83,0-.33,0-.67,0-1,0s-.64.08-.65-.38.34-.39.62-.41a2.32,2.32,0,0,1,.47,0c.57.08.69-.18.69-.71,0-2.46,0-4.92,0-7.38C136.49,184.84,136.47,184.64,136.44,184.3ZM155.17,212c0,.22,0,.3,0,.37,0,2.46,0,4.92,0,7.38,0,.4.13.57.54.57.13,0,.26.21.39.32a2.37,2.37,0,0,1-.44.34,1,1,0,0,1-.41,0c-1.69,0-3.39,0-5.08,0-.39,0-.66.11-.52.52a.7.7,0,0,0,.55.32c1.95,0,3.9,0,5.85,0,.57,0,.74-.18.74-.74,0-2.26-.1-4.53,0-6.79C156.82,213.05,156,212.64,155.17,212Zm-.59-52.73a4.23,4.23,0,0,0-.08.47c0,2.46,0,4.91,0,7.37,0,.37.13.53.52.54.15,0,.29.22.43.34-.14.13-.26.31-.43.38a1.67,1.67,0,0,1-.58,0h-4.3c-.29,0-.56,0-.55.43s.29.36.54.36c1.83,0,3.66,0,5.48,0,.46,0,.61-.15.61-.61,0-2.52,0-5,0-7.55,0-.19,0-.45-.12-.55C155.64,160.07,155.15,159.71,154.58,159.26Zm-1.21,82.17c0-1,0-2,0-3,0-1.66.38-1.46-1.57-1.46-.18,0-.5.13-.51.24a.8.8,0,0,0,.23.57.46.46,0,0,1,0,.75,1,1,0,0,0-.28.56c0,1.49,0,3,0,4.48,0,.4.12.6.54.56a.83.83,0,0,1,.41,0c.2.1.49.23.52.4.07.35-.24.37-.51.37h-2.12c-.3,0-.49.06-.49.42s.18.43.48.43c.94,0,1.89,0,2.83,0,.41,0,.49-.19.49-.54C153.36,244,153.37,242.7,153.37,241.43ZM135.19,159a11,11,0,0,0-1.25.91,1.32,1.32,0,0,0-.42.82c0,2.61,0,5.23,0,7.84,0,.5.17.64.65.63,1.63,0,3.26,0,4.89,0,.27,0,.64.1.64-.38s-.34-.4-.63-.4h-4.13a3.22,3.22,0,0,1-.76,0c-.13,0-.32-.23-.31-.32a.68.68,0,0,1,.32-.39.71.71,0,0,1,.41,0c.46.05.62-.12.61-.6,0-1.26,0-2.51,0-3.77Zm20.92,79.9c0,.15,0,.24,0,.33q0,3.6,0,7.19c0,.84,0,.82.83,1,.17,0,.29.27.44.42a2.34,2.34,0,0,1-.47.32,1.38,1.38,0,0,1-.47,0h-6.25c-.3,0-.6,0-.6.42s.31.41.61.41c2.22,0,4.44,0,6.66,0,.52,0,.68-.14.67-.67,0-2.4-.08-4.8,0-7.19C157.58,240,157,239.45,156.11,238.89ZM133.49,107.94a9.55,9.55,0,0,0-1.05.88,1.28,1.28,0,0,0-.33.76c0,2.66,0,5.31,0,8,0,.49.18.59.63.59,2.12,0,4.25,0,6.37,0,.3,0,.6,0,.6-.43s-.32-.41-.61-.41h-6.2c-.27,0-.64.05-.58-.36,0-.16.37-.39.57-.39.57,0,.68-.24.68-.75,0-2.4,0-4.8,0-7.2C133.53,108.43,133.51,108.26,133.49,107.94Zm22.1,78.22c0,.33,0,.52,0,.71,0,2.4,0,4.8,0,7.19,0,.5.09.78.69.69.45-.07.69.23.49.53a.75.75,0,0,1-.55.19c-2,0-4,0-6.07,0-.3,0-.54,0-.54.43s.25.42.55.42c2.12,0,4.25,0,6.37,0,.4,0,.56-.12.55-.54,0-2.67,0-5.35,0-8a1,1,0,0,0-.23-.62C156.45,186.82,156.07,186.55,155.59,186.16Zm-19.85-23c0,1.26,0,2.52,0,3.77,0,.53.17.68.68.66.9,0,1.81,0,2.71,0,.29,0,.55,0,.56-.4s-.28-.44-.59-.44c-.79,0-1.57,0-2.36,0-.15,0-.29-.23-.43-.35a2.32,2.32,0,0,1,.41-.4.7.7,0,0,1,.41,0c.52.07.67-.16.66-.67,0-1.71,0-3.42,0-5.13,0-1.46,0-1.44-1.45-1.45-.48,0-.61.17-.6.62C135.75,160.64,135.74,161.92,135.74,163.2Zm17.52-52.57c0-1,0-2,0-3,0-1.77.31-1.48-1.53-1.51-.26,0-.58-.08-.61.35s.31.37.59.45.33.27.5.41c-.17.12-.34.34-.5.33-.54,0-.61.24-.6.69,0,1.4,0,2.8,0,4.19,0,.49.06.8.65.77.14,0,.3.26.45.4-.17.11-.33.31-.51.33-.55,0-1.1,0-1.65,0-.31,0-.48.08-.48.43s.2.41.5.41c.89,0,1.77,0,2.66,0,.41,0,.55-.14.55-.55C153.25,113.15,153.26,111.89,153.26,110.63ZM132.94,160.8l-.22-.12c-.36.48-1,1-1,1.46-.1,2.73-.06,5.46,0,8.19a.64.64,0,0,0,.43.45c2.4,0,4.79,0,7.19,0,.36,0,.42-.2.4-.5s-.36-.34-.61-.34H132.4c-.28,0-.63.09-.64-.39s.32-.41.58-.39c.53,0,.61-.23.6-.68,0-2.42,0-4.83,0-7.25Zm23.31-52.48c0,.07-.07.11-.07.14,0,2.53,0,5.07,0,7.6,0,.33.15.45.45.48s.49.3.31.58c-.08.13-.37.17-.57.17h-6.19c-.3,0-.6,0-.6.42s.3.42.6.42c2.22,0,4.44,0,6.66,0,.58,0,.74-.19.73-.75,0-2.34-.07-4.68,0-7C157.62,109.3,157,108.84,156.26,108.32Zm-19.91,2.21c0,1.3,0,2.59,0,3.89,0,.36.1.55.5.54.79,0,1.57,0,2.36,0,.3,0,.49-.07.48-.42s-.19-.42-.49-.42c-.57,0-1.14,0-1.71,0-.15,0-.27-.23-.41-.35a1.58,1.58,0,0,1,.36-.37.88.88,0,0,1,.46,0c.46,0,.62-.15.61-.61,0-1.26,0-2.51,0-3.77,0-1.09,0-1.09-1-1.22h-.06c-.11-.11-.29-.22-.3-.34a.48.48,0,0,1,.25-.38A1.92,1.92,0,0,1,138,107c.28,0,.51,0,.51-.4s-.27-.38-.53-.38-.63,0-.94,0c-.5,0-.7.13-.69.66C136.37,108.06,136.35,109.29,136.35,110.53Zm20.46,50.52a1.74,1.74,0,0,0-.06.29c0,2.44,0,4.88,0,7.32a.48.48,0,0,0,.46.56c.12,0,.24.27.26.42s-.15.25-.27.3a1.29,1.29,0,0,1-.47,0c-2.2,0-4.41,0-6.61,0-.4,0-.65.13-.52.53a.72.72,0,0,0,.57.3c2.24,0,4.48,0,6.73,0,.88,0,1.1-.22,1.1-1.13,0-2.14-.06-4.29,0-6.43A2.4,2.4,0,0,0,156.81,161.05Zm-20.46,80.33c0,1.3,0,2.6,0,3.9,0,.37.12.54.51.53.77,0,1.53,0,2.3,0,.31,0,.54,0,.53-.44s-.28-.41-.56-.4c-.67,0-1.34,0-2,0-.19,0-.5-.19-.53-.35-.08-.39.26-.41.54-.42H138c.32,0,.46-.15.46-.47,0-1.55,0-3.11,0-4.66,0-.16-.24-.31-.38-.46s-.3-.26-.46-.4c.16-.13.32-.26.47-.4s.25-.28.38-.41c-.15-.12-.28-.32-.44-.35s-.63,0-.94,0c-.5,0-.7.13-.69.67C136.37,238.9,136.35,240.14,136.35,241.38Zm16.31-52.63c0-1.3,0-2.59,0-3.89,0-.16-.13-.45-.22-.46a4.48,4.48,0,0,0-.91.06,2.84,2.84,0,0,0,.16.64c0,.07.28,0,.39.06a2.58,2.58,0,0,1,.41.39c-.14.12-.28.3-.44.34a2.58,2.58,0,0,1-.82,0c-.53-.06-.73.12-.72.68,0,1.24,0,2.48,0,3.71,0,.35-.1.79.07,1s.62.11.93.22.28.24.42.37c-.16.12-.3.33-.47.35a11.18,11.18,0,0,1-1.41,0c-.31,0-.48.08-.48.43s.2.42.49.42c.69,0,1.38,0,2.06,0,.42,0,.55-.15.54-.55C152.65,191.31,152.66,190,152.66,188.75ZM152,136.91c0-1,0-2.08,0-3.12,0-.4-.13-.58-.54-.55s-.79,0-1.18,0a.71.71,0,0,0-.52.3c-.11.28,0,.52.38.57.11,0,.27.23.27.36s-.15.36-.25.37c-.42,0-.44.3-.43.62,0,.75,0,1.49,0,2.24,0,1.11,0,1.11,1.11,1.22h.06l.35.31c-.11.13-.21.33-.34.36s-.6,0-.88,0-.39.27-.38.41a.57.57,0,0,0,.4.39c.47.05.94,0,1.41,0s.55-.15.54-.55C151.94,138.92,152,137.91,152,136.91Zm-14.9,52.57c0,1,0,2.08,0,3.13,0,.37.11.54.51.53.55,0,1.1,0,1.65,0,.3,0,.48-.08.48-.43s-.19-.42-.49-.42c-.51,0-1,0-1.53,0-.12,0-.28-.22-.32-.36s.18-.27.31-.3a3.83,3.83,0,0,1,.94-.07c.45,0,.63-.14.62-.61,0-1.16,0-2.32,0-3.48,0-1.56,0-1.54-1.56-1.54-.49,0-.6.19-.59.63C137.07,187.52,137.05,188.5,137.05,189.48Zm15,25.58h0c0-.69,0-1.38,0-2.06,0-1.9.36-1.54-1.69-1.56a.64.64,0,0,0-.48.34c-.1.27,0,.46.38.52a.62.62,0,0,1,.38.4c0,.08-.21.33-.35.35-.38,0-.44.26-.44.56,0,.89,0,1.77,0,2.65,0,.54,0,.95.74.86.1,0,.23.2.34.31-.12.12-.22.29-.37.35a1.34,1.34,0,0,1-.53,0c-.29,0-.49.05-.5.41s.15.45.47.44c.51,0,1,0,1.53,0s.53-.14.52-.52C152.08,217.11,152.09,216.09,152.09,215.07ZM135.76,237c-.56.39-1,.69-1.45,1a.65.65,0,0,0-.2.45c0,2.3,0,4.6,0,6.91,0,.14.24.33.41.4s.39,0,.58,0c.55.07.71-.16.71-.7,0-2.48,0-5,0-7.44C135.81,237.5,135.78,237.32,135.76,237Zm3.93-25.57c-.54,0-1,0-1.5,0s-.69.13-.68.66c0,1.67,0,3.34,0,5s0,1.69,1.7,1.56h.06c.13-.13.37-.28.36-.39a.68.68,0,0,0-.37-.43c-.19-.08-.44,0-.64,0s-.31-.21-.31-.32.16-.28.29-.34a.93.93,0,0,1,.47,0c.47.06.62-.15.6-.61,0-.84,0-1.69,0-2.54,0-.53,0-1-.73-.92-.1,0-.34-.26-.32-.35a.7.7,0,0,1,.36-.4,1.26,1.26,0,0,1,.49,0Zm-5-78.21c-.35.25-.58.43-.83.58a1.43,1.43,0,0,0-.71,1.42c0,2.08,0,4.17,0,6.25,0,.6.24.69.74.66s.87.06.86-.67c0-2.53,0-5.07,0-7.61C134.72,133.68,134.7,133.51,134.68,133.21Zm9.84,57.68,0,.15h4.3c.32,0,.47-.11.47-.44,0-.9,0-1.81,0-2.71,0-.15-.2-.42-.32-.42a7.73,7.73,0,0,0-1.94,0,7.22,7.22,0,0,0-1.54.7l.06.18.95.1c0,.52,0,.47-.37.61-.67.22-1.32.51-2,.76a3.87,3.87,0,0,0,1,.15.47.47,0,0,1,.34.3c0,.11-.14.3-.26.36A4.15,4.15,0,0,1,144.52,190.89Zm-6.76-54.07c0,.77,0,1.53,0,2.3,0,1.55-.28,1.32,1.39,1.34,0,0,.09,0,.12,0s.39-.29.38-.43-.24-.35-.4-.4-.59,0-.88,0a.33.33,0,0,1,0-.65c.29-.05.6,0,.88,0s.41-.26.41-.4c0-1.06,0-2.12,0-3.18,0-.15-.21-.29-.35-.42s-.31-.26-.47-.4c.15-.14.31-.26.45-.41s.36-.32.35-.46-.26-.33-.44-.37a7.14,7.14,0,0,0-.88,0c-.43,0-.59.13-.58.57C137.77,134.81,137.76,135.82,137.76,136.82Zm-5.07,57.88.46,0c1,0,1,0,1-1q0-3.57,0-7.14v-.76a8.88,8.88,0,0,1-.72.55,1.51,1.51,0,0,0-.74,1.52c.05,1.81,0,3.62,0,5.43Zm.85,43.94c-.8.54-1.42,1-1.36,2.06.12,2,0,4,0,6,0,.47.06.73.63.73s.72-.15.71-.71c0-2.44,0-4.88,0-7.32Zm17.83-75.44c0-.51,0-1,0-1.53,0-1.44.29-1.25-1.34-1.27-.32,0-.46.13-.46.45,0,1,0,2.08,0,3.12a.6.6,0,0,0,.2.43c.52.35.52.44,0,.81a.58.58,0,0,0-.2.48c0,.12.26.25.41.28a8,8,0,0,0,.88,0c.36,0,.48-.15.48-.5C151.36,164.73,151.37,164,151.37,163.2ZM132.69,135l-.16-.08c-.37.43-1,.63-1,1.37,0,2.28,0,4.56,0,6.84,0,.46.17.57.59.56s.59-.15.57-.59c0-.86,0-1.73,0-2.59C132.69,138.64,132.69,136.8,132.69,135Zm25.44,8.69c0-.24,0-.44,0-.63,0-2-.06-3.93,0-5.89a2.21,2.21,0,0,0-1.09-2,.92.92,0,0,0,0,.19c0,2.61,0,5.22,0,7.84,0,.35.12.52.48.49C157.67,143.64,157.84,143.65,158.13,143.65Zm-3.51,107.68h-4.49c-.28,0-.56,0-.57.4s.27.44.58.44h8.91c.31,0,.61,0,.6-.43s-.33-.41-.62-.41Zm-19.81.84H139c.31,0,.65.06.64-.44s-.34-.39-.63-.39h-8.48c-.29,0-.61-.06-.61.41s.29.43.6.43Zm22.68-64.29c0,2.68,0,5.27,0,7.86a1.84,1.84,0,0,0,.19.56c.24-.1.54-.14.69-.31a1.17,1.17,0,0,0,.17-.71c0-1.83,0-3.65,0-5.48A2.11,2.11,0,0,0,157.49,187.89Zm-25.4-.2-.16-.09c-.26.39-.73.76-.75,1.16-.07,2.38,0,4.76,0,7.13,0,.14.24.37.4.41.44.11.57-.14.57-.56,0-2.57,0-5.15,0-7.72A2.92,2.92,0,0,0,132.09,187.69Zm22.62,66.06h4.72c.29,0,.56,0,.55-.42s-.29-.36-.54-.36h-9.26c-.26,0-.59-.08-.61.35s.31.43.6.43Zm-20-.79c-1.5,0-3,0-4.49,0a.78.78,0,0,0-.5.19.44.44,0,0,0,0,.43,1.18,1.18,0,0,0,.6.15h8.68c.3,0,.62,0,.61-.42s-.34-.36-.6-.36Zm9.65-149.49c-.61,0-1.14,0-1.66,0a.51.51,0,0,0-.35.35c0,1.31,0,2.61,0,4.08.69-.43,1.3-.8,1.89-1.19a.42.42,0,0,0,.13-.31C144.42,105.46,144.42,104.5,144.42,103.47ZM131.64,240.39l-.19-.07c-.22.38-.61.75-.62,1.13-.06,2.38,0,4.76,0,7.13,0,.14.26.36.42.39.45.08.43-.28.43-.58q0-3.83,0-7.66C131.67,240.61,131.65,240.5,131.64,240.39Zm22.49,10.17h4.07c.29,0,.63.05.61-.41s-.33-.36-.6-.37h-8c-.29,0-.63-.06-.61.41s.34.37.6.37Zm-15.81-87.38c0,.69,0,1.38,0,2.07s0,.78.77.73a1.91,1.91,0,0,0,.58-.25,2.15,2.15,0,0,0-.36-.57c-.3-.25-.29-.5,0-.73a.78.78,0,0,0,.33-.51c0-1,0-2,0-3,0-.56-.33-.51-.7-.52s-.7,0-.69.54C138.34,161.68,138.32,162.43,138.31,163.18ZM158,240.61c0,.26,0,.41,0,.56q0,3.6,0,7.19c0,.32-.05.65.45.63s.41-.33.41-.62c0-2.1,0-4.21,0-6.31C158.83,241.44,158.44,241.09,158,240.61Zm-22.77,9.95h3.83c.29,0,.63.06.62-.41s-.33-.37-.6-.37h-7.66c-.29,0-.63-.06-.61.41s.33.37.59.37Zm-3.48-106.07-.08.18c.36.21.72.59,1.09.6,2.16.06,4.32,0,6.48,0,.45,0,.5-.28.4-.58,0-.13-.32-.25-.49-.26-2.38,0-4.75,0-7.13,0A2.17,2.17,0,0,0,131.75,144.49Zm-.24-26.35v-8.41a2,2,0,0,0-.87,1.57c0,1.79,0,3.57,0,5.36A1.66,1.66,0,0,0,131.51,118.14Zm4.43,130h-3.12c-.29,0-.61-.06-.61.41s.29.43.6.43h6.3c.31,0,.59,0,.58-.44s-.28-.4-.57-.4Zm-3.79-51-.1.22c.43.21.86.59,1.3.6,1.94.07,3.89,0,5.84,0,.29,0,.5,0,.5-.41s-.15-.45-.46-.45ZM163.79,82.8v-.11h-31v.11ZM136.12,196.32h3.06c.29,0,.5,0,.5-.4s-.15-.44-.47-.44h-6.07c-.31,0-.47.09-.47.43s.2.41.49.41Zm13.45-85.87c0,.81,0,1.61,0,2.42,0,.38.19.46.52.46s.57,0,.57-.47q0-2.33,0-4.65c0-.42-.2-.48-.55-.48s-.55.08-.54.49C149.59,109,149.57,109.71,149.57,110.46Zm-4.12.63,0,.13c1.14,0,2.27,0,3.41,0,.14,0,.39-.17.4-.28,0-.54,0-1.08,0-1.62-1.51-.14-2.92-.17-4.17.94a4.59,4.59,0,0,1,.77,0c.14,0,.25.16.38.25a1.76,1.76,0,0,1-.33.39A2.28,2.28,0,0,1,145.45,111.08Zm5.25,130.3c0-.75,0-1.49,0-2.24,0-.45-.18-.57-.6-.57s-.55.15-.54.55c0,.88,0,1.77,0,2.65a8.34,8.34,0,0,0,.25,1,1.78,1.78,0,0,1-.07.59c0,.23-.1.46-.15.7a2.09,2.09,0,0,0,.76.11c.14,0,.3-.33.31-.52C150.73,242.87,150.71,242.13,150.71,241.38Zm-19.57-79a2.33,2.33,0,0,0-.83,1.9c.06,1.39,0,2.79,0,4.18a2.09,2.09,0,0,0,.82,1.56Zm5.33-19.62H133.7c-.3,0-.55,0-.55.42s.23.43.54.43h5.48c.32,0,.53-.06.52-.45s-.22-.4-.51-.4Zm-4.08-23.88-.09.21a3.76,3.76,0,0,0,1.27.57c1.88.05,3.77,0,5.66,0,.15,0,.3-.25.46-.38-.15-.13-.3-.37-.45-.37C136.94,118.93,134.67,118.93,132.39,118.93Zm.81,105.24-.07.2c.43.22.86.6,1.3.62,1.59.08,3.19,0,4.78,0,.31,0,.48-.09.48-.44s-.19-.42-.49-.42h-6ZM143.68,96.44c.51-.1,1-.21,1.48-.28,1.24-.2,1.28-.14,1.19,1.14-.05.75,0,1.51,0,2.27l.16.11a5.22,5.22,0,0,0,.74-.78c.08-.12-.12-.38-.13-.58,0-.57,0-1.14,0-1.7a7.63,7.63,0,0,1,.26-1.08,1.36,1.36,0,0,0-.41-.11c-.84,0-1.69,0-2.53,0-1,0-1,0-.84.91A.68.68,0,0,0,143.68,96.44Zm1.38,86.76c-.71,0-1.42,0-2.12,0a.46.46,0,0,0-.33.31c0,.81,0,1.63,0,2.62.67-.43,1.2-.79,1.75-1.1A1.43,1.43,0,0,0,145.06,183.2Zm.7,23.94c-.42,0-.79,0-1.16,0s-.5.14-.5.48c0,.76,0,1.52,0,2.29,0,.4,0,.79,0,1.19l.25.1c.45-.52,1.12-1,1.3-1.56A9,9,0,0,0,145.76,207.14ZM133.44,146l-.06.18a4.19,4.19,0,0,0,1.37.64c1.47.08,2.94,0,4.41,0,.32,0,.53-.05.52-.45s-.27-.41-.56-.41h-5.69Zm-.6,25.59-.07.26a4,4,0,0,0,1.24.5c1.69.06,3.38,0,5.07,0,.26,0,.58.07.6-.37s-.33-.41-.61-.41h-6.22Zm25.74-8.65v6.63a2.49,2.49,0,0,0,.83-1.87,24.12,24.12,0,0,1,0-2.83A2.47,2.47,0,0,0,158.58,162.93Zm-24.63,35.73,0,.14c.42.23.83.64,1.27.67,1.37.09,2.75,0,4.12,0,.13,0,.37-.27.35-.38s-.23-.42-.37-.42c-.9,0-1.81,0-2.71,0ZM131,143.81V136.5c-.31.33-.68.69-.69,1.06-.05,1.59,0,3.18,0,4.77A2.09,2.09,0,0,0,131,143.81Zm3.3-23.32-.08.16a4.46,4.46,0,0,0,1.39.65c1.19.09,2.4,0,3.6,0,.3,0,.48-.08.48-.43s-.2-.42-.49-.42Zm11.81,93.46a8.41,8.41,0,0,1,1.08,0c.17,0,.42.15.45.27.08.35-.21.32-.45.34-.4,0-.79.09-1.19.14l0,.22h2.52a1.14,1.14,0,0,0,.41,0c.14-.06.32-.17.35-.29.33-1.26,0-1.63-1.25-1.63a3.38,3.38,0,0,0-.65,0A1.68,1.68,0,0,0,146.11,213.95Zm-12,32.64c.08.34-.16.77.41.77,1.59,0,3.19,0,4.78,0,.14,0,.27-.24.4-.37-.13-.13-.26-.37-.39-.38C137.58,246.58,135.87,246.59,134.08,246.59Zm5.6-6h0c0-.53,0-1.06,0-1.59,0-.15-.22-.29-.33-.43-.13.13-.36.26-.37.39q0,2.39,0,4.77c0,.14.26.28.41.41.1-.16.32-.4.28-.45a1.16,1.16,0,0,1,0-1.45c0-.07,0-.19,0-.29Q139.68,241.29,139.68,240.61Zm14.86-67.45H150c-.31,0-.48.08-.48.43s.2.42.49.42c.77,0,1.54,0,2.3,0A2.54,2.54,0,0,0,154.54,173.16Zm-19.67,0-.06.17a4.37,4.37,0,0,0,1.34.64,24.51,24.51,0,0,0,3.11,0c.15,0,.28-.26.42-.4-.14-.14-.27-.4-.41-.4C137.8,173.15,136.34,173.16,134.87,173.16Zm-4.2,48.56v-6.4a1.75,1.75,0,0,0-.61,1.44q0,1.79,0,3.59A1.68,1.68,0,0,0,130.67,221.72Zm28-78.52.16.07a4.11,4.11,0,0,0,.42-1.17c.05-1.33.05-2.67,0-4a3.71,3.71,0,0,0-.41-1.09l-.17.07Zm-19-32.65c0-.73,0-1.45,0-2.18,0-.24.12-.63-.32-.6-.12,0-.28.36-.29.56q0,2.21,0,4.41c0,.19.2.38.31.57.1-.2.28-.39.29-.59C139.7,112,139.68,111.27,139.68,110.54Zm9.56,143.54v.24h11.21q0-.12,0-.24Zm-19-12.06c-.48.38-.3.88-.3,1.35,0,2.18,0,4.37,0,6.55a3.44,3.44,0,0,0,.1.59l.19,0ZM140,252.64c-.46-.35-10.28-.34-10.73,0Zm-.18-78.18,0-.15a1,1,0,0,0-.3-.1h-10a1.07,1.07,0,0,0-.34.13l0,.13ZM130,225.35c.55.38,10.28.35,10.69,0Zm-.36-103.73v.16h10.54v-.16Zm16.74,9.23.22,0c.08-.35.16-.69.26-1,0-.16.14-.43.2-.43.7,0,.53-.48.54-.85,0-.77,0-.77.81-.81.13,0,.25,0,.54-.09-.24-.18-.36-.35-.48-.35-.61,0-1.21,0-1.82,0-.09,0-.25.19-.25.3C146.34,128.7,146.34,129.78,146.34,130.85ZM129.15,227c.57.33,10.13.27,10.43,0Zm-.16-78H139.6C139,148.58,129.39,148.62,129,148.92Zm11.85,24v-.17h-10.4v.17Zm0,78.18v-.16H130.55c0,.05,0,.11,0,.16Zm-5.43-25.24-.05.16a4.87,4.87,0,0,0,1.37.65,14.44,14.44,0,0,0,2.52,0c.14,0,.34-.26.37-.42s-.22-.37-.35-.38C138,225.82,136.73,225.83,135.44,225.83Zm9.41-137.47c0,.29,0,.59,0,.88,0,.45.28.44.59.43s.62.05.61-.41c0-.63,0-1.26,0-1.88a.6.6,0,0,0-.39-.41c-.7-.11-.78,0-.78.69C144.85,87.89,144.85,88.12,144.85,88.36Zm-.46,0c0-.29,0-.59,0-.88,0-.47-.25-.49-.6-.49s-.62,0-.6.48,0,1.17,0,1.76c0,.35.13.47.48.49s.8-.08.72-.67A5.14,5.14,0,0,1,144.39,88.31Zm-13.61,31.74v.16H141v-.16Zm11.94-31.68h0c0-.33,0-.67,0-1s-.3-.42-.6-.42-.61,0-.6.42,0,1.22,0,1.82c0,.36.14.47.49.49.5,0,.81-.07.71-.67A3.85,3.85,0,0,1,142.73,88.37Zm-1.64,110v-.17H130.94v.17Zm-1.89,3.19c-.59-.35-9.92-.3-10.28,0Zm20.55,49.47c-.51-.35-9.92-.3-10.24,0ZM128.92,123.2v.2H139v-.22C135.62,123.18,132.27,123.15,128.92,123.2Zm12.39,22.53c0-.06,0-.11,0-.17h-9.93v.17Zm3.09-61.43c0-.25,0-.51,0-.76,0-.46-.24-.5-.59-.49s-.63,0-.61.48,0,1.1,0,1.65c0,.35.12.48.48.5s.81-.07.73-.66A5,5,0,0,1,144.39,84.31Zm.46,0h0q0,.47,0,.94c0,.48.36.37.63.38s.57,0,.56-.4c0-.61,0-1.22,0-1.82a.56.56,0,0,0-.38-.37c-.7-.11-.79,0-.79.68C144.85,83.95,144.85,84.14,144.85,84.34Zm-2.12,0h0c0-.29,0-.59,0-.88,0-.5-.31-.44-.63-.45s-.58,0-.57.46,0,1.14,0,1.71c0,.33.14.44.46.45.69,0,.73,0,.73-.69ZM131.56,223.75v.16h9.78v-.16Zm7.11,30.53,0-.25c-3.27,0-6.55-.09-9.82.09v.17Zm-9.8-78.34v.12h9.66v-.12Zm12.7-4.69v-.16h-9.49v.16Zm-5.76-23.6-.08.18a6.44,6.44,0,0,0,1.46.64,12.76,12.76,0,0,0,2,0c.29,0,.49-.05.5-.41s-.16-.44-.47-.44Zm3.63-59.39c0-.27,0-.55,0-.82s-.17-.5-.53-.5-.6.08-.58.52,0,1.06,0,1.58.07.65.57.65.56-.28.54-.67S139.43,88.51,139.43,88.26Zm2.14,161.2,0-.18a1.5,1.5,0,0,0-.35-.09h-8.66a1.28,1.28,0,0,0-.39.14l0,.13Zm7.78-161.12c0-.31,0-.63,0-.94s-.21-.45-.52-.45-.59,0-.58.46,0,1.1,0,1.65c0,.39,0,.63.53.63s.61-.22.57-.65C149.34,88.81,149.35,88.57,149.35,88.33Zm2.11,0c0,.29,0,.59,0,.88s.17.5.53.49.56-.07.55-.48,0-1.1,0-1.64c0-.39-.06-.62-.54-.62s-.58.2-.55.61C151.48,87.8,151.47,88.05,151.47,88.31Zm-3.76,0c0-.27,0-.55,0-.82s-.12-.55-.54-.55-.6.15-.58.58,0,1,0,1.53.08.64.58.65.56-.28.54-.67C147.69,88.78,147.7,88.55,147.7,88.31Zm-7.81-.05c0,.31,0,.63,0,.94s.2.48.55.48.58-.05.57-.47,0-1.06,0-1.58,0-.7-.59-.69-.55.3-.53.68C139.9,87.83,139.89,88,139.89,88.26Zm1.8,30.36,0-.17a1.34,1.34,0,0,0-.35-.1h-8.43a1.38,1.38,0,0,0-.4.13l0,.15Zm7.76,133.83v.16h9.11v-.16Zm9.34-3v-.17h-9.24v.17Zm-26-52.83v.24c3,0,6,0,9,0v-.24Zm6.64-112.22c0-.29,0-.59,0-.88s-.18-.46-.51-.45-.6,0-.6.43,0,1,0,1.53,0,.67.55.67.59-.24.56-.65C139.42,84.82,139.43,84.6,139.43,84.38Zm.46,0c0,.27,0,.55,0,.82s.21.45.52.44.6,0,.59-.44,0-1,0-1.53S141,83,140.44,83s-.58.26-.55.66C139.91,83.93,139.89,84.17,139.89,84.4Zm12.65,0c0-.29,0-.59,0-.88s-.2-.45-.52-.45-.58,0-.56.47,0,1,0,1.53,0,.62.52.63.59-.25.56-.66C152.53,84.81,152.54,84.59,152.54,84.38Zm-7.68,19.12v2.67l.15.09a5.43,5.43,0,0,0,1-1.19,2.53,2.53,0,0,0,.11-1.46c0-.12-.72-.11-1.11-.16A.68.68,0,0,0,144.86,103.49Zm4.49-19.12c0-.29,0-.59,0-.88s-.2-.45-.52-.45-.59,0-.58.44,0,1,0,1.52,0,.66.55.66.58-.26.55-.66C149.34,84.81,149.35,84.59,149.35,84.37Zm-1.65,0c0-.27,0-.55,0-.82s-.17-.49-.53-.5-.6.08-.59.52,0,1,0,1.47.07.65.58.65.57-.28.54-.67C147.69,84.79,147.7,84.58,147.7,84.36Zm3.26,4h0c0-.27,0-.55,0-.82s-.13-.56-.55-.56-.52.17-.51.53c0,.53,0,1.06,0,1.59s.12.64.6.62.54-.28.51-.66S151,88.56,151,88.32Zm-8.77,133.85h-8.73C133.9,222.51,141.61,222.53,142.19,222.17ZM153,88.27c0,.29,0,.59,0,.88s.11.54.5.53.48-.16.48-.5c0-.57,0-1.14,0-1.71,0-.37-.11-.53-.51-.53s-.49.22-.47.56S153,88,153,88.27Zm-15.22.08c0-.31,0-.63,0-.94s-.16-.47-.5-.47-.52.12-.51.48c0,.57,0,1.14,0,1.71,0,.4.14.56.55.56s.48-.23.47-.57S137.78,88.61,137.78,88.35Zm-1.54,0c0-.29,0-.59,0-.88s-.13-.49-.48-.49-.5.13-.49.48c0,.57,0,1.14,0,1.71,0,.35.07.55.48.55s.51-.19.49-.55S136.24,88.59,136.24,88.31ZM130,147.17v.17h10.52v-.17Zm21-61.56V83.48c0-.44-.3-.42-.61-.43s-.44.18-.44.48,0,.86,0,1.3C149.9,85.71,149.92,85.73,150.95,85.61Zm-21.31,114.2V200h10.6v-.16Zm12.65-30.12v-.17h-8.12v.17Zm-7.93,78v.17h8v-.17Zm.93-163.36c0,.28,0,.55,0,.83s.1.5.47.5.51-.11.5-.47c0-.55,0-1.1,0-1.65,0-.34-.1-.5-.47-.5s-.52.11-.5.47S135.28,84.07,135.28,84.35Zm2.5.05c0-.28,0-.55,0-.83s-.11-.53-.51-.53-.52.18-.51.54c0,.51,0,1,0,1.53s.15.56.56.56.48-.24.46-.57S137.78,84.63,137.78,84.4Zm16.19,0h0c0-.29,0-.59,0-.88s-.22-.43-.53-.44-.45.14-.45.46c0,.55,0,1.09,0,1.64,0,.37.11.53.5.53s.5-.2.48-.55S154,84.62,154,84.36ZM159,195c.66-.95.65-4.35,0-5.29Zm.47,47.65-.08,0v7.74h.16a5.72,5.72,0,0,0,.07-.65c0-2,0-4.05,0-6.08A7.78,7.78,0,0,0,159.52,242.68Zm-10-20.53c.46.38,7.86.34,8.28,0ZM134.81,116.84c.49.38,7.44.33,7.78,0Zm1.58,83.47c.78,1,1.83.89,2.85.83a.63.63,0,0,0,.43-.38c.09-.31-.1-.46-.43-.46Zm-6-5,.18,0v-5.86a1.18,1.18,0,0,0-.49.76c0,1.21,0,2.43.1,3.64C130.22,194.28,130.33,194.77,130.4,195.27ZM135,195v.16h7.61V195Zm14.53-25.54c.46.38,7.42.34,7.8,0ZM134.72,88.36a5.12,5.12,0,0,0,0-1,.58.58,0,0,0-.41-.39.56.56,0,0,0-.41.38c0,.62,0,1.25,0,1.87,0,.33.15.51.45.42a.67.67,0,0,0,.39-.42A3.9,3.9,0,0,0,134.72,88.36Zm14.95,103.15c.37-.44.36-5.16,0-5.69ZM142,144.16V144h-8.68v.18Zm14.71-27.1c-.52-.38-6.91-.34-7.27,0ZM138.07,228.74v-.13h-9v.13Zm19.88-84.58c-.57-.36-8.13-.3-8.5,0ZM134.72,84.4a4.4,4.4,0,0,0,0-.94.59.59,0,0,0-.41-.39.56.56,0,0,0-.41.38,11.11,11.11,0,0,0,0,1.76.63.63,0,0,0,.38.42c.3.09.47-.09.46-.42S134.72,84.68,134.72,84.4Zm22.07,1.24V83h-.9v1.84C155.9,85.7,155.95,85.75,156.79,85.64ZM143,142.54c-.64-.35-7-.31-7.35,0Zm13.53,52.69c-.49-.37-6.72-.33-7.08,0Zm-13.68,25.51c-.52-.38-6.64-.32-7,0Zm.32-8.93.25.09c.09-.17.26-.33.27-.5q0-1.94,0-3.89c0-.12-.18-.24-.28-.35-.08.13-.23.25-.24.38,0,.61,0,1.22,0,1.82Q143.2,210.58,143.2,211.81ZM132,88.36a5,5,0,0,0,0-.94c0-.17-.23-.31-.36-.46-.12.14-.32.28-.33.43a15.38,15.38,0,0,0,0,1.88c0,.14.23.27.36.41.12-.14.3-.27.33-.43A4.8,4.8,0,0,0,132,88.36Zm10.38,124.14c.46-.46.5-4.91.08-5.43A42.77,42.77,0,0,0,142.37,212.49ZM133.3,88.32a6.62,6.62,0,0,0,0-1,.5.5,0,0,0-.34-.34c-.13,0-.37.19-.38.3a19.71,19.71,0,0,0,0,2.06c0,.12.24.31.37.31a.49.49,0,0,0,.35-.33A6.52,6.52,0,0,0,133.3,88.32Zm24,0a8.7,8.7,0,0,0,0,1.06c0,.12.22.32.31.3s.37-.19.37-.31c0-.69,0-1.38,0-2.06,0-.11-.22-.32-.31-.3a.52.52,0,0,0-.37.31A6.27,6.27,0,0,0,157.26,88.28Zm-7.7,54.07c.48.37,6.15.32,6.49,0ZM136.69,167.9v.17h6.45c0-.06,0-.11,0-.17Zm.23,78.18v.17h6.31v-.17Zm15.73-124c-.93,0-1.79,0-2.65,0-.14,0-.28.22-.42.34.12.14.23.39.36.41A2.85,2.85,0,0,0,152.65,122.12ZM133.3,84.4a6.37,6.37,0,0,0,0-1,.36.36,0,0,0-.72,0,15,15,0,0,0,0,1.89c0,.13.24.31.4.35s.3-.21.32-.35A4.9,4.9,0,0,0,133.3,84.4Zm-1.31,0a7.42,7.42,0,0,0,0-1c0-.12-.22-.31-.31-.3s-.36.19-.37.3a17.55,17.55,0,0,0,0,1.93.48.48,0,0,0,.34.32.49.49,0,0,0,.34-.33A5.56,5.56,0,0,0,132,84.37Zm19.07,68h-.64c-.29,0-.49.05-.49.41s.14.45.46.44.9,0,1.35,0,.46-.11.46-.44-.2-.42-.49-.41Zm0,2.49a2.21,2.21,0,0,0,.7,0,.66.66,0,0,0,.38-.43c0-.11-.22-.36-.36-.37a7.19,7.19,0,0,0-1.47,0c-.15,0-.34.26-.37.43s.21.33.36.38A3,3,0,0,0,151.08,154.86Zm-13.14,75a2.36,2.36,0,0,0,.7,0c.17-.06.4-.26.4-.4a.57.57,0,0,0-.38-.4,6.23,6.23,0,0,0-1.41,0,.57.57,0,0,0-.4.4c0,.14.22.35.39.41A2.31,2.31,0,0,0,137.94,229.86Zm.06,2.35a3.38,3.38,0,0,0-.82,0,.55.55,0,0,0-.33.4.53.53,0,0,0,.34.4,8.23,8.23,0,0,0,1.53,0,.53.53,0,0,0,.33-.4.56.56,0,0,0-.34-.4A2.38,2.38,0,0,0,138,232.21Zm13-80.53a2.38,2.38,0,0,0,.7,0c.17-.05.4-.25.4-.39a.57.57,0,0,0-.38-.41,6.24,6.24,0,0,0-1.41,0,.57.57,0,0,0-.4.39c0,.14.22.36.38.41A2.3,2.3,0,0,0,151,151.68Zm-14.36-29.55a2.79,2.79,0,0,0,2.63.78c.13,0,.31-.26.33-.43s-.21-.33-.34-.34C138.46,122.11,137.6,122.13,136.69,122.13Zm.71-6.88v.15h6v-.15ZM137.87,99h0a3.11,3.11,0,0,0,.76,0,.5.5,0,0,0,.3-.38c0-.16-.19-.4-.32-.42a6.75,6.75,0,0,0-1.41,0c-.14,0-.37.27-.36.37a.68.68,0,0,0,.38.43A1.86,1.86,0,0,0,137.87,99Zm.73,53.37a2,2,0,0,0-.64,0c-.17.06-.4.25-.41.39a.57.57,0,0,0,.37.42,5.41,5.41,0,0,0,1.35,0,.57.57,0,0,0,.37-.42c0-.14-.23-.33-.41-.39A2,2,0,0,0,138.6,152.38Zm13.2-50.18a2.49,2.49,0,0,0,.7,0c.15,0,.38-.27.36-.38a.61.61,0,0,0-.38-.42,5.81,5.81,0,0,0-1.35,0c-.14,0-.37.27-.35.38a.68.68,0,0,0,.38.43A1.85,1.85,0,0,0,151.81,102.19Zm-13.93,0a2,2,0,0,0,.64,0c.17-.06.29-.25.44-.39-.14-.14-.26-.39-.41-.41a5,5,0,0,0-1.29,0,.64.64,0,0,0-.42.39c-.09.33.14.45.45.43Zm11.68,145.52v.17h6v-.17Zm2.16-15.51a2,2,0,0,0-.64,0c-.17.06-.4.25-.4.39a.56.56,0,0,0,.37.41,5.43,5.43,0,0,0,1.34,0,.56.56,0,0,0,.37-.41c0-.14-.24-.33-.41-.39A2,2,0,0,0,151.71,232.21Zm0-2.35a2,2,0,0,0,.64,0c.17-.06.4-.25.4-.39a.57.57,0,0,0-.38-.41,5.43,5.43,0,0,0-1.34,0,.6.6,0,0,0-.37.42c0,.11.2.33.35.38A2.48,2.48,0,0,0,151.72,229.85ZM138.6,151.68a2,2,0,0,0,.64,0c.17-.06.4-.25.41-.39a.57.57,0,0,0-.37-.41,5.43,5.43,0,0,0-1.35,0,.56.56,0,0,0-.37.41c0,.14.24.33.41.39A2,2,0,0,0,138.6,151.68ZM151.85,99a1.83,1.83,0,0,0,.64,0,.68.68,0,0,0,.37-.43c0-.11-.22-.35-.36-.37a5.8,5.8,0,0,0-1.35,0,.6.6,0,0,0-.37.43c0,.11.21.33.36.37A2.55,2.55,0,0,0,151.85,99Zm-13.29,55.86a2.3,2.3,0,0,0,.7,0c.17-.06.39-.26.39-.4a.57.57,0,0,0-.39-.4,5.87,5.87,0,0,0-1.35,0c-.14,0-.38.26-.36.37a.67.67,0,0,0,.37.43A1.82,1.82,0,0,0,138.56,154.86Zm5,38.74c-.51-.36-5.61-.34-6,0Zm-4.58,37c-.56,0-1.15,0-1.72,0-.16,0-.29.27-.43.42.14.14.27.36.43.39a7.41,7.41,0,0,0,1.17,0C139.11,231.4,139.15,231.35,139,230.56Zm-1.82-53.38a2.51,2.51,0,0,0,.7,0c.15,0,.38-.26.36-.37a.6.6,0,0,0-.37-.43c-.42-.06-.86,0-1.29,0s-.42.17-.43.47.18.38.44.38Zm-7.23-60.91h.14v-4.54A8.43,8.43,0,0,0,129.93,116.27Zm13.52,17.11c.39-.41.46-4.91,0-5.42A50.16,50.16,0,0,0,143.45,133.38Zm-6.92-9.7a1.66,1.66,0,0,0-.58,0,.74.74,0,0,0-.42.39c-.09.32.12.44.44.43s.74,0,1.11,0,.47-.1.46-.44-.2-.42-.49-.41Zm16.64.84a1.7,1.7,0,0,0,.58,0,.74.74,0,0,0,.43-.38c.09-.31-.11-.45-.43-.44a12.06,12.06,0,0,0-1.22,0,.53.53,0,0,0-.33.4.57.57,0,0,0,.34.4A2,2,0,0,0,153.17,124.52Zm-2.64,4.84a2.4,2.4,0,0,0,.7,0,.57.57,0,0,0,.35-.39.53.53,0,0,0-.32-.41,5.8,5.8,0,0,0-1.35,0,.53.53,0,0,0-.31.42c0,.14.2.33.35.39A1.65,1.65,0,0,0,150.53,129.35Zm-13.95-.84h0a1.94,1.94,0,0,0-.64,0c-.17.06-.39.26-.4.4a.57.57,0,0,0,.37.41,5.37,5.37,0,0,0,1.28,0,.48.48,0,0,0,.31-.36.6.6,0,0,0-.3-.44A1.74,1.74,0,0,0,136.58,128.51Zm15.88,51h-.53c-.29,0-.5.05-.51.41s.18.44.48.43.75,0,1.12,0,.54-.11.45-.43a.75.75,0,0,0-.43-.39A1.71,1.71,0,0,0,152.46,179.54Zm-15.21,0a1.92,1.92,0,0,0-.64,0c-.17.06-.29.26-.43.4.14.14.27.38.43.4a5.06,5.06,0,0,0,1.28,0,.53.53,0,0,0,.33-.4.57.57,0,0,0-.34-.4A2,2,0,0,0,137.25,179.54Zm15.92-50.18a2,2,0,0,0,.64,0,.58.58,0,0,0,.35-.39.53.53,0,0,0-.31-.42,5.78,5.78,0,0,0-1.34,0,.53.53,0,0,0-.32.41.58.58,0,0,0,.35.39A2,2,0,0,0,153.18,129.35Zm-.75,47.83h0a3,3,0,0,0,.76,0,.51.51,0,0,0,.28-.4c0-.14-.17-.38-.29-.39a6.88,6.88,0,0,0-1.41,0c-.13,0-.3.27-.32.43s.19.32.33.36A2.19,2.19,0,0,0,152.43,177.18Zm.48,25.51h0a1.93,1.93,0,0,0,.64,0c.17-.06.39-.26.39-.4a.57.57,0,0,0-.38-.4,5.38,5.38,0,0,0-1.28,0,.48.48,0,0,0-.31.37.6.6,0,0,0,.3.43A1.78,1.78,0,0,0,152.9,202.7Zm0,1.65h0a1.91,1.91,0,0,0,.64,0c.17-.06.39-.26.39-.4a.57.57,0,0,0-.38-.41,5,5,0,0,0-1.28,0c-.13,0-.29.27-.31.43a.51.51,0,0,0,.3.37A2.08,2.08,0,0,0,152.91,204.34Zm.29-74.29a1.78,1.78,0,0,0-.64,0,.67.67,0,0,0-.36.44c0,.11.22.35.36.37a5.39,5.39,0,0,0,1.28,0,.53.53,0,0,0,.33-.4.57.57,0,0,0-.33-.4A1.94,1.94,0,0,0,153.2,130.06Zm0-2.35h0a1.79,1.79,0,0,0,.64,0,.66.66,0,0,0,.36-.43c0-.11-.22-.35-.36-.37a5.4,5.4,0,0,0-1.28,0,.53.53,0,0,0-.33.4.57.57,0,0,0,.33.4A1.93,1.93,0,0,0,153.17,127.7Zm-2.57,0h.53c.29,0,.49-.05.49-.41s-.16-.44-.47-.43a9.27,9.27,0,0,0-1.17,0,.6.6,0,0,0-.37.42c0,.11.2.32.35.38A2,2,0,0,0,150.59,127.7Zm-14-.84a2.07,2.07,0,0,0-.64,0c-.15.05-.38.26-.36.37a.6.6,0,0,0,.36.43,5,5,0,0,0,1.28,0,.53.53,0,0,0,.33-.4.57.57,0,0,0-.33-.4A2,2,0,0,0,136.54,126.87Zm22-38.6h0c0,.37,0,.74,0,1.11a.4.4,0,0,0,.29.27.39.39,0,0,0,.29-.26q0-1.05,0-2.11c0-.11-.17-.21-.26-.31-.11.1-.31.2-.32.31A7.35,7.35,0,0,0,158.54,88.27Zm-5.64,120.81a2.4,2.4,0,0,0,.7,0,.57.57,0,0,0,.35-.39.53.53,0,0,0-.32-.41,5.83,5.83,0,0,0-1.34,0,.53.53,0,0,0-.31.41c0,.14.2.33.35.39A1.63,1.63,0,0,0,152.89,209.08Zm.1-2.38h0a1.9,1.9,0,0,0-.64,0c-.17.06-.39.27-.39.41a.57.57,0,0,0,.38.4,5.4,5.4,0,0,0,1.28,0,.48.48,0,0,0,.3-.37.6.6,0,0,0-.31-.43A1.79,1.79,0,0,0,153,206.69Zm0-1.65h-.53c-.29,0-.49,0-.49.41s.15.45.46.44.74,0,1.11,0,.46-.1.46-.44-.2-.42-.49-.41Zm-3.39-37.15v.17h5.56q0-.09,0-.17Zm2.69-41.73h1.47c.3,0,.49-.06.49-.42s-.15-.45-.47-.44a8.15,8.15,0,0,1-.94,0C152.21,125.26,152.06,125.53,152.25,126.17Zm-14.41,24.37v-.12h-8.67v.12Zm-1.27-20.48h0a3.44,3.44,0,0,0-.76,0,.48.48,0,0,0-.26.36c0,.14.11.41.19.41a8.22,8.22,0,0,0,1.51,0c.12,0,.25-.31.28-.49s-.26-.21-.42-.25A2.11,2.11,0,0,0,136.56,130.06Zm14.08-3.91v0h.47c.29,0,.49-.06.5-.41s-.2-.45-.52-.45a9.42,9.42,0,0,0-1.11,0c-.15,0-.38.24-.37.36a.59.59,0,0,0,.34.43A2.16,2.16,0,0,0,150.63,126.15ZM135.78,205c-.16.81-.15.84.58.84a4.68,4.68,0,0,0,.93,0,.54.54,0,0,0,.35-.38c0-.14-.19-.4-.31-.42C136.81,205,136.29,205,135.78,205ZM159.15,84.41a8.12,8.12,0,0,0,0-1c0-.13-.18-.24-.28-.35-.11.11-.3.22-.3.33,0,.64,0,1.29,0,1.94,0,.11.2.21.31.32.1-.12.25-.23.27-.36A6.07,6.07,0,0,0,159.15,84.41ZM137.83,233.82v0a3.84,3.84,0,0,0-.64,0c-.12,0-.32.13-.33.22a1,1,0,0,0,.1.52c.65,0,1.3-.06,1.94-.14.07,0,.17-.23.14-.33a.38.38,0,0,0-.28-.22C138.45,233.8,138.14,233.82,137.83,233.82Zm-2.05-31.12c.47,0,1,0,1.44,0,.31,0,.47-.1.46-.44s-.21-.42-.5-.41h-.82C135.64,201.86,135.62,201.89,135.78,202.7Zm.84,1.65h0a2.29,2.29,0,0,0,.7,0,.56.56,0,0,0,.33-.41.53.53,0,0,0-.34-.39,4.28,4.28,0,0,0-1.22,0c-.15,0-.31.29-.35.47s.22.28.37.34A1.52,1.52,0,0,0,136.62,204.35Zm15.06,26.26v0a2.22,2.22,0,0,0-.64,0c-.15,0-.39.24-.37.33s.2.44.34.45a5.8,5.8,0,0,0,1.4,0c.14,0,.31-.27.36-.44s-.23-.28-.39-.32A2.85,2.85,0,0,0,151.68,230.6Zm-1.17-24.72a1.48,1.48,0,0,0,.58,0,.69.69,0,0,0,.36-.44c0-.11-.21-.35-.36-.37a4.2,4.2,0,0,0-1.16,0,.53.53,0,0,0-.33.4.58.58,0,0,0,.33.4A1.59,1.59,0,0,0,150.51,205.89Zm-15.12,24a1.7,1.7,0,0,0,.58,0c.16-.06.38-.27.36-.38A.61.61,0,0,0,136,229a3.56,3.56,0,0,0-1.11,0c-.14,0-.38.27-.36.37a.73.73,0,0,0,.38.43A1.26,1.26,0,0,0,135.39,229.85Zm15.22-97.31h.53c.3,0,.48-.08.48-.42s-.17-.44-.48-.43a8.1,8.1,0,0,0-1.11,0c-.13,0-.29.27-.3.43s.17.32.31.37A1.7,1.7,0,0,0,150.61,132.54Zm0,75h0a1.16,1.16,0,0,0,.46,0,.82.82,0,0,0,.43-.38c.09-.3-.09-.46-.42-.45a9.13,9.13,0,0,0-1.11,0,.53.53,0,0,0-.33.4.57.57,0,0,0,.33.4A1.9,1.9,0,0,0,150.57,207.53ZM136,150a1.47,1.47,0,0,0,.58,0,.69.69,0,0,0,.36-.44c0-.11-.21-.35-.36-.37a4.22,4.22,0,0,0-1.17,0,.53.53,0,0,0-.33.4.59.59,0,0,0,.33.41A1.54,1.54,0,0,0,136,150Zm18.37,79.82h.35c.29,0,.55,0,.55-.41s-.23-.44-.54-.43a6.53,6.53,0,0,0-1,0,.54.54,0,0,0-.34.39.57.57,0,0,0,.33.41A1.93,1.93,0,0,0,154.36,229.85ZM136,153.22h.47c.33,0,.51-.09.5-.46s-.23-.4-.51-.39a6.82,6.82,0,0,0-1,0,.53.53,0,0,0-.33.41.59.59,0,0,0,.34.4A1.58,1.58,0,0,0,136,153.22ZM154.27,99a1.55,1.55,0,0,0,.58,0,.7.7,0,0,0,.38-.43c0-.11-.21-.36-.35-.38a3.55,3.55,0,0,0-1.11,0,.61.61,0,0,0-.38.42c0,.11.2.31.36.38A1.4,1.4,0,0,0,154.27,99ZM136,151.67a1.7,1.7,0,0,0,.58,0c.15-.06.38-.26.36-.37a.6.6,0,0,0-.36-.43,3.88,3.88,0,0,0-1.16,0,.53.53,0,0,0-.33.4.59.59,0,0,0,.33.4A1.59,1.59,0,0,0,136,151.67Zm18.42,80.53a1.87,1.87,0,0,0-.63,0c-.17.07-.29.26-.42.4.14.14.26.33.43.4a1,1,0,0,0,.58,0c.32-.07.88.29.89-.41S154.67,232.33,154.41,232.21Zm-19.05.84a1.58,1.58,0,0,0,.58,0,.71.71,0,0,0,.39-.42c0-.11-.21-.36-.35-.38a4.21,4.21,0,0,0-1.17,0,.53.53,0,0,0-.32.41c0,.14.2.32.35.39A1.37,1.37,0,0,0,135.36,233Zm.65-79h-.47c-.29,0-.49,0-.5.4s.2.45.52.44.62,0,.93,0,.53-.11.44-.43a.77.77,0,0,0-.41-.4A1.35,1.35,0,0,0,136,154Zm18.32-52.66a1.7,1.7,0,0,0-.58,0c-.16.06-.38.27-.36.38a.61.61,0,0,0,.37.42,3.56,3.56,0,0,0,1.11,0c.14,0,.37-.27.36-.37a.73.73,0,0,0-.38-.43A1.26,1.26,0,0,0,154.33,101.36ZM136,156.41h0a1.52,1.52,0,0,0,.58,0,.69.69,0,0,0,.37-.43c0-.11-.21-.36-.34-.38a4.2,4.2,0,0,0-1.17,0,.53.53,0,0,0-.34.39.59.59,0,0,0,.32.42A1.53,1.53,0,0,0,136,156.41Zm14.55,47.93H151c.3,0,.48-.07.48-.42s-.16-.44-.47-.43a8.42,8.42,0,0,0-1.11,0c-.13,0-.3.27-.31.42a.51.51,0,0,0,.3.38A2.06,2.06,0,0,0,150.53,204.34Zm-13.86,3.18a2.41,2.41,0,0,0,.7,0,.52.52,0,0,0,.28-.4c0-.14-.17-.38-.28-.4a6.45,6.45,0,0,0-1.34,0c-.12,0-.29.26-.29.4a.53.53,0,0,0,.29.4A2,2,0,0,0,136.67,207.53Zm.06.71a1.92,1.92,0,0,0-.64,0,.62.62,0,0,0-.35.41.49.49,0,0,0,.3.38,5.33,5.33,0,0,0,1.29,0c.13,0,.29-.28.31-.45s-.19-.3-.33-.35A1.82,1.82,0,0,0,136.73,208.24Zm17.69,19.14a2.32,2.32,0,0,0-.7,0,.57.57,0,0,0-.34.4.58.58,0,0,0,.33.41,1.19,1.19,0,0,0,.64,0c.34-.07.93.28.91-.44S154.66,227.49,154.42,227.37Zm-19,0H135c-.27,0-.56-.06-.57.38s.21.49.55.48.59,0,.88,0,.48-.07.49-.42-.15-.46-.46-.44Zm18.23-71.8h0a1.76,1.76,0,0,0-.63,0,.6.6,0,0,0-.3.44.48.48,0,0,0,.3.37,5.43,5.43,0,0,0,1.28,0c.13,0,.3-.27.31-.43s-.17-.32-.31-.37A2.09,2.09,0,0,0,153.61,155.57Zm-16.15-29.45c.16-.73.11-.8-.55-.8h-.76c-.66,0-.73.1-.52.8ZM156,89.67l.24,0,.66-2.8-.9,0Zm-2.35,63.55h.47c.29,0,.5-.06.5-.41s-.16-.45-.48-.44a8.9,8.9,0,0,0-1.06,0c-.15,0-.4.25-.38.34a.77.77,0,0,0,.36.47C153.19,153.28,153.42,153.22,153.62,153.22Zm-1.82-49.47a3.18,3.18,0,0,0,.76,0,.51.51,0,0,0,.32-.36.49.49,0,0,0-.31-.37,8.33,8.33,0,0,0-1.46,0,.49.49,0,0,0-.31.37.51.51,0,0,0,.31.37A2.63,2.63,0,0,0,151.79,103.75Zm-13.91,0h0a3,3,0,0,0,.76,0,.53.53,0,0,0,.3-.39.44.44,0,0,0-.28-.34,9.72,9.72,0,0,0-1.52,0c-.11,0-.3.26-.29.39s.2.31.34.35A2.77,2.77,0,0,0,137.88,103.75Zm13.93-4h0a2.15,2.15,0,0,0-.64,0c-.16.05-.28.24-.41.36.13.13.24.37.38.38a7.22,7.22,0,0,0,1.4,0,.49.49,0,0,0,.33-.35.51.51,0,0,0-.3-.38A3,3,0,0,0,151.81,99.79Zm-13.93.77a3.65,3.65,0,0,0,.76,0c.12,0,.3-.22.29-.33s-.17-.39-.28-.4a8.91,8.91,0,0,0-1.52,0c-.11,0-.29.26-.29.39s.2.31.34.35A2.73,2.73,0,0,0,137.88,100.56Zm13.82,134h0a3,3,0,0,0,.7,0c.15,0,.38-.23.36-.32s-.2-.41-.33-.43a7.63,7.63,0,0,0-1.47,0,.49.49,0,0,0-.3.38.52.52,0,0,0,.33.36A2.69,2.69,0,0,0,151.7,234.6Zm1.09-82.92a11.6,11.6,0,0,0,1.38,0c.15,0,.28-.27.42-.41-.15-.14-.27-.35-.44-.39a3.28,3.28,0,0,0-.82,0C152.59,150.84,152.58,150.85,152.78,151.67Zm0,2.35c-.11.81-.1.83.58.84a4,4,0,0,0,.88,0,.56.56,0,0,0,.36-.38.53.53,0,0,0-.32-.41C153.73,154,153.23,154,152.74,154Zm.91-4a1.27,1.27,0,0,0,.52,0c.17-.08.39-.28.39-.42s-.24-.36-.41-.39a2.92,2.92,0,0,0-1,0c-.16,0-.29.27-.43.41a2.07,2.07,0,0,0,.46.4A1.36,1.36,0,0,0,153.65,150Zm-16.46,31.91h0a2.93,2.93,0,0,0,.76,0,.53.53,0,0,0,.28-.4.44.44,0,0,0-.29-.33,6.67,6.67,0,0,0-1.41,0c-.15,0-.26.3-.39.46.13.1.26.25.41.28A2.83,2.83,0,0,0,137.19,181.95ZM155,180.37h.35c.3,0,.54,0,.54-.41s-.23-.44-.53-.43a6.26,6.26,0,0,0-.93,0,.49.49,0,0,0-.31.36.62.62,0,0,0,.3.44A1.45,1.45,0,0,0,155,180.37Zm-20.28,0h.58c.37,0,.42-.22.39-.51,0-.48-.44-.36-.68-.32s-1-.34-1.08.32S134.39,180.3,134.68,180.37ZM155,177.18h.35c.3,0,.54,0,.54-.42s-.23-.43-.53-.43a5.07,5.07,0,0,0-.93,0,.57.57,0,0,0-.31.42c0,.12.17.32.3.37A1.69,1.69,0,0,0,155,177.18Zm-20.3,0h.58c.36,0,.49-.22.39-.49-.25-.72-.87-.22-1.31-.34s-.48.08-.47.42C133.9,177.44,134.42,177.08,134.66,177.19ZM150,155.57a2,2,0,0,0,1.79.82.57.57,0,0,0,.34-.41c0-.12-.17-.39-.27-.4C151.27,155.55,150.65,155.57,150,155.57Zm-14.62-57.4a1.6,1.6,0,0,0-.57,0c-.15.07-.37.27-.35.38a.72.72,0,0,0,.37.43.84.84,0,0,0,.52,0c.32-.07.88.27.87-.42S135.67,98.29,135.41,98.17Zm-.12,4a1.94,1.94,0,0,0,.64,0,.42.42,0,0,0,0-.79,1,1,0,0,0-.57,0c-.33.08-.92-.3-.92.43S135.06,102.07,135.3,102.19Zm17.18,79a2.58,2.58,0,0,0-.7,0,.55.55,0,0,0-.32.37.45.45,0,0,0,.27.35,8.57,8.57,0,0,0,1.46,0c.11,0,.27-.25.28-.4s-.17-.3-.29-.33A3,3,0,0,0,152.48,181.17Zm0-2.43a2.55,2.55,0,0,0,.7,0,.51.51,0,0,0,.31-.37.49.49,0,0,0-.32-.36,6.85,6.85,0,0,0-1.34,0c-.13,0-.36.25-.34.34a.64.64,0,0,0,.36.4A2,2,0,0,0,152.46,178.75Zm-15.27,0a3.6,3.6,0,0,0,.76,0c.12,0,.3-.23.29-.33s-.17-.38-.29-.39a7.36,7.36,0,0,0-1.4,0,.5.5,0,0,0-.33.37c0,.13.19.32.33.37A2.14,2.14,0,0,0,137.19,178.74ZM158,84.38a9.7,9.7,0,0,0,0-1c0-.11-.17-.21-.25-.31-.08.1-.21.19-.22.29-.05.62-.1,1.25-.1,1.87,0,.14.18.28.27.41.11-.13.28-.25.3-.39A5.16,5.16,0,0,0,158,84.38ZM136.28,230.6a11.51,11.51,0,0,0-1.42,0c-.15,0-.27.28-.4.44.14.12.27.3.43.33a3.76,3.76,0,0,0,.81,0C136.39,231.41,136.42,231.37,136.28,230.6Zm18.35-115.19c-.54-.36-4.77-.33-5.11,0ZM143.82,219.15V219h-5.12v.17Zm-7.53,14.64a14.1,14.1,0,0,0-1.44,0,.54.54,0,0,0-.36.39c0,.12.21.34.35.38a3.88,3.88,0,0,0,.88,0C136.39,234.59,136.42,234.55,136.29,233.79Zm18,.8h0a1.45,1.45,0,0,0,.52,0,2,2,0,0,0,.46-.37c-.15-.13-.28-.35-.45-.38a3.46,3.46,0,0,0-1,0c-.14,0-.4.22-.38.31a.73.73,0,0,0,.32.48C153.85,234.66,154.08,234.59,154.27,234.59Zm-20.08-30.11.1-.14h.35c.3,0,.54,0,.54-.42s-.24-.43-.54-.43-.47,0-.71,0-.52.22-.39.47S134,204.32,134.19,204.49Zm5.17-38.17c.43.37,4.41.36,4.73,0Zm8.42-64.11h.8c-.17-.34-.29-.61-.43-.88s-.19-.64.33-.66c.22,0,.44,0,.68-.06-.07-.67-.55-.64-1-.61a.55.55,0,0,0-.39.37C147.75,101,147.77,101.57,147.77,102.2Zm-17-13.87h0a8.29,8.29,0,0,0,0-1c0-.13-.18-.24-.28-.37-.09.11-.26.21-.26.32,0,.69,0,1.38,0,2.06,0,.11.18.2.28.31.09-.11.25-.21.26-.32A9.44,9.44,0,0,0,130.73,88.33Zm3.54,114.37h.39c.32,0,.53,0,.53-.44s-.21-.41-.5-.41a4.48,4.48,0,0,0-.82,0,.53.53,0,0,0-.33.36C133.47,202.9,134,202.64,134.27,202.7Zm.12,2.35h-.34c-.3,0-.54,0-.54.42s.24.43.54.42a3.14,3.14,0,0,0,.76,0,.57.57,0,0,0,.35-.4C135.19,204.8,134.65,205.14,134.39,205Zm-.2,2.63.1-.14h.35c.3,0,.54,0,.54-.42s-.24-.43-.54-.43-.47,0-.71,0-.52.22-.39.47S134,207.51,134.19,207.67Zm.14-6.45a2.91,2.91,0,0,0,.8-.25c.08-.05,0-.56,0-.56a9.51,9.51,0,0,0-1.47,0s-.12.49,0,.56A2.29,2.29,0,0,0,134.33,201.23Zm-.13-77.67-.07.12h-.29c-.28,0-.55,0-.56.39s.25.46.57.45h.7c.4,0,.52-.29.38-.52S134.45,123.69,134.2,123.55Zm21.21,1a1.54,1.54,0,0,0,.58,0c.15-.07.35-.26.35-.4a.54.54,0,0,0-.35-.4,2.92,2.92,0,0,0-1,0,.52.52,0,0,0-.32.37C154.62,124.73,155.15,124.44,155.4,124.51Zm-21.23,2.35a1.35,1.35,0,0,0-.52,0c-.15.07-.35.25-.35.39a.53.53,0,0,0,.32.41,2.65,2.65,0,0,0,1,0,.53.53,0,0,0,.32-.41c0-.14-.2-.3-.35-.4S134.31,126.87,134.18,126.87Zm4.64,2.55a2.94,2.94,0,0,0,.8-.25c.08,0,0-.56,0-.56a9.54,9.54,0,0,0-1.48,0s-.12.5,0,.56A2.32,2.32,0,0,0,138.82,129.42Zm0,3.12h.39c.28,0,.5,0,.51-.39s-.17-.48-.5-.46a4.08,4.08,0,0,0-.81,0,.57.57,0,0,0-.35.4C138,132.78,138.52,132.46,138.78,132.54Zm16.65-3.19h.4c.31,0,.54,0,.54-.44s-.22-.42-.51-.41a3.8,3.8,0,0,0-.82,0,.57.57,0,0,0-.36.39C154.63,129.59,155.17,129.27,155.43,129.36Zm-16.65-1.65c.21,0,.4.05.52,0s.35-.26.35-.39a.53.53,0,0,0-.32-.41,3.79,3.79,0,0,0-1,0,.42.42,0,0,0-.27.3C137.93,127.92,138.49,127.65,138.79,127.7Zm-4.73,1.65a1.6,1.6,0,0,0,.58,0,.56.56,0,0,0,.29-.39c0-.14-.15-.39-.26-.41a4.59,4.59,0,0,0-1.11,0,.43.43,0,0,0-.27.3C133.2,129.56,133.77,129.3,134.05,129.35Zm21.56-2.48a2.31,2.31,0,0,0-.66,0,.5.5,0,0,0-.28.35c0,.14.1.42.17.43a7.69,7.69,0,0,0,1.29,0c.08,0,.2-.19.21-.3C156.41,126.68,155.88,126.92,155.61,126.87Zm-1.31-26.32h0a1.88,1.88,0,0,0,.58,0c.14,0,.36-.24.34-.34s-.2-.39-.34-.4a4.87,4.87,0,0,0-1.22,0c-.12,0-.27.25-.29.39s.16.3.29.33A2.4,2.4,0,0,0,154.31,100.56Zm0,130.85a2.14,2.14,0,0,0,.64,0,.52.52,0,0,0,.31-.37.5.5,0,0,0-.31-.37,5.2,5.2,0,0,0-1.23,0,.5.5,0,0,0-.31.38c0,.12.18.31.32.36A1.79,1.79,0,0,0,154.28,231.4Zm-.07-134a2.12,2.12,0,0,0,.63,0c.16-.06.28-.23.42-.35a1.93,1.93,0,0,0-.44-.4.89.89,0,0,0-.52,0c-.33.07-.89-.26-.92.37S154,97.24,154.2,97.37Zm.11,6.37h0a1.83,1.83,0,0,0,.58,0c.14-.05.35-.25.33-.34s-.21-.38-.34-.4a4.87,4.87,0,0,0-1.22,0c-.12,0-.27.25-.28.4s.17.29.29.33A2.44,2.44,0,0,0,154.31,103.75Zm-17.11,71a2.6,2.6,0,0,0,2,.77c.16,0,.28-.23.42-.35-.14-.14-.28-.39-.43-.4C138.62,174.75,138,174.78,137.21,174.78Zm-7.06-90.43h0a7.79,7.79,0,0,0,0,.94c0,.13.17.24.26.36.1-.11.29-.23.3-.35,0-.63,0-1.26,0-1.89,0-.12-.18-.24-.28-.36-.1.14-.26.26-.28.41A5.73,5.73,0,0,0,130.14,84.35ZM154.33,193.6v-.17h-4.78q0,.09,0,.17Zm5.79-109.24a9.08,9.08,0,0,0,0-.94c0-.12-.15-.23-.23-.35-.09.11-.25.21-.25.32,0,.65,0,1.29,0,1.94,0,.11.16.21.25.32.08-.12.21-.22.23-.35A8.7,8.7,0,0,0,160.12,84.36Zm-29.91,118.7v.09h7v-.09Zm25.9,2a3.28,3.28,0,0,0-.67,0c-.32.07-.88-.29-.91.39s.58.41.91.43C156.18,205.92,156.19,205.89,156.11,205Zm0,1.65a9.35,9.35,0,0,0-1.25,0c-.13,0-.31.26-.33.41a.49.49,0,0,0,.29.39,11.41,11.41,0,0,0,1.29,0ZM129.63,84.35h0c0-.33,0-.67,0-1,0-.1-.15-.19-.23-.28-.08.09-.23.18-.23.28,0,.66,0,1.33,0,2,0,.1.17.2.26.3.07-.1.2-.19.21-.3C129.64,85,129.63,84.68,129.63,84.35ZM139,126.18l.12.11c.18-.18.47-.33.51-.54.1-.48-.3-.43-.61-.44a1.72,1.72,0,0,0-.58,0,1.84,1.84,0,0,0-.46.37,2,2,0,0,0,.44.41A1.78,1.78,0,0,0,139,126.18Zm5.15,118.5c0-.05,0-.1,0-.16h-4.42v.16Zm5.38-24.13a10.15,10.15,0,0,0,4.44,0Zm5.74-17.85h.34c.33,0,.53-.09.53-.45s-.22-.41-.51-.4a3.23,3.23,0,0,0-.75,0,.57.57,0,0,0-.35.39C154.5,202.92,155,202.62,155.29,202.7Zm-9.08,4.43c0,.62,0,1.17,0,1.71,0,.09.11.26.16.26s.29-.08.32-.16c.1-.29.11-.62.21-.91a1.78,1.78,0,0,1,.36-.46l.24-.26c-.11-.06-.21-.16-.32-.17C146.9,207.12,146.61,207.13,146.21,207.13Zm9.09-5.94v0h.29c.31,0,.54,0,.56-.41s-.22-.45-.53-.44a5.77,5.77,0,0,0-.76,0,.45.45,0,0,0-.32.25c0,.15,0,.42.08.48A2.12,2.12,0,0,0,155.3,201.19ZM153.35,95.55h-3.73A6.51,6.51,0,0,0,153.35,95.55Zm2.55,52.94h.27c.28,0,.5,0,.51-.4s-.2-.46-.52-.45a3.88,3.88,0,0,0-.7,0,.49.49,0,0,0-.31.32C155.05,148.68,155.6,148.43,155.9,148.49ZM155,182c.3-.13.86.23.87-.4s-.57-.38-.89-.39-.85-.26-.87.35S154.65,181.83,155,182Zm.81-31.93h.4c.32,0,.52-.07.51-.45s-.21-.41-.5-.4a4,4,0,0,0-.75,0,.48.48,0,0,0-.28.34.51.51,0,0,0,.16.43A1.07,1.07,0,0,0,155.77,150Zm-.86,25.52a1.21,1.21,0,0,0,.46,0,2.36,2.36,0,0,0,.47-.37c-.15-.13-.28-.33-.45-.38a2.6,2.6,0,0,0-.76,0c-.27,0-.57,0-.58.38s.28.4.56.4Zm-21.11-23.85v0H134c.29,0,.54,0,.55-.41s-.21-.45-.52-.44a5.33,5.33,0,0,0-.7,0,.45.45,0,0,0-.32.25c0,.15,0,.42.08.47A2.13,2.13,0,0,0,133.81,151.71Zm22,0v0h.29c.31,0,.54,0,.53-.44s-.27-.42-.56-.41-.43,0-.65,0-.51.5-.28.7A1.69,1.69,0,0,0,155.84,151.72ZM155,178a1.69,1.69,0,0,0-.58,0c-.16.07-.26.25-.39.38a1.65,1.65,0,0,0,.41.37.94.94,0,0,0,.52,0c.31-.06.85.24.85-.39S155.27,178.08,155,178Zm1.42,51.91v0h.29c.28,0,.5,0,.51-.39s-.19-.47-.52-.45a5.31,5.31,0,0,0-.7,0,.45.45,0,0,0-.31.26c0,.15,0,.41.1.47A1.72,1.72,0,0,0,156.46,229.88Zm-.62-76.61v0h.29c.3,0,.54,0,.54-.42s-.21-.45-.52-.43a5.46,5.46,0,0,0-.64,0c-.13,0-.32.11-.35.21s-.05.42,0,.49A2,2,0,0,0,155.84,153.27Zm-21.08,22.31c.3-.14.85.23.87-.39s-.56-.39-.88-.4-.85-.26-.87.35S134.46,175.44,134.76,175.58Zm.56-78.21h0a1.22,1.22,0,0,0,.47,0,2.37,2.37,0,0,0,.47-.37c-.15-.13-.28-.33-.45-.38a2.77,2.77,0,0,0-.76,0c-.28,0-.57,0-.58.39s.29.39.57.39Zm20,107h.29c.28,0,.5,0,.51-.4s-.19-.47-.52-.45a3,3,0,0,0-.75,0,.58.58,0,0,0-.31.43c0,.12.17.3.31.37S155.17,204.34,155.32,204.34ZM135.39,103h0a1.18,1.18,0,0,0-.46,0,2.3,2.3,0,0,0-.46.38c.15.13.28.31.46.37a1.65,1.65,0,0,0,.64,0c.28,0,.69.13.69-.39s-.4-.36-.69-.4ZM156.11,154h-.47c-.32,0-.53.05-.52.45s.23.41.51.4a4.75,4.75,0,0,0,.71,0,.45.45,0,0,0,.31-.26c0-.15,0-.42-.09-.48A1,1,0,0,0,156.11,154Zm-21.34,24.76c.3-.14.86.23.86-.4s-.57-.39-.89-.39-.85-.26-.86.36S134.46,178.64,134.77,178.78Zm21.67,54.29v0h.29c.32,0,.53,0,.52-.44s-.22-.41-.5-.4a4.93,4.93,0,0,0-.7,0,.45.45,0,0,0-.32.25c0,.15,0,.41.09.48A1.7,1.7,0,0,0,156.45,233.07Zm-21-133.29a1.74,1.74,0,0,0-.6,0c-.16.07-.26.25-.39.39a1.65,1.65,0,0,0,.41.36,1,1,0,0,0,.52,0c.31-.06.86.25.84-.39S135.68,99.88,135.46,99.79Zm20.86,126.88h.41c.3,0,.55,0,.55-.42s-.23-.44-.54-.43a3.39,3.39,0,0,0-.7,0,.49.49,0,0,0-.29.34.51.51,0,0,0,.17.43A.79.79,0,0,0,156.31,226.67Zm-5.57-16H151c.28,0,.5,0,.51-.4s-.19-.47-.52-.45a3.47,3.47,0,0,0-.76,0,.55.55,0,0,0-.29.4.48.48,0,0,0,.24.39A1.69,1.69,0,0,0,150.74,210.71Zm-16-28.74c.3-.13.85.22.87-.4s-.56-.39-.88-.4-.85-.26-.87.35S134.46,181.83,134.76,182Zm21.74,45.4h-.23c-.29,0-.54,0-.56.41s.25.46.57.45a2.58,2.58,0,0,0,.69,0,.52.52,0,0,0,.27-.41.58.58,0,0,0-.28-.4C156.85,227.32,156.66,227.37,156.51,227.37Zm-22.56-78.18h-.41c-.28,0-.5,0-.51.39s.19.47.51.46a4.15,4.15,0,0,0,.7,0c.13,0,.32-.2.32-.31a.62.62,0,0,0-.21-.48A.71.71,0,0,0,133.95,149.19Zm.24-24-.07.12a1,1,0,0,0-.41,0,2.35,2.35,0,0,0-.43.34c.14.15.25.36.42.42a2.76,2.76,0,0,0,.81.07c.37,0,.55-.27.41-.53S134.44,125.33,134.19,125.19Zm21.38.12c-.18,0-.34,0-.45,0a2.73,2.73,0,0,0-.46.37c.15.14.27.36.44.4a2,2,0,0,0,.87,0,.55.55,0,0,0,.37-.38C156.36,125.1,155.83,125.4,155.57,125.31Zm-25.12-.45,0,.09H137v-.09Zm9.29-29.35h-3.87C136.45,95.91,139.27,95.93,139.74,95.52Zm-6,58.51h-.17c-.28,0-.55,0-.56.4s.25.46.57.44a2.5,2.5,0,0,0,.58,0c.15,0,.38-.22.37-.29a1,1,0,0,0-.33-.52C134.12,154,133.91,154,133.76,154Zm21.78-31.1a1.16,1.16,0,0,0,.47,0c.14-.07.32-.24.33-.37a.58.58,0,0,0-.29-.4.69.69,0,0,0-.46,0c-.32.08-.9-.28-.9.39S155.23,122.82,155.53,122.93Zm-21.4-.8a1.39,1.39,0,0,0-.52,0c-.14.06-.31.24-.31.37a.5.5,0,0,0,.31.37,2.77,2.77,0,0,0,1,0,.58.58,0,0,0,.33-.42c0-.1-.19-.28-.33-.35A1.14,1.14,0,0,0,134.14,122.13Zm24.48,48.42.52.68a3.8,3.8,0,0,0-.63.37.74.74,0,0,0-.27.48c0,.09.27.28.4.26s.49-.18.5-.3c0-.67,0-1.35,0-2.18Zm-24.78-22.9h-.29c-.32,0-.52.07-.51.45s.22.41.51.4a2.15,2.15,0,0,0,.7,0,.67.67,0,0,0,.3-.47c0-.1-.16-.27-.29-.33S134,147.65,133.83,147.65Zm-.07,5.56H134c.31,0,.55,0,.56-.42s-.23-.44-.54-.43a3.11,3.11,0,0,0-.7,0,.46.46,0,0,0-.27.36.63.63,0,0,0,.25.44C133.4,153.27,133.6,153.21,133.76,153.21Zm10.65-39.37a8.7,8.7,0,0,0-4.2,0ZM139,206.69c-.26.07-.73-.19-.74.42s.35.45.65.42.76.22.8-.38S139.33,206.7,139,206.69Zm-5.77,23.18c.27-.07.71.14.7-.43s-.46-.4-.77-.42-.71-.12-.69.43S132.9,229.8,133.2,229.87Zm5.76-24c.3,0,.72.14.72-.43s-.41-.42-.71-.42-.76-.17-.74.44S138.69,205.83,139,205.9ZM157,177.19c.28-.06.71.16.72-.42s-.41-.42-.71-.42-.72-.17-.72.41S156.72,177.15,157,177.19Zm-.74-74.87c.42-.18.88.05.87-.57s-.39-.4-.68-.39-.82-.18-.73.43C155.77,102,156.09,102.14,156.28,102.32Zm-5.61,55.75c.27-.07.69.14.69-.43s-.4-.43-.7-.42-.76-.17-.74.44S150.37,158,150.67,158.07Zm-17.5,68.61c.29-.05.72.15.73-.42s-.4-.44-.7-.42-.76-.18-.75.43S132.89,226.61,133.17,226.67ZM139,210.73c.28-.06.71.16.73-.41s-.38-.45-.69-.44-.76-.19-.76.42S138.66,210.68,139,210.73Zm-5.75,22.33c.24-.09.68.16.7-.41s-.38-.46-.69-.44-.76-.2-.77.42S132.87,233,133.2,233.06ZM156.43,99c.27-.06.7.17.72-.41s-.4-.44-.7-.43-.72-.18-.73.4S156.11,99,156.43,99Zm.59,75c.26-.07.69.18.72-.4s-.38-.45-.69-.44-.72-.19-.74.38S156.68,174,157,174Zm-.15,6.5c.42-.18.88.05.86-.57s-.4-.4-.68-.39-.82-.17-.72.43C156.37,180.17,156.69,180.33,156.87,180.5Zm-17.38-24.85,0-.09c-.45,0-.9,0-1.34,0a.77.77,0,0,0-.53.21c-.08.11,0,.48.06.52a.87.87,0,0,0,.65,0A12.67,12.67,0,0,0,139.49,155.65Zm9.06-47c.33-.06.8.16.78-.49s-.59-.38-.92-.44-.65,0-.65.48C147.77,108.86,148.27,108.53,148.55,108.63Zm-12.24,69v-.26l-4.82.19v.07Zm15.3-80.81-.05-.25c-.5,0-1,0-1.51,0-.32,0-.48,0-.48.39s.2.48.48.41C150.58,97.22,151.09,97,151.62,96.82Zm-18.42,131.4c.25-.08.71.16.71-.45s-.32-.45-.61-.4-.81-.25-.85.4S132.83,228.19,133.19,228.23Zm7.31-36.37V192h3.92v-.16Zm16,39.54.08.14a6,6,0,0,0,.69-.49s-.08-.36-.15-.37a6,6,0,0,0-1.2,0c-.07,0-.17.29-.16.44a.45.45,0,0,0,.27.29A1.39,1.39,0,0,0,156.47,231.4ZM143.74,125.92c-.5.26-.92.45-1.31.69-.21.13-.31.41,0,.47a2.75,2.75,0,0,0,1.26,0C143.8,127,143.73,126.4,143.74,125.92Zm6.91,33.69c.28-.07.72.16.71-.41s-.55-.37-.87-.44-.58,0-.57.43S150.35,159.56,150.65,159.61Zm1,23.11,0,.14c.48.23.95.49,1.45.67.09,0,.4-.23.41-.36a.56.56,0,0,0-.36-.43A12.77,12.77,0,0,0,151.65,182.73Zm-9.54-90.81c.34,0,.62,0,.63-.45s-.25-.52-.62-.52-.59,0-.59.5S141.77,92,142.12,91.92Zm1.63,0c.34,0,.65,0,.65-.44s-.16-.55-.55-.53-.66,0-.66.48S143.4,92,143.75,91.92Zm1.68,0c.34,0,.62,0,.62-.46s-.26-.52-.63-.52-.59.05-.59.5S145.09,92,145.44,91.92Zm-7.73,4.68-.06.18c.53.2,1,.42,1.59.58.11,0,.29-.2.44-.31-.13-.15-.26-.41-.4-.42A15.67,15.67,0,0,0,137.7,96.59Zm-5.07,77.64c.3-.29.6-.44.65-.64.11-.49-.31-.44-.61-.43s-.77-.13-.67.42C132,173.79,132.34,173.94,132.63,174.23Zm.44-75.11c.42-.17.84,0,.84-.54s-.35-.43-.65-.42-.76-.13-.69.41C132.6,98.78,132.9,98.95,133.07,99.13Zm5.35,41.65v.17h5.26q0-.08,0-.17Zm11.8,39.85c.3-.31.6-.47.64-.68.1-.51-.34-.41-.63-.41s-.73-.1-.63.41C149.64,180.16,149.93,180.32,150.23,180.63Zm-18.11-52.69c.31-.27.63-.41.68-.62.12-.47-.27-.47-.59-.45s-.76-.11-.67.44C131.57,127.5,131.84,127.65,132.11,127.94Zm7.52,76.41c-.15-.78-.34-.94-1-.83a.6.6,0,0,0-.36.43c0,.11.2.35.35.38A5.87,5.87,0,0,0,139.64,204.34ZM128.29,89.69a3.46,3.46,0,0,0,0-2.8Zm4.35,90.69c.34,0,.69.07.67-.44s-.44-.38-.73-.4-.61-.07-.61.4S132.37,180.35,132.64,180.37Zm6.18-22.21c.43-.16.87.05.87-.56s-.33-.41-.61-.4-.8-.16-.73.43C138.37,157.84,138.65,158,138.81,158.17Zm-5.47-55.85c.19-.17.51-.32.54-.52.1-.53-.35-.44-.67-.43s-.66-.12-.68.39S132.92,102.18,133.35,102.32Zm-.7,75.11c.3-.29.61-.45.64-.65.09-.55-.37-.41-.67-.42s-.72-.06-.61.43C132,177,132.34,177.13,132.64,177.42ZM161,87a3.37,3.37,0,0,0,0,2.7Zm-3.59,40.83c.42-.16.85,0,.83-.54s-.32-.43-.61-.41-.76-.13-.68.43C157,127.49,157.22,127.65,157.38,127.82Zm-18.51,30.81c-.18.18-.5.34-.52.53-.08.58.42.42.74.44s.6,0,.61-.41S139.29,158.78,138.87,158.63Zm-6.7-37.06c.3-.3.58-.45.63-.66.12-.5-.29-.44-.59-.42s-.76-.12-.67.43C131.57,121.12,131.87,121.27,132.17,121.57ZM138,227.38l0,.19c.43.22.85.45,1.29.63.1,0,.41-.16.41-.24s-.12-.53-.23-.54A11.17,11.17,0,0,0,138,227.38Zm19.55-106.05c.32,0,.67,0,.67-.46s-.36-.37-.63-.37-.66-.14-.68.39S157.2,121.34,157.54,121.33Zm-25.29,3.32c.19-.17.5-.31.54-.51.09-.45-.28-.47-.61-.45s-.66-.12-.67.4S131.82,124.52,132.25,124.64Zm.07.56c-.42.14-.82,0-.81.56s.25.43.54.41.8.09.75-.46C132.78,125.53,132.48,125.37,132.31,125.2ZM149.57,219v.17h3.82c0-.06,0-.12,0-.17ZM161,83.1a3.16,3.16,0,0,0,0,2.61Zm-27.8,148.31h0c.08,0,.17,0,.23,0s.43-.2.47-.35c.09-.33-.16-.43-.46-.43a1.93,1.93,0,0,0-.58,0c-.15.06-.36.25-.36.38s.2.3.35.4S133.05,231.41,133.17,231.41Zm-4.68-148.3h-.19v2.52h.19Zm28.67,95.76c.19-.17.53-.33.55-.51.06-.55-.42-.37-.71-.38s-.69-.13-.68.38S156.77,178.69,157.16,178.87Zm-.54-79.09c-.25,0-.37,0-.44,0a4.37,4.37,0,0,0-.45.39c.15.13.28.32.46.37a1.59,1.59,0,0,0,.69,0,.38.38,0,0,0,.25-.25c0-.14,0-.36-.1-.41A.93.93,0,0,0,156.62,99.78Zm-.29-2.29c.38-.18.83,0,.82-.53s-.42-.37-.7-.37-.77-.14-.7.4C155.78,97.19,156.12,97.33,156.33,97.5Zm.79,78.19c.2-.16.56-.31.59-.5.08-.54-.39-.4-.69-.4s-.68-.15-.7.36S156.74,175.51,157.12,175.68ZM140.46,91.91c.32.06.54,0,.55-.45s-.21-.52-.59-.52-.54.1-.54.5S140.08,92,140.46,91.91Zm11.55,0c.36,0,.53-.08.53-.48s-.23-.49-.59-.5-.5.15-.5.52S151.68,92,152,91.92Zm-3.23,0c.34,0,.58,0,.57-.45s-.12-.54-.51-.53-.61,0-.6.49S148.43,92,148.79,91.92Zm-1.61,0c.37.05.53-.08.53-.48s-.24-.49-.59-.5-.54.1-.54.49S146.82,92,147.18,91.91Zm-8.24,0c.37.07.49-.11.5-.49s-.21-.48-.55-.48-.56.06-.56.48S138.54,92,138.94,91.91Zm19.17,32.62c.1-.59,0-.91-.59-.87-.35,0-.75,0-.61.5C157.11,124.87,157.68,124.37,158.11,124.54Zm-25.67,73.89c-.32.3-.6.44-.67.65-.12.37.17.46.49.44s.76.13.7-.42C132.94,198.9,132.69,198.74,132.44,198.42Zm24.81,4.27c.3,0,.63.06.62-.44s-.32-.4-.61-.4-.6-.06-.6.41S156.92,202.72,157.25,202.7Zm0-2.93c.3-.31.57-.45.61-.65.11-.48-.27-.45-.59-.45s-.66,0-.57.42C156.72,199.28,157,199.44,157.23,199.76Zm-24.87,4.84c.29-.33.57-.5.6-.7.07-.43-.3-.4-.59-.4s-.7,0-.6.44C131.81,204.14,132.07,204.29,132.35,204.6Zm24.91,0c.28-.32.53-.47.58-.67.1-.43-.24-.44-.55-.44s-.71,0-.61.44C156.72,204.13,157,204.29,157.27,204.6Zm-24.83-3c-.32.3-.6.44-.67.65-.12.37.17.46.49.44s.76.12.7-.43C132.94,202.09,132.7,201.92,132.44,201.61Zm24.82,3.18c-.28.32-.53.47-.58.67-.1.43.24.44.55.43s.71.05.61-.44C157.81,205.26,157.55,205.1,157.26,204.79ZM132.32,200c-.27.33-.52.49-.56.69-.09.49.31.42.62.42s.66,0,.57-.41C132.91,200.53,132.63,200.37,132.32,200Zm25,0c-.29.32-.54.47-.59.67-.1.43.23.45.55.44s.71.06.61-.43C157.81,200.53,157.55,200.37,157.27,200.05Zm-24.94,6.09c.31-.3.59-.45.63-.65.1-.48-.3-.44-.62-.44s-.67,0-.57.42C131.81,205.67,132.06,205.83,132.33,206.14Zm9-67c0,.08,0,.17,0,.25,1.11,0,2.22.05,3.33,0v-.21Zm-8.06-42.82c-.31.26-.64.39-.68.58-.11.48.3.45.61.43s.76.14.7-.4C133.86,96.78,133.55,96.63,133.26,96.36ZM147,133.91c.09.13.11.19.13.19.35,0,.7,0,1.05,0,.85,0,.91-.08.66-.92-.3.09-.6.18-.9.29S147.29,133.77,147,133.91ZM157.73,122c-.42.15-.84,0-.83.55s.42.35.68.39.66,0,.6-.41C158.16,122.34,157.89,122.18,157.73,122Zm-25.17,57c.33-.26.67-.4.72-.6.1-.45-.3-.42-.59-.4s-.73-.15-.69.36C132,178.53,132.3,178.7,132.56,179Zm.68-78.19c.29-.28.62-.44.64-.64.06-.45-.35-.37-.63-.37s-.73-.11-.67.38C132.6,100.36,132.93,100.51,133.24,100.79Zm-.61,75c.29-.27.61-.43.64-.63.07-.46-.35-.37-.62-.37s-.73-.11-.65.4C132,175.37,132.34,175.51,132.63,175.78Zm17.6,2c-.29.28-.6.43-.63.63-.07.46.34.37.62.37s.72.1.64-.4C150.83,178.16,150.53,178,150.23,177.75ZM150.58,92c.13-.17.34-.32.37-.51.06-.34-.08-.59-.52-.58s-.54.11-.54.5S150.07,92,150.58,92Zm6.38,34c1.16.15,1.23.1,1.14-.68C157.05,125.16,156.85,125.27,157,126.07Zm-24.79-4.15c-.29.25-.59.38-.63.57-.1.44.28.42.58.42s.71,0,.67-.42C132.77,122.31,132.45,122.17,132.17,121.92Zm5.3-31.05c-.52,0-.7.18-.7.57s.14.48.49.49.59-.1.51-.49A2.32,2.32,0,0,0,137.47,90.87Zm7.28,126.68c0-.05,0-.11,0-.16h-3.11v.16Zm9.31-126.28a2.31,2.31,0,0,0-.57-.3c-.4-.08-.49.17-.49.52s.21.44.52.44S154,91.76,154.06,91.26Zm-18.25.65c.36.07.43-.15.44-.48s-.18-.49-.53-.49-.43.21-.44.52S135.44,92,135.81,91.91Zm22.56,133.67c-.3.29-.56.43-.62.63s.13.47.47.46.65,0,.58-.41C158.76,226.08,158.58,225.92,158.37,225.58ZM132,152c.25-.35.46-.51.49-.7.08-.45-.27-.41-.57-.42s-.57.09-.48.45C131.46,151.47,131.68,151.62,132,152Zm0-3.19c.26-.35.47-.51.51-.7.09-.44-.26-.42-.56-.43s-.58.08-.48.44C131.46,148.28,131.67,148.43,131.95,148.77Zm26.34,76.54c.26-.35.46-.51.5-.71.09-.45-.26-.42-.56-.43s-.58.09-.48.45C157.79,224.82,158,225,158.29,225.31ZM131.92,153.5c.27-.34.49-.5.53-.69.09-.43-.23-.44-.55-.44s-.59.06-.5.44C131.45,153,131.66,153.16,131.92,153.5Zm26.54-34.74,0,0v9h0Zm1.84,58.5,0,0v-9h0Zm-2.07,52.87c.28-.33.5-.48.55-.67.1-.36-.15-.46-.48-.45s-.65,0-.57.42C157.78,229.62,158,229.78,158.24,230.13Zm-26.34-83c.29-.33.51-.48.56-.67.1-.35-.14-.47-.47-.46s-.65,0-.57.42C131.44,146.61,131.64,146.77,131.89,147.12Zm28.77,28.45h0v-8.94h0Zm-28.75-26.67c-.26.35-.47.5-.51.7-.09.38.19.44.5.43s.64,0,.55-.45C132.41,149.4,132.2,149.25,131.92,148.91Zm28.55-33.33,0,0v8.83h0Zm-4.42,66.27h0V173h0Zm-.58,52.68h0v-8.88h0ZM158,180.27l0,0v-8.85h0Zm1.82-63h0v8.84h0Zm-.36,52.57h0v8.82h0Zm-2.76-40.53,0,0v-8.81h0Zm-15-26.49h0v8.82h0Zm6.58,83.79h0v-8.75h0Zm-4.49-24h0v-8.71h0Zm-1.42,27.1,0,0v-8.61h0Zm5.08,49.5h0v-8.61h0Zm1.65-105.26h0v-8.77h0Zm-8.26,30.31h0v-8.73h0Zm19.26,65.42h0v-8.7h0ZM144.65,101.29l0,0V110h0ZM151.11,185h0v-8.7h0Zm-.72,52.6h0v-8.76h0Zm2.75-10.26h0V236h0Zm5.29,1c.12-.18.32-.35.35-.54.08-.48-.29-.39-.58-.4s-.49,0-.49.39S158,228.24,158.44,228.32Zm-12.3-92.76h0V126.8h0Zm8.27-4.86h0V122h0Zm-12.84,103h0v8.76h0Zm19.09-110.95,0,0v-8.64h0Zm-3.15,101.38h0v8.75h0ZM150.3,181l-.72.44a4.29,4.29,0,0,0,.81.49c.26.09.56,0,.47-.38S150.54,181.21,150.3,181Zm.24-82.8,0,0v8.5h0Zm2.09,68.31c-.78-.38-2.86-.3-3.06,0Zm7.6,78.47,0,0v8.52h0Zm-22.55-60.86c-.29.29-.56.44-.6.64-.08.41.28.39.55.38s.67.06.6-.4C138.21,184.56,138,184.41,137.68,184.12Zm.32-18.36h0v-8.58h0Zm10.41,67.3-.39-.89c-.13-.29-.23-.56.21-.68.09,0,.13-.21.19-.32a1.51,1.51,0,0,0-.51-.06.42.42,0,0,0-.25.3c0,.54,0,1.09,0,1.66Zm6.51-85.37h0v8.52h0Zm-12,67.53h0v-8.4h0Zm6.77-64.31h0v8.49h0Zm7.17,3.73h0v-8.41h0Zm-5.21,55.89h0V202h0Zm4.73-3.15h0v-8.57h0Zm3-3.22h0v-8.4h0Zm-1.62-53.87c.28-.32.51-.47.55-.67.08-.35-.17-.46-.5-.45s-.64,0-.57.43C157.27,149.8,157.49,150,157.75,150.29Zm-4.63-45.11h0V96.84h0Zm1.07,62.19h0v-8.14h0Zm-24.43.38v-3A4.82,4.82,0,0,0,129.75,167.76Zm25.33-82.12h.34c0-.8,0-1.61,0-2.41,0-.06-.27-.11-.32-.13Zm2.68,154.92h0v8.26h0Zm-19.9-57.84c-.55,0-.94,0-1.32,0a.44.44,0,0,0-.32.25.67.67,0,0,0,.09.48c0,.06.29,0,.41,0C137.06,183.25,137.38,183,137.86,182.73ZM157.28,188h0v8.14h0Zm-2.37,24,0,0v8.1h0Zm4.24,30.3h0v8h0ZM156.8,135.33h0v8.15h0Zm.93,10.43c-.24.32-.46.48-.49.67-.08.39.22.42.53.43s.57-.11.5-.46C158.23,146.21,158,146.07,157.73,145.75Zm-4.2-4.78a7.88,7.88,0,0,0-4,0Zm2.92,19.92h0v8h0Zm1.32-10.3c-.27.31-.5.46-.54.65-.09.38.19.44.51.44s.58-.1.52-.45C158.23,151.05,158,150.9,157.77,150.58Zm-26.26,75.15h-.26c-.12.18-.31.34-.35.54s.19.39.48.4.57-.08.49-.44C131.83,226,131.64,225.9,131.51,225.74Zm17.92,20.56a12.8,12.8,0,0,0,2.88-.1A4.32,4.32,0,0,0,149.43,246.3Zm8.29-97.56c.26-.31.48-.46.52-.66.08-.37-.2-.43-.51-.43s-.58.07-.5.44C157.27,148.26,157.47,148.41,157.72,148.73ZM157,221.66h0v-8.06h0Zm.87-111.77h0V118h0ZM131.95,229.61v-.28a1.92,1.92,0,0,0-.52-.3c-.28-.06-.55,0-.55.39s.14.49.45.43A3.23,3.23,0,0,0,131.95,229.61Zm25.94-77.33h-.28c-.13.18-.33.34-.38.53s.16.42.46.42.6,0,.55-.4C158.21,152.63,158,152.46,157.89,152.28ZM127.54,89.59h.13V87h-.13Zm3.73,135.52h.26a1.89,1.89,0,0,0,.34-.54c.07-.35-.18-.4-.47-.4s-.58.08-.49.45C130.95,224.8,131.14,224.95,131.27,225.11ZM160,168.62h-.11v3.61H160Zm-28.49-70.7c-.24.32-.43.47-.47.65s.11.44.43.44.58-.05.5-.43C131.94,98.4,131.76,98.25,131.52,97.92Zm2.88-7h-.27a2.47,2.47,0,0,0-.26.56c-.06.29,0,.48.41.49s.5-.21.43-.52A2,2,0,0,0,134.4,90.87Zm24.28,82c-.24.32-.43.47-.47.65-.09.37.17.44.49.44s.52-.11.44-.43S158.92,173.24,158.68,172.91Zm0,3.19c-.22.33-.39.49-.43.67-.07.39.22.41.51.42s.5-.16.41-.45S158.9,176.42,158.64,176.1Zm-20.57-26.9,1.49.86C139.79,149.16,139.77,149.15,138.07,149.2Zm-8.38-7.33h.13v-3.56h-.13Zm18.19,95.91c1.17.34,1.52.14,1.38-.68-.28,0-.55.09-.83.1A.5.5,0,0,0,147.89,237.79Zm11.72-122.46a3.56,3.56,0,0,0,0-2.79Zm-1.32,116.32.51-.65c-.18-.13-.34-.32-.53-.37s-.6,0-.52.4C157.78,231.21,158,231.35,158.29,231.65ZM134.8,219.06h0v-7.7h0Zm2.48-1.57h0v-7.66h0Zm-6,10.81h.26a2,2,0,0,0,.34-.54c.09-.36-.2-.39-.47-.4s-.57.09-.5.45C130.95,228,131.15,228.14,131.27,228.3Zm24.55,18.8,0,0V239.5h0ZM127.54,85.58h.12V83.14h-.12Zm8.56,28.13,0,0v-7.63h0Zm0,130.69h0v-7.53h0Zm3.31-54.19h0v-7.52h0Zm15.82,4.32h0v-7.47h0ZM138.7,242.89h0v-7.58h0Zm1.54-105.34h0V130h0Zm14.45-3h0v7.4h0ZM145,164.88a3.45,3.45,0,0,0-2.57,0Zm15,79.81h0V252h0Zm-28.59-13c.24-.32.44-.47.46-.65.06-.41-.31-.43-.56-.38s-.39.27-.38.39S131.15,231.33,131.4,231.65Zm15.33-96.53h2.61A2.85,2.85,0,0,0,146.73,135.11Zm-15.24,38.58v-.25c-.16-.09-.34-.28-.49-.26a.63.63,0,0,0-.42.38c-.09.32.12.49.43.42A1.77,1.77,0,0,0,131.49,173.69Zm26.68-74.46c.22-.31.39-.46.43-.63s-.13-.44-.45-.44-.5.15-.43.46S157.94,98.93,158.16,99.24Zm-26.69,77.69v-.25a1.63,1.63,0,0,0-.47-.31c-.3-.07-.54.07-.45.41a.64.64,0,0,0,.41.39C131.12,177.19,131.31,177,131.48,176.92Zm26.86-14.18h0v7h0Zm-18.58,17.32v-.25a1.9,1.9,0,0,0-.5-.27c-.33-.07-.5.15-.41.44a.62.62,0,0,0,.44.36C139.43,180.36,139.6,180.17,139.76,180.06Zm-8.27-79.28c.24-.3.47-.45.48-.62s-.25-.33-.42-.37-.55,0-.48.38C131.08,100.34,131.26,100.49,131.48,100.79Zm27.18,73.77c-.23.29-.42.43-.45.6-.07.35.21.45.47.38s.44-.24.43-.36S158.9,174.86,158.67,174.56ZM131.54,96.37c-.24.3-.46.46-.47.63s.25.32.43.36.55,0,.48-.38C131.94,96.81,131.76,96.67,131.54,96.37Zm23.93,7.31,0,0V96.72h0Zm2.7-12.28c-.26-.2-.4-.4-.56-.42-.39-.05-.4.28-.33.52s.25.29.38.43Zm.51,87.58c.24-.29.43-.43.46-.6.08-.35-.2-.46-.47-.39s-.44.23-.44.35S158.45,178.67,158.67,179ZM133.52,91.43l-.62-.48c-.12.16-.31.3-.35.48s0,.55.39.47C133.11,91.87,133.24,91.67,133.52,91.43Zm19.36,31.33v.15a8.4,8.4,0,0,0,1,0,.45.45,0,0,0,.31-.27.47.47,0,0,0-.08-.42c-.08-.06-.3,0-.42,0C153.4,122.41,153.14,122.59,152.89,122.76ZM135,140h0v-6.72h0Zm10,103.1v-.17h-2.34v.17Zm5.76-63.81a3,3,0,0,0-2.2,0Zm-18.61-87.8-.6-.5c-.11.14-.33.3-.32.42s.21.36.33.54ZM152,113.85v-.17h-2.41v.17Zm-4.79,98.44h1.51v-.64C148.13,211.77,147.51,211.52,147.17,212.29Zm2.21-85.85s0,.09,0,.14h2.18v-.14Zm2.77,25.67V152H150v.14Zm-.72,52.66v-.13h-2.17v.13ZM133,134.69h0v6.41h0Zm-.28,84.72,0,0V213h0Zm-2.93-50.2h-.07v3h.07Zm23.85,76.38h0v-6.17h0Zm-2.91-15.46v.14h2.08v-.14Zm-4-43.56.06.2h1.35V186Zm4.74-9.09v.13h2.07v-.13Zm-16,52.81V230l-2.89.23v0Zm22.8-129.48c.23-.35.4-.52.43-.71s-.29-.32-.42-.3a.62.62,0,0,0-.44.37C157.71,100.3,157.93,100.48,158.17,100.81Zm3.63-13.72a3.85,3.85,0,0,0,0,2.52Zm-2.43,115.16c-.29-.19-.46-.39-.58-.36s-.36.26-.34.38a.63.63,0,0,0,.37.41C158.92,202.7,159.1,202.47,159.37,202.25Zm-27.87-1.53c-.29-.2-.48-.41-.57-.37a.65.65,0,0,0-.35.44c0,.11.22.34.36.35S131.22,200.93,131.5,200.71ZM137,236.18c1.36.13,1.45.07,1.28-.74ZM130.92,179c.24-.3.45-.45.46-.61s-.24-.38-.35-.37a.65.65,0,0,0-.45.35C130.54,178.46,130.73,178.66,130.92,179Zm17.58,7.87a2.07,2.07,0,0,0,.77-.24.6.6,0,0,0,0-.59,2,2,0,0,0-.76-.19Zm-17.65-14.42h.23c.11-.16.3-.31.3-.47s-.24-.37-.36-.36a.61.61,0,0,0-.44.35C130.55,172.09,130.75,172.28,130.85,172.44Zm28.52,28.27c-.29-.2-.45-.4-.57-.37s-.36.26-.34.38a.63.63,0,0,0,.37.42C158.92,201.16,159.1,200.93,159.37,200.71Zm-1.28-103.1c.26-.31.5-.48.48-.61a.61.61,0,0,0-.42-.39c-.12,0-.39.19-.41.33S157.9,97.27,158.09,97.61ZM139.27,179c.21-.34.39-.51.38-.66s-.26-.35-.38-.34a.59.59,0,0,0-.42.36C138.82,178.49,139,178.67,139.27,179Zm20.11,24.9c-.29-.2-.49-.41-.57-.37a.65.65,0,0,0-.34.44c0,.11.23.34.37.35S159.1,204.12,159.37,203.9Zm-27.88-1.54c-.26-.25-.38-.47-.52-.47s-.4.21-.39.32a.67.67,0,0,0,.32.47C131,202.72,131.2,202.52,131.49,202.36Zm0,1.59c-.28-.22-.42-.43-.55-.41s-.37.24-.36.35a.65.65,0,0,0,.35.44C131,204.36,131.21,204.14,131.5,203.94Zm-1.53-83c.31.21.5.41.6.37a.64.64,0,0,0,.37-.42c0-.11-.22-.36-.35-.37S130.29,120.71,130,120.93Zm19.59,70.94V192h2.12c0-.05,0-.11,0-.16Zm8.88-71c.28.23.46.46.55.43a.64.64,0,0,0,.39-.41c0-.11-.2-.35-.35-.38S158.75,120.68,158.45,120.87Zm-26.94,78.2c-.29-.2-.45-.39-.57-.37s-.36.26-.34.37a.63.63,0,0,0,.37.41C131,199.51,131.22,199.29,131.5,199.07ZM131,175.81c.23-.33.43-.49.42-.64s-.24-.37-.36-.36a.6.6,0,0,0-.44.34C130.55,175.28,130.75,175.47,131,175.81Zm-1-51.71c.28.21.45.42.55.39s.39-.25.39-.39-.22-.35-.39-.39S130.28,123.89,130,124.1Zm29.14-.48h-.25c-.07.17-.22.36-.19.52s.23.25.36.38c.12-.15.32-.3.34-.47S159.23,123.76,159.14,123.61Zm.24,75.51c-.27-.23-.42-.44-.54-.43s-.38.23-.37.34a.65.65,0,0,0,.34.44C158.88,199.52,159.08,199.32,159.37,199.13Zm-.92-73.41c.28.22.47.45.55.42a.71.71,0,0,0,.4-.43c0-.1-.21-.34-.36-.36S158.74,125.52,158.45,125.72Zm-10.28-18.56,1.14-.33c-.14-.15-.25-.39-.41-.43C148.47,106.29,148.15,106.42,148.17,107.16ZM143.8,90.63l.58-.37a1.72,1.72,0,0,0-.57-.22,1.79,1.79,0,0,0-.59.2Zm0-4.64-.58.35c.18.09.37.25.55.25a1.82,1.82,0,0,0,.61-.25Zm1.66,4.64.57-.4c-.18-.07-.36-.21-.53-.2a2.24,2.24,0,0,0-.63.23Zm7.28,136.77-1.31.8C152.84,228.25,152.84,228.25,152.73,227.4ZM142.12,90.61l.6-.32a1.8,1.8,0,0,0-.59-.25c-.18,0-.37.15-.56.23ZM152.67,152v.13h1.92V152Zm1.24,52.81v-.14H152s0,.09,0,.14ZM139.4,124.5l-1.36-.75C138,124.55,138,124.55,139.4,124.5Zm19.42,64.91h0v5.94h0Zm-4.68-62.83v-.14h-1.93v.14ZM145.54,86l-.65.31a2,2,0,0,0,.6.28c.17,0,.36-.13.54-.2Zm-3.39.71.58-.33a1.85,1.85,0,0,0-.62-.26c-.18,0-.36.16-.54.26Zm-3.77,44.14c1.2.14,1.49.05,1.2-.68ZM131.86,115h0v-5.75h0Zm10.47,45.2,1.26-.66-.06-.23a8.68,8.68,0,0,0-1.13.15C142.33,159.46,142.35,159.8,142.33,160.18ZM139.21,181c-.18.27-.35.42-.36.59s.28.35.31.33a3.63,3.63,0,0,0,.52-.45Zm-7.8-19.1h0v5.65h0Zm23.81,68.4v-.14h-1.85s0,.09,0,.14Zm-24.5-105h-.24c-.09.15-.27.31-.25.45s.21.3.33.45c.13-.13.34-.25.37-.41S130.8,125.42,130.72,125.26Zm20.16-26v.1h2v-.1Zm2.51,0v.13h1.82v-.13ZM132,245.55h0V240.1h0ZM143.3,112l0,.16h1.91V112Zm5.55-25.32.49-.37c-.17-.09-.34-.24-.51-.24s-.36.17-.54.26Zm-8.4,0,.52-.39c-.17-.08-.35-.22-.52-.21a1.57,1.57,0,0,0-.53.26Zm6.69,3.9.54-.34a1.59,1.59,0,0,0-.53-.25c-.17,0-.35.13-.52.2Zm1.68,0,.52-.35c-.17-.09-.34-.24-.5-.24a1.6,1.6,0,0,0-.55.24ZM151,130.84l-1.25-.65C149.69,130.94,149.73,131,151,130.84Zm-3.82-44.12.51-.36a1.62,1.62,0,0,0-.55-.25c-.17,0-.34.15-.51.23Zm4.84,3.9.51-.35c-.17-.08-.33-.24-.5-.23a1.56,1.56,0,0,0-.54.25Zm6.56,32.11.2.17c.29,0,.66.09.63-.4,0-.13-.25-.25-.38-.37ZM138.91,89.89l-.55.4a1.56,1.56,0,0,0,.53.2,1.49,1.49,0,0,0,.52-.22Zm0-3.17.51-.4c-.17-.08-.35-.22-.52-.21a1.55,1.55,0,0,0-.53.26Zm-2.44,11,0,.12h1.87v-.12Zm4-7.13.51-.35a1.69,1.69,0,0,0-.57-.23c-.16,0-.32.16-.49.25Zm11,88.48v.13h1.8s0-.09,0-.13ZM131,122.61v-.22c-.15-.09-.31-.24-.46-.23s-.34.24-.32.33a.56.56,0,0,0,.34.39C130.71,122.89,130.88,122.7,131,122.61Zm-4.14-35.5h-.11c0,.7,0,1.39,0,2.09,0,.1,0,.21,0,.31a13.63,13.63,0,0,0,.1-2.09C126.92,87.32,126.9,87.21,126.89,87.11Zm26.47,141.45a2,2,0,0,0,1.9,0Zm8.41-145.38h-.12v2.38h.12Zm-5.35,40.24v-.21a4.93,4.93,0,0,0-1.76,0v.16Zm-2.33,54.07v.15h1.72s0-.1,0-.15Zm4.56-27.89.42.43c.11-.13.31-.26.3-.37s-.18-.3-.28-.46Zm0-1.53.43.42c.11-.13.3-.26.29-.38s-.19-.3-.29-.45Zm-4.58,27.84v.16h1.78c0-.05,0-.1,0-.16Zm8.36-88.79h-.06v2.4h.06ZM160,116.44h-.07v4.64H160ZM149.43,105l.46.38c.1-.13.3-.28.28-.4s-.21-.28-.32-.43Zm.91-3.18-.42-.45c-.12.12-.33.24-.32.36s.18.31.28.46Zm9.19,49.42-.44-.39c-.1.13-.29.27-.28.39s.2.29.3.43Zm-11,26.19v1.45l.73-.08Zm2.83,67.26,0-.15h-1.77v.15ZM151,90.45c-.1-.6-.51-.4-.8-.4-.08,0-.16.16-.24.25.22.07.43.16.66.21A1.24,1.24,0,0,0,151,90.45Zm-18.33,5,0,.26h1.24v-.19Zm10.91,94.74v.22h1.76q0-.1,0-.2A6.92,6.92,0,0,0,143.55,190.19ZM152,86l-.49.37a2,2,0,0,0,.6.24c.14,0,.28-.16.43-.25Zm10.46-2.76h-.06v2.26h.06Zm-24,21.45-1.11.66C138.46,105.45,138.5,105.43,138.45,104.67Zm14.05,124v-.12h-1.83v.12ZM126.89,83.23h-.07V85.5h.07ZM150.54,86l-.62.4c.15.08.31.23.45.22a2,2,0,0,0,.58-.23Zm5.89,35.84v-.16h-1.78c0,.05,0,.11,0,.16Zm-2.94-31.19.46-.34c-.17-.09-.33-.23-.5-.24s-.29.15-.43.24ZM131.3,136.34h0v4.88h0Zm21.13,77.33h0v4.69h0ZM135.76,90.62l.47-.34c-.16-.09-.32-.23-.49-.24s-.29.15-.43.24Zm1.56,0,.45-.36a1.46,1.46,0,0,0-.51-.23c-.15,0-.3.14-.45.23Zm17.21,110.8v.16h1.67v-.16ZM137.28,86.73l.48-.38c-.15-.08-.3-.24-.45-.23s-.34.16-.5.24ZM135.74,86l-.43.4a1.7,1.7,0,0,0,.53.22c.13,0,.26-.14.4-.22Zm16.83,160.13v.17h1.63v-.17ZM151.76,97.3c1.08.16,1.2.09,1-.62Zm-5.38,6.81c.24-.09.45-.16.65-.25a3.06,3.06,0,0,0,.35-.21c-.13-.08-.25-.21-.39-.22C146.35,103.37,146.27,103.49,146.37,104.11Zm7-17.41.54-.36c-.15-.08-.31-.23-.45-.23s-.33.16-.49.25Zm-5.74,72.74,0,.24a4.32,4.32,0,0,0,.67,0c.3,0,.58-.14.88-.22a5,5,0,0,0-.89-.19A2.69,2.69,0,0,0,147.67,159.45ZM156,86.6h.77V86C156,86.07,156,86.07,156,86.6Zm-6,13.16h-.18c-.08.14-.21.28-.21.43s.16.25.25.37c.12-.11.3-.22.33-.35S150.06,99.91,150,99.76Zm5.73,127.18v.16h1.56v-.16Zm-6.47,11.85v-.17h-1.57v.17Zm7.43-89.87v-.16h-1.56v.16Zm3-61.8-.07,0v2.1h.07ZM146,212.82h0v-4.35h0ZM149.8,107H150c.07-.15.21-.31.18-.44s-.21-.24-.33-.35c-.09.12-.24.25-.25.37S149.73,106.84,149.8,107Zm7.26-11.23v-.17h-1.29v.17ZM153.36,227l0,.14h1.54V227ZM135,152.1l0-.23-2.13.23Zm13.52,33.29.77-.45c-.16-.12-.32-.34-.49-.36C148.37,184.55,148.48,184.89,148.54,185.39ZM152.2,136h0v4.21h0Zm-2,99.79-.44-.41c-.08.13-.21.27-.21.4s.13.27.21.4ZM130.37,144.1a3.64,3.64,0,0,0,0,.55c0,.2.11.39.17.59.08,0,.24,0,.24-.08a3.11,3.11,0,0,0,0-.73C130.72,144.34,130.57,144.27,130.37,144.1Zm28.87,83.7.36.4c.09-.14.23-.28.24-.43s-.14-.26-.22-.39Zm.11-81.34.17-.31c-.17,0-.35-.15-.49-.12s-.22.25-.22.38.13.27.21.41Zm-29.58,82.94-.16.3c.16,0,.34.16.49.13s.22-.25.23-.38-.14-.27-.21-.41Zm18-130.23.07.14,2.5-1.38-.08-.13ZM130.2,148.08l.4.39c.08-.13.25-.27.23-.39s-.17-.28-.27-.42Zm29.55-49.5-.37-.39c-.08.13-.21.26-.21.4s.13.27.2.4ZM139.67,177l-.81-.46C138.82,177.22,138.91,177.28,139.67,177ZM134.32,90.6l.39-.34c-.15-.08-.3-.22-.46-.22s-.24.16-.36.25ZM160.1,229.7l-.16-.31-.34-.36c-.08.14-.22.27-.22.41a.47.47,0,0,0,.23.38C159.75,229.86,159.94,229.75,160.1,229.7ZM131,149.61l-.44-.41c-.08.13-.22.27-.22.4s.14.27.21.41Zm-.8,1.66.4.39c.08-.13.24-.27.23-.39s-.18-.28-.27-.41Zm19.25,81.35.36.41c.09-.14.25-.28.26-.42s-.15-.26-.23-.38ZM136.54,122.81l-1-.6C135.49,123,135.57,123,136.54,122.81Zm-6.1,103.41-.34-.38c-.08.15-.23.3-.23.45s.17.24.26.36Zm29.52.05-.31-.43c-.1.14-.25.27-.27.42s.15.26.23.39Zm-2.22-50.21,0-.16h-1.41v.16Zm-.46,49.47,0-.16h-1.56v.16ZM130.94,189h0v4.15h0Zm24.77,58.67v.16h1.4v-.16Zm-5.59-17.43v-.12h-1.33v.12Zm6.18-56v.16h1.44q0-.08,0-.16ZM154.15,125v-.14h-1.93V125ZM130.57,228.06l-.16-.29-.32-.38c-.08.12-.24.25-.23.37a.55.55,0,0,0,.24.42C130.22,228.23,130.41,228.11,130.57,228.06Zm20.73,7.54c-.05.67,0,.69.94.56Zm-20.75,10.12h0v-4h0Zm25.8-66.63v.11h1.28v-.11Zm.89,49.61s0-.1,0-.14h-1.52v.14ZM137,210.05l-.92.58C136.52,210.63,137.14,211,137,210.05Zm19.1-119,.5.79C156.81,91,156.81,91,156.14,91ZM140.32,207.74l0,.1,2.35-1.28-.07-.12Zm-10.07,14.38-.1,0v1.27h.1Zm3.8-135.27.64-.5c-.12-.08-.25-.24-.37-.24a.56.56,0,0,0-.43.24C133.85,86.46,134,86.65,134.05,86.85Zm23.7,86v-.17H156.3v.17Zm-20.87,54.71c0,.67.06.71.93.55Zm-2.66-106.32-.84-.61C133.24,121.34,133.28,121.38,134.21,121.27Zm25.64,25.31h0v-3.76h0Zm-3-26.53a1.25,1.25,0,0,0,1.52,0Zm-7.65-24.53h-1.58A1.33,1.33,0,0,0,149.19,95.52Zm3.65,9.65c0-.67-.11-.73-.87-.53Zm-24.56-13.3h.27L128.5,91h-.22Zm24.43,58.49v.13h1.89v-.13Zm1.19,52.79V203H152v.13Zm.56-24s0,.09,0,.13h1.32s0-.09,0-.13ZM161,91h-.19v.88H161ZM158.2,123.4v-.16h-1.31q0,.08,0,.16Zm0-1.59a.93.93,0,0,0-1.35,0Zm-6.8,87c.05-.64,0-.68-.91-.51ZM150.25,98.44l-.26-.16-.4.52L150,99Zm7.9,28.16v-.22l-1.17.06v.16Zm-2,78.17v-.13h-1.21v.13ZM132,90.34v-.16c-.12-.05-.26-.16-.37-.14s-.24.17-.35.27c.12.07.24.18.37.19S131.9,90.39,132,90.34Zm-.11,5.48,0-.25h-.86v.2Zm1.41-5.46v-.17c-.12-.06-.25-.17-.36-.15a1.25,1.25,0,0,0-.4.22c.11.08.21.22.33.23A1.14,1.14,0,0,0,133.32,90.36Zm1.56,9,0-.18-1.57.13,0,.21Zm14.89,132.06h.17c.05-.14.17-.29.15-.42s-.19-.23-.29-.34a1.33,1.33,0,0,0-.2.42C149.58,231.19,149.7,231.31,149.76,231.43ZM131.65,86.71l.32-.36c-.11-.08-.23-.24-.33-.23s-.24.17-.36.26Zm18.51,142.48-.31-.15a6.24,6.24,0,0,0-.25.63s.17.11.26.16Zm-17-143.29-.42,0a1.3,1.3,0,0,0-.13.48c0,.09.22.23.32.22a.48.48,0,0,0,.35-.25C133.3,86.21,133.19,86,133.15,85.9Zm16.21,38.91V125h1.5v-.15Zm-15.53,48.46c.07.32.06.6.15.64a2.15,2.15,0,0,0,.69.07v-.12ZM158,90.37V90.2c-.12-.06-.25-.18-.35-.16s-.25.16-.38.24c.1.07.19.21.29.21A1.33,1.33,0,0,0,158,90.37Zm-7.11,49v-.16h-1.32v.16Zm-14.61,35.56c-.19.67-.09.73.87.56ZM158,86.42v-.17a1.1,1.1,0,0,0-.43-.12c-.11,0-.19.18-.28.28.12.07.25.18.37.19S157.88,86.48,158,86.42Zm-7.79,151-.37-.41c-.09.1-.25.2-.25.31s.12.28.19.41ZM134.51,226c0,.69.08.76.77.55Zm19.91-72.33v-.08h-1.62v.08Zm.7,78.19v-.09H153.5v.09Zm-5.18,0v-.09h-1.65v.09Zm-1.52-130.95v.1h1.65v-.1Zm6.72.11v-.1h-1.62v.1Zm3.94,96.77h.06v-1.64h-.06Zm-.18-97.42,0,0V96.8h0Zm-4-11.92h-.25v1.1h.17Zm3,116.31v-.14h-1.1s0,.09,0,.14ZM157.2,152v.14h1.09V152Zm1.12-3v-.15h-1.16v.15Zm-1.66,52.51v.13h1.2v-.13Zm-1.95-76.6V125h1.65v-.13Zm.71-33.88h-.17c-.28.55-.22.83.26,1Zm-25.24,8h.19V98.2h-.19Zm-.27,77.43h-.19v.76h.19Zm1-30-.34-.39c-.07.14-.2.27-.2.41s.13.24.2.36Zm18.92,36.34h-.27l.06.75h.21ZM130.12,138l0-.06v3.24h0ZM129.71,174H130l0-.76h-.23Zm.63-77.4-.29.12.21.66c.09-.08.27-.16.27-.22A2.62,2.62,0,0,0,130.33,96.55Zm20.82,8.28c0,.59,0,.59.82.49l-.31-.2Zm5.47,45.69v-.15h-1.5v.15Zm1.94-54.8v-.18h-.82v.18Zm-19.72,87.78.3,0,0-.72-.24,0Zm20.07,69v.16H160v-.16ZM156.75,88.28h0l-.14,1.3h.17Zm-.62,114.9s0-.08,0-.12H154.6s0,.08,0,.12ZM158.83,86c-.12.18-.25.28-.25.39s.19.22.27.2a.47.47,0,0,0,.28-.26S159,86.15,158.83,86Zm.61,10.6h-.15a1.49,1.49,0,0,0-.12.43c0,.1.11.21.17.31a2,2,0,0,0,.25-.45C159.6,96.8,159.49,96.68,159.43,96.58ZM138.8,209c.82.13.86.11.8-.45Zm11.86,8.53,0-.16h-1.12v.16Zm7.07,7.82v.16h1.09v-.16Zm1.07,1.74V227h-1.06v.13Zm-1,3s0,.09,0,.14h1s0-.09,0-.14Zm1.56-139.85c-.24-.14-.34-.25-.44-.24s-.21.12-.31.19c.08.09.15.25.23.26S159,90.39,159.31,90.28ZM147.23,108l-.74.48C146.84,108.49,147.45,108.92,147.23,108Zm.34.31,0,0v-2.79h0Zm-1.31,131,0,.14a5.36,5.36,0,0,0,.73,0c.09,0,.15-.16.23-.24-.08-.06-.18-.18-.24-.17C146.76,239.11,146.51,239.22,146.26,239.32ZM152.36,96.7l-.08-.13-1.66,1,.08.13Zm2.91,56.87v.07h1.24v-.07Zm-4.68,31.5h.27l-.05-.68h-.22Zm-4.53,20,0,0v2.68h0Zm-6.44-2.71c0-.54,0-.54-.78-.4ZM154.32,95.62l0,.22.84-.08,0-.25Zm2.8,136.25v-.09h-1.26v.09Zm.76-31.89v-.14h-1.22V200Zm-18.78-15.57h-.19v.67h.19Zm10.53.68.29,0-.07-.67-.26,0Zm-3.44-1.74-.08-.14h-.57v.74Zm-16.48-7.83h.18v-.67h-.18Zm26-23.55v.14h.9V152Zm-.23-25.51v.14h.86s0-.09,0-.14Zm-28-34.61h.2l0-.79h-.17Zm31.11,7.61v-.22l-.87.05,0,.17Zm-.41,78,0,.15h.9v-.15Zm-28.7,40.26-.07,0v1.6h.07Zm13.75-90.23c-.82-.14-.85-.13-.86.39ZM157,101v-.09h-1.15V101Zm-6.93,2.5.15-.12c-.08-.14-.14-.31-.27-.4s-.24.06-.51.15Zm8.11,69.11q0,.15,0,.31l1-.06v-.2Zm-1.06-25.47v.16h1.2v-.16Zm-6.27-34.07,0,0v-2.43h0ZM159,174.46v-.16h-.85v.16Zm-2.78-84.08.14.17.39-.27-.2-.24Zm-25.41-4c-.2-.13-.3-.25-.39-.24s-.17.15-.25.24c.08.07.15.2.23.2S130.63,86.48,130.84,86.37Zm0,3.89c-.2-.12-.31-.22-.41-.22s-.16.12-.24.19c.08.09.15.23.25.25S130.64,90.38,130.84,90.26ZM160,176.41l-.27,0,.07.73.25,0Z"/>
      <path class="cls-1" d="M116.22,254.48a4.73,4.73,0,0,1-.1-1.16c.28-1.73.6-3.46.91-5.19a1,1,0,0,1,.21-.53c1.24-1.09,1.17-2.32.45-3.64a2.19,2.19,0,0,1,.69,2.13c-.22.55-.62,1-.87,1.56a5.84,5.84,0,0,0-.49,1.42c-.27,1.48-.5,3-.74,4.45C116.24,253.83,116.25,254.16,116.22,254.48Z"/>
      <path class="cls-1" d="M159.47,189.35c-.07,0-.18,0-.21,0a18.58,18.58,0,0,0-3.5-3.44,1.43,1.43,0,0,1-.22-.27c.11,0,.25,0,.33.05A12.8,12.8,0,0,1,159.47,189.35Z"/>
      <path class="cls-1" d="M159,136.45c-.07,0-.17,0-.21,0L157,134.49c.09,0,.23,0,.27,0C157.83,135.15,158.42,135.8,159,136.45Z"/>
      <path class="cls-1" d="M158.76,110c-.09,0-.22,0-.26,0-.52-.55-1-1.12-1.54-1.68A3.74,3.74,0,0,1,158.76,110Z"/>
      <path class="cls-1" d="M155.42,80.68c.39-.15.75-.43,1-.35s.42.5.55.85Z"/>
    </g>
    <g id="qnMyRL.tif">
      <path class="cls-2" d="M124,51.38c11.75-13.23,29-13.88,41.36-.4-1.83,4.1-11.94,9.77-18.86,10.17C137.48,61.67,130.37,57.51,124,51.38Zm18.79-6c-3.24-.73-11.14,2.92-13.32,6a23.15,23.15,0,0,0,12.9,5.74c-1.81-1.68-3.47-3.39-3.45-6S140.53,46.81,142.78,45.34Zm5,11.79a24.22,24.22,0,0,0,12.38-5.78c-2.42-3.15-9.94-6.64-12.58-6C152.42,49.94,151.67,53.15,147.81,57.14Zm1.81-7.7a2.16,2.16,0,0,0-2-2.37,2.33,2.33,0,0,0-2.34,2.29,2.43,2.43,0,0,0,2.26,2.42A2.31,2.31,0,0,0,149.63,49.44Z"/>
    </g>
  </g>
</svg>
