<?xml version="1.0" encoding="utf-8"?>
<!-- Generator: Adobe Illustrator 19.2.0, SVG Export Plug-In . SVG Version: 6.00 Build 0)  -->
<svg version="1.1" id="Layer_1" xmlns="http://www.w3.org/2000/svg" xmlns:xlink="http://www.w3.org/1999/xlink" x="0px" y="0px"
	 viewBox="0 0 139.491 139.493" enable-background="new 0 0 139.491 139.493" xml:space="preserve">
<g>
	<g>
		<path fill="#EC2227" d="M67.037,105.569c0,1.324-1.073,2.396-2.396,2.396H37.074c-1.324,0-2.396-1.073-2.396-2.396V34.983
			c0-1.324,1.073-2.396,2.396-2.396h27.566c1.324,0,2.396,1.073,2.396,2.396V105.569z"/>
	</g>
	<path fill="#595A5C" d="M104.61,104.487l-22.073-50.8c-0.458-1.054-0.103-2.285,0.845-2.933l20.233-13.837
		c1.105-0.754,1.389-2.261,0.634-3.366c-0.748-1.092-2.234-1.378-3.338-0.65c-0.011,0.007-0.022,0.015-0.033,0.022l-29.964,20.49
		c-0.653,0.447-1.044,1.187-1.044,1.978v0.06c0,0.889,0.492,1.705,1.278,2.12c0.786,0.415,1.737,0.36,2.471-0.141l1.642-1.123
		c0.59-0.404,1.329-0.523,2.016-0.325s1.25,0.692,1.534,1.348l21.329,49.092c0.007,0.017,0.015,0.035,0.023,0.051
		c0.41,0.887,1.29,1.418,2.216,1.418c0.322,0,0.651-0.064,0.966-0.203C104.582,107.151,105.148,105.719,104.61,104.487z"/>
</g>
</svg>
