<svg xmlns="http://www.w3.org/2000/svg" viewBox="0 0 85.039 85.042"><defs><style>.a{fill:none;}.b{fill:#c2bfbe;}</style></defs><title>discourse-volume-s-final-color</title><path class="a" d="M32.878,56.121c-6.155-5.895-6.559-18.46-.385-24.594,10.457-10.387,32.149.054,32.142-9.473,0-16.092-49.216-17.853-49.259,21.579-0.044,39,49.266,33.475,49.266,19.351C64.642,56.677,43.13,65.938,32.878,56.121Z"/><path class="b" d="M39.831,48.861c-2.167-2.076-2.3-8.175-.255-10.2,6.142-6.1,35.118,5.466,35.111-16.608C74.68-7.419,5.382-9.937,5.324,43.621c-0.059,51.653,69.37,47.824,69.37,19.362C74.694,42.667,46.4,55.151,39.831,48.861ZM12.824,43.63C12.872-.122,67.184,3.072,67.187,22.052c0.009,13.473-22.965,1.42-32.9,11.285-5.137,5.1-4.772,16.032.353,20.941,9.838,9.421,32.551-1.858,32.551,8.7C67.194,80.8,12.777,85.794,12.824,43.63Z"/></svg>