<?xml version="1.0" encoding="UTF-8"?>
<svg xmlns="http://www.w3.org/2000/svg" id="Layer_1" data-name="Layer 1" viewBox="0 0 59.6 58.18">
  <defs>
    <style>
      .cls-1 {
        fill: #fee776;
      }

      .cls-2 {
        fill: #ffe8a1;
      }

      .cls-3 {
        fill: #4a4a49;
      }
    </style>
  </defs>
  <title>adult</title>
  <g>
    <g>
      <path class="cls-1" d="M28.55,45.25a.79.79,0,0,0-.81.81v5.71c.41,0,.8.06,1.21.06l.41,0V46.06A.79.79,0,0,0,28.55,45.25Z"></path>
      <path class="cls-2" d="M52.1,28.69A23.15,23.15,0,1,0,22.27,50.85V33.79l-2.59,7.08a2.33,2.33,0,1,1-4.38-1.61l3.92-10.71a6.52,6.52,0,0,1,6.11-4.26h6.45a6.53,6.53,0,0,1,6.1,4.26L41.8,39.2a2.44,2.44,0,0,1-.92,2.88,2.68,2.68,0,0,1-1.27.35,2.43,2.43,0,0,1-2.19-1.56l-2.59-7.08V51.05A23.14,23.14,0,0,0,52.1,28.69ZM28.81,23A5.71,5.71,0,1,1,34.19,17,5.68,5.68,0,0,1,28.81,23Z"></path>
    </g>
    <path class="cls-3" d="M28.3,11.56A5.71,5.71,0,1,0,34.19,17,5.68,5.68,0,0,0,28.3,11.56Z"></path>
    <path class="cls-3" d="M37.42,40.87a2.43,2.43,0,0,0,2.19,1.56,2.68,2.68,0,0,0,1.27-.35,2.44,2.44,0,0,0,.92-2.88L37.88,28.55a6.53,6.53,0,0,0-6.1-4.26H25.33a6.52,6.52,0,0,0-6.11,4.26L15.3,39.26a2.33,2.33,0,1,0,4.38,1.61l2.59-7.08V50.85a23,23,0,0,0,5.47.92V46.06a.81.81,0,1,1,1.62,0v5.75a22.92,22.92,0,0,0,5.47-.76V33.79Z"></path>
  </g>
</svg>
