<svg xmlns="http://www.w3.org/2000/svg" viewBox="0 0 85.039 85.042"><defs><style>.a{fill:none;}.b{fill:#ec8600;}</style></defs><title>discourse-volume-s-final-color</title><path class="a" d="M17.843,65.188a17.109,17.109,0,0,0,1.182-3.68,22.239,22.239,0,0,0-3.852,1.478A15.416,15.416,0,0,0,17.843,65.188Z"/><path class="a" d="M69.807,63.478a23.974,23.974,0,0,0-3.731-1.448,11.2,11.2,0,0,0,1.318,3.287A12.3,12.3,0,0,0,69.807,63.478Z"/><path class="a" d="M42.523,11.173c-5.024,0-7.721,29.888-8.346,35.346a143.067,143.067,0,0,1,16.261.13C49.935,42.853,46.326,11.173,42.523,11.173Z"/><path class="b" d="M33.874,49.106c-0.32,2.659-.659,5.191-1.043,7.584a123.269,123.269,0,0,1,19.159.173c-0.438-2.39-.826-4.941-1.2-7.6A129.524,129.524,0,0,0,33.874,49.106Z"/><path class="b" d="M63.849,51.031c0.546,3.414,1.047,6.052,1.506,8.109,10.12,2.823,8.2,4.658,5.087,7.172C54.953,78.793,66.3,1.121,42.523,1.121c-13.395,0-15.672,20.435-17.874,40.2-0.208,1.863-.444,3.976-0.713,6.175-0.108.887-.224,1.786-0.343,2.691-0.452,3.416-2,15.356-4.632,17.554-1.375,1.149-5-2.284-3.733-1.281-4.3-3.4-5.343-5.238,4.4-7.788,0.392-2.033.825-4.654,1.291-8C4.5,53.991-.967,63.058,10.413,72.2l0.009-.009c13.815,12.324,19.042-7.057,21.169-25.52,1.692-14.682,3.591-38.05,10.932-38.05,7.514,0,9.15,32.862,12.115,48.51q0.259,1.367.543,2.654c2.932,13.286,9.467,20.835,19.97,12.365C84.78,64.381,82.135,54.953,63.849,51.031Z"/></svg>