<svg xmlns="http://www.w3.org/2000/svg" viewBox="0 0 85.039 85.042"><defs><style>.a{fill:none;}.b{fill:#9f4895;}</style></defs><title>discourse-volume-s-final-color</title><path class="a" d="M42.2,63.328a36.319,36.319,0,0,1-10.414,8.847c5.057,1.9,15.656,1.9,20.945.1A35.15,35.15,0,0,1,42.2,63.328Z"/><path class="a" d="M69.6,48.8a12.029,12.029,0,0,0-1.22-.024,39.107,39.107,0,0,0,.534,4.6A9.447,9.447,0,0,0,69.6,48.8Z"/><path class="a" d="M17.011,48.793a7.546,7.546,0,0,0-1.563-.1A10.223,10.223,0,0,0,16.4,54.3,29.713,29.713,0,0,0,17.011,48.793Z"/><path class="a" d="M42.237,11.367c-9.341,0-3.723,19.083.022,27.7C46.027,30.427,51.678,11.367,42.237,11.367Z"/><path class="b" d="M56.022,73.605c-5.906,3.411-21.532,3.52-27.317-.117a15.251,15.251,0,0,1-9.669-.035c6.323,14.1,40.848,13.78,47.175-.328A15.416,15.416,0,0,1,56.022,73.605Z"/><path class="b" d="M40.578,61.288A70.873,70.873,0,0,1,36.2,54.773c-3.069,4.087-5.988,6.776-8.412,8.2-10.7,6.271-20.087-16.832-11.8-16.832h0c4.37,0.135,4.169,1.295,2.4,11.687,1.7,2.315,4.354,4.586,7.038,3.5,1.283-8.992,5.2-22.432-9.358-22.683C-8.441,38.216,13.4,93.963,40.578,61.288Z"/><path class="b" d="M68.759,38.757l0.006-.024c-14.635.089-9.648,15.184-8.744,22.9,2.765,0.148,5.324-2.253,6.921-4.539-1.7-10.346-1.733-10.987,2.137-10.872,5.075,0.106,3.125,7.23.533,11.4-2.651,4.265-7.173,7.978-11.974,6.01C43.678,57.912,23.485,8.815,42.237,8.815c12.866,0,6.908,21.65,1.434,33.328a80.342,80.342,0,0,0,4.411,7.967C59.83,28.7,62.945,1.392,42.312,1.318l0.005,0c-35.9-.835.393,87.535,27.842,66.769C83.636,57.9,82.383,37.414,68.759,38.757Z"/></svg>