<?xml version="1.0" encoding="UTF-8"?>
<svg xmlns="http://www.w3.org/2000/svg" id="Layer_1" data-name="Layer 1" viewBox="0 0 121.69 122.18">
  <defs>
    <style>
      .cls-1 {
        fill: #e0e0e0;
      }

      .cls-2 {
        fill: #a1a098;
      }

      .cls-3 {
        fill: #98d5ed;
      }

      .cls-4 {
        fill: #4a4a49;
      }

      .cls-5 {
        fill: #ffe8a1;
      }

      .cls-6 {
        fill: #c3db97;
      }

      .cls-7 {
        fill: #fff;
      }
    </style>
  </defs>
  <title>trans</title>
  <rect class="cls-1" x="2.15" y="3.14" width="37.92" height="115.9" rx="18.96"></rect>
  <rect class="cls-1" x="80.99" y="3.14" width="37.92" height="115.9" rx="18.96"></rect>
  <g>
    <path class="cls-2" d="M107.89,104.67,60.53,81.92,13.17,104.67,44.75,74.34,17.27,61.14l27.48-13.2L13.17,17.61,60.53,40.36l47.36-22.75L76.32,47.94l27.48,13.2L76.32,74.34ZM63.8,80.35l29.36,14.1L73.59,75.65Zm-16.33-4.7L27.9,94.45l29.36-14.1Zm2.19-2.1,10.87,5.23,10.88-5.23L60.53,63.1ZM62.58,61.14l11.55,11.1,23.12-11.1L74.13,50Zm-38.77,0,23.12,11.1,11.56-11.1L46.93,50ZM49.66,48.73,60.53,59.17,71.41,48.73,60.53,43.5Zm14.14-6.8,9.79,4.7,19.57-18.8ZM27.9,27.83l19.57,18.8,9.79-4.7Z"></path>
    <rect class="cls-2" x="20.54" y="98.14" width="79.98" height="2.83"></rect>
    <rect class="cls-2" x="20.54" y="21.3" width="79.98" height="2.83"></rect>
    <rect class="cls-2" x="20.54" y="59.72" width="79.98" height="2.83"></rect>
  </g>
  <g>
    <circle class="cls-3" cx="21.24" cy="99.56" r="16.65"></circle>
    <g>
      <circle class="cls-4" cx="20.86" cy="93.18" r="3.12"></circle>
      <path class="cls-4" d="M25.47,96.33c-.83,0-2.36,1.8-4.54,1.8s-3.78-1.8-4.58-1.8-2.18.42-2.18,1.7a2.5,2.5,0,0,0,.9,1.94l1.8.9v.8s-1.8,2.84-1.8,3.71.9,2.71,2.25,2.71a2,2,0,0,0,1.8-.91l1.36-2.7h.86l1.42,2.7a1.82,1.82,0,0,0,1.7.91c1.29,0,2.29-1.81,2.29-2.71s-1.8-3.6-1.8-3.6v-.91l1.8-.9a2.31,2.31,0,0,0,.9-1.9A2,2,0,0,0,25.47,96.33Z"></path>
    </g>
  </g>
  <g>
    <g>
      <path class="cls-5" d="M21,34.63a.57.57,0,0,0-.58.58v4.11c.29,0,.57,0,.86,0l.3,0V35.21A.57.57,0,0,0,21,34.63Z"></path>
      <path class="cls-5" d="M37.89,22.72A16.65,16.65,0,1,0,16.44,38.66V26.39l-1.86,5.09a1.68,1.68,0,1,1-3.15-1.16l2.82-7.7a4.68,4.68,0,0,1,4.39-3.06h4.64a4.71,4.71,0,0,1,4.39,3.06l2.81,7.66a1.75,1.75,0,0,1-.66,2.07,1.84,1.84,0,0,1-.91.25,1.73,1.73,0,0,1-1.57-1.12l-1.87-5.09V38.8A16.63,16.63,0,0,0,37.89,22.72ZM21.14,18.6A4.1,4.1,0,1,1,25,14.32,4.07,4.07,0,0,1,21.14,18.6Z"></path>
    </g>
    <path class="cls-4" d="M20.78,10.41A4.1,4.1,0,1,0,25,14.32,4.07,4.07,0,0,0,20.78,10.41Z"></path>
    <path class="cls-4" d="M27.34,31.48a1.73,1.73,0,0,0,1.57,1.12,1.84,1.84,0,0,0,.91-.25,1.75,1.75,0,0,0,.66-2.07l-2.81-7.66a4.71,4.71,0,0,0-4.39-3.06H18.64a4.68,4.68,0,0,0-4.39,3.06l-2.82,7.7a1.68,1.68,0,1,0,3.15,1.16l1.86-5.09V38.66a17.09,17.09,0,0,0,3.94.66V35.21a.58.58,0,0,1,1.16,0v4.14a16.42,16.42,0,0,0,3.93-.55V26.39Z"></path>
  </g>
  <g>
    <g>
      <g>
        <path class="cls-6" d="M21,73.05a.57.57,0,0,0-.58.58v4.11c.29,0,.57,0,.86,0h.3V73.63A.57.57,0,0,0,21,73.05Z"></path>
        <path class="cls-6" d="M37.89,61.14A16.65,16.65,0,1,0,16.44,77.07V64.81L14.58,69.9a1.68,1.68,0,1,1-3.15-1.16L14.25,61A4.69,4.69,0,0,1,18.64,58h4.64A4.72,4.72,0,0,1,27.67,61l2.81,7.66a1.75,1.75,0,0,1-.66,2.07,1.84,1.84,0,0,1-.91.25,1.74,1.74,0,0,1-1.57-1.12l-1.87-5.09V77.22A16.63,16.63,0,0,0,37.89,61.14ZM21.14,57A4.1,4.1,0,1,1,25,52.74,4.07,4.07,0,0,1,21.14,57Z"></path>
      </g>
      <path class="cls-4" d="M20.78,48.83A4.1,4.1,0,1,0,25,52.74,4.07,4.07,0,0,0,20.78,48.83Z"></path>
      <path class="cls-4" d="M27.34,69.9A1.74,1.74,0,0,0,28.91,71a1.84,1.84,0,0,0,.91-.25,1.75,1.75,0,0,0,.66-2.07L27.67,61A4.72,4.72,0,0,0,23.28,58H18.64A4.69,4.69,0,0,0,14.25,61l-2.82,7.7a1.68,1.68,0,1,0,3.15,1.16l1.86-5.09V77.07a16.57,16.57,0,0,0,3.94.67V73.63a.58.58,0,0,1,1.16,0v4.14a16.42,16.42,0,0,0,3.93-.55V64.81Z"></path>
    </g>
    <g>
      <circle class="cls-7" cx="20.91" cy="54.45" r="2.81"></circle>
      <path class="cls-7" d="M25.07,57.29c-.75,0-2.13,1.62-4.09,1.62s-3.41-1.62-4.12-1.62-2,.37-2,1.53a2.27,2.27,0,0,0,.81,1.75l1.62.81v.72s-1.62,2.56-1.62,3.34.81,2.43,2,2.43a1.8,1.8,0,0,0,1.62-.81l1.22-2.44h.78l1.28,2.44a1.64,1.64,0,0,0,1.53.81c1.16,0,2.06-1.62,2.06-2.43s-1.62-3.25-1.62-3.25v-.81l1.62-.81A2.08,2.08,0,0,0,27,58.85,1.81,1.81,0,0,0,25.07,57.29Z"></path>
    </g>
  </g>
  <g>
    <circle class="cls-3" cx="100.23" cy="99.56" r="16.65"></circle>
    <g>
      <circle class="cls-4" cx="99.84" cy="93.18" r="3.12"></circle>
      <path class="cls-4" d="M104.45,96.33c-.83,0-2.35,1.8-4.54,1.8s-3.78-1.8-4.58-1.8-2.18.42-2.18,1.7a2.5,2.5,0,0,0,.9,1.94l1.8.9v.8s-1.8,2.84-1.8,3.71.9,2.71,2.25,2.71a2,2,0,0,0,1.81-.91l1.35-2.7h.87l1.42,2.7a1.8,1.8,0,0,0,1.7.91c1.28,0,2.29-1.81,2.29-2.71s-1.81-3.6-1.81-3.6v-.91l1.81-.9a2.31,2.31,0,0,0,.9-1.9A2,2,0,0,0,104.45,96.33Z"></path>
    </g>
  </g>
  <g>
    <g>
      <path class="cls-5" d="M99.94,34.63a.57.57,0,0,0-.58.58v4.11c.29,0,.58,0,.87,0l.29,0V35.21A.57.57,0,0,0,99.94,34.63Z"></path>
      <path class="cls-5" d="M116.87,22.72A16.65,16.65,0,1,0,95.43,38.66V26.39l-1.87,5.09a1.67,1.67,0,1,1-3.14-1.16l2.81-7.7a4.7,4.7,0,0,1,4.39-3.06h4.64a4.7,4.7,0,0,1,4.39,3.06l2.82,7.66a1.75,1.75,0,0,1-.66,2.07,1.88,1.88,0,0,1-.92.25,1.73,1.73,0,0,1-1.57-1.12l-1.86-5.09V38.8A16.63,16.63,0,0,0,116.87,22.72ZM100.13,18.6A4.1,4.1,0,1,1,104,14.32,4.08,4.08,0,0,1,100.13,18.6Z"></path>
    </g>
    <path class="cls-4" d="M99.76,10.41A4.1,4.1,0,1,0,104,14.32,4.08,4.08,0,0,0,99.76,10.41Z"></path>
    <path class="cls-4" d="M106.32,31.48a1.73,1.73,0,0,0,1.57,1.12,1.88,1.88,0,0,0,.92-.25,1.75,1.75,0,0,0,.66-2.07l-2.82-7.66a4.7,4.7,0,0,0-4.39-3.06H97.62a4.7,4.7,0,0,0-4.39,3.06l-2.81,7.7a1.67,1.67,0,1,0,3.14,1.16l1.87-5.09V38.66a16.91,16.91,0,0,0,3.93.66V35.21a.58.58,0,1,1,1.16,0v4.14a16.5,16.5,0,0,0,3.94-.55V26.39Z"></path>
  </g>
  <g>
    <g>
      <g>
        <path class="cls-6" d="M99.94,73.05a.57.57,0,0,0-.58.58v4.11c.29,0,.58,0,.87,0h.29V73.63A.57.57,0,0,0,99.94,73.05Z"></path>
        <path class="cls-6" d="M116.87,61.14A16.65,16.65,0,1,0,95.43,77.07V64.81L93.56,69.9a1.67,1.67,0,1,1-3.14-1.16L93.23,61A4.71,4.71,0,0,1,97.62,58h4.64A4.71,4.71,0,0,1,106.65,61l2.82,7.66a1.75,1.75,0,0,1-.66,2.07,1.88,1.88,0,0,1-.92.25,1.74,1.74,0,0,1-1.57-1.12l-1.86-5.09V77.22A16.63,16.63,0,0,0,116.87,61.14ZM100.13,57A4.1,4.1,0,1,1,104,52.74,4.08,4.08,0,0,1,100.13,57Z"></path>
      </g>
      <path class="cls-4" d="M99.76,48.83A4.1,4.1,0,1,0,104,52.74,4.07,4.07,0,0,0,99.76,48.83Z"></path>
      <path class="cls-4" d="M106.32,69.9A1.74,1.74,0,0,0,107.89,71a1.88,1.88,0,0,0,.92-.25,1.75,1.75,0,0,0,.66-2.07L106.65,61A4.71,4.71,0,0,0,102.26,58H97.62A4.71,4.71,0,0,0,93.23,61l-2.81,7.7a1.67,1.67,0,1,0,3.14,1.16l1.87-5.09V77.07a16.41,16.41,0,0,0,3.93.67V73.63a.58.58,0,0,1,1.16,0v4.14a16.5,16.5,0,0,0,3.94-.55V64.81Z"></path>
    </g>
    <g>
      <circle class="cls-7" cx="99.9" cy="54.45" r="2.81"></circle>
      <path class="cls-7" d="M104.05,57.29c-.75,0-2.12,1.62-4.09,1.62s-3.4-1.62-4.12-1.62-2,.37-2,1.53a2.27,2.27,0,0,0,.81,1.75l1.63.81v.72s-1.63,2.56-1.63,3.34.82,2.43,2,2.43a1.83,1.83,0,0,0,1.63-.81l1.21-2.44h.78l1.28,2.44a1.64,1.64,0,0,0,1.53.81c1.16,0,2.07-1.62,2.07-2.43s-1.63-3.25-1.63-3.25v-.81l1.63-.81a2.08,2.08,0,0,0,.81-1.72A1.82,1.82,0,0,0,104.05,57.29Z"></path>
    </g>
  </g>
</svg>
