<svg xmlns="http://www.w3.org/2000/svg" xmlns:xlink="http://www.w3.org/1999/xlink" viewBox="0 0 595.276 267.496"><defs><style>.a{fill:none;stroke:#1d1d1b;stroke-miterlimit:10;stroke-width:3px;}.b{fill:url(#a);}.c{fill:url(#b);}.d{fill:url(#c);}.e{fill:url(#d);}.f{fill:url(#e);}.g{fill:url(#f);}.h{fill:url(#g);}.i{fill:url(#h);}.j{fill:url(#i);}.k{fill:url(#j);}.l{fill:url(#k);}.m{fill:url(#l);}.n{fill:url(#m);}.o{fill:url(#n);}.p{fill:url(#o);}.q{fill:url(#p);}.r{fill:url(#q);}.s{fill:url(#r);}.t{fill:url(#s);}.u{fill:url(#t);}.v{fill:url(#u);}.w{fill:url(#v);}.x{fill:url(#w);}.y{fill:url(#x);}.z{fill:url(#y);}.aa{fill:url(#z);}.ab{fill:url(#aa);}.ac{fill:url(#ab);}.ad{fill:url(#ac);}.ae{fill:url(#ad);}.af{fill:url(#ae);}.ag{fill:url(#af);}.ah{fill:url(#ag);}.ai{fill:url(#ah);}.aj{fill:url(#ai);}.ak{fill:url(#aj);}.al{fill:url(#ak);}.am{fill:url(#al);}.an{fill:url(#am);}.ao{fill:url(#an);}</style><linearGradient id="a" x1="24.406" y1="103.037" x2="243.8" y2="-116.358" gradientUnits="userSpaceOnUse"><stop offset="0" stop-color="#ffef26"/><stop offset="0.018" stop-color="#ffea21"/><stop offset="0.102" stop-color="#fed70f"/><stop offset="0.189" stop-color="#fdcc04"/><stop offset="0.281" stop-color="#fdc800"/><stop offset="0.669" stop-color="#f18f34"/><stop offset="0.888" stop-color="#e95f32"/><stop offset="1" stop-color="#e3312d"/></linearGradient><linearGradient id="b" x1="196.709" y1="275.34" x2="416.103" y2="55.946" xlink:href="#a"/><linearGradient id="c" x1="176.743" y1="147.824" x2="396.137" y2="-71.571" xlink:href="#a"/><linearGradient id="d" x1="277.073" y1="355.704" x2="496.467" y2="136.31" xlink:href="#a"/><linearGradient id="e" x1="211.416" y1="289.273" x2="430.81" y2="69.879" xlink:href="#a"/><linearGradient id="f" x1="-55.398" y1="399.807" x2="163.997" y2="180.413" xlink:href="#a"/><linearGradient id="g" x1="-74.367" y1="308.225" x2="145.028" y2="88.831" xlink:href="#a"/><linearGradient id="h" x1="228.05" y1="306.681" x2="447.445" y2="87.287" xlink:href="#a"/><linearGradient id="i" x1="347.591" y1="226.423" x2="566.986" y2="7.029" xlink:href="#a"/><linearGradient id="j" x1="141.605" y1="42.539" x2="361" y2="-176.855" xlink:href="#a"/><linearGradient id="k" x1="182.965" y1="286.169" x2="402.359" y2="66.775" xlink:href="#a"/><linearGradient id="l" x1="391.153" y1="188.834" x2="610.547" y2="-30.56" xlink:href="#a"/><linearGradient id="m" x1="177.143" y1="118.385" x2="396.537" y2="-101.009" xlink:href="#a"/><linearGradient id="n" x1="407.532" y1="50.263" x2="626.926" y2="-169.131" xlink:href="#a"/><linearGradient id="o" x1="166.804" y1="245.434" x2="386.198" y2="26.04" xlink:href="#a"/><linearGradient id="p" x1="162.557" y1="241.188" x2="381.951" y2="21.793" xlink:href="#a"/><linearGradient id="q" x1="229.233" y1="307.863" x2="448.627" y2="88.469" xlink:href="#a"/><linearGradient id="r" x1="242.556" y1="321.187" x2="461.95" y2="101.793" xlink:href="#a"/><linearGradient id="s" x1="145.27" y1="223.901" x2="364.665" y2="4.507" xlink:href="#a"/><linearGradient id="t" x1="93.796" y1="172.426" x2="313.19" y2="-46.968" xlink:href="#a"/><linearGradient id="u" x1="91.155" y1="169.786" x2="310.549" y2="-49.608" xlink:href="#a"/><linearGradient id="v" x1="357.258" y1="69.816" x2="576.652" y2="-149.578" xlink:href="#a"/><linearGradient id="w" x1="351.094" y1="162.18" x2="570.488" y2="-57.214" xlink:href="#a"/><linearGradient id="x" x1="221.572" y1="482.837" x2="440.967" y2="263.443" xlink:href="#a"/><linearGradient id="y" x1="341.633" y1="283.406" x2="561.027" y2="64.012" xlink:href="#a"/><linearGradient id="z" x1="220.697" y1="77.349" x2="440.091" y2="-142.046" xlink:href="#a"/><linearGradient id="aa" x1="-182.315" y1="416.173" x2="37.079" y2="196.779" xlink:href="#a"/><linearGradient id="ab" x1="19.269" y1="296.794" x2="238.663" y2="77.4" xlink:href="#a"/><linearGradient id="ac" x1="199.886" y1="-12.963" x2="419.28" y2="-232.358" xlink:href="#a"/><linearGradient id="ad" x1="375.554" y1="246.651" x2="594.948" y2="27.257" xlink:href="#a"/><linearGradient id="ae" x1="256.825" y1="210.37" x2="476.22" y2="-9.024" xlink:href="#a"/><linearGradient id="af" x1="61.483" y1="124.293" x2="280.877" y2="-95.101" xlink:href="#a"/><linearGradient id="ag" x1="50.409" y1="196.158" x2="269.803" y2="-23.236" xlink:href="#a"/><linearGradient id="ah" x1="379.812" y1="299.711" x2="599.206" y2="80.317" xlink:href="#a"/><linearGradient id="ai" x1="147.327" y1="225.958" x2="366.721" y2="6.564" xlink:href="#a"/><linearGradient id="aj" x1="286.722" y1="102.427" x2="506.116" y2="-116.967" xlink:href="#a"/><linearGradient id="ak" x1="307.854" y1="237.815" x2="527.249" y2="18.421" xlink:href="#a"/><linearGradient id="al" x1="225.588" y1="81.971" x2="444.982" y2="-137.423" xlink:href="#a"/><linearGradient id="am" x1="393.027" y1="76.107" x2="612.422" y2="-143.288" xlink:href="#a"/><linearGradient id="an" x1="273.847" y1="253.294" x2="493.241" y2="33.9" xlink:href="#a"/></defs><title>graph</title><line class="a" x1="413.692" y1="219.085" x2="477.638" y2="226.772"/><line class="a" x1="231.271" y1="180.967" x2="257.859" y2="214.19"/><line class="a" x1="201.308" y1="171.977" x2="231.271" y2="180.967"/><line class="a" x1="157.323" y1="187.087" x2="201.308" y2="171.977"/><line class="a" x1="257.859" y1="214.19" x2="296.22" y2="172.913"/><line class="a" x1="355.524" y1="179.208" x2="296.22" y2="172.913"/><line class="a" x1="403.937" y1="141.732" x2="355.524" y2="179.208"/><line class="a" x1="257.859" y1="131.29" x2="296.823" y2="106.921"/><line class="a" x1="211.181" y1="104.882" x2="257.859" y2="131.29"/><line class="a" x1="171.496" y1="136.063" x2="211.181" y2="104.882"/><line class="a" x1="201.308" y1="171.977" x2="171.496" y2="136.063"/><line class="a" x1="321.732" y1="145.463" x2="296.823" y2="106.921"/><line class="a" x1="296.22" y1="172.913" x2="321.732" y2="145.463"/><line class="a" x1="355.524" y1="179.208" x2="321.732" y2="145.463"/><line class="a" x1="364.366" y1="136.324" x2="321.732" y2="145.463"/><line class="a" x1="336.365" y1="90.709" x2="364.366" y2="136.324"/><line class="a" x1="296.823" y1="106.921" x2="336.365" y2="90.709"/><line class="a" x1="262.205" y1="62.362" x2="296.823" y2="106.921"/><line class="a" x1="325.399" y1="43.772" x2="336.365" y2="90.709"/><line class="a" x1="384.094" y1="73.701" x2="410.526" y2="102.748"/><line class="a" x1="420.945" y1="48.189" x2="410.526" y2="102.748"/><line class="a" x1="448.521" y1="88.575" x2="410.526" y2="102.748"/><line class="a" x1="496.773" y1="66.97" x2="448.521" y2="88.575"/><line class="a" x1="486.142" y1="136.063" x2="496.773" y2="66.97"/><line class="a" x1="442.157" y1="137.831" x2="448.521" y2="88.575"/><line class="a" x1="403.937" y1="141.732" x2="410.526" y2="102.748"/><line class="a" x1="336.365" y1="90.709" x2="384.094" y2="73.701"/><line class="a" x1="420.945" y1="48.189" x2="448.521" y2="88.575"/><line class="a" x1="486.142" y1="136.063" x2="500.315" y2="179.208"/><line class="a" x1="442.157" y1="137.831" x2="500.315" y2="179.208"/><line class="a" x1="477.638" y1="226.772" x2="437.953" y2="187.087"/><line class="a" x1="355.524" y1="179.208" x2="362.472" y2="211.543"/><line class="a" x1="413.692" y1="219.085" x2="362.472" y2="211.543"/><line class="a" x1="437.953" y1="187.087" x2="403.937" y2="141.732"/><line class="a" x1="296.22" y1="172.913" x2="319.392" y2="207.749"/><line class="a" x1="66.614" y1="167.244" x2="90.296" y2="207.749"/><line class="a" x1="32.598" y1="201.26" x2="90.296" y2="207.749"/><line class="a" x1="119.055" y1="176.472" x2="157.323" y2="187.087"/><line class="a" x1="66.614" y1="167.244" x2="119.055" y2="176.472"/><line class="a" x1="124.617" y1="136.324" x2="171.496" y2="136.063"/><line class="a" x1="150.607" y1="95.959" x2="171.496" y2="136.063"/><line class="a" x1="194.121" y1="72.101" x2="211.181" y2="104.882"/><line class="a" x1="143.15" y1="43.772" x2="194.121" y2="72.101"/><line class="a" x1="110.444" y1="73.701" x2="150.607" y2="95.959"/><line class="a" x1="124.617" y1="136.324" x2="150.607" y2="95.959"/><line class="a" x1="68.659" y1="117.116" x2="110.444" y2="73.701"/><line class="a" x1="66.614" y1="167.244" x2="68.659" y2="117.116"/><line class="a" x1="51.877" y1="75.565" x2="110.444" y2="73.701"/><line class="a" x1="68.659" y1="117.116" x2="51.877" y2="75.565"/><circle class="b" cx="51.877" cy="75.565" r="14.173"/><circle class="c" cx="257.859" cy="214.19" r="14.173"/><circle class="d" cx="262.205" cy="62.362" r="14.173"/><circle class="e" cx="413.692" cy="219.085" r="14.173"/><circle class="f" cx="364.366" cy="136.324" r="14.173"/><circle class="g" cx="157.323" cy="187.087" r="14.173"/><circle class="h" cx="66.614" cy="167.244" r="14.173"/><circle class="i" cx="355.524" cy="179.208" r="14.173"/><circle class="j" cx="362.472" cy="211.543" r="14.173"/><circle class="k" cx="110.444" cy="73.701" r="14.173"/><circle class="l" cx="296.22" cy="172.913" r="14.173"/><circle class="m" cx="442.157" cy="137.831" r="14.173"/><circle class="n" cx="119.055" cy="176.472" r="14.173"/><circle class="o" cx="384.094" cy="73.701" r="14.173"/><circle class="p" cx="231.271" cy="180.967" r="14.173"/><circle class="q" cx="296.823" cy="106.921" r="14.173"/><circle class="r" cx="448.521" cy="88.575" r="14.173"/><circle class="s" cx="496.773" cy="66.97" r="14.173"/><circle class="t" cx="325.399" cy="43.772" r="14.173"/><circle class="u" cx="194.121" cy="72.101" r="14.173"/><circle class="v" cx="124.617" cy="136.324" r="14.173"/><circle class="w" cx="336.365" cy="90.709" r="14.173"/><circle class="x" cx="410.526" cy="102.748" r="14.173"/><circle class="y" cx="477.638" cy="226.772" r="14.173"/><circle class="z" cx="437.953" cy="187.087" r="14.173"/><circle class="aa" cx="90.296" cy="207.749" r="14.173"/><circle class="ab" cx="32.598" cy="201.26" r="14.173"/><circle class="ac" cx="211.181" cy="104.882" r="14.173"/><circle class="ad" cx="143.15" cy="43.772" r="14.173"/><circle class="ae" cx="486.142" cy="136.063" r="14.173"/><circle class="af" cx="321.732" cy="145.463" r="14.173"/><circle class="ag" cx="68.659" cy="117.116" r="14.173"/><circle class="ah" cx="150.607" cy="95.959" r="14.173"/><circle class="ai" cx="500.315" cy="179.208" r="14.173"/><circle class="aj" cx="201.308" cy="171.977" r="14.173"/><circle class="ak" cx="257.859" cy="131.29" r="14.173"/><circle class="al" cx="403.937" cy="141.732" r="14.173"/><circle class="am" cx="171.496" cy="136.063" r="14.173"/><circle class="an" cx="420.945" cy="48.189" r="14.173"/><circle class="ao" cx="319.392" cy="207.749" r="14.173"/></svg>