<svg xmlns="http://www.w3.org/2000/svg" xmlns:xlink="http://www.w3.org/1999/xlink" viewBox="0 0 368.826 291"><defs><style>.a{fill:none;stroke:#1d1d1b;stroke-miterlimit:10;stroke-width:3px;}.b{fill:url(#a);}.c{fill:url(#b);}.d{fill:url(#c);}.e{fill:url(#d);}.f{fill:url(#e);}.g{fill:url(#f);}</style><linearGradient id="a" x1="76.834" y1="116.792" x2="296.228" y2="-102.602" gradientUnits="userSpaceOnUse"><stop offset="0" stop-color="#ffef26"/><stop offset="0.018" stop-color="#ffea21"/><stop offset="0.102" stop-color="#fed70f"/><stop offset="0.189" stop-color="#fdcc04"/><stop offset="0.281" stop-color="#fdc800"/><stop offset="0.669" stop-color="#f18f34"/><stop offset="0.888" stop-color="#e95f32"/><stop offset="1" stop-color="#e3312d"/></linearGradient><linearGradient id="b" x1="194.034" y1="56.295" x2="413.428" y2="-163.099" xlink:href="#a"/><linearGradient id="c" x1="114.901" y1="213.357" x2="334.295" y2="-6.037" gradientTransform="translate(381.602 -47.604) rotate(90)" xlink:href="#a"/><linearGradient id="d" x1="40.374" y1="337.725" x2="259.768" y2="118.331" gradientTransform="translate(389.335 -37.493) rotate(90)" xlink:href="#a"/><linearGradient id="e" x1="220.991" y1="27.967" x2="440.385" y2="-191.427" gradientTransform="translate(362.626 -54.192) rotate(90)" xlink:href="#a"/><linearGradient id="f" x1="102.837" y1="209.914" x2="322.231" y2="-9.481" xlink:href="#a"/></defs><title>graph</title><line class="a" x1="268.57" y1="167.623" x2="243.522" y2="194.793"/><line class="a" x1="277.923" y1="110.063" x2="268.57" y2="167.623"/><line class="a" x1="162.872" y1="87.457" x2="203.035" y2="109.715"/><line class="a" x1="104.305" y1="89.321" x2="162.872" y2="87.457"/><circle class="b" cx="104.305" cy="89.321" r="14.173"/><circle class="c" cx="162.872" cy="87.457" r="14.173"/><circle class="d" cx="268.57" cy="167.623" r="14.173" transform="translate(-40.943 101.071) rotate(-19.835)"/><circle class="e" cx="243.522" cy="194.793" r="14.173" transform="translate(-51.648 94.184) rotate(-19.835)"/><circle class="f" cx="277.923" cy="110.063" r="14.173" transform="translate(-20.858 100.83) rotate(-19.835)"/><circle class="g" cx="203.035" cy="109.715" r="14.173"/></svg>