<svg xmlns="http://www.w3.org/2000/svg" xmlns:xlink="http://www.w3.org/1999/xlink" viewBox="0 0 368.826 291"><defs><style>.a{fill:none;stroke:#1d1d1b;stroke-miterlimit:10;stroke-width:3px;}.b{fill:url(#a);}.c{fill:url(#b);}.d{fill:url(#c);}.e{fill:url(#d);}.f{fill:url(#e);}.g{fill:url(#f);}.h{fill:url(#g);}.i{fill:url(#h);}.j{fill:url(#i);}.k{fill:url(#j);}.l{fill:url(#k);}.m{fill:url(#l);}.n{fill:url(#m);}.o{fill:url(#n);}.p{fill:url(#o);}</style><linearGradient id="a" x1="76.834" y1="116.792" x2="296.228" y2="-102.602" gradientUnits="userSpaceOnUse"><stop offset="0" stop-color="#ffef26"/><stop offset="0.018" stop-color="#ffea21"/><stop offset="0.102" stop-color="#fed70f"/><stop offset="0.189" stop-color="#fdcc04"/><stop offset="0.281" stop-color="#fdc800"/><stop offset="0.669" stop-color="#f18f34"/><stop offset="0.888" stop-color="#e95f32"/><stop offset="1" stop-color="#e3312d"/></linearGradient><linearGradient id="b" x1="-2.969" y1="413.563" x2="216.425" y2="194.169" xlink:href="#a"/><linearGradient id="c" x1="-21.938" y1="321.981" x2="197.456" y2="102.586" xlink:href="#a"/><linearGradient id="d" x1="194.034" y1="56.295" x2="413.428" y2="-163.099" xlink:href="#a"/><linearGradient id="e" x1="229.571" y1="132.141" x2="448.965" y2="-87.254" xlink:href="#a"/><linearGradient id="f" x1="146.224" y1="186.182" x2="365.618" y2="-33.212" xlink:href="#a"/><linearGradient id="g" x1="143.583" y1="183.542" x2="362.978" y2="-35.853" xlink:href="#a"/><linearGradient id="h" x1="273.125" y1="91.104" x2="492.519" y2="-128.29" xlink:href="#a"/><linearGradient id="i" x1="-129.887" y1="429.929" x2="89.507" y2="210.535" xlink:href="#a"/><linearGradient id="j" x1="71.697" y1="310.55" x2="291.091" y2="91.156" xlink:href="#a"/><linearGradient id="k" x1="252.314" y1="0.792" x2="471.708" y2="-218.602" xlink:href="#a"/><linearGradient id="l" x1="113.911" y1="138.049" x2="333.305" y2="-81.346" xlink:href="#a"/><linearGradient id="m" x1="102.837" y1="209.914" x2="322.231" y2="-9.481" xlink:href="#a"/><linearGradient id="n" x1="199.755" y1="239.714" x2="419.15" y2="20.319" xlink:href="#a"/><linearGradient id="o" x1="278.017" y1="95.726" x2="497.411" y2="-123.668" xlink:href="#a"/></defs><title>graph</title><line class="a" x1="209.751" y1="200.842" x2="253.736" y2="185.733"/><line class="a" x1="223.924" y1="149.819" x2="263.609" y2="118.638"/><line class="a" x1="253.736" y1="185.733" x2="223.924" y2="149.819"/><line class="a" x1="119.042" y1="181" x2="142.725" y2="221.505"/><line class="a" x1="85.027" y1="215.016" x2="142.725" y2="221.505"/><line class="a" x1="171.483" y1="190.228" x2="209.751" y2="200.842"/><line class="a" x1="119.042" y1="181" x2="171.483" y2="190.228"/><line class="a" x1="177.046" y1="150.079" x2="223.924" y2="149.819"/><line class="a" x1="203.035" y1="109.715" x2="223.924" y2="149.819"/><line class="a" x1="246.549" y1="85.856" x2="263.609" y2="118.638"/><line class="a" x1="195.578" y1="57.528" x2="246.549" y2="85.856"/><line class="a" x1="162.872" y1="87.457" x2="203.035" y2="109.715"/><line class="a" x1="177.046" y1="150.079" x2="203.035" y2="109.715"/><line class="a" x1="121.087" y1="130.872" x2="162.872" y2="87.457"/><line class="a" x1="119.042" y1="181" x2="121.087" y2="130.872"/><line class="a" x1="104.305" y1="89.321" x2="162.872" y2="87.457"/><line class="a" x1="121.087" y1="130.872" x2="104.305" y2="89.321"/><circle class="b" cx="104.305" cy="89.321" r="14.173"/><circle class="c" cx="209.751" cy="200.842" r="14.173"/><circle class="d" cx="119.042" cy="181" r="14.173"/><circle class="e" cx="162.872" cy="87.457" r="14.173"/><circle class="f" cx="171.483" cy="190.228" r="14.173"/><circle class="g" cx="246.549" cy="85.856" r="14.173"/><circle class="h" cx="177.046" cy="150.079" r="14.173"/><circle class="i" cx="142.725" cy="221.505" r="14.173"/><circle class="j" cx="85.027" cy="215.016" r="14.173"/><circle class="k" cx="263.609" cy="118.638" r="14.173"/><circle class="l" cx="195.578" cy="57.528" r="14.173"/><circle class="m" cx="121.087" cy="130.872" r="14.173"/><circle class="n" cx="203.035" cy="109.715" r="14.173"/><circle class="o" cx="253.736" cy="185.733" r="14.173"/><circle class="p" cx="223.924" cy="149.819" r="14.173"/></svg>