<svg id="Layer_1" data-name="Layer 1" xmlns="http://www.w3.org/2000/svg" viewBox="0 0 48.19 48.19">
  <defs>
    <style>
      .cls-1 {
        fill: #896dae;
      }

      .cls-2 {
        fill: #1d1d1b;
      }
    </style>
  </defs>
  <title>enhancements</title>
  <g>
    <rect class="cls-1" x="1.63" y="1.57" width="45.04" height="45.04" rx="22.52"/>
    <path class="cls-2" d="M24,7.53A16.13,16.13,0,1,0,40.15,23.66,16.13,16.13,0,0,0,24,7.53Zm0,.75A15.38,15.38,0,1,1,8.64,23.66,15.37,15.37,0,0,1,24,8.28Zm-.37,7.12v7.88H15.77a.38.38,0,1,0,0,.75h7.88v7.88a.38.38,0,1,0,.75,0V24h7.87a.38.38,0,0,0,0-.75H24.4V15.4a.38.38,0,1,0-.75,0Z"/>
  </g>
</svg>
