<?xml version="1.0" encoding="UTF-8"?>
<svg xmlns="http://www.w3.org/2000/svg" viewBox="0 0 85.039 85.042">
  <defs>
    <style>.a{fill:none;}.b{fill:#7d4e24;}</style>
  </defs>
  <title>discourse-volume-s-final-color</title>
  <path class="a" d="M31.3,72.22C21.19,66.814,20.83,53.848,32.729,46.66,14.892,47.615,11.2,34.231,16.376,25.11,5.4,41.239,12.883,72.065,38.673,74.756,61.63,77.163,74.131,59.927,65.548,55.343,60.238,74.427,41.783,77.82,31.3,72.22Z"></path>
  <path class="a" d="M56.959,20.33C60.3,10.384,37.881,4.695,21.3,19.516,30.519,12.4,46.49,12.076,56.959,20.33Z"></path>
  <path class="a" d="M26.839,33.4a8.492,8.492,0,0,0,4.129.749c4.823,0,11.348-1.823,16.775-4.85C39.107,23.908,26.32,27.957,26.839,33.4Z"></path>
  <path class="a" d="M54.146,40.872c-0.023-.26-0.033-0.507-0.061-0.772-0.52.294-1.052,0.574-1.586,0.852Q53.323,40.9,54.146,40.872Z"></path>
  <path class="a" d="M36.406,60.087c3.847,4.068,13.2,1.647,16.434-6.531C43.489,54.28,37.026,58.1,36.406,60.087Z"></path>
  <path class="b" d="M53.649,50.931a28.99,28.99,0,0,0,.672-7.508C27.277,44.256,19.429,62.98,32.5,69.97c8.927,4.771,25.832,2.344,30.656-15.578,12.06-44.8-46.376-46.514-46.376-21.263,0,14.3,21.193,13.505,36.846,4.284A13.18,13.18,0,0,0,49.9,30.962C39.312,37.239,24.281,39,24.281,33.128c0-14.142,41.993-14.142,31.427,20.291-4.6,14.978-21.941,12.451-21.9,6.794C33.844,56.2,43,51.495,53.649,50.931Z"></path>
  <path class="b" d="M66.942,45.059A41.651,41.651,0,0,1,66.15,52.8c12.713,5.959-1.54,27.232-27.742,24.493C29.537,76.368,14,71.462,9.639,49,0.726,3.13,70.066-1.742,58.987,22.12a24.65,24.65,0,0,1,4.786,6.561C66.9,24.374,67.985,19.766,67,15.256,60.482-14.439-7.151,1.907,2.276,50.433,6.659,72.994,22.433,85,42.4,85,77.5,85,89.357,52.641,66.942,45.059Z"></path>
</svg>
