<svg xmlns="http://www.w3.org/2000/svg" viewBox="0 0 85.039 85.042"><defs><style>.a{fill:none;}.b{fill:#8180bb;}</style></defs><title>discourse-volume-s-final-color</title><path class="a" d="M37.047,49.561c-1.092.709-2.19,1.344-3.29,1.914-0.046.74-.108,1.445-0.165,2.16,2.2-.293,4.527-0.537,6.931-0.713A41.928,41.928,0,0,0,37.047,49.561Z"/><path class="a" d="M39.058,31.289c-1.8-.14-3.6-0.324-5.379-0.555,0.049,0.644.084,1.319,0.123,1.983q1.3,0.561,2.605,1.246C37.288,33.139,38.173,32.239,39.058,31.289Z"/><path class="a" d="M66.763,67.779A14.58,14.58,0,0,0,62.709,66.4C64.7,70.086,67.252,70.88,66.763,67.779Z"/><path class="a" d="M62.317,17.9a20.8,20.8,0,0,0,3.186-.973C64,17.156,63.293,15.848,62.317,17.9Z"/><path class="b" d="M33.366,56.224c-0.283,2.761-.657,5.3-1.109,7.648A85.484,85.484,0,0,1,47.3,62.578a45.4,45.4,0,0,0-4.723-7.254C39.309,55.512,36.175,55.827,33.366,56.224Z"/><path class="b" d="M20.317,25.136c-1.606-9.787-4.1-9.848-1.845-12.519,3.206,2.674,4.684,13.495,5.069,17.752A22.871,22.871,0,0,1,31.175,31.7C27.58-18.508-5.86,15.447,20.317,25.136Z"/><path class="b" d="M41.169,28.887a59.692,59.692,0,0,0,5.172-7.261,102.784,102.784,0,0,1-14.028-1.2c0.475,2.349.847,4.936,1.129,7.725C35.962,28.49,38.556,28.733,41.169,28.887Z"/><path class="b" d="M33.911,48.4c0.333-.19.663-0.371,1-0.575-0.317-.237-0.636-0.483-0.946-0.7C33.949,47.559,33.929,47.978,33.911,48.4Z"/><path class="b" d="M38.753,35.3a47.58,47.58,0,0,1,6.187,4.447C61.819,22.658,58.426,9.238,67.449,15.4c0.637,0.435,1.811,1.467,1.822,2.231-0.664.833-2.846,2.236-8.238,3.148a73.344,73.344,0,0,1-4.383,7.994c28.932-2.429,21.269-18.489,10.9-21.535C52.087,2.689,55.359,19.326,38.753,35.3Z"/><path class="b" d="M24,42.947C23.939,50.525,23.14,64.6,19.423,71.16c-2.741-.621-1.192.439,0.781-11.612C-3.2,69.4,29.959,106.76,31.447,45.534,29.443,44.387,26.3,42.956,24,42.947Z"/><path class="b" d="M57.836,55.531a58.131,58.131,0,0,1,3.68,8.142c3.959,0.7,6.766,1.68,7.558,2.774,1.86,6.623-5.865,9.53-9.843-1.606C47.83,32.947,13.477,24.1,13.964,42.5l-0.005,0c-0.015,4.731,2.4,8.43,7.144,9.241,0.766-10.376-.733-11.329,2.892-11.332,7.275,0,22.03,9.765,28.176,26.958,3.163,8.849,8.783,12.444,13.882,12.444C77.036,79.81,87.356,58.438,57.836,55.531Z"/></svg>