<svg id="Layer_1" data-name="Layer 1" xmlns="http://www.w3.org/2000/svg" viewBox="0 0 85.04 85.04"><defs><style>.cls-1{fill:none;stroke:#bcbec0;stroke-linecap:round;stroke-linejoin:round;stroke-width:2.83px;}</style></defs><title>skill</title><path class="cls-1" d="M50.37,27c0-2.93-.62-10.24,7.74-10.32,6.44-.07,7.52,5,7.52,11.14,0,3.1-4.68,14.73-23,14.66-19.44-.08-23.22,8.68-23.22,17,0,2.78,2.17,8.75,7.75,8.75,8.35,0,7.63-8.61,7.63-8.61V26.19c0-6-.14-9.61-7.81-9.61-6,0-7.57,6.91-7.51,11.19.1,8.72,15.32,14.75,23.16,14.68s23,5.19,23,16.09c0,4.3-1.68,9.92-7,9.92-4.73,0-8.22-5.27-8.22-11.77C50.41,49,50.34,45.06,50.37,27Z"/></svg>