<svg xmlns="http://www.w3.org/2000/svg" viewBox="0 0 85.039 85.042"><defs><style>.a{fill:none;}.b{fill:#cd62a2;}</style></defs><title>discourse-volume-s-final-color</title><path class="a" d="M49.6,31.877c-0.7,5.295.594,11.729,2.734,17.509C56.871,35.233,50.793,22.785,49.6,31.877Z"/><path class="a" d="M33.89,65.725A17.309,17.309,0,0,0,44.142,61.97C35.2,45.11,31.472,16.7,50.977,16.263l0.018,0.023c17.4,0.331,20.224,28.233,8.972,46.461C72.577,75.641,83.675,13.876,41.8,13.876,6.215,13.876,5.918,66.828,33.89,65.725Z"/><path class="b" d="M64.786,9.994c-0.419-.26-0.841-0.515-1.273-0.75C46.334-.107,23.754,2.9,13.181,15.939-2.941,35.826,1.77,77.043,34.292,75.768a27.353,27.353,0,0,0,15.5-5.459,40.371,40.371,0,0,1-4.38-6.082,19.759,19.759,0,0,1-11.422,4.046C8.484,69.289,6.873,35.63,19.007,20.662c9.135-11.267,29.849-11.917,42-4.185,13.017,8.284,15.128,32.287,9.978,44.449-11.485,27.128-33.4-34.333-20.344-34.6a3.976,3.976,0,0,1,1.477.267c4.752,1.941,6.41,14.872,1.64,26.286A42.4,42.4,0,0,0,58.232,60.7c6.895-11.722,7.866-27.532,2.5-36.021-8.5-13.433-31.6-4.538-16.6,31.315,10.32,24.66,27.205,23.352,33.763,7.861C84.3,48.715,81.592,20.444,64.786,9.994Z"/></svg>