<svg xmlns="http://www.w3.org/2000/svg" viewBox="0 0 595.565 570.17"><defs><style>.a{fill:red;}.b{fill:#fff;}.c{fill:#ff0800;}.d{fill:#ff1500;}.e{fill:#ff1d00;}.f{fill:#ff2a00;}.g{fill:#f30;}.h{fill:#ff3f00;}.i{fill:#ff4800;}.j{fill:#f50;}.k{fill:#ff5d00;}.l{fill:#ff6a00;}.m{fill:#ff7300;}.n{fill:#ff7f00;}.o{fill:#f80;}.p{fill:#ff9500;}.q{fill:#ff9d00;}.r{fill:#fa0;}.s{fill:#ffb300;}.t{fill:#ffbf00;}.u{fill:#ffc800;}.v{fill:#ffd500;}.w{fill:#fd0;}.x{fill:#ffea00;}.y{fill:#fff300;}.z{fill:#ff0;}.aa{fill:#f7ff00;}.ab{fill:#eaff00;}.ac{fill:#e2ff00;}.ad{fill:#d5ff00;}.ae{fill:#cf0;}.af{fill:#bfff00;}.ag{fill:#b7ff00;}.ah{fill:#af0;}.ai{fill:#a2ff00;}.aj{fill:#95ff00;}.ak{fill:#8cff00;}.al{fill:#80ff00;}.am{fill:#7f0;}.an{fill:#6aff00;}.ao{fill:#62ff00;}.ap{fill:#5f0;}.aq{fill:#4cff00;}.ar{fill:#3fff00;}.as{fill:#37ff00;}.at{fill:#2aff00;}.au{fill:#2f0;}.av{fill:#15ff00;}.aw{fill:#0cff00;}.ax{fill:lime;}.ay{fill:#00ff08;}.az{fill:#00ff15;}.ba{fill:#00ff1d;}.bb{fill:#00ff2a;}.bc{fill:#0f3;}.bd{fill:#00ff40;}.be{fill:#00ff48;}.bf{fill:#0f5;}.bg{fill:#00ff5d;}.bh{fill:#00ff6a;}.bi{fill:#00ff73;}.bj{fill:#00ff80;}.bk{fill:#0f8;}.bl{fill:#00ff95;}.bm{fill:#00ff9d;}.bn{fill:#0fa;}.bo{fill:#00ffb3;}.bp{fill:#00ffbf;}.bq{fill:#00ffc8;}.br{fill:#00ffd5;}.bs{fill:#0fd;}.bt{fill:#00ffea;}.bu{fill:#00fff3;}.bv{fill:aqua;}.bw{fill:#00f7ff;}.bx{fill:#00eaff;}.by{fill:#00e2ff;}.bz{fill:#00d5ff;}.ca{fill:#0cf;}.cb{fill:#00bfff;}.cc{fill:#00b7ff;}.cd{fill:#0af;}.ce{fill:#00a2ff;}.cf{fill:#0095ff;}.cg{fill:#008cff;}.ch{fill:#007fff;}.ci{fill:#07f;}.cj{fill:#006aff;}.ck{fill:#0062ff;}.cl{fill:#05f;}.cm{fill:#004cff;}.cn{fill:#003fff;}.co{fill:#0037ff;}.cp{fill:#002aff;}.cq{fill:#02f;}.cr{fill:#0015ff;}.cs{fill:#000cff;}.ct{fill:blue;}.cu{fill:#0800ff;}.cv{fill:#1500ff;}.cw{fill:#1d00ff;}.cx{fill:#2a00ff;}.cy{fill:#30f;}.cz{fill:#4000ff;}.da{fill:#4800ff;}.db{fill:#50f;}.dc{fill:#5d00ff;}.dd{fill:#6a00ff;}.de{fill:#7300ff;}.df{fill:#7f00ff;}.dg{fill:#80f;}.dh{fill:#9500ff;}.di{fill:#9d00ff;}.dj{fill:#a0f;}.dk{fill:#b300ff;}.dl{fill:#bf00ff;}.dm{fill:#c800ff;}.dn{fill:#d500ff;}.do{fill:#d0f;}.dp{fill:#ea00ff;}.dq{fill:#f300ff;}.dr{fill:#f0f;}.ds{fill:#ff00f7;}.dt{fill:#ff00ea;}.du{fill:#ff00e2;}.dv{fill:#ff00d5;}.dw{fill:#f0c;}.dx{fill:#ff00bf;}.dy{fill:#ff00b7;}.dz{fill:#f0a;}.ea{fill:#ff00a2;}.eb{fill:#ff0095;}.ec{fill:#ff008c;}.ed{fill:#ff0080;}.ee{fill:#f07;}.ef{fill:#ff006a;}.eg{fill:#ff0062;}.eh{fill:#f05;}.ei{fill:#ff004c;}.ej{fill:#ff003f;}.ek{fill:#ff0037;}.el{fill:#ff002a;}.em{fill:#f02;}.en{fill:#ff0015;}.eo{fill:#ff000c;}</style></defs><title>ILCA-2</title><rect class="a" width="49.972" height="47.514"/><path class="b" d="M19.7,29.492l-0.763-2.506H15.095l-0.763,2.506h-2.4l3.715-10.57h2.729l3.73,10.57H19.7Zm-1.3-4.377q-1.058-3.406-1.191-3.852t-0.191-.706q-0.237.921-1.361,4.558H18.4Z" transform="translate(0.285)"/><path class="b" d="M32.327,29.492l-0.763-2.506H27.726l-0.763,2.506h-2.4l3.715-10.57H31l3.73,10.57h-2.4Zm-1.3-4.377q-1.058-3.406-1.191-3.852t-0.191-.706q-0.237.921-1.361,4.558H31.03Z" transform="translate(0.285)"/><rect class="c" x="49.972" width="49.153" height="47.514"/><path class="b" d="M69.449,29.492l-0.763-2.506H64.848l-0.763,2.506h-2.4L65.4,18.922h2.729l3.73,10.57h-2.4Zm-1.3-4.377q-1.058-3.406-1.191-3.852t-0.191-.706q-0.237.921-1.361,4.558h2.743Z" transform="translate(0.285)"/><path class="b" d="M75.637,18.965h3.276a6.312,6.312,0,0,1,3.25.637,2.218,2.218,0,0,1,1.012,2.027,2.552,2.552,0,0,1-.443,1.548,1.767,1.767,0,0,1-1.177.727v0.072A2.321,2.321,0,0,1,83,24.812a2.72,2.72,0,0,1,.443,1.627A2.681,2.681,0,0,1,82.4,28.685a4.5,4.5,0,0,1-2.826.807H75.637V18.965Zm2.232,4.168h1.3a2.368,2.368,0,0,0,1.314-.281,1.047,1.047,0,0,0,.407-0.929,0.929,0.929,0,0,0-.443-0.868,2.852,2.852,0,0,0-1.4-.263H77.869v2.34Zm0,1.771v2.743h1.455a2.16,2.16,0,0,0,1.361-.353,1.3,1.3,0,0,0,.439-1.08q0-1.31-1.872-1.311H77.869Z" transform="translate(0.285)"/><rect class="d" x="99.124" width="49.972" height="47.514"/><path class="b" d="M119.332,29.492l-0.763-2.506H114.73l-0.763,2.506h-2.4l3.715-10.57h2.729l3.73,10.57h-2.4Zm-1.3-4.377q-1.058-3.406-1.191-3.852t-0.191-.706q-0.237.921-1.361,4.558h2.743Z" transform="translate(0.285)"/><path class="b" d="M129.99,20.671a2.275,2.275,0,0,0-1.951.947,4.406,4.406,0,0,0-.691,2.639q0,3.521,2.642,3.521a8.356,8.356,0,0,0,2.686-.555V29.1a7.463,7.463,0,0,1-2.895.54,4.414,4.414,0,0,1-3.514-1.393,5.9,5.9,0,0,1-1.217-4,6.531,6.531,0,0,1,.6-2.876,4.319,4.319,0,0,1,1.717-1.894,5.081,5.081,0,0,1,2.624-.659,7.082,7.082,0,0,1,3.082.742l-0.72,1.814a11.831,11.831,0,0,0-1.188-.49A3.546,3.546,0,0,0,129.99,20.671Z" transform="translate(0.285)"/><rect class="e" x="149.096" width="49.153" height="47.514"/><path class="b" d="M169.521,29.492l-0.763-2.506H164.92l-0.763,2.506h-2.4l3.715-10.57H168.2l3.73,10.57h-2.4Zm-1.3-4.377q-1.058-3.406-1.191-3.852t-0.191-.706q-0.237.921-1.361,4.558h2.743Z" transform="translate(0.285)"/><path class="b" d="M181.771,29.492h-6.062V18.965h6.063v1.829H177.94v2.312H181.5v1.829H177.94v2.714h3.831v1.843Z" transform="translate(0.285)"/><rect class="f" x="198.249" width="49.972" height="47.514"/><path class="b" d="M217.637,29.492l-0.763-2.506h-3.838l-0.763,2.506h-2.4l3.715-10.57h2.729l3.73,10.57h-2.4Zm-1.3-4.377q-1.058-3.406-1.191-3.852t-0.191-.706q-0.237.921-1.361,4.558h2.743Z" transform="translate(0.285)"/><path class="b" d="M232.45,29.492h-2.225V24.948h-4.169v4.543h-2.232V18.965h2.232v4.125h4.169V18.965h2.225V29.492Z" transform="translate(0.285)"/><rect class="g" x="248.22" width="49.972" height="47.514"/><path class="b" d="M268.018,29.492l-0.763-2.506h-3.838l-0.763,2.506h-2.4l3.715-10.57h2.729l3.73,10.57h-2.4Zm-1.3-4.377q-1.058-3.406-1.191-3.852t-0.191-.706q-0.237.921-1.361,4.558h2.743Z" transform="translate(0.285)"/><path class="b" d="M282.673,29.492h-2.534l-2.758-4.435-0.943.677v3.758h-2.232V18.965h2.232v4.817l0.878-1.239,2.852-3.578h2.477l-3.672,4.658Z" transform="translate(0.285)"/><rect class="h" x="298.192" width="49.153" height="47.514"/><path class="b" d="M315.583,29.492l-0.763-2.506h-3.838l-0.763,2.506h-2.405l3.715-10.57h2.729l3.729,10.57h-2.405Zm-1.3-4.377q-1.058-3.406-1.191-3.852t-0.19-.706q-0.239.921-1.361,4.558h2.743Z" transform="translate(0.285)"/><path class="b" d="M326.227,29.492l-2.534-8.258h-0.064q0.136,2.52.137,3.362v4.9h-1.994V18.965h3.038l2.491,8.049h0.043l2.643-8.049h3.038V29.492h-2.08V24.509c0-.235,0-0.506.011-0.813s0.039-1.124.1-2.448h-0.064l-2.715,8.244h-2.045Z" transform="translate(0.285)"/><rect class="i" x="347.345" width="49.972" height="47.514"/><path class="b" d="M366.3,29.492l-0.763-2.506H361.7l-0.763,2.506h-2.405l3.715-10.57h2.729l3.729,10.57H366.3ZM365,25.114q-1.058-3.406-1.191-3.852t-0.19-.706q-0.239.921-1.361,4.558H365Z" transform="translate(0.285)"/><path class="b" d="M382.038,24.214a5.709,5.709,0,0,1-1.3,4.018,5.617,5.617,0,0,1-7.431,0,5.736,5.736,0,0,1-1.3-4.032,5.658,5.658,0,0,1,1.3-4.014,4.861,4.861,0,0,1,3.727-1.386,4.791,4.791,0,0,1,3.711,1.4A5.724,5.724,0,0,1,382.038,24.214Zm-7.682,0a4.4,4.4,0,0,0,.669,2.657,2.342,2.342,0,0,0,2,.893q2.67,0,2.671-3.55t-2.656-3.557a2.358,2.358,0,0,0-2.009.9A4.379,4.379,0,0,0,374.356,24.214Z" transform="translate(0.285)"/><rect class="j" x="397.316" width="49.153" height="47.514"/><path class="b" d="M417.152,29.492l-0.763-2.506h-3.838l-0.763,2.506h-2.405l3.715-10.57h2.729l3.729,10.57h-2.405Zm-1.3-4.377q-1.058-3.406-1.191-3.852t-0.19-.706q-0.239.921-1.361,4.558h2.743Z" transform="translate(0.285)"/><path class="b" d="M430.611,22.249a3.217,3.217,0,0,1-1.062,2.6,4.542,4.542,0,0,1-3.021.9h-0.958v3.744H423.34V18.965H426.7a4.474,4.474,0,0,1,2.912.824A3.005,3.005,0,0,1,430.611,22.249Zm-5.04,1.67h0.734a2.448,2.448,0,0,0,1.541-.407,1.425,1.425,0,0,0,.512-1.185,1.462,1.462,0,0,0-.429-1.159,2.009,2.009,0,0,0-1.343-.375h-1.016v3.125Z" transform="translate(0.285)"/><rect class="k" x="446.469" width="49.972" height="47.514"/><path class="b" d="M467.149,29.492l-0.763-2.506h-3.838l-0.763,2.506h-2.405l3.715-10.57h2.729l3.729,10.57h-2.405Zm-1.3-4.377q-1.058-3.406-1.191-3.852t-0.19-.706q-0.239.921-1.361,4.558h2.743Z" transform="translate(0.285)"/><path class="b" d="M477.4,29.492h-2.232V20.823h-2.858V18.965h7.949v1.857H477.4v8.669Z" transform="translate(0.285)"/><rect class="l" x="496.441" width="49.153" height="47.514"/><path class="b" d="M516.122,29.492l-0.763-2.506h-3.838l-0.763,2.506h-2.405l3.715-10.57H514.8l3.729,10.57h-2.405Zm-1.3-4.377q-1.058-3.406-1.191-3.852t-0.19-.706q-0.239.921-1.361,4.558h2.743Z" transform="translate(0.285)"/><path class="b" d="M530.82,29.492h-2.549l-2.447-3.981-2.448,3.981h-2.391l3.492-5.429-3.269-5.1h2.462l2.269,3.787,2.225-3.787h2.4l-3.3,5.22Z" transform="translate(0.285)"/><rect class="m" x="545.593" width="49.972" height="47.514"/><path class="b" d="M566.069,29.492l-0.763-2.506h-3.838l-0.763,2.506H558.3l3.715-10.57h2.729l3.729,10.57h-2.405Zm-1.3-4.377q-1.058-3.406-1.191-3.852t-0.19-.706q-0.239.921-1.361,4.558h2.743Z" transform="translate(0.285)"/><path class="b" d="M575.532,23.3l2.2-4.334h2.405l-3.492,6.43v4.1h-2.218V25.467l-3.492-6.5h2.419Z" transform="translate(0.285)"/><rect class="n" y="47.514" width="49.972" height="47.514"/><path class="b" d="M13.379,66.479h3.276a6.312,6.312,0,0,1,3.25.637,2.218,2.218,0,0,1,1.012,2.027,2.552,2.552,0,0,1-.443,1.548,1.767,1.767,0,0,1-1.177.727v0.072a2.321,2.321,0,0,1,1.444.835,2.72,2.72,0,0,1,.443,1.627A2.681,2.681,0,0,1,20.144,76.2a4.5,4.5,0,0,1-2.826.807H13.379V66.479Zm2.232,4.168h1.3a2.368,2.368,0,0,0,1.314-.281,1.047,1.047,0,0,0,.407-0.929,0.929,0.929,0,0,0-.443-0.868,2.852,2.852,0,0,0-1.4-.263H15.611v2.34Zm0,1.771v2.743h1.455a2.16,2.16,0,0,0,1.361-.353,1.3,1.3,0,0,0,.439-1.08q0-1.31-1.872-1.311H15.611Z" transform="translate(0.285)"/><path class="b" d="M32.188,77.006L31.425,74.5H27.587l-0.763,2.506h-2.4l3.715-10.57h2.729l3.73,10.57h-2.4Zm-1.3-4.377q-1.058-3.406-1.191-3.852t-0.191-.706q-0.237.921-1.361,4.558h2.743Z" transform="translate(0.285)"/><rect class="o" x="49.972" y="47.514" width="49.153" height="47.514"/><path class="b" d="M63.133,66.479H66.41a6.312,6.312,0,0,1,3.25.637,2.218,2.218,0,0,1,1.012,2.027,2.552,2.552,0,0,1-.443,1.548,1.767,1.767,0,0,1-1.177.727v0.072a2.321,2.321,0,0,1,1.444.835,2.72,2.72,0,0,1,.443,1.627A2.681,2.681,0,0,1,69.9,76.2a4.5,4.5,0,0,1-2.826.807H63.133V66.479Zm2.232,4.168h1.3a2.368,2.368,0,0,0,1.314-.281,1.047,1.047,0,0,0,.407-0.929,0.929,0.929,0,0,0-.443-0.868,2.852,2.852,0,0,0-1.4-.263H65.365v2.34Zm0,1.771v2.743H66.82a2.16,2.16,0,0,0,1.361-.353,1.3,1.3,0,0,0,.439-1.08q0-1.31-1.872-1.311H65.365Z" transform="translate(0.285)"/><path class="b" d="M75.5,66.479h3.276a6.312,6.312,0,0,1,3.25.637,2.218,2.218,0,0,1,1.012,2.027,2.552,2.552,0,0,1-.443,1.548,1.767,1.767,0,0,1-1.177.727v0.072a2.321,2.321,0,0,1,1.444.835,2.72,2.72,0,0,1,.443,1.627A2.681,2.681,0,0,1,82.263,76.2a4.5,4.5,0,0,1-2.826.807H75.5V66.479Zm2.232,4.168h1.3a2.368,2.368,0,0,0,1.314-.281,1.047,1.047,0,0,0,.407-0.929,0.929,0.929,0,0,0-.443-0.868,2.852,2.852,0,0,0-1.4-.263H77.73v2.34Zm0,1.771v2.743h1.455a2.16,2.16,0,0,0,1.361-.353,1.3,1.3,0,0,0,.439-1.08q0-1.31-1.872-1.311H77.73Z" transform="translate(0.285)"/><rect class="p" x="99.124" y="47.514" width="49.972" height="47.514"/><path class="b" d="M113.016,66.479h3.276a6.312,6.312,0,0,1,3.25.637,2.218,2.218,0,0,1,1.012,2.027,2.552,2.552,0,0,1-.443,1.548,1.767,1.767,0,0,1-1.177.727v0.072a2.321,2.321,0,0,1,1.444.835,2.72,2.72,0,0,1,.443,1.627,2.681,2.681,0,0,1-1.041,2.246,4.5,4.5,0,0,1-2.826.807h-3.938V66.479Zm2.232,4.168h1.3a2.368,2.368,0,0,0,1.314-.281,1.047,1.047,0,0,0,.407-0.929,0.929,0.929,0,0,0-.443-0.868,2.852,2.852,0,0,0-1.4-.263h-1.174v2.34Zm0,1.771v2.743H116.7a2.16,2.16,0,0,0,1.361-.353,1.3,1.3,0,0,0,.439-1.08q0-1.31-1.872-1.311h-1.383Z" transform="translate(0.285)"/><path class="b" d="M129.852,68.186a2.275,2.275,0,0,0-1.951.947,4.406,4.406,0,0,0-.691,2.639q0,3.521,2.642,3.521a8.356,8.356,0,0,0,2.686-.555V76.61a7.463,7.463,0,0,1-2.895.54,4.414,4.414,0,0,1-3.514-1.393,5.9,5.9,0,0,1-1.217-4,6.531,6.531,0,0,1,.6-2.876,4.319,4.319,0,0,1,1.717-1.894,5.081,5.081,0,0,1,2.624-.659,7.082,7.082,0,0,1,3.082.742l-0.72,1.814a11.831,11.831,0,0,0-1.188-.49A3.546,3.546,0,0,0,129.852,68.186Z" transform="translate(0.285)"/><rect class="q" x="149.096" y="47.514" width="49.153" height="47.514"/><path class="b" d="M163.217,66.479h3.276a6.312,6.312,0,0,1,3.25.637,2.218,2.218,0,0,1,1.012,2.027,2.552,2.552,0,0,1-.443,1.548,1.767,1.767,0,0,1-1.177.727v0.072a2.321,2.321,0,0,1,1.444.835,2.72,2.72,0,0,1,.443,1.627,2.681,2.681,0,0,1-1.041,2.246,4.5,4.5,0,0,1-2.826.807h-3.938V66.479Zm2.232,4.168h1.3a2.368,2.368,0,0,0,1.314-.281,1.047,1.047,0,0,0,.407-0.929,0.929,0.929,0,0,0-.443-0.868,2.852,2.852,0,0,0-1.4-.263h-1.174v2.34Zm0,1.771v2.743H166.9a2.16,2.16,0,0,0,1.361-.353,1.3,1.3,0,0,0,.439-1.08q0-1.31-1.872-1.311h-1.383Z" transform="translate(0.285)"/><path class="b" d="M181.645,77.006h-6.062V66.479h6.063v1.829h-3.831V70.62h3.564v1.829h-3.564v2.714h3.831v1.843Z" transform="translate(0.285)"/><rect class="r" x="198.249" y="47.514" width="49.972" height="47.514"/><path class="b" d="M211.333,66.479h3.276a6.312,6.312,0,0,1,3.25.637,2.218,2.218,0,0,1,1.012,2.027,2.552,2.552,0,0,1-.443,1.548,1.767,1.767,0,0,1-1.177.727v0.072a2.321,2.321,0,0,1,1.444.835,2.72,2.72,0,0,1,.443,1.627A2.681,2.681,0,0,1,218.1,76.2a4.5,4.5,0,0,1-2.826.807h-3.938V66.479Zm2.232,4.168h1.3a2.368,2.368,0,0,0,1.314-.281,1.047,1.047,0,0,0,.407-0.929,0.929,0.929,0,0,0-.443-0.868,2.852,2.852,0,0,0-1.4-.263h-1.174v2.34Zm0,1.771v2.743h1.455a2.16,2.16,0,0,0,1.361-.353,1.3,1.3,0,0,0,.439-1.08q0-1.31-1.872-1.311h-1.383Z" transform="translate(0.285)"/><path class="b" d="M232.324,77.006H230.1V72.462H225.93v4.543H223.7V66.479h2.232V70.6H230.1V66.479h2.225V77.006Z" transform="translate(0.285)"/><rect class="s" x="248.22" y="47.514" width="49.972" height="47.514"/><path class="b" d="M261.7,66.479h3.276a6.312,6.312,0,0,1,3.25.637,2.218,2.218,0,0,1,1.012,2.027,2.552,2.552,0,0,1-.443,1.548,1.767,1.767,0,0,1-1.177.727v0.072a2.321,2.321,0,0,1,1.444.835,2.72,2.72,0,0,1,.443,1.627,2.681,2.681,0,0,1-1.041,2.246,4.5,4.5,0,0,1-2.826.807H261.7V66.479Zm2.232,4.168h1.3a2.368,2.368,0,0,0,1.314-.281,1.047,1.047,0,0,0,.407-0.929,0.929,0.929,0,0,0-.443-0.868,2.852,2.852,0,0,0-1.4-.263h-1.174v2.34Zm0,1.771v2.743h1.455a2.16,2.16,0,0,0,1.361-.353,1.3,1.3,0,0,0,.439-1.08q0-1.31-1.872-1.311h-1.383Z" transform="translate(0.285)"/><path class="b" d="M282.534,77.006H280l-2.758-4.435-0.943.677v3.758h-2.232V66.479H276.3V71.3l0.878-1.239,2.852-3.578h2.477l-3.672,4.658Z" transform="translate(0.285)"/><rect class="t" x="298.192" y="47.514" width="49.153" height="47.514"/><path class="b" d="M309.268,66.479h3.275a6.314,6.314,0,0,1,3.251.637,2.217,2.217,0,0,1,1.012,2.027,2.555,2.555,0,0,1-.442,1.548,1.771,1.771,0,0,1-1.178.727v0.072a2.32,2.32,0,0,1,1.443.835,2.714,2.714,0,0,1,.443,1.627,2.679,2.679,0,0,1-1.041,2.246,4.494,4.494,0,0,1-2.825.807h-3.938V66.479Zm2.231,4.168h1.3a2.368,2.368,0,0,0,1.314-.281,1.046,1.046,0,0,0,.406-0.929,0.93,0.93,0,0,0-.442-0.868,2.849,2.849,0,0,0-1.4-.263H311.5v2.34Zm0,1.771v2.743h1.455a2.159,2.159,0,0,0,1.36-.353,1.3,1.3,0,0,0,.439-1.08q0-1.31-1.872-1.311H311.5Z" transform="translate(0.285)"/><path class="b" d="M326.089,77.006l-2.534-8.258H323.49q0.136,2.52.137,3.362v4.9h-1.994V66.479h3.038l2.491,8.049h0.043l2.643-8.049h3.038V77.006h-2.08V72.023c0-.235,0-0.506.011-0.813s0.039-1.124.1-2.448h-0.064l-2.715,8.244h-2.045Z" transform="translate(0.285)"/><rect class="u" x="347.345" y="47.514" width="49.972" height="47.514"/><path class="b" d="M359.982,66.479h3.275a6.314,6.314,0,0,1,3.251.637,2.217,2.217,0,0,1,1.012,2.027,2.555,2.555,0,0,1-.442,1.548,1.771,1.771,0,0,1-1.178.727v0.072a2.32,2.32,0,0,1,1.443.835,2.714,2.714,0,0,1,.443,1.627,2.679,2.679,0,0,1-1.041,2.246,4.494,4.494,0,0,1-2.825.807h-3.938V66.479Zm2.231,4.168h1.3a2.368,2.368,0,0,0,1.314-.281,1.046,1.046,0,0,0,.406-0.929,0.93,0.93,0,0,0-.442-0.868,2.849,2.849,0,0,0-1.4-.263h-1.174v2.34Zm0,1.771v2.743h1.455a2.159,2.159,0,0,0,1.36-.353,1.3,1.3,0,0,0,.439-1.08q0-1.31-1.872-1.311h-1.383Z" transform="translate(0.285)"/><path class="b" d="M381.9,71.728a5.709,5.709,0,0,1-1.3,4.018,5.617,5.617,0,0,1-7.431,0,5.736,5.736,0,0,1-1.3-4.032,5.658,5.658,0,0,1,1.3-4.014,4.861,4.861,0,0,1,3.727-1.386,4.791,4.791,0,0,1,3.711,1.4A5.724,5.724,0,0,1,381.9,71.728Zm-7.682,0a4.4,4.4,0,0,0,.669,2.657,2.342,2.342,0,0,0,2,.893q2.67,0,2.671-3.55T376.9,68.171a2.358,2.358,0,0,0-2.009.9A4.379,4.379,0,0,0,374.219,71.728Z" transform="translate(0.285)"/><rect class="v" x="397.316" y="47.514" width="49.153" height="47.514"/><path class="b" d="M410.85,66.479h3.275a6.314,6.314,0,0,1,3.251.637,2.217,2.217,0,0,1,1.012,2.027,2.555,2.555,0,0,1-.442,1.548,1.771,1.771,0,0,1-1.178.727v0.072a2.32,2.32,0,0,1,1.443.835,2.714,2.714,0,0,1,.443,1.627,2.679,2.679,0,0,1-1.041,2.246,4.494,4.494,0,0,1-2.825.807H410.85V66.479Zm2.231,4.168h1.3a2.368,2.368,0,0,0,1.314-.281,1.046,1.046,0,0,0,.406-0.929,0.93,0.93,0,0,0-.442-0.868,2.849,2.849,0,0,0-1.4-.263h-1.174v2.34Zm0,1.771v2.743h1.455a2.159,2.159,0,0,0,1.36-.353,1.3,1.3,0,0,0,.439-1.08q0-1.31-1.872-1.311h-1.383Z" transform="translate(0.285)"/><path class="b" d="M430.486,69.763a3.217,3.217,0,0,1-1.062,2.6,4.542,4.542,0,0,1-3.021.9h-0.958v3.744h-2.231V66.479h3.362a4.474,4.474,0,0,1,2.912.824A3.005,3.005,0,0,1,430.486,69.763Zm-5.04,1.67h0.734a2.448,2.448,0,0,0,1.541-.407,1.425,1.425,0,0,0,.512-1.185,1.462,1.462,0,0,0-.429-1.159,2.009,2.009,0,0,0-1.343-.375h-1.016v3.125Z" transform="translate(0.285)"/><rect class="w" x="446.469" y="47.514" width="49.972" height="47.514"/><path class="b" d="M460.834,66.479h3.275a6.314,6.314,0,0,1,3.251.637,2.217,2.217,0,0,1,1.012,2.027,2.555,2.555,0,0,1-.442,1.548,1.771,1.771,0,0,1-1.178.727v0.072a2.32,2.32,0,0,1,1.443.835,2.714,2.714,0,0,1,.443,1.627A2.679,2.679,0,0,1,467.6,76.2a4.494,4.494,0,0,1-2.825.807h-3.938V66.479Zm2.231,4.168h1.3a2.368,2.368,0,0,0,1.314-.281,1.046,1.046,0,0,0,.406-0.929,0.93,0.93,0,0,0-.442-0.868,2.849,2.849,0,0,0-1.4-.263h-1.174v2.34Zm0,1.771v2.743h1.455a2.159,2.159,0,0,0,1.36-.353,1.3,1.3,0,0,0,.439-1.08q0-1.31-1.872-1.311h-1.383Z" transform="translate(0.285)"/><path class="b" d="M477.26,77.006h-2.232V68.337h-2.858V66.479h7.949v1.857H477.26v8.669Z" transform="translate(0.285)"/><rect class="x" x="496.441" y="47.514" width="49.153" height="47.514"/><path class="b" d="M509.808,66.479h3.275a6.314,6.314,0,0,1,3.251.637,2.217,2.217,0,0,1,1.012,2.027,2.555,2.555,0,0,1-.442,1.548,1.771,1.771,0,0,1-1.178.727v0.072a2.32,2.32,0,0,1,1.443.835,2.714,2.714,0,0,1,.443,1.627,2.679,2.679,0,0,1-1.041,2.246,4.494,4.494,0,0,1-2.825.807h-3.938V66.479Zm2.231,4.168h1.3a2.368,2.368,0,0,0,1.314-.281,1.046,1.046,0,0,0,.406-0.929,0.93,0.93,0,0,0-.442-0.868,2.849,2.849,0,0,0-1.4-.263h-1.174v2.34Zm0,1.771v2.743h1.455a2.159,2.159,0,0,0,1.36-.353,1.3,1.3,0,0,0,.439-1.08q0-1.31-1.872-1.311h-1.383Z" transform="translate(0.285)"/><path class="b" d="M530.683,77.006h-2.549l-2.447-3.981-2.448,3.981h-2.391l3.492-5.429-3.269-5.1h2.462l2.269,3.787,2.225-3.787h2.4l-3.3,5.22Z" transform="translate(0.285)"/><rect class="y" x="545.593" y="47.514" width="49.972" height="47.514"/><path class="b" d="M559.753,66.479h3.275a6.314,6.314,0,0,1,3.251.637,2.217,2.217,0,0,1,1.012,2.027,2.555,2.555,0,0,1-.442,1.548,1.771,1.771,0,0,1-1.178.727v0.072a2.32,2.32,0,0,1,1.443.835,2.714,2.714,0,0,1,.443,1.627,2.679,2.679,0,0,1-1.041,2.246,4.494,4.494,0,0,1-2.825.807h-3.938V66.479Zm2.231,4.168h1.3a2.368,2.368,0,0,0,1.314-.281A1.046,1.046,0,0,0,565,69.438a0.93,0.93,0,0,0-.442-0.868,2.849,2.849,0,0,0-1.4-.263h-1.174v2.34Zm0,1.771v2.743h1.455a2.159,2.159,0,0,0,1.36-.353,1.3,1.3,0,0,0,.439-1.08q0-1.31-1.872-1.311h-1.383Z" transform="translate(0.285)"/><path class="b" d="M575.394,70.814l2.2-4.334H580l-3.492,6.43v4.1h-2.218V72.981l-3.492-6.5h2.419Z" transform="translate(0.285)"/><rect class="z" y="95.028" width="49.972" height="47.514"/><path class="b" d="M18.106,115.7a2.275,2.275,0,0,0-1.951.947,4.406,4.406,0,0,0-.691,2.639q0,3.521,2.642,3.521a8.356,8.356,0,0,0,2.686-.555v1.872a7.463,7.463,0,0,1-2.895.54,4.414,4.414,0,0,1-3.514-1.393,5.9,5.9,0,0,1-1.217-4,6.531,6.531,0,0,1,.6-2.876,4.319,4.319,0,0,1,1.717-1.894,5.081,5.081,0,0,1,2.624-.659,7.082,7.082,0,0,1,3.082.742l-0.72,1.814a11.831,11.831,0,0,0-1.188-.49A3.546,3.546,0,0,0,18.106,115.7Z" transform="translate(0.285)"/><path class="b" d="M31.933,124.52l-0.763-2.506H27.332l-0.763,2.506h-2.4l3.715-10.57h2.729l3.73,10.57h-2.4Zm-1.3-4.377q-1.058-3.406-1.191-3.852t-0.191-.706q-0.237.921-1.361,4.558h2.743Z" transform="translate(0.285)"/><rect class="aa" x="49.972" y="95.028" width="49.153" height="47.514"/><path class="b" d="M67.86,115.7a2.275,2.275,0,0,0-1.951.947,4.406,4.406,0,0,0-.691,2.639q0,3.521,2.642,3.521a8.356,8.356,0,0,0,2.686-.555v1.872a7.463,7.463,0,0,1-2.895.54,4.414,4.414,0,0,1-3.514-1.393,5.9,5.9,0,0,1-1.217-4,6.531,6.531,0,0,1,.6-2.876,4.319,4.319,0,0,1,1.717-1.894,5.081,5.081,0,0,1,2.624-.659,7.082,7.082,0,0,1,3.082.742l-0.72,1.814a11.831,11.831,0,0,0-1.188-.49A3.546,3.546,0,0,0,67.86,115.7Z" transform="translate(0.285)"/><path class="b" d="M75.243,113.993H78.52a6.312,6.312,0,0,1,3.25.637,2.218,2.218,0,0,1,1.012,2.027,2.552,2.552,0,0,1-.443,1.548,1.767,1.767,0,0,1-1.177.727V119a2.321,2.321,0,0,1,1.444.835,2.72,2.72,0,0,1,.443,1.627,2.681,2.681,0,0,1-1.041,2.246,4.5,4.5,0,0,1-2.826.807H75.243V113.993Zm2.232,4.168h1.3a2.368,2.368,0,0,0,1.314-.281,1.047,1.047,0,0,0,.407-0.929,0.929,0.929,0,0,0-.443-0.868,2.852,2.852,0,0,0-1.4-.263H77.475v2.34Zm0,1.771v2.743H78.93a2.16,2.16,0,0,0,1.361-.353,1.3,1.3,0,0,0,.439-1.08q0-1.31-1.872-1.311H77.475Z" transform="translate(0.285)"/><rect class="ab" x="99.124" y="95.028" width="49.972" height="47.514"/><path class="b" d="M117.742,115.7a2.275,2.275,0,0,0-1.951.947,4.406,4.406,0,0,0-.691,2.639q0,3.521,2.642,3.521a8.356,8.356,0,0,0,2.686-.555v1.872a7.463,7.463,0,0,1-2.895.54,4.414,4.414,0,0,1-3.514-1.393,5.9,5.9,0,0,1-1.217-4,6.531,6.531,0,0,1,.6-2.876,4.319,4.319,0,0,1,1.717-1.894,5.081,5.081,0,0,1,2.624-.659,7.082,7.082,0,0,1,3.082.742L120.1,116.4a11.831,11.831,0,0,0-1.188-.49A3.546,3.546,0,0,0,117.742,115.7Z" transform="translate(0.285)"/><path class="b" d="M129.6,115.7a2.275,2.275,0,0,0-1.951.947,4.406,4.406,0,0,0-.691,2.639q0,3.521,2.642,3.521a8.356,8.356,0,0,0,2.686-.555v1.872a7.463,7.463,0,0,1-2.895.54,4.414,4.414,0,0,1-3.514-1.393,5.9,5.9,0,0,1-1.217-4,6.531,6.531,0,0,1,.6-2.876,4.319,4.319,0,0,1,1.717-1.894,5.081,5.081,0,0,1,2.624-.659,7.082,7.082,0,0,1,3.082.742l-0.72,1.814a11.831,11.831,0,0,0-1.188-.49A3.546,3.546,0,0,0,129.6,115.7Z" transform="translate(0.285)"/><rect class="ac" x="149.096" y="95.028" width="49.153" height="47.514"/><path class="b" d="M167.945,115.7a2.275,2.275,0,0,0-1.951.947,4.406,4.406,0,0,0-.691,2.639q0,3.521,2.642,3.521a8.356,8.356,0,0,0,2.686-.555v1.872a7.463,7.463,0,0,1-2.895.54,4.414,4.414,0,0,1-3.514-1.393,5.9,5.9,0,0,1-1.217-4,6.531,6.531,0,0,1,.6-2.876,4.319,4.319,0,0,1,1.717-1.894,5.081,5.081,0,0,1,2.624-.659,7.082,7.082,0,0,1,3.082.742l-0.72,1.814a11.831,11.831,0,0,0-1.188-.49A3.546,3.546,0,0,0,167.945,115.7Z" transform="translate(0.285)"/><path class="b" d="M181.39,124.52h-6.062V113.993h6.063v1.829H177.56v2.312h3.564v1.829H177.56v2.714h3.831v1.843Z" transform="translate(0.285)"/><rect class="ad" x="198.249" y="95.028" width="49.972" height="47.514"/><path class="b" d="M216.061,115.7a2.275,2.275,0,0,0-1.951.947,4.406,4.406,0,0,0-.691,2.639q0,3.521,2.642,3.521a8.356,8.356,0,0,0,2.686-.555v1.872a7.463,7.463,0,0,1-2.895.54,4.414,4.414,0,0,1-3.514-1.393,5.9,5.9,0,0,1-1.217-4,6.531,6.531,0,0,1,.6-2.876,4.319,4.319,0,0,1,1.717-1.894,5.081,5.081,0,0,1,2.624-.659,7.082,7.082,0,0,1,3.082.742l-0.72,1.814a11.831,11.831,0,0,0-1.188-.49A3.546,3.546,0,0,0,216.061,115.7Z" transform="translate(0.285)"/><path class="b" d="M232.069,124.52h-2.225v-4.543h-4.169v4.543h-2.232V113.993h2.232v4.125h4.169v-4.125h2.225V124.52Z" transform="translate(0.285)"/><rect class="ae" x="248.22" y="95.028" width="49.972" height="47.514"/><path class="b" d="M266.429,115.7a2.275,2.275,0,0,0-1.951.947,4.406,4.406,0,0,0-.691,2.639q0,3.521,2.642,3.521a8.356,8.356,0,0,0,2.686-.555v1.872a7.463,7.463,0,0,1-2.895.54,4.414,4.414,0,0,1-3.514-1.393,5.9,5.9,0,0,1-1.217-4,6.531,6.531,0,0,1,.6-2.876A4.319,4.319,0,0,1,263.8,114.5a5.081,5.081,0,0,1,2.624-.659,7.082,7.082,0,0,1,3.082.742l-0.72,1.814a11.831,11.831,0,0,0-1.188-.49A3.546,3.546,0,0,0,266.429,115.7Z" transform="translate(0.285)"/><path class="b" d="M282.279,124.52h-2.534l-2.758-4.435-0.943.677v3.758h-2.232V113.993h2.232v4.817l0.878-1.239,2.852-3.578h2.477l-3.672,4.658Z" transform="translate(0.285)"/><rect class="af" x="298.192" y="95.028" width="49.153" height="47.514"/><path class="b" d="M313.994,115.7a2.275,2.275,0,0,0-1.951.947,4.4,4.4,0,0,0-.691,2.639q0,3.521,2.643,3.521a8.351,8.351,0,0,0,2.686-.555v1.872a7.456,7.456,0,0,1-2.895.54,4.415,4.415,0,0,1-3.514-1.393,5.9,5.9,0,0,1-1.217-4,6.531,6.531,0,0,1,.6-2.876,4.32,4.32,0,0,1,1.718-1.894,5.081,5.081,0,0,1,2.624-.659,7.082,7.082,0,0,1,3.082.742l-0.721,1.814a11.823,11.823,0,0,0-1.187-.49A3.548,3.548,0,0,0,313.994,115.7Z" transform="translate(0.285)"/><path class="b" d="M325.833,124.52l-2.534-8.258h-0.064q0.136,2.52.137,3.362v4.9h-1.994V113.993h3.038l2.491,8.049h0.043l2.643-8.049h3.038V124.52h-2.08v-4.982c0-.235,0-0.506.011-0.813s0.039-1.124.1-2.448h-0.064l-2.715,8.244h-2.045Z" transform="translate(0.285)"/><rect class="ag" x="347.345" y="95.028" width="49.972" height="47.514"/><path class="b" d="M364.708,115.7a2.275,2.275,0,0,0-1.951.947,4.4,4.4,0,0,0-.691,2.639q0,3.521,2.643,3.521a8.351,8.351,0,0,0,2.686-.555v1.872a7.456,7.456,0,0,1-2.895.54,4.415,4.415,0,0,1-3.514-1.393,5.9,5.9,0,0,1-1.217-4,6.531,6.531,0,0,1,.6-2.876,4.32,4.32,0,0,1,1.718-1.894,5.081,5.081,0,0,1,2.624-.659,7.082,7.082,0,0,1,3.082.742l-0.721,1.814a11.823,11.823,0,0,0-1.187-.49A3.548,3.548,0,0,0,364.708,115.7Z" transform="translate(0.285)"/><path class="b" d="M381.645,119.242a5.709,5.709,0,0,1-1.3,4.018,5.617,5.617,0,0,1-7.431,0,5.736,5.736,0,0,1-1.3-4.032,5.658,5.658,0,0,1,1.3-4.014,4.861,4.861,0,0,1,3.727-1.386,4.791,4.791,0,0,1,3.711,1.4A5.724,5.724,0,0,1,381.645,119.242Zm-7.682,0a4.4,4.4,0,0,0,.669,2.657,2.342,2.342,0,0,0,2,.893q2.67,0,2.671-3.55t-2.656-3.557a2.358,2.358,0,0,0-2.009.9A4.379,4.379,0,0,0,373.963,119.242Z" transform="translate(0.285)"/><rect class="ah" x="397.316" y="95.028" width="49.153" height="47.514"/><path class="b" d="M415.576,115.7a2.275,2.275,0,0,0-1.951.947,4.4,4.4,0,0,0-.691,2.639q0,3.521,2.643,3.521a8.351,8.351,0,0,0,2.686-.555v1.872a7.456,7.456,0,0,1-2.895.54,4.415,4.415,0,0,1-3.514-1.393,5.9,5.9,0,0,1-1.217-4,6.531,6.531,0,0,1,.6-2.876,4.32,4.32,0,0,1,1.718-1.894,5.081,5.081,0,0,1,2.624-.659,7.082,7.082,0,0,1,3.082.742l-0.721,1.814a11.823,11.823,0,0,0-1.187-.49A3.548,3.548,0,0,0,415.576,115.7Z" transform="translate(0.285)"/><path class="b" d="M430.231,117.276a3.217,3.217,0,0,1-1.062,2.6,4.542,4.542,0,0,1-3.021.9h-0.958v3.744H422.96V113.993h3.362a4.474,4.474,0,0,1,2.912.824A3.005,3.005,0,0,1,430.231,117.276Zm-5.04,1.67h0.734a2.448,2.448,0,0,0,1.541-.407,1.425,1.425,0,0,0,.512-1.185,1.462,1.462,0,0,0-.429-1.159,2.009,2.009,0,0,0-1.343-.375h-1.016v3.125Z" transform="translate(0.285)"/><rect class="ai" x="446.469" y="95.028" width="49.972" height="47.514"/><path class="b" d="M465.561,115.7a2.275,2.275,0,0,0-1.951.947,4.4,4.4,0,0,0-.691,2.639q0,3.521,2.643,3.521a8.351,8.351,0,0,0,2.686-.555v1.872a7.456,7.456,0,0,1-2.895.54,4.415,4.415,0,0,1-3.514-1.393,5.9,5.9,0,0,1-1.217-4,6.531,6.531,0,0,1,.6-2.876,4.32,4.32,0,0,1,1.718-1.894,5.081,5.081,0,0,1,2.624-.659,7.082,7.082,0,0,1,3.082.742l-0.721,1.814a11.823,11.823,0,0,0-1.187-.49A3.548,3.548,0,0,0,465.561,115.7Z" transform="translate(0.285)"/><path class="b" d="M477,124.52h-2.232v-8.669h-2.858v-1.857h7.949v1.857H477v8.669Z" transform="translate(0.285)"/><rect class="aj" x="496.441" y="95.028" width="49.153" height="47.514"/><path class="b" d="M514.534,115.7a2.275,2.275,0,0,0-1.951.947,4.4,4.4,0,0,0-.691,2.639q0,3.521,2.643,3.521a8.351,8.351,0,0,0,2.686-.555v1.872a7.456,7.456,0,0,1-2.895.54,4.415,4.415,0,0,1-3.514-1.393,5.9,5.9,0,0,1-1.217-4,6.531,6.531,0,0,1,.6-2.876,4.32,4.32,0,0,1,1.718-1.894,5.081,5.081,0,0,1,2.624-.659,7.082,7.082,0,0,1,3.082.742L516.9,116.4a11.823,11.823,0,0,0-1.187-.49A3.548,3.548,0,0,0,514.534,115.7Z" transform="translate(0.285)"/><path class="b" d="M530.427,124.52h-2.549l-2.447-3.981-2.448,3.981h-2.391l3.492-5.429-3.269-5.1h2.462l2.269,3.787,2.225-3.787h2.4l-3.3,5.22Z" transform="translate(0.285)"/><rect class="ak" x="545.593" y="95.028" width="49.972" height="47.514"/><path class="b" d="M564.479,115.7a2.275,2.275,0,0,0-1.951.947,4.4,4.4,0,0,0-.691,2.639q0,3.521,2.643,3.521a8.351,8.351,0,0,0,2.686-.555v1.872a7.456,7.456,0,0,1-2.895.54,4.415,4.415,0,0,1-3.514-1.393,5.9,5.9,0,0,1-1.217-4,6.531,6.531,0,0,1,.6-2.876,4.32,4.32,0,0,1,1.718-1.894,5.081,5.081,0,0,1,2.624-.659,7.082,7.082,0,0,1,3.082.742l-0.721,1.814a11.823,11.823,0,0,0-1.187-.49A3.548,3.548,0,0,0,564.479,115.7Z" transform="translate(0.285)"/><path class="b" d="M575.139,118.328l2.2-4.334h2.405l-3.492,6.43v4.1H574.03v-4.025l-3.492-6.5h2.419Z" transform="translate(0.285)"/><rect class="al" y="142.542" width="49.972" height="47.514"/><path class="b" d="M20.261,172.034H14.2V161.508h6.062v1.829H16.43v2.312h3.564v1.829H16.43v2.714h3.831v1.843Z" transform="translate(0.285)"/><path class="b" d="M31.358,172.034L30.6,169.528H26.757l-0.763,2.506h-2.4l3.715-10.57h2.729l3.73,10.57h-2.4Zm-1.3-4.377Q29,164.251,28.871,163.8T28.68,163.1q-0.237.921-1.361,4.558h2.743Z" transform="translate(0.285)"/><rect class="am" x="49.972" y="142.542" width="49.153" height="47.514"/><path class="b" d="M70.028,172.034H63.965V161.508h6.063v1.829H66.2v2.312h3.564v1.829H66.2v2.714h3.831v1.843Z" transform="translate(0.285)"/><path class="b" d="M74.682,161.508h3.276a6.312,6.312,0,0,1,3.25.637,2.218,2.218,0,0,1,1.012,2.027,2.552,2.552,0,0,1-.443,1.548,1.767,1.767,0,0,1-1.177.727v0.072a2.321,2.321,0,0,1,1.444.835,2.72,2.72,0,0,1,.443,1.627,2.681,2.681,0,0,1-1.041,2.246,4.5,4.5,0,0,1-2.826.807H74.682V161.508Zm2.232,4.168h1.3a2.368,2.368,0,0,0,1.314-.281,1.047,1.047,0,0,0,.407-0.929,0.929,0.929,0,0,0-.443-0.868,2.852,2.852,0,0,0-1.4-.263H76.914v2.34Zm0,1.771v2.743h1.455a2.16,2.16,0,0,0,1.361-.353,1.3,1.3,0,0,0,.439-1.08q0-1.31-1.872-1.311H76.914Z" transform="translate(0.285)"/><rect class="an" x="99.124" y="142.542" width="49.972" height="47.514"/><path class="b" d="M119.91,172.034h-6.062V161.508h6.063v1.829h-3.831v2.312h3.564v1.829h-3.564v2.714h3.831v1.843Z" transform="translate(0.285)"/><path class="b" d="M129.035,163.214a2.275,2.275,0,0,0-1.951.947,4.406,4.406,0,0,0-.691,2.639q0,3.521,2.642,3.521a8.356,8.356,0,0,0,2.686-.555v1.872a7.463,7.463,0,0,1-2.895.54,4.414,4.414,0,0,1-3.514-1.393,5.9,5.9,0,0,1-1.217-4,6.531,6.531,0,0,1,.6-2.876,4.319,4.319,0,0,1,1.717-1.894,5.081,5.081,0,0,1,2.624-.659,7.082,7.082,0,0,1,3.082.742l-0.72,1.814a11.831,11.831,0,0,0-1.188-.49A3.546,3.546,0,0,0,129.035,163.214Z" transform="translate(0.285)"/><rect class="ao" x="149.096" y="142.542" width="49.153" height="47.514"/><path class="b" d="M170.1,172.034h-6.062V161.508H170.1v1.829h-3.831v2.312h3.564v1.829h-3.564v2.714H170.1v1.843Z" transform="translate(0.285)"/><path class="b" d="M180.816,172.034h-6.062V161.508h6.063v1.829h-3.831v2.312h3.564v1.829h-3.564v2.714h3.831v1.843Z" transform="translate(0.285)"/><rect class="ap" x="198.249" y="142.542" width="49.972" height="47.514"/><path class="b" d="M218.215,172.034h-6.062V161.508h6.063v1.829h-3.831v2.312h3.564v1.829h-3.564v2.714h3.831v1.843Z" transform="translate(0.285)"/><path class="b" d="M231.495,172.034H229.27v-4.543H225.1v4.543h-2.232V161.508H225.1v4.125h4.169v-4.125h2.225v10.526Z" transform="translate(0.285)"/><rect class="aq" x="248.22" y="142.542" width="49.972" height="47.514"/><path class="b" d="M268.583,172.034h-6.062V161.508h6.063v1.829h-3.831v2.312h3.564v1.829h-3.564v2.714h3.831v1.843Z" transform="translate(0.285)"/><path class="b" d="M281.7,172.034H279.17l-2.758-4.435-0.943.677v3.758h-2.232V161.508h2.232v4.817l0.878-1.239,2.852-3.578h2.477L278,166.166Z" transform="translate(0.285)"/><rect class="ar" x="298.192" y="142.542" width="49.153" height="47.514"/><path class="b" d="M316.162,172.034H310.1V161.508h6.063v1.829h-3.831v2.312H315.9v1.829h-3.564v2.714h3.831v1.843Z" transform="translate(0.285)"/><path class="b" d="M325.271,172.034l-2.534-8.258h-0.064q0.136,2.52.137,3.362v4.9h-1.994V161.508h3.038l2.491,8.049h0.043l2.643-8.049h3.038v10.526h-2.08v-4.982c0-.235,0-0.506.011-0.813s0.039-1.124.1-2.448h-0.064l-2.715,8.244h-2.045Z" transform="translate(0.285)"/><rect class="as" x="347.345" y="142.542" width="49.972" height="47.514"/><path class="b" d="M366.863,172.034H360.8V161.508h6.063v1.829h-3.831v2.312H366.6v1.829h-3.564v2.714h3.831v1.843Z" transform="translate(0.285)"/><path class="b" d="M381.07,166.756a5.709,5.709,0,0,1-1.3,4.018,5.617,5.617,0,0,1-7.431,0,5.736,5.736,0,0,1-1.3-4.032,5.658,5.658,0,0,1,1.3-4.014,4.861,4.861,0,0,1,3.727-1.386,4.791,4.791,0,0,1,3.711,1.4A5.724,5.724,0,0,1,381.07,166.756Zm-7.682,0a4.4,4.4,0,0,0,.669,2.657,2.342,2.342,0,0,0,2,.893q2.67,0,2.671-3.55t-2.656-3.557a2.358,2.358,0,0,0-2.009.9A4.379,4.379,0,0,0,373.389,166.756Z" transform="translate(0.285)"/><rect class="at" x="397.316" y="142.542" width="49.153" height="47.514"/><path class="b" d="M417.731,172.034h-6.062V161.508h6.063v1.829H413.9v2.312h3.564v1.829H413.9v2.714h3.831v1.843Z" transform="translate(0.285)"/><path class="b" d="M429.656,164.791a3.217,3.217,0,0,1-1.062,2.6,4.542,4.542,0,0,1-3.021.9h-0.958v3.744h-2.231V161.508h3.362a4.474,4.474,0,0,1,2.912.824A3.005,3.005,0,0,1,429.656,164.791Zm-5.04,1.67h0.734a2.448,2.448,0,0,0,1.541-.407,1.425,1.425,0,0,0,.512-1.185,1.462,1.462,0,0,0-.429-1.159,2.009,2.009,0,0,0-1.343-.375h-1.016v3.125Z" transform="translate(0.285)"/><rect class="au" x="446.469" y="142.542" width="49.972" height="47.514"/><path class="b" d="M467.716,172.034h-6.062V161.508h6.063v1.829h-3.831v2.312h3.564v1.829h-3.564v2.714h3.831v1.843Z" transform="translate(0.285)"/><path class="b" d="M476.431,172.034H474.2v-8.669H471.34v-1.857h7.949v1.857h-2.858v8.669Z" transform="translate(0.285)"/><rect class="av" x="496.441" y="142.542" width="49.153" height="47.514"/><path class="b" d="M516.7,172.034h-6.062V161.508H516.7v1.829H512.87v2.312h3.564v1.829H512.87v2.714H516.7v1.843Z" transform="translate(0.285)"/><path class="b" d="M529.865,172.034h-2.549l-2.447-3.981-2.448,3.981H520.03l3.492-5.429-3.269-5.1h2.462l2.269,3.787,2.225-3.787h2.4l-3.3,5.22Z" transform="translate(0.285)"/><rect class="aw" x="545.593" y="142.542" width="49.972" height="47.514"/><path class="b" d="M566.635,172.034h-6.062V161.508h6.063v1.829H562.8v2.312h3.564v1.829H562.8v2.714h3.831v1.843Z" transform="translate(0.285)"/><path class="b" d="M574.564,165.842l2.2-4.334h2.405l-3.492,6.43v4.1h-2.218v-4.025l-3.492-6.5h2.419Z" transform="translate(0.285)"/><rect class="ax" y="190.057" width="49.972" height="47.514"/><path class="b" d="M21.314,219.548H19.089V215H14.92v4.543H12.688V209.022H14.92v4.125h4.169v-4.125h2.225v10.526Z" transform="translate(0.285)"/><path class="b" d="M32.873,219.548l-0.763-2.506H28.271l-0.763,2.506H25.1l3.715-10.57h2.729l3.73,10.57h-2.4Zm-1.3-4.377q-1.058-3.406-1.191-3.852t-0.191-.706q-0.237.921-1.361,4.558h2.743Z" transform="translate(0.285)"/><rect class="ay" x="49.972" y="190.057" width="49.153" height="47.514"/><path class="b" d="M71.081,219.548H68.855V215H64.687v4.543H62.455V209.022h2.232v4.125h4.169v-4.125h2.225v10.526Z" transform="translate(0.285)"/><path class="b" d="M76.2,209.022h3.276a6.312,6.312,0,0,1,3.25.637,2.218,2.218,0,0,1,1.012,2.027,2.552,2.552,0,0,1-.443,1.548,1.767,1.767,0,0,1-1.177.727v0.072a2.321,2.321,0,0,1,1.444.835A2.72,2.72,0,0,1,84,216.5a2.681,2.681,0,0,1-1.041,2.246,4.5,4.5,0,0,1-2.826.807H76.2V209.022Zm2.232,4.168h1.3a2.368,2.368,0,0,0,1.314-.281,1.047,1.047,0,0,0,.407-0.929A0.929,0.929,0,0,0,81,211.113a2.852,2.852,0,0,0-1.4-.263H78.427v2.34Zm0,1.771v2.743h1.455a2.16,2.16,0,0,0,1.361-.353,1.3,1.3,0,0,0,.439-1.08q0-1.31-1.872-1.311H78.427Z" transform="translate(0.285)"/><rect class="az" x="99.124" y="190.057" width="49.972" height="47.514"/><path class="b" d="M120.962,219.548h-2.225V215h-4.169v4.543h-2.232V209.022h2.232v4.125h4.169v-4.125h2.225v10.526Z" transform="translate(0.285)"/><path class="b" d="M130.549,210.728a2.275,2.275,0,0,0-1.951.947,4.406,4.406,0,0,0-.691,2.639q0,3.521,2.642,3.521a8.356,8.356,0,0,0,2.686-.555v1.872a7.463,7.463,0,0,1-2.895.54,4.414,4.414,0,0,1-3.514-1.393,5.9,5.9,0,0,1-1.217-4,6.531,6.531,0,0,1,.6-2.876,4.319,4.319,0,0,1,1.717-1.894,5.081,5.081,0,0,1,2.624-.659,7.082,7.082,0,0,1,3.082.742l-0.72,1.814a11.831,11.831,0,0,0-1.188-.49A3.546,3.546,0,0,0,130.549,210.728Z" transform="translate(0.285)"/><rect class="ba" x="149.096" y="190.057" width="49.153" height="47.514"/><path class="b" d="M171.152,219.548h-2.225V215h-4.169v4.543h-2.232V209.022h2.232v4.125h4.169v-4.125h2.225v10.526Z" transform="translate(0.285)"/><path class="b" d="M182.33,219.548h-6.062V209.022h6.063v1.829H178.5v2.312h3.564v1.829H178.5v2.714h3.831v1.843Z" transform="translate(0.285)"/><rect class="bb" x="198.249" y="190.057" width="49.972" height="47.514"/><path class="b" d="M219.268,219.548h-2.225V215h-4.169v4.543h-2.232V209.022h2.232v4.125h4.169v-4.125h2.225v10.526Z" transform="translate(0.285)"/><path class="b" d="M233.008,219.548h-2.225V215h-4.169v4.543h-2.232V209.022h2.232v4.125h4.169v-4.125h2.225v10.526Z" transform="translate(0.285)"/><rect class="bc" x="248.22" y="190.057" width="49.972" height="47.514"/><path class="b" d="M269.637,219.548h-2.225V215h-4.169v4.543h-2.232V209.022h2.232v4.125h4.169v-4.125h2.225v10.526Z" transform="translate(0.285)"/><path class="b" d="M283.218,219.548h-2.534l-2.758-4.435-0.943.677v3.758H274.75V209.022h2.232v4.817l0.878-1.239,2.852-3.578h2.477l-3.672,4.658Z" transform="translate(0.285)"/><rect class="bd" x="298.192" y="190.057" width="49.153" height="47.514"/><path class="b" d="M317.214,219.548h-2.225V215H310.82v4.543h-2.231V209.022h2.231v4.125h4.169v-4.125h2.225v10.526Z" transform="translate(0.285)"/><path class="b" d="M326.785,219.548l-2.534-8.258h-0.064q0.136,2.52.137,3.362v4.9h-1.994V209.022h3.038l2.491,8.049H327.9l2.643-8.049h3.038v10.526H331.5v-4.982c0-.235,0-0.506.011-0.813s0.039-1.124.1-2.448h-0.064l-2.715,8.244h-2.045Z" transform="translate(0.285)"/><rect class="be" x="347.345" y="190.057" width="49.972" height="47.514"/><path class="b" d="M367.916,219.548h-2.225V215h-4.169v4.543h-2.231V209.022h2.231v4.125h4.169v-4.125h2.225v10.526Z" transform="translate(0.285)"/><path class="b" d="M382.585,214.271a5.709,5.709,0,0,1-1.3,4.018,5.617,5.617,0,0,1-7.431,0,5.736,5.736,0,0,1-1.3-4.032,5.658,5.658,0,0,1,1.3-4.014,4.861,4.861,0,0,1,3.727-1.386,4.791,4.791,0,0,1,3.711,1.4A5.724,5.724,0,0,1,382.585,214.271Zm-7.682,0a4.4,4.4,0,0,0,.669,2.657,2.342,2.342,0,0,0,2,.893q2.67,0,2.671-3.55t-2.656-3.557a2.358,2.358,0,0,0-2.009.9A4.379,4.379,0,0,0,374.9,214.271Z" transform="translate(0.285)"/><rect class="bf" x="397.316" y="190.057" width="49.153" height="47.514"/><path class="b" d="M418.783,219.548h-2.225V215H412.39v4.543h-2.231V209.022h2.231v4.125h4.169v-4.125h2.225v10.526Z" transform="translate(0.285)"/><path class="b" d="M431.17,212.305a3.217,3.217,0,0,1-1.062,2.6,4.542,4.542,0,0,1-3.021.9H426.13v3.744H423.9V209.022h3.362a4.474,4.474,0,0,1,2.912.824A3.005,3.005,0,0,1,431.17,212.305Zm-5.04,1.67h0.734a2.448,2.448,0,0,0,1.541-.407,1.425,1.425,0,0,0,.512-1.185,1.462,1.462,0,0,0-.429-1.159,2.009,2.009,0,0,0-1.343-.375H426.13v3.125Z" transform="translate(0.285)"/><rect class="bg" x="446.469" y="190.057" width="49.972" height="47.514"/><path class="b" d="M468.768,219.548h-2.225V215h-4.169v4.543h-2.231V209.022h2.231v4.125h4.169v-4.125h2.225v10.526Z" transform="translate(0.285)"/><path class="b" d="M477.944,219.548h-2.232v-8.669h-2.858v-1.857H480.8v1.857h-2.858v8.669Z" transform="translate(0.285)"/><rect class="bh" x="496.441" y="190.057" width="49.153" height="47.514"/><path class="b" d="M517.754,219.548h-2.225V215H511.36v4.543h-2.231V209.022h2.231v4.125h4.169v-4.125h2.225v10.526Z" transform="translate(0.285)"/><path class="b" d="M531.379,219.548H528.83l-2.447-3.981-2.448,3.981h-2.391l3.492-5.429-3.269-5.1h2.462l2.269,3.787,2.225-3.787h2.4l-3.3,5.22Z" transform="translate(0.285)"/><rect class="bi" x="545.593" y="190.057" width="49.972" height="47.514"/><path class="b" d="M567.688,219.548h-2.225V215h-4.169v4.543h-2.231V209.022h2.231v4.125h4.169v-4.125h2.225v10.526Z" transform="translate(0.285)"/><path class="b" d="M576.078,213.356l2.2-4.334h2.405l-3.492,6.43v4.1H574.97v-4.025l-3.492-6.5H573.9Z" transform="translate(0.285)"/><rect class="bj" y="237.571" width="49.972" height="47.514"/><path class="b" d="M21.911,267.062H19.376l-2.758-4.435-0.943.677v3.758H13.443V256.536h2.232v4.817l0.878-1.239,2.852-3.578h2.477l-3.672,4.658Z" transform="translate(0.285)"/><path class="b" d="M32.137,267.062l-0.763-2.506H27.536l-0.763,2.506h-2.4l3.715-10.57h2.729l3.73,10.57h-2.4Zm-1.3-4.377q-1.058-3.406-1.191-3.852t-0.191-.706q-0.237.921-1.361,4.558h2.743Z" transform="translate(0.285)"/><rect class="bk" x="49.972" y="237.571" width="49.153" height="47.514"/><path class="b" d="M71.665,267.062H69.13l-2.758-4.435-0.943.677v3.758H63.2V256.536h2.232v4.817l0.878-1.239,2.852-3.578h2.477l-3.672,4.658Z" transform="translate(0.285)"/><path class="b" d="M75.447,256.536h3.276a6.312,6.312,0,0,1,3.25.637,2.218,2.218,0,0,1,1.012,2.027,2.552,2.552,0,0,1-.443,1.548,1.767,1.767,0,0,1-1.177.727v0.072a2.321,2.321,0,0,1,1.444.835,2.72,2.72,0,0,1,.443,1.627,2.681,2.681,0,0,1-1.041,2.246,4.5,4.5,0,0,1-2.826.807H75.447V256.536Zm2.232,4.168h1.3a2.368,2.368,0,0,0,1.314-.281,1.047,1.047,0,0,0,.407-0.929,0.929,0.929,0,0,0-.443-0.868,2.852,2.852,0,0,0-1.4-.263H77.679v2.34Zm0,1.771v2.743h1.455a2.16,2.16,0,0,0,1.361-.353,1.3,1.3,0,0,0,.439-1.08q0-1.31-1.872-1.311H77.679Z" transform="translate(0.285)"/><rect class="bl" x="99.124" y="237.571" width="49.972" height="47.514"/><path class="b" d="M121.547,267.062h-2.534l-2.758-4.435-0.943.677v3.758H113.08V256.536h2.232v4.817l0.878-1.239,2.852-3.578h2.477l-3.672,4.658Z" transform="translate(0.285)"/><path class="b" d="M129.8,258.242a2.275,2.275,0,0,0-1.951.947,4.406,4.406,0,0,0-.691,2.639q0,3.521,2.642,3.521a8.356,8.356,0,0,0,2.686-.555v1.872a7.463,7.463,0,0,1-2.895.54,4.414,4.414,0,0,1-3.514-1.393,5.9,5.9,0,0,1-1.217-4,6.531,6.531,0,0,1,.6-2.876,4.319,4.319,0,0,1,1.717-1.894,5.081,5.081,0,0,1,2.624-.659,7.082,7.082,0,0,1,3.082.742l-0.72,1.814a11.831,11.831,0,0,0-1.188-.49A3.546,3.546,0,0,0,129.8,258.242Z" transform="translate(0.285)"/><rect class="bm" x="149.096" y="237.571" width="49.153" height="47.514"/><path class="b" d="M171.736,267.062H169.2l-2.758-4.435-0.943.677v3.758h-2.232V256.536H165.5v4.817l0.878-1.239,2.852-3.578h2.477l-3.672,4.658Z" transform="translate(0.285)"/><path class="b" d="M181.581,267.062h-6.062V256.536h6.063v1.829H177.75v2.312h3.564V262.5H177.75v2.714h3.831v1.843Z" transform="translate(0.285)"/><rect class="bn" x="198.249" y="237.571" width="49.972" height="47.514"/><path class="b" d="M219.852,267.062h-2.534l-2.758-4.435-0.943.677v3.758h-2.232V256.536h2.232v4.817l0.878-1.239,2.852-3.578h2.477l-3.672,4.658Z" transform="translate(0.285)"/><path class="b" d="M232.26,267.062h-2.225v-4.543h-4.169v4.543h-2.232V256.536h2.232v4.125h4.169v-4.125h2.225v10.526Z" transform="translate(0.285)"/><rect class="bo" x="248.22" y="237.571" width="49.972" height="47.514"/><path class="b" d="M270.221,267.062h-2.534l-2.758-4.435-0.943.677v3.758h-2.232V256.536h2.232v4.817l0.878-1.239,2.852-3.578h2.477l-3.672,4.658Z" transform="translate(0.285)"/><path class="b" d="M282.471,267.062h-2.534l-2.758-4.435-0.943.677v3.758H274V256.536h2.232v4.817l0.878-1.239,2.852-3.578h2.477l-3.672,4.658Z" transform="translate(0.285)"/><rect class="bp" x="298.192" y="237.571" width="49.153" height="47.514"/><path class="b" d="M317.8,267.062h-2.534l-2.758-4.435-0.943.677v3.758h-2.231V256.536h2.231v4.817l0.879-1.239,2.851-3.578h2.478l-3.673,4.658Z" transform="translate(0.285)"/><path class="b" d="M326.037,267.062L323.5,258.8h-0.064q0.136,2.52.137,3.362v4.9h-1.994V256.536h3.038l2.491,8.049h0.043l2.643-8.049h3.038v10.526h-2.08V262.08c0-.235,0-0.506.011-0.813s0.039-1.124.1-2.448H330.8l-2.715,8.244h-2.045Z" transform="translate(0.285)"/><rect class="bq" x="347.345" y="237.571" width="49.972" height="47.514"/><path class="b" d="M368.513,267.062h-2.534l-2.758-4.435-0.943.677v3.758h-2.231V256.536h2.231v4.817l0.879-1.239,2.851-3.578h2.478l-3.673,4.658Z" transform="translate(0.285)"/><path class="b" d="M381.85,261.784a5.709,5.709,0,0,1-1.3,4.018,5.617,5.617,0,0,1-7.431,0,5.736,5.736,0,0,1-1.3-4.032,5.658,5.658,0,0,1,1.3-4.014,4.861,4.861,0,0,1,3.727-1.386,4.791,4.791,0,0,1,3.711,1.4A5.724,5.724,0,0,1,381.85,261.784Zm-7.682,0a4.4,4.4,0,0,0,.669,2.657,2.342,2.342,0,0,0,2,.893q2.67,0,2.671-3.55t-2.656-3.557a2.358,2.358,0,0,0-2.009.9A4.379,4.379,0,0,0,374.168,261.784Z" transform="translate(0.285)"/><rect class="br" x="397.316" y="237.571" width="49.153" height="47.514"/><path class="b" d="M419.367,267.062h-2.534l-2.758-4.435-0.943.677v3.758H410.9V256.536h2.231v4.817l0.879-1.239,2.851-3.578h2.478l-3.673,4.658Z" transform="translate(0.285)"/><path class="b" d="M430.422,259.819a3.217,3.217,0,0,1-1.062,2.6,4.542,4.542,0,0,1-3.021.9h-0.958v3.744H423.15V256.536h3.362a4.474,4.474,0,0,1,2.912.824A3.005,3.005,0,0,1,430.422,259.819Zm-5.04,1.67h0.734a2.448,2.448,0,0,0,1.541-.407,1.425,1.425,0,0,0,.512-1.185,1.462,1.462,0,0,0-.429-1.159,2.009,2.009,0,0,0-1.343-.375h-1.016v3.125Z" transform="translate(0.285)"/><rect class="bs" x="446.469" y="237.571" width="49.972" height="47.514"/><path class="b" d="M469.352,267.062h-2.534l-2.758-4.435-0.943.677v3.758h-2.231V256.536h2.231v4.817L464,260.114l2.851-3.578h2.478l-3.673,4.658Z" transform="translate(0.285)"/><path class="b" d="M477.2,267.062h-2.232v-8.669H472.1v-1.857h7.949v1.857H477.2v8.669Z" transform="translate(0.285)"/><rect class="bt" x="496.441" y="237.571" width="49.153" height="47.514"/><path class="b" d="M518.339,267.062H515.8l-2.758-4.435-0.943.677v3.758h-2.231V256.536H512.1v4.817l0.879-1.239,2.851-3.578h2.478l-3.673,4.658Z" transform="translate(0.285)"/><path class="b" d="M530.631,267.062h-2.549l-2.447-3.981-2.448,3.981H520.8l3.492-5.429-3.269-5.1h2.462l2.269,3.787,2.225-3.787h2.4l-3.3,5.22Z" transform="translate(0.285)"/><rect class="bu" x="545.593" y="237.571" width="49.972" height="47.514"/><path class="b" d="M568.284,267.062H565.75l-2.758-4.435-0.943.677v3.758h-2.231V256.536h2.231v4.817l0.879-1.239,2.851-3.578h2.478l-3.673,4.658Z" transform="translate(0.285)"/><path class="b" d="M575.343,260.87l2.2-4.334h2.405l-3.492,6.43v4.1h-2.218v-4.025l-3.492-6.5h2.419Z" transform="translate(0.285)"/><rect class="bv" y="285.085" width="49.972" height="47.514"/><path class="b" d="M15.839,314.577L13.3,306.318H13.24q0.136,2.52.137,3.362v4.9H11.382V304.05h3.039l2.491,8.049h0.043L19.6,304.05h3.039v10.526H20.555v-4.982q0-.353.011-0.813t0.1-2.448H20.6l-2.714,8.244H15.839Z" transform="translate(0.285)"/><path class="b" d="M34.188,314.577l-0.763-2.506H29.587l-0.763,2.506h-2.4l3.715-10.57h2.729l3.73,10.57h-2.4Zm-1.3-4.377q-1.058-3.406-1.191-3.852t-0.191-.706q-0.237.921-1.361,4.558h2.743Z" transform="translate(0.285)"/><rect class="bw" x="49.972" y="285.085" width="49.153" height="47.514"/><path class="b" d="M65.593,314.577l-2.535-8.258H62.994q0.136,2.52.137,3.362v4.9H61.136V304.05h3.039l2.491,8.049h0.043l2.643-8.049H72.39v10.526H70.309v-4.982q0-.353.011-0.813t0.1-2.448H70.353l-2.714,8.244H65.593Z" transform="translate(0.285)"/><path class="b" d="M77.5,304.05h3.276a6.312,6.312,0,0,1,3.25.637,2.218,2.218,0,0,1,1.012,2.027,2.552,2.552,0,0,1-.443,1.548,1.767,1.767,0,0,1-1.177.727v0.072a2.321,2.321,0,0,1,1.444.835,2.72,2.72,0,0,1,.443,1.627,2.681,2.681,0,0,1-1.041,2.246,4.5,4.5,0,0,1-2.826.807H77.5V304.05Zm2.232,4.168h1.3a2.368,2.368,0,0,0,1.314-.281,1.047,1.047,0,0,0,.407-0.929,0.929,0.929,0,0,0-.443-0.868,2.852,2.852,0,0,0-1.4-.263H79.729v2.34Zm0,1.771v2.743h1.455a2.16,2.16,0,0,0,1.361-.353,1.3,1.3,0,0,0,.439-1.08q0-1.31-1.872-1.311H79.729Z" transform="translate(0.285)"/><rect class="bx" x="99.124" y="285.085" width="49.972" height="47.514"/><path class="b" d="M115.476,314.577l-2.535-8.258h-0.064q0.136,2.52.137,3.362v4.9h-1.995V304.05h3.039l2.491,8.049h0.043l2.643-8.049h3.039v10.526h-2.081v-4.982q0-.353.011-0.813t0.1-2.448h-0.065l-2.714,8.244h-2.045Z" transform="translate(0.285)"/><path class="b" d="M131.851,305.756a2.275,2.275,0,0,0-1.951.947,4.406,4.406,0,0,0-.691,2.639q0,3.521,2.642,3.521a8.356,8.356,0,0,0,2.686-.555v1.872a7.463,7.463,0,0,1-2.895.54,4.414,4.414,0,0,1-3.514-1.393,5.9,5.9,0,0,1-1.217-4,6.531,6.531,0,0,1,.6-2.876,4.319,4.319,0,0,1,1.717-1.894,5.081,5.081,0,0,1,2.624-.659,7.082,7.082,0,0,1,3.082.742l-0.72,1.814a11.831,11.831,0,0,0-1.188-.49A3.546,3.546,0,0,0,131.851,305.756Z" transform="translate(0.285)"/><rect class="by" x="149.096" y="285.085" width="49.153" height="47.514"/><path class="b" d="M165.678,314.577l-2.535-8.258h-0.064q0.136,2.52.137,3.362v4.9h-1.995V304.05h3.039l2.491,8.049h0.043l2.643-8.049h3.039v10.526h-2.081v-4.982q0-.353.011-0.813t0.1-2.448h-0.065l-2.714,8.244h-2.045Z" transform="translate(0.285)"/><path class="b" d="M183.644,314.577h-6.062V304.05h6.063v1.829h-3.831v2.312h3.564v1.829h-3.564v2.714h3.831v1.843Z" transform="translate(0.285)"/><rect class="bz" x="198.249" y="285.085" width="49.972" height="47.514"/><path class="b" d="M213.793,314.577l-2.535-8.258h-0.064q0.136,2.52.137,3.362v4.9h-1.995V304.05h3.039l2.491,8.049h0.043l2.643-8.049h3.039v10.526h-2.081v-4.982q0-.353.011-0.813t0.1-2.448h-0.065l-2.714,8.244h-2.045Z" transform="translate(0.285)"/><path class="b" d="M234.324,314.577H232.1v-4.543H227.93v4.543H225.7V304.05h2.232v4.125H232.1V304.05h2.225v10.526Z" transform="translate(0.285)"/><rect class="ca" x="248.22" y="285.085" width="49.972" height="47.514"/><path class="b" d="M264.163,314.577l-2.535-8.258h-0.064q0.136,2.52.137,3.362v4.9h-1.995V304.05h3.039l2.491,8.049h0.043l2.643-8.049h3.039v10.526h-2.081v-4.982q0-.353.011-0.813t0.1-2.448h-0.065l-2.714,8.244h-2.045Z" transform="translate(0.285)"/><path class="b" d="M284.533,314.577H282l-2.758-4.435-0.943.677v3.758h-2.232V304.05H278.3v4.817l0.878-1.239,2.852-3.578H284.5l-3.672,4.658Z" transform="translate(0.285)"/><rect class="cb" x="298.192" y="285.085" width="49.153" height="47.514"/><path class="b" d="M311.728,314.577l-2.534-8.258h-0.064q0.136,2.52.137,3.362v4.9h-1.994V304.05h3.038L312.8,312.1h0.043l2.643-8.049h3.038v10.526h-2.08v-4.982c0-.235,0-0.506.011-0.813s0.039-1.124.1-2.448h-0.064l-2.715,8.244h-2.045Z" transform="translate(0.285)"/><path class="b" d="M328.088,314.577l-2.534-8.258h-0.064q0.136,2.52.137,3.362v4.9h-1.994V304.05h3.038l2.491,8.049H329.2l2.643-8.049h3.038v10.526H332.8v-4.982c0-.235,0-0.506.011-0.813s0.039-1.124.1-2.448h-0.064l-2.715,8.244h-2.045Z" transform="translate(0.285)"/><rect class="cc" x="347.345" y="285.085" width="49.972" height="47.514"/><path class="b" d="M362.441,314.577l-2.534-8.258h-0.064q0.136,2.52.137,3.362v4.9h-1.994V304.05h3.038l2.491,8.049h0.043l2.643-8.049h3.038v10.526h-2.08v-4.982c0-.235,0-0.506.011-0.813s0.039-1.124.1-2.448H367.2l-2.715,8.244h-2.045Z" transform="translate(0.285)"/><path class="b" d="M383.9,309.3a5.709,5.709,0,0,1-1.3,4.018,5.617,5.617,0,0,1-7.431,0,5.736,5.736,0,0,1-1.3-4.032,5.658,5.658,0,0,1,1.3-4.014,4.861,4.861,0,0,1,3.727-1.386,4.791,4.791,0,0,1,3.711,1.4A5.724,5.724,0,0,1,383.9,309.3Zm-7.682,0a4.4,4.4,0,0,0,.669,2.657,2.342,2.342,0,0,0,2,.893q2.67,0,2.671-3.55t-2.656-3.557a2.358,2.358,0,0,0-2.009.9A4.379,4.379,0,0,0,376.218,309.3Z" transform="translate(0.285)"/><rect class="cd" x="397.316" y="285.085" width="49.153" height="47.514"/><path class="b" d="M413.309,314.577l-2.534-8.258H410.71q0.136,2.52.137,3.362v4.9h-1.994V304.05h3.038l2.491,8.049h0.043l2.643-8.049h3.038v10.526h-2.08v-4.982c0-.235,0-0.506.011-0.813s0.039-1.124.1-2.448h-0.064l-2.715,8.244h-2.045Z" transform="translate(0.285)"/><path class="b" d="M432.485,307.333a3.217,3.217,0,0,1-1.062,2.6,4.542,4.542,0,0,1-3.021.9h-0.958v3.744h-2.231V304.05h3.362a4.474,4.474,0,0,1,2.912.824A3.005,3.005,0,0,1,432.485,307.333Zm-5.04,1.67h0.734a2.448,2.448,0,0,0,1.541-.407,1.425,1.425,0,0,0,.512-1.185,1.462,1.462,0,0,0-.429-1.159,2.009,2.009,0,0,0-1.343-.375h-1.016V309Z" transform="translate(0.285)"/><rect class="ce" x="446.469" y="285.085" width="49.972" height="47.514"/><path class="b" d="M463.293,314.577l-2.534-8.258h-0.064q0.136,2.52.137,3.362v4.9h-1.994V304.05h3.038l2.491,8.049h0.043l2.643-8.049h3.038v10.526h-2.08v-4.982c0-.235,0-0.506.011-0.813s0.039-1.124.1-2.448h-0.064l-2.715,8.244h-2.045Z" transform="translate(0.285)"/><path class="b" d="M479.259,314.577h-2.232v-8.669h-2.858V304.05h7.949v1.857h-2.858v8.669Z" transform="translate(0.285)"/><rect class="cf" x="496.441" y="285.085" width="49.153" height="47.514"/><path class="b" d="M512.267,314.577l-2.534-8.258h-0.064q0.136,2.52.137,3.362v4.9h-1.994V304.05h3.038l2.491,8.049h0.043l2.643-8.049h3.038v10.526h-2.08v-4.982c0-.235,0-0.506.011-0.813s0.039-1.124.1-2.448h-0.064l-2.715,8.244h-2.045Z" transform="translate(0.285)"/><path class="b" d="M532.682,314.577h-2.549l-2.447-3.981-2.448,3.981h-2.391l3.492-5.429-3.269-5.1h2.462l2.269,3.787,2.225-3.787h2.4l-3.3,5.22Z" transform="translate(0.285)"/><rect class="cg" x="545.593" y="285.085" width="49.972" height="47.514"/><path class="b" d="M562.213,314.577l-2.534-8.258h-0.064q0.136,2.52.137,3.362v4.9h-1.994V304.05h3.038l2.491,8.049h0.043l2.643-8.049h3.038v10.526h-2.08v-4.982c0-.235,0-0.506.011-0.813s0.039-1.124.1-2.448h-0.064l-2.715,8.244h-2.045Z" transform="translate(0.285)"/><path class="b" d="M577.393,308.385l2.2-4.334h2.405l-3.492,6.43v4.1h-2.218v-4.025l-3.492-6.5h2.419Z" transform="translate(0.285)"/><rect class="ch" y="332.599" width="49.972" height="47.514"/><path class="b" d="M22.025,356.813a5.712,5.712,0,0,1-1.3,4.018,4.805,4.805,0,0,1-3.715,1.4,4.8,4.8,0,0,1-3.715-1.4A5.732,5.732,0,0,1,12,356.8a5.658,5.658,0,0,1,1.3-4.014,4.861,4.861,0,0,1,3.726-1.386,4.793,4.793,0,0,1,3.712,1.4A5.728,5.728,0,0,1,22.025,356.813Zm-7.683,0a4.4,4.4,0,0,0,.669,2.657,2.344,2.344,0,0,0,2,.893q2.671,0,2.671-3.55t-2.657-3.557a2.358,2.358,0,0,0-2.009.9A4.379,4.379,0,0,0,14.343,356.813Z" transform="translate(0.285)"/><path class="b" d="M33.108,362.091l-0.763-2.506H28.507l-0.763,2.506h-2.4l3.715-10.57h2.729l3.73,10.57h-2.4Zm-1.3-4.377q-1.058-3.406-1.191-3.852t-0.191-.706q-0.237.921-1.361,4.558h2.743Z" transform="translate(0.285)"/><rect class="ci" x="49.972" y="332.599" width="49.153" height="47.514"/><path class="b" d="M71.779,356.813a5.712,5.712,0,0,1-1.3,4.018,5.617,5.617,0,0,1-7.431,0,5.732,5.732,0,0,1-1.3-4.032,5.658,5.658,0,0,1,1.3-4.014,4.861,4.861,0,0,1,3.726-1.386,4.793,4.793,0,0,1,3.712,1.4A5.728,5.728,0,0,1,71.779,356.813Zm-7.683,0a4.4,4.4,0,0,0,.669,2.657,2.344,2.344,0,0,0,2,.893q2.671,0,2.671-3.55t-2.657-3.557a2.358,2.358,0,0,0-2.009.9A4.379,4.379,0,0,0,64.1,356.813Z" transform="translate(0.285)"/><path class="b" d="M76.418,351.565h3.276a6.312,6.312,0,0,1,3.25.637,2.218,2.218,0,0,1,1.012,2.027,2.552,2.552,0,0,1-.443,1.548,1.767,1.767,0,0,1-1.177.727v0.072a2.321,2.321,0,0,1,1.444.835,2.72,2.72,0,0,1,.443,1.627,2.681,2.681,0,0,1-1.041,2.246,4.5,4.5,0,0,1-2.826.807H76.418V351.565Zm2.232,4.168h1.3a2.368,2.368,0,0,0,1.314-.281,1.047,1.047,0,0,0,.407-0.929,0.929,0.929,0,0,0-.443-0.868,2.852,2.852,0,0,0-1.4-.263H78.65v2.34Zm0,1.771v2.743H80.1a2.16,2.16,0,0,0,1.361-.353,1.3,1.3,0,0,0,.439-1.08q0-1.31-1.872-1.311H78.65Z" transform="translate(0.285)"/><rect class="cj" x="99.124" y="332.599" width="49.972" height="47.514"/><path class="b" d="M121.662,356.813a5.712,5.712,0,0,1-1.3,4.018,5.617,5.617,0,0,1-7.431,0,5.732,5.732,0,0,1-1.3-4.032,5.658,5.658,0,0,1,1.3-4.014,4.861,4.861,0,0,1,3.726-1.386,4.793,4.793,0,0,1,3.712,1.4A5.728,5.728,0,0,1,121.662,356.813Zm-7.683,0a4.4,4.4,0,0,0,.669,2.657,2.344,2.344,0,0,0,2,.893q2.671,0,2.671-3.55t-2.657-3.557a2.358,2.358,0,0,0-2.009.9A4.379,4.379,0,0,0,113.979,356.813Z" transform="translate(0.285)"/><path class="b" d="M130.771,353.271a2.275,2.275,0,0,0-1.951.947,4.406,4.406,0,0,0-.691,2.639q0,3.521,2.642,3.521a8.356,8.356,0,0,0,2.686-.555V361.7a7.463,7.463,0,0,1-2.895.54,4.414,4.414,0,0,1-3.514-1.393,5.9,5.9,0,0,1-1.217-4,6.531,6.531,0,0,1,.6-2.876,4.319,4.319,0,0,1,1.717-1.894,5.081,5.081,0,0,1,2.624-.659,7.082,7.082,0,0,1,3.082.742l-0.72,1.814a11.831,11.831,0,0,0-1.188-.49A3.546,3.546,0,0,0,130.771,353.271Z" transform="translate(0.285)"/><rect class="ck" x="149.096" y="332.599" width="49.153" height="47.514"/><path class="b" d="M171.851,356.813a5.712,5.712,0,0,1-1.3,4.018,5.617,5.617,0,0,1-7.431,0,5.732,5.732,0,0,1-1.3-4.032,5.658,5.658,0,0,1,1.3-4.014,4.861,4.861,0,0,1,3.726-1.386,4.793,4.793,0,0,1,3.712,1.4A5.728,5.728,0,0,1,171.851,356.813Zm-7.683,0a4.4,4.4,0,0,0,.669,2.657,2.344,2.344,0,0,0,2,.893q2.671,0,2.671-3.55t-2.657-3.557a2.358,2.358,0,0,0-2.009.9A4.379,4.379,0,0,0,164.168,356.813Z" transform="translate(0.285)"/><path class="b" d="M182.552,362.091H176.49V351.565h6.063v1.829h-3.831v2.312h3.564v1.829h-3.564v2.714h3.831v1.843Z" transform="translate(0.285)"/><rect class="cl" x="198.249" y="332.599" width="49.972" height="47.514"/><path class="b" d="M219.966,356.813a5.712,5.712,0,0,1-1.3,4.018,5.617,5.617,0,0,1-7.431,0,5.732,5.732,0,0,1-1.3-4.032,5.658,5.658,0,0,1,1.3-4.014,4.861,4.861,0,0,1,3.726-1.386,4.793,4.793,0,0,1,3.712,1.4A5.728,5.728,0,0,1,219.966,356.813Zm-7.683,0a4.4,4.4,0,0,0,.669,2.657,2.344,2.344,0,0,0,2,.893q2.671,0,2.671-3.55t-2.657-3.557a2.358,2.358,0,0,0-2.009.9A4.379,4.379,0,0,0,212.284,356.813Z" transform="translate(0.285)"/><path class="b" d="M233.231,362.091h-2.225v-4.543h-4.169v4.543H224.6V351.565h2.232v4.125h4.169v-4.125h2.225v10.526Z" transform="translate(0.285)"/><rect class="cm" x="248.22" y="332.599" width="49.972" height="47.514"/><path class="b" d="M270.348,356.813a5.712,5.712,0,0,1-1.3,4.018,5.617,5.617,0,0,1-7.431,0,5.732,5.732,0,0,1-1.3-4.032,5.658,5.658,0,0,1,1.3-4.014,4.861,4.861,0,0,1,3.726-1.386,4.793,4.793,0,0,1,3.712,1.4A5.728,5.728,0,0,1,270.348,356.813Zm-7.683,0a4.4,4.4,0,0,0,.669,2.657,2.344,2.344,0,0,0,2,.893q2.671,0,2.671-3.55t-2.657-3.557a2.358,2.358,0,0,0-2.009.9A4.379,4.379,0,0,0,262.666,356.813Z" transform="translate(0.285)"/><path class="b" d="M283.454,362.091H280.92l-2.758-4.435-0.943.677v3.758h-2.232V351.565h2.232v4.817l0.878-1.239,2.852-3.578h2.477l-3.672,4.658Z" transform="translate(0.285)"/><rect class="cn" x="298.192" y="332.599" width="49.153" height="47.514"/><path class="b" d="M317.913,356.813a5.709,5.709,0,0,1-1.3,4.018,5.617,5.617,0,0,1-7.431,0,5.736,5.736,0,0,1-1.3-4.032,5.658,5.658,0,0,1,1.3-4.014,4.861,4.861,0,0,1,3.727-1.386,4.791,4.791,0,0,1,3.711,1.4A5.724,5.724,0,0,1,317.913,356.813Zm-7.682,0a4.4,4.4,0,0,0,.669,2.657,2.342,2.342,0,0,0,2,.893q2.67,0,2.671-3.55t-2.656-3.557a2.358,2.358,0,0,0-2.009.9A4.379,4.379,0,0,0,310.231,356.813Z" transform="translate(0.285)"/><path class="b" d="M327.008,362.091l-2.534-8.258h-0.064q0.136,2.52.137,3.362v4.9h-1.994V351.565h3.038l2.491,8.049h0.043l2.643-8.049H333.8v10.526h-2.08v-4.982c0-.235,0-0.506.011-0.813s0.039-1.124.1-2.448h-0.064l-2.715,8.244h-2.045Z" transform="translate(0.285)"/><rect class="co" x="347.345" y="332.599" width="49.972" height="47.514"/><path class="b" d="M368.627,356.813a5.709,5.709,0,0,1-1.3,4.018,5.617,5.617,0,0,1-7.431,0,5.736,5.736,0,0,1-1.3-4.032,5.658,5.658,0,0,1,1.3-4.014,4.861,4.861,0,0,1,3.727-1.386,4.791,4.791,0,0,1,3.711,1.4A5.724,5.724,0,0,1,368.627,356.813Zm-7.682,0a4.4,4.4,0,0,0,.669,2.657,2.342,2.342,0,0,0,2,.893q2.67,0,2.671-3.55t-2.656-3.557a2.358,2.358,0,0,0-2.009.9A4.379,4.379,0,0,0,360.945,356.813Z" transform="translate(0.285)"/><path class="b" d="M382.82,356.813a5.709,5.709,0,0,1-1.3,4.018,5.617,5.617,0,0,1-7.431,0,5.736,5.736,0,0,1-1.3-4.032,5.658,5.658,0,0,1,1.3-4.014,4.861,4.861,0,0,1,3.727-1.386,4.791,4.791,0,0,1,3.711,1.4A5.724,5.724,0,0,1,382.82,356.813Zm-7.682,0a4.4,4.4,0,0,0,.669,2.657,2.342,2.342,0,0,0,2,.893q2.67,0,2.671-3.55t-2.656-3.557a2.358,2.358,0,0,0-2.009.9A4.379,4.379,0,0,0,375.139,356.813Z" transform="translate(0.285)"/><rect class="cp" x="397.316" y="332.599" width="49.153" height="47.514"/><path class="b" d="M419.481,356.813a5.709,5.709,0,0,1-1.3,4.018,5.617,5.617,0,0,1-7.431,0,5.736,5.736,0,0,1-1.3-4.032,5.658,5.658,0,0,1,1.3-4.014,4.861,4.861,0,0,1,3.727-1.386,4.791,4.791,0,0,1,3.711,1.4A5.724,5.724,0,0,1,419.481,356.813Zm-7.682,0a4.4,4.4,0,0,0,.669,2.657,2.342,2.342,0,0,0,2,.893q2.67,0,2.671-3.55t-2.656-3.557a2.358,2.358,0,0,0-2.009.9A4.379,4.379,0,0,0,411.8,356.813Z" transform="translate(0.285)"/><path class="b" d="M431.393,354.848a3.217,3.217,0,0,1-1.062,2.6,4.542,4.542,0,0,1-3.021.9h-0.958v3.744h-2.231V351.565h3.362a4.474,4.474,0,0,1,2.912.824A3.005,3.005,0,0,1,431.393,354.848Zm-5.04,1.67h0.734a2.448,2.448,0,0,0,1.541-.407,1.425,1.425,0,0,0,.512-1.185,1.462,1.462,0,0,0-.429-1.159,2.009,2.009,0,0,0-1.343-.375h-1.016v3.125Z" transform="translate(0.285)"/><rect class="cq" x="446.469" y="332.599" width="49.972" height="47.514"/><path class="b" d="M469.466,356.813a5.709,5.709,0,0,1-1.3,4.018,5.617,5.617,0,0,1-7.431,0,5.736,5.736,0,0,1-1.3-4.032,5.658,5.658,0,0,1,1.3-4.014,4.861,4.861,0,0,1,3.727-1.386,4.791,4.791,0,0,1,3.711,1.4A5.724,5.724,0,0,1,469.466,356.813Zm-7.682,0a4.4,4.4,0,0,0,.669,2.657,2.342,2.342,0,0,0,2,.893q2.67,0,2.671-3.55t-2.656-3.557a2.358,2.358,0,0,0-2.009.9A4.379,4.379,0,0,0,461.784,356.813Z" transform="translate(0.285)"/><path class="b" d="M478.167,362.091h-2.232v-8.669h-2.858v-1.857h7.949v1.857h-2.858v8.669Z" transform="translate(0.285)"/><rect class="cr" x="496.441" y="332.599" width="49.153" height="47.514"/><path class="b" d="M518.452,356.813a5.709,5.709,0,0,1-1.3,4.018,5.617,5.617,0,0,1-7.431,0,5.736,5.736,0,0,1-1.3-4.032,5.658,5.658,0,0,1,1.3-4.014,4.861,4.861,0,0,1,3.727-1.386,4.791,4.791,0,0,1,3.711,1.4A5.724,5.724,0,0,1,518.452,356.813Zm-7.682,0a4.4,4.4,0,0,0,.669,2.657,2.342,2.342,0,0,0,2,.893q2.67,0,2.671-3.55t-2.656-3.557a2.358,2.358,0,0,0-2.009.9A4.379,4.379,0,0,0,510.771,356.813Z" transform="translate(0.285)"/><path class="b" d="M531.6,362.091h-2.549l-2.447-3.981-2.448,3.981h-2.391l3.492-5.429-3.269-5.1h2.462l2.269,3.787,2.225-3.787h2.4l-3.3,5.22Z" transform="translate(0.285)"/><rect class="cs" x="545.593" y="332.599" width="49.972" height="47.514"/><path class="b" d="M568.4,356.813a5.709,5.709,0,0,1-1.3,4.018,5.617,5.617,0,0,1-7.431,0,5.736,5.736,0,0,1-1.3-4.032,5.658,5.658,0,0,1,1.3-4.014A4.861,4.861,0,0,1,563.4,351.4a4.791,4.791,0,0,1,3.711,1.4A5.724,5.724,0,0,1,568.4,356.813Zm-7.682,0a4.4,4.4,0,0,0,.669,2.657,2.342,2.342,0,0,0,2,.893q2.67,0,2.671-3.55t-2.656-3.557a2.358,2.358,0,0,0-2.009.9A4.379,4.379,0,0,0,560.717,356.813Z" transform="translate(0.285)"/><path class="b" d="M576.313,355.9l2.2-4.334h2.405l-3.492,6.43v4.1h-2.218v-4.025l-3.492-6.5h2.419Z" transform="translate(0.285)"/><rect class="ct" y="380.113" width="49.972" height="47.514"/><path class="b" d="M20.971,402.362a3.217,3.217,0,0,1-1.062,2.6,4.541,4.541,0,0,1-3.02.9H15.931V409.6H13.7V399.079h3.362a4.475,4.475,0,0,1,2.913.824A3.005,3.005,0,0,1,20.971,402.362Zm-5.04,1.67h0.734a2.448,2.448,0,0,0,1.541-.407,1.424,1.424,0,0,0,.511-1.185,1.461,1.461,0,0,0-.428-1.159,2.008,2.008,0,0,0-1.343-.375H15.931v3.125Z" transform="translate(0.285)"/><path class="b" d="M31.861,409.6L31.1,407.1H27.26L26.5,409.6h-2.4l3.715-10.57h2.729l3.73,10.57h-2.4Zm-1.3-4.377q-1.058-3.406-1.191-3.852t-0.191-.706q-0.237.921-1.361,4.558h2.743Z" transform="translate(0.285)"/><rect class="cu" x="49.972" y="380.113" width="49.153" height="47.514"/><path class="b" d="M70.738,402.362a3.217,3.217,0,0,1-1.062,2.6,4.541,4.541,0,0,1-3.02.9H65.7V409.6H63.466V399.079h3.362a4.475,4.475,0,0,1,2.913.824A3.005,3.005,0,0,1,70.738,402.362Zm-5.04,1.67h0.734a2.448,2.448,0,0,0,1.541-.407,1.424,1.424,0,0,0,.511-1.185,1.461,1.461,0,0,0-.428-1.159,2.008,2.008,0,0,0-1.343-.375H65.7v3.125Z" transform="translate(0.285)"/><path class="b" d="M75.183,399.079h3.276a6.312,6.312,0,0,1,3.25.637,2.218,2.218,0,0,1,1.012,2.027,2.552,2.552,0,0,1-.443,1.548,1.767,1.767,0,0,1-1.177.727v0.072a2.321,2.321,0,0,1,1.444.835,2.72,2.72,0,0,1,.443,1.627,2.681,2.681,0,0,1-1.041,2.246,4.5,4.5,0,0,1-2.826.807H75.183V399.079Zm2.232,4.168h1.3a2.368,2.368,0,0,0,1.314-.281,1.047,1.047,0,0,0,.407-0.929,0.929,0.929,0,0,0-.443-0.868,2.852,2.852,0,0,0-1.4-.263H77.415v2.34Zm0,1.771v2.743H78.87a2.16,2.16,0,0,0,1.361-.353,1.3,1.3,0,0,0,.439-1.08q0-1.31-1.872-1.311H77.415Z" transform="translate(0.285)"/><rect class="cv" x="99.124" y="380.113" width="49.972" height="47.514"/><path class="b" d="M120.62,402.362a3.217,3.217,0,0,1-1.062,2.6,4.541,4.541,0,0,1-3.02.9H115.58V409.6h-2.232V399.079h3.362a4.475,4.475,0,0,1,2.913.824A3.005,3.005,0,0,1,120.62,402.362Zm-5.04,1.67h0.734a2.448,2.448,0,0,0,1.541-.407,1.424,1.424,0,0,0,.511-1.185,1.461,1.461,0,0,0-.428-1.159,2.008,2.008,0,0,0-1.343-.375H115.58v3.125Z" transform="translate(0.285)"/><path class="b" d="M129.536,400.785a2.275,2.275,0,0,0-1.951.947,4.406,4.406,0,0,0-.691,2.639q0,3.521,2.642,3.521a8.356,8.356,0,0,0,2.686-.555v1.872a7.463,7.463,0,0,1-2.895.54,4.414,4.414,0,0,1-3.514-1.393,5.9,5.9,0,0,1-1.217-4,6.531,6.531,0,0,1,.6-2.876,4.319,4.319,0,0,1,1.717-1.894,5.081,5.081,0,0,1,2.624-.659,7.082,7.082,0,0,1,3.082.742l-0.72,1.814a11.831,11.831,0,0,0-1.188-.49A3.546,3.546,0,0,0,129.536,400.785Z" transform="translate(0.285)"/><rect class="cw" x="149.096" y="380.113" width="49.153" height="47.514"/><path class="b" d="M170.81,402.362a3.217,3.217,0,0,1-1.062,2.6,4.541,4.541,0,0,1-3.02.9H165.77V409.6h-2.232V399.079H166.9a4.475,4.475,0,0,1,2.913.824A3.005,3.005,0,0,1,170.81,402.362Zm-5.04,1.67H166.5a2.448,2.448,0,0,0,1.541-.407,1.424,1.424,0,0,0,.511-1.185,1.461,1.461,0,0,0-.428-1.159,2.008,2.008,0,0,0-1.343-.375H165.77v3.125Z" transform="translate(0.285)"/><path class="b" d="M181.317,409.6h-6.062V399.079h6.063v1.829h-3.831v2.312h3.564v1.829h-3.564v2.714h3.831V409.6Z" transform="translate(0.285)"/><rect class="cx" x="198.249" y="380.113" width="49.972" height="47.514"/><path class="b" d="M218.925,402.362a3.217,3.217,0,0,1-1.062,2.6,4.541,4.541,0,0,1-3.02.9h-0.958V409.6h-2.232V399.079h3.362a4.475,4.475,0,0,1,2.913.824A3.005,3.005,0,0,1,218.925,402.362Zm-5.04,1.67h0.734a2.448,2.448,0,0,0,1.541-.407,1.424,1.424,0,0,0,.511-1.185,1.461,1.461,0,0,0-.428-1.159,2.008,2.008,0,0,0-1.343-.375h-1.016v3.125Z" transform="translate(0.285)"/><path class="b" d="M232,409.6h-2.225v-4.543H225.6V409.6h-2.232V399.079H225.6V403.2h4.169v-4.125H232V409.6Z" transform="translate(0.285)"/><rect class="cy" x="248.22" y="380.113" width="49.972" height="47.514"/><path class="b" d="M269.294,402.362a3.217,3.217,0,0,1-1.062,2.6,4.541,4.541,0,0,1-3.02.9h-0.958V409.6h-2.232V399.079h3.362a4.475,4.475,0,0,1,2.913.824A3.005,3.005,0,0,1,269.294,402.362Zm-5.04,1.67h0.734a2.448,2.448,0,0,0,1.541-.407,1.424,1.424,0,0,0,.511-1.185,1.461,1.461,0,0,0-.428-1.159,2.008,2.008,0,0,0-1.343-.375h-1.016v3.125Z" transform="translate(0.285)"/><path class="b" d="M282.206,409.6h-2.534l-2.758-4.435-0.943.677V409.6h-2.232V399.079h2.232V403.9l0.878-1.239,2.852-3.578h2.477l-3.672,4.658Z" transform="translate(0.285)"/><rect class="cz" x="298.192" y="380.113" width="49.153" height="47.514"/><path class="b" d="M316.872,402.362a3.217,3.217,0,0,1-1.062,2.6,4.542,4.542,0,0,1-3.021.9h-0.958V409.6H309.6V399.079h3.362a4.474,4.474,0,0,1,2.912.824A3.005,3.005,0,0,1,316.872,402.362Zm-5.04,1.67h0.734a2.448,2.448,0,0,0,1.541-.407,1.425,1.425,0,0,0,.512-1.185,1.462,1.462,0,0,0-.429-1.159,2.009,2.009,0,0,0-1.343-.375h-1.016v3.125Z" transform="translate(0.285)"/><path class="b" d="M325.773,409.6l-2.534-8.258h-0.064q0.136,2.52.137,3.362v4.9h-1.994V399.079h3.038l2.491,8.049h0.043l2.643-8.049h3.038V409.6h-2.08v-4.982c0-.235,0-0.506.011-0.813s0.039-1.124.1-2.448h-0.064l-2.715,8.244h-2.045Z" transform="translate(0.285)"/><rect class="da" x="347.345" y="380.113" width="49.972" height="47.514"/><path class="b" d="M367.573,402.362a3.217,3.217,0,0,1-1.062,2.6,4.542,4.542,0,0,1-3.021.9h-0.958V409.6H360.3V399.079h3.362a4.474,4.474,0,0,1,2.912.824A3.005,3.005,0,0,1,367.573,402.362Zm-5.04,1.67h0.734a2.448,2.448,0,0,0,1.541-.407,1.425,1.425,0,0,0,.512-1.185,1.462,1.462,0,0,0-.429-1.159,2.009,2.009,0,0,0-1.343-.375h-1.016v3.125Z" transform="translate(0.285)"/><path class="b" d="M381.573,404.327a5.709,5.709,0,0,1-1.3,4.018,5.617,5.617,0,0,1-7.431,0,5.736,5.736,0,0,1-1.3-4.032,5.658,5.658,0,0,1,1.3-4.014,4.861,4.861,0,0,1,3.727-1.386,4.791,4.791,0,0,1,3.711,1.4A5.724,5.724,0,0,1,381.573,404.327Zm-7.682,0a4.4,4.4,0,0,0,.669,2.657,2.342,2.342,0,0,0,2,.893q2.67,0,2.671-3.55t-2.656-3.557a2.358,2.358,0,0,0-2.009.9A4.379,4.379,0,0,0,373.892,404.327Z" transform="translate(0.285)"/><rect class="db" x="397.316" y="380.113" width="49.153" height="47.514"/><path class="b" d="M418.44,402.362a3.217,3.217,0,0,1-1.062,2.6,4.542,4.542,0,0,1-3.021.9H413.4V409.6h-2.231V399.079h3.362a4.474,4.474,0,0,1,2.912.824A3.005,3.005,0,0,1,418.44,402.362Zm-5.04,1.67h0.734a2.448,2.448,0,0,0,1.541-.407,1.425,1.425,0,0,0,.512-1.185,1.462,1.462,0,0,0-.429-1.159,2.009,2.009,0,0,0-1.343-.375H413.4v3.125Z" transform="translate(0.285)"/><path class="b" d="M430.158,402.362a3.217,3.217,0,0,1-1.062,2.6,4.542,4.542,0,0,1-3.021.9h-0.958V409.6h-2.231V399.079h3.362a4.474,4.474,0,0,1,2.912.824A3.005,3.005,0,0,1,430.158,402.362Zm-5.04,1.67h0.734a2.448,2.448,0,0,0,1.541-.407,1.425,1.425,0,0,0,.512-1.185,1.462,1.462,0,0,0-.429-1.159,2.009,2.009,0,0,0-1.343-.375h-1.016v3.125Z" transform="translate(0.285)"/><rect class="dc" x="446.469" y="380.113" width="49.972" height="47.514"/><path class="b" d="M468.426,402.362a3.217,3.217,0,0,1-1.062,2.6,4.542,4.542,0,0,1-3.021.9h-0.958V409.6h-2.231V399.079h3.362a4.474,4.474,0,0,1,2.912.824A3.005,3.005,0,0,1,468.426,402.362Zm-5.04,1.67h0.734a2.448,2.448,0,0,0,1.541-.407,1.425,1.425,0,0,0,.512-1.185,1.462,1.462,0,0,0-.429-1.159,2.009,2.009,0,0,0-1.343-.375h-1.016v3.125Z" transform="translate(0.285)"/><path class="b" d="M476.932,409.6H474.7v-8.669h-2.858v-1.857h7.949v1.857h-2.858V409.6Z" transform="translate(0.285)"/><rect class="dd" x="496.441" y="380.113" width="49.153" height="47.514"/><path class="b" d="M517.412,402.362a3.217,3.217,0,0,1-1.062,2.6,4.542,4.542,0,0,1-3.021.9h-0.958V409.6h-2.231V399.079H513.5a4.474,4.474,0,0,1,2.912.824A3.005,3.005,0,0,1,517.412,402.362Zm-5.04,1.67h0.734a2.448,2.448,0,0,0,1.541-.407,1.425,1.425,0,0,0,.512-1.185,1.462,1.462,0,0,0-.429-1.159,2.009,2.009,0,0,0-1.343-.375h-1.016v3.125Z" transform="translate(0.285)"/><path class="b" d="M530.366,409.6h-2.549l-2.447-3.981-2.448,3.981h-2.391l3.492-5.429-3.269-5.1h2.462l2.269,3.787,2.225-3.787h2.4l-3.3,5.22Z" transform="translate(0.285)"/><rect class="de" x="545.593" y="380.113" width="49.972" height="47.514"/><path class="b" d="M567.345,402.362a3.217,3.217,0,0,1-1.062,2.6,4.542,4.542,0,0,1-3.021.9H562.3V409.6h-2.231V399.079h3.362a4.474,4.474,0,0,1,2.912.824A3.005,3.005,0,0,1,567.345,402.362Zm-5.04,1.67h0.734a2.448,2.448,0,0,0,1.541-.407,1.425,1.425,0,0,0,.512-1.185,1.462,1.462,0,0,0-.429-1.159,2.009,2.009,0,0,0-1.343-.375H562.3v3.125Z" transform="translate(0.285)"/><path class="b" d="M575.065,403.413l2.2-4.334h2.405l-3.492,6.43v4.1h-2.218V405.58l-3.492-6.5h2.419Z" transform="translate(0.285)"/><rect class="df" y="427.627" width="49.972" height="47.514"/><path class="b" d="M18.131,457.119H15.9V448.45H13.041v-1.857H20.99v1.857H18.131v8.669Z" transform="translate(0.285)"/><path class="b" d="M31.511,457.119l-0.763-2.506H26.91l-0.763,2.506h-2.4l3.715-10.569h2.729l3.73,10.569h-2.4Zm-1.3-4.378q-1.058-3.406-1.191-3.852t-0.191-.706q-0.237.921-1.361,4.558h2.743Z" transform="translate(0.285)"/><rect class="dg" x="49.972" y="427.627" width="49.153" height="47.514"/><path class="b" d="M67.885,457.119H65.653V448.45H62.795v-1.857h7.949v1.857H67.885v8.669Z" transform="translate(0.285)"/><path class="b" d="M74.821,446.593H78.1a6.312,6.312,0,0,1,3.25.637,2.219,2.219,0,0,1,1.012,2.027,2.552,2.552,0,0,1-.443,1.548,1.77,1.77,0,0,1-1.177.728V451.6a2.322,2.322,0,0,1,1.444.836,2.717,2.717,0,0,1,.443,1.627,2.681,2.681,0,0,1-1.041,2.246,4.5,4.5,0,0,1-2.826.807H74.821V446.593Zm2.232,4.169h1.3a2.368,2.368,0,0,0,1.314-.281,1.047,1.047,0,0,0,.407-0.929,0.928,0.928,0,0,0-.443-0.867,2.841,2.841,0,0,0-1.4-.263H77.053v2.34Zm0,1.771v2.744h1.455a2.157,2.157,0,0,0,1.361-.354,1.3,1.3,0,0,0,.439-1.08q0-1.31-1.872-1.311H77.053Z" transform="translate(0.285)"/><rect class="dh" x="99.124" y="427.627" width="49.972" height="47.514"/><path class="b" d="M117.768,457.119h-2.232V448.45h-2.858v-1.857h7.949v1.857h-2.858v8.669Z" transform="translate(0.285)"/><path class="b" d="M129.175,448.3a2.273,2.273,0,0,0-1.951.947,4.406,4.406,0,0,0-.691,2.639q0,3.52,2.642,3.521a8.364,8.364,0,0,0,2.686-.554v1.871a7.454,7.454,0,0,1-2.895.54,4.414,4.414,0,0,1-3.514-1.393,5.9,5.9,0,0,1-1.217-4,6.528,6.528,0,0,1,.6-2.876,4.311,4.311,0,0,1,1.717-1.894,5.076,5.076,0,0,1,2.624-.659,7.089,7.089,0,0,1,3.082.741L131.537,449a12.18,12.18,0,0,0-1.188-.489A3.558,3.558,0,0,0,129.175,448.3Z" transform="translate(0.285)"/><rect class="di" x="149.096" y="427.627" width="49.153" height="47.514"/><path class="b" d="M167.957,457.119h-2.232V448.45h-2.858v-1.857h7.949v1.857h-2.858v8.669Z" transform="translate(0.285)"/><path class="b" d="M180.956,457.119h-6.062V446.593h6.063v1.829h-3.831v2.311h3.564v1.829h-3.564v2.715h3.831v1.843Z" transform="translate(0.285)"/><rect class="dj" x="198.249" y="427.627" width="49.972" height="47.514"/><path class="b" d="M216.073,457.119h-2.232V448.45h-2.858v-1.857h7.949v1.857h-2.858v8.669Z" transform="translate(0.285)"/><path class="b" d="M231.635,457.119H229.41v-4.543h-4.169v4.543h-2.232V446.593h2.232v4.126h4.169v-4.126h2.225v10.526Z" transform="translate(0.285)"/><rect class="dk" x="248.22" y="427.627" width="49.972" height="47.514"/><path class="b" d="M266.441,457.119h-2.232V448.45h-2.858v-1.857H269.3v1.857h-2.858v8.669Z" transform="translate(0.285)"/><path class="b" d="M281.845,457.119h-2.534l-2.758-4.436-0.943.677v3.759h-2.232V446.593h2.232v4.816l0.878-1.238,2.852-3.578h2.477l-3.672,4.658Z" transform="translate(0.285)"/><rect class="dl" x="298.192" y="427.627" width="49.153" height="47.514"/><path class="b" d="M314.019,457.119h-2.232V448.45h-2.858v-1.857h7.949v1.857h-2.858v8.669Z" transform="translate(0.285)"/><path class="b" d="M325.411,457.119l-2.534-8.259h-0.064q0.136,2.521.137,3.362v4.9h-1.994V446.593h3.038l2.491,8.05h0.043l2.643-8.05h3.038v10.526h-2.08v-4.982c0-.235,0-0.507.011-0.813s0.039-1.123.1-2.448h-0.064l-2.715,8.244h-2.045Z" transform="translate(0.285)"/><rect class="dm" x="347.345" y="427.627" width="49.972" height="47.514"/><path class="b" d="M364.721,457.119h-2.232V448.45H359.63v-1.857h7.949v1.857h-2.858v8.669Z" transform="translate(0.285)"/><path class="b" d="M381.211,451.842a5.712,5.712,0,0,1-1.3,4.018,5.62,5.62,0,0,1-7.431,0,5.739,5.739,0,0,1-1.3-4.032,5.656,5.656,0,0,1,1.3-4.014,4.858,4.858,0,0,1,3.727-1.387,4.789,4.789,0,0,1,3.711,1.4A5.723,5.723,0,0,1,381.211,451.842Zm-7.682,0a4.4,4.4,0,0,0,.669,2.656,2.342,2.342,0,0,0,2,.894q2.67,0,2.671-3.55t-2.656-3.558a2.358,2.358,0,0,0-2.009.9A4.38,4.38,0,0,0,373.529,451.842Z" transform="translate(0.285)"/><rect class="dn" x="397.316" y="427.627" width="49.153" height="47.514"/><path class="b" d="M415.589,457.119h-2.232V448.45H410.5v-1.857h7.949v1.857h-2.858v8.669Z" transform="translate(0.285)"/><path class="b" d="M429.8,449.876a3.215,3.215,0,0,1-1.062,2.6,4.539,4.539,0,0,1-3.021.9h-0.958v3.744h-2.231V446.593h3.362a4.472,4.472,0,0,1,2.912.824A3.005,3.005,0,0,1,429.8,449.876Zm-5.04,1.67h0.734a2.445,2.445,0,0,0,1.541-.406,1.425,1.425,0,0,0,.512-1.185,1.462,1.462,0,0,0-.429-1.159,2.006,2.006,0,0,0-1.343-.374h-1.016v3.124Z" transform="translate(0.285)"/><rect class="do" x="446.469" y="427.627" width="49.972" height="47.514"/><path class="b" d="M465.573,457.119h-2.232V448.45h-2.858v-1.857h7.949v1.857h-2.858v8.669Z" transform="translate(0.285)"/><path class="b" d="M476.57,457.119h-2.232V448.45h-2.858v-1.857h7.949v1.857H476.57v8.669Z" transform="translate(0.285)"/><rect class="dp" x="496.441" y="427.627" width="49.153" height="47.514"/><path class="b" d="M514.559,457.119h-2.232V448.45h-2.858v-1.857h7.949v1.857h-2.858v8.669Z" transform="translate(0.285)"/><path class="b" d="M530,457.119h-2.549l-2.447-3.981-2.448,3.981H520.17l3.492-5.429-3.269-5.1h2.462l2.269,3.787,2.225-3.787h2.4l-3.3,5.22Z" transform="translate(0.285)"/><rect class="dq" x="545.593" y="427.627" width="49.972" height="47.514"/><path class="b" d="M564.492,457.119H562.26V448.45H559.4v-1.857h7.949v1.857h-2.858v8.669Z" transform="translate(0.285)"/><path class="b" d="M574.7,450.927l2.2-4.334h2.405l-3.492,6.43v4.1H573.6v-4.024l-3.492-6.5h2.419Z" transform="translate(0.285)"/><rect class="dr" y="475.141" width="49.972" height="47.514"/><path class="b" d="M21.928,504.634H19.379l-2.448-3.981-2.448,3.981H12.093l3.492-5.429-3.269-5.1h2.462l2.268,3.787,2.225-3.787h2.4l-3.305,5.22Z" transform="translate(0.285)"/><path class="b" d="M32.155,504.634l-0.763-2.506H27.554l-0.763,2.506h-2.4L28.1,494.064H30.83l3.73,10.569h-2.4Zm-1.3-4.378Q29.8,496.85,29.667,496.4t-0.191-.706q-0.237.921-1.361,4.558h2.743Z" transform="translate(0.285)"/><rect class="ds" x="49.972" y="475.141" width="49.153" height="47.514"/><path class="b" d="M71.683,504.634H69.134l-2.448-3.981-2.448,3.981H61.847l3.492-5.429-3.269-5.1h2.462l2.268,3.787,2.225-3.787h2.4l-3.305,5.22Z" transform="translate(0.285)"/><path class="b" d="M75.465,494.107h3.276a6.312,6.312,0,0,1,3.25.637A2.219,2.219,0,0,1,83,496.771a2.552,2.552,0,0,1-.443,1.548,1.77,1.77,0,0,1-1.177.728v0.071a2.322,2.322,0,0,1,1.444.836,2.717,2.717,0,0,1,.443,1.627,2.681,2.681,0,0,1-1.041,2.246,4.5,4.5,0,0,1-2.826.807H75.465V494.107Zm2.232,4.169h1.3A2.368,2.368,0,0,0,80.307,498a1.047,1.047,0,0,0,.407-0.929,0.928,0.928,0,0,0-.443-0.867,2.841,2.841,0,0,0-1.4-.263H77.7v2.34Zm0,1.771v2.744h1.455a2.157,2.157,0,0,0,1.361-.354,1.3,1.3,0,0,0,.439-1.08q0-1.31-1.872-1.311H77.7Z" transform="translate(0.285)"/><rect class="dt" x="99.124" y="475.141" width="49.972" height="47.514"/><path class="b" d="M121.564,504.634h-2.549l-2.448-3.981-2.448,3.981h-2.391l3.492-5.429-3.269-5.1h2.462l2.268,3.787,2.225-3.787h2.4l-3.305,5.22Z" transform="translate(0.285)"/><path class="b" d="M129.818,495.813a2.273,2.273,0,0,0-1.951.947,4.406,4.406,0,0,0-.691,2.639q0,3.52,2.642,3.521a8.364,8.364,0,0,0,2.686-.554v1.871a7.454,7.454,0,0,1-2.895.54,4.414,4.414,0,0,1-3.514-1.393,5.9,5.9,0,0,1-1.217-4,6.528,6.528,0,0,1,.6-2.876,4.311,4.311,0,0,1,1.717-1.894,5.076,5.076,0,0,1,2.624-.659,7.089,7.089,0,0,1,3.082.741l-0.72,1.814a12.18,12.18,0,0,0-1.188-.489A3.558,3.558,0,0,0,129.818,495.813Z" transform="translate(0.285)"/><rect class="du" x="149.096" y="475.141" width="49.153" height="47.514"/><path class="b" d="M171.767,504.634h-2.549l-2.448-3.981-2.448,3.981h-2.391l3.492-5.429-3.269-5.1h2.462l2.268,3.787,2.225-3.787h2.4l-3.305,5.22Z" transform="translate(0.285)"/><path class="b" d="M181.612,504.634h-6.062V494.107h6.063v1.829h-3.831v2.311h3.564v1.829h-3.564v2.715h3.831v1.843Z" transform="translate(0.285)"/><rect class="dv" x="198.249" y="475.141" width="49.972" height="47.514"/><path class="b" d="M219.882,504.634h-2.549l-2.448-3.981-2.448,3.981h-2.391l3.492-5.429-3.269-5.1h2.462L215,497.895l2.225-3.787h2.4l-3.305,5.22Z" transform="translate(0.285)"/><path class="b" d="M232.291,504.634h-2.225v-4.543H225.9v4.543h-2.232V494.107H225.9v4.126h4.169v-4.126h2.225v10.526Z" transform="translate(0.285)"/><rect class="dw" x="248.22" y="475.141" width="49.972" height="47.514"/><path class="b" d="M270.25,504.634H267.7l-2.448-3.981-2.448,3.981h-2.391l3.492-5.429-3.269-5.1H263.1l2.268,3.787,2.225-3.787H270l-3.305,5.22Z" transform="translate(0.285)"/><path class="b" d="M282.5,504.634h-2.534l-2.758-4.436-0.943.677v3.759h-2.232V494.107h2.232v4.816l0.878-1.238L280,494.107h2.477l-3.672,4.658Z" transform="translate(0.285)"/><rect class="dx" x="298.192" y="475.141" width="49.153" height="47.514"/><path class="b" d="M317.815,504.634h-2.549l-2.447-3.981-2.448,3.981H307.98l3.492-5.429-3.269-5.1h2.462l2.269,3.787,2.225-3.787h2.4l-3.3,5.22Z" transform="translate(0.285)"/><path class="b" d="M326.055,504.634l-2.534-8.259h-0.064q0.136,2.521.137,3.362v4.9H321.6V494.107h3.038l2.491,8.05h0.043l2.643-8.05h3.038v10.526h-2.08v-4.982c0-.235,0-0.507.011-0.813s0.039-1.123.1-2.448h-0.064l-2.715,8.244h-2.045Z" transform="translate(0.285)"/><rect class="dy" x="347.345" y="475.141" width="49.972" height="47.514"/><path class="b" d="M368.529,504.634H365.98l-2.447-3.981-2.448,3.981h-2.391l3.492-5.429-3.269-5.1h2.462l2.269,3.787,2.225-3.787h2.4l-3.3,5.22Z" transform="translate(0.285)"/><path class="b" d="M381.866,499.356a5.712,5.712,0,0,1-1.3,4.018,5.62,5.62,0,0,1-7.431,0,5.739,5.739,0,0,1-1.3-4.032,5.656,5.656,0,0,1,1.3-4.014,4.858,4.858,0,0,1,3.727-1.387,4.789,4.789,0,0,1,3.711,1.4A5.723,5.723,0,0,1,381.866,499.356Zm-7.682,0a4.4,4.4,0,0,0,.669,2.656,2.342,2.342,0,0,0,2,.894q2.67,0,2.671-3.55T376.87,495.8a2.358,2.358,0,0,0-2.009.9A4.38,4.38,0,0,0,374.185,499.356Z" transform="translate(0.285)"/><rect class="dz" x="397.316" y="475.141" width="49.153" height="47.514"/><path class="b" d="M419.4,504.634h-2.549l-2.447-3.981-2.448,3.981h-2.391l3.492-5.429-3.269-5.1h2.462l2.269,3.787,2.225-3.787h2.4l-3.3,5.22Z" transform="translate(0.285)"/><path class="b" d="M430.452,497.391a3.215,3.215,0,0,1-1.062,2.6,4.539,4.539,0,0,1-3.021.9h-0.958v3.744h-2.231V494.107h3.362a4.472,4.472,0,0,1,2.912.824A3.005,3.005,0,0,1,430.452,497.391Zm-5.04,1.67h0.734a2.445,2.445,0,0,0,1.541-.406,1.425,1.425,0,0,0,.512-1.185,1.462,1.462,0,0,0-.429-1.159,2.006,2.006,0,0,0-1.343-.374h-1.016v3.124Z" transform="translate(0.285)"/><rect class="ea" x="446.469" y="475.141" width="49.972" height="47.514"/><path class="b" d="M469.382,504.634h-2.549l-2.447-3.981-2.448,3.981h-2.391l3.492-5.429-3.269-5.1h2.462l2.269,3.787,2.225-3.787h2.4l-3.3,5.22Z" transform="translate(0.285)"/><path class="b" d="M477.226,504.634h-2.232v-8.669h-2.858v-1.857h7.949v1.857h-2.858v8.669Z" transform="translate(0.285)"/><rect class="eb" x="496.441" y="475.141" width="49.153" height="47.514"/><path class="b" d="M518.355,504.634h-2.549l-2.447-3.981-2.448,3.981h-2.391l3.492-5.429-3.269-5.1h2.462l2.269,3.787,2.225-3.787h2.4l-3.3,5.22Z" transform="translate(0.285)"/><path class="b" d="M530.648,504.634H528.1l-2.447-3.981-2.448,3.981h-2.391l3.492-5.429-3.269-5.1H523.5l2.269,3.787,2.225-3.787h2.4l-3.3,5.22Z" transform="translate(0.285)"/><rect class="ec" x="545.593" y="475.141" width="49.972" height="47.514"/><path class="b" d="M568.3,504.634h-2.549l-2.447-3.981-2.448,3.981h-2.391l3.492-5.429-3.269-5.1h2.462l2.269,3.787,2.225-3.787h2.4l-3.3,5.22Z" transform="translate(0.285)"/><path class="b" d="M575.36,498.441l2.2-4.334h2.405l-3.492,6.43v4.1h-2.218v-4.024l-3.492-6.5h2.419Z" transform="translate(0.285)"/><rect class="ed" y="522.655" width="49.972" height="47.514"/><path class="b" d="M17.014,545.955l2.2-4.334h2.4l-3.492,6.43v4.1H15.9v-4.024l-3.492-6.5h2.419Z" transform="translate(0.285)"/><path class="b" d="M31.841,552.147l-0.763-2.506H27.24l-0.763,2.506h-2.4l3.715-10.569h2.729l3.73,10.569h-2.4Zm-1.3-4.378q-1.058-3.406-1.191-3.852t-0.191-.706q-0.237.921-1.361,4.558h2.743Z" transform="translate(0.285)"/><rect class="ee" x="49.972" y="522.655" width="49.153" height="47.514"/><path class="b" d="M66.768,545.955l2.2-4.334h2.4l-3.492,6.43v4.1H65.659v-4.024l-3.492-6.5h2.419Z" transform="translate(0.285)"/><path class="b" d="M75.151,541.621h3.276a6.312,6.312,0,0,1,3.25.637,2.219,2.219,0,0,1,1.012,2.027,2.552,2.552,0,0,1-.443,1.548,1.77,1.77,0,0,1-1.177.728v0.071a2.322,2.322,0,0,1,1.444.836,2.717,2.717,0,0,1,.443,1.627,2.681,2.681,0,0,1-1.041,2.246,4.5,4.5,0,0,1-2.826.807H75.151V541.621Zm2.232,4.169h1.3a2.368,2.368,0,0,0,1.314-.281,1.047,1.047,0,0,0,.407-0.929,0.928,0.928,0,0,0-.443-0.867,2.841,2.841,0,0,0-1.4-.263H77.383v2.34Zm0,1.771V550.3h1.455a2.157,2.157,0,0,0,1.361-.354,1.3,1.3,0,0,0,.439-1.08q0-1.31-1.872-1.311H77.383Z" transform="translate(0.285)"/><rect class="ef" x="99.124" y="522.655" width="49.972" height="47.514"/><path class="b" d="M116.65,545.955l2.2-4.334h2.4l-3.492,6.43v4.1h-2.217v-4.024l-3.492-6.5h2.419Z" transform="translate(0.285)"/><path class="b" d="M129.5,543.327a2.273,2.273,0,0,0-1.951.947,4.406,4.406,0,0,0-.691,2.639q0,3.52,2.642,3.521a8.364,8.364,0,0,0,2.686-.554v1.871a7.454,7.454,0,0,1-2.895.54,4.414,4.414,0,0,1-3.514-1.393,5.9,5.9,0,0,1-1.217-4,6.528,6.528,0,0,1,.6-2.876,4.311,4.311,0,0,1,1.717-1.894,5.076,5.076,0,0,1,2.624-.659,7.089,7.089,0,0,1,3.082.741l-0.72,1.814a12.18,12.18,0,0,0-1.188-.489A3.558,3.558,0,0,0,129.5,543.327Z" transform="translate(0.285)"/><rect class="eg" x="149.096" y="522.655" width="49.153" height="47.514"/><path class="b" d="M166.839,545.955l2.2-4.334h2.4l-3.492,6.43v4.1H165.73v-4.024l-3.492-6.5h2.419Z" transform="translate(0.285)"/><path class="b" d="M181.285,552.147h-6.062V541.621h6.063v1.829h-3.831v2.311h3.564v1.829h-3.564V550.3h3.831v1.843Z" transform="translate(0.285)"/><rect class="eh" x="198.249" y="522.655" width="49.972" height="47.514"/><path class="b" d="M214.956,545.955l2.2-4.334h2.4l-3.492,6.43v4.1h-2.217v-4.024l-3.492-6.5h2.419Z" transform="translate(0.285)"/><path class="b" d="M231.964,552.147h-2.225V547.6H225.57v4.543h-2.232V541.621h2.232v4.126h4.169v-4.126h2.225v10.526Z" transform="translate(0.285)"/><rect class="ei" x="248.22" y="522.655" width="49.972" height="47.514"/><path class="b" d="M265.336,545.955l2.2-4.334h2.4l-3.492,6.43v4.1h-2.217v-4.024l-3.492-6.5h2.419Z" transform="translate(0.285)"/><path class="b" d="M282.188,552.147h-2.534l-2.758-4.436-0.943.677v3.759H273.72V541.621h2.232v4.816l0.878-1.238,2.852-3.578h2.477l-3.672,4.658Z" transform="translate(0.285)"/><rect class="ej" x="298.192" y="522.655" width="49.153" height="47.514"/><path class="b" d="M312.9,545.955l2.2-4.334H317.5l-3.492,6.43v4.1h-2.218v-4.024l-3.492-6.5h2.419Z" transform="translate(0.285)"/><path class="b" d="M325.741,552.147l-2.534-8.259h-0.064q0.136,2.521.137,3.362v4.9h-1.994V541.621h3.038l2.491,8.05h0.043l2.643-8.05h3.038v10.526h-2.08v-4.982c0-.235,0-0.507.011-0.813s0.039-1.123.1-2.448H330.5l-2.715,8.244h-2.045Z" transform="translate(0.285)"/><rect class="ek" x="347.345" y="522.655" width="49.972" height="47.514"/><path class="b" d="M363.615,545.955l2.2-4.334h2.405l-3.492,6.43v4.1h-2.218v-4.024l-3.492-6.5h2.419Z" transform="translate(0.285)"/><path class="b" d="M381.553,546.87a5.712,5.712,0,0,1-1.3,4.018,5.62,5.62,0,0,1-7.431,0,5.739,5.739,0,0,1-1.3-4.032,5.656,5.656,0,0,1,1.3-4.014,4.858,4.858,0,0,1,3.727-1.387,4.789,4.789,0,0,1,3.711,1.4A5.723,5.723,0,0,1,381.553,546.87Zm-7.682,0a4.4,4.4,0,0,0,.669,2.656,2.342,2.342,0,0,0,2,.894q2.67,0,2.671-3.55t-2.656-3.558a2.358,2.358,0,0,0-2.009.9A4.38,4.38,0,0,0,373.871,546.87Z" transform="translate(0.285)"/><rect class="el" x="397.316" y="522.655" width="49.153" height="47.514"/><path class="b" d="M414.471,545.955l2.2-4.334h2.405l-3.492,6.43v4.1h-2.218v-4.024l-3.492-6.5h2.419Z" transform="translate(0.285)"/><path class="b" d="M430.126,544.9a3.215,3.215,0,0,1-1.062,2.6,4.539,4.539,0,0,1-3.021.9h-0.958v3.744h-2.231V541.621h3.362a4.472,4.472,0,0,1,2.912.824A3.005,3.005,0,0,1,430.126,544.9Zm-5.04,1.67h0.734a2.445,2.445,0,0,0,1.541-.406,1.425,1.425,0,0,0,.512-1.185,1.462,1.462,0,0,0-.429-1.159,2.006,2.006,0,0,0-1.343-.374h-1.016v3.124Z" transform="translate(0.285)"/><rect class="em" x="446.469" y="522.655" width="49.972" height="47.514"/><path class="b" d="M464.455,545.955l2.2-4.334h2.405l-3.492,6.43v4.1h-2.218v-4.024l-3.492-6.5h2.419Z" transform="translate(0.285)"/><path class="b" d="M476.9,552.147h-2.232v-8.669h-2.858v-1.857h7.949v1.857H476.9v8.669Z" transform="translate(0.285)"/><rect class="en" x="496.441" y="522.655" width="49.153" height="47.514"/><path class="b" d="M513.44,545.955l2.2-4.334h2.405l-3.492,6.43v4.1h-2.218v-4.024l-3.492-6.5h2.419Z" transform="translate(0.285)"/><path class="b" d="M530.335,552.147h-2.549l-2.447-3.981-2.448,3.981H520.5l3.492-5.429-3.269-5.1h2.462l2.269,3.787,2.225-3.787h2.4l-3.3,5.22Z" transform="translate(0.285)"/><rect class="eo" x="545.593" y="522.655" width="49.972" height="47.514"/><path class="b" d="M563.388,545.955l2.2-4.334h2.405l-3.492,6.43v4.1h-2.218v-4.024l-3.492-6.5h2.419Z" transform="translate(0.285)"/><path class="b" d="M575.047,545.955l2.2-4.334h2.405l-3.492,6.43v4.1h-2.218v-4.024l-3.492-6.5h2.419Z" transform="translate(0.285)"/></svg>