<?xml version="1.0" encoding="utf-8"?>
<svg version="1.1" id="Layer_1" xmlns="http://www.w3.org/2000/svg" xmlns:xlink="http://www.w3.org/1999/xlink" x="0px" y="0px"
	 viewBox="0 0 567 567" xml:space="preserve">
<style type="text/css">
	.st0{fill:#ED1C24;}
	.st1{fill:#00A651;}
	.st2{fill:#F7941D;}
	.st3{fill:#939598;}

	.u0 #u1 path, .u0 #u2 path, .u0 #u3 path, .u0 #u4 path, .u0 #u5 path {
		fill:none;
	}

	.u1 #u2 path, .u1 #u3 path, .u1 #u4 path, .u1 #u5 path {
	  fill:none;
	}
	.u2 #u3 path, .u2 #u4 path, .u2 #u5 path {
	  fill:none;
	}
	.u3 #u4 path, .u3 #u5 path {
	  fill:none;
	}
	.u4 #u5 path {
		fill:none;
	}

	.k0 #k1 path, .k0 #k2 path, .k0 #k3 path, .k0 #k4 path, .k0 #k5 path {
		fill:none;
	}
	.k1 #k2 path, .k1 #k3 path, .k1 #k4 path, .k1 #k5 path {
		fill:none;
	}
	.k2 #k3 path, .k2 #k4 path, .k2 #k5 path {
		fill:none;
	}
	.k3 #k4 path, .k3 #k5 path {
		fill:none;
	}
	.k4 #k5 path {
		fill:none;
	}

	.t0 #t1 path, .t0 #t2 path, .t0 #t3 path, .t0 #t4 path, .t0 #t5 path {
		fill:none;
	}
	.t1 #t2 path, .t1 #t3 path, .t1 #t4 path, .t1 #t5 path {
		fill:none;
	}
	.t2 #t3 path, .t2 #t4 path, .t2 #t5 path {
		fill:none;
	}
	.t3 #t4 path, .t3 #t5 path {
		fill:none;
	}
	.t4 #t5 path {
		fill:none;
	}
</style>
<g id="all">
	<g id="k">
		<g id="k5">
			<path class="st0" d="M350.6,72.8C276.2,49,217.9,73.4,212,73.4c-5.7,0-10.9-3.4-13.1-8.8c-3.2-7.7,0.9-16.4,8.9-19
				c48.2-15.3,101.5-15.8,151.3,0c8,2.5,12.1,11.3,8.9,19C365.1,71.5,357.6,75,350.6,72.8z"/>
			<path class="st0" d="M391.2,507c-10.2,0-12.8-9.5-13-9.7c-2.7-6.5,0.1-13.9,6.4-17.2c40.7-20.9,74.6-54.9,95.5-95.5
				c5.9-11.5,22.2-8.6,26,2c1.3,3.5,1.1,7.3-0.6,10.6c-23.7,46.2-62.2,84.6-108.3,108.3C395.3,506.5,393.3,507,391.2,507z"/>
			<path class="st0" d="M480.1,182.3c-20.9-40.7-54.9-74.6-95.5-95.5c-13.2-6.8-7.2-26.9,6.6-26.9c2.1,0,4.1,0.5,6,1.5
				c46.2,23.7,84.6,62.2,108.3,108.3c1.7,3.3,1.9,7.1,0.6,10.6c-2.4,6.6-8.3,8-8.8,8.4C495.7,189.4,483.4,188.7,480.1,182.3z"/>
			<path class="st0" d="M207.8,521.2c-3.9-1.2-6.9-3.9-8.6-7.6c-5.2-11.1,5.4-23.2,17.1-19.5c75.3,24,131.7-0.7,138.6-0.7
				c5.7,0,10.9,3.4,13.1,8.8c3.2,7.7-0.9,16.4-8.9,19C311,536.5,257.7,537.1,207.8,521.2z"/>
		</g>
		<g id="k4">
			<path class="st0" d="M336.3,109.9c-33.7-10.3-70.8-10.6-105.6,0c-12.1,3.7-21.1-10.2-16.5-20c1.7-3.5,4.6-6.1,8.4-7.2
				c39.1-11.8,81.8-12.1,121.8,0c3.7,1.1,6.7,3.7,8.4,7.2C357.5,99.9,348.2,113.5,336.3,109.9z"/>
			<path class="st0" d="M375.9,470.2c-13.7,0-19.8-19.8-6.8-26.7c31.6-17,57.3-42.7,74.3-74.3c2.4-4.5,7-7.2,11.9-7.2
				c3.4,0,5.6,1.3,6.5,1.6c7.1,3,10.6,11.5,6.8,18.7c-19.7,36.9-49.6,66.8-86.5,86.5C380.2,469.6,378.1,470.2,375.9,470.2z"/>
			<path class="st0" d="M443.4,197.8c-17-31.6-42.7-57.3-74.3-74.3c-6.2-3.3-8.8-10.6-6.2-17l0.6-1.4c3.1-7.4,11.7-10.5,18.7-6.8
				c36.9,19.7,66.8,49.6,86.5,86.4c1.8,3.3,2.1,7.1,0.8,10.7c-2.4,6.6-8.6,8.3-8.9,8.5C458.8,204.7,446.7,204,443.4,197.8z"/>
			<path class="st0" d="M223.3,484.5c-3.9-1.2-7-3.8-8.8-7.5c-4.5-9.4,2.4-20.3,12.8-20.3c5.6,0,49.8,18.1,108.3,0.6
				c11.7-3.5,22,8.6,16.8,19.7c-1.8,3.7-4.9,6.4-8.8,7.5C305.2,496,263,496.3,223.3,484.5z"/>
		</g>
		<g id="k3">
			<path class="st0" d="M348.2,424.9l-0.5-1.3c-2.6-6.3-0.1-13.5,5.8-16.9c22.2-12.6,40.6-31,53.2-53.2c2.4-4.2,6.9-6.9,11.8-6.9
				c3.4,0,5.6,1.3,6.5,1.6c7.7,3.2,10.4,12.2,6.5,19.2c-15.2,26.7-37.3,48.9-64.1,64.1C360.3,435.5,351.3,432.4,348.2,424.9z"/>
			<path class="st0" d="M321,146.8c-42.3-11.6-73.9,0.5-78.8,0.5c-15.4,0-19.8-23.4-4.1-27.8c29.4-8.1,61.1-8.2,90.7,0
				c3.7,1,6.9,3.6,8.6,7.1C342.1,136.2,333.5,150.2,321,146.8z"/>
			<path class="st0" d="M238.1,447.4c-3.7-1-6.9-3.6-8.6-7.1c-4.8-9.8,3.9-23.6,16.3-20.2c42.5,11.7,73.8-0.5,78.8-0.5
				c10.3,0,12.8,9.4,13,9.6c3.2,7.7-1.2,16-8.9,18.1C299.3,455.6,267.7,455.6,238.1,447.4z"/>
			<path class="st0" d="M406.7,213.5c-12.6-22.2-31-40.6-53.2-53.2c-5.9-3.4-8.4-10.6-5.8-16.9c0.1-0.1,2.9-9.6,13-9.6
				c2.3,0,4.7,0.6,6.7,1.8c26.7,15.2,48.9,37.3,64.1,64.1c3.9,6.9,1.2,16-6.5,19.2l-1.3,0.6C417.2,221.9,410,219.3,406.7,213.5z"/>
		</g>
		<g id="k2">
			<path class="st0" d="M345.3,396.2c-13.4,0-19.5-18.8-7.6-26.3c12.9-8.1,24.1-19.3,32.2-32.2c6.8-10.8,22.3-6.7,25.6,3.5
				c1.2,3.8,0.7,7.9-1.4,11.2c-10.5,16.8-24.9,31.2-41.7,41.7C350.3,395.5,347.8,396.2,345.3,396.2z"/>
			<path class="st0" d="M306.5,184c-7.5-1.7-15.2-2.6-23-2.6c-15,0-22.3,2.9-25.9,2.9c-9.9,0-12.9-9.6-13-9.7
				c-3.2-7.7,1.3-16.4,9.3-18.3c19.4-4.5,39.8-4.5,59.2,0c8.1,1.9,12.5,10.6,9.3,18.3l-0.5,1.2C319.4,181.8,313,185.5,306.5,184z"/>
			<path class="st0" d="M253.9,410.5c-3.8-0.9-7.1-3.4-8.9-6.9c-5.1-9.9,3.8-23.4,15.5-20.7c15.1,3.5,30.9,3.5,46,0
				c6.5-1.5,13,2.3,15.4,8.2l0.5,1.2c3.2,7.7-1.3,16.4-9.3,18.3C293.9,414.9,273.5,415,253.9,410.5z"/>
			<path class="st0" d="M369.9,229.2c-8.1-12.9-19.3-24.1-32.2-32.2c-5.6-3.5-7.9-10.5-5.4-16.6l0.6-1.3c3.2-7.7,12.5-10.7,19.6-6.3
				c16.8,10.5,31.2,24.9,41.7,41.7c2.1,3.4,2.6,7.5,1.4,11.2c-2.2,6.9-8.7,8.7-9,8.9C384.9,235.3,373.5,235,369.9,229.2z"/>
		</g>
		<g id="k1">
			<path class="st0" d="M329.8,358.7c-12.9,0-19.2-17.6-8.6-25.6c4.5-3.4,8.4-7.4,11.8-11.8c7.4-9.7,22.3-5.4,25.2,5
				c1.1,4.1,0.3,8.4-2.3,11.8c-5.1,6.8-11.2,12.9-18,18C335.6,357.8,332.8,358.7,329.8,358.7z"/>
			<path class="st0" d="M291.8,221.7c-5.5-0.7-11.1-0.7-16.6,0c-6.3,0.8-12.2-2.5-14.5-8.1c-0.1-0.6-3.7-6.4,0.2-13.2
				c2.1-3.7,5.7-6.1,9.9-6.7c8.4-1.2,17.1-1.2,25.6,0c8.8,1.2,14,10.4,10.6,18.5l-0.6,1.4C304,219.1,298.1,222.5,291.8,221.7z"/>
			<path class="st0" d="M270.7,373.3c-8.8-1.2-14-10.4-10.6-18.5c0.1-0.2,2.8-9.6,13.2-9.6c2.1,0,4.5,0.7,10.2,0.7
				c5.8,0,8-0.7,10.2-0.7c10.5,0,13,9.4,13.2,9.6c3.4,8.2-1.9,17.3-10.6,18.5C288.1,374.4,279.4,374.5,270.7,373.3z"/>
			<path class="st0" d="M333.1,245.7c-3.4-4.5-7.4-8.4-11.8-11.8c-5-3.8-6.8-10.4-4.5-16l0.6-1.4c2.1-5,7-8.3,12.5-8.3
				c3,0,5.8,1,8.2,2.8c6.8,5.1,12.9,11.2,18,18c5.3,7.1,2.6,17.3-5.5,20.6l-1.4,0.6C343.3,252.5,336.8,250.5,333.1,245.7z"/>
		</g>
	</g>
	<g id="t">
		<g id="t5">
			<path class="st1" d="M45.9,359.8c-15.6-48.6-16.2-102.4,0-152.7c1.8-5.7,7-9.5,12.9-9.5c3.4,0,5.6,1.3,6.5,1.6
				c6.4,2.7,9.8,9.9,7.7,16.4c-13.9,43.2-14.4,91,0,135.6c2.1,6.6-1.3,13.8-7.7,16.4l-1.3,0.6C56.6,371.3,48.4,367.4,45.9,359.8z"/>
			<path class="st1" d="M207.8,521.2c-3.9-1.2-6.9-3.9-8.6-7.6c-5.2-11.1,5.4-23.2,17.1-19.5c75.3,24,131.7-0.7,138.6-0.7
				c5.7,0,10.9,3.4,13.1,8.8c3.2,7.7-0.9,16.4-8.9,19C311,536.5,257.7,537.1,207.8,521.2z"/>
			<path class="st1" d="M503,368.3l-1.3-0.5c-6.4-2.7-9.8-9.9-7.7-16.4c13.9-43.3,14.3-91.1,0-135.6c-2.1-6.6,1.3-13.8,7.7-16.4
				c0.8-0.3,3-1.6,6.5-1.6c5.9,0,11.1,3.8,12.9,9.5c15.6,48.6,16.2,102.4,0,152.7C518.6,367.4,510.3,371.3,503,368.3z"/>
		</g>
		<g id="t4">
			<path class="st1" d="M82.7,344.4c-11.9-39.1-12.1-81.9,0-121.8c1.8-5.8,7-9.7,12.9-9.7c3.4,0,5.6,1.3,6.5,1.6
				c6.4,2.7,9.8,9.6,7.8,16.2c-10.3,33.8-10.6,70.8,0,105.6c2,6.6-1.3,13.5-7.8,16.2l-1.3,0.5C93.4,356,85.1,352.2,82.7,344.4z"/>
			<path class="st1" d="M457.1,336.3c10.3-34,10.5-71,0-105.6c-2-6.6,1.3-13.5,7.8-16.2c0.8-0.3,3-1.6,6.5-1.6
				c6,0,11.2,3.9,12.9,9.7c11.8,39,12.2,81.7,0,121.8C478.9,362,452,353,457.1,336.3z"/>
			<path class="st1" d="M223.3,484.5c-3.9-1.2-7-3.8-8.8-7.5c-4.5-9.4,2.4-20.3,12.8-20.3c5.6,0,49.8,18.1,108.3,0.6
				c11.7-3.5,22,8.6,16.8,19.7c-1.8,3.7-4.9,6.4-8.8,7.5C305.2,496,263,496.3,223.3,484.5z"/>
		</g>
		<g id="t3">
			<path class="st1" d="M238.1,447.4c-3.7-1-6.9-3.6-8.6-7.1c-4.8-9.8,3.9-23.6,16.3-20.2c42.5,11.7,73.8-0.5,78.8-0.5
				c10.3,0,12.8,9.4,13,9.6c3.2,7.7-1.2,16-8.9,18.1C299.3,455.6,267.7,455.6,238.1,447.4z"/>
			<path class="st1" d="M119.5,328.8c-8.1-29.4-8.2-61.1,0-90.7c1.6-5.8,7-9.9,13-9.9c3.4,0,5.6,1.3,6.5,1.6
				c6.3,2.6,9.6,9.5,7.8,16.1c-6.7,24.4-6.8,50.6,0,75.2c1.8,6.6-1.5,13.5-7.8,16.1l-1.3,0.6C130,340.9,121.6,336.5,119.5,328.8z"/>
			<path class="st1" d="M429.3,337.7l-1.3-0.6c-6.3-2.6-9.6-9.5-7.8-16.1c6.7-24.4,6.8-50.6,0-75.2c-1.8-6.6,1.5-13.5,7.8-16.1
				c0.8-0.3,3-1.6,6.5-1.6c6,0,11.4,4.1,13,9.9c8.1,29.2,8.3,60.8,0,90.7C445.3,336.5,436.9,340.9,429.3,337.7z"/>
		</g>
		<g id="t2">
			<path class="st1" d="M253.9,410.5c-3.8-0.9-7.1-3.4-8.9-6.9c-5.1-9.9,3.8-23.4,15.5-20.7c15.1,3.5,30.9,3.5,46,0
				c6.5-1.5,13,2.3,15.4,8.2l0.5,1.2c3.2,7.7-1.3,16.4-9.3,18.3C293.9,414.9,273.5,415,253.9,410.5z"/>
			<path class="st1" d="M156.4,313c-4.5-19.4-4.5-39.8,0-59.2c1.9-8.2,10.6-12.5,18.3-9.3l1.2,0.5c6.2,2.6,9.6,9.1,8.2,15.4
				c-3.5,15.1-3.5,30.9,0,46c1.5,6.4-2,12.9-8.2,15.4l-1.2,0.5C167,325.6,158.3,321.2,156.4,313z"/>
			<path class="st1" d="M392.2,322.4l-1.2-0.5c-6.2-2.6-9.6-9.1-8.2-15.4c3.5-15.1,3.5-30.9,0-46c-1.5-6.4,2-12.9,8.2-15.4l1.2-0.5
				c7.6-3.2,16.4,1.2,18.3,9.3c4.4,19.1,4.6,39.5,0,59.2C408.6,321.2,399.9,325.5,392.2,322.4z"/>
		</g>
		<g id="t1">
			<path class="st1" d="M270.7,373.3c-8.8-1.2-14-10.4-10.6-18.5c0.1-0.2,2.8-9.6,13.2-9.6c2.1,0,4.5,0.7,10.2,0.7
				c5.8,0,8-0.7,10.2-0.7c10.5,0,13,9.4,13.2,9.6c3.4,8.2-1.9,17.3-10.6,18.5C288.1,374.4,279.4,374.5,270.7,373.3z"/>
			<path class="st1" d="M354.8,306.9l-1.4-0.6c-5.6-2.3-9-8.3-8.1-14.5c0.4-2.7,0.6-5.5,0.6-8.3s-0.2-5.6-0.6-8.3
				c-0.8-6.2,2.5-12.2,8.1-14.5c0.9-0.3,3.1-1.6,6.5-1.6c6.7,0,12.4,5,13.3,11.7c1.2,8.2,1.2,16.8,0,25.6
				C372.3,302.9,363.1,310.3,354.8,306.9z"/>
			<path class="st1" d="M193.7,296.2c-1.2-8.3-1.2-17,0-25.6c0.9-6.6,6.7-11.7,13.3-11.7c3.4,0,5.6,1.3,6.5,1.6
				c5.6,2.3,9,8.3,8.1,14.5c-0.7,5.4-0.7,11.1,0,16.6c0.8,6.2-2.5,12.2-8.1,14.5l-1.4,0.6C203.8,310.3,194.9,304.8,193.7,296.2z"/>
		</g>
	</g>
	<g id="u">
		<g id="u5">
			<path class="st2" d="M60.8,180.4c-1.3-3.5-1.1-7.3,0.6-10.6c23.7-46.2,62.2-84.6,108.3-108.3c1.9-1,3.9-1.5,6-1.5
				c13.9,0,19.7,20.1,6.6,26.9c-40.7,20.9-74.6,54.9-95.5,95.5C80.9,193.9,64.6,190.9,60.8,180.4z"/>
			<path class="st2" d="M480.1,182.3c-20.9-40.7-54.9-74.6-95.5-95.5c-13.2-6.8-7.2-26.9,6.6-26.9c2.1,0,4.1,0.5,6,1.5
				c46.2,23.7,84.6,62.2,108.3,108.3c1.7,3.3,1.9,7.1,0.6,10.6c-2.4,6.6-8.3,8-8.8,8.4C495.7,189.4,483.4,188.7,480.1,182.3z"/>
			<path class="st2" d="M169.7,505.5c-46.2-23.7-84.6-62.2-108.3-108.3c-4.9-9.5,3-20,13.3-20c5.1,0,9.7,2.8,12.1,7.4
				c20.9,40.7,54.9,74.6,95.5,95.5C198.4,488.4,185.6,513.7,169.7,505.5z"/>
		</g>
		<g id="u4">
			<path class="st2" d="M106.5,204l-1.4-0.6c-7.2-3-10.6-11.6-6.8-18.7c19.7-36.9,49.6-66.8,86.4-86.4c1.9-1,4-1.6,6.2-1.6
				c10.2,0,12.9,9.5,13,9.7c2.6,6.4,0,13.7-6.2,17c-31.6,17-57.3,42.7-74.3,74.3C120.2,204,112.9,206.7,106.5,204z"/>
			<path class="st2" d="M184.8,468.6c-36.9-19.7-66.8-49.6-86.4-86.4c-1.8-3.3-2.1-7.2-0.8-10.7c3.6-10.2,19.7-13.9,25.9-2.3
				c17,31.6,42.7,57.3,74.3,74.3C213.8,452,200.5,477,184.8,468.6z"/>
			<path class="st2" d="M443.4,197.8c-17-31.6-42.7-57.3-74.3-74.3c-6.2-3.3-8.8-10.6-6.2-17l0.6-1.4c3.1-7.4,11.7-10.5,18.7-6.8
				c36.9,19.7,66.8,49.6,86.5,86.4c1.8,3.3,2.1,7.1,0.8,10.7c-2.4,6.6-8.6,8.3-8.9,8.5C458.8,204.7,446.7,204,443.4,197.8z"/>
		</g>
		<g id="u3">
			<path class="st2" d="M199.6,431.4c-26.7-15.2-48.9-37.3-64.1-64.1c-1.9-3.4-2.3-7.5-1.1-11.1c3.5-10.3,19.5-13.8,25.8-2.8
				c12.6,22.2,31,40.6,53.2,53.2c5.9,3.4,8.4,10.6,5.8,16.9l-0.5,1.3C215.6,432.5,206.6,435.4,199.6,431.4z"/>
			<path class="st2" d="M134.5,210.7c-1.3-3.7-0.9-7.7,1.1-11.1c15.2-26.7,37.3-48.9,64.1-64.1c2.1-1.2,4.4-1.8,6.7-1.8
				c10.3,0,12.8,9.4,13,9.6c2.6,6.2,0.1,13.5-5.8,16.9c-22.2,12.6-40.6,31-53.2,53.2C154,224.4,138.1,221.2,134.5,210.7z"/>
			<path class="st2" d="M406.7,213.5c-12.6-22.2-31-40.6-53.2-53.2c-5.9-3.4-8.4-10.6-5.8-16.9c0.1-0.1,2.9-9.6,13-9.6
				c2.3,0,4.7,0.6,6.7,1.8c26.7,15.2,48.9,37.3,64.1,64.1c3.9,6.9,1.2,16-6.5,19.2l-1.3,0.6C417.2,221.9,410,219.3,406.7,213.5z"/>
		</g>
		<g id="u2">
			<path class="st2" d="M214.5,394.1c-16.8-10.5-31.2-24.9-41.7-41.7c-2.1-3.4-2.6-7.5-1.4-11.2c3.2-10.1,18.8-14.3,25.6-3.5
				c8.1,12.9,19.3,24.1,32.2,32.2c5.6,3.5,7.9,10.5,5.4,16.6l-0.6,1.3C230.9,395.6,221.6,398.6,214.5,394.1z"/>
			<path class="st2" d="M369.9,229.2c-8.1-12.9-19.3-24.1-32.2-32.2c-5.6-3.5-7.9-10.5-5.4-16.6l0.6-1.3c3.2-7.7,12.5-10.7,19.6-6.3
				c16.8,10.5,31.2,24.9,41.7,41.7c2.1,3.4,2.6,7.5,1.4,11.2c-2.2,6.9-8.7,8.7-9,8.9C384.9,235.3,373.5,235,369.9,229.2z"/>
			<path class="st2" d="M171.4,225.7c-1.2-3.8-0.7-7.9,1.4-11.2c10.5-16.8,24.9-31.2,41.7-41.7c2.1-1.3,4.6-2,7.1-2
				c10.3,0,12.8,9.4,13,9.7c2.5,6.1,0.3,13.1-5.4,16.6c-12.9,8.1-24.1,19.3-32.2,32.2C190.2,240.1,174.6,235.9,171.4,225.7z"/>
		</g>
		<g id="u1">
			<path class="st2" d="M237.1,358.7c-3,0-5.8-1-8.2-2.8c-6.8-5.1-12.9-11.2-18-18c-2.6-3.4-3.4-7.7-2.3-11.8c2-7.3,8.8-9.2,9.2-9.4
				c1.6-0.7,3.3-1,5.1-1c4.2,0,8.3,2,10.9,5.5c3.4,4.5,7.4,8.4,11.8,11.8c5,3.8,6.8,10.4,4.5,16l-0.6,1.4
				C247.5,355.5,242.6,358.7,237.1,358.7z"/>
			<path class="st2" d="M208.7,240.7c-1.1-4.1-0.3-8.4,2.3-11.8c5.1-6.8,11.2-12.9,18-18c7.1-5.4,17.3-2.6,20.6,5.5l0.6,1.4
				c2.3,5.6,0.5,12.2-4.5,16c-4.5,3.4-8.4,7.4-11.8,11.8C226.5,255.3,211.5,251.2,208.7,240.7z"/>
			<path class="st2" d="M333.1,245.7c-3.4-4.5-7.4-8.4-11.8-11.8c-5-3.8-6.8-10.4-4.5-16l0.6-1.4c2.1-5,7-8.3,12.5-8.3
				c3,0,5.8,1,8.2,2.8c6.8,5.1,12.9,11.2,18,18c5.3,7.1,2.6,17.3-5.5,20.6l-1.4,0.6C343.3,252.5,336.8,250.5,333.1,245.7z"/>
		</g>
	</g>
</g>
<circle class="st3" cx="283.5" cy="283.5" r="37.9"/>
</svg>
