<svg xmlns="http://www.w3.org/2000/svg" viewBox="0 0 510.236 510.24"><defs><style>.a{fill:#ed1c24;}.b{fill:#00a651;}.c{fill:#f7941e;}.d{fill:#939598;}</style></defs><title>ukt-s</title><path class="a" d="M317.047,342.536L328.612,363.6a92.24,92.24,0,0,0,35.432-35.181L343.082,316.68A68.244,68.244,0,0,1,317.047,342.536Z" transform="translate(-28.945 -27.428)"/><path class="b" d="M372.178,257.39l-23.072,6.637a67.62,67.62,0,0,1,.1,38.188l23.07,6.644A91.832,91.832,0,0,0,372.178,257.39Z" transform="translate(-28.945 -27.428)"/><path class="b" d="M284.063,351.127a67.579,67.579,0,0,1-19.277-2.807l-6.855,23.012a91.851,91.851,0,0,0,52.1.046l-6.711-23.055A67.579,67.579,0,0,1,284.063,351.127Z" transform="translate(-28.945 -27.428)"/><path class="c" d="M224.478,315.7L203.45,327.317a92.286,92.286,0,0,0,35.944,36.215l11.687-21A68.261,68.261,0,0,1,224.478,315.7Z" transform="translate(-28.945 -27.428)"/><path class="b" d="M216.219,283.285a67.573,67.573,0,0,1,2.821-19.33l-23.056-6.691a91.751,91.751,0,0,0-.312,50.948l23.07-6.65A67.575,67.575,0,0,1,216.219,283.285Z" transform="translate(-28.945 -27.428)"/><path class="c" d="M250.686,224.256l-11.648-21.012a92.283,92.283,0,0,0-35.663,36.14l21.165,11.381A68.318,68.318,0,0,1,250.686,224.256Z" transform="translate(-28.945 -27.428)"/><path class="a" d="M284.063,215.441a67.621,67.621,0,0,1,17.747,2.372l6.5-23.115a91.842,91.842,0,0,0-50.145.472l6.619,23.08A67.683,67.683,0,0,1,284.063,215.441Z" transform="translate(-28.945 -27.428)"/><path class="c" d="M343.183,250.066l21.023-11.629a92.245,92.245,0,0,0-36.3-35.872l-11.595,21.042A68.316,68.316,0,0,1,343.183,250.066Z" transform="translate(-28.945 -27.428)"/><path class="a" d="M284.063,174.625a108.358,108.358,0,0,1,28.79,3.9l6.5-23.119a132.6,132.6,0,0,0-72.431.53l6.618,23.084A108.329,108.329,0,0,1,284.063,174.625Z" transform="translate(-28.945 -27.428)"/><path class="a" d="M336.689,378.308l11.574,21.072a133.284,133.284,0,0,0,51.393-51.029l-20.975-11.734A109.4,109.4,0,0,1,336.689,378.308Z" transform="translate(-28.945 -27.428)"/><path class="c" d="M188.766,335.434l-21.041,11.625A133.272,133.272,0,0,0,219.542,399.2l11.69-21A109.438,109.438,0,0,1,188.766,335.434Z" transform="translate(-28.945 -27.428)"/><path class="b" d="M175.4,283.285a108.266,108.266,0,0,1,4.445-30.7l-23.063-6.693a132.52,132.52,0,0,0-.332,73.625l23.078-6.652A108.2,108.2,0,0,1,175.4,283.285Z" transform="translate(-28.945 -27.428)"/><path class="c" d="M378.892,230.315l21.028-11.636a133.235,133.235,0,0,0-52.31-51.866L336,187.868A109.45,109.45,0,0,1,378.892,230.315Z" transform="translate(-28.945 -27.428)"/><path class="b" d="M411.4,246.106l-23.078,6.641a108.154,108.154,0,0,1,.091,60.756l23.078,6.644A132.5,132.5,0,0,0,411.4,246.106Z" transform="translate(-28.945 -27.428)"/><path class="c" d="M230.9,188.573l-11.658-21.025a133.26,133.26,0,0,0-51.827,52.5l21.177,11.385A109.422,109.422,0,0,1,230.9,188.573Z" transform="translate(-28.945 -27.428)"/><path class="b" d="M284.063,391.946a108.415,108.415,0,0,1-30.931-4.509l-6.858,23.015a132.684,132.684,0,0,0,75.159.116l-6.712-23.058A108.166,108.166,0,0,1,284.063,391.946Z" transform="translate(-28.945 -27.428)"/><path class="a" d="M284.063,133.065a149,149,0,0,1,40.02,5.485l6.5-23.125a173.342,173.342,0,0,0-95.106.587L242.1,139.1A148.989,148.989,0,0,1,284.063,133.065Z" transform="translate(-28.945 -27.428)"/><path class="c" d="M210.8,152.325l-11.664-21.037a174.247,174.247,0,0,0-67.979,69.271l21.185,11.391A150.518,150.518,0,0,1,210.8,152.325Z" transform="translate(-28.945 -27.428)"/><path class="c" d="M414.915,210.383l21.046-11.644A174.232,174.232,0,0,0,367.618,130.5L356,151.566A150.51,150.51,0,0,1,414.915,210.383Z" transform="translate(-28.945 -27.428)"/><path class="b" d="M134.581,282.545a149.027,149.027,0,0,1,5.876-41.394l-23.07-6.692a173.294,173.294,0,0,0,.038,96.3l23.081-6.65A148.981,148.981,0,0,1,134.581,282.545Z" transform="translate(-28.945 -27.428)"/><path class="c" d="M153.371,354.991L132.318,366.62A174.191,174.191,0,0,0,200,434.295l11.7-21.012A150.587,150.587,0,0,1,153.371,354.991Z" transform="translate(-28.945 -27.428)"/><path class="b" d="M450.826,234.767l-23.089,6.642a148.765,148.765,0,0,1-.3,83.326l23.084,6.642A173.338,173.338,0,0,0,450.826,234.767Z" transform="translate(-28.945 -27.428)"/><path class="a" d="M356.024,413.513L367.6,434.6a174.278,174.278,0,0,0,67.346-66.487L413.963,356.36A150.523,150.523,0,0,1,356.024,413.513Z" transform="translate(-28.945 -27.428)"/><path class="b" d="M284.063,432.02a148.86,148.86,0,0,1-42.381-6.154l-6.861,23.02a173.393,173.393,0,0,0,97.813.2l-6.711-23.069A148.921,148.921,0,0,1,284.063,432.02Z" transform="translate(-28.945 -27.428)"/><path class="c" d="M191.014,116.639L179.325,95.558a215.293,215.293,0,0,0-84.13,85.661l21.206,11.4A191.633,191.633,0,0,1,191.014,116.639Z" transform="translate(-28.945 -27.428)"/><path class="c" d="M450.621,190.63L471.7,178.97a215.294,215.294,0,0,0-84.366-84.232L375.705,115.83A191.655,191.655,0,0,1,450.621,190.63Z" transform="translate(-28.945 -27.428)"/><path class="c" d="M117.657,374.725l-21.086,11.65a215.283,215.283,0,0,0,83.565,83.606l11.717-21.048A191.671,191.671,0,0,1,117.657,374.725Z" transform="translate(-28.945 -27.428)"/><path class="b" d="M284.063,472.84a189.635,189.635,0,0,1-54.037-7.859l-6.873,23.063a215.313,215.313,0,0,0,120.9.272L337.329,465.2A189.6,189.6,0,0,1,284.063,472.84Z" transform="translate(-28.945 -27.428)"/><path class="a" d="M284.063,92.246a189.709,189.709,0,0,1,51.061,7.014l6.517-23.18a215.439,215.439,0,0,0-117.419.647l6.632,23.146A189.66,189.66,0,0,1,284.063,92.246Z" transform="translate(-28.945 -27.428)"/><path class="a" d="M375.672,449.278l11.591,21.106a215.27,215.27,0,0,0,83.345-82.319l-21.042-11.778A191.567,191.567,0,0,1,375.672,449.278Z" transform="translate(-28.945 -27.428)"/><path class="b" d="M490.107,223.469l-23.147,6.658a189.415,189.415,0,0,1-.3,105.892l23.137,6.662A215.452,215.452,0,0,0,490.107,223.469Z" transform="translate(-28.945 -27.428)"/><path class="b" d="M93.764,282.545a189.677,189.677,0,0,1,7.5-52.765l-23.128-6.714a215.454,215.454,0,0,0,.018,119.017l23.14-6.668A189.658,189.658,0,0,1,93.764,282.545Z" transform="translate(-28.945 -27.428)"/><path class="c" d="M171.21,80.918L159.529,59.857A256.286,256.286,0,0,0,59.238,161.887l21.209,11.4A232.779,232.779,0,0,1,171.21,80.918Z" transform="translate(-28.945 -27.428)"/><path class="a" d="M395.326,485.063l11.595,21.107a256.29,256.29,0,0,0,99.31-98.161l-21.016-11.764A232.8,232.8,0,0,1,395.326,485.063Z" transform="translate(-28.945 -27.428)"/><path class="c" d="M81.916,394.471L60.837,406.12a256.261,256.261,0,0,0,99.442,99.531l11.714-21.042A232.746,232.746,0,0,1,81.916,394.471Z" transform="translate(-28.945 -27.428)"/><path class="a" d="M284.063,51.427a230.511,230.511,0,0,1,62.112,8.489l6.5-23.142a256.54,256.54,0,0,0-139.711.7l6.624,23.112A230.42,230.42,0,0,1,284.063,51.427Z" transform="translate(-28.945 -27.428)"/><path class="c" d="M486.348,170.868l21.07-11.658A256.259,256.259,0,0,0,407.037,58.983L395.409,80.077A232.764,232.764,0,0,1,486.348,170.868Z" transform="translate(-28.945 -27.428)"/><path class="b" d="M52.945,282.545a230.53,230.53,0,0,1,9.067-64.156l-23.088-6.7a256.557,256.557,0,0,0,0,141.695l23.1-6.655A230.516,230.516,0,0,1,52.945,282.545Z" transform="translate(-28.945 -27.428)"/><path class="b" d="M284.063,513.665a230.374,230.374,0,0,1-65.7-9.53l-6.868,23.041a256.3,256.3,0,0,0,143.97.35l-6.717-23.085A230.491,230.491,0,0,1,284.063,513.665Z" transform="translate(-28.945 -27.428)"/><path class="b" d="M529.35,212.18l-23.106,6.645a231.479,231.479,0,0,1-.319,128.5l23.11,6.646A256.6,256.6,0,0,0,529.35,212.18Z" transform="translate(-28.945 -27.428)"/><path class="d" d="M284.064,246.262a37.022,37.022,0,1,1-37.024,37.022,37.063,37.063,0,0,1,37.024-37.022m0-14a51.022,51.022,0,1,0,51.021,51.022,51.024,51.024,0,0,0-51.021-51.022h0Z" transform="translate(-28.945 -27.428)"/></svg>