<?xml version="1.0" encoding="utf-8"?>
<!-- Generator: Adobe Illustrator 24.0.1, SVG Export Plug-In . SVG Version: 6.00 Build 0)  -->
<svg version="1.1" id="Layer_1" xmlns="http://www.w3.org/2000/svg" xmlns:xlink="http://www.w3.org/1999/xlink" x="0px" y="0px"
	 viewBox="0 0 538.3 538.3" style="enable-background:new 0 0 538.3 538.3;" xml:space="preserve">
<style type="text/css">
	.st0{fill:#F7941D;}
	.st1{fill:#ED1C24;}
	.st2{fill:#00A651;}
	.st3{fill:#FFFFFF;}
	.st4{fill:#939598;}
</style>
<g>
	<path class="st0" d="M60.4,172.6c-1.4,0-2.7-0.3-4-0.8l-1.3-0.5c-2.8-1.2-4.9-3.4-5.9-6.2c-1-2.8-0.8-5.8,0.5-8.4
		C73,111.1,111.1,73,156.7,49.6c1.5-0.8,3.1-1.1,4.7-1.1c4.3,0,8.2,2.6,9.8,6.6l0.5,1.3c2.1,5.1-0.1,11-5.1,13.6
		c-41.2,21.2-75.5,55.6-96.8,96.8C68.1,170.3,64.4,172.6,60.4,172.6L60.4,172.6z"/>
	<path class="st1" d="M340.6,56.3c-1.1,0-2.3-0.2-3.4-0.5c-21.9-7-44.8-10.5-68-10.5c-23.2,0-46.1,3.5-68,10.5
		c-1.1,0.4-2.2,0.5-3.4,0.5c-4.6,0-8.7-2.8-10.5-7c-1.2-3-1.2-6.2,0.2-9.1c1.4-2.9,3.8-5.1,6.9-6.1c24.1-7.7,49.3-11.6,74.8-11.6
		c25.5,0,50.7,3.9,74.8,11.6c3.1,1,5.5,3.1,6.9,6.1c1.4,2.9,1.4,6.1,0.2,9.1C349.2,53.5,345.1,56.3,340.6,56.3z"/>
	<path class="st2" d="M44.5,352.1c-4.7,0-8.7-3-10.2-7.5c-7.8-24.3-11.8-49.7-11.8-75.5s4-51.2,11.8-75.5c1.4-4.5,5.5-7.5,10.2-7.5
		c1.4,0,2.7,0.3,4,0.8l1.3,0.5c5.1,2.1,7.7,7.8,6.1,12.9c-7.1,22.1-10.7,45.2-10.7,68.7s3.6,46.5,10.7,68.7c1.7,5.2-1,10.8-6.1,12.9
		l-1.3,0.6C47.2,351.8,45.9,352.1,44.5,352.1z"/>
	<path class="st0" d="M477.9,172.6c-4,0-7.7-2.3-9.6-5.9c-21.2-41.2-55.6-75.5-96.8-96.8c-5-2.6-7.2-8.4-5.1-13.6L367,55
		c1.7-4,5.5-6.6,9.8-6.6c1.6,0,3.2,0.4,4.7,1.1c45.6,23.4,83.7,61.5,107.1,107.1c1.3,2.6,1.5,5.6,0.5,8.4c-1,2.8-3.2,5-5.9,6.2
		l-1.3,0.5C480.6,172.3,479.2,172.6,477.9,172.6L477.9,172.6z"/>
	<path class="st2" d="M269.1,515.7c-25.5,0-50.7-3.9-74.8-11.6c-3.1-1-5.5-3.1-6.9-6.1c-1.4-2.9-1.4-6.1-0.2-9.1
		c1.8-4.3,5.9-7,10.5-7c1.1,0,2.3,0.2,3.4,0.5c21.9,7,44.8,10.5,68,10.5c23.2,0,46.1-3.5,68-10.5c1.1-0.4,2.2-0.5,3.4-0.5
		c4.6,0,8.7,2.8,10.5,7c1.2,3,1.2,6.2-0.2,9.1c-1.4,2.9-3.8,5.1-6.9,6.1C319.8,511.9,294.6,515.7,269.1,515.7z"/>
	<path class="st2" d="M493.8,352.1c-1.4,0-2.7-0.3-4-0.8l-1.3-0.5c-5.1-2.1-7.8-7.8-6.1-12.9c7.1-22.1,10.7-45.2,10.7-68.7
		s-3.6-46.5-10.7-68.7c-1.7-5.2,1-10.8,6.1-12.9l1.3-0.5c1.3-0.5,2.7-0.8,4-0.8c4.6,0,8.7,3,10.2,7.5c7.8,24.3,11.8,49.7,11.8,75.5
		s-4,51.2-11.8,75.5C502.5,349.1,498.4,352.1,493.8,352.1C493.8,352.1,493.8,352.1,493.8,352.1z"/>
	<path class="st1" d="M376.8,489.8c-4.3,0-8.2-2.6-9.8-6.6l-0.5-1.3c-2.1-5.2,0.1-11,5.1-13.6c41.2-21.2,75.5-55.6,96.8-96.8
		c1.9-3.6,5.5-5.9,9.6-5.9c1.4,0,2.7,0.3,4,0.8l1.3,0.5c2.8,1.2,4.9,3.4,5.9,6.2c1,2.8,0.8,5.8-0.5,8.4
		c-23.4,45.6-61.5,83.7-107.1,107.1C380.1,489.4,378.5,489.8,376.8,489.8C376.9,489.8,376.9,489.8,376.8,489.8z"/>
	<path class="st0" d="M161.4,489.8c-1.6,0-3.2-0.4-4.7-1.1C111.1,465.2,73,427.2,49.6,381.6c-1.3-2.6-1.5-5.6-0.5-8.4
		c1-2.8,3.2-5,5.9-6.2l1.3-0.5c1.3-0.5,2.6-0.8,4-0.8c4,0,7.7,2.3,9.6,5.9c21.2,41.2,55.6,75.5,96.8,96.8c5,2.6,7.2,8.4,5.1,13.6
		l-0.5,1.3C169.6,487.2,165.7,489.8,161.4,489.8C161.4,489.8,161.4,489.8,161.4,489.8z"/>
	<path class="st0" d="M97.2,187.9c-1.4,0-2.7-0.3-4-0.8l-1.4-0.6c-2.8-1.2-4.9-3.4-6-6.3c-1-2.8-0.8-5.8,0.6-8.4
		c19.4-36.4,48.9-65.9,85.3-85.3c1.5-0.8,3.2-1.2,4.9-1.2c4.3,0,8.2,2.6,9.8,6.6l0.6,1.4c2.1,5,0,10.8-4.9,13.4
		c-32.1,17.2-58.2,43.3-75.5,75.5C104.8,185.7,101.2,187.9,97.2,187.9L97.2,187.9z"/>
	<path class="st0" d="M176.7,453c-1.7,0-3.3-0.4-4.9-1.2c-36.4-19.4-65.9-48.9-85.3-85.3c-1.4-2.6-1.6-5.6-0.6-8.4
		c1-2.9,3.2-5.1,6-6.3l1.4-0.6c1.3-0.5,2.6-0.8,4-0.8c3.9,0,7.5,2.2,9.4,5.7c17.2,32.1,43.3,58.2,75.5,75.5c4.9,2.6,7,8.4,4.9,13.4
		l-0.6,1.4C184.8,450.4,181,453,176.7,453C176.7,453,176.7,453,176.7,453z"/>
	<path class="st2" d="M81.3,336.9c-4.7,0-8.8-3.1-10.2-7.7c-5.9-19.4-8.9-39.6-8.9-60.1c0-20.5,3-40.7,8.9-60.1
		c1.4-4.6,5.5-7.7,10.2-7.7c1.4,0,2.7,0.3,4,0.8l1.3,0.6c5.1,2.1,7.7,7.6,6.1,12.8c-5.3,17.3-7.9,35.4-7.9,53.6
		c0,18.3,2.7,36.3,7.9,53.6c1.6,5.2-1.1,10.7-6.1,12.8l-1.3,0.5C84,336.6,82.7,336.9,81.3,336.9C81.3,336.9,81.3,336.9,81.3,336.9z"
		/>
	<path class="st0" d="M441,187.9c-3.9,0-7.5-2.2-9.4-5.7c-17.2-32.1-43.3-58.2-75.5-75.5c-4.9-2.6-7-8.4-4.9-13.4l0.6-1.4
		c1.7-4,5.5-6.6,9.8-6.6c1.7,0,3.3,0.4,4.9,1.2c36.4,19.4,65.9,48.9,85.3,85.3c1.4,2.6,1.6,5.6,0.6,8.4c-1,2.9-3.2,5.1-6,6.3
		l-1.4,0.6C443.7,187.6,442.4,187.9,441,187.9L441,187.9z"/>
	<path class="st1" d="M325.7,93.3c-1,0-2-0.2-3-0.4c-17.3-5.3-35.4-7.9-53.6-7.9c-18.3,0-36.3,2.7-53.6,7.9c-1,0.3-2,0.4-3,0.4
		c0,0,0,0,0,0c-4.2,0-8.1-2.6-9.8-6.6l-0.6-1.3c-1.2-2.8-1.1-5.8,0.2-8.6c1.3-2.8,3.7-4.8,6.6-5.7c19.4-5.9,39.6-8.9,60.1-8.9
		c20.5,0,40.7,3,60.1,8.9c3,0.9,5.3,2.9,6.6,5.7c1.3,2.7,1.4,5.8,0.2,8.6l-0.5,1.3C333.9,90.6,329.9,93.3,325.7,93.3z"/>
	<path class="st2" d="M457,336.9c-1.4,0-2.7-0.3-4-0.8l-1.3-0.6c-5.1-2.1-7.7-7.6-6.1-12.8c5.3-17.3,7.9-35.4,7.9-53.6
		c0-18.3-2.7-36.3-7.9-53.6c-1.6-5.2,1.1-10.7,6.1-12.8l1.3-0.6c1.3-0.5,2.7-0.8,4-0.8c4.7,0,8.8,3.1,10.2,7.7
		c5.9,19.4,8.9,39.6,8.9,60.1c0,20.5-3,40.7-8.9,60.1C465.8,333.8,461.7,336.9,457,336.9L457,336.9z"/>
	<path class="st1" d="M361.6,453c-4.3,0-8.2-2.6-9.8-6.6l-0.6-1.4c-2.1-5,0-10.8,4.9-13.4c32.1-17.2,58.2-43.3,75.5-75.5
		c1.9-3.5,5.5-5.7,9.4-5.7c1.4,0,2.7,0.3,4,0.8l1.4,0.6c2.8,1.2,4.9,3.4,6,6.3c1,2.8,0.8,5.8-0.6,8.4
		c-19.4,36.4-48.9,65.9-85.3,85.3C365,452.6,363.3,453,361.6,453C361.6,453,361.6,453,361.6,453z"/>
	<path class="st2" d="M269.1,476.1c-20.2,0-40.2-2.9-59.3-8.6c-3.1-0.9-5.6-3.1-7-6c-1.4-2.9-1.5-6.2-0.2-9.2c1.8-4.3,5.9-7,10.4-7
		c1.1,0,2.2,0.2,3.2,0.5c17.1,5.1,35,7.7,53,7.7c18,0,35.8-2.6,53-7.7c1-0.3,2.1-0.5,3.2-0.5c4.6,0,8.7,2.8,10.4,7
		c1.2,3,1.2,6.3-0.2,9.2c-1.4,2.9-3.9,5.1-7,6C309.3,473.1,289.3,476.1,269.1,476.1z"/>
	<path class="st0" d="M191.9,416c-1.9,0-3.7-0.5-5.3-1.4c-26.3-14.9-48.1-36.7-63-63c-1.6-2.7-1.8-5.9-0.8-8.8c1-2.9,3.1-5.2,6-6.3
		l1.3-0.6c1.3-0.5,2.7-0.8,4-0.8c3.8,0,7.4,2.1,9.3,5.4c12.9,22.6,31.7,41.4,54.3,54.3c4.7,2.7,6.7,8.4,4.6,13.3l-0.5,1.3
		C200.1,413.5,196.3,416,191.9,416C191.9,416,191.9,416,191.9,416z"/>
	<path class="st0" d="M134.1,203.1c-1.4,0-2.7-0.3-4-0.8l-1.3-0.6c-2.8-1.2-5-3.4-6-6.3c-1-3-0.7-6.1,0.8-8.8
		c14.9-26.3,36.7-48.1,63-63c1.7-0.9,3.4-1.4,5.3-1.4c4.3,0,8.2,2.6,9.8,6.5l0.6,1.3c2,4.9,0.1,10.7-4.6,13.3
		c-22.6,12.9-41.4,31.7-54.3,54.3C141.5,201.1,138,203.1,134.1,203.1L134.1,203.1z"/>
	<path class="st2" d="M269.1,436.4c-15.1,0-30.1-2-44.6-6c-3-0.8-5.4-2.8-6.8-5.6c-1.4-2.8-1.4-5.9-0.3-8.7l0.6-1.3
		c1.6-4,5.5-6.5,9.8-6.5c1,0,2,0.1,2.9,0.4c12.4,3.4,25.3,5.1,38.3,5.1c13,0,25.9-1.7,38.3-5.1c1-0.3,1.9-0.4,2.9-0.4
		c4.3,0,8.2,2.6,9.8,6.5l0.6,1.3c1.2,2.8,1.1,5.9-0.3,8.7c-1.4,2.8-3.8,4.8-6.8,5.6C299.3,434.3,284.3,436.4,269.1,436.4z"/>
	<path class="st2" d="M118.2,321.6c-4.8,0-9-3.2-10.3-7.8c-4-14.5-6-29.5-6-44.6c0-15.1,2-30.1,6-44.6c1.3-4.6,5.5-7.8,10.3-7.8
		c1.4,0,2.7,0.3,4.1,0.8l1.3,0.6c4.9,2,7.6,7.5,6.1,12.8c-3.4,12.4-5.1,25.3-5.1,38.3s1.7,25.9,5.1,38.3c1.4,5.2-1.2,10.7-6.1,12.8
		l-1.3,0.6C120.9,321.3,119.6,321.6,118.2,321.6C118.2,321.6,118.2,321.6,118.2,321.6z"/>
	<path class="st1" d="M346.3,416c-4.3,0-8.2-2.6-9.8-6.5l-0.6-1.3c-2-4.9-0.1-10.7,4.6-13.3c22.6-12.9,41.4-31.7,54.3-54.3
		c1.9-3.3,5.5-5.4,9.3-5.4c1.4,0,2.7,0.3,4,0.8l1.3,0.6c2.8,1.2,5,3.4,6,6.3c1,3,0.7,6.1-0.8,8.8c-14.9,26.3-36.7,48.1-63,63
		C350,415.6,348.2,416,346.3,416C346.3,416,346.3,416,346.3,416z"/>
	<path class="st0" d="M404.1,203.1c-3.8,0-7.4-2.1-9.3-5.4c-12.9-22.6-31.7-41.4-54.3-54.3c-4.7-2.7-6.7-8.4-4.6-13.3l0.6-1.3
		c1.6-4,5.5-6.5,9.8-6.5c1.9,0,3.7,0.5,5.3,1.4c26.3,14.9,48.1,36.7,63,63c1.6,2.7,1.8,5.9,0.8,8.8c-1,2.9-3.1,5.2-6,6.3l-1.3,0.6
		C406.9,202.9,405.5,203.1,404.1,203.1C404.1,203.1,404.1,203.1,404.1,203.1z"/>
	<path class="st1" d="M310.4,130.1c-1,0-2-0.1-2.9-0.4c-12.4-3.4-25.3-5.1-38.3-5.1c-13,0-25.9,1.7-38.3,5.1c-1,0.3-1.9,0.4-2.9,0.4
		l0,0c-4.3,0-8.2-2.6-9.9-6.5l-0.6-1.3c-1.2-2.9-1.1-5.9,0.3-8.7c1.4-2.8,3.8-4.8,6.8-5.6c14.5-4,29.5-6,44.6-6
		c15.1,0,30.1,2,44.6,6c3,0.8,5.4,2.8,6.8,5.6c1.4,2.8,1.4,5.9,0.3,8.7l-0.6,1.3C318.6,127.5,314.7,130.1,310.4,130.1z"/>
	<path class="st2" d="M420.1,321.6c-1.4,0-2.7-0.3-4.1-0.8l-1.3-0.6c-4.9-2-7.6-7.5-6.1-12.8c3.4-12.4,5.1-25.3,5.1-38.3
		s-1.7-25.9-5.1-38.3c-1.4-5.2,1.2-10.7,6.1-12.8l1.3-0.6c1.3-0.5,2.7-0.8,4.1-0.8c4.8,0,9,3.2,10.3,7.8c4,14.5,6,29.5,6,44.6
		c0,15.1-2,30.2-6,44.6C429.1,318.4,424.9,321.6,420.1,321.6z"/>
	<path class="st1" d="M331,379c-4.3,0-8.2-2.6-9.9-6.6l-0.6-1.3c-2-4.8-0.2-10.3,4.3-13.1c13.3-8.4,24.8-19.8,33.1-33.1
		c2-3.2,5.4-5.1,9.1-5.1c1.4,0,2.7,0.3,4,0.8l1.3,0.6c2.9,1.2,5.1,3.6,6.1,6.6c1,3,0.6,6.2-1.1,8.9c-10.3,16.4-24.4,30.6-40.8,40.8
		C334.9,378.5,333,379,331,379C331,379,331,379,331,379z"/>
	<path class="st2" d="M269.1,396.7c-9.8,0-19.5-1.1-28.9-3.3c-3.1-0.7-5.5-2.6-7-5.5c-1.4-2.8-1.6-6.1-0.4-9l0.5-1.2
		c1.7-4,5.6-6.7,9.9-6.7c0.8,0,1.5,0.1,2.3,0.3c7.7,1.8,15.7,2.7,23.6,2.7c8,0,15.9-0.9,23.6-2.7c0.8-0.2,1.5-0.3,2.3-0.3
		c4.2,0,8.2,2.7,9.9,6.7l0.5,1.2c1.2,2.9,1.1,6.2-0.4,9c-1.4,2.8-3.9,4.7-7,5.5C288.6,395.6,278.9,396.7,269.1,396.7z"/>
	<path class="st2" d="M155.2,306.2c-5,0-9.2-3.4-10.3-8.2c-2.2-9.4-3.3-19.2-3.3-28.9c0-9.8,1.1-19.5,3.3-28.9
		c1.1-4.8,5.4-8.2,10.3-8.2c1.4,0,2.8,0.3,4.1,0.8l1.2,0.5c4.8,2,7.6,7.2,6.5,12.2c-1.8,7.7-2.7,15.7-2.7,23.6s0.9,15.9,2.7,23.6
		c1.1,4.9-1.6,10.2-6.5,12.2l-1.2,0.5C158,306,156.6,306.2,155.2,306.2L155.2,306.2z"/>
	<path class="st0" d="M207.3,379c-2,0-3.9-0.6-5.6-1.6c-16.4-10.3-30.6-24.4-40.8-40.8c-1.7-2.7-2.1-5.9-1.1-8.9
		c1-3,3.2-5.4,6.1-6.6l1.3-0.6c1.3-0.5,2.6-0.8,4-0.8c3.7,0,7.1,1.9,9.1,5.1c8.4,13.3,19.8,24.8,33.1,33.1c4.5,2.8,6.3,8.3,4.3,13.1
		l-0.6,1.3C215.5,376.4,211.6,379,207.3,379L207.3,379z"/>
	<path class="st0" d="M367.1,218.5c-3.7,0-7.1-1.9-9.1-5.1c-8.4-13.3-19.8-24.8-33.1-33.1c-4.5-2.8-6.3-8.3-4.3-13.1l0.6-1.3
		c1.7-4,5.5-6.6,9.9-6.6c2,0,3.9,0.6,5.6,1.6c16.4,10.3,30.6,24.4,40.8,40.8c1.7,2.7,2.1,5.9,1.1,8.9c-1,3-3.2,5.4-6.1,6.6l-1.3,0.6
		C369.8,218.2,368.5,218.5,367.1,218.5C367.1,218.5,367.1,218.5,367.1,218.5z"/>
	<path class="st0" d="M171.2,218.5c-1.4,0-2.7-0.3-4-0.8l-1.3-0.6c-2.9-1.2-5.1-3.6-6.1-6.6c-1-3-0.6-6.2,1.1-8.9
		c10.3-16.4,24.4-30.6,40.8-40.8c1.7-1.1,3.6-1.6,5.6-1.6c4.3,0,8.2,2.6,9.9,6.6l0.6,1.3c2,4.8,0.2,10.3-4.3,13.1
		c-13.3,8.4-24.8,19.8-33.1,33.1C178.3,216.6,174.9,218.5,171.2,218.5C171.2,218.5,171.2,218.5,171.2,218.5z"/>
	<path class="st2" d="M383.1,306.2c-1.4,0-2.8-0.3-4.1-0.8l-1.2-0.5c-4.8-2-7.6-7.2-6.5-12.2c1.8-7.7,2.7-15.7,2.7-23.6
		s-0.9-15.9-2.7-23.6c-1.1-4.9,1.6-10.2,6.5-12.2l1.2-0.5c1.3-0.5,2.7-0.8,4.1-0.8c5,0,9.2,3.4,10.3,8.2c2.2,9.4,3.3,19.2,3.3,28.9
		s-1.1,19.5-3.3,28.9C392.3,302.9,388,306.2,383.1,306.2L383.1,306.2z"/>
	<path class="st1" d="M295,167.2c-0.8,0-1.5-0.1-2.3-0.3c-7.7-1.8-15.7-2.7-23.6-2.7s-15.9,0.9-23.6,2.7c-0.8,0.2-1.5,0.3-2.3,0.3
		c0,0,0,0,0,0c-4.2,0-8.2-2.7-9.9-6.7l-0.5-1.2c-1.2-2.9-1.1-6.2,0.4-9c1.4-2.8,3.9-4.7,7-5.5c9.4-2.2,19.2-3.3,28.9-3.3
		s19.5,1.1,28.9,3.3c3.1,0.7,5.5,2.6,7,5.5c1.4,2.8,1.6,6.1,0.4,9l-0.5,1.2C303.3,164.5,299.3,167.2,295,167.2z"/>
	<path class="st1" d="M315.5,341.6c-4.3,0-8.2-2.6-9.8-6.5l-0.6-1.4c-1.8-4.4-0.4-9.6,3.6-12.7c4.7-3.6,8.8-7.7,12.4-12.4
		c2.1-2.7,5.3-4.4,8.7-4.4c1.4,0,2.7,0.3,4,0.8l1.4,0.6c3,1.3,5.3,3.8,6.2,7c0.9,3.2,0.2,6.6-1.8,9.3c-5,6.6-10.8,12.5-17.4,17.4
		C320,340.8,317.8,341.6,315.5,341.6C315.5,341.6,315.5,341.6,315.5,341.6z"/>
	<path class="st2" d="M269.1,357c-4.1,0-8.3-0.3-12.4-0.9c-3.3-0.5-6.2-2.4-7.8-5.3c-1.6-2.9-1.9-6.3-0.6-9.3l0.6-1.4
		c1.6-4,5.6-6.5,10-6.5c0.5,0,1,0,1.5,0.1c2.9,0.4,5.8,0.6,8.7,0.6c2.9,0,5.8-0.2,8.7-0.6c0.5-0.1,1-0.1,1.5-0.1
		c4.4,0,8.4,2.6,10,6.5l0.6,1.4c1.3,3.1,1.1,6.5-0.6,9.3c-1.7,2.9-4.5,4.8-7.8,5.3C277.4,356.7,273.3,357,269.1,357z"/>
	<path class="st0" d="M222.8,341.6c-2.3,0-4.6-0.8-6.5-2.2c-6.6-5-12.5-10.8-17.4-17.4c-2-2.7-2.7-6.1-1.8-9.3
		c0.9-3.2,3.1-5.7,6.2-7l1.4-0.6c1.3-0.5,2.6-0.8,4-0.8c3.3,0,6.6,1.6,8.7,4.4c3.6,4.7,7.7,8.8,12.4,12.4c3.9,3,5.4,8.2,3.6,12.7
		l-0.6,1.4C231,339,227.1,341.6,222.8,341.6L222.8,341.6z"/>
	<path class="st2" d="M345.6,290.7c-1.4,0-2.7-0.3-4.1-0.8l-1.4-0.6c-4.4-1.8-7.1-6.6-6.4-11.5c0.4-2.9,0.6-5.8,0.6-8.7
		s-0.2-5.8-0.6-8.7c-0.7-5,2-9.7,6.4-11.5l1.4-0.6c1.3-0.5,2.7-0.8,4.1-0.8c5.3,0,9.8,4,10.5,9.2c0.6,4.1,0.9,8.2,0.9,12.4
		c0,4.1-0.3,8.3-0.9,12.4C355.4,286.8,350.9,290.7,345.6,290.7L345.6,290.7z"/>
	<path class="st0" d="M208.6,234c-1.4,0-2.7-0.3-4-0.8l-1.4-0.6c-3-1.3-5.3-3.8-6.2-7c-0.9-3.2-0.2-6.6,1.8-9.3
		c5-6.6,10.8-12.5,17.4-17.4c1.9-1.4,4.1-2.2,6.5-2.2c4.3,0,8.2,2.6,9.8,6.5l0.6,1.4c1.8,4.5,0.4,9.7-3.6,12.7
		c-4.7,3.6-8.8,7.7-12.4,12.4C215.2,232.4,211.9,234,208.6,234C208.6,234,208.6,234,208.6,234z"/>
	<path class="st2" d="M192.7,290.7c-5.3,0-9.8-4-10.5-9.2c-0.6-4.1-0.9-8.2-0.9-12.4c0-4.1,0.3-8.3,0.9-12.4
		c0.7-5.3,5.3-9.2,10.5-9.2c1.4,0,2.7,0.3,4.1,0.8l1.4,0.6c4.4,1.8,7.1,6.6,6.4,11.5c-0.4,2.9-0.6,5.8-0.6,8.7s0.2,5.8,0.6,8.7
		c0.7,5-2,9.7-6.4,11.5l-1.4,0.6C195.4,290.5,194,290.7,192.7,290.7L192.7,290.7z"/>
	<path class="st1" d="M279.3,204.6c-0.5,0-1,0-1.5-0.1c-2.9-0.4-5.8-0.6-8.7-0.6c-2.9,0-5.8,0.2-8.7,0.6c-0.5,0.1-1,0.1-1.5,0.1
		c0,0,0,0,0,0c-4.4,0-8.4-2.6-10-6.5l-0.6-1.4c-1.3-3.1-1.1-6.5,0.6-9.3c1.7-2.9,4.5-4.8,7.8-5.3c4.1-0.6,8.2-0.9,12.4-0.9
		c4.1,0,8.3,0.3,12.4,0.9c3.3,0.5,6.2,2.4,7.8,5.3c1.6,2.9,1.9,6.3,0.6,9.3l-0.6,1.4C287.7,202,283.8,204.6,279.3,204.6z"/>
	<path class="st0" d="M329.7,234c-3.3,0-6.6-1.6-8.7-4.4c-3.6-4.7-7.7-8.8-12.4-12.4c-3.9-3-5.4-8.2-3.6-12.7l0.6-1.4
		c1.6-4,5.5-6.5,9.8-6.5c2.3,0,4.6,0.8,6.5,2.2c6.6,5,12.5,10.8,17.4,17.4c2,2.7,2.7,6.1,1.8,9.3c-0.9,3.2-3.1,5.7-6.2,7l-1.4,0.6
		C332.4,233.7,331,234,329.7,234L329.7,234z"/>
	<rect x="269.1" y="269.1" class="st3" width="0" height="0"/>
	<polygon class="st3" points="269.1,269.1 269.1,269.1 269.1,269.1 	"/>
	<polygon class="st3" points="269.1,269.1 269.1,269.1 269.1,269.1 	"/>
	<path class="st4" d="M269.1,316.1c-6.2,0-12.3-1.2-18-3.6c-11.4-4.7-20.7-14-25.4-25.4c-2.4-5.7-3.6-11.7-3.6-18
		c0-6.2,1.2-12.3,3.6-18c4.7-11.4,14-20.7,25.4-25.4c5.7-2.4,11.7-3.6,18-3.6s12.3,1.2,18,3.6c11.4,4.7,20.7,14,25.4,25.4
		c2.4,5.7,3.6,11.7,3.6,18c0,6.2-1.2,12.3-3.6,18c-4.7,11.4-14,20.7-25.4,25.4C281.4,314.9,275.3,316.1,269.1,316.1z"/>
</g>
</svg>
