<svg id="Layer_1" data-name="Layer 1" xmlns="http://www.w3.org/2000/svg" viewBox="0 0 283.46 283.46">
  <defs>
    <style>
      .cls-1 {
        fill: #4fa0ca;
      }

      .cls-2 {
        fill: #fff;
      }
    </style>
  </defs>
  <title>OOWAY</title>
  <g>
    <path class="cls-1" d="M94.53,212.49a17.93,17.93,0,0,1-17.92,17.92,17.92,17.92,0,1,1,12.66-30.58,18,18,0,0,1,4,5.78A17.65,17.65,0,0,1,94.53,212.49ZM76.61,199.32a13,13,0,0,0-5.07,1,13.26,13.26,0,0,0-4.25,2.91,12.49,12.49,0,0,0-3.85,9.3,13.18,13.18,0,0,0,22.49,9.32,13.18,13.18,0,0,0-9.32-22.49Z"/>
    <path class="cls-1" d="M134,212.49a17.93,17.93,0,0,1-30.6,12.68,17.91,17.91,0,1,1,25.33-25.33,18,18,0,0,1,4,5.78A17.67,17.67,0,0,1,134,212.49ZM116,199.32a13,13,0,0,0-5.07,1,13.26,13.26,0,0,0-4.24,2.91,12.48,12.48,0,0,0-3.85,9.3A13.16,13.16,0,1,0,116,199.32Z"/>
    <path class="cls-1" d="M142.2,196.16l6.38,23,6.36-23a2,2,0,0,1,.82-1.15,2.5,2.5,0,0,1,2.82,0,2.15,2.15,0,0,1,.88,1.18l6.38,23,6.41-23a2.2,2.2,0,0,1,.56-.9,2.29,2.29,0,0,1,1.68-.69,2.25,2.25,0,0,1,1.67.69,2.31,2.31,0,0,1,.68,1.68,4.43,4.43,0,0,1-.16.94l-8.45,30.6a3.18,3.18,0,0,1-.94,1.4,2.2,2.2,0,0,1-1.46.53,2.13,2.13,0,0,1-1.66-.72,3.3,3.3,0,0,1-.72-1.17l-6.25-22.65L151,228.48a3.19,3.19,0,0,1-.94,1.4,2.3,2.3,0,0,1-3.14-.19,3,3,0,0,1-.69-1.17l-8.49-30.67a3.68,3.68,0,0,1-.13-.92,2.38,2.38,0,0,1,4.05-1.68A2.57,2.57,0,0,1,142.2,196.16Z"/>
    <path class="cls-1" d="M175.49,227l12-30.78a2.37,2.37,0,0,1,2.26-1.61,2.32,2.32,0,0,1,2.26,1.61l12,30.89a2.56,2.56,0,0,1,.18,1,2.37,2.37,0,0,1-2.37,2.37,2.22,2.22,0,0,1-1.66-.69,2.52,2.52,0,0,1-.54-.76l-4.14-10.64H184L179.81,229a2.54,2.54,0,0,1-.54.76,2.29,2.29,0,0,1-1.68.69,2.25,2.25,0,0,1-1.67-.69,2.3,2.3,0,0,1-.68-1.68A2.56,2.56,0,0,1,175.49,227Zm18.12-13.4-3.9-10.06-3.9,10.06Z"/>
    <path class="cls-1" d="M203.89,195.55l8.42,12.61,8.42-12.61a2.39,2.39,0,0,1,3.62-.29,2.3,2.3,0,0,1,.68,1.68,2.38,2.38,0,0,1-.36,1.34l-10,14.92V228a2.38,2.38,0,0,1-4.75,0V213.2l-10-14.92a2.4,2.4,0,0,1-.38-1.34,2.37,2.37,0,0,1,2.37-2.37A2.19,2.19,0,0,1,203.89,195.55Z"/>
  </g>
  <g>
    <rect class="cls-1" x="108.87" y="53.05" width="65.71" height="104.15" rx="9.53" ry="9.53"/>
    <g>
      <path class="cls-2" d="M126.88,71.49a23.58,23.58,0,0,1,.39-4.07,44.88,44.88,0,0,1-4,4,2.42,2.42,0,0,1-1.31.48,1.85,1.85,0,0,1-1.36-.68,1.92,1.92,0,0,1-.39-1.07,1.8,1.8,0,0,1,.92-1.55A30.14,30.14,0,0,0,129.59,58a1.6,1.6,0,0,1,1.45-.78,2.47,2.47,0,0,1,1,.19,1.47,1.47,0,0,1,1.07,1.36,1.7,1.7,0,0,1-.29.92A29,29,0,0,1,130.46,63c1.79-.1,3.49-.15,5.23-.15H161c.87,0,1.31.68,1.31,1.7s-.44,1.6-1.31,1.6h-4V74.4h5.76c.87,0,1.36.68,1.36,1.7s-.48,1.7-1.36,1.7H157v8.43h4.55c.87,0,1.31.68,1.31,1.65s-.44,1.7-1.31,1.7H122.18c-.87,0-1.31-.73-1.31-1.7s.44-1.65,1.31-1.65h4.7V77.79h-5.81c-.82,0-1.31-.73-1.31-1.7s.48-1.7,1.31-1.7h5.81Zm2.28,21.65a1.68,1.68,0,0,1-.15.63,27.58,27.58,0,0,1-4.7,7.7,2.22,2.22,0,0,1-1.6.73,2.12,2.12,0,0,1-1.36-.48,1.61,1.61,0,0,1-.68-1.31,1.7,1.7,0,0,1,.53-1.21,20.65,20.65,0,0,0,4.31-6.73,1.47,1.47,0,0,1,1.45-1,2.66,2.66,0,0,1,.82.15A1.62,1.62,0,0,1,129.16,93.14Zm6.63-18.74V66.16h-5.52V74.4Zm0,11.82V77.79h-5.52v8.43Zm0,5.47a1.44,1.44,0,0,1,1.5,1.11,51.74,51.74,0,0,1,1.11,7.7v.15c0,.87-.73,1.45-1.74,1.55h-.24a1.54,1.54,0,0,1-1.7-1.36,52.55,52.55,0,0,0-.87-7.51v-.24c0-.68.58-1.21,1.45-1.36A1.64,1.64,0,0,1,135.79,91.69Zm8.86-17.29V66.16h-5.57V74.4Zm0,11.82V77.79h-5.57v8.43Zm1.16,5.38a1.49,1.49,0,0,1,1.55,1,49.89,49.89,0,0,1,2.18,7.31,1.67,1.67,0,0,1,0,.48,1.65,1.65,0,0,1-1.5,1.55,3.24,3.24,0,0,1-.68.1,1.4,1.4,0,0,1-1.5-1.21A46.39,46.39,0,0,0,144,93.53a1.74,1.74,0,0,1-.1-.48,1.4,1.4,0,0,1,1.26-1.36A3.39,3.39,0,0,1,145.82,91.59Zm7.8-17.19V66.16H147.9V74.4Zm0,11.82V77.79H147.9v8.43Zm2.81,5.23a2,2,0,0,1,1.4.58,41.69,41.69,0,0,1,4.79,7.26,1.85,1.85,0,0,1,.19.82,1.77,1.77,0,0,1-1.07,1.6,2.16,2.16,0,0,1-.92.24,1.8,1.8,0,0,1-1.55-.82,39.3,39.3,0,0,0-4.46-7.22,1.53,1.53,0,0,1,.58-2.18A2,2,0,0,1,156.42,91.44Z"/>
      <path class="cls-2" d="M159.18,130.43c2.52,0,3.83,1.07,3.83,3.34v.39a51.44,51.44,0,0,1-2.13,12.69c-.82,2.47-2.52,3.54-6.05,3.54a19.16,19.16,0,0,1-4.75-.53,1.5,1.5,0,0,1-1.11-1.5,3.3,3.3,0,0,1,.1-.63c.19-.87.68-1.31,1.36-1.31a1.21,1.21,0,0,1,.39,0,14.06,14.06,0,0,0,3.49.48c2,0,2.86-.44,3.34-2.08a54,54,0,0,0,1.65-10v-.15c0-.82-.48-1.07-1.4-1.07H129.59a44.52,44.52,0,0,1-7.12,6.63,1.93,1.93,0,0,1-1.16.44,1.8,1.8,0,0,1-1.55-1,2.22,2.22,0,0,1-.39-1.16,2,2,0,0,1,.92-1.65,44.39,44.39,0,0,0,12.4-13.42,46.37,46.37,0,0,0,3.34-6.78H122.86c-.92,0-1.41-.73-1.41-1.65s.48-1.65,1.41-1.65h14.33a59,59,0,0,0,1.74-6.54,1.35,1.35,0,0,1,1.5-1.21,4.79,4.79,0,0,1,.78.1c.92.15,1.4.63,1.4,1.4a1.8,1.8,0,0,1,0,.48,59.38,59.38,0,0,1-1.55,5.76h11.72c2.57,0,3.83,1.31,3.83,3.29a4.78,4.78,0,0,1-.15,1.16c-.29,1.31-.63,2.76-1.07,4.12h.44c2.18,0,3.39,1.21,3.39,3a5.45,5.45,0,0,1-.15,1.16c-.39,1.36-.82,2.81-1.31,4.26Zm-29.25,6.05a3.78,3.78,0,0,1,.73.1,1.43,1.43,0,0,1,1.21,1.45,2.4,2.4,0,0,1-.1.58,35.93,35.93,0,0,1-4.31,10.17,2.16,2.16,0,0,1-1.84,1.16,1.71,1.71,0,0,1-1-.34,1.76,1.76,0,0,1-1-1.55,2.22,2.22,0,0,1,.39-1.16,34.77,34.77,0,0,0,4.36-9.35A1.51,1.51,0,0,1,129.93,136.48Zm3.54-26.2a2,2,0,0,1-1.84,1.79,1.32,1.32,0,0,1-1-.44c-1.16-1.16-2.23-2.23-3.44-3.25a1.19,1.19,0,0,1-.44-.92,1.77,1.77,0,0,1,.63-1.31,1.64,1.64,0,0,1,2.32-.1,29.71,29.71,0,0,1,3.34,3.2A1.57,1.57,0,0,1,133.47,110.28Zm20.68,20.15c.44-1.36.87-2.71,1.21-4a2.46,2.46,0,0,0,.1-.53c0-.63-.39-.82-1.26-.82h-18.4c-1.11,1.84-2.32,3.63-3.58,5.33Zm-17.14,6a1.52,1.52,0,0,1,1.55,1.31,53.57,53.57,0,0,1,1.07,8.72v.1a1.69,1.69,0,0,1-1.65,1.84h-.29a1.57,1.57,0,0,1-1.74-1.65v-.48a43.22,43.22,0,0,0-.82-7.89,1.33,1.33,0,0,1,0-.44,1.47,1.47,0,0,1,1.36-1.45A2.34,2.34,0,0,1,137,136.39ZM151.77,122a27.71,27.71,0,0,0,.92-3.73,3.77,3.77,0,0,0,.1-.68c0-.63-.34-.87-1.26-.87H139.86c-.73,1.79-1.5,3.54-2.37,5.28Zm-9.25,15.16a1.4,1.4,0,0,1,1.11-1.26,2.42,2.42,0,0,1,.78-.15,1.32,1.32,0,0,1,1.26,1,29.45,29.45,0,0,1,2.18,7.26,1.2,1.2,0,0,1,0,.39,1.43,1.43,0,0,1-1.26,1.45,3.37,3.37,0,0,1-.63.1,1.34,1.34,0,0,1-1.45-1.16,46.42,46.42,0,0,0-1.94-7A2.42,2.42,0,0,1,142.52,137.16Zm8.81-2.18a1.44,1.44,0,0,1,1.16.58,25.86,25.86,0,0,1,3,5,1.68,1.68,0,0,1,.15.63,1.55,1.55,0,0,1-.92,1.31,2.2,2.2,0,0,1-1,.24,1.32,1.32,0,0,1-1.26-.78,37.94,37.94,0,0,0-2.57-4.75,1.42,1.42,0,0,1-.29-.82,1.39,1.39,0,0,1,.82-1.16A2.16,2.16,0,0,1,151.34,135Z"/>
    </g>
  </g>
</svg>
