<?xml version="1.0" encoding="UTF-8"?>
<svg xmlns="http://www.w3.org/2000/svg" id="Layer_1" data-name="Layer 1" viewBox="0 0 566.93 566.93">
  <g>
    <path d="M107.25,521.77a179.23,179.23,0,0,1-18.86-1A147.81,147.81,0,0,1,70.9,517.9,112.13,112.13,0,0,1,58,514.28l4.5-52.21a88.62,88.62,0,0,0,14.86,5,66.05,66.05,0,0,0,15.36,1.75q16.49,0,24.36-11.11T125,423.6V146.07q0-30.46,6.75-49.83T150.09,66A64.27,64.27,0,0,1,176.32,50.9a107.32,107.32,0,0,1,30.1-4.25,180.53,180.53,0,0,1,18.73,1,144.48,144.48,0,0,1,17.49,2.87,130,130,0,0,1,13,3.63l-4.5,52.2a88.63,88.63,0,0,0-15-5,67.22,67.22,0,0,0-15.24-1.75q-16.49,0-24.48,11t-8,34.22V422.35q0,30.48-6.74,49.83t-18.36,30.23a64.39,64.39,0,0,1-26.1,15.11A106.12,106.12,0,0,1,107.25,521.77Z" fill="#f69a9c"></path>
    <path d="M167.54,521.77a179.09,179.09,0,0,1-18.86-1,147.81,147.81,0,0,1-17.49-2.87,112.13,112.13,0,0,1-12.86-3.62l4.49-52.21a89.23,89.23,0,0,0,14.86,5,66.14,66.14,0,0,0,15.37,1.75q16.48,0,24.35-11.11t7.87-34.1V146.07q0-30.46,6.75-49.83T210.38,66A64.23,64.23,0,0,1,236.6,50.9a107.44,107.44,0,0,1,30.11-4.25,180.53,180.53,0,0,1,18.73,1,144.48,144.48,0,0,1,17.49,2.87,131.58,131.58,0,0,1,13,3.63l-4.5,52.2a88.73,88.73,0,0,0-15-5,67.16,67.16,0,0,0-15.24-1.75q-16.49,0-24.48,11t-8,34.22V422.35q0,30.48-6.74,49.83t-18.36,30.23a64.43,64.43,0,0,1-26.11,15.11A106.05,106.05,0,0,1,167.54,521.77Z" fill="#f3d8a5"></path>
    <path d="M231.27,521.77a179.23,179.23,0,0,1-18.86-1,147.81,147.81,0,0,1-17.49-2.87,112.13,112.13,0,0,1-12.86-3.62l4.49-52.21a89,89,0,0,0,14.87,5,66.05,66.05,0,0,0,15.36,1.75q16.49,0,24.35-11.11T249,423.6V146.07q0-30.46,6.75-49.83T274.11,66A64.21,64.21,0,0,1,300.34,50.9a107.32,107.32,0,0,1,30.1-4.25,180.53,180.53,0,0,1,18.73,1,144.48,144.48,0,0,1,17.49,2.87,130,130,0,0,1,13,3.63l-4.5,52.2a88.44,88.44,0,0,0-15-5,67.07,67.07,0,0,0-15.23-1.75q-16.49,0-24.48,11t-8,34.22V422.35q0,30.48-6.74,49.83t-18.36,30.23a64.43,64.43,0,0,1-26.11,15.11A106.05,106.05,0,0,1,231.27,521.77Z" fill="#b2d99c"></path>
    <path d="M293.81,521.77a179.38,179.38,0,0,1-18.86-1,148,148,0,0,1-17.48-2.87,111.8,111.8,0,0,1-12.87-3.62l4.5-52.21a88.93,88.93,0,0,0,14.86,5,66.05,66.05,0,0,0,15.36,1.75q16.49,0,24.36-11.11t7.87-34.1V146.07q0-30.46,6.74-49.83T336.65,66A64.33,64.33,0,0,1,362.88,50.9,107.32,107.32,0,0,1,393,46.65a180.72,180.72,0,0,1,18.74,1,144.63,144.63,0,0,1,17.48,2.87,130,130,0,0,1,13,3.63l-4.49,52.2a89,89,0,0,0-15-5,67.22,67.22,0,0,0-15.24-1.75q-16.49,0-24.48,11t-8,34.22V422.35q0,30.48-6.75,49.83t-18.36,30.23a64.39,64.39,0,0,1-26.1,15.11A106.07,106.07,0,0,1,293.81,521.77Z" fill="#afd3f0"></path>
    <path d="M357.54,521.77a179.38,179.38,0,0,1-18.86-1,148,148,0,0,1-17.48-2.87,111.8,111.8,0,0,1-12.87-3.62l4.5-52.21a88.93,88.93,0,0,0,14.86,5,66.07,66.07,0,0,0,15.37,1.75q16.49,0,24.35-11.11t7.87-34.1V146.07q0-30.46,6.74-49.83T400.38,66A64.33,64.33,0,0,1,426.61,50.9a107.37,107.37,0,0,1,30.1-4.25,180.72,180.72,0,0,1,18.74,1,144.3,144.3,0,0,1,17.48,2.87,130,130,0,0,1,13,3.63l-4.49,52.2a88.73,88.73,0,0,0-15-5,67.22,67.22,0,0,0-15.24-1.75q-16.49,0-24.48,11t-8,34.22V422.35q0,30.48-6.75,49.83t-18.36,30.23a64.33,64.33,0,0,1-26.1,15.11A106.07,106.07,0,0,1,357.54,521.77Z" fill="#eedcec"></path>
  </g>
  <g>
    <g>
      <path d="M135.5,304.26V253.74h2.26v46.13h.29l13.18-18.21L161.1,268q5-7,10.33-14.28h2.12v50.52h-2.27v-46.2H171l-13.14,18.18q-6,8.25-10.92,15.07l-9.35,12.95Z" fill="#231f20"></path>
      <path d="M188.08,304.26v-35l2.13-.15v35.15Zm1.2-16.72v-2.06h24.35v2.06Zm23.07,16.72v-35h2.13v35Z" fill="#231f20"></path>
      <path d="M236.52,304.26V269.61l.88,1.7H223.05v-2.05h29.06v2.05H237.76l.88-1.7v34.65Z" fill="#231f20"></path>
      <path d="M275.14,304.9a18.33,18.33,0,0,1-9.76-2.39,14.91,14.91,0,0,1-5.82-6.55,22.42,22.42,0,0,1-1.93-9.48,21,21,0,0,1,2-9.27,15.62,15.62,0,0,1,5.47-6.36,14.57,14.57,0,0,1,8.15-2.3,14.17,14.17,0,0,1,7.2,1.75,11.77,11.77,0,0,1,4.69,5,17.41,17.41,0,0,1,1.65,7.89c0,.8,0,1.54-.05,2.21s-.12,1.35-.23,2l-1.92-1.91a9.28,9.28,0,0,0,.07-1.14v-1.06q0-6.45-3.11-9.5a11.26,11.26,0,0,0-8.22-3,12.84,12.84,0,0,0-7.34,2,12.62,12.62,0,0,0-4.57,5.56,19.84,19.84,0,0,0-1.56,8.08v.14a20,20,0,0,0,1.67,8.48,12.19,12.19,0,0,0,5.05,5.57,16.91,16.91,0,0,0,8.59,2,24.33,24.33,0,0,0,3.72-.28,21.61,21.61,0,0,0,3.59-.87,17.77,17.77,0,0,0,3.39-1.54l.21,2.41a15.07,15.07,0,0,1-3.08,1.38,23,23,0,0,1-3.74.87A27.54,27.54,0,0,1,275.14,304.9Zm-16.37-17.43v-2.06h26.15l1.56.22v1.84Z" fill="#231f20"></path>
      <path d="M297.39,304.26v-35h22v2.05H298.17l1.35-1.7v34.65Z" fill="#231f20"></path>
      <path d="M328.29,318V269.26l2.12-.22v4.4h.43a13.34,13.34,0,0,1,2.76-2.31,16.87,16.87,0,0,1,4-1.86,16.16,16.16,0,0,1,4.92-.72,15,15,0,0,1,8.47,2.34,15.19,15.19,0,0,1,5.44,6.43,22,22,0,0,1,1.89,9.3,23.19,23.19,0,0,1-1.75,9.09,15.52,15.52,0,0,1-5.24,6.68,14.5,14.5,0,0,1-8.67,2.51,16.1,16.1,0,0,1-4.66-.64,13.68,13.68,0,0,1-3.93-1.87,15.89,15.89,0,0,1-3.24-3h-.43v18.5Zm14.38-15.38a12.43,12.43,0,0,0,7.73-2.26,13.27,13.27,0,0,0,4.36-5.92,21.93,21.93,0,0,0,1.38-7.83,20.72,20.72,0,0,0-1.47-7.94,12.23,12.23,0,0,0-12.14-7.86,15.56,15.56,0,0,0-4.61.69,14.59,14.59,0,0,0-4.16,2.07,13.68,13.68,0,0,0-3.35,3.47v18.43a17.86,17.86,0,0,0,3.21,3.86,12.73,12.73,0,0,0,4,2.44A14,14,0,0,0,342.67,302.63Z" fill="#231f20"></path>
      <path d="M378.1,304.9a12.67,12.67,0,0,1-5.79-1.22,8.73,8.73,0,0,1-3.65-3.38,9.85,9.85,0,0,1-1.26-5,9.29,9.29,0,0,1,1.05-4.62,9,9,0,0,1,2.73-3,14.76,14.76,0,0,1,3.63-1.84,29.73,29.73,0,0,1,3.79-1.06l12.26-2.56c.12-3.26-.24-5.69-1.08-7.31a6.3,6.3,0,0,0-3.44-3.23,13.78,13.78,0,0,0-4.76-.79A23.38,23.38,0,0,0,379,271a27,27,0,0,0-2.87.46,33.44,33.44,0,0,0-3.26.87c-1.17.36-2.43.82-3.78,1.36l-.21-2.34a27.45,27.45,0,0,1,2.82-1.06c1-.33,2.1-.63,3.22-.89a32.5,32.5,0,0,1,3.39-.6,26.57,26.57,0,0,1,3.26-.21,14,14,0,0,1,6,1.2,8.67,8.67,0,0,1,3.95,3.79,14.09,14.09,0,0,1,1.4,6.7v24h-2.06v-5.67h-.42a14.43,14.43,0,0,1-3.11,3.14,15.87,15.87,0,0,1-4.26,2.3A14.36,14.36,0,0,1,378.1,304.9Zm0-2.27a14.13,14.13,0,0,0,4.7-.83,13.49,13.49,0,0,0,4.48-2.67,14.85,14.85,0,0,0,3.51-4.86l.07-10.49a16.37,16.37,0,0,1-1.81.71c-.75.26-1.87.57-3.36.92s-3.57.78-6.24,1.28a24.29,24.29,0,0,0-4.89,1.43,9,9,0,0,0-3.6,2.64,6.87,6.87,0,0,0-1.36,4.43q0,4.05,2.39,5.74A10.26,10.26,0,0,0,378.1,302.63Z" fill="#231f20"></path>
      <path d="M402.73,304.76a6.66,6.66,0,0,1-.73,0l-.85-.08c-.29,0-.59-.09-.9-.16l.28-2.16a11.82,11.82,0,0,0,1.26.21,9.27,9.27,0,0,0,1,.07,4.23,4.23,0,0,0,3.53-1.72,12.49,12.49,0,0,0,2.05-4.54,42.22,42.22,0,0,0,1.08-6.14q.36-3.33.57-6.56c.16-2.38.33-4.79.5-7.21s.33-4.81.49-7.17h21.47v35h-2.12V269.61l1.27,1.7h-20l1.46-1.7c-.12,1.61-.23,3.21-.34,4.82s-.21,3.22-.32,4.84-.23,3.29-.37,5q-.26,3.72-.67,7.35a37.79,37.79,0,0,1-1.35,6.61,11.58,11.58,0,0,1-2.66,4.75A6.2,6.2,0,0,1,402.73,304.76Z" fill="#231f20"></path>
    </g>
    <line x1="135.5" y1="327.16" x2="432.49" y2="327.16" fill="none" stroke="#231f20" stroke-miterlimit="10" stroke-width="2.13"></line>
  </g>
</svg>
